<svg xmlns="http://www.w3.org/2000/svg" width="170.094" height="170.094" viewBox="0 0 170.094 170.094">
  <g id="g2223_1_" data-name="g2223 (1)" transform="translate(-0.333 -0.333)">
    <path id="Trazado_604835" data-name="Trazado 604835" d="M8.631.333H124.792a8.3,8.3,0,0,1,8.3,8.3v153.5a8.3,8.3,0,0,1-8.3,8.3H8.631a8.3,8.3,0,0,1-8.3-8.3V8.63A8.3,8.3,0,0,1,8.631.333Z" fill="#79b2ff"/>
    <path id="Trazado_604836" data-name="Trazado 604836" d="M133.3,53.666h25.468V196.1H53.667V53.666H79.135" transform="translate(-39.505 -39.504)" fill="#fff"/>
    <path id="Trazado_604837" data-name="Trazado 604837" d="M163.458,25.225h37.28a7.346,7.346,0,0,0,7.346-7.347V.333H156.111V17.878A7.347,7.347,0,0,0,163.458,25.225Z" transform="translate(-115.386)" fill="#dabceb"/>
    <path id="Trazado_604838" data-name="Trazado 604838" d="M163.458,25.225h37.28a7.346,7.346,0,0,0,7.346-7.347V.333H156.111V17.878A7.347,7.347,0,0,0,163.458,25.225Z" transform="translate(-115.386)" fill="#b6c0d7"/>
    <path id="Trazado_604839" data-name="Trazado 604839" d="M410.267,211.044l40.507-40.507a9.144,9.144,0,1,1,12.931,12.931L423.2,223.975,399.89,234.352Z" transform="translate(-295.956 -124.088)" fill="#ffc15a"/>
    <path id="Trazado_604840" data-name="Trazado 604840" d="M423.2,347.342l-12.931-12.931-10.377,23.308Z" transform="translate(-295.955 -247.455)" fill="#98a1b3"/>
    <path id="Trazado_604841" data-name="Trazado 604841" d="M591.923,187.913l4.445-4.445a9.143,9.143,0,0,0-12.93-12.931l-4.445,4.445Z" transform="translate(-428.619 -124.089)" fill="#dabceb"/>
    <path id="Trazado_604842" data-name="Trazado 604842" d="M584.49,200.829a3.457,3.457,0,0,0,0-4.889L571.56,183.009a3.457,3.457,0,0,0-4.889,4.889L579.6,200.829A3.457,3.457,0,0,0,584.49,200.829Z" transform="translate(-418.742 -134.56)" fill-rule="evenodd"/>
    <path id="Trazado_604843" data-name="Trazado 604843" d="M139.793,182.459H117.667V160.333h22.126Z" transform="translate(-86.91 -118.514)" fill="#c7edb4"/>
    <path id="Trazado_604844" data-name="Trazado 604844" d="M139.793,329.126H117.667V307h22.126Z" transform="translate(-86.91 -227.152)" fill="#c7edb4"/>
    <path id="Trazado_604845" data-name="Trazado 604845" d="M139.793,475.792H117.667V453.666h22.126Z" transform="translate(-86.91 -335.789)" fill="#dabceb"/>
    <path id="Trazado_604846" data-name="Trazado 604846" d="M276.018,182.092a3.456,3.456,0,0,0,2.445-1.013l15.608-15.608a3.457,3.457,0,1,0-4.889-4.889l-13.163,13.163-5.246-5.246a3.457,3.457,0,0,0-4.889,4.889l7.691,7.691A3.457,3.457,0,0,0,276.018,182.092Z" transform="translate(-195.945 -117.948)" fill-rule="evenodd"/>
    <path id="Trazado_604847" data-name="Trazado 604847" d="M276.018,328.758a3.457,3.457,0,0,0,2.445-1.013l15.608-15.608a3.457,3.457,0,0,0-4.889-4.889l-13.163,13.163-5.246-5.247a3.457,3.457,0,0,0-4.889,4.889l7.691,7.691A3.458,3.458,0,0,0,276.018,328.758Z" transform="translate(-195.945 -226.585)" fill-rule="evenodd"/>
    <path id="Trazado_604848" data-name="Trazado 604848" d="M280.713,474.412a3.457,3.457,0,0,0,4.889,0L301.21,458.8a3.457,3.457,0,0,0-4.889-4.889l-15.608,15.608A3.457,3.457,0,0,0,280.713,474.412Z" transform="translate(-206.93 -335.223)" fill-rule="evenodd"/>
    <path id="Trazado_604849" data-name="Trazado 604849" d="M301.21,474.412a3.457,3.457,0,0,0,0-4.889L285.6,453.915a3.457,3.457,0,0,0-4.889,4.889l15.608,15.608A3.457,3.457,0,0,0,301.21,474.412Z" transform="translate(-206.93 -335.223)" fill-rule="evenodd"/>
  </g>
</svg>
