<svg xmlns="http://www.w3.org/2000/svg" width="294.665" height="394.664" viewBox="0 0 294.665 394.664">
  <g id="Grupo_1014977" data-name="Grupo 1014977" transform="translate(-685 -1067)">
    <g id="g2223_1_" data-name="g2223 (1)" transform="translate(684.666 1066.667)">
      <path id="Trazado_604835" data-name="Trazado 604835" d="M14.707.333H215.941a14.374,14.374,0,0,1,14.374,14.374V280.623A14.374,14.374,0,0,1,215.941,295H14.707A14.374,14.374,0,0,1,.333,280.623V14.707A14.374,14.374,0,0,1,14.707.333Z" fill="#79b2ff"/>
      <path id="Trazado_604836" data-name="Trazado 604836" d="M191.616,53.666h44.12V300.418H53.667V53.666h44.12" transform="translate(-29.377 -29.377)" fill="#fff"/>
      <path id="Trazado_604837" data-name="Trazado 604837" d="M168.838,43.455H233.42a12.727,12.727,0,0,0,12.727-12.727V.333H156.111V30.728A12.727,12.727,0,0,0,168.838,43.455Z" transform="translate(-85.805)" fill="#dabceb"/>
      <path id="Trazado_604838" data-name="Trazado 604838" d="M168.838,43.455H233.42a12.727,12.727,0,0,0,12.727-12.727V.333H156.111V30.728A12.727,12.727,0,0,0,168.838,43.455Z" transform="translate(-85.805)" fill="#b6c0d7"/>
      <path id="Trazado_604839" data-name="Trazado 604839" d="M417.867,242.672,488.04,172.5a15.84,15.84,0,1,1,22.4,22.4l-70.173,70.174L399.89,283.05Z" transform="translate(-220.082 -92.276)" fill="#ffc15a"/>
      <path id="Trazado_604840" data-name="Trazado 604840" d="M440.267,356.812l-22.4-22.4-17.977,40.378Z" transform="translate(-220.082 -184.016)" fill="#98a1b3"/>
      <path id="Trazado_604841" data-name="Trazado 604841" d="M601.393,202.6l7.7-7.7a15.84,15.84,0,0,0-22.4-22.4l-7.7,7.7Z" transform="translate(-318.735 -92.276)" fill="#dabceb"/>
      <path id="Trazado_604842" data-name="Trazado 604842" d="M598.283,214.622a5.989,5.989,0,0,0,0-8.47l-22.4-22.4a5.989,5.989,0,1,0-8.47,8.47l22.4,22.4A5.989,5.989,0,0,0,598.283,214.622Z" transform="translate(-311.39 -100.063)" fill-rule="evenodd"/>
      <path id="Trazado_604843" data-name="Trazado 604843" d="M156,198.663h-38.33v-38.33H156Z" transform="translate(-64.629 -88.131)" fill="#c7edb4"/>
      <path id="Trazado_604844" data-name="Trazado 604844" d="M156,345.33h-38.33V307H156Z" transform="translate(-64.629 -168.917)" fill="#c7edb4"/>
      <path id="Trazado_604845" data-name="Trazado 604845" d="M156,492h-38.33V453.666H156Z" transform="translate(-64.629 -249.703)" fill="#dabceb"/>
      <path id="Trazado_604846" data-name="Trazado 604846" d="M284.183,198.586a5.988,5.988,0,0,0,4.235-1.755l27.038-27.038a5.989,5.989,0,1,0-8.47-8.47l-22.8,22.8-9.089-9.089a5.989,5.989,0,1,0-8.47,8.47l13.324,13.324A5.989,5.989,0,0,0,284.183,198.586Z" transform="translate(-145.711 -87.71)" fill-rule="evenodd"/>
      <path id="Trazado_604847" data-name="Trazado 604847" d="M284.183,345.252a5.989,5.989,0,0,0,4.235-1.754l27.038-27.039a5.989,5.989,0,0,0-8.47-8.47l-22.8,22.8-9.089-9.089a5.989,5.989,0,0,0-8.47,8.47L279.948,343.5A5.99,5.99,0,0,0,284.183,345.252Z" transform="translate(-145.711 -168.496)" fill-rule="evenodd"/>
      <path id="Trazado_604848" data-name="Trazado 604848" d="M281.455,490.165a5.99,5.99,0,0,0,8.47,0l27.038-27.038a5.989,5.989,0,0,0-8.47-8.47L281.455,481.7A5.989,5.989,0,0,0,281.455,490.165Z" transform="translate(-153.88 -249.283)" fill-rule="evenodd"/>
      <path id="Trazado_604849" data-name="Trazado 604849" d="M316.963,490.165a5.989,5.989,0,0,0,0-8.47l-27.038-27.038a5.989,5.989,0,0,0-8.47,8.47l27.039,27.038A5.989,5.989,0,0,0,316.963,490.165Z" transform="translate(-153.88 -249.283)" fill-rule="evenodd"/>
    </g>
    <rect id="Rectángulo_347457" data-name="Rectángulo 347457" width="184" height="71" rx="17" transform="translate(708 1390.664)" fill="#304c8e"/>
    <path id="Trazado_609265" data-name="Trazado 609265" d="M49.835,13.335H43.7v4.594h7.167V20H41.109V5.07H50.8V7.162H43.7v4.122h6.132Zm5.506-4.43V20.984a3.65,3.65,0,0,1-.846,2.6,3.242,3.242,0,0,1-2.476.9,4.98,4.98,0,0,1-1.323-.174V22.338a3.839,3.839,0,0,0,.882.092q1.241,0,1.271-1.354V8.905ZM52.634,6.024A1.322,1.322,0,0,1,53,5.07a1.375,1.375,0,0,1,1.041-.379,1.392,1.392,0,0,1,1.046.379,1.312,1.312,0,0,1,.369.954,1.282,1.282,0,0,1-.369.938,1.4,1.4,0,0,1-1.046.374A1.386,1.386,0,0,1,53,6.962,1.292,1.292,0,0,1,52.634,6.024ZM62.888,20.205a5.155,5.155,0,0,1-3.84-1.492,5.412,5.412,0,0,1-1.471-3.973v-.308a6.657,6.657,0,0,1,.641-2.969,4.878,4.878,0,0,1,1.8-2.035A4.758,4.758,0,0,1,62.6,8.7a4.355,4.355,0,0,1,3.5,1.446,6.114,6.114,0,0,1,1.236,4.091v1h-7.25a3.332,3.332,0,0,0,.918,2.174,2.755,2.755,0,0,0,2.025.8,3.374,3.374,0,0,0,2.789-1.384l1.343,1.282a4.486,4.486,0,0,1-1.779,1.543A5.57,5.57,0,0,1,62.888,20.205Zm-.3-9.505a2.1,2.1,0,0,0-1.656.718,3.72,3.72,0,0,0-.8,2h4.748v-.185a3.029,3.029,0,0,0-.667-1.892A2.082,2.082,0,0,0,62.591,10.7Zm9.023-1.794.072,1.159a3.992,3.992,0,0,1,3.2-1.364,3.067,3.067,0,0,1,3.045,1.7,3.935,3.935,0,0,1,3.4-1.7,3.459,3.459,0,0,1,2.733,1.015,4.469,4.469,0,0,1,.918,2.994V20H82.494V12.781a2.207,2.207,0,0,0-.461-1.548,2.02,2.02,0,0,0-1.528-.492,2.075,2.075,0,0,0-1.389.456,2.406,2.406,0,0,0-.754,1.195L78.372,20H75.88V12.7a1.777,1.777,0,0,0-2-1.958,2.193,2.193,0,0,0-2.123,1.22V20H69.266V8.905Zm25.645,5.66a6.606,6.606,0,0,1-1.169,4.107,4.061,4.061,0,0,1-6.06.333v5.26H87.539V8.905h2.3l.1,1.128A3.66,3.66,0,0,1,92.922,8.7a3.782,3.782,0,0,1,3.184,1.512,6.782,6.782,0,0,1,1.154,4.2Zm-2.481-.215a4.627,4.627,0,0,0-.661-2.635,2.15,2.15,0,0,0-1.892-.974A2.293,2.293,0,0,0,90.03,12v4.922a2.314,2.314,0,0,0,2.215,1.292,2.148,2.148,0,0,0,1.861-.959A5.094,5.094,0,0,0,94.778,14.35ZM102.017,20H99.525V4.25h2.492Zm2.246-5.65a6.542,6.542,0,0,1,.646-2.938,4.718,4.718,0,0,1,1.815-2.01,5.114,5.114,0,0,1,2.687-.7,4.846,4.846,0,0,1,3.645,1.446,5.687,5.687,0,0,1,1.512,3.835l.01.584a6.6,6.6,0,0,1-.631,2.933,4.661,4.661,0,0,1-1.8,2,5.151,5.151,0,0,1-2.712.708,4.813,4.813,0,0,1-3.758-1.564,5.989,5.989,0,0,1-1.41-4.168Zm2.492.215a4.471,4.471,0,0,0,.708,2.681,2.3,2.3,0,0,0,1.969.969,2.275,2.275,0,0,0,1.964-.984,4.938,4.938,0,0,0,.7-2.881,4.413,4.413,0,0,0-.723-2.666,2.437,2.437,0,0,0-3.9-.015A4.844,4.844,0,0,0,106.754,14.565Z" transform="translate(740 1413.664)" fill="#fff"/>
  </g>
</svg>
