<svg xmlns="http://www.w3.org/2000/svg" width="431.991" height="432.762" viewBox="0 0 431.991 432.762">
  <g id="Group_51_" data-name="Group (51)" transform="translate(0 1.732)">
    <path id="Trazado_606102" data-name="Trazado 606102" d="M422.834,210.495c7.139,36.424,21.606,110.25-13.016,159.636C346.98,459.763,133.274,453.447,43,340.439c-7.8-9.77-46.953-60.733-42.68-130.518C7.732,88.876,141.468-18.411,248.647,2.662c62.726,12.332,104.417,66.284,121.581,88.494C377.3,100.311,409.695,143.463,422.834,210.495Z" transform="translate(0 -0.846)" fill="#e0e4ee"/>
    <path id="Trazado_606103" data-name="Trazado 606103" d="M401.27,279.07c-6.891-15.4-14.624-38.972-11.161-66.267,4.542-35.8,24.355-46.556,45.624-101.478,13.448-34.727,22.484-59.1,10.538-79.159-9.363-15.722-30.49-26.913-47.715-23.186-14.322,3.1-27.626,16.871-34.5,27.8-5.6,8.907-7.233,16.394-14.865,19.128-7.8,2.793-12.667-2.675-19.539-1.065-13.937,3.265-18.481,31.5-19.218,36.068-8.171,50.769,21.292,99.653,34.4,120.823a311.526,311.526,0,0,0,56.433,67.339Z" transform="translate(-150.992 -4.883)" fill="#4ca220"/>
    <g id="Grupo_1014706" data-name="Grupo 1014706" transform="translate(102.884 -1.732)">
      <g id="Grupo_1014705" data-name="Grupo 1014705" opacity="0.5">
        <path id="Trazado_606104" data-name="Trazado 606104" d="M453.588,293.32c-16.642-15.807-29.921-31.911-39.467-47.866-14.133-23.621-19.617-46.256-16.3-67.278,2.592-16.437,10.708-32.024,20.983-51.757A311.907,311.907,0,0,1,441.452,89.7c8.579-12.362,15.356-22.126,20.259-38.289,4.981-16.423,6.343-34.26,4.048-53.012l1.058-.13c2.314,18.9.939,36.885-4.083,53.451-4.953,16.324-11.77,26.149-20.4,38.587a310.883,310.883,0,0,0-22.579,36.6c-10.635,20.419-18.314,35.171-20.88,51.435-3.274,20.769,2.162,43.164,16.163,66.565,9.5,15.87,22.714,31.9,39.285,47.639l-.734.772Z" transform="translate(-296.803 1.732)" fill="#fff"/>
        <path id="Trazado_606105" data-name="Trazado 606105" d="M423.793,127.76l.063-.6c3.7-34.479-4.664-60.526-12.339-76.3-8.3-17.079-17.582-26.111-17.674-26.2l.739-.767c.094.09,9.506,9.254,17.893,26.5,7.689,15.809,16.069,41.844,12.5,76.271a88.248,88.248,0,0,0,28.582-7.044c14.652-6.258,34.7-19.5,47-47.026l.973.434c-12.447,27.862-32.751,41.257-47.592,47.588a87.39,87.39,0,0,1-29.545,7.136Z" transform="translate(-295.319 -10.787)" fill="#fff"/>
        <path id="Trazado_606106" data-name="Trazado 606106" d="M377,194.767l-.3-.243c-13.092-10.63-22.839-34.9-28.972-72.126a444.327,444.327,0,0,1-5.3-52.8l1.065-.031a443.387,443.387,0,0,0,5.288,52.667c5.956,36.153,15.736,60.762,28.294,71.218A254.091,254.091,0,0,1,415.2,173.861c20.412-8.139,56.133,1.058,56.491,1.152l-.269,1.031a163.633,163.633,0,0,0-20.337-3.635c-10.408-1.19-25.013-1.733-35.49,2.443a252.592,252.592,0,0,0-38.27,19.7l-.326.21Z" transform="translate(-270.198 -33.105)" fill="#fff"/>
        <path id="Trazado_606107" data-name="Trazado 606107" d="M314.814,311.111l-.923-.524c-.158-.09-16.076-9.169-34.786-25.983-17.275-15.521-40.543-41.006-53.3-74.262l-24.621-64.19.994-.382L226.8,209.958c12.676,33.049,35.817,58.392,53,73.833a229.733,229.733,0,0,0,33.7,25.329c-1.428-13.5,1.907-32.205,24.794-46.839a99.074,99.074,0,0,1,29.066-12.191l.219,1.044a97.878,97.878,0,0,0-28.736,12.06c-8.094,5.179-14.291,11.262-18.422,18.078-5.149,8.5-7.082,18.184-5.741,28.785Z" transform="translate(-201.184 -70.338)" fill="#fff"/>
      </g>
    </g>
    <path id="Trazado_606108" data-name="Trazado 606108" d="M333,364c-26.595,1.57-60.7-.224-93.952-13.222-8.486-3.316-60.911-23.806-56.078-47.448,1.7-8.329,9.069-10.014,11.539-21.109,2.925-13.146-5.548-19.194-12.03-35.048-3.869-9.461-15.188-37.147.892-53.643,9.608-9.858,28.566-15.273,43.35-12.627,21.685,3.883,30.14,24.349,43.846,59.23,12.15,30.919,9.853,38.785,18.991,60.9C296.343,317.439,308.67,339.877,333,364Z" transform="translate(-85.504 -88.909)" fill="#4ca220"/>
    <g id="Grupo_1014708" data-name="Grupo 1014708" transform="translate(88.918 63.463)">
      <g id="Grupo_1014707" data-name="Grupo 1014707" opacity="0.5">
        <path id="Trazado_606109" data-name="Trazado 606109" d="M425.328,348.54a159.049,159.049,0,0,1-29.238-2.688c-36.365-6.789-68.628-26.658-95.89-59.06-28.339-33.681-44.181-72.473-52.481-99.087-5.784-18.547-5.949-39.392-.491-61.952l1.037.25c-5.413,22.369-5.253,43.022.472,61.383C257,213.905,272.788,252.56,301.013,286.1c27.1,32.208,59.155,51.957,95.272,58.7,27.114,5.061,55.425,2.923,84.147-6.355l.328,1.013A180.068,180.068,0,0,1,425.328,348.54Z" transform="translate(-207.774 -125.753)" fill="#fff"/>
        <path id="Trazado_606110" data-name="Trazado 606110" d="M236.851,263.263l-.416-.239c-59.31-34.108-60.955-76.821-60.047-89.1.016-.238.031-.394.031-.462l1.065-.059a5.032,5.032,0,0,1-.031.6c-.895,12.093.734,54.1,59.1,87.855a110.679,110.679,0,0,0,11.935-23.682c4.822-13.248,9.178-33.393,2.535-54.127l1.015-.326c6.737,21.033,2.328,41.436-2.561,54.846a109.483,109.483,0,0,1-12.339,24.3l-.281.387Z" transform="translate(-175.033 -149.036)" fill="#fff"/>
        <path id="Trazado_606111" data-name="Trazado 606111" d="M238.181,325.469c-19.546,0-33.762-4.674-43.162-9.423a69.41,69.41,0,0,1-16.087-11.1,39.258,39.258,0,0,1-5.057-5.548l.876-.609c.064.09,6.433,9.084,20.811,16.333,23.937,12.067,51.379,10.167,70.287,6.407,1.249-3.215,13.153-35.32,7.8-77.164l-5.7-44.573,1.058-.134,5.7,44.573c5.653,44.2-7.842,77.633-7.979,77.966l-.109.262-.278.057a143.022,143.022,0,0,1-28.162,2.949Z" transform="translate(-173.875 -161.865)" fill="#fff"/>
      </g>
    </g>
    <path id="Trazado_606112" data-name="Trazado 606112" d="M353.622,137.612v103.81a6.236,6.236,0,0,0,6.227,6.242H558.566a5.616,5.616,0,0,0,5.411-5.8V145.282l-210.356-7.67Z" transform="translate(-172.781 -68.085)" fill="#d2aee6"/>
    <path id="Trazado_606113" data-name="Trazado 606113" d="M558.568,120.448l-198.716-8.114a5.939,5.939,0,0,0-6.227,5.987v10.636L563.98,136.37v-9.9a5.9,5.9,0,0,0-5.411-6.026Z" transform="translate(-172.783 -55.731)" fill="#7e19b8"/>
    <path id="Trazado_606114" data-name="Trazado 606114" d="M376.273,126.436a2.634,2.634,0,0,1-2.75,2.658,2.889,2.889,0,0,1-2.755-2.868,2.635,2.635,0,0,1,2.755-2.658A2.888,2.888,0,0,1,376.273,126.436Z" transform="translate(-181.16 -61.222)" fill="#fff"/>
    <path id="Trazado_606115" data-name="Trazado 606115" d="M422.3,252.674l-15.585-.071V175.39l15.585.472Z" transform="translate(-198.725 -86.543)" fill="#fff"/>
    <path id="Trazado_606116" data-name="Trazado 606116" d="M422.3,291.422l-15.585-.071V254.693l15.585.26Z" transform="translate(-198.725 -125.291)" fill="#b890ce"/>
    <path id="Trazado_606117" data-name="Trazado 606117" d="M464.394,253.4l-15.361-.069V176.673l15.361.467Z" transform="translate(-219.401 -87.17)" fill="#fff"/>
    <path id="Trazado_606118" data-name="Trazado 606118" d="M464.394,309.251l-15.361-.069v-18.2l15.361.163Z" transform="translate(-219.401 -143.024)" fill="#b890ce"/>
    <path id="Trazado_606119" data-name="Trazado 606119" d="M505.882,254.11l-15.143-.069v-76.1l15.143.46Z" transform="translate(-239.779 -87.788)" fill="#fff"/>
    <path id="Trazado_606120" data-name="Trazado 606120" d="M505.882,317.76l-15.143-.069v-9.485l15.143.118Z" transform="translate(-239.779 -151.439)" fill="#b890ce"/>
    <path id="Trazado_606121" data-name="Trazado 606121" d="M546.78,254.813l-14.926-.066V179.184l14.926.453Z" transform="translate(-259.868 -88.397)" fill="#fff"/>
    <path id="Trazado_606122" data-name="Trazado 606122" d="M546.78,270.453l-14.926-.066V211.192l14.926.371Z" transform="translate(-259.868 -104.036)" fill="#b890ce"/>
    <path id="Trazado_606123" data-name="Trazado 606123" d="M587.1,255.508l-14.718-.066V180.417l14.718.446Z" transform="translate(-279.671 -89)" fill="#fff"/>
    <path id="Trazado_606124" data-name="Trazado 606124" d="M587.1,277.417l-14.718-.066V225.257l14.718.33Z" transform="translate(-279.671 -110.909)" fill="#b890ce"/>
    <path id="Trazado_606125" data-name="Trazado 606125" d="M626.857,256.191l-14.513-.066v-74.5l14.513.441Z" transform="translate(-299.196 -89.59)" fill="#fff"/>
    <path id="Trazado_606126" data-name="Trazado 606126" d="M626.857,266.541l-14.513-.066V202.809l14.513.385Z" transform="translate(-299.196 -99.94)" fill="#b890ce"/>
    <path id="Trazado_606127" data-name="Trazado 606127" d="M666.057,256.865l-14.31-.064V182.822l14.31.434Z" transform="translate(-318.448 -90.175)" fill="#fff"/>
    <path id="Trazado_606128" data-name="Trazado 606128" d="M666.057,284.13l-14.31-.063V238.625l14.31.293Z" transform="translate(-318.448 -117.44)" fill="#b890ce"/>
    <path id="Trazado_606129" data-name="Trazado 606129" d="M704.718,257.53l-14.114-.064V184l14.114.43Z" transform="translate(-337.434 -90.75)" fill="#fff"/>
    <path id="Trazado_606130" data-name="Trazado 606130" d="M704.718,303.353l-14.114-.064V277.783l14.114.191Z" transform="translate(-337.434 -136.573)" fill="#b890ce"/>
    <path id="Trazado_606131" data-name="Trazado 606131" d="M537.248,260.67l.071-3.432A3.727,3.727,0,0,1,536.1,255l-.071-1.251a2.451,2.451,0,0,1,1.9-1.6,1.212,1.212,0,0,0,.822-.729c.415-1.088,1.267-3.312,1.5-3.871a2.552,2.552,0,0,1,.869-.952.3.3,0,0,1,.475.314l-1.187,4.778s1.031.276.916,1.209a2.3,2.3,0,0,1,.184,1.78,23.632,23.632,0,0,1-1.551,2.774l-.321,3.482-2.4-.267Z" transform="translate(-261.909 -121.307)" fill="#cbaf85"/>
    <path id="Trazado_606132" data-name="Trazado 606132" d="M473.837,271.292c-.229,2.221-1.744,15.049-12.112,21.954-11.562,7.7-25.943-.909-44.113-4.226-1.195,1.862-13.734,21.649-5,34.165,9.379,13.441,43.114,9.936,59.009-9.244,13.6-16.411,8.816-38.511,8-42.019q-2.893-.319-5.783-.635Z" transform="translate(-200.104 -133.399)" fill="#263c71"/>
    <path id="Trazado_606133" data-name="Trazado 606133" d="M359.888,658.265c-.588.541-.626,1.806-.649,2.632a1.981,1.981,0,0,0,.033.68c.356.928,2.2.916,5.089,1.034,4.572.186,5.946.462,6.263-.236.3-.654-.576-1.643-.672-1.751a4.178,4.178,0,0,0-2.321-1.084c-2.188-.576-3.659-.873-4.1-.963-2.783-.565-3.248-.668-3.635-.312Z" transform="translate(-175.523 -322.379)" fill="#2d262a"/>
    <path id="Trazado_606134" data-name="Trazado 606134" d="M363.322,649.545l.18,5.205a2.817,2.817,0,0,1-2.911.2l-.9-5.155,3.631-.253Z" transform="translate(-175.749 -318.219)" fill="#cbaf85"/>
    <path id="Trazado_606135" data-name="Trazado 606135" d="M435.107,656.429a2.562,2.562,0,0,0-.43,3.06c.6.765,1.579.266,4.282.494,2.894.24,3.614.965,5.614.528.807-.177,2.242-.635,2.245-1.206,0-.4-.7-.644-3.05-1.575a31.312,31.312,0,0,0-4.027-1.537C437.947,655.8,436.146,655.4,435.107,656.429Z" transform="translate(-212.221 -321.263)" fill="#322a2f"/>
    <path id="Trazado_606136" data-name="Trazado 606136" d="M436.528,648l1.2,4.915a2.817,2.817,0,0,1-2.887.425l-1.91-4.811Z" transform="translate(-211.532 -317.466)" fill="#cbaf85"/>
    <path id="Trazado_606137" data-name="Trazado 606137" d="M400.859,439.51a453.645,453.645,0,0,0,8.585,108.1q-2.822.6-5.646,1.2a47.26,47.26,0,0,1-12.384-21.781c-1.454-6.154-.7-9.237-1.426-16.749-1.161-11.964-4.469-18.375-7.717-28.143a157.618,157.618,0,0,1-7.479-38.6Z" transform="translate(-183.127 -215.594)" fill="#1c2d55"/>
    <g id="Grupo_1014709" data-name="Grupo 1014709" transform="translate(191.664 225.625)" opacity="0.3">
      <path id="Trazado_606138" data-name="Trazado 606138" d="M398.258,517.165c-2.073-8.206-6.064-10.375-6.206-18.123-.1-5.479,1.867-5.928,1.737-11.17-.2-7.955-4.858-12.126-7.2-17.129-2.472-5.285-3.42-13.772,3.244-27.89l-15.044,2.327a157.718,157.718,0,0,0,7.478,38.6c3.248,9.771,6.556,16.182,7.717,28.143.729,7.514-.028,10.594,1.426,16.749a47.283,47.283,0,0,0,12.384,21.781l1.435-.3c-4.834-5.772-6.541-10.925-6.975-15.106-.706-6.8,2.089-9.6,0-17.874Z" transform="translate(-374.789 -442.853)" fill="#1c2e5e"/>
    </g>
    <path id="Trazado_606139" data-name="Trazado 606139" d="M360.879,437.223q-3.361,30.919-6.15,63.016-2.086,24.082-3.723,47.566-2.861.2-5.722.4a66.327,66.327,0,0,1-5.113-15.617c-1.591-8.222-.864-13.014-1.3-21.472-.491-9.485-1.83-11.616-3.756-23.651-3.912-24.423-5.866-36.637.335-43.837,2.014-2.337,8.243-8.139,25.431-6.4Z" transform="translate(-161.956 -214.322)" fill="#1c2d55"/>
    <g id="Grupo_1014710" data-name="Grupo 1014710" transform="translate(210.032 159.542)" opacity="0.3">
      <path id="Trazado_606140" data-name="Trazado 606140" d="M481.132,313.63a18.5,18.5,0,0,1-4.209,4.882c-5.194,4.183-12.575,5.229-14.877,11.881-1.15,3.324-.085,5.311-1.992,7.134-2.7,2.583-6.565.236-12.733,1.421-5.472,1.053-7.3,3.836-10.694,5.4-4.591,2.124-12.282,2.117-25.922-6.855a15.181,15.181,0,0,0,2.474,6.381c9.378,13.441,43.114,9.936,59.008-9.242a41.628,41.628,0,0,0,8.944-21Z" transform="translate(-410.706 -313.63)" fill="#1c2e5e"/>
    </g>
    <path id="Trazado_606141" data-name="Trazado 606141" d="M292.383,305.8a123.827,123.827,0,0,1,73.559-2.077q1.54,8.608,3.079,17.213a205.015,205.015,0,0,1-.335,22.754c-.647,9.207-1.28,9.346-2.759,22.343-2.415,21.191-1.4,26.727-5.663,29.272-2.769,1.655-3.772-.343-17.907-1.744-9.478-.94-14.315-1.377-19.114.248-6.537,2.212-8.723,5.926-11.421,4.717-2.585-1.159-2.915-5.623-3.227-13.406-.481-12.006-.453-20.167-.5-23.087-.2-13.4-3.6-23.634-7.943-36.74a177.989,177.989,0,0,0-7.769-19.494Z" transform="translate(-142.861 -147.002)" fill="#263c71"/>
    <path id="Trazado_606142" data-name="Trazado 606142" d="M367.091,273.369a39.369,39.369,0,0,1-1.124,7.83c-.519,2.075-.84,2.6-1.239,3.019-.6.631-1.483,1.14-6.374,2.08-2.661.51-3,.475-3.071.732-.352,1.256,6.579,5.973,14.034,5.323,4.563-.4,8.822-2.762,8.639-4.131s-4.745-.887-5.96-3.43c-.845-1.768.335-4.152,1.686-6.1-1.084-2.32-5.512-3-6.6-5.319Z" transform="translate(-173.588 -134.417)" fill="#cbaf85"/>
    <path id="Trazado_606143" data-name="Trazado 606143" d="M383.5,269.738a4.769,4.769,0,0,0,.2-5.47,5.2,5.2,0,0,0-3.638-1.855c-2.875-.488-6.591.524-8,3.118-.836,1.537.616,4.9.838,5.507.253.682.765.939,1.221,1.468.633.734,1.624,1.9,3.239,3.853a12.028,12.028,0,0,1,.763-1.929,10.582,10.582,0,0,1,1.5-2.233c1.605-1.759,2.8-1.169,3.886-2.46Z" transform="translate(-181.666 -129.005)" fill="#2d262a"/>
    <path id="Trazado_606144" data-name="Trazado 606144" d="M376,279.912a6.47,6.47,0,0,0,5.535,3.177c3.4-.04,4.3-7.615,2.226-9.346a4.291,4.291,0,0,0-3.324-.611c-.706.158-.956.434-2.113.668-1.067.217-1.36.085-1.69.335-.415.314-.751,1.119-.205,3.376a1.849,1.849,0,0,0-1.938-.753,1.161,1.161,0,0,0-.475.415c-.52.843.215,1.995,1.985,2.734Z" transform="translate(-182.666 -134.253)" fill="#cbaf85"/>
    <path id="Trazado_606145" data-name="Trazado 606145" d="M390.5,285.949a4.122,4.122,0,0,1-2.014.206c-.061-.007-.13.007-.139.04a1.554,1.554,0,0,0,1.506.529c.538-.12.98-.6.913-.734C390.736,285.932,390.616,285.935,390.5,285.949Z" transform="translate(-189.748 -140.559)" fill="#b99c72"/>
    <path id="Trazado_606146" data-name="Trazado 606146" d="M310.144,419.176l3.411-.191s3.737-3.128,5.439-2.932a14.578,14.578,0,0,1,4.556,1.624c.309.247-.93,1.633-2.171,1.5s-4.011.536-4.506,1.629-2.644,1.754-3.01,1.112l-4.584.911.869-3.652Z" transform="translate(-151.116 -204.129)" fill="#cbaf85"/>
    <path id="Trazado_606147" data-name="Trazado 606147" d="M274.292,365.407a8.25,8.25,0,0,1-1.388,6c-4.508,5.776-19.831,3.416-28.936-4.322A29.8,29.8,0,0,1,233.789,344.5c.257-15.549,14.669-30.787,36.105-36.052q4.759,14.228,9.52,28.457c-13.214.2-21.245,10.164-20.053,17.277.888,5.3,7.065,10.063,14.933,11.229Z" transform="translate(-114.229 -151.556)" fill="#263c71"/>
    <g id="Grupo_1014711" data-name="Grupo 1014711" transform="translate(159.555 183.73)" opacity="0.3">
      <path id="Trazado_606148" data-name="Trazado 606148" d="M364.352,418.548c-6.952-2.967-6.912-9.1-13.406-11.668-9.265-3.656-19.5,4.837-21.1,2.483-1.665-2.45,10.563-9.966,8.937-17.377-1.294-5.89-9.827-4.846-14.4-12.908-4.337-7.648-.132-14.718-3.973-17.377-1.376-.954-3.805-1.329-8.411.7,3.211,10.03,5.514,18.873,5.68,29.838.045,2.92.014,11.081.5,23.087.311,7.783.642,12.247,3.227,13.406,2.7,1.209,4.884-2.5,11.42-4.717,4.8-1.624,9.636-1.187,19.114-.248,14.135,1.4,15.136,3.4,17.908,1.744,1.8-1.079,2.66-2.7,3.236-5.814a17.316,17.316,0,0,1-8.729-1.143Z" transform="translate(-312.001 -360.93)" fill="#263c71"/>
    </g>
    <path id="Trazado_606149" data-name="Trazado 606149" d="M379.042,310.016c-.462.836-.975,1.7-1.543,2.578-.248.382-.5.755-.746,1.116l-2.682.13q-.677-2.007-1.35-4.013a16.826,16.826,0,0,0,6.324.191Z" transform="translate(-182.114 -152.23)" fill="#304c8e"/>
    <path id="Trazado_606150" data-name="Trazado 606150" d="M375.512,316.931s.387,30.015,9.331,35.5c-.311.937-.663,8.711-.663,8.711S375.7,357.866,375.2,358s-9.259-17.223-2.363-40.69l2.679-.377Z" transform="translate(-180.881 -155.701)" fill="#304c8e"/>
    <path id="Trazado_606151" data-name="Trazado 606151" d="M508.8,585.408a.554.554,0,0,1-.552-.505l-10.087-109a.556.556,0,0,1,1.107-.1l8.975,96.995V473.442a.557.557,0,0,1,1.114,0V584.851a.554.554,0,0,1-.531.555H508.8Z" transform="translate(-243.403 -231.902)" fill="#152245"/>
    <path id="Trazado_606152" data-name="Trazado 606152" d="M430.075,485.706,319.428,473.582,106.86,483.244l111.329,13.333Z" transform="translate(-52.213 -232.242)" fill="#e0e4ee" opacity="0.7"/>
    <path id="Trazado_606153" data-name="Trazado 606153" d="M218.189,505.808l211.886-10.871v5.25L218.189,511.058,106.86,497.728v-5.253Z" transform="translate(-52.213 -241.473)" fill="#152245"/>
    <path id="Trazado_606154" data-name="Trazado 606154" d="M325.5,648.994h-.021a.557.557,0,0,1-.533-.557V525.777a.557.557,0,0,1,1.114,0v108.4l8.479-108.449a.556.556,0,0,1,1.11.085l-9.591,122.66a.556.556,0,0,1-.555.512Z" transform="translate(-158.771 -257.472)" fill="#152245"/>
    <path id="Trazado_606155" data-name="Trazado 606155" d="M108.7,615.416h-.021a.56.56,0,0,1-.536-.557V501.646a.557.557,0,0,1,1.114,0v99.018L117.04,501.6a.556.556,0,0,1,1.11.085L109.259,614.9a.556.556,0,0,1-.555.512Z" transform="translate(-52.841 -245.682)" fill="#152245"/>
    <path id="Trazado_606156" data-name="Trazado 606156" d="M727.29,615.418a.558.558,0,0,1-.555-.51L717.3,501.7a.555.555,0,1,1,1.107-.092l8.328,99.887V504.4a.557.557,0,0,1,1.114,0V614.861a.556.556,0,0,1-.533.555h-.023Z" transform="translate(-350.476 -245.685)" fill="#152245"/>
    <path id="Trazado_606157" data-name="Trazado 606157" d="M276.432,701.354c-.184-1.01-3.446-1.926-5.063-.571-.8.673-1.355,2.035-.89,2.651.17.225-.524.618.139.625,2.2.026,6-1.7,5.814-2.7Z" transform="translate(-132.075 -342.921)" fill="#2a2427"/>
    <path id="Trazado_606158" data-name="Trazado 606158" d="M271.842,695.145l-3.385.17c1.174-2.131-.238-7.932-.238-7.932l3.657.106s-.09,1.683-.314,4.185A15.756,15.756,0,0,0,271.842,695.145Z" transform="translate(-131.053 -336.707)" fill="#956f53"/>
    <path id="Trazado_606159" data-name="Trazado 606159" d="M271.608,702.024s-4.042-.93-4.478-.13-.776,2.949,1.787,2.878,2.917-2.07,2.691-2.75Z" transform="translate(-130.373 -343.639)" fill="#2a2427"/>
    <path id="Trazado_606160" data-name="Trazado 606160" d="M316.981,709.751c-.324-.975-3.683-1.423-5.094.142-.7.777-1.058,2.2-.51,2.748.2.2-.432.685.227.6,2.181-.283,5.7-2.521,5.378-3.492Z" transform="translate(-152.011 -347.204)" fill="#2d262a"/>
    <path id="Trazado_606161" data-name="Trazado 606161" d="M310.336,705.192l-3.326.654c.855-2.278-1.374-7.816-1.374-7.816l3.633-.418s.153,1.678.29,4.188a15.75,15.75,0,0,0,.774,3.395Z" transform="translate(-149.336 -341.705)" fill="#956f53"/>
    <path id="Trazado_606162" data-name="Trazado 606162" d="M312.134,711.293s-4.131-.356-4.452.5-.356,3.026,2.172,2.6,2.6-2.458,2.28-3.1Z" transform="translate(-150.261 -348.353)" fill="#2d262a"/>
    <path id="Trazado_606163" data-name="Trazado 606163" d="M252.692,471.473l14.274-33.438a2.941,2.941,0,0,0-2.009-4.011l-26.149-6.35a2.941,2.941,0,0,0-3.416,1.744l-13.13,32.14a2.94,2.94,0,0,0,1.86,3.923l25,7.651a2.939,2.939,0,0,0,3.564-1.657Z" transform="translate(-108.492 -209.771)" fill="#304c8e"/>
    <path id="Trazado_606164" data-name="Trazado 606164" d="M253.36,471.09l13.335-31.235a2.747,2.747,0,0,0-1.877-3.746l-24.425-5.932a2.745,2.745,0,0,0-3.189,1.629l-12.264,30.02a2.745,2.745,0,0,0,1.738,3.664l23.356,7.146a2.746,2.746,0,0,0,3.329-1.548Z" transform="translate(-109.807 -210.996)" fill="#e0e4ee"/>
    <path id="Trazado_606165" data-name="Trazado 606165" d="M294.37,478.474l.428-3.94,2.271-4.327a4.107,4.107,0,0,0,.47-1.91V464l-2.741,6.338a20.914,20.914,0,0,0-2.483-1.971c-.685-.343-.6,1.027-.085,1.541s-.258,4.712.257,5.139l-.172,2.571Z" transform="translate(-142.587 -227.56)" fill="#8c664a"/>
    <path id="Trazado_606166" data-name="Trazado 606166" d="M184.191,425.5c-2.131-5.213-6.706-8.21-9.079-9.766-5.614-3.678-9.209-3.008-22.1-4.969-17.18-2.613-19.239-5.092-25.013-3.083-7.585,2.637-11.548,9.523-13.364,12.676-9.152,15.906,1.548,23.991-1.2,55.677-1.121,12.941-4,24.187,2.913,30.836,1.454,1.4,3.083,2.131,6.338,3.6,12.912,5.809,24.489,4.809,31.523,4.112,7.74-.767,11.652-1.206,13.706-3.94,3.279-4.369-.1-9.922-.685-19.53-.422-6.9,1.145-12.364,4.282-23.3,7.294-25.419,16.762-32.329,12.676-42.316Z" transform="translate(-54.165 -199.685)" fill="#263c71"/>
    <path id="Trazado_606167" data-name="Trazado 606167" d="M180.715,386.781a8.264,8.264,0,0,0-.888-5.922c-1.263-2.328-1.586-2.646-2.188-3.05l-.838-.517-.1-.038a9.643,9.643,0,0,0-2.738-.168c-1.185.253-2.445,5.08-2.087,11.9q-.074.39-.142.786c-.186,1.076-.335,2.134-.449,3.166-.108.986-1.511.966-2.5.9-4.025-.257-6,.085-6.168.685-.321,1.124,4.455,4.8,10.352,5.623,7.913.059,14.35-.783,13.658-2.03-.307-.552-6.439-2.155-8.163-3.744-1.579-1.454-1.449-2.955-1.579-4.029.479-.248,3.255-1.516,3.831-3.57Z" transform="translate(-79.448 -185.076)" fill="#956f53"/>
    <path id="Trazado_606168" data-name="Trazado 606168" d="M182.033,366.559c-.007,2.113-1,4.372-1.511,4.736a3.5,3.5,0,0,0-.765.836,1.087,1.087,0,0,0-.12.25c-.463,1.332,1.655,2.9,1.246,3.5-.3.432-1.735-.147-1.908.227-.161.352,1.037,1.079.853,1.5-.14.319-.873.026-1.339.514-.231.243-.163.434-.408,1.176a6.641,6.641,0,0,1-.484,1.133c-.732,1.242-2.8,1.7-3.2,1.2-.111-.14-.016-.255-.13-.72a3.683,3.683,0,0,0-.4-.928,9.62,9.62,0,0,0-2.5-1.971,6.848,6.848,0,0,1-2.613-2.977c-.057-.142-.089-.25-.116-.328a7.852,7.852,0,0,1,.2-5.255c1.173-2.358,3.822-1.239,5.986-3.574,2.5-2.7,1.011-6.381,2.368-6.787,1.494-.448,4.863,3.56,4.849,7.469Z" transform="translate(-82.221 -176.281)" fill="#2b2428"/>
    <path id="Trazado_606169" data-name="Trazado 606169" d="M190.075,390.7c-.519-.713-1.428-.042-1.433.879s.888,1.879,1.754,1.7.377-1.617-.319-2.575Z" transform="translate(-92.172 -191.598)" fill="#956f53"/>
    <path id="Trazado_606170" data-name="Trazado 606170" d="M190.62,387.964l1.2,1.563s1.3,1.917,2.051.866c.619-.857.779-.838.817-.8.007.007.01.016.012.016s-.089-.427-.182-.8a7.005,7.005,0,0,1,1.027,2.207,3.9,3.9,0,0,1-.012,3.017,3,3,0,0,1-1.768,1.381,7.94,7.94,0,0,1-2.323-.229s2.052-1.49,2.084-1.844c.085-.963-1.249-1.483-2.24-3.453a7.852,7.852,0,0,1-.67-1.926Z" transform="translate(-93.137 -190.406)" fill="#2b2428"/>
    <g id="Grupo_1014712" data-name="Grupo 1014712" transform="translate(64.666 234.487)" opacity="0.3">
      <path id="Trazado_606171" data-name="Trazado 606171" d="M155.148,531.515c2.278-4.535-3.3-10.561.343-17.475,3.1-5.871,8.72-4.556,11.307-9.936,3.123-6.5-3.669-11.357-3.425-21.243.29-11.82,10.462-23.651,16.446-22.615,3.871.67,4.369,6.449,7.094,12.774a143.693,143.693,0,0,0-7.781,20.8c-3.137,10.934-4.7,16.4-4.282,23.3.588,9.61,3.963,15.162.685,19.53-2.052,2.736-5.965,3.175-13.706,3.94-7.035.7-18.611,1.7-31.524-4.112-1.633-.736-2.859-1.287-3.855-1.83,20.171,3.029,26.89.458,28.7-3.139Z" transform="translate(-126.45 -460.182)" fill="#1c2d5b"/>
    </g>
    <path id="Trazado_606172" data-name="Trazado 606172" d="M259.571,458.373q-1.884-.814-3.77-1.626c-2.122,2.172-4.832,4.282-7.11,3.6-3.4-1.022-2.547-7.268-6.68-18.245-4.686-12.436-10-15.634-12.676-16.789-1.5-.647-2.528-1.074-3.77-.772-5.71,1.4-7.6,16.277-6,27.412.9,6.274,2.672,18.573,12.764,24.413,1.433.828,9.324,5.394,17.131,1.8,6.671-3.071,10.792-10.956,10.108-19.787Z" transform="translate(-107.015 -208.231)" fill="#263c71"/>
    <path id="Trazado_606173" data-name="Trazado 606173" d="M194.443,619.41q-3.134.348-6.265.7a42.1,42.1,0,0,1-9.282-16.241c-4.31-14.683,2.439-24.319-2.089-28.075-5.219-4.332-15.528,7.37-38.284,10.675-7.325,1.062-23.585,3.423-30.164-5.337-2.667-3.553-4.2-9.537-2.089-14.617,3.784-9.107,16.248-8.012,57.309-16.01,15.818-3.081,18.316-4.089,22.074-2.295,18.585,8.872,10.835,59.039,8.784,71.206Z" transform="translate(-51.441 -268.271)" fill="#152245"/>
    <path id="Trazado_606174" data-name="Trazado 606174" d="M230.892,630.959q-3.134.347-6.265.7a42.091,42.091,0,0,1-9.282-16.241c-4.311-14.683,2.438-24.319-2.09-28.074-5.219-4.332-15.528,7.37-38.284,10.675-7.325,1.062-23.584,3.423-30.163-5.337-2.667-3.553-4.2-9.537-2.09-14.617,3.784-9.107,16.248-8.012,57.309-16.01,15.818-3.081,18.316-4.089,22.074-2.295,18.585,8.871,10.835,59.039,8.784,71.206Z" transform="translate(-69.25 -273.914)" fill="#152245"/>
    <path id="Trazado_606175" data-name="Trazado 606175" d="M143.215,749.725c19.127,0,34.633-6.327,34.633-14.133s-15.506-14.133-34.633-14.133-34.633,6.327-34.633,14.133S124.087,749.725,143.215,749.725Z" transform="translate(-53.054 -353.357)" fill="#55127d"/>
    <path id="Trazado_606176" data-name="Trazado 606176" d="M108.582,727.295c0,7.37,15.5,13.342,34.633,13.342s34.633-5.972,34.633-13.342-15.5-19.426-34.633-19.426S108.582,719.927,108.582,727.295Z" transform="translate(-53.054 -346.717)" fill="#55127d"/>
    <path id="Trazado_606177" data-name="Trazado 606177" d="M108.582,727.295c0-7.368,15.5-19.426,34.633-19.426a47.013,47.013,0,0,1,23,6.065,5.051,5.051,0,0,1,.548,2.637c-.4,4.145-7.16,6.695-11.04,7.535-9.773,2.118-14.547-3.727-22.606-3.506-4.983.137-11.885,2.642-20.077,13.241-2.835-1.934-4.459-4.166-4.459-6.548Z" transform="translate(-53.054 -346.717)" fill="#4b0f6e"/>
    <path id="Trazado_606178" data-name="Trazado 606178" d="M170.727,681.339a7.839,7.839,0,0,0,3.89.021,2.5,2.5,0,0,0,1.858-2.436V639.875h-7.7v39a2.552,2.552,0,0,0,1.955,2.46Z" transform="translate(-82.464 -313.494)" fill="#fff"/>
    <path id="Trazado_606179" data-name="Trazado 606179" d="M170.727,681.339a7.839,7.839,0,0,0,3.89.021,2.5,2.5,0,0,0,1.858-2.436V639.875h-7.7v39a2.552,2.552,0,0,0,1.955,2.46Z" transform="translate(-82.464 -313.494)" fill="#521078"/>
    <path id="Trazado_606180" data-name="Trazado 606180" d="M171.358,558.455l-11.765-7.436c-.489-2.778-6.034-31.84-28.547-40.966-9.154-3.711-19.008-3.272-24.413-3.028-10.793.481-18.493.826-22.195,5.975-4.754,6.612,3.22,12.606,1.57,31.517-.673,7.712-2.387,11.137-.253,16.245,2.554,6.121,8.482,9.513,13.087,11.421a67.056,67.056,0,0,0,27.763,8.866c21.333,1.87,37.26-7.283,42.739-10.783a7.046,7.046,0,0,0,4.783-5.295,6.219,6.219,0,0,0-2.765-6.515Z" transform="translate(-40.508 -248.507)" fill="#4b0f6e"/>
    <g id="Grupo_1014713" data-name="Grupo 1014713" transform="translate(54.791 262.29)" opacity="0.2">
      <path id="Trazado_606181" data-name="Trazado 606181" d="M177.789,567.5c-.434-2.615-7.724-.446-14.617-5.569-10.307-7.656-4.957-20.622-13.921-33.063-8.227-11.416-24.789-17.228-29.93-12.877-6.843,5.79,9.905,27.444,0,41.417-4.811,6.787-12.143,6.461-12.181,10.441-.059,6.291,18.186,13.543,35.5,13.224,18.614-.343,35.841-9.424,35.152-13.574Z" transform="translate(-107.141 -514.548)" fill="#d2aee6"/>
    </g>
    <path id="Trazado_606182" data-name="Trazado 606182" d="M503.791,499.657l-76.024-.567v1.674a.919.919,0,0,0,.781.909l21.5,3.3a3.366,3.366,0,0,0,.772.031l52.148-3.758a.89.89,0,0,0,.826-.888v-.7Z" transform="translate(-209.01 -244.706)" fill="#304c8e"/>
    <path id="Trazado_606183" data-name="Trazado 606183" d="M475.476,465.537,427.827,468.6a1.371,1.371,0,0,1-1.546-1.3V436.322a1.479,1.479,0,0,1,1.546-1.4h47.649a1.267,1.267,0,0,1,1.27,1.266v28A1.373,1.373,0,0,1,475.476,465.537Z" transform="translate(-208.284 -213.353)" fill="#304c8e"/>
    <path id="Trazado_606184" data-name="Trazado 606184" d="M476.962,465.537,429.313,468.6a1.371,1.371,0,0,1-1.546-1.3V436.322a1.479,1.479,0,0,1,1.546-1.4h47.649a1.267,1.267,0,0,1,1.27,1.266v28A1.373,1.373,0,0,1,476.962,465.537Z" transform="translate(-209.01 -213.353)" fill="#b1b2b5"/>
    <path id="Trazado_606185" data-name="Trazado 606185" d="M477.458,465.28l-44.38,2.661a1.122,1.122,0,0,1-1.258-1.067V439.755a1.211,1.211,0,0,1,1.258-1.147l44.38-.168a1.042,1.042,0,0,1,1.048,1.036v24.7a1.125,1.125,0,0,1-1.048,1.1Z" transform="translate(-210.991 -215.072)" fill="#e0e4ee"/>
    <path id="Trazado_606186" data-name="Trazado 606186" d="M479.618,436.082a.549.549,0,1,1-.548-.522A.535.535,0,0,1,479.618,436.082Z" transform="translate(-233.809 -213.664)" fill="#fff"/>
    <g id="Grupo_1014714" data-name="Grupo 1014714" transform="translate(218.757 221.567)" opacity="0.48">
      <path id="Trazado_606187" data-name="Trazado 606187" d="M465.676,457.054c-3.692-1.8-6.6.481-9.4-1.768-1.7-1.362-.864-2.38-2.956-4.416-2.316-2.257-3.822-1.5-6.149-3.529-2.942-2.569-1.471-4.566-4-6.409-3.073-2.235-6.388-.168-9.315-2.311a6.347,6.347,0,0,1-2.316-3.7h-2.864a.868.868,0,0,0-.909.821v32.133a.808.808,0,0,0,.909.765l48.81-3.137a.806.806,0,0,0,.588-.326,11.636,11.636,0,0,1-7.172-2.323c-2.745-2.193-2.269-4.356-5.228-5.8Z" transform="translate(-427.767 -434.918)" fill="#fff"/>
    </g>
    <path id="Trazado_606188" data-name="Trazado 606188" d="M478.862,494.608l-51.1,3.222,22.277,3.416a3.36,3.36,0,0,0,.772.031l52.975-3.817-24.118-2.83a4.439,4.439,0,0,0-.812-.021Z" transform="translate(-209.01 -242.511)" fill="#b1b2b5"/>
    <g id="Grupo_1014715" data-name="Grupo 1014715" transform="translate(226.212 252.626)" opacity="0.25">
      <path id="Trazado_606189" data-name="Trazado 606189" d="M442.345,498.375l42.538-2.724,13.165,1.532-42.173,2.91Z" transform="translate(-442.345 -495.651)" fill="#b1b2b5"/>
    </g>
    <path id="Trazado_606190" data-name="Trazado 606190" d="M535.765,690.863s-11.175.777-11.34,1.506,7.584,3.551,10.292,3.657,4.936-.694,4.69-1.842-1.192-4.032-1.192-4.032l-2.451.713Z" transform="translate(-256.237 -338.06)" fill="#2d262a"/>
    <path id="Trazado_606191" data-name="Trazado 606191" d="M545.384,681.835l-.2,5.273a4.093,4.093,0,0,0,3.049.409l1.5-5.562-4.35-.12Z" transform="translate(-266.382 -333.996)" fill="#956f53"/>
    <path id="Trazado_606192" data-name="Trazado 606192" d="M474.649,686.7s-11.175.777-11.34,1.506,7.584,3.551,10.292,3.656,4.936-.694,4.69-1.841-1.192-4.032-1.192-4.032l-2.451.713Z" transform="translate(-226.375 -336.028)" fill="#2d262a"/>
    <path id="Trazado_606193" data-name="Trazado 606193" d="M484.267,677.676l-.2,5.273a4.094,4.094,0,0,0,3.05.409l1.5-5.562-4.351-.12Z" transform="translate(-236.52 -331.964)" fill="#956f53"/>
    <path id="Trazado_606194" data-name="Trazado 606194" d="M540.053,614.777q3.134.348,6.265.7a42.1,42.1,0,0,0,9.282-16.241c4.339-14.778-1.945-25.424,2.089-28.075,5.708-3.751,18.08,17.844,37.937,17.289,8.146-.227,18.781-4.218,22.869-12.908.616-1.312,3.647-8.179.7-14.617-3.047-6.648-18.165-9.539-48.277-15.054-12.924-2.367-19.451-3.548-22.074-2.294-18.585,8.871-10.835,59.039-8.784,71.205Z" transform="translate(-262.239 -266.193)" fill="#152245"/>
    <path id="Trazado_606195" data-name="Trazado 606195" d="M480.9,620.311q3.24.563,6.48,1.129c2.623-3.865,6.593-9.919,11.034-17.6,9.256-16.014,9.086-19.267,13.363-21.331,9.053-4.362,15.894,7.424,38.284,10.675,7.325,1.062,23.585,3.423,30.164-5.337,2.667-3.553,4.2-9.537,2.089-14.617-3.784-9.107-16.248-8.011-57.309-16.01-16.012-3.118-18.2-3.675-22.074-2.294-21.661,7.7-22.083,54.87-22.029,65.389Z" transform="translate(-234.972 -271.639)" fill="#152245"/>
    <path id="Trazado_606196" data-name="Trazado 606196" d="M567.676,424.1c2.132-5.212,6.706-8.21,9.079-9.766a19.569,19.569,0,0,1,3.4-1.815,46.022,46.022,0,0,1,18.7-3.151c3.711.278,12.877.963,19.666,6.848,3.286,2.849,5.913,6.825,9.745,29.234,5.342,31.254,1.005,28.051,5.219,40.721,2.231,6.7,5.7,14.395,2.03,19.307-1.187,1.586-2.882,2.042-6.338,3.6-12.913,5.809-24.489,4.809-31.524,4.112-7.74-.767-11.652-1.206-13.706-3.94-3.279-4.369.1-9.922.685-19.529.422-6.9-1.145-12.367-4.282-23.3-7.294-25.419-16.762-32.329-12.676-42.316Z" transform="translate(-276.888 -200.843)" fill="#263c71"/>
    <path id="Trazado_606197" data-name="Trazado 606197" d="M481.066,497.488l-8.25-1.586a4.979,4.979,0,0,0-1.8-.016l-7.136,1.227s4.641,1.867,8.585,1.282,8.253,1.634,8.253,1.634l.345-2.538Z" transform="translate(-226.657 -243.104)" fill="#936d51"/>
    <path id="Trazado_606198" data-name="Trazado 606198" d="M599.342,386.844c-1.388-2.1.689-6.128,1.511-7.724.028-.054.064-.127.142-.269,1.263-2.327,1.586-2.646,2.188-3.05l.838-.517.1-.038a9.641,9.641,0,0,1,2.738-.167c1.185.252,2.445,5.08,2.087,11.9q.074.389.142.786c.186,1.076.335,2.134.448,3.165.108.986,1.511.966,2.5.9,4.025-.257,6,.085,6.168.685.321,1.124-4.455,4.8-10.352,5.623-7.913.059-14.35-.783-13.658-2.03.307-.553,6.439-2.156,8.163-3.744,1.579-1.454,1.449-2.955,1.579-4.029-.817.042-3.538.1-4.6-1.5Z" transform="translate(-290.304 -184.096)" fill="#8b6449"/>
    <path id="Trazado_606199" data-name="Trazado 606199" d="M607.29,370.21c-.651,1.435.928,4.318,1.511,4.736a3.486,3.486,0,0,1,.765.836,1.066,1.066,0,0,1,.121.25c.463,1.332-1.655,2.9-1.246,3.5.3.432,1.735-.146,1.907.227.161.352-1.036,1.081-.852,1.5.139.319.874.028,1.338.514a1.776,1.776,0,0,1,.409,1.176c.057,1.893-4.237,8.734-5.132,11.819-.949,3.272.748,6.388,6.914,15,8.77,12.245,13.156,18.368,15.594,20.117,11.914,8.553,25.927,7.5,31.67,6.612,6.9-1.072,21.163-3.289,25.754-14.27,5.279-12.625-5.115-29.9-15.778-32.831-4.877-1.341-7.474.7-13.805-1.509-6.994-2.434-6.147-6.737-12.622-9.28-8.637-3.39-14.208,2.67-20.094-1.742-3.2-2.4-2.675-5.038-6.612-6.962-3.886-1.9-8.992-1.575-9.844.307Z" transform="translate(-296.03 -180.959)" fill="#2b2428"/>
    <path id="Trazado_606200" data-name="Trazado 606200" d="M611.64,388.689c.52-.713,1.428-.043,1.433.878s-.887,1.879-1.754,1.7-.377-1.617.319-2.575Z" transform="translate(-298.469 -190.617)" fill="#896247"/>
    <g id="Grupo_1014716" data-name="Grupo 1014716" transform="translate(295.687 231.935)" opacity="0.3">
      <path id="Trazado_606201" data-name="Trazado 606201" d="M609.964,526.523c-2.278-4.535,3.3-10.561-.343-17.473-3.1-5.871-8.72-4.556-11.307-9.936-3.124-6.5,3.67-11.357,3.425-21.243-.29-11.819-10.462-23.651-16.446-22.615-3.871.67-4.369,6.45-7.094,12.774a143.7,143.7,0,0,1,7.781,20.8c3.137,10.935,4.7,16.4,4.282,23.3-.588,9.61-3.963,15.162-.684,19.53,2.051,2.736,5.965,3.175,13.705,3.94,7.035.7,18.611,1.7,31.524-4.112,1.633-.736,2.859-1.287,3.855-1.829-20.171,3.028-26.89.458-28.7-3.14Z" transform="translate(-578.199 -455.192)" fill="#1c2d5c"/>
    </g>
    <path id="Trazado_606202" data-name="Trazado 606202" d="M493.373,462.583l.7-3.159c15.851,2.842,22.782-.347,26.13-4.074,3.073-3.421,1.763-5.189,6.68-18.245,4.686-12.436,10-15.632,12.676-16.789,1.5-.646,2.528-1.074,3.77-.772,5.71,1.4,7.6,16.277,6,27.411-.9,6.272-2.673,18.573-12.764,24.414-.187.106-.479.276-.866.484-1.27.68-6.319,3.109-16.265,1.315-11.725-2.115-23.165-8.836-26.061-10.585Z" transform="translate(-241.064 -205.791)" fill="#263c71"/>
    <path id="Trazado_606203" data-name="Trazado 606203" d="M603.8,734.972c19.127,0,34.633-6.328,34.633-14.133s-15.505-14.133-34.633-14.133-34.633,6.327-34.633,14.133S584.671,734.972,603.8,734.972Z" transform="translate(-278.099 -346.148)" fill="#55127d"/>
    <path id="Trazado_606204" data-name="Trazado 606204" d="M638.426,712.542c0,7.367-15.5,13.342-34.633,13.342s-34.633-5.973-34.633-13.342,15.5-19.426,34.633-19.426S638.426,705.174,638.426,712.542Z" transform="translate(-278.096 -339.508)" fill="#55127d"/>
    <path id="Trazado_606205" data-name="Trazado 606205" d="M649,712.542c0-7.368-15.5-19.426-34.633-19.426a47.012,47.012,0,0,0-23,6.065,5.045,5.045,0,0,0-.548,2.637c.4,4.145,7.159,6.695,11.04,7.535,9.773,2.118,14.546-3.727,22.605-3.505,4.984.137,11.886,2.641,20.075,13.24,2.835-1.934,4.459-4.166,4.459-6.548Z" transform="translate(-288.667 -339.508)" fill="#4b0f6e"/>
    <path id="Trazado_606206" data-name="Trazado 606206" d="M635.1,666.586a7.839,7.839,0,0,1-3.891.021,2.5,2.5,0,0,1-1.858-2.436V625.122h7.7v39a2.551,2.551,0,0,1-1.955,2.46Z" transform="translate(-307.507 -306.286)" fill="#fff"/>
    <path id="Trazado_606207" data-name="Trazado 606207" d="M635.1,666.586a7.839,7.839,0,0,1-3.891.021,2.5,2.5,0,0,1-1.858-2.436V625.122h7.7v39a2.551,2.551,0,0,1-1.955,2.46Z" transform="translate(-307.507 -306.286)" fill="#46096d"/>
    <path id="Trazado_606208" data-name="Trazado 606208" d="M554.554,543.7l11.765-7.436c.489-2.778,6.034-31.84,28.547-40.966,9.154-3.711,19.007-3.272,24.416-3.029,10.792.482,18.493.826,22.194,5.975,4.754,6.612-3.22,12.605-1.57,31.517.673,7.712,2.387,11.137.253,16.245-2.554,6.121-8.481,9.513-13.087,11.421a67.071,67.071,0,0,1-27.763,8.866c-21.335,1.87-37.26-7.282-42.739-10.783a7.043,7.043,0,0,1-4.783-5.294,6.219,6.219,0,0,1,2.764-6.516Z" transform="translate(-269.544 -241.296)" fill="#4b0f6e"/>
    <g id="Grupo_1014717" data-name="Grupo 1014717" transform="translate(290.396 254.745)" opacity="0.2">
      <path id="Trazado_606209" data-name="Trazado 606209" d="M567.875,552.749c.435-2.615,7.724-.446,14.617-5.569,10.306-7.656,4.957-20.622,13.921-33.063,8.227-11.416,24.789-17.228,29.93-12.877,6.843,5.791-9.9,27.444,0,41.417,4.811,6.787,12.143,6.461,12.181,10.441.059,6.291-18.186,13.543-35.5,13.224-18.613-.343-35.841-9.424-35.152-13.574Z" transform="translate(-567.853 -499.795)" fill="#521078"/>
    </g>
  </g>
</svg>
