<svg xmlns="http://www.w3.org/2000/svg" width="317" height="104" viewBox="0 0 317 104">
  <g id="Grupo_1014984" data-name="Grupo 1014984" transform="translate(-1151.336 -14108)">
    <g id="Rectángulo_345269" data-name="Rectángulo 345269" transform="translate(1151.336 14108)" fill="#fff" stroke="#707070" stroke-width="1">
      <rect width="317" height="104" rx="32" stroke="none"/>
      <rect x="0.5" y="0.5" width="316" height="103" rx="31.5" fill="none"/>
    </g>
    <path id="Trazado_609430" data-name="Trazado 609430" d="M5.713,13.136l-.381,2.007A6.249,6.249,0,0,1,10.2,12.857a3.932,3.932,0,0,1,3.311,1.553,6.032,6.032,0,0,1,.791,4.2L12.568,29H9.917L11.66,18.581a5.554,5.554,0,0,0,.015-1.332,2.19,2.19,0,0,0-2.417-2.092Q6.87,15.113,5.068,17.7L3.105,29H.454L3.208,13.15Zm25.049,3.94H18.9l.41-2.358h11.88Zm-1.055,6.079H17.842l.41-2.344h11.88ZM56.455,29H53.789L46.172,12.447,43.3,29H40.532L44.238,7.672H46.9L54.536,24.3,57.422,7.672h2.739Zm17.08-14.465-4.058-1.317,1-2.107,4.072,1.653.747-5.092h2.2l-1.025,5.034,4.438-1.58.278,2.327-4.614,1.332,2.153,4.028L76.846,20.1l-1.919-4.248-3.252,4.1L70,18.519ZM91.377,26.7h11.748l-.41,2.3H87.642l.4-2.256,14.15-16.772H91.113l.41-2.3h14.443l-.381,2.2Zm24.009-7.471H106.86l.293-1.7,5.2-4.365a4.187,4.187,0,0,0,1.626-2.306,1.221,1.221,0,0,0-.286-1.094,1.51,1.51,0,0,0-1.091-.409,2.138,2.138,0,0,0-1.553.531,2.751,2.751,0,0,0-.791,1.447L108,11.349a4.054,4.054,0,0,1,1.436-2.805,4.558,4.558,0,0,1,3.149-1.062,4.085,4.085,0,0,1,2.776.952,2.9,2.9,0,0,1,.945,2.417,5.458,5.458,0,0,1-2.329,3.633l-.937.747-2.871,2.124h5.552ZM129.3,14.535l-4.058-1.317,1-2.107,4.072,1.653.747-5.092h2.2l-1.025,5.034,4.438-1.58.278,2.327-4.614,1.332,2.153,4.028L132.612,20.1l-1.919-4.248-3.252,4.1-1.67-1.436Zm29.224,6.614a12.575,12.575,0,0,1-1.3,4.351,7.4,7.4,0,0,1-2.5,2.893,5.733,5.733,0,0,1-3.311.916,5.278,5.278,0,0,1-4.219-1.86l-1.421,7.646h-2.651l3.809-21.943,2.4-.015-.293,1.772a6.013,6.013,0,0,1,4.7-2.051,4.421,4.421,0,0,1,3.56,1.685,7.414,7.414,0,0,1,1.348,4.482,15.774,15.774,0,0,1-.073,1.816Zm-2.607-.3.073-1.229a5.566,5.566,0,0,0-.813-3.27,2.859,2.859,0,0,0-2.351-1.192,4.7,4.7,0,0,0-3.97,2.18l-1.333,7.593a3.316,3.316,0,0,0,3.208,2.165,4.17,4.17,0,0,0,3.362-1.543A8.957,8.957,0,0,0,155.918,20.848Zm17.256-6.314-4.058-1.317,1-2.107,4.072,1.653.747-5.092h2.2L176.1,12.706l4.438-1.58.278,2.327-4.614,1.332,2.153,4.028L176.484,20.1l-1.919-4.248-3.252,4.1-1.67-1.436Zm22.983-1.692a4.955,4.955,0,0,1,4.087,1.919l.483-1.611h2.446l-3.809,21.943h-2.637l1.436-7.559a6,6,0,0,1-4.424,1.758,4.418,4.418,0,0,1-3.56-1.685,7.368,7.368,0,0,1-1.436-4.468,12.97,12.97,0,0,1,.425-3.831,11.075,11.075,0,0,1,1.531-3.516,6.827,6.827,0,0,1,2.41-2.249A5.993,5.993,0,0,1,196.157,12.843Zm-4.687,8.511-.073,1.23a5.555,5.555,0,0,0,.769,3.3A2.735,2.735,0,0,0,194.5,27.1a4.82,4.82,0,0,0,3.97-2.139l1.377-7.793a3.383,3.383,0,0,0-3.164-2.095,4.185,4.185,0,0,0-3.384,1.538A9.114,9.114,0,0,0,191.47,21.354ZM7.31,66.293A5.714,5.714,0,0,1,2.681,64.11a7.511,7.511,0,0,1-1.406-5.435l.073-.63a10.545,10.545,0,0,1,1.4-4.307A8.136,8.136,0,0,1,5.552,50.8a6.545,6.545,0,0,1,3.574-.945,5.04,5.04,0,0,1,3.838,1.626,6.687,6.687,0,0,1,1.523,4.248,12.414,12.414,0,0,1-.059,1.9l-.161,1.216H3.911a5.354,5.354,0,0,0,.71,3.662,3.365,3.365,0,0,0,2.908,1.567,5.639,5.639,0,0,0,4.336-2.109l1.523,1.289a6.972,6.972,0,0,1-2.571,2.249A7.286,7.286,0,0,1,7.31,66.293ZM8.994,52.069A3.873,3.873,0,0,0,6.13,53.183a7.913,7.913,0,0,0-1.941,3.442l7.705.015.059-.234a4.336,4.336,0,0,0-.593-3.069A2.791,2.791,0,0,0,8.994,52.069Zm16.436,4.16H16.9l.293-1.7,5.2-4.365a4.187,4.187,0,0,0,1.626-2.306,1.221,1.221,0,0,0-.286-1.094,1.51,1.51,0,0,0-1.091-.409,2.138,2.138,0,0,0-1.553.531,2.751,2.751,0,0,0-.791,1.447l-2.256.015a4.054,4.054,0,0,1,1.436-2.805,4.558,4.558,0,0,1,3.149-1.062,4.085,4.085,0,0,1,2.776.952,2.9,2.9,0,0,1,.945,2.417,5.458,5.458,0,0,1-2.329,3.633l-.937.747-2.871,2.124h5.552Zm13.916-4.695-4.058-1.317,1-2.107,4.072,1.653.747-5.092h2.2l-1.025,5.034,4.438-1.58.278,2.327-4.614,1.332,2.153,4.028L42.656,57.1l-1.919-4.248-3.252,4.1-1.67-1.436ZM55.708,57.4A27.73,27.73,0,0,1,57.5,50.81a20.427,20.427,0,0,1,3.215-5.471,13.209,13.209,0,0,1,4.248-3.42l.4,1.816a15.2,15.2,0,0,0-3.948,4.475,23.027,23.027,0,0,0-2.542,6.563,31.564,31.564,0,0,0-.864,7.493,16.593,16.593,0,0,0,.784,5.339,8.427,8.427,0,0,0,2.263,3.64L60.4,72.885a10.578,10.578,0,0,1-3.743-5.024,19.379,19.379,0,0,1-1.179-7.617,23.158,23.158,0,0,1,.205-2.681ZM80.64,66H77.974L70.356,49.447,67.485,66H64.717l3.706-21.328h2.666L78.721,61.3l2.886-16.626h2.739Zm11.426-7.954H85.107l.4-2.212h6.958Zm9.7,7.954H99.1l3.135-17.988L96.563,50l.454-2.578,7.91-2.856h.469Zm15.659-8.569a27.181,27.181,0,0,1-1.86,6.76,20.327,20.327,0,0,1-3.23,5.376,13.431,13.431,0,0,1-4.167,3.333l-.41-1.685q5.024-3.779,6.709-12.144a31.563,31.563,0,0,0,.645-6.489q-.073-6.284-3.047-9.009l.688-1.641a9.711,9.711,0,0,1,2.776,3.04,14.334,14.334,0,0,1,1.67,4.409,22.58,22.58,0,0,1,.476,5.208,25.02,25.02,0,0,1-.22,2.681Zm19.6-2.871h5.771l-.454,2.563h-5.757l-1.172,6.738h-2.666l1.172-6.738h-5.771l.454-2.563h5.757l1.084-6.226h2.666ZM154.453,63.7H166.2l-.41,2.3H150.718l.4-2.256,14.15-16.772H154.189l.41-2.3h14.443l-.381,2.2Zm24.009-7.471h-8.525l.293-1.7,5.2-4.365a4.187,4.187,0,0,0,1.626-2.306,1.221,1.221,0,0,0-.286-1.094,1.51,1.51,0,0,0-1.091-.409,2.138,2.138,0,0,0-1.553.531,2.751,2.751,0,0,0-.791,1.447l-2.256.015a4.054,4.054,0,0,1,1.436-2.805,4.558,4.558,0,0,1,3.149-1.062,4.085,4.085,0,0,1,2.776.952,2.9,2.9,0,0,1,.945,2.417,5.458,5.458,0,0,1-2.329,3.633l-.937.747-2.871,2.124H178.8Zm13.916-4.695-4.058-1.317,1-2.107,4.072,1.653.747-5.092h2.2l-1.025,5.034,4.438-1.58.278,2.327-4.614,1.332,2.153,4.028L195.688,57.1l-1.919-4.248-3.252,4.1-1.67-1.436ZM221.6,58.148a12.575,12.575,0,0,1-1.3,4.351,7.4,7.4,0,0,1-2.5,2.893,5.733,5.733,0,0,1-3.311.916,5.278,5.278,0,0,1-4.219-1.86l-1.421,7.646h-2.651L210,50.15l2.4-.015-.293,1.772a6.013,6.013,0,0,1,4.7-2.051,4.421,4.421,0,0,1,3.56,1.685,7.414,7.414,0,0,1,1.348,4.482,15.774,15.774,0,0,1-.073,1.816Zm-2.607-.3.073-1.229a5.566,5.566,0,0,0-.813-3.27,2.859,2.859,0,0,0-2.351-1.192,4.7,4.7,0,0,0-3.97,2.18L210.6,61.93a3.316,3.316,0,0,0,3.208,2.165,4.17,4.17,0,0,0,3.362-1.543A8.957,8.957,0,0,0,218.994,57.848Zm17.256-6.314-4.058-1.317,1-2.107,4.072,1.653.747-5.092h2.2l-1.025,5.034,4.438-1.58.278,2.327-4.614,1.332,2.153,4.028L239.561,57.1l-1.919-4.248-3.252,4.1-1.67-1.436Zm22.983-1.692a4.955,4.955,0,0,1,4.087,1.919l.483-1.611h2.446l-3.809,21.943H259.8l1.436-7.559a6,6,0,0,1-4.424,1.758,4.418,4.418,0,0,1-3.56-1.685,7.368,7.368,0,0,1-1.436-4.468,12.97,12.97,0,0,1,.425-3.831,11.075,11.075,0,0,1,1.531-3.516,6.827,6.827,0,0,1,2.41-2.249A5.993,5.993,0,0,1,259.233,49.843Zm-4.687,8.511-.073,1.23a5.555,5.555,0,0,0,.769,3.3,2.735,2.735,0,0,0,2.336,1.208,4.82,4.82,0,0,0,3.97-2.139l1.377-7.793a3.383,3.383,0,0,0-3.164-2.095,4.185,4.185,0,0,0-3.384,1.538A9.114,9.114,0,0,0,254.546,58.354Z" transform="translate(1180.336 14122)"/>
  </g>
</svg>
