<svg xmlns="http://www.w3.org/2000/svg" width="506" height="104" viewBox="0 0 506 104">
  <g id="Grupo_1014985" data-name="Grupo 1014985" transform="translate(-1151.336 -14108)">
    <g id="Rectángulo_345269" data-name="Rectángulo 345269" transform="translate(1151.336 14108)" fill="#fff" stroke="#707070" stroke-width="1">
      <rect width="506" height="104" rx="32" stroke="none"/>
      <rect x="0.5" y="0.5" width="505" height="103" rx="31.5" fill="none"/>
    </g>
    <path id="Trazado_609429" data-name="Trazado 609429" d="M5.713,13.136l-.381,2.007A6.249,6.249,0,0,1,10.2,12.857a3.932,3.932,0,0,1,3.311,1.553,6.032,6.032,0,0,1,.791,4.2L12.568,29H9.917L11.66,18.581a5.554,5.554,0,0,0,.015-1.332,2.19,2.19,0,0,0-2.417-2.092Q6.87,15.113,5.068,17.7L3.105,29H.454L3.208,13.15Zm32.4,3.94H26.25l.41-2.358H38.54Zm-1.055,6.079H25.2l.41-2.344h11.88ZM60.938,29H47.358l.322-2.065,7.866-7.646,1.436-1.421a8.407,8.407,0,0,0,2.739-4.57,3.389,3.389,0,0,0-.63-2.629,2.963,2.963,0,0,0-2.314-1.077,4.364,4.364,0,0,0-3.208,1.121A5.147,5.147,0,0,0,52,13.941l-2.622.015a7.418,7.418,0,0,1,1.208-3.479,6.732,6.732,0,0,1,2.681-2.329,7.7,7.7,0,0,1,3.611-.769,5.918,5.918,0,0,1,4.211,1.6,4.753,4.753,0,0,1,1.34,4.006q-.249,2.813-3.237,5.918L57.847,20.27l-6.855,6.519h10.3Zm4.98-3.076a1.586,1.586,0,0,1,1.187.439,1.514,1.514,0,0,1,.454,1.172,1.583,1.583,0,0,1-.483,1.165,1.743,1.743,0,0,1-1.172.476,1.477,1.477,0,0,1-1.611-1.553,1.639,1.639,0,0,1,1.626-1.7Zm12.319,3.369a4.813,4.813,0,0,1-4.043-1.912,8.486,8.486,0,0,1-1.23-5.339q.029-1.084.161-2.139l.527-3.56a13.2,13.2,0,0,1,2.681-6.8,6.409,6.409,0,0,1,5.215-2.168,4.871,4.871,0,0,1,4.065,1.868A8.3,8.3,0,0,1,86.851,14.5q-.044,1.1-.176,2.153l-.513,3.442q-.776,4.819-2.739,7.046A6.369,6.369,0,0,1,78.237,29.293Zm5.874-13.125a22.673,22.673,0,0,0,.19-2.754q-.073-3.721-2.886-3.823A3.85,3.85,0,0,0,78.1,11.107a10.51,10.51,0,0,0-1.765,4.988l-.63,4.248a21.609,21.609,0,0,0-.19,2.769q.073,3.882,2.871,3.984A3.763,3.763,0,0,0,81.6,25.66a10.18,10.18,0,0,0,1.809-4.834Zm10.62,13.125a4.813,4.813,0,0,1-4.043-1.912,8.486,8.486,0,0,1-1.23-5.339q.029-1.084.161-2.139l.527-3.56a13.2,13.2,0,0,1,2.681-6.8,6.409,6.409,0,0,1,5.215-2.168,4.871,4.871,0,0,1,4.065,1.868,8.3,8.3,0,0,1,1.238,5.251q-.044,1.1-.176,2.153l-.513,3.442q-.776,4.819-2.739,7.046A6.369,6.369,0,0,1,94.731,29.293Zm5.874-13.125a22.673,22.673,0,0,0,.19-2.754q-.073-3.721-2.886-3.823a3.85,3.85,0,0,0-3.318,1.516,10.51,10.51,0,0,0-1.765,4.988l-.63,4.248a21.609,21.609,0,0,0-.19,2.769q.073,3.882,2.871,3.984a3.763,3.763,0,0,0,3.215-1.436A10.18,10.18,0,0,0,99.9,20.826Zm10.62,13.125a4.813,4.813,0,0,1-4.043-1.912,8.486,8.486,0,0,1-1.23-5.339q.029-1.084.161-2.139l.527-3.56a13.2,13.2,0,0,1,2.681-6.8,6.409,6.409,0,0,1,5.215-2.168A4.871,4.871,0,0,1,118.6,9.247a8.3,8.3,0,0,1,1.238,5.251q-.044,1.1-.176,2.153l-.513,3.442q-.776,4.819-2.739,7.046A6.369,6.369,0,0,1,111.226,29.293ZM117.1,16.168a22.673,22.673,0,0,0,.19-2.754q-.073-3.721-2.886-3.823a3.85,3.85,0,0,0-3.318,1.516,10.51,10.51,0,0,0-1.765,4.988l-.63,4.248a21.609,21.609,0,0,0-.19,2.769q.073,3.882,2.871,3.984a3.763,3.763,0,0,0,3.215-1.436,10.18,10.18,0,0,0,1.809-4.834Zm16.685-1.633-4.058-1.317,1-2.107,4.072,1.653.747-5.092h2.2l-1.025,5.034,4.438-1.58.278,2.327-4.614,1.332,2.153,4.028L137.095,20.1l-1.919-4.248-3.252,4.1-1.67-1.436ZM157.046,29H154.38l3.135-17.988L151.846,13l.454-2.578,7.91-2.856h.469Zm10.049-3.076a1.586,1.586,0,0,1,1.187.439,1.514,1.514,0,0,1,.454,1.172,1.583,1.583,0,0,1-.483,1.165,1.743,1.743,0,0,1-1.172.476,1.477,1.477,0,0,1-1.611-1.553,1.639,1.639,0,0,1,1.626-1.7Zm17.461-6.3a7.6,7.6,0,0,1-2.3,1.707,5.386,5.386,0,0,1-2.417.535,4.706,4.706,0,0,1-2.878-.952,5.245,5.245,0,0,1-1.743-2.534,8.4,8.4,0,0,1-.374-3.516A9.476,9.476,0,0,1,176.03,11a7.256,7.256,0,0,1,2.6-2.717,6.372,6.372,0,0,1,3.538-.9,5.028,5.028,0,0,1,4,1.846,7.887,7.887,0,0,1,1.567,4.79,19.948,19.948,0,0,1-.366,3.9q-.967,5.479-3.816,8.254a10.356,10.356,0,0,1-7.317,2.864h-.659l.234-2.3h.542a7.961,7.961,0,0,0,5.164-1.761A10.531,10.531,0,0,0,184.556,19.625Zm-4.16,0a4.232,4.232,0,0,0,2.563-.754,6.381,6.381,0,0,0,2.021-2.19l.117-1.069.044-1.187a6.865,6.865,0,0,0-.842-3.5,2.647,2.647,0,0,0-2.249-1.289,3.75,3.75,0,0,0-3.1,1.4,6.34,6.34,0,0,0-1.487,3.684,7.084,7.084,0,0,0,.029,1.816,4.619,4.619,0,0,0,.527,1.626A2.648,2.648,0,0,0,180.4,19.625ZM202.983,7.643l-.234,2.3h-.513a7.757,7.757,0,0,0-5.01,1.816A11.258,11.258,0,0,0,194,16.944a6.177,6.177,0,0,1,4.658-1.934,4.818,4.818,0,0,1,2.886.93,5.185,5.185,0,0,1,1.765,2.49,8.161,8.161,0,0,1,.388,3.508,8.539,8.539,0,0,1-2.322,5.339,6.379,6.379,0,0,1-4.988,2.014,5.2,5.2,0,0,1-3.9-1.743,7.363,7.363,0,0,1-1.743-4.512,17.076,17.076,0,0,1,.366-4.16,15.092,15.092,0,0,1,3.992-8.35,10.452,10.452,0,0,1,7.581-2.886Zm-4.893,9.609a4.473,4.473,0,0,0-2.666.82,5.768,5.768,0,0,0-1.919,2.168l-.1.981-.029,1.187a7.5,7.5,0,0,0,.366,2.329,3.562,3.562,0,0,0,1.084,1.714,2.65,2.65,0,0,0,1.685.6,3.745,3.745,0,0,0,3.04-1.318,6.3,6.3,0,0,0,1.516-3.662,6.322,6.322,0,0,0-.161-2.417,3.55,3.55,0,0,0-1.018-1.736A2.7,2.7,0,0,0,198.091,17.252Zm17.271,1.978h-8.525l.293-1.7,5.2-4.365a4.187,4.187,0,0,0,1.626-2.306,1.221,1.221,0,0,0-.286-1.094,1.51,1.51,0,0,0-1.091-.409,2.138,2.138,0,0,0-1.553.531,2.751,2.751,0,0,0-.791,1.447l-2.256.015a4.054,4.054,0,0,1,1.436-2.805,4.558,4.558,0,0,1,3.149-1.062,4.085,4.085,0,0,1,2.776.952,2.9,2.9,0,0,1,.945,2.417,5.458,5.458,0,0,1-2.329,3.633l-.937.747-2.871,2.124H215.7Zm13.916-4.695-4.058-1.317,1-2.107,4.072,1.653.747-5.092h2.2l-1.025,5.034,4.438-1.58.278,2.327-4.614,1.332,2.153,4.028L232.588,20.1l-1.919-4.248-3.252,4.1-1.67-1.436Zm21.328,14.758a4.813,4.813,0,0,1-4.043-1.912,8.486,8.486,0,0,1-1.23-5.339q.029-1.084.161-2.139l.527-3.56a13.2,13.2,0,0,1,2.681-6.8,6.409,6.409,0,0,1,5.215-2.168,4.871,4.871,0,0,1,4.065,1.868,8.3,8.3,0,0,1,1.238,5.251q-.044,1.1-.176,2.153l-.513,3.442q-.776,4.819-2.739,7.046A6.369,6.369,0,0,1,250.605,29.293Zm5.874-13.125a22.673,22.673,0,0,0,.19-2.754q-.073-3.721-2.886-3.823a3.85,3.85,0,0,0-3.318,1.516,10.51,10.51,0,0,0-1.765,4.988l-.63,4.248a21.609,21.609,0,0,0-.19,2.769q.073,3.882,2.871,3.984a3.763,3.763,0,0,0,3.215-1.436,10.18,10.18,0,0,0,1.809-4.834Zm6.108,9.756a1.586,1.586,0,0,1,1.187.439,1.514,1.514,0,0,1,.454,1.172,1.583,1.583,0,0,1-.483,1.165,1.743,1.743,0,0,1-1.172.476,1.477,1.477,0,0,1-1.611-1.553,1.639,1.639,0,0,1,1.626-1.7Zm8.613-7.661,2.71-10.591h10.635l-.4,2.5H275.8l-1.641,5.83a6.526,6.526,0,0,1,3.486-.923,4.787,4.787,0,0,1,4.072,2,7.245,7.245,0,0,1,1.157,5.017,8.013,8.013,0,0,1-2.329,5.273,6.846,6.846,0,0,1-5.112,1.934,5.578,5.578,0,0,1-4.116-1.641,6.2,6.2,0,0,1-1.655-4.292h2.476a4.249,4.249,0,0,0,1,2.725,3.22,3.22,0,0,0,2.417,1,3.943,3.943,0,0,0,3.157-1.333,6.154,6.154,0,0,0,1.516-3.647,4.685,4.685,0,0,0-.688-3.259,3.132,3.132,0,0,0-2.622-1.34,4.493,4.493,0,0,0-1.9.322,7.046,7.046,0,0,0-1.648,1.011Zm26.265-3.728-4.058-1.317,1-2.107,4.072,1.653.747-5.092h2.2L300.4,12.706l4.438-1.58.278,2.327L300.5,14.784l2.153,4.028L300.776,20.1l-1.919-4.248-3.252,4.1-1.67-1.436Zm21.328,14.758a4.813,4.813,0,0,1-4.043-1.912,8.486,8.486,0,0,1-1.23-5.339q.029-1.084.161-2.139l.527-3.56a13.2,13.2,0,0,1,2.681-6.8A6.409,6.409,0,0,1,322.1,7.379a4.871,4.871,0,0,1,4.065,1.868,8.3,8.3,0,0,1,1.238,5.251q-.044,1.1-.176,2.153l-.513,3.442q-.776,4.819-2.739,7.046A6.369,6.369,0,0,1,318.794,29.293Zm5.874-13.125a22.673,22.673,0,0,0,.19-2.754q-.073-3.721-2.886-3.823a3.85,3.85,0,0,0-3.318,1.516,10.51,10.51,0,0,0-1.765,4.988l-.63,4.248a21.609,21.609,0,0,0-.19,2.769q.073,3.882,2.871,3.984a3.763,3.763,0,0,0,3.215-1.436,10.18,10.18,0,0,0,1.809-4.834Zm6.108,9.756a1.586,1.586,0,0,1,1.187.439,1.514,1.514,0,0,1,.454,1.172,1.583,1.583,0,0,1-.483,1.165,1.743,1.743,0,0,1-1.172.476,1.477,1.477,0,0,1-1.611-1.553,1.639,1.639,0,0,1,1.626-1.7Zm8.613-7.661L342.1,7.672h10.635l-.4,2.5h-8.35l-1.641,5.83a6.526,6.526,0,0,1,3.486-.923,4.787,4.787,0,0,1,4.072,2,7.245,7.245,0,0,1,1.157,5.017,8.013,8.013,0,0,1-2.329,5.273,6.846,6.846,0,0,1-5.112,1.934,5.578,5.578,0,0,1-4.116-1.641,6.2,6.2,0,0,1-1.655-4.292h2.476a4.249,4.249,0,0,0,1,2.725,3.22,3.22,0,0,0,2.417,1,3.943,3.943,0,0,0,3.157-1.333,6.154,6.154,0,0,0,1.516-3.647,4.685,4.685,0,0,0-.688-3.259,3.132,3.132,0,0,0-2.622-1.34,4.493,4.493,0,0,0-1.9.322,7.046,7.046,0,0,0-1.648,1.011ZM6.914,66.293a4.813,4.813,0,0,1-4.043-1.912,8.486,8.486,0,0,1-1.23-5.339Q1.67,57.958,1.8,56.9l.527-3.56a13.2,13.2,0,0,1,2.681-6.8,6.409,6.409,0,0,1,5.215-2.168,4.871,4.871,0,0,1,4.065,1.868A8.3,8.3,0,0,1,15.527,51.5q-.044,1.1-.176,2.153l-.513,3.442q-.776,4.819-2.739,7.046A6.369,6.369,0,0,1,6.914,66.293Zm5.874-13.125a22.673,22.673,0,0,0,.19-2.754q-.073-3.721-2.886-3.823a3.85,3.85,0,0,0-3.318,1.516A10.51,10.51,0,0,0,5.01,53.095l-.63,4.248a21.609,21.609,0,0,0-.19,2.769q.073,3.882,2.871,3.984a3.763,3.763,0,0,0,3.215-1.436,10.18,10.18,0,0,0,1.809-4.834ZM18.9,62.924a1.586,1.586,0,0,1,1.187.439,1.514,1.514,0,0,1,.454,1.172,1.583,1.583,0,0,1-.483,1.165,1.743,1.743,0,0,1-1.172.476,1.477,1.477,0,0,1-1.611-1.553,1.639,1.639,0,0,1,1.626-1.7Zm12.319,3.369a4.813,4.813,0,0,1-4.043-1.912,8.486,8.486,0,0,1-1.23-5.339q.029-1.084.161-2.139l.527-3.56a13.2,13.2,0,0,1,2.681-6.8,6.409,6.409,0,0,1,5.215-2.168,4.871,4.871,0,0,1,4.065,1.868A8.3,8.3,0,0,1,39.829,51.5q-.044,1.1-.176,2.153l-.513,3.442q-.776,4.819-2.739,7.046A6.369,6.369,0,0,1,31.216,66.293ZM37.09,53.168a22.673,22.673,0,0,0,.19-2.754q-.073-3.721-2.886-3.823a3.85,3.85,0,0,0-3.318,1.516,10.51,10.51,0,0,0-1.765,4.988l-.63,4.248a21.609,21.609,0,0,0-.19,2.769q.073,3.882,2.871,3.984a3.763,3.763,0,0,0,3.215-1.436,10.18,10.18,0,0,0,1.809-4.834ZM44,55.263l2.71-10.591H57.349l-.4,2.5H48.6l-1.641,5.83a6.526,6.526,0,0,1,3.486-.923,4.787,4.787,0,0,1,4.072,2A7.245,7.245,0,0,1,55.679,59.1a8.013,8.013,0,0,1-2.329,5.273,6.846,6.846,0,0,1-5.112,1.934,5.578,5.578,0,0,1-4.116-1.641,6.2,6.2,0,0,1-1.655-4.292h2.476a4.249,4.249,0,0,0,1,2.725,3.22,3.22,0,0,0,2.417,1,3.943,3.943,0,0,0,3.157-1.333,6.154,6.154,0,0,0,1.516-3.647,4.685,4.685,0,0,0-.688-3.259,3.132,3.132,0,0,0-2.622-1.34,4.493,4.493,0,0,0-1.9.322,7.046,7.046,0,0,0-1.648,1.011Zm23.159.967H58.638l.293-1.7,5.2-4.365a4.187,4.187,0,0,0,1.626-2.306,1.221,1.221,0,0,0-.286-1.094,1.51,1.51,0,0,0-1.091-.409,2.138,2.138,0,0,0-1.553.531,2.751,2.751,0,0,0-.791,1.447l-2.256.015a4.054,4.054,0,0,1,1.436-2.805,4.558,4.558,0,0,1,3.149-1.062,4.085,4.085,0,0,1,2.776.952,2.9,2.9,0,0,1,.945,2.417,5.458,5.458,0,0,1-2.329,3.633l-.937.747-2.871,2.124H67.5Zm13.916-4.695-4.058-1.317,1-2.107,4.072,1.653.747-5.092h2.2l-1.025,5.034,4.438-1.58.278,2.327-4.614,1.332,2.153,4.028L84.39,57.1l-1.919-4.248-3.252,4.1-1.67-1.436ZM97.441,57.4a27.73,27.73,0,0,1,1.794-6.592,20.427,20.427,0,0,1,3.215-5.471,13.209,13.209,0,0,1,4.248-3.42l.4,1.816a15.2,15.2,0,0,0-3.948,4.475,23.027,23.027,0,0,0-2.542,6.563,31.564,31.564,0,0,0-.864,7.493,16.593,16.593,0,0,0,.784,5.339,8.427,8.427,0,0,0,2.263,3.64l-.659,1.641a10.578,10.578,0,0,1-3.743-5.024,19.379,19.379,0,0,1-1.179-7.617,23.158,23.158,0,0,1,.205-2.681ZM119.5,66H105.923l.322-2.065,7.866-7.646,1.436-1.421a8.407,8.407,0,0,0,2.739-4.57,3.388,3.388,0,0,0-.63-2.629,2.963,2.963,0,0,0-2.314-1.077,4.364,4.364,0,0,0-3.208,1.121,5.147,5.147,0,0,0-1.567,3.23l-2.622.015a7.418,7.418,0,0,1,1.208-3.479,6.732,6.732,0,0,1,2.681-2.329,7.7,7.7,0,0,1,3.611-.769,5.918,5.918,0,0,1,4.211,1.6A4.753,4.753,0,0,1,121,49.989q-.249,2.813-3.237,5.918l-1.348,1.362-6.855,6.519h10.3Zm4.98-3.076a1.586,1.586,0,0,1,1.187.439,1.514,1.514,0,0,1,.454,1.172,1.583,1.583,0,0,1-.483,1.165,1.743,1.743,0,0,1-1.172.476,1.477,1.477,0,0,1-1.611-1.553,1.639,1.639,0,0,1,1.626-1.7ZM136.8,66.293a4.813,4.813,0,0,1-4.043-1.912,8.486,8.486,0,0,1-1.23-5.339q.029-1.084.161-2.139l.527-3.56a13.2,13.2,0,0,1,2.681-6.8,6.409,6.409,0,0,1,5.215-2.168,4.871,4.871,0,0,1,4.065,1.868,8.3,8.3,0,0,1,1.238,5.251q-.044,1.1-.176,2.153l-.513,3.442q-.776,4.819-2.739,7.046A6.369,6.369,0,0,1,136.8,66.293Zm5.874-13.125a22.673,22.673,0,0,0,.19-2.754q-.073-3.721-2.886-3.823a3.85,3.85,0,0,0-3.318,1.516,10.51,10.51,0,0,0-1.765,4.988l-.63,4.248a21.609,21.609,0,0,0-.19,2.769q.073,3.882,2.871,3.984a3.763,3.763,0,0,0,3.215-1.436,10.18,10.18,0,0,0,1.809-4.834ZM153.3,66.293a4.813,4.813,0,0,1-4.043-1.912,8.486,8.486,0,0,1-1.23-5.339q.029-1.084.161-2.139l.527-3.56a13.2,13.2,0,0,1,2.681-6.8,6.409,6.409,0,0,1,5.215-2.168,4.871,4.871,0,0,1,4.065,1.868,8.3,8.3,0,0,1,1.238,5.251q-.044,1.1-.176,2.153l-.513,3.442q-.776,4.819-2.739,7.046A6.369,6.369,0,0,1,153.3,66.293Zm5.874-13.125a22.673,22.673,0,0,0,.19-2.754q-.073-3.721-2.886-3.823a3.85,3.85,0,0,0-3.318,1.516,10.51,10.51,0,0,0-1.765,4.988l-.63,4.248a21.609,21.609,0,0,0-.19,2.769q.073,3.882,2.871,3.984a3.763,3.763,0,0,0,3.215-1.436,10.18,10.18,0,0,0,1.809-4.834Zm10.62,13.125a4.813,4.813,0,0,1-4.043-1.912,8.486,8.486,0,0,1-1.23-5.339q.029-1.084.161-2.139l.527-3.56a13.2,13.2,0,0,1,2.681-6.8,6.409,6.409,0,0,1,5.215-2.168,4.871,4.871,0,0,1,4.065,1.868A8.3,8.3,0,0,1,178.4,51.5q-.044,1.1-.176,2.153l-.513,3.442q-.776,4.819-2.739,7.046A6.369,6.369,0,0,1,169.79,66.293Zm5.874-13.125a22.673,22.673,0,0,0,.19-2.754q-.073-3.721-2.886-3.823a3.85,3.85,0,0,0-3.318,1.516,10.51,10.51,0,0,0-1.765,4.988l-.63,4.248a21.609,21.609,0,0,0-.19,2.769q.073,3.882,2.871,3.984a3.763,3.763,0,0,0,3.215-1.436,10.18,10.18,0,0,0,1.809-4.834Zm11.03,4.878h-6.958l.4-2.212h6.958Zm9.7,7.954h-2.666l3.135-17.988L191.191,50l.454-2.578,7.91-2.856h.469Zm15.659-8.569a27.181,27.181,0,0,1-1.86,6.76,20.327,20.327,0,0,1-3.23,5.376,13.431,13.431,0,0,1-4.167,3.333l-.41-1.685q5.024-3.779,6.709-12.144a31.563,31.563,0,0,0,.645-6.489q-.073-6.284-3.047-9.009l.688-1.641a9.711,9.711,0,0,1,2.776,3.04,14.334,14.334,0,0,1,1.67,4.409,22.58,22.58,0,0,1,.476,5.208,25.02,25.02,0,0,1-.22,2.681Zm19.6-2.871h5.771l-.454,2.563h-5.757l-1.172,6.738h-2.666l1.172-6.738h-5.771l.454-2.563h5.757l1.084-6.226h2.666ZM254.5,66h-2.666l3.135-17.988L249.3,50l.454-2.578,7.91-2.856h.469Zm10.049-3.076a1.586,1.586,0,0,1,1.187.439,1.514,1.514,0,0,1,.454,1.172,1.583,1.583,0,0,1-.483,1.165,1.743,1.743,0,0,1-1.172.476,1.477,1.477,0,0,1-1.611-1.553,1.639,1.639,0,0,1,1.626-1.7Zm17.461-6.3a7.6,7.6,0,0,1-2.3,1.707,5.386,5.386,0,0,1-2.417.535,4.706,4.706,0,0,1-2.878-.952,5.245,5.245,0,0,1-1.743-2.534,8.4,8.4,0,0,1-.374-3.516A9.476,9.476,0,0,1,273.486,48a7.256,7.256,0,0,1,2.6-2.717,6.372,6.372,0,0,1,3.538-.9,5.028,5.028,0,0,1,4,1.846,7.887,7.887,0,0,1,1.567,4.79,19.948,19.948,0,0,1-.366,3.9q-.967,5.479-3.816,8.254a10.356,10.356,0,0,1-7.317,2.864h-.659l.234-2.3h.542a7.961,7.961,0,0,0,5.164-1.761A10.531,10.531,0,0,0,282.012,56.625Zm-4.16,0a4.232,4.232,0,0,0,2.563-.754,6.381,6.381,0,0,0,2.021-2.19l.117-1.069.044-1.187a6.865,6.865,0,0,0-.842-3.5,2.647,2.647,0,0,0-2.249-1.289,3.75,3.75,0,0,0-3.1,1.4,6.34,6.34,0,0,0-1.487,3.684,7.084,7.084,0,0,0,.029,1.816,4.619,4.619,0,0,0,.527,1.626A2.648,2.648,0,0,0,277.852,56.625Zm22.588-11.982-.234,2.3h-.513a7.757,7.757,0,0,0-5.01,1.816,11.258,11.258,0,0,0-3.223,5.186,6.177,6.177,0,0,1,4.658-1.934,4.818,4.818,0,0,1,2.886.93,5.185,5.185,0,0,1,1.765,2.49,8.161,8.161,0,0,1,.388,3.508,8.539,8.539,0,0,1-2.322,5.339,6.379,6.379,0,0,1-4.988,2.014,5.2,5.2,0,0,1-3.9-1.743,7.363,7.363,0,0,1-1.743-4.512,17.076,17.076,0,0,1,.366-4.16,15.092,15.092,0,0,1,3.992-8.35,10.452,10.452,0,0,1,7.581-2.886Zm-4.893,9.609a4.473,4.473,0,0,0-2.666.82,5.768,5.768,0,0,0-1.919,2.168l-.1.981-.029,1.187a7.5,7.5,0,0,0,.366,2.329,3.562,3.562,0,0,0,1.084,1.714,2.65,2.65,0,0,0,1.685.6A3.745,3.745,0,0,0,297,62.733a7.028,7.028,0,0,0,1.355-6.079,3.55,3.55,0,0,0-1.018-1.736A2.7,2.7,0,0,0,295.547,54.252Zm17.271,1.978h-8.525l.293-1.7,5.2-4.365a4.187,4.187,0,0,0,1.626-2.306,1.221,1.221,0,0,0-.286-1.094,1.51,1.51,0,0,0-1.091-.409,2.138,2.138,0,0,0-1.553.531,2.751,2.751,0,0,0-.791,1.447l-2.256.015a4.054,4.054,0,0,1,1.436-2.805,4.558,4.558,0,0,1,3.149-1.062,4.085,4.085,0,0,1,2.776.952,2.9,2.9,0,0,1,.945,2.417,5.458,5.458,0,0,1-2.329,3.633l-.937.747L307.6,54.354h5.552Zm13.916-4.695-4.058-1.317,1-2.107,4.072,1.653.747-5.092h2.2l-1.025,5.034,4.438-1.58.278,2.327-4.614,1.332,2.153,4.028L330.044,57.1l-1.919-4.248-3.252,4.1-1.67-1.436Zm21.328,14.758a4.813,4.813,0,0,1-4.043-1.912,8.486,8.486,0,0,1-1.23-5.339q.029-1.084.161-2.139l.527-3.56a13.2,13.2,0,0,1,2.681-6.8,6.409,6.409,0,0,1,5.215-2.168,4.871,4.871,0,0,1,4.065,1.868,8.3,8.3,0,0,1,1.238,5.251q-.044,1.1-.176,2.153l-.513,3.442q-.776,4.819-2.739,7.046A6.369,6.369,0,0,1,348.062,66.293Zm5.874-13.125a22.673,22.673,0,0,0,.19-2.754q-.073-3.721-2.886-3.823a3.85,3.85,0,0,0-3.318,1.516,10.51,10.51,0,0,0-1.765,4.988l-.63,4.248a21.609,21.609,0,0,0-.19,2.769q.073,3.882,2.871,3.984a3.763,3.763,0,0,0,3.215-1.436,10.18,10.18,0,0,0,1.809-4.834Zm6.108,9.756a1.586,1.586,0,0,1,1.187.439,1.514,1.514,0,0,1,.454,1.172A1.583,1.583,0,0,1,361.2,65.7a1.743,1.743,0,0,1-1.172.476,1.477,1.477,0,0,1-1.611-1.553,1.639,1.639,0,0,1,1.626-1.7Zm8.613-7.661,2.71-10.591H382l-.4,2.5h-8.35l-1.641,5.83a6.526,6.526,0,0,1,3.486-.923,4.787,4.787,0,0,1,4.072,2,7.245,7.245,0,0,1,1.157,5.017A8.013,8.013,0,0,1,378,64.374a6.846,6.846,0,0,1-5.112,1.934,5.578,5.578,0,0,1-4.116-1.641,6.2,6.2,0,0,1-1.655-4.292h2.476a4.249,4.249,0,0,0,1,2.725,3.22,3.22,0,0,0,2.417,1,3.943,3.943,0,0,0,3.157-1.333,6.154,6.154,0,0,0,1.516-3.647,4.685,4.685,0,0,0-.688-3.259,3.132,3.132,0,0,0-2.622-1.34,4.493,4.493,0,0,0-1.9.322,7.046,7.046,0,0,0-1.648,1.011Zm26.265-3.728-4.058-1.317,1-2.107,4.072,1.653.747-5.092h2.2l-1.025,5.034,4.438-1.58.278,2.327-4.614,1.332,2.153,4.028L398.232,57.1l-1.919-4.248-3.252,4.1-1.67-1.436ZM416.25,66.293a4.813,4.813,0,0,1-4.043-1.912,8.486,8.486,0,0,1-1.23-5.339q.029-1.084.161-2.139l.527-3.56a13.2,13.2,0,0,1,2.681-6.8,6.409,6.409,0,0,1,5.215-2.168,4.871,4.871,0,0,1,4.065,1.868,8.3,8.3,0,0,1,1.238,5.251q-.044,1.1-.176,2.153l-.513,3.442q-.776,4.819-2.739,7.046A6.369,6.369,0,0,1,416.25,66.293Zm5.874-13.125a22.673,22.673,0,0,0,.19-2.754q-.073-3.721-2.886-3.823a3.85,3.85,0,0,0-3.318,1.516,10.51,10.51,0,0,0-1.765,4.988l-.63,4.248a21.609,21.609,0,0,0-.19,2.769q.073,3.882,2.871,3.984a3.763,3.763,0,0,0,3.215-1.436,10.18,10.18,0,0,0,1.809-4.834Zm6.108,9.756a1.586,1.586,0,0,1,1.187.439,1.514,1.514,0,0,1,.454,1.172,1.583,1.583,0,0,1-.483,1.165,1.743,1.743,0,0,1-1.172.476,1.477,1.477,0,0,1-1.611-1.553,1.639,1.639,0,0,1,1.626-1.7Zm8.613-7.661,2.71-10.591H450.19l-.4,2.5h-8.35l-1.641,5.83a6.526,6.526,0,0,1,3.486-.923,4.787,4.787,0,0,1,4.072,2,7.245,7.245,0,0,1,1.157,5.017,8.013,8.013,0,0,1-2.329,5.273,6.846,6.846,0,0,1-5.112,1.934,5.578,5.578,0,0,1-4.116-1.641,6.2,6.2,0,0,1-1.655-4.292h2.476a4.249,4.249,0,0,0,1,2.725,3.22,3.22,0,0,0,2.417,1,3.943,3.943,0,0,0,3.157-1.333,6.154,6.154,0,0,0,1.516-3.647,4.685,4.685,0,0,0-.688-3.259,3.132,3.132,0,0,0-2.622-1.34,4.493,4.493,0,0,0-1.9.322,7.046,7.046,0,0,0-1.648,1.011Z" transform="translate(1176.336 14122)"/>
  </g>
</svg>
