<svg xmlns="http://www.w3.org/2000/svg" width="859.999" height="494.41" viewBox="0 0 859.999 494.41">
  <g id="Grupo_1014986" data-name="Grupo 1014986" transform="translate(-370 -1855.766)">
    <path id="Trazado_609459" data-name="Trazado 609459" d="M7.348,17H4.377V7.543L1.459,8.4V6.146L7.075,4.2h.272Z" transform="translate(420 1992)" fill="#12263f"/>
    <g id="Group_59" data-name="Group 59" transform="translate(370 1855.766)">
      <circle id="Elipse_4833" data-name="Elipse 4833" cx="55.996" cy="55.996" r="55.996" fill="#e1f5d6"/>
      <circle id="Elipse_4834" data-name="Elipse 4834" cx="55.996" cy="55.996" r="55.996" transform="translate(0 275.313)" fill="#e1f5d6"/>
      <circle id="Elipse_4835" data-name="Elipse 4835" cx="55.996" cy="55.996" r="55.996" transform="translate(233.316)" fill="#ecdcf5"/>
      <circle id="Elipse_4836" data-name="Elipse 4836" cx="55.996" cy="55.996" r="55.996" transform="translate(233.316 275.313)" fill="#ecdcf5"/>
      <circle id="Elipse_4837" data-name="Elipse 4837" cx="55.996" cy="55.996" r="55.996" transform="translate(466.632)" fill="#fffbe0"/>
      <circle id="Elipse_4838" data-name="Elipse 4838" cx="55.996" cy="55.996" r="55.996" transform="translate(466.632 275.313)" fill="#fffbe0"/>
      <circle id="Elipse_4839" data-name="Elipse 4839" cx="55.996" cy="55.996" r="55.996" transform="translate(699.948)" fill="#e0e4ee"/>
      <circle id="Elipse_4840" data-name="Elipse 4840" cx="55.996" cy="55.996" r="55.996" transform="translate(699.948 275.313)" fill="#e0e4ee"/>
      <circle id="Elipse_4841" data-name="Elipse 4841" cx="15.749" cy="15.749" r="15.749" transform="translate(39.664 130.657)" fill="#e1f5d6"/>
      <circle id="Elipse_4842" data-name="Elipse 4842" cx="15.749" cy="15.749" r="15.749" transform="translate(39.664 405.97)" fill="#e1f5d6"/>
      <line id="Línea_445" data-name="Línea 445" x2="781.609" transform="translate(71.161 145.823)" fill="none" stroke="#d2aee6" stroke-width="2"/>
      <line id="Línea_446" data-name="Línea 446" x2="781.609" transform="translate(71.161 421.136)" fill="none" stroke="#d2aee6" stroke-width="2"/>
      <line id="Línea_447" data-name="Línea 447" y2="277.646" transform="translate(853.937 144.656)" fill="none" stroke="#d2aee6" stroke-width="2"/>
      <path id="Trazado_609020" data-name="Trazado 609020" d="M149.5,125.866,139,131.927V119.8Z" transform="translate(23.155 19.957)" fill="#d2aee6"/>
      <path id="Trazado_609021" data-name="Trazado 609021" d="M136,361.866l10.5,6.062V355.8Z" transform="translate(22.655 59.27)" fill="#d2aee6"/>
      <path id="Trazado_609022" data-name="Trazado 609022" d="M357.5,125.866,347,131.927V119.8Z" transform="translate(57.804 19.957)" fill="#d2aee6"/>
      <path id="Trazado_609023" data-name="Trazado 609023" d="M344,361.866l10.5,6.062V355.8Z" transform="translate(57.304 59.27)" fill="#d2aee6"/>
      <path id="Trazado_609024" data-name="Trazado 609024" d="M557.5,125.866,547,131.927V119.8Z" transform="translate(91.12 19.957)" fill="#d2aee6"/>
      <path id="Trazado_609025" data-name="Trazado 609025" d="M544,361.866l10.5,6.062V355.8Z" transform="translate(90.62 59.27)" fill="#d2aee6"/>
      <path id="Trazado_609026" data-name="Trazado 609026" d="M732.865,250.5l6.062-10.5H726.8Z" transform="translate(121.072 39.979)" fill="#d2aee6"/>
      <path id="Trazado_609027" data-name="Trazado 609027" d="M42.521,63.961H56.47v7.4H42.521Z" transform="translate(7.083 10.655)" fill="#9c9c9c"/>
      <path id="Trazado_609028" data-name="Trazado 609028" d="M42.521,63.961h5.052v7.4H42.521Z" transform="translate(7.083 10.655)" fill="#838383"/>
      <path id="Trazado_609029" data-name="Trazado 609029" d="M23,62.716a2.43,2.43,0,0,0,2.43,2.43H80.066a2.43,2.43,0,0,0,2.43-2.43V58.247L76.8,58.025q-24.045-.938-48.106.058l-5.7.236Z" transform="translate(3.831 9.59)" fill="#acacac"/>
      <path id="Trazado_609030" data-name="Trazado 609030" d="M73.875,70.81v3.827a.607.607,0,0,1-.607.607H30.074a.607.607,0,0,1-.607-.607V70.81a.607.607,0,0,1,.607-.607H73.267A.607.607,0,0,1,73.875,70.81Z" transform="translate(4.909 11.694)" fill="#acacac"/>
      <path id="Trazado_609031" data-name="Trazado 609031" d="M34.542,74.637V70.81a.607.607,0,0,1,.607-.607H30.074a.607.607,0,0,0-.607.607v3.827a.607.607,0,0,0,.607.607h5.075A.607.607,0,0,1,34.542,74.637Z" transform="translate(4.909 11.694)" fill="#9c9c9c"/>
      <path id="Trazado_609032" data-name="Trazado 609032" d="M28.209,62.61V58.2L23,58.211v4.4a2.43,2.43,0,0,0,2.43,2.43h5.209A2.43,2.43,0,0,1,28.209,62.61Z" transform="translate(3.831 9.696)" fill="#9c9c9c"/>
      <path id="Trazado_609033" data-name="Trazado 609033" d="M64.55,62a.9.9,0,1,0-.9-.9A.9.9,0,0,0,64.55,62Z" transform="translate(10.603 10.03)" fill="#fff"/>
      <path id="Trazado_609034" data-name="Trazado 609034" d="M67.268,62a.9.9,0,1,0-.9-.9A.9.9,0,0,0,67.268,62Z" transform="translate(11.056 10.03)" fill="#5a5a5a"/>
      <path id="Trazado_609035" data-name="Trazado 609035" d="M69.987,62a.9.9,0,1,0-.9-.9A.9.9,0,0,0,69.987,62Z" transform="translate(11.509 10.03)" fill="#00f2a6"/>
      <path id="Trazado_609036" data-name="Trazado 609036" d="M80.673,28.951H67.195a18.076,18.076,0,1,1-28.894,0H24.822A1.822,1.822,0,0,0,23,30.773V63.085l59.5-.071V30.773A1.822,1.822,0,0,0,80.673,28.951Z" transform="translate(3.831 4.823)" fill="#fedba6"/>
      <path id="Trazado_609037" data-name="Trazado 609037" d="M28.209,30.773a1.822,1.822,0,0,1,1.822-1.822H24.822A1.822,1.822,0,0,0,23,30.773V63.085l5.209-.006Z" transform="translate(3.831 4.823)" fill="#fece85"/>
      <path id="Trazado_609038" data-name="Trazado 609038" d="M51.081,58.922A18.076,18.076,0,1,0,33,40.846,18.076,18.076,0,0,0,51.081,58.922Z" transform="translate(5.498 3.793)" fill="#26a6fe"/>
      <path id="Trazado_609039" data-name="Trazado 609039" d="M36.8,40.846A18.078,18.078,0,0,1,47.351,24.4a5.505,5.505,0,0,1,3.73-1.634,18.076,18.076,0,0,0,0,36.153,5.506,5.506,0,0,1-3.73-1.634A18.079,18.079,0,0,1,36.8,40.846Z" transform="translate(5.498 3.793)" fill="#0593fc"/>
      <path id="Trazado_609040" data-name="Trazado 609040" d="M49.781,58.922c4.952,0,8.967-8.093,8.967-18.076s-4.015-18.076-8.967-18.076-8.967,8.093-8.967,18.076S44.828,58.922,49.781,58.922Z" transform="translate(6.799 3.793)" fill="#6cf5c2"/>
      <path id="Trazado_609041" data-name="Trazado 609041" d="M44.6,40.846c0-8.673,3.03-15.918,7.073-17.671a4.735,4.735,0,0,0-1.894-.406c-4.952,0-8.967,8.093-8.967,18.076s4.015,18.076,8.967,18.076a4.734,4.734,0,0,0,1.894-.405C47.632,56.764,44.6,49.519,44.6,40.846Z" transform="translate(6.799 3.793)" fill="#00f2a6"/>
      <path id="Trazado_609042" data-name="Trazado 609042" d="M51.209,22A18.974,18.974,0,1,0,70.183,40.974,19,19,0,0,0,51.209,22ZM34.054,41.872h7.3a34.685,34.685,0,0,0,.805,6.745H35.827A17.05,17.05,0,0,1,34.054,41.872ZM52.107,31.536V23.907c2.388.593,4.5,3.511,5.8,7.629Zm6.3,1.8a32.6,32.6,0,0,1,.863,6.745h-7.16V33.331Zm-8.093-9.424v7.629h-5.8C45.814,27.418,47.924,24.5,50.312,23.907Zm0,9.424v6.745h-7.16a32.593,32.593,0,0,1,.863-6.745Zm-8.956,6.745h-7.3a17.052,17.052,0,0,1,1.773-6.745h6.334A34.685,34.685,0,0,0,41.356,40.076Zm1.8,1.8h7.16v6.745h-6.3A32.591,32.591,0,0,1,43.151,41.872Zm7.16,8.54V58.04c-2.388-.593-4.5-3.511-5.8-7.629Zm1.8,7.629V50.411h5.8C56.6,54.53,54.495,57.448,52.107,58.04Zm0-9.424V41.872h7.16a32.6,32.6,0,0,1-.863,6.745Zm8.956-6.745h7.3a17.054,17.054,0,0,1-1.774,6.745H60.257A34.673,34.673,0,0,0,61.063,41.872Zm0-1.8a34.694,34.694,0,0,0-.805-6.745h6.334a17.054,17.054,0,0,1,1.774,6.745Zm4.493-8.54H59.8a23.066,23.066,0,0,0-1.442-3.743,14.525,14.525,0,0,0-2.147-3.256A17.252,17.252,0,0,1,65.556,31.536Zm-19.344-7a14.521,14.521,0,0,0-2.147,3.256,23.066,23.066,0,0,0-1.442,3.743h-5.76A17.251,17.251,0,0,1,46.212,24.537ZM36.863,50.411h5.76a23.066,23.066,0,0,0,1.442,3.743,14.521,14.521,0,0,0,2.147,3.256A17.251,17.251,0,0,1,36.863,50.411Zm19.344,7a14.524,14.524,0,0,0,2.147-3.256A23.056,23.056,0,0,0,59.8,50.411h5.76A17.251,17.251,0,0,1,56.207,57.411Z" transform="translate(5.37 3.665)" fill="#0182fc"/>
      <path id="Trazado_609043" data-name="Trazado 609043" d="M33.021,54.931H27.19a.9.9,0,1,1,0-1.8h5.831a.9.9,0,1,1,0,1.8Z" transform="translate(4.38 8.851)" fill="#c4573a"/>
      <path id="Trazado_609044" data-name="Trazado 609044" d="M29.376,52.224H27.19a.9.9,0,1,1,0-1.8h2.187a.9.9,0,0,1,0,1.8Z" transform="translate(4.38 8.4)" fill="#c4573a"/>
      <path id="Trazado_609045" data-name="Trazado 609045" d="M70.439,54.931H68.01a.9.9,0,1,1,0-1.8h2.43a.9.9,0,1,1,0,1.8Z" transform="translate(11.18 8.851)" fill="#c4573a"/>
      <path id="Trazado_609046" data-name="Trazado 609046" d="M70.439,52.224H68.01a.9.9,0,1,1,0-1.8h2.43a.9.9,0,1,1,0,1.8Z" transform="translate(11.18 8.4)" fill="#c4573a"/>
      <path id="Trazado_609047" data-name="Trazado 609047" d="M70.439,49.516H68.01a.9.9,0,1,1,0-1.8h2.43a.9.9,0,1,1,0,1.8Z" transform="translate(11.18 7.949)" fill="#c4573a"/>
      <g id="Grupo_1014936" data-name="Grupo 1014936" transform="translate(258.909 23.332)">
        <path id="Trazado_609048" data-name="Trazado 609048" d="M282.744,50.4a30.365,30.365,0,0,1-26.327,30.132c-1.332.179-2.694-.646-4.075-.646-16.792,0-30.4-12.695-30.4-29.486a30.4,30.4,0,1,1,60.806,0Z" transform="translate(-221.938 -20)" fill="#00b7f0"/>
        <path id="Trazado_609049" data-name="Trazado 609049" d="M260.393,70.951l.009-.02a1.01,1.01,0,0,1,.92-.591h6.088a.786.786,0,0,1,.147,1.558,30.476,30.476,0,0,1-6.266.493A1.016,1.016,0,0,1,260.393,70.951Zm-8.052,9.233q1.186,0,2.349-.09v0c.17-.013.341-.027.51-.043a24.846,24.846,0,0,0,22.408-24.8V37.981a14.246,14.246,0,0,0-4.5-10.406l-.131-.122a14.143,14.143,0,0,0-9.609-3.719H246.818a2.577,2.577,0,0,0-2.577,2.577V44.089a2.446,2.446,0,0,1-1.379,2.214,7.205,7.205,0,0,0-4.119,6.511,2.467,2.467,0,0,1-4.734.977,30.264,30.264,0,0,1-1.71-5.453c-1.291-6.067-10.175-5.165-10.355.973A30.4,30.4,0,0,0,252.341,80.184Z" transform="translate(-221.938 -19.378)" fill="#0091c8"/>
        <path id="Trazado_609050" data-name="Trazado 609050" d="M245.133,73.158H231.761V49.692a7.207,7.207,0,0,1,7.207-7.206h15.255V64.069A9.09,9.09,0,0,1,245.133,73.158Z" transform="translate(-220.302 -16.254)" fill="#ff965a"/>
        <path id="Trazado_609051" data-name="Trazado 609051" d="M261.781,23.735H244.924a2.373,2.373,0,0,0-2.373,2.372v32.9L238.826,70.34h28.047a2.577,2.577,0,0,0,2.576-2.577V31.72l-4.816-2.969Z" transform="translate(-219.125 -19.378)" fill="#b6fff6"/>
        <path id="Trazado_609052" data-name="Trazado 609052" d="M239.485,70.688l-7.724-1.25V64.812h14.847v4.626Z" transform="translate(-220.302 -12.535)" fill="#ff965a"/>
        <path id="Trazado_609053" data-name="Trazado 609053" d="M245.672,73.63h-8.293V68.777h8.293Z" transform="translate(-219.366 -11.875)" fill="#fff"/>
        <path id="Trazado_609054" data-name="Trazado 609054" d="M239.184,73.63h-7.423V68.777h7.423Z" transform="translate(-220.302 -11.875)" fill="#b6fff6"/>
        <path id="Trazado_609055" data-name="Trazado 609055" d="M234.229,66.759h9.645a10.847,10.847,0,0,0,1.186-5.045,11.233,11.233,0,0,0-.7-3.966,3.538,3.538,0,0,1,.749-3.725l3.692-3.805a3.218,3.218,0,1,0-4.551-4.551l-9.135,9.66v0a10.17,10.17,0,0,0-2.07,6.384A10.862,10.862,0,0,0,234.229,66.759Z" transform="translate(-220.088 -15.881)" fill="#97f4ec"/>
        <path id="Trazado_609056" data-name="Trazado 609056" d="M252.425,30.45H245.07v1.819h7.355Z" transform="translate(-218.085 -18.259)" fill="#97f4ec"/>
        <path id="Trazado_609057" data-name="Trazado 609057" d="M246.087,52.767h-.647v1.848l12.684.008V52.8H247.283Z" transform="translate(-218.023 -14.542)" fill="#97f4ec"/>
        <path id="Trazado_609058" data-name="Trazado 609058" d="M263.126,48.327H245.439v1.762h17.687Z" transform="translate(-218.023 -15.281)" fill="#97f4ec"/>
        <path id="Trazado_609059" data-name="Trazado 609059" d="M239.051,23.735a2.577,2.577,0,0,0-2.577,2.577V67.763a2.577,2.577,0,0,0,2.577,2.577h3.39V55.275A1.151,1.151,0,0,1,244,54.2V25.585a1.066,1.066,0,0,1,.784-1.073,2.569,2.569,0,0,1,1.843-.778Z" transform="translate(-219.517 -19.378)" fill="#97f4ec"/>
        <path id="Trazado_609060" data-name="Trazado 609060" d="M245.07,43.858v1.6a1.035,1.035,0,0,1,.225.224h17.892V43.858Z" transform="translate(-218.085 -16.026)" fill="#97f4ec"/>
        <path id="Trazado_609061" data-name="Trazado 609061" d="M245.07,36.738h18.117V34.919H245.07Z" transform="translate(-218.085 -17.515)" fill="#97f4ec"/>
        <path id="Trazado_609062" data-name="Trazado 609062" d="M242.019,41.207H263.7V39.388H242.019Z" transform="translate(-218.593 -16.77)" fill="#97f4ec"/>
        <path id="Trazado_609063" data-name="Trazado 609063" d="M258.5,24.692V30.1a2.577,2.577,0,0,0,2.577,2.577h5.092V31.56Z" transform="translate(-215.847 -19.218)" fill="#97f4ec"/>
        <path id="Trazado_609064" data-name="Trazado 609064" d="M258.5,23.735v5.409a2.577,2.577,0,0,0,2.577,2.577h5.092Z" transform="translate(-215.847 -19.378)" fill="#fff"/>
        <path id="Trazado_609065" data-name="Trazado 609065" d="M253.188,31.62H240.494V29.8h12.694Z" transform="translate(-218.847 -18.367)" fill="#fff"/>
        <path id="Trazado_609066" data-name="Trazado 609066" d="M263.949,36.088H240.494V34.27h23.455Z" transform="translate(-218.847 -17.623)" fill="#fff"/>
        <path id="Trazado_609067" data-name="Trazado 609067" d="M263.949,40.558H240.494V38.739h23.455Z" transform="translate(-218.847 -16.878)" fill="#fff"/>
        <path id="Trazado_609068" data-name="Trazado 609068" d="M263.949,45.028H240.494V43.209h23.455Z" transform="translate(-218.847 -16.134)" fill="#fff"/>
        <path id="Trazado_609069" data-name="Trazado 609069" d="M263.949,49.5H240.494V47.678h23.455Z" transform="translate(-218.847 -15.389)" fill="#fff"/>
        <path id="Trazado_609070" data-name="Trazado 609070" d="M258.126,53.966H245.432V52.147h12.694Z" transform="translate(-218.024 -14.645)" fill="#fff"/>
        <path id="Trazado_609071" data-name="Trazado 609071" d="M249.876,42.132h-1.281l-3.416-.857-3.416.857h-1.269V29.817h9.382Z" transform="translate(-218.847 -18.365)" fill="#fff"/>
        <path id="Trazado_609072" data-name="Trazado 609072" d="M252.509,43.316h-3.972V29.321h3.972Z" transform="translate(-217.507 -18.447)" fill="#b6fff6"/>
        <path id="Trazado_609073" data-name="Trazado 609073" d="M246.749,33.2c0-.066.009-.133.009-.2a2.353,2.353,0,0,0-2.18-2.493,1.911,1.911,0,0,0-.434.05v1.4a1.248,1.248,0,0,0,1.247,1.248Z" transform="translate(-218.239 -18.25)" fill="#00b7f0"/>
        <path id="Trazado_609074" data-name="Trazado 609074" d="M245.9,33a1.36,1.36,0,0,1-1.261-1.441,1.539,1.539,0,0,1,.391-1.041,1.964,1.964,0,0,0-.2-.011A2.516,2.516,0,1,0,247.008,33a2.831,2.831,0,0,0-.072-.627A1.224,1.224,0,0,1,245.9,33Z" transform="translate(-218.488 -18.25)" fill="#0091c8"/>
        <path id="Trazado_609075" data-name="Trazado 609075" d="M245,35.44a3.415,3.415,0,0,0-3.415,3.416V41.2h6.83V38.856A3.415,3.415,0,0,0,245,35.44Z" transform="translate(-218.666 -17.428)" fill="#00b7f0"/>
        <path id="Trazado_609076" data-name="Trazado 609076" d="M246.3,40.422a2.34,2.34,0,0,1-2.34-2.339,3.408,3.408,0,0,1,1.244-2.636c-.066,0-.134-.006-.2-.006a3.415,3.415,0,0,0-3.415,3.416V41.2h6.83v-.773Z" transform="translate(-218.666 -17.428)" fill="#0091c8"/>
        <path id="Trazado_609077" data-name="Trazado 609077" d="M247.514,44.78a3.219,3.219,0,0,0-4.552,0l-9.135,9.66v0a10.171,10.171,0,0,0-2.07,6.384c0,4.672,2.69,8.459,6.008,8.459s6.009-3.787,6.009-8.459a11.262,11.262,0,0,0-.7-3.966,3.537,3.537,0,0,1,.748-3.725l3.693-3.805A3.219,3.219,0,0,0,247.514,44.78Z" transform="translate(-220.302 -16.029)" fill="#ffbe82"/>
        <path id="Trazado_609078" data-name="Trazado 609078" d="M247.514,44.78a3.219,3.219,0,0,0-4.552,0l-9.135,9.66v0a10.171,10.171,0,0,0-2.07,6.384c0,4.672,2.69,8.459,6.008,8.459s6.009-3.787,6.009-8.459a11.262,11.262,0,0,0-.7-3.966,3.537,3.537,0,0,1,.748-3.725l3.693-3.805A3.219,3.219,0,0,0,247.514,44.78Z" transform="translate(-220.302 -16.029)" fill="#ffbe82"/>
        <path id="Trazado_609079" data-name="Trazado 609079" d="M247.085,75.693H235.51V70.84h11.575Z" transform="translate(-219.677 -11.531)" fill="#8757f3"/>
        <path id="Trazado_609080" data-name="Trazado 609080" d="M237.051,75.693h-6.435V70.84h6.435Z" transform="translate(-220.492 -11.531)" fill="#6a2bc2"/>
        <path id="Trazado_609081" data-name="Trazado 609081" d="M241.16,47.476l-1.069-1.025,2.585-2.694a2.172,2.172,0,0,1,3.072-.063l.1.1a1.071,1.071,0,0,1,.031,1.515l-2.03,2.116A1.9,1.9,0,0,1,241.16,47.476Z" transform="translate(-218.914 -16.154)" fill="#ffcea1"/>
      </g>
      <path id="Trazado_609082" data-name="Trazado 609082" d="M453.248,86.5A33.248,33.248,0,1,1,486.5,53.248,33.212,33.212,0,0,1,453.248,86.5Z" transform="translate(69.964 3.332)" fill="#7fe881"/>
      <path id="Trazado_609083" data-name="Trazado 609083" d="M481.748,53.248A33.212,33.212,0,0,0,448.5,20V86.5A33.212,33.212,0,0,0,481.748,53.248Z" transform="translate(74.712 3.332)" fill="#1fbf66"/>
      <path id="Trazado_609084" data-name="Trazado 609084" d="M447.616,70.352l-17.2-17.2,8.265-8.264,8.934,8.934L464.342,37.1l8.264,8.264Z" transform="translate(71.699 6.18)" fill="#f0f7ff"/>
      <path id="Trazado_609085" data-name="Trazado 609085" d="M448.5,49.927V66.456l21.094-21.095L461.33,37.1Z" transform="translate(74.712 6.18)" fill="#dfe7f4"/>
      <path id="Trazado_609086" data-name="Trazado 609086" d="M676.5,71.089c-1,.5-2,1.018-2.99,1.566q-3.9,2.114-7.657,4.51-.892.532-1.786,1.127a5.753,5.753,0,0,0-.657.532H624V77.243a26.619,26.619,0,0,1,21.327-26.088,14.093,14.093,0,1,1,10.586,0A26.617,26.617,0,0,1,676.5,71.089Z" transform="translate(103.947 3.998)" fill="#505078"/>
      <path id="Trazado_609087" data-name="Trazado 609087" d="M663.82,52.31a18.039,18.039,0,0,0-15.236,21.782h10.8c.2-.188,10.1-6.17,10.1-6.17.986-.532,1.988-1.049,2.99-1.566A26.709,26.709,0,0,0,663.82,52.31Z" transform="translate(107.971 8.714)" fill="#323250"/>
      <path id="Trazado_609088" data-name="Trazado 609088" d="M662.927,73.665a9.4,9.4,0,1,0-9.4-9.4A9.4,9.4,0,0,0,662.927,73.665Z" transform="translate(108.866 9.141)" fill="#006400"/>
      <path id="Trazado_609089" data-name="Trazado 609089" d="M663.374,52.19a12.527,12.527,0,1,0,8.858,3.669A12.527,12.527,0,0,0,663.374,52.19ZM670.749,62.7l-6.263,6.264a1.568,1.568,0,0,1-1.715.343,1.561,1.561,0,0,1-.509-.343l-4.7-4.7a1.572,1.572,0,0,1,2.224-2.224l3.586,3.6,5.152-5.167a1.572,1.572,0,1,1,2.224,2.224Z" transform="translate(108.419 8.694)" fill="#64d885"/>
      <path id="Trazado_609090" data-name="Trazado 609090" d="M76.134,274.956l2.4,1.9A3.874,3.874,0,0,1,80,279.879v28.6a3.862,3.862,0,0,1-3.862,3.863H27.862A3.862,3.862,0,0,1,24,308.475v-28.6a3.874,3.874,0,0,1,1.458-3.021l2.4-1.9Z" transform="translate(3.998 45.802)" fill="#f29c1f" fill-rule="evenodd"/>
      <path id="Trazado_609091" data-name="Trazado 609091" d="M27.31,305.09v-44.16A1.937,1.937,0,0,1,29.241,259H73.652a1.937,1.937,0,0,1,1.931,1.931v43.155Z" transform="translate(4.549 43.144)" fill="#ecf0f1" fill-rule="evenodd"/>
      <path id="Trazado_609092" data-name="Trazado 609092" d="M49.93,289.343a13.516,13.516,0,1,0-13.516-13.516A13.516,13.516,0,0,0,49.93,289.343Z" transform="translate(6.066 43.696)" fill="#4fba6f"/>
      <path id="Trazado_609093" data-name="Trazado 609093" d="M46.341,282.45a1.922,1.922,0,0,1-1.365-.566l-3.862-3.861a1.931,1.931,0,0,1,2.73-2.73l2.5,2.5L54.63,269.5a1.931,1.931,0,1,1,2.73,2.73l-9.654,9.655A1.922,1.922,0,0,1,46.341,282.45Z" transform="translate(6.758 44.795)" fill="#ecf0f1" fill-rule="evenodd"/>
      <path id="Trazado_609094" data-name="Trazado 609094" d="M74.783,279.615V307.7a3.81,3.81,0,0,1-1.284,2.867L55.291,296.414Z" transform="translate(9.21 46.579)" fill="#f0c419" fill-rule="evenodd"/>
      <path id="Trazado_609095" data-name="Trazado 609095" d="M78.528,309.037a3.849,3.849,0,0,1-2.578,1H27.678a3.848,3.848,0,0,1-2.578-1l18.208-14.153,7.308-5.677a1.942,1.942,0,0,1,2.394,0l7.308,5.677Z" transform="translate(4.181 48.108)" fill="#f3d55b" fill-rule="evenodd"/>
      <path id="Trazado_609096" data-name="Trazado 609096" d="M43.492,296.414,25.284,310.568A3.81,3.81,0,0,1,24,307.7V279.615Z" transform="translate(3.998 46.579)" fill="#f0c419" fill-rule="evenodd"/>
      <path id="Trazado_609097" data-name="Trazado 609097" d="M234.853,283.5a16.119,16.119,0,0,0-3.669,4.162,9.3,9.3,0,0,1-.89,1.21,3.41,3.41,0,0,1-2.282.628,6.566,6.566,0,0,1-.957-.067.668.668,0,0,0-.1-.007v4.13h1.92v2.66a.627.627,0,0,0,.565.626c.018,0,.107.009.258.009a9.024,9.024,0,0,0,5.433-2.117V283.388A.614.614,0,0,0,234.853,283.5Z" transform="translate(37.807 47.207)" fill="#fdcba0"/>
      <path id="Trazado_609098" data-name="Trazado 609098" d="M240.783,259.408l-7.027,7.695a1.254,1.254,0,0,0-.328.846v29.807l7.729,5.082h40.889a1.255,1.255,0,0,0,1.254-1.254V260.255A1.255,1.255,0,0,0,282.045,259H241.71a1.263,1.263,0,0,0-.506.106A1.283,1.283,0,0,0,240.783,259.408Z" transform="translate(38.885 43.144)" fill="#f5b144"/>
      <path id="Trazado_609099" data-name="Trazado 609099" d="M282.045,259h-.275v40.476a1.255,1.255,0,0,1-1.255,1.255H239.626l-6.2-4.073v1.1l7.73,5.082h40.889a1.255,1.255,0,0,0,1.254-1.254V260.255A1.255,1.255,0,0,0,282.045,259Z" transform="translate(38.884 43.144)" fill="#f5a92d"/>
      <path id="Trazado_609100" data-name="Trazado 609100" d="M240.783,259.389l-7.027,7.695a1.254,1.254,0,0,0-.328.846v29.807l7.729,5.082v-43.7A1.241,1.241,0,0,0,240.783,259.389Z" transform="translate(38.885 43.163)" fill="#f8c150"/>
      <path id="Trazado_609101" data-name="Trazado 609101" d="M253.491,259v13.941a.625.625,0,0,0,.628.626h9.312a.627.627,0,0,0,.628-.626V259Z" transform="translate(42.227 43.144)" fill="#f77668"/>
      <path id="Trazado_609102" data-name="Trazado 609102" d="M263.078,259v12.923a.625.625,0,0,1-.628.628h-8.959v.392a.627.627,0,0,0,.628.628h9.312a.629.629,0,0,0,.628-.628V259Z" transform="translate(42.227 43.144)" fill="#f76a68"/>
      <path id="Trazado_609103" data-name="Trazado 609103" d="M221.653,293.105a.656.656,0,0,1-.681-.628v-5.751a.656.656,0,0,1,.681-.626H227.9a.656.656,0,0,1,.681.626v5.751a.656.656,0,0,1-.681.628Z" transform="translate(36.81 47.659)" fill="#349cbc"/>
      <path id="Trazado_609104" data-name="Trazado 609104" d="M272.195,290.764H260.74a1.255,1.255,0,0,0,0,2.509h11.455a1.255,1.255,0,1,0,0-2.509Z" transform="translate(43.225 48.436)" fill="#fef497"/>
      <path id="Trazado_609105" data-name="Trazado 609105" d="M273.353,283.374l-2.409-2.6a1.293,1.293,0,0,0-1.841,0l-2.409,2.6a1.256,1.256,0,0,0-.257.418,1.24,1.24,0,0,0-.077.483,1.253,1.253,0,0,0,.818,1.129,1.261,1.261,0,0,0,.96-.036,1.266,1.266,0,0,0,.4-.287l.235-.252v4.414a1.255,1.255,0,0,0,2.509,0v-4.415l.234.251a1.255,1.255,0,1,0,1.841-1.706Z" transform="translate(44.37 46.708)" fill="#fef497"/>
      <path id="Trazado_609106" data-name="Trazado 609106" d="M263.639,280.776a1.249,1.249,0,0,0-.418-.3,1.255,1.255,0,0,0-1.423.3l-2.408,2.6a1.255,1.255,0,1,0,1.841,1.706l.235-.251v4.414a1.255,1.255,0,0,0,2.509,0v-4.417l.234.251a1.254,1.254,0,1,0,1.84-1.706Z" transform="translate(43.154 46.705)" fill="#fef497"/>
      <path id="Trazado_609107" data-name="Trazado 609107" d="M264.121,298.037H255.8a11.3,11.3,0,0,1-5.674-1.142,2.068,2.068,0,0,1-.985-1.917,2.236,2.236,0,0,1,1.3-1.931c4.6-2.146,7.089-4.2,7.4-6.108a2.646,2.646,0,0,0-.871-2.368,2.271,2.271,0,0,0-1.73-.582c-1.527,0-3.814.744-6.8,2.209a11.157,11.157,0,0,1-3.077,1.022c-4.74.79-7.692,3.293-10.065,5.308-1.678,1.421-3.585,2.936-5.9,2.968l-.007,10.251,5.6,1.577a32.379,32.379,0,0,0,7.915,1.176,16.938,16.938,0,0,0,7.508-1.706c3.412-1.594,13.9-7.535,13.9-7.535a.626.626,0,0,0,.34-.271.636.636,0,0,0,.083-.427.629.629,0,0,0-.623-.525Z" transform="translate(38.214 47.306)" fill="#fdddb6"/>
      <path id="Trazado_609108" data-name="Trazado 609108" d="M247.625,291.225a2.241,2.241,0,0,0-1.3,1.931,2.176,2.176,0,0,0,.14.9,2.218,2.218,0,0,1,1.162-1.262c4.6-2.148,7.089-4.2,7.4-6.109a2.453,2.453,0,0,0-.1-1.176C254.362,287.3,251.912,289.226,247.625,291.225Z" transform="translate(41.032 47.56)" fill="#fdcba0"/>
      <path id="Trazado_609109" data-name="Trazado 609109" d="M264.12,296.03h-.412c-2.286,1.289-10.366,5.826-13.283,7.187a16.943,16.943,0,0,1-7.508,1.707A32.435,32.435,0,0,1,235,303.748l-5.6-1.577v1.568l5.6,1.577a32.376,32.376,0,0,0,7.915,1.176,16.938,16.938,0,0,0,7.508-1.706c3.412-1.594,13.9-7.535,13.9-7.535a.627.627,0,0,0-.2-1.221Z" transform="translate(38.214 49.313)" fill="#fdcba0"/>
      <path id="Trazado_609110" data-name="Trazado 609110" d="M220.972,289.954v1.882a.658.658,0,0,0,.681.628H227.9a.658.658,0,0,0,.681-.628v-1.882Z" transform="translate(36.81 48.301)" fill="#3492bc"/>
      <path id="Trazado_609111" data-name="Trazado 609111" d="M219.724,306.975a.676.676,0,0,1-.491-.164.684.684,0,0,1-.233-.462V291.657a.681.681,0,0,1,.724-.628h11.01a.681.681,0,0,1,.724.628v14.692a.681.681,0,0,1-.724.626Z" transform="translate(36.481 48.48)" fill="#4db3ca"/>
      <path id="Trazado_609112" data-name="Trazado 609112" d="M230.735,291.029h-.687v13.818a.681.681,0,0,1-.724.628H219v.878a.683.683,0,0,0,.724.628h11.01a.683.683,0,0,0,.724-.628v-14.7a.681.681,0,0,0-.724-.628Z" transform="translate(36.481 48.48)" fill="#4dabca"/>
      <path id="Trazado_609113" data-name="Trazado 609113" d="M480.743,288.328a28.137,28.137,0,0,0-.839-6.709l7.346-5.975-6.328-10.96-8.844,3.373a28.05,28.05,0,0,0-11.627-6.72l-1.5-9.337H446.3l-1.5,9.337a28.057,28.057,0,0,0-11.627,6.72l-8.843-3.373L418,275.644l7.346,5.975a27.252,27.252,0,0,0,0,13.418L418,301.013l6.328,10.96,8.843-3.373a28.062,28.062,0,0,0,11.628,6.72l1.5,9.337h12.655l1.5-9.337a28.065,28.065,0,0,0,11.627-6.72l8.843,3.373,6.328-10.96-7.346-5.975A28.078,28.078,0,0,0,480.743,288.328Zm-28.118,19.3a19.3,19.3,0,1,1,19.3-19.3A19.3,19.3,0,0,1,452.625,307.626Z" transform="translate(69.631 41.978)" fill="#e56353"/>
      <path id="Trazado_609114" data-name="Trazado 609114" d="M450.437,266.6a19.3,19.3,0,1,0,19.3,19.3A19.3,19.3,0,0,0,450.437,266.6Zm0,35.613A16.316,16.316,0,1,1,466.752,285.9,16.316,16.316,0,0,1,450.437,302.212Z" transform="translate(71.82 44.41)" fill="#d15241"/>
      <path id="Trazado_609115" data-name="Trazado 609115" d="M626.155,255.781h45.716a4.156,4.156,0,0,1,4.155,4.156v56.1a4.156,4.156,0,0,1-4.155,4.157H626.155A4.156,4.156,0,0,1,622,316.042v-56.1A4.156,4.156,0,0,1,626.155,255.781Z" transform="translate(103.613 42.608)" fill="#ecce93"/>
      <path id="Trazado_609116" data-name="Trazado 609116" d="M625.562,301.763V259.344h45.716v56.1h-32.03Z" transform="translate(104.207 43.202)" fill="#efefef"/>
      <path id="Trazado_609117" data-name="Trazado 609117" d="M639.248,295.706v13.685l-13.686-13.685Z" transform="translate(104.207 49.259)" fill="#e76e54"/>
      <path id="Trazado_609118" data-name="Trazado 609118" d="M636.25,262.312V254h20.779v8.312a4.156,4.156,0,0,1-4.155,4.155H640.405A4.156,4.156,0,0,1,636.25,262.312Z" transform="translate(105.987 42.312)" fill="#e76e54"/>
      <path id="Trazado_609119" data-name="Trazado 609119" d="M684.341,297.639a18.7,18.7,0,1,1-18.7-18.7A18.7,18.7,0,0,1,684.341,297.639Z" transform="translate(107.767 46.466)" fill="#48c8ef"/>
      <path id="Trazado_609120" data-name="Trazado 609120" d="M659.958,303.824l-4.027-4.029a2.078,2.078,0,0,1,2.939-2.939l1.346,1.345,9.411-7.845a2.079,2.079,0,0,1,2.662,3.194Z" transform="translate(109.164 48.287)" fill="#fff"/>
      <path id="Trazado_609121" data-name="Trazado 609121" d="M641.891,268.25h16.624a2.078,2.078,0,0,1,0,4.155H641.891a2.078,2.078,0,1,1,0-4.155Z" transform="translate(106.58 44.685)" fill="#77959e"/>
      <path id="Trazado_609122" data-name="Trazado 609122" d="M632.688,268.25h4.155v4.155h-4.155Z" transform="translate(105.394 44.685)" fill="#77959e"/>
      <path id="Trazado_609123" data-name="Trazado 609123" d="M632.688,275.375h4.155v4.155h-4.155Z" transform="translate(105.394 45.872)" fill="#77959e"/>
      <path id="Trazado_609124" data-name="Trazado 609124" d="M632.688,282.5h4.155v4.155h-4.155Z" transform="translate(105.394 47.059)" fill="#77959e"/>
      <path id="Trazado_609125" data-name="Trazado 609125" d="M632.688,289.625h4.155v4.155h-4.155Z" transform="translate(105.394 48.246)" fill="#77959e"/>
      <path id="Trazado_609126" data-name="Trazado 609126" d="M641.891,275.375h12.467a2.078,2.078,0,1,1,0,4.155H641.891a2.078,2.078,0,1,1,0-4.155Z" transform="translate(106.58 45.872)" fill="#77959e"/>
      <path id="Trazado_609127" data-name="Trazado 609127" d="M641.891,282.5h4.155a2.078,2.078,0,1,1,0,4.155h-4.155a2.078,2.078,0,1,1,0-4.155Z" transform="translate(106.58 47.059)" fill="#77959e"/>
      <circle id="Elipse_4843" data-name="Elipse 4843" cx="15.749" cy="15.749" r="15.749" transform="translate(274.146 130.657)" fill="#ecdcf5"/>
      <circle id="Elipse_4844" data-name="Elipse 4844" cx="15.749" cy="15.749" r="15.749" transform="translate(274.146 405.971)" fill="#ecdcf5"/>
      <circle id="Elipse_4845" data-name="Elipse 4845" cx="15.749" cy="15.749" r="15.749" transform="translate(508.629 130.657)" fill="#fffbe0"/>
      <circle id="Elipse_4846" data-name="Elipse 4846" cx="15.749" cy="15.749" r="15.749" transform="translate(508.629 405.971)" fill="#fffbe0"/>
      <circle id="Elipse_4847" data-name="Elipse 4847" cx="15.749" cy="15.749" r="15.749" transform="translate(743.112 130.657)" fill="#e0e4ee"/>
      <circle id="Elipse_4848" data-name="Elipse 4848" cx="15.749" cy="15.749" r="15.749" transform="translate(743.112 405.971)" fill="#e0e4ee"/>
    </g>
    <path id="Trazado_609460" data-name="Trazado 609460" d="M12.5,17H3.57V15.066l4.113-4.324A4.909,4.909,0,0,0,9.2,7.991a1.913,1.913,0,0,0-.36-1.257A1.287,1.287,0,0,0,7.8,6.3a1.3,1.3,0,0,0-1.1.576,2.366,2.366,0,0,0-.422,1.437H3.307A4.2,4.2,0,0,1,3.9,6.141,4.129,4.129,0,0,1,5.53,4.581a4.856,4.856,0,0,1,2.338-.562,4.777,4.777,0,0,1,3.195.958,3.42,3.42,0,0,1,1.121,2.751A4,4,0,0,1,11.9,9.2a6.456,6.456,0,0,1-.875,1.5,22.029,22.029,0,0,1-1.912,2.1L7.464,14.715H12.5Z" transform="translate(652 1992)" fill="#12263f"/>
    <path id="Trazado_609461" data-name="Trazado 609461" d="M6.277,9.362h1.4A1.453,1.453,0,0,0,9.336,7.736,1.406,1.406,0,0,0,8.94,6.7a1.5,1.5,0,0,0-1.116-.4A1.606,1.606,0,0,0,6.8,6.646a1.046,1.046,0,0,0-.435.853H3.4a3.032,3.032,0,0,1,.563-1.8,3.715,3.715,0,0,1,1.56-1.235,5.334,5.334,0,0,1,2.193-.444,5.241,5.241,0,0,1,3.357.976A3.243,3.243,0,0,1,12.3,7.675a2.7,2.7,0,0,1-.505,1.56,3.6,3.6,0,0,1-1.472,1.191,3.441,3.441,0,0,1,1.6,1.121,2.951,2.951,0,0,1,.58,1.859,3.3,3.3,0,0,1-1.318,2.742,5.472,5.472,0,0,1-3.463,1.028A5.675,5.675,0,0,1,5.385,16.7a3.656,3.656,0,0,1-1.63-1.327A3.45,3.45,0,0,1,3.2,13.44H6.181a1.334,1.334,0,0,0,.475,1.02,1.676,1.676,0,0,0,1.169.431,1.755,1.755,0,0,0,1.248-.435,1.454,1.454,0,0,0,.466-1.112,1.7,1.7,0,0,0-.483-1.371,2.021,2.021,0,0,0-1.336-.4H6.277Z" transform="translate(887 1992)" fill="#12263f"/>
    <path id="Trazado_609462" data-name="Trazado 609462" d="M11.393,12h1.3v2.285h-1.3V17H8.431V14.284H3.482l-.176-1.811L8.431,4.229V4.2h2.962ZM6.128,12h2.3V8.062l-.185.3Z" transform="translate(1120 1992)" fill="#12263f"/>
    <path id="Trazado_609463" data-name="Trazado 609463" d="M3.746,10.749,4.528,4.2h7.479v2.3H6.937l-.29,2.542a3.493,3.493,0,0,1,.831-.327A3.79,3.79,0,0,1,8.483,8.58a3.754,3.754,0,0,1,2.931,1.129,4.549,4.549,0,0,1,1.024,3.168,4.541,4.541,0,0,1-.549,2.228,3.776,3.776,0,0,1-1.542,1.534A4.87,4.87,0,0,1,8,17.176a5.24,5.24,0,0,1-2.259-.5,4.052,4.052,0,0,1-1.652-1.361A3.308,3.308,0,0,1,3.5,13.364H6.471a1.68,1.68,0,0,0,.448,1.114,1.423,1.423,0,0,0,1.063.412q1.494,0,1.494-2.21,0-2.044-1.828-2.044A1.824,1.824,0,0,0,6.1,11.3Z" transform="translate(1121 2267)" fill="#12263f"/>
    <path id="Trazado_609464" data-name="Trazado 609464" d="M10.725,4.019V6.348h-.132a4.447,4.447,0,0,0-2.729.8A3.358,3.358,0,0,0,6.55,9.354a3.464,3.464,0,0,1,2.531-.984,3.231,3.231,0,0,1,2.646,1.213,4.892,4.892,0,0,1,.984,3.182A4.48,4.48,0,0,1,12.135,15a4.108,4.108,0,0,1-1.608,1.6,4.622,4.622,0,0,1-2.29.576,4.777,4.777,0,0,1-2.435-.62,4.26,4.26,0,0,1-1.67-1.771,5.832,5.832,0,0,1-.615-2.654V10.944a7.387,7.387,0,0,1,.848-3.555A6.149,6.149,0,0,1,6.787,4.915a6.923,6.923,0,0,1,3.489-.9ZM8.053,10.637a1.7,1.7,0,0,0-.984.272,1.73,1.73,0,0,0-.589.668v.888q0,2.426,1.679,2.426a1.362,1.362,0,0,0,1.129-.606,2.472,2.472,0,0,0,.453-1.521,2.426,2.426,0,0,0-.461-1.534A1.476,1.476,0,0,0,8.053,10.637Z" transform="translate(887 2267)" fill="#12263f"/>
    <path id="Trazado_609465" data-name="Trazado 609465" d="M12.465,5.785,7.684,17H4.555L9.345,6.488h-6.1V4.2h9.22Z" transform="translate(653 2267)" fill="#12263f"/>
    <path id="Trazado_609466" data-name="Trazado 609466" d="M12.2,7.622a2.954,2.954,0,0,1-.461,1.644,3.361,3.361,0,0,1-1.27,1.143,3.7,3.7,0,0,1,1.45,1.226,3.164,3.164,0,0,1,.536,1.841,3.349,3.349,0,0,1-1.182,2.707,4.909,4.909,0,0,1-3.256.993,5,5,0,0,1-3.287-1,3.325,3.325,0,0,1-1.2-2.7,3.2,3.2,0,0,1,.527-1.819,3.586,3.586,0,0,1,1.494-1.248A3.38,3.38,0,0,1,4.265,9.266,2.934,2.934,0,0,1,3.8,7.622,3.284,3.284,0,0,1,4.933,4.985a4.558,4.558,0,0,1,3.059-.967,4.586,4.586,0,0,1,3.076.967A3.284,3.284,0,0,1,12.2,7.622ZM9.485,13.238a1.69,1.69,0,0,0-.409-1.217A1.423,1.423,0,0,0,8,11.595a1.438,1.438,0,0,0-1.081.426,1.678,1.678,0,0,0-.413,1.217,1.693,1.693,0,0,0,.417,1.208,1.433,1.433,0,0,0,1.094.444,1.377,1.377,0,0,0,1.063-.439A1.723,1.723,0,0,0,9.485,13.238ZM7.991,6.3a1.1,1.1,0,0,0-.91.391A1.7,1.7,0,0,0,6.77,7.78a1.8,1.8,0,0,0,.316,1.107,1.092,1.092,0,0,0,.932.422,1.047,1.047,0,0,0,.91-.422,1.856,1.856,0,0,0,.3-1.107A1.7,1.7,0,0,0,8.918,6.7,1.109,1.109,0,0,0,7.991,6.3Z" transform="translate(417 2267)" fill="#12263f"/>
    <path id="Trazado_609467" data-name="Trazado 609467" d="M10.136,17H7.165V7.543L4.247,8.4V6.146L9.863,4.2h.272Z" transform="translate(417 1992)" fill="#12263f"/>
    <path id="Trazado_609468" data-name="Trazado 609468" d="M42.481,11.568H37.629v3.059h5.73V17H34.544V4.2h8.833V6.585H37.629v2.7h4.852ZM47.2,7.49l.1,1.116a3.225,3.225,0,0,1,2.716-1.292,2.713,2.713,0,0,1,2.219.888,4.226,4.226,0,0,1,.76,2.672V17H50.022V11a1.6,1.6,0,0,0-.29-1.059A1.342,1.342,0,0,0,48.677,9.6a1.413,1.413,0,0,0-1.292.686V17H44.423V7.49Zm11.224,5.985,1.5-5.985h3.12L59.945,17H56.921l-3.1-9.51h3.129ZM67.055,17H64.084V7.49h2.971ZM63.909,5.038A1.322,1.322,0,0,1,64.366,4a1.943,1.943,0,0,1,2.373,0A1.322,1.322,0,0,1,67.2,5.038a1.322,1.322,0,0,1-.457,1.037,1.943,1.943,0,0,1-2.373,0A1.322,1.322,0,0,1,63.909,5.038ZM74.236,17a3.344,3.344,0,0,1-.281-.853,2.754,2.754,0,0,1-2.285,1.028,3.374,3.374,0,0,1-2.285-.813,2.588,2.588,0,0,1-.94-2.043,2.66,2.66,0,0,1,1.143-2.338,5.821,5.821,0,0,1,3.322-.791h.914v-.5q0-1.316-1.134-1.316a.927.927,0,0,0-1.055,1.042H68.672a2.655,2.655,0,0,1,1.173-2.239,4.931,4.931,0,0,1,2.993-.86,4.323,4.323,0,0,1,2.874.888,3.086,3.086,0,0,1,1.081,2.435v4.21a4.311,4.311,0,0,0,.4,2V17Zm-1.854-1.934a1.652,1.652,0,0,0,.918-.237,1.487,1.487,0,0,0,.523-.536V12.772h-.861q-1.547,0-1.547,1.389a.848.848,0,0,0,.272.655A.986.986,0,0,0,72.381,15.066Zm11.8-4.9-.976-.07a1.752,1.752,0,0,0-1.793.879V17H78.455V7.49h2.777l.1,1.222a2.294,2.294,0,0,1,2.083-1.4,2.888,2.888,0,0,1,.826.105Zm-61.466,32a4.889,4.889,0,0,1-3.542-1.305,4.507,4.507,0,0,1-1.354-3.4v-.246a5.84,5.84,0,0,1,.541-2.575,3.955,3.955,0,0,1,1.578-1.727,4.763,4.763,0,0,1,2.461-.611,4.117,4.117,0,0,1,3.164,1.244,4.887,4.887,0,0,1,1.16,3.467v1.151H20.838a2.135,2.135,0,0,0,.694,1.257,2.066,2.066,0,0,0,1.389.457,2.662,2.662,0,0,0,2.2-.984l1.354,1.6A3.784,3.784,0,0,1,24.9,41.723,5.3,5.3,0,0,1,22.719,42.176ZM22.385,34.6q-1.3,0-1.547,1.723h2.988v-.229a1.467,1.467,0,0,0-.36-1.1A1.434,1.434,0,0,0,22.385,34.6Zm8.253-2.109.1,1.116a3.225,3.225,0,0,1,2.716-1.292,2.713,2.713,0,0,1,2.219.888,4.226,4.226,0,0,1,.76,2.672V42H33.459V36a1.6,1.6,0,0,0-.29-1.059,1.342,1.342,0,0,0-1.055-.338,1.413,1.413,0,0,0-1.292.686V42H27.86V32.49Zm11.452,7.4a1.317,1.317,0,0,0,.967-.338,1.241,1.241,0,0,0,.334-.945h2.777a3.288,3.288,0,0,1-1.121,2.566,4.168,4.168,0,0,1-2.887,1,4.22,4.22,0,0,1-3.27-1.3,5.125,5.125,0,0,1-1.2-3.6v-.123a5.792,5.792,0,0,1,.532-2.544,3.872,3.872,0,0,1,1.534-1.7,4.573,4.573,0,0,1,2.373-.593,4.116,4.116,0,0,1,2.944,1.028,3.647,3.647,0,0,1,1.09,2.786H43.391A1.626,1.626,0,0,0,43.03,35a1.244,1.244,0,0,0-.967-.4q-1.151,0-1.345,1.468a10.357,10.357,0,0,0-.062,1.283A4.068,4.068,0,0,0,41,39.337,1.187,1.187,0,0,0,42.09,39.891Zm11,1.081a3.054,3.054,0,0,1-2.54,1.2,3,3,0,0,1-2.369-.91,3.826,3.826,0,0,1-.8-2.615V32.49h2.962v6.179a1.065,1.065,0,0,0,1.187,1.222,1.548,1.548,0,0,0,1.45-.729V32.49H55.95V42H53.173Zm9.088,1.2a4.889,4.889,0,0,1-3.542-1.305,4.507,4.507,0,0,1-1.354-3.4v-.246a5.84,5.84,0,0,1,.541-2.575A3.955,3.955,0,0,1,59.4,32.925a4.763,4.763,0,0,1,2.461-.611,4.117,4.117,0,0,1,3.164,1.244,4.887,4.887,0,0,1,1.16,3.467v1.151H60.292a2.135,2.135,0,0,0,.694,1.257,2.066,2.066,0,0,0,1.389.457,2.662,2.662,0,0,0,2.2-.984l1.354,1.6a3.784,3.784,0,0,1-1.569,1.217A5.3,5.3,0,0,1,62.173,42.176ZM61.839,34.6q-1.3,0-1.547,1.723H63.28v-.229a1.467,1.467,0,0,0-.36-1.1A1.434,1.434,0,0,0,61.839,34.6Zm10.512,4.729a.684.684,0,0,0-.4-.606,6.016,6.016,0,0,0-1.5-.475,6.853,6.853,0,0,1-1.828-.646,3.062,3.062,0,0,1-1.1-.971,2.319,2.319,0,0,1-.378-1.31,2.628,2.628,0,0,1,1.081-2.158,4.453,4.453,0,0,1,2.83-.848,4.934,4.934,0,0,1,3.023.853,2.666,2.666,0,0,1,1.143,2.241H72.254q0-1.143-1.2-1.143a1.194,1.194,0,0,0-.782.259.8.8,0,0,0-.316.646.737.737,0,0,0,.387.642,3.654,3.654,0,0,0,1.235.4,10.671,10.671,0,0,1,1.49.378,2.706,2.706,0,0,1,2.145,2.646,2.491,2.491,0,0,1-1.156,2.118,5.068,5.068,0,0,1-2.993.817,5.172,5.172,0,0,1-2.18-.439,3.645,3.645,0,0,1-1.494-1.2,2.707,2.707,0,0,1-.536-1.591h2.769a1.145,1.145,0,0,0,.439.962,1.808,1.808,0,0,0,1.081.3,1.422,1.422,0,0,0,.91-.246A.787.787,0,0,0,72.351,39.328Zm7.69-9.2V32.49h1.564v2.057H80.041V38.9a1.111,1.111,0,0,0,.193.747,1.037,1.037,0,0,0,.765.211,4.345,4.345,0,0,0,.738-.053v2.118a5.466,5.466,0,0,1-1.67.255,3.1,3.1,0,0,1-2.259-.721,2.954,2.954,0,0,1-.729-2.188v-4.72H75.866V32.49h1.213V30.126ZM88.127,42a3.344,3.344,0,0,1-.281-.853,2.754,2.754,0,0,1-2.285,1.028,3.374,3.374,0,0,1-2.285-.813,2.588,2.588,0,0,1-.94-2.043,2.66,2.66,0,0,1,1.143-2.338A5.821,5.821,0,0,1,86.8,36.19h.914v-.5q0-1.316-1.134-1.316a.927.927,0,0,0-1.055,1.042H82.563a2.655,2.655,0,0,1,1.173-2.239,4.931,4.931,0,0,1,2.993-.86A4.323,4.323,0,0,1,89.6,33.2a3.086,3.086,0,0,1,1.081,2.435v4.21a4.311,4.311,0,0,0,.4,2V42Zm-1.854-1.934a1.652,1.652,0,0,0,.918-.237,1.487,1.487,0,0,0,.523-.536V37.772h-.861q-1.547,0-1.547,1.389a.848.848,0,0,0,.272.655A.986.986,0,0,0,86.272,40.066Zm11.03-.738a.684.684,0,0,0-.4-.606,6.016,6.016,0,0,0-1.5-.475,6.853,6.853,0,0,1-1.828-.646,3.062,3.062,0,0,1-1.1-.971,2.319,2.319,0,0,1-.378-1.31,2.628,2.628,0,0,1,1.081-2.158,4.453,4.453,0,0,1,2.83-.848,4.934,4.934,0,0,1,3.023.853,2.666,2.666,0,0,1,1.143,2.241H97.206q0-1.143-1.2-1.143a1.194,1.194,0,0,0-.782.259.8.8,0,0,0-.316.646.737.737,0,0,0,.387.642,3.654,3.654,0,0,0,1.235.4,10.671,10.671,0,0,1,1.49.378,2.706,2.706,0,0,1,2.145,2.646A2.491,2.491,0,0,1,99,41.358a5.068,5.068,0,0,1-2.993.817,5.172,5.172,0,0,1-2.18-.439,3.645,3.645,0,0,1-1.494-1.2A2.707,2.707,0,0,1,91.8,38.95h2.769a1.145,1.145,0,0,0,.439.962,1.808,1.808,0,0,0,1.081.3A1.422,1.422,0,0,0,97,39.97.787.787,0,0,0,97.3,39.328Z" transform="translate(366 2308)" fill="#12263f"/>
    <path id="Trazado_609469" data-name="Trazado 609469" d="M33.112,11.568H28.26v3.059h5.73V17H25.175V4.2h8.833V6.585H28.26v2.7h4.852Zm4.72-4.078.1,1.116a3.225,3.225,0,0,1,2.716-1.292,2.713,2.713,0,0,1,2.219.888,4.226,4.226,0,0,1,.76,2.672V17H40.653V11a1.6,1.6,0,0,0-.29-1.059A1.342,1.342,0,0,0,39.308,9.6a1.413,1.413,0,0,0-1.292.686V17H35.054V7.49ZM48.712,5.126V7.49h1.564V9.547H48.712V13.9a1.111,1.111,0,0,0,.193.747,1.037,1.037,0,0,0,.765.211,4.345,4.345,0,0,0,.738-.053v2.118a5.466,5.466,0,0,1-1.67.255,3.1,3.1,0,0,1-2.259-.721,2.954,2.954,0,0,1-.729-2.188V9.547H44.538V7.49H45.75V5.126Zm8.481,5.045-.976-.07a1.752,1.752,0,0,0-1.793.879V17H51.463V7.49h2.777l.1,1.222a2.294,2.294,0,0,1,2.083-1.4,2.888,2.888,0,0,1,.826.105Zm5.5,7a4.889,4.889,0,0,1-3.542-1.305,4.507,4.507,0,0,1-1.354-3.4v-.246a5.84,5.84,0,0,1,.541-2.575,3.955,3.955,0,0,1,1.578-1.727,4.763,4.763,0,0,1,2.461-.611,4.117,4.117,0,0,1,3.164,1.244,4.887,4.887,0,0,1,1.16,3.467v1.151H60.815a2.135,2.135,0,0,0,.694,1.257,2.066,2.066,0,0,0,1.389.457,2.662,2.662,0,0,0,2.2-.984l1.354,1.6a3.784,3.784,0,0,1-1.569,1.217A5.3,5.3,0,0,1,62.7,17.176ZM62.362,9.6q-1.3,0-1.547,1.723H63.8v-.229a1.467,1.467,0,0,0-.36-1.1A1.434,1.434,0,0,0,62.362,9.6Zm5.186,2.575a6.421,6.421,0,0,1,.475-2.549,3.821,3.821,0,0,1,1.362-1.709,3.591,3.591,0,0,1,2.065-.6,2.855,2.855,0,0,1,2.32,1l.105-.826h2.689V16.64a4.009,4.009,0,0,1-.584,2.184,3.75,3.75,0,0,1-1.692,1.424,6.219,6.219,0,0,1-2.566.5,5.365,5.365,0,0,1-2.026-.4,3.657,3.657,0,0,1-1.5-1.028l1.239-1.74a2.716,2.716,0,0,0,2.18.976,1.764,1.764,0,0,0,1.969-2.021v-.3a2.781,2.781,0,0,1-2.153.94,3.437,3.437,0,0,1-2.812-1.332,5.517,5.517,0,0,1-1.072-3.564Zm2.971.185a3.383,3.383,0,0,0,.439,1.85,1.387,1.387,0,0,0,1.23.681,1.573,1.573,0,0,0,1.4-.642v-4a1.534,1.534,0,0,0-1.38-.65,1.4,1.4,0,0,0-1.239.708A3.858,3.858,0,0,0,70.518,12.359ZM83.6,17a3.344,3.344,0,0,1-.281-.853,2.754,2.754,0,0,1-2.285,1.028,3.374,3.374,0,0,1-2.285-.813,2.588,2.588,0,0,1-.94-2.043,2.66,2.66,0,0,1,1.143-2.338,5.821,5.821,0,0,1,3.322-.791h.914v-.5q0-1.316-1.134-1.316A.927.927,0,0,0,81,10.413H78.042a2.655,2.655,0,0,1,1.173-2.239,4.931,4.931,0,0,1,2.993-.86,4.323,4.323,0,0,1,2.874.888,3.086,3.086,0,0,1,1.081,2.435v4.21a4.311,4.311,0,0,0,.4,2V17ZM81.75,15.066a1.652,1.652,0,0,0,.918-.237,1.487,1.487,0,0,0,.523-.536V12.772h-.861q-1.547,0-1.547,1.389a.848.848,0,0,0,.272.655A.986.986,0,0,0,81.75,15.066Zm11.8-4.9-.976-.07a1.752,1.752,0,0,0-1.793.879V17H87.824V7.49H90.6l.1,1.222a2.294,2.294,0,0,1,2.083-1.4,2.888,2.888,0,0,1,.826.105ZM32.483,39.328a.684.684,0,0,0-.4-.606,6.016,6.016,0,0,0-1.5-.475,6.853,6.853,0,0,1-1.828-.646,3.062,3.062,0,0,1-1.1-.971,2.319,2.319,0,0,1-.378-1.31,2.628,2.628,0,0,1,1.081-2.158,4.453,4.453,0,0,1,2.83-.848,4.934,4.934,0,0,1,3.023.853,2.666,2.666,0,0,1,1.143,2.241H32.387q0-1.143-1.2-1.143a1.194,1.194,0,0,0-.782.259.8.8,0,0,0-.316.646.737.737,0,0,0,.387.642,3.654,3.654,0,0,0,1.235.4,10.671,10.671,0,0,1,1.49.378A2.706,2.706,0,0,1,35.34,39.24a2.491,2.491,0,0,1-1.156,2.118,5.068,5.068,0,0,1-2.993.817,5.172,5.172,0,0,1-2.18-.439,3.645,3.645,0,0,1-1.494-1.2,2.707,2.707,0,0,1-.536-1.591H29.75a1.145,1.145,0,0,0,.439.962,1.808,1.808,0,0,0,1.081.3,1.422,1.422,0,0,0,.91-.246A.787.787,0,0,0,32.483,39.328Zm8.842,2.848a4.889,4.889,0,0,1-3.542-1.305,4.507,4.507,0,0,1-1.354-3.4v-.246a5.84,5.84,0,0,1,.541-2.575,3.955,3.955,0,0,1,1.578-1.727,4.763,4.763,0,0,1,2.461-.611,4.117,4.117,0,0,1,3.164,1.244,4.887,4.887,0,0,1,1.16,3.467v1.151H39.444a2.135,2.135,0,0,0,.694,1.257,2.066,2.066,0,0,0,1.389.457,2.662,2.662,0,0,0,2.2-.984l1.354,1.6a3.784,3.784,0,0,1-1.569,1.217A5.3,5.3,0,0,1,41.325,42.176ZM40.991,34.6q-1.3,0-1.547,1.723h2.988v-.229a1.467,1.467,0,0,0-.36-1.1A1.434,1.434,0,0,0,40.991,34.6Zm11.285.571L51.3,35.1a1.752,1.752,0,0,0-1.793.879V42H46.546V32.49h2.777l.1,1.222a2.294,2.294,0,0,1,2.083-1.4,2.888,2.888,0,0,1,.826.105Zm5.019,3.3,1.5-5.985h3.12L58.815,42H55.792l-3.1-9.51h3.129ZM65.926,42H62.955V32.49h2.971ZM62.779,30.038A1.322,1.322,0,0,1,63.236,29a1.943,1.943,0,0,1,2.373,0,1.405,1.405,0,0,1,0,2.074,1.943,1.943,0,0,1-2.373,0A1.322,1.322,0,0,1,62.779,30.038Zm8.991,9.853a1.317,1.317,0,0,0,.967-.338,1.241,1.241,0,0,0,.334-.945h2.777a3.288,3.288,0,0,1-1.121,2.566,4.168,4.168,0,0,1-2.887,1,4.22,4.22,0,0,1-3.27-1.3,5.125,5.125,0,0,1-1.2-3.6v-.123a5.792,5.792,0,0,1,.532-2.544,3.872,3.872,0,0,1,1.534-1.7,4.573,4.573,0,0,1,2.373-.593,4.116,4.116,0,0,1,2.944,1.028,3.647,3.647,0,0,1,1.09,2.786H73.071A1.626,1.626,0,0,0,72.711,35a1.244,1.244,0,0,0-.967-.4q-1.151,0-1.345,1.468a10.357,10.357,0,0,0-.062,1.283,4.068,4.068,0,0,0,.343,1.986A1.187,1.187,0,0,0,71.771,39.891ZM80.226,42H77.255V32.49h2.971ZM77.079,30.038A1.322,1.322,0,0,1,77.536,29a1.943,1.943,0,0,1,2.373,0,1.405,1.405,0,0,1,0,2.074,1.943,1.943,0,0,1-2.373,0A1.322,1.322,0,0,1,77.079,30.038Zm4.6,7.119a5.613,5.613,0,0,1,.554-2.536,3.96,3.96,0,0,1,1.591-1.709,4.791,4.791,0,0,1,2.435-.6,4.373,4.373,0,0,1,3.366,1.323,5.076,5.076,0,0,1,1.23,3.6v.105a4.925,4.925,0,0,1-1.235,3.529,4.384,4.384,0,0,1-3.344,1.305,4.434,4.434,0,0,1-3.261-1.217,4.761,4.761,0,0,1-1.327-3.3Zm2.962.185a3.538,3.538,0,0,0,.413,1.934,1.376,1.376,0,0,0,1.222.615q1.582,0,1.617-2.435v-.3q0-2.558-1.635-2.558-1.485,0-1.608,2.206Z" transform="translate(600 2308)" fill="#12263f"/>
    <path id="Trazado_609470" data-name="Trazado 609470" d="M34.509,11.568H29.658v3.059h5.73V17H26.573V4.2h8.833V6.585H29.658v2.7h4.852ZM39.695,7.49v9.835a3.452,3.452,0,0,1-.967,2.6,3.714,3.714,0,0,1-2.672.914,6.308,6.308,0,0,1-1.4-.149V18.45a5.667,5.667,0,0,0,.835.079,1.084,1.084,0,0,0,1.23-1.222V7.49ZM36.5,5.038A1.322,1.322,0,0,1,36.961,4a1.943,1.943,0,0,1,2.373,0,1.322,1.322,0,0,1,.457,1.037,1.322,1.322,0,0,1-.457,1.037,1.943,1.943,0,0,1-2.373,0A1.322,1.322,0,0,1,36.5,5.038ZM45.97,17.176a4.889,4.889,0,0,1-3.542-1.305,4.507,4.507,0,0,1-1.354-3.4v-.246a5.84,5.84,0,0,1,.541-2.575,3.955,3.955,0,0,1,1.578-1.727,4.763,4.763,0,0,1,2.461-.611,4.117,4.117,0,0,1,3.164,1.244,4.887,4.887,0,0,1,1.16,3.467v1.151H44.089a2.135,2.135,0,0,0,.694,1.257,2.066,2.066,0,0,0,1.389.457,2.662,2.662,0,0,0,2.2-.984l1.354,1.6a3.784,3.784,0,0,1-1.569,1.217A5.3,5.3,0,0,1,45.97,17.176ZM45.636,9.6q-1.3,0-1.547,1.723h2.988v-.229a1.467,1.467,0,0,0-.36-1.1A1.434,1.434,0,0,0,45.636,9.6Zm9.554,5.291a1.317,1.317,0,0,0,.967-.338,1.241,1.241,0,0,0,.334-.945h2.777a3.288,3.288,0,0,1-1.121,2.566,4.168,4.168,0,0,1-2.887,1,4.22,4.22,0,0,1-3.27-1.3,5.125,5.125,0,0,1-1.2-3.6v-.123A5.792,5.792,0,0,1,51.327,9.6a3.872,3.872,0,0,1,1.534-1.7,4.573,4.573,0,0,1,2.373-.593,4.116,4.116,0,0,1,2.944,1.028,3.647,3.647,0,0,1,1.09,2.786H56.491A1.626,1.626,0,0,0,56.13,10a1.244,1.244,0,0,0-.967-.4q-1.151,0-1.345,1.468a10.357,10.357,0,0,0-.062,1.283,4.068,4.068,0,0,0,.343,1.986A1.187,1.187,0,0,0,55.19,14.891Zm11,1.081a3.054,3.054,0,0,1-2.54,1.2,3,3,0,0,1-2.369-.91,3.826,3.826,0,0,1-.8-2.615V7.49h2.962v6.179a1.065,1.065,0,0,0,1.187,1.222,1.548,1.548,0,0,0,1.45-.729V7.49H69.05V17H66.273ZM74.122,5.126V7.49h1.564V9.547H74.122V13.9a1.111,1.111,0,0,0,.193.747,1.037,1.037,0,0,0,.765.211,4.345,4.345,0,0,0,.738-.053v2.118a5.466,5.466,0,0,1-1.67.255,3.1,3.1,0,0,1-2.259-.721,2.954,2.954,0,0,1-.729-2.188V9.547H69.947V7.49H71.16V5.126ZM82.208,17a3.344,3.344,0,0,1-.281-.853,2.754,2.754,0,0,1-2.285,1.028,3.374,3.374,0,0,1-2.285-.813,2.588,2.588,0,0,1-.94-2.043,2.66,2.66,0,0,1,1.143-2.338,5.821,5.821,0,0,1,3.322-.791h.914v-.5q0-1.316-1.134-1.316a.927.927,0,0,0-1.055,1.042H76.644a2.655,2.655,0,0,1,1.173-2.239,4.931,4.931,0,0,1,2.993-.86,4.323,4.323,0,0,1,2.874.888,3.086,3.086,0,0,1,1.081,2.435v4.21a4.311,4.311,0,0,0,.4,2V17Zm-1.854-1.934a1.652,1.652,0,0,0,.918-.237,1.487,1.487,0,0,0,.523-.536V12.772h-.861q-1.547,0-1.547,1.389a.848.848,0,0,0,.272.655A.986.986,0,0,0,80.353,15.066Zm11.8-4.9-.976-.07a1.752,1.752,0,0,0-1.793.879V17H86.426V7.49H89.2l.1,1.222a2.294,2.294,0,0,1,2.083-1.4,2.888,2.888,0,0,1,.826.105ZM37.8,30.126V32.49h1.564v2.057H37.8V38.9a1.111,1.111,0,0,0,.193.747,1.037,1.037,0,0,0,.765.211A4.345,4.345,0,0,0,39.5,39.8v2.118a5.466,5.466,0,0,1-1.67.255,3.1,3.1,0,0,1-2.259-.721,2.954,2.954,0,0,1-.729-2.188v-4.72H33.626V32.49h1.213V30.126ZM45.887,42a3.344,3.344,0,0,1-.281-.853,2.754,2.754,0,0,1-2.285,1.028,3.374,3.374,0,0,1-2.285-.813,2.588,2.588,0,0,1-.94-2.043,2.66,2.66,0,0,1,1.143-2.338,5.821,5.821,0,0,1,3.322-.791h.914v-.5q0-1.316-1.134-1.316a.927.927,0,0,0-1.055,1.042H40.323A2.655,2.655,0,0,1,41.5,33.175a4.931,4.931,0,0,1,2.993-.86,4.323,4.323,0,0,1,2.874.888,3.086,3.086,0,0,1,1.081,2.435v4.21a4.311,4.311,0,0,0,.4,2V42Zm-1.854-1.934a1.652,1.652,0,0,0,.918-.237,1.487,1.487,0,0,0,.523-.536V37.772h-.861q-1.547,0-1.547,1.389a.848.848,0,0,0,.272.655A.986.986,0,0,0,44.032,40.066Zm11.8-4.9-.976-.07a1.752,1.752,0,0,0-1.793.879V42H50.105V32.49h2.777l.1,1.222a2.294,2.294,0,0,1,2.083-1.4,2.888,2.888,0,0,1,.826.105Zm5.5,7A4.889,4.889,0,0,1,57.8,40.871a4.507,4.507,0,0,1-1.354-3.4v-.246a5.84,5.84,0,0,1,.541-2.575,3.955,3.955,0,0,1,1.578-1.727,4.763,4.763,0,0,1,2.461-.611,4.117,4.117,0,0,1,3.164,1.244,4.887,4.887,0,0,1,1.16,3.467v1.151H59.457a2.135,2.135,0,0,0,.694,1.257,2.066,2.066,0,0,0,1.389.457,2.662,2.662,0,0,0,2.2-.984l1.354,1.6a3.784,3.784,0,0,1-1.569,1.217A5.3,5.3,0,0,1,61.338,42.176ZM61,34.6q-1.3,0-1.547,1.723h2.988v-.229a1.467,1.467,0,0,0-.36-1.1A1.434,1.434,0,0,0,61,34.6ZM71.894,42a3.344,3.344,0,0,1-.281-.853,2.754,2.754,0,0,1-2.285,1.028,3.374,3.374,0,0,1-2.285-.813,2.588,2.588,0,0,1-.94-2.043,2.66,2.66,0,0,1,1.143-2.338,5.821,5.821,0,0,1,3.322-.791h.914v-.5q0-1.316-1.134-1.316a.927.927,0,0,0-1.055,1.042H66.33A2.655,2.655,0,0,1,67.5,33.175a4.931,4.931,0,0,1,2.993-.86,4.323,4.323,0,0,1,2.874.888,3.086,3.086,0,0,1,1.081,2.435v4.21a4.311,4.311,0,0,0,.4,2V42Zm-1.854-1.934a1.652,1.652,0,0,0,.918-.237,1.487,1.487,0,0,0,.523-.536V37.772h-.861q-1.547,0-1.547,1.389a.848.848,0,0,0,.272.655A.986.986,0,0,0,70.039,40.066Zm11.03-.738a.684.684,0,0,0-.4-.606,6.016,6.016,0,0,0-1.5-.475,6.853,6.853,0,0,1-1.828-.646,3.062,3.062,0,0,1-1.1-.971,2.319,2.319,0,0,1-.378-1.31,2.628,2.628,0,0,1,1.081-2.158,4.453,4.453,0,0,1,2.83-.848,4.934,4.934,0,0,1,3.023.853,2.666,2.666,0,0,1,1.143,2.241H80.973q0-1.143-1.2-1.143a1.194,1.194,0,0,0-.782.259.8.8,0,0,0-.316.646.737.737,0,0,0,.387.642,3.654,3.654,0,0,0,1.235.4,10.671,10.671,0,0,1,1.49.378,2.706,2.706,0,0,1,2.145,2.646,2.491,2.491,0,0,1-1.156,2.118,5.068,5.068,0,0,1-2.993.817,5.172,5.172,0,0,1-2.18-.439,3.645,3.645,0,0,1-1.494-1.2,2.707,2.707,0,0,1-.536-1.591h2.769a1.145,1.145,0,0,0,.439.962,1.808,1.808,0,0,0,1.081.3,1.422,1.422,0,0,0,.91-.246A.787.787,0,0,0,81.069,39.328Z" transform="translate(834 2308)" fill="#12263f"/>
    <path id="Trazado_609471" data-name="Trazado 609471" d="M19.471,14.609H15.244L14.505,17h-3.3L15.9,4.2h2.9L23.532,17H20.218Zm-3.489-2.382h2.751l-1.38-4.438Zm16.752.088a5.735,5.735,0,0,1-1,3.538,3.2,3.2,0,0,1-2.694,1.323,2.742,2.742,0,0,1-2.153-.958v4.438H23.927V7.49H26.7l.088.879a2.742,2.742,0,0,1,2.241-1.055,3.224,3.224,0,0,1,2.733,1.3,5.805,5.805,0,0,1,.976,3.564Zm-2.962-.185Q29.772,9.6,28.3,9.6a1.394,1.394,0,0,0-1.406.756V14.1a1.439,1.439,0,0,0,1.424.791q1.415,0,1.459-2.443ZM37.164,17H34.193V3.5h2.971Zm4.948,0H39.141V7.49h2.971ZM38.965,5.038A1.322,1.322,0,0,1,39.422,4,1.943,1.943,0,0,1,41.8,4a1.322,1.322,0,0,1,.457,1.037A1.322,1.322,0,0,1,41.8,6.075a1.943,1.943,0,0,1-2.373,0A1.322,1.322,0,0,1,38.965,5.038Zm8.991,9.853a1.317,1.317,0,0,0,.967-.338,1.241,1.241,0,0,0,.334-.945h2.777a3.288,3.288,0,0,1-1.121,2.566,4.168,4.168,0,0,1-2.887,1,4.22,4.22,0,0,1-3.27-1.3,5.125,5.125,0,0,1-1.2-3.6v-.123A5.792,5.792,0,0,1,44.094,9.6a3.872,3.872,0,0,1,1.534-1.7A4.573,4.573,0,0,1,48,7.314a4.116,4.116,0,0,1,2.944,1.028,3.647,3.647,0,0,1,1.09,2.786H49.257A1.626,1.626,0,0,0,48.9,10a1.244,1.244,0,0,0-.967-.4q-1.151,0-1.345,1.468a10.357,10.357,0,0,0-.062,1.283,4.068,4.068,0,0,0,.343,1.986A1.187,1.187,0,0,0,47.957,14.891ZM58.644,17a3.344,3.344,0,0,1-.281-.853,2.754,2.754,0,0,1-2.285,1.028,3.374,3.374,0,0,1-2.285-.813,2.588,2.588,0,0,1-.94-2.043,2.66,2.66,0,0,1,1.143-2.338,5.821,5.821,0,0,1,3.322-.791h.914v-.5q0-1.316-1.134-1.316a.927.927,0,0,0-1.055,1.042H53.081a2.655,2.655,0,0,1,1.173-2.239,4.931,4.931,0,0,1,2.993-.86,4.323,4.323,0,0,1,2.874.888A3.086,3.086,0,0,1,61.2,10.637v4.21a4.311,4.311,0,0,0,.4,2V17ZM56.79,15.066a1.652,1.652,0,0,0,.918-.237,1.487,1.487,0,0,0,.523-.536V12.772H57.37q-1.547,0-1.547,1.389a.848.848,0,0,0,.272.655A.986.986,0,0,0,56.79,15.066Zm11.8-4.9-.976-.07a1.752,1.752,0,0,0-1.793.879V17H62.863V7.49H65.64l.1,1.222a2.294,2.294,0,0,1,2.083-1.4,2.888,2.888,0,0,1,.826.105ZM80.88,13.6a1.268,1.268,0,0,0-.479-1.055,5.954,5.954,0,0,0-1.683-.782,16.147,16.147,0,0,1-1.969-.782q-2.487-1.222-2.487-3.357a3.011,3.011,0,0,1,.62-1.876A4.008,4.008,0,0,1,76.635,4.48a6.823,6.823,0,0,1,2.549-.453,5.969,5.969,0,0,1,2.474.492,3.917,3.917,0,0,1,1.7,1.4A3.661,3.661,0,0,1,83.965,8H80.889a1.547,1.547,0,0,0-.479-1.213,1.867,1.867,0,0,0-1.3-.431,2.106,2.106,0,0,0-1.305.365,1.074,1.074,0,0,0,.048,1.819,6.65,6.65,0,0,0,1.854.826,11.36,11.36,0,0,1,2.18.918,3.663,3.663,0,0,1,2.074,3.3A3.125,3.125,0,0,1,82.7,16.218a5.629,5.629,0,0,1-3.472.958,6.888,6.888,0,0,1-2.817-.558,4.247,4.247,0,0,1-1.9-1.529,3.985,3.985,0,0,1-.637-2.237h3.094a1.963,1.963,0,0,0,.532,1.516,2.513,2.513,0,0,0,1.727.488,1.985,1.985,0,0,0,1.208-.33A1.088,1.088,0,0,0,80.88,13.6Zm7.752,1.028H94V17H85.547V4.2h3.085Zm14.106-.018H98.511L97.773,17h-3.3L99.17,4.2h2.9L106.8,17h-3.313ZM99.25,12.228H102l-1.38-4.438Z" transform="translate(1068 2308)" fill="#12263f"/>
    <path id="Trazado_609472" data-name="Trazado 609472" d="M40.737,12.474h-1.67V17H35.982V4.2h5.036a5.621,5.621,0,0,1,3.56,1.01,3.421,3.421,0,0,1,1.283,2.853,4.155,4.155,0,0,1-.541,2.213A3.837,3.837,0,0,1,43.629,11.7L46.3,16.868V17H43ZM39.067,10.1h1.951a1.751,1.751,0,0,0,1.323-.463,1.788,1.788,0,0,0,.444-1.291,1.809,1.809,0,0,0-.448-1.3,1.735,1.735,0,0,0-1.318-.471H39.067Zm13.122,7.075a4.889,4.889,0,0,1-3.542-1.305,4.507,4.507,0,0,1-1.354-3.4v-.246a5.84,5.84,0,0,1,.541-2.575,3.955,3.955,0,0,1,1.578-1.727,4.763,4.763,0,0,1,2.461-.611,4.117,4.117,0,0,1,3.164,1.244,4.887,4.887,0,0,1,1.16,3.467v1.151H50.309A2.135,2.135,0,0,0,51,14.434a2.066,2.066,0,0,0,1.389.457,2.662,2.662,0,0,0,2.2-.984l1.354,1.6a3.784,3.784,0,0,1-1.569,1.217A5.3,5.3,0,0,1,52.189,17.176ZM51.855,9.6q-1.3,0-1.547,1.723H53.3v-.229a1.467,1.467,0,0,0-.36-1.1A1.434,1.434,0,0,0,51.855,9.6ZM62.745,17a3.344,3.344,0,0,1-.281-.853,2.754,2.754,0,0,1-2.285,1.028,3.374,3.374,0,0,1-2.285-.813,2.588,2.588,0,0,1-.94-2.043A2.66,2.66,0,0,1,58.1,11.981a5.821,5.821,0,0,1,3.322-.791h.914v-.5q0-1.316-1.134-1.316a.927.927,0,0,0-1.055,1.042H57.182a2.655,2.655,0,0,1,1.173-2.239,4.931,4.931,0,0,1,2.993-.86,4.323,4.323,0,0,1,2.874.888A3.086,3.086,0,0,1,65.3,10.637v4.21a4.311,4.311,0,0,0,.4,2V17Zm-1.854-1.934a1.652,1.652,0,0,0,.918-.237,1.487,1.487,0,0,0,.523-.536V12.772h-.861q-1.547,0-1.547,1.389a.848.848,0,0,0,.272.655A.986.986,0,0,0,60.891,15.066ZM70.066,17H67.1V3.5h2.971Zm4.948,0H72.044V7.49h2.971ZM71.868,5.038A1.322,1.322,0,0,1,72.325,4,1.943,1.943,0,0,1,74.7,4a1.322,1.322,0,0,1,.457,1.037A1.322,1.322,0,0,1,74.7,6.075a1.943,1.943,0,0,1-2.373,0A1.322,1.322,0,0,1,71.868,5.038Zm8.464,9.677h4.333V17H76.588V15.348l4.219-5.572H76.772V7.49h7.8v1.6ZM91.459,17a3.344,3.344,0,0,1-.281-.853,2.754,2.754,0,0,1-2.285,1.028,3.374,3.374,0,0,1-2.285-.813,2.588,2.588,0,0,1-.94-2.043,2.66,2.66,0,0,1,1.143-2.338,5.821,5.821,0,0,1,3.322-.791h.914v-.5q0-1.316-1.134-1.316a.927.927,0,0,0-1.055,1.042H85.9a2.655,2.655,0,0,1,1.173-2.239,4.931,4.931,0,0,1,2.993-.86,4.323,4.323,0,0,1,2.874.888,3.086,3.086,0,0,1,1.081,2.435v4.21a4.311,4.311,0,0,0,.4,2V17ZM89.6,15.066a1.652,1.652,0,0,0,.918-.237,1.487,1.487,0,0,0,.523-.536V12.772h-.861q-1.547,0-1.547,1.389a.848.848,0,0,0,.272.655A.986.986,0,0,0,89.6,15.066Zm11.8-4.9-.976-.07a1.752,1.752,0,0,0-1.793.879V17H95.678V7.49h2.777l.1,1.222a2.294,2.294,0,0,1,2.083-1.4,2.888,2.888,0,0,1,.826.105Zm11.215,5.8a3.054,3.054,0,0,1-2.54,1.2,3,3,0,0,1-2.369-.91,3.826,3.826,0,0,1-.8-2.615V7.49h2.962v6.179a1.065,1.065,0,0,0,1.187,1.222,1.548,1.548,0,0,0,1.45-.729V7.49h2.979V17h-2.777ZM119.83,7.49l.1,1.116a3.225,3.225,0,0,1,2.716-1.292,2.713,2.713,0,0,1,2.219.888,4.226,4.226,0,0,1,.76,2.672V17h-2.971V11a1.6,1.6,0,0,0-.29-1.059,1.342,1.342,0,0,0-1.055-.338,1.413,1.413,0,0,0-1.292.686V17h-2.962V7.49ZM132.618,17a3.344,3.344,0,0,1-.281-.853,2.754,2.754,0,0,1-2.285,1.028,3.374,3.374,0,0,1-2.285-.813,2.588,2.588,0,0,1-.94-2.043,2.66,2.66,0,0,1,1.143-2.338,5.821,5.821,0,0,1,3.322-.791h.914v-.5q0-1.316-1.134-1.316a.927.927,0,0,0-1.055,1.042h-2.962a2.655,2.655,0,0,1,1.173-2.239,4.931,4.931,0,0,1,2.993-.86,4.323,4.323,0,0,1,2.874.888,3.086,3.086,0,0,1,1.081,2.435v4.21a4.311,4.311,0,0,0,.4,2V17Zm-1.854-1.934a1.652,1.652,0,0,0,.918-.237,1.487,1.487,0,0,0,.523-.536V12.772h-.861q-1.547,0-1.547,1.389a.848.848,0,0,0,.272.655A.986.986,0,0,0,130.764,15.066ZM9.549,39.328a.684.684,0,0,0-.4-.606,6.016,6.016,0,0,0-1.5-.475A6.853,6.853,0,0,1,5.823,37.6a3.062,3.062,0,0,1-1.1-.971,2.319,2.319,0,0,1-.378-1.31,2.628,2.628,0,0,1,1.081-2.158,4.453,4.453,0,0,1,2.83-.848,4.934,4.934,0,0,1,3.023.853,2.666,2.666,0,0,1,1.143,2.241H9.453q0-1.143-1.2-1.143a1.194,1.194,0,0,0-.782.259.8.8,0,0,0-.316.646.737.737,0,0,0,.387.642,3.654,3.654,0,0,0,1.235.4,10.671,10.671,0,0,1,1.49.378,2.706,2.706,0,0,1,2.145,2.646,2.491,2.491,0,0,1-1.156,2.118,5.068,5.068,0,0,1-2.993.817,5.172,5.172,0,0,1-2.18-.439,3.645,3.645,0,0,1-1.494-1.2,2.707,2.707,0,0,1-.536-1.591H6.816a1.145,1.145,0,0,0,.439.962,1.808,1.808,0,0,0,1.081.3,1.422,1.422,0,0,0,.91-.246A.787.787,0,0,0,9.549,39.328Zm3.867-2.171a5.613,5.613,0,0,1,.554-2.536,3.96,3.96,0,0,1,1.591-1.709,4.791,4.791,0,0,1,2.435-.6,4.373,4.373,0,0,1,3.366,1.323,5.076,5.076,0,0,1,1.23,3.6v.105a4.925,4.925,0,0,1-1.235,3.529,4.384,4.384,0,0,1-3.344,1.305,4.434,4.434,0,0,1-3.261-1.217,4.761,4.761,0,0,1-1.327-3.3Zm2.962.185a3.538,3.538,0,0,0,.413,1.934,1.376,1.376,0,0,0,1.222.615q1.582,0,1.617-2.435v-.3Q19.63,34.6,18,34.6q-1.485,0-1.608,2.206ZM27.022,42H24.051V28.5h2.971Zm4.948,0H29V32.49H31.97ZM28.824,30.038A1.322,1.322,0,0,1,29.281,29a1.943,1.943,0,0,1,2.373,0,1.405,1.405,0,0,1,0,2.074,1.943,1.943,0,0,1-2.373,0A1.322,1.322,0,0,1,28.824,30.038Zm8.991,9.853a1.317,1.317,0,0,0,.967-.338,1.241,1.241,0,0,0,.334-.945h2.777a3.288,3.288,0,0,1-1.121,2.566,4.168,4.168,0,0,1-2.887,1,4.22,4.22,0,0,1-3.27-1.3,5.125,5.125,0,0,1-1.2-3.6v-.123a5.792,5.792,0,0,1,.532-2.544,3.872,3.872,0,0,1,1.534-1.7,4.573,4.573,0,0,1,2.373-.593A4.116,4.116,0,0,1,40.8,33.343a3.647,3.647,0,0,1,1.09,2.786H39.116A1.626,1.626,0,0,0,38.755,35a1.244,1.244,0,0,0-.967-.4q-1.151,0-1.345,1.468a10.357,10.357,0,0,0-.062,1.283,4.068,4.068,0,0,0,.343,1.986A1.187,1.187,0,0,0,37.815,39.891ZM46.27,42H43.3V32.49H46.27ZM43.124,30.038A1.322,1.322,0,0,1,43.581,29a1.943,1.943,0,0,1,2.373,0,1.405,1.405,0,0,1,0,2.074,1.943,1.943,0,0,1-2.373,0A1.322,1.322,0,0,1,43.124,30.038Zm8.42.088V32.49h1.564v2.057H51.543V38.9a1.111,1.111,0,0,0,.193.747,1.037,1.037,0,0,0,.765.211,4.345,4.345,0,0,0,.738-.053v2.118a5.466,5.466,0,0,1-1.67.255,3.1,3.1,0,0,1-2.259-.721,2.954,2.954,0,0,1-.729-2.188v-4.72H47.369V32.49h1.213V30.126Zm8.394,10.846a3.054,3.054,0,0,1-2.54,1.2,3,3,0,0,1-2.369-.91,3.826,3.826,0,0,1-.8-2.615V32.49h2.962v6.179a1.065,1.065,0,0,0,1.187,1.222,1.548,1.548,0,0,0,1.45-.729V32.49H62.8V42H60.025Zm4.113-3.8a5.809,5.809,0,0,1,.976-3.56,3.211,3.211,0,0,1,2.725-1.3,2.731,2.731,0,0,1,2.145,1V28.5h2.971V42H70.2l-.149-1.02a2.8,2.8,0,0,1-2.32,1.2,3.205,3.205,0,0,1-2.689-1.3A5.993,5.993,0,0,1,64.05,37.175Zm2.962.185q0,2.531,1.477,2.531a1.458,1.458,0,0,0,1.406-.826V35.443a1.419,1.419,0,0,0-1.389-.844q-1.371,0-1.485,2.215Zm11.646-.185a5.809,5.809,0,0,1,.976-3.56,3.211,3.211,0,0,1,2.725-1.3,2.731,2.731,0,0,1,2.145,1V28.5h2.971V42H84.81l-.149-1.02a2.8,2.8,0,0,1-2.32,1.2,3.205,3.205,0,0,1-2.689-1.3A5.993,5.993,0,0,1,78.658,37.175Zm2.962.185q0,2.531,1.477,2.531a1.458,1.458,0,0,0,1.406-.826V35.443a1.419,1.419,0,0,0-1.389-.844q-1.371,0-1.485,2.215Zm12.138,4.816a4.889,4.889,0,0,1-3.542-1.305,4.507,4.507,0,0,1-1.354-3.4v-.246a5.84,5.84,0,0,1,.541-2.575,3.955,3.955,0,0,1,1.578-1.727,4.763,4.763,0,0,1,2.461-.611A4.117,4.117,0,0,1,96.6,33.558a4.887,4.887,0,0,1,1.16,3.467v1.151H91.876a2.135,2.135,0,0,0,.694,1.257,2.066,2.066,0,0,0,1.389.457,2.662,2.662,0,0,0,2.2-.984l1.354,1.6a3.784,3.784,0,0,1-1.569,1.217A5.3,5.3,0,0,1,93.757,42.176ZM93.423,34.6q-1.3,0-1.547,1.723h2.988v-.229a1.467,1.467,0,0,0-.36-1.1A1.434,1.434,0,0,0,93.423,34.6Zm14.994,4.729a.684.684,0,0,0-.4-.606,6.016,6.016,0,0,0-1.5-.475,6.853,6.853,0,0,1-1.828-.646,3.062,3.062,0,0,1-1.1-.971,2.319,2.319,0,0,1-.378-1.31,2.628,2.628,0,0,1,1.081-2.158,4.453,4.453,0,0,1,2.83-.848,4.934,4.934,0,0,1,3.023.853,2.666,2.666,0,0,1,1.143,2.241h-2.971q0-1.143-1.2-1.143a1.194,1.194,0,0,0-.782.259.8.8,0,0,0-.316.646.737.737,0,0,0,.387.642,3.654,3.654,0,0,0,1.235.4,10.671,10.671,0,0,1,1.49.378,2.706,2.706,0,0,1,2.145,2.646,2.491,2.491,0,0,1-1.156,2.118,5.068,5.068,0,0,1-2.993.817,5.172,5.172,0,0,1-2.18-.439,3.645,3.645,0,0,1-1.494-1.2,2.707,2.707,0,0,1-.536-1.591h2.769a1.145,1.145,0,0,0,.439.962,1.808,1.808,0,0,0,1.081.3,1.422,1.422,0,0,0,.91-.246A.787.787,0,0,0,108.417,39.328Zm8.842,2.848a4.889,4.889,0,0,1-3.542-1.305,4.507,4.507,0,0,1-1.354-3.4v-.246a5.84,5.84,0,0,1,.541-2.575,3.955,3.955,0,0,1,1.578-1.727,4.763,4.763,0,0,1,2.461-.611,4.117,4.117,0,0,1,3.164,1.244,4.887,4.887,0,0,1,1.16,3.467v1.151h-5.889a2.135,2.135,0,0,0,.694,1.257,2.066,2.066,0,0,0,1.389.457,2.662,2.662,0,0,0,2.2-.984l1.354,1.6a3.784,3.784,0,0,1-1.569,1.217A5.3,5.3,0,0,1,117.259,42.176Zm-.334-7.576q-1.3,0-1.547,1.723h2.988v-.229a1.467,1.467,0,0,0-.36-1.1A1.434,1.434,0,0,0,116.925,34.6Zm11.285.571-.976-.07a1.752,1.752,0,0,0-1.793.879V42H122.48V32.49h2.777l.1,1.222a2.294,2.294,0,0,1,2.083-1.4,2.888,2.888,0,0,1,.826.105Zm5.019,3.3,1.5-5.985h3.12L134.75,42h-3.023l-3.1-9.51h3.129ZM141.86,42h-2.971V32.49h2.971Zm-3.146-11.962A1.322,1.322,0,0,1,139.17,29a1.943,1.943,0,0,1,2.373,0,1.405,1.405,0,0,1,0,2.074,1.943,1.943,0,0,1-2.373,0A1.322,1.322,0,0,1,138.713,30.038Zm8.991,9.853a1.317,1.317,0,0,0,.967-.338,1.241,1.241,0,0,0,.334-.945h2.777a3.288,3.288,0,0,1-1.121,2.566,4.168,4.168,0,0,1-2.887,1,4.22,4.22,0,0,1-3.27-1.3,5.125,5.125,0,0,1-1.2-3.6v-.123a5.792,5.792,0,0,1,.532-2.544,3.872,3.872,0,0,1,1.534-1.7,4.573,4.573,0,0,1,2.373-.593,4.116,4.116,0,0,1,2.944,1.028,3.647,3.647,0,0,1,1.09,2.786h-2.777a1.626,1.626,0,0,0-.36-1.134,1.244,1.244,0,0,0-.967-.4q-1.151,0-1.345,1.468a10.357,10.357,0,0,0-.062,1.283,4.068,4.068,0,0,0,.343,1.986A1.187,1.187,0,0,0,147.7,39.891ZM156.16,42h-2.971V32.49h2.971Zm-3.146-11.962A1.322,1.322,0,0,1,153.47,29a1.943,1.943,0,0,1,2.373,0,1.405,1.405,0,0,1,0,2.074,1.943,1.943,0,0,1-2.373,0A1.322,1.322,0,0,1,153.013,30.038Zm4.6,7.119a5.613,5.613,0,0,1,.554-2.536,3.96,3.96,0,0,1,1.591-1.709,4.791,4.791,0,0,1,2.435-.6,4.373,4.373,0,0,1,3.366,1.323,5.076,5.076,0,0,1,1.23,3.6v.105a4.925,4.925,0,0,1-1.235,3.529,4.384,4.384,0,0,1-3.344,1.305,4.434,4.434,0,0,1-3.261-1.217,4.761,4.761,0,0,1-1.327-3.3Zm2.962.185a3.538,3.538,0,0,0,.413,1.934,1.376,1.376,0,0,0,1.222.615q1.582,0,1.617-2.435v-.3q0-2.558-1.635-2.558-1.485,0-1.608,2.206Z" transform="translate(575 2036)" fill="#12263f"/>
    <path id="Trazado_609473" data-name="Trazado 609473" d="M48.841,11.568H43.989v3.059h5.73V17H40.9V4.2h8.833V6.585H43.989v2.7h4.852Zm4.72-4.078.1,1.116a3.225,3.225,0,0,1,2.716-1.292,2.713,2.713,0,0,1,2.219.888,4.226,4.226,0,0,1,.76,2.672V17H56.382V11a1.6,1.6,0,0,0-.29-1.059A1.342,1.342,0,0,0,55.037,9.6a1.413,1.413,0,0,0-1.292.686V17H50.783V7.49Zm11.224,5.985,1.5-5.985h3.12L66.3,17H63.281l-3.1-9.51h3.129ZM73.415,17H70.444V7.49h2.971ZM70.269,5.038A1.322,1.322,0,0,1,70.726,4,1.943,1.943,0,0,1,73.1,4a1.322,1.322,0,0,1,.457,1.037A1.322,1.322,0,0,1,73.1,6.075a1.943,1.943,0,0,1-2.373,0A1.322,1.322,0,0,1,70.269,5.038ZM80.6,17a3.344,3.344,0,0,1-.281-.853,2.754,2.754,0,0,1-2.285,1.028,3.374,3.374,0,0,1-2.285-.813,2.588,2.588,0,0,1-.94-2.043,2.66,2.66,0,0,1,1.143-2.338,5.821,5.821,0,0,1,3.322-.791h.914v-.5q0-1.316-1.134-1.316a.927.927,0,0,0-1.055,1.042H75.032a2.655,2.655,0,0,1,1.173-2.239,4.931,4.931,0,0,1,2.993-.86,4.323,4.323,0,0,1,2.874.888,3.086,3.086,0,0,1,1.081,2.435v4.21a4.311,4.311,0,0,0,.4,2V17Zm-1.854-1.934a1.652,1.652,0,0,0,.918-.237,1.487,1.487,0,0,0,.523-.536V12.772h-.861q-1.547,0-1.547,1.389a.848.848,0,0,0,.272.655A.986.986,0,0,0,78.741,15.066Zm11.8-4.9-.976-.07a1.752,1.752,0,0,0-1.793.879V17H84.814V7.49h2.777l.1,1.222a2.294,2.294,0,0,1,2.083-1.4,2.888,2.888,0,0,1,.826.105Zm14.379,2.145a5.735,5.735,0,0,1-1,3.538,3.2,3.2,0,0,1-2.694,1.323,2.742,2.742,0,0,1-2.153-.958v4.438H96.117V7.49h2.769l.088.879a2.742,2.742,0,0,1,2.241-1.055,3.224,3.224,0,0,1,2.733,1.3,5.805,5.805,0,0,1,.976,3.564Zm-2.962-.185q0-2.531-1.477-2.531a1.394,1.394,0,0,0-1.406.756V14.1a1.439,1.439,0,0,0,1.424.791q1.415,0,1.459-2.443ZM111.586,17a3.344,3.344,0,0,1-.281-.853,2.754,2.754,0,0,1-2.285,1.028,3.374,3.374,0,0,1-2.285-.813,2.588,2.588,0,0,1-.94-2.043,2.66,2.66,0,0,1,1.143-2.338,5.821,5.821,0,0,1,3.322-.791h.914v-.5q0-1.316-1.134-1.316a.927.927,0,0,0-1.055,1.042h-2.962A2.655,2.655,0,0,1,107.2,8.175a4.931,4.931,0,0,1,2.993-.86,4.323,4.323,0,0,1,2.874.888,3.086,3.086,0,0,1,1.081,2.435v4.21a4.311,4.311,0,0,0,.4,2V17Zm-1.854-1.934a1.652,1.652,0,0,0,.918-.237,1.487,1.487,0,0,0,.523-.536V12.772h-.861q-1.547,0-1.547,1.389a.848.848,0,0,0,.272.655A.986.986,0,0,0,109.731,15.066Zm11.8-4.9-.976-.07a1.752,1.752,0,0,0-1.793.879V17H115.8V7.49h2.777l.1,1.222a2.294,2.294,0,0,1,2.083-1.4,2.888,2.888,0,0,1,.826.105ZM127.7,17a3.344,3.344,0,0,1-.281-.853,2.754,2.754,0,0,1-2.285,1.028,3.374,3.374,0,0,1-2.285-.813,2.588,2.588,0,0,1-.94-2.043,2.66,2.66,0,0,1,1.143-2.338,5.821,5.821,0,0,1,3.322-.791h.914v-.5q0-1.316-1.134-1.316a.927.927,0,0,0-1.055,1.042h-2.962a2.655,2.655,0,0,1,1.173-2.239,4.931,4.931,0,0,1,2.993-.86,4.323,4.323,0,0,1,2.874.888,3.086,3.086,0,0,1,1.081,2.435v4.21a4.311,4.311,0,0,0,.4,2V17Zm-1.854-1.934a1.652,1.652,0,0,0,.918-.237,1.487,1.487,0,0,0,.523-.536V12.772h-.861q-1.547,0-1.547,1.389a.848.848,0,0,0,.272.655A.986.986,0,0,0,125.842,15.066ZM46.415,42a3.344,3.344,0,0,1-.281-.853,2.754,2.754,0,0,1-2.285,1.028,3.374,3.374,0,0,1-2.285-.813,2.588,2.588,0,0,1-.94-2.043,2.66,2.66,0,0,1,1.143-2.338,5.821,5.821,0,0,1,3.322-.791H46v-.5q0-1.316-1.134-1.316a.927.927,0,0,0-1.055,1.042H40.852a2.655,2.655,0,0,1,1.173-2.239,4.931,4.931,0,0,1,2.993-.86,4.323,4.323,0,0,1,2.874.888,3.086,3.086,0,0,1,1.081,2.435v4.21a4.311,4.311,0,0,0,.4,2V42Zm-1.854-1.934a1.652,1.652,0,0,0,.918-.237A1.487,1.487,0,0,0,46,39.293V37.772h-.861q-1.547,0-1.547,1.389a.848.848,0,0,0,.272.655A.986.986,0,0,0,44.561,40.066Zm14.88-2.751a5.735,5.735,0,0,1-1,3.538,3.2,3.2,0,0,1-2.694,1.323,2.742,2.742,0,0,1-2.153-.958v4.438H50.634V32.49H53.4l.088.879a2.742,2.742,0,0,1,2.241-1.055,3.224,3.224,0,0,1,2.733,1.3,5.805,5.805,0,0,1,.976,3.564Zm-2.962-.185Q56.479,34.6,55,34.6a1.394,1.394,0,0,0-1.406.756V39.1a1.439,1.439,0,0,0,1.424.791q1.415,0,1.459-2.443Zm10.02-1.96-.976-.07a1.752,1.752,0,0,0-1.793.879V42H60.768V32.49h2.777l.1,1.222a2.294,2.294,0,0,1,2.083-1.4,2.888,2.888,0,0,1,.826.105Zm.378,1.986a5.613,5.613,0,0,1,.554-2.536,3.96,3.96,0,0,1,1.591-1.709,4.791,4.791,0,0,1,2.435-.6,4.373,4.373,0,0,1,3.366,1.323,5.076,5.076,0,0,1,1.23,3.6v.105a4.925,4.925,0,0,1-1.235,3.529,4.384,4.384,0,0,1-3.344,1.305,4.434,4.434,0,0,1-3.261-1.217,4.761,4.761,0,0,1-1.327-3.3Zm2.962.185a3.538,3.538,0,0,0,.413,1.934,1.376,1.376,0,0,0,1.222.615q1.582,0,1.617-2.435v-.3q0-2.558-1.635-2.558-1.485,0-1.608,2.206Zm16.348-.018a5.8,5.8,0,0,1-.967,3.595,3.238,3.238,0,0,1-2.725,1.257,2.81,2.81,0,0,1-2.338-1.151L80.033,42H77.379V28.5h2.962v4.755a2.711,2.711,0,0,1,2.136-.94,3.239,3.239,0,0,1,2.742,1.274,5.826,5.826,0,0,1,.967,3.586Zm-2.971-.189a3.866,3.866,0,0,0-.365-1.952,1.229,1.229,0,0,0-1.121-.584,1.418,1.418,0,0,0-1.389.763v3.773a1.426,1.426,0,0,0,1.406.755,1.258,1.258,0,0,0,1.327-1.018A7.309,7.309,0,0,0,83.215,37.135ZM92.848,42a3.344,3.344,0,0,1-.281-.853,2.754,2.754,0,0,1-2.285,1.028A3.374,3.374,0,0,1,88,41.363a2.588,2.588,0,0,1-.94-2.043A2.66,2.66,0,0,1,88.2,36.981a5.821,5.821,0,0,1,3.322-.791h.914v-.5q0-1.316-1.134-1.316a.927.927,0,0,0-1.055,1.042H87.284a2.655,2.655,0,0,1,1.173-2.239,4.931,4.931,0,0,1,2.993-.86,4.323,4.323,0,0,1,2.874.888,3.086,3.086,0,0,1,1.081,2.435v4.21a4.311,4.311,0,0,0,.4,2V42Zm-1.854-1.934a1.652,1.652,0,0,0,.918-.237,1.487,1.487,0,0,0,.523-.536V37.772h-.861q-1.547,0-1.547,1.389a.848.848,0,0,0,.272.655A.986.986,0,0,0,90.993,40.066Zm10.072-.176a1.317,1.317,0,0,0,.967-.338,1.241,1.241,0,0,0,.334-.945h2.777a3.288,3.288,0,0,1-1.121,2.566,4.168,4.168,0,0,1-2.887,1,4.22,4.22,0,0,1-3.27-1.3,5.125,5.125,0,0,1-1.2-3.6v-.123A5.792,5.792,0,0,1,97.2,34.6a3.872,3.872,0,0,1,1.534-1.7,4.573,4.573,0,0,1,2.373-.593,4.116,4.116,0,0,1,2.944,1.028,3.647,3.647,0,0,1,1.09,2.786h-2.777a1.626,1.626,0,0,0-.36-1.134,1.244,1.244,0,0,0-.967-.4q-1.151,0-1.345,1.468a10.357,10.357,0,0,0-.062,1.283,4.068,4.068,0,0,0,.343,1.986A1.187,1.187,0,0,0,101.065,39.891ZM109.521,42H106.55V32.49h2.971Zm-3.146-11.962A1.322,1.322,0,0,1,106.831,29a1.943,1.943,0,0,1,2.373,0,1.405,1.405,0,0,1,0,2.074,1.943,1.943,0,0,1-2.373,0A1.322,1.322,0,0,1,106.374,30.038Zm4.6,7.119a5.613,5.613,0,0,1,.554-2.536,3.96,3.96,0,0,1,1.591-1.709,4.791,4.791,0,0,1,2.435-.6,4.373,4.373,0,0,1,3.366,1.323,5.076,5.076,0,0,1,1.23,3.6v.105a4.925,4.925,0,0,1-1.235,3.529,4.384,4.384,0,0,1-3.344,1.305,4.434,4.434,0,0,1-3.261-1.217,4.761,4.761,0,0,1-1.327-3.3Zm2.962.185a3.538,3.538,0,0,0,.413,1.934,1.376,1.376,0,0,0,1.222.615q1.582,0,1.617-2.435v-.3q0-2.558-1.635-2.558-1.485,0-1.608,2.206Zm2.021-8.842h3.129l-2.443,2.76-2.417,0Zm8.218,3.99.1,1.116a3.225,3.225,0,0,1,2.716-1.292,2.713,2.713,0,0,1,2.219.888,4.226,4.226,0,0,1,.76,2.672V42h-2.971V36a1.6,1.6,0,0,0-.29-1.059,1.342,1.342,0,0,0-1.055-.338,1.413,1.413,0,0,0-1.292.686V42h-2.962V32.49Z" transform="translate(810 2036)" fill="#12263f"/>
    <path id="Trazado_609474" data-name="Trazado 609474" d="M36.082,14.609H31.854L31.116,17h-3.3L32.513,4.2h2.9L40.142,17H36.829Zm-3.489-2.382h2.751l-1.38-4.438Zm13.324,2.1a.684.684,0,0,0-.4-.606,6.016,6.016,0,0,0-1.5-.475A6.853,6.853,0,0,1,42.19,12.6a3.062,3.062,0,0,1-1.1-.971,2.319,2.319,0,0,1-.378-1.31,2.628,2.628,0,0,1,1.081-2.158,4.453,4.453,0,0,1,2.83-.848,4.934,4.934,0,0,1,3.023.853,2.666,2.666,0,0,1,1.143,2.241H45.82q0-1.143-1.2-1.143a1.194,1.194,0,0,0-.782.259.8.8,0,0,0-.316.646.737.737,0,0,0,.387.642,3.654,3.654,0,0,0,1.235.4,10.671,10.671,0,0,1,1.49.378,2.706,2.706,0,0,1,2.145,2.646,2.491,2.491,0,0,1-1.156,2.118,5.068,5.068,0,0,1-2.993.817,5.172,5.172,0,0,1-2.18-.439,3.645,3.645,0,0,1-1.494-1.2,2.707,2.707,0,0,1-.536-1.591h2.769a1.145,1.145,0,0,0,.439.962,1.808,1.808,0,0,0,1.081.3,1.422,1.422,0,0,0,.91-.246A.787.787,0,0,0,45.917,14.328ZM53.282,17H50.311V7.49h2.971ZM50.135,5.038A1.322,1.322,0,0,1,50.592,4a1.943,1.943,0,0,1,2.373,0,1.322,1.322,0,0,1,.457,1.037,1.322,1.322,0,0,1-.457,1.037,1.943,1.943,0,0,1-2.373,0A1.322,1.322,0,0,1,50.135,5.038Zm4.623,7.137a6.421,6.421,0,0,1,.475-2.549A3.821,3.821,0,0,1,56.6,7.917a3.591,3.591,0,0,1,2.065-.6,2.855,2.855,0,0,1,2.32,1l.105-.826h2.689V16.64a4.009,4.009,0,0,1-.584,2.184A3.75,3.75,0,0,1,61.5,20.248a6.219,6.219,0,0,1-2.566.5,5.365,5.365,0,0,1-2.026-.4,3.657,3.657,0,0,1-1.5-1.028l1.239-1.74a2.716,2.716,0,0,0,2.18.976A1.764,1.764,0,0,0,60.8,16.534v-.3a2.781,2.781,0,0,1-2.153.94,3.437,3.437,0,0,1-2.812-1.332,5.517,5.517,0,0,1-1.072-3.564Zm2.971.185a3.383,3.383,0,0,0,.439,1.85,1.387,1.387,0,0,0,1.23.681,1.573,1.573,0,0,0,1.4-.642v-4a1.534,1.534,0,0,0-1.38-.65,1.4,1.4,0,0,0-1.239.708A3.858,3.858,0,0,0,57.729,12.359ZM68.179,7.49l.1,1.116a3.225,3.225,0,0,1,2.716-1.292,2.713,2.713,0,0,1,2.219.888,4.226,4.226,0,0,1,.76,2.672V17H71V11a1.6,1.6,0,0,0-.29-1.059A1.342,1.342,0,0,0,69.656,9.6a1.413,1.413,0,0,0-1.292.686V17H65.4V7.49ZM80.967,17a3.344,3.344,0,0,1-.281-.853A2.754,2.754,0,0,1,78.4,17.176a3.374,3.374,0,0,1-2.285-.813,2.588,2.588,0,0,1-.94-2.043,2.66,2.66,0,0,1,1.143-2.338,5.821,5.821,0,0,1,3.322-.791h.914v-.5q0-1.316-1.134-1.316a.927.927,0,0,0-1.055,1.042H75.4a2.655,2.655,0,0,1,1.173-2.239,4.931,4.931,0,0,1,2.993-.86,4.323,4.323,0,0,1,2.874.888,3.086,3.086,0,0,1,1.081,2.435v4.21a4.311,4.311,0,0,0,.4,2V17Zm-1.854-1.934a1.652,1.652,0,0,0,.918-.237,1.487,1.487,0,0,0,.523-.536V12.772h-.861q-1.547,0-1.547,1.389a.848.848,0,0,0,.272.655A.986.986,0,0,0,79.113,15.066Zm11.8-4.9-.976-.07a1.752,1.752,0,0,0-1.793.879V17H85.186V7.49h2.777l.1,1.222a2.294,2.294,0,0,1,2.083-1.4,2.888,2.888,0,0,1,.826.105ZM29.226,30.126V32.49h1.564v2.057H29.226V38.9a1.111,1.111,0,0,0,.193.747,1.037,1.037,0,0,0,.765.211,4.345,4.345,0,0,0,.738-.053v2.118a5.466,5.466,0,0,1-1.67.255,3.1,3.1,0,0,1-2.259-.721,2.954,2.954,0,0,1-.729-2.188v-4.72H25.051V32.49h1.213V30.126Zm7.33,12.05a4.889,4.889,0,0,1-3.542-1.305,4.507,4.507,0,0,1-1.354-3.4v-.246a5.84,5.84,0,0,1,.541-2.575,3.955,3.955,0,0,1,1.578-1.727,4.763,4.763,0,0,1,2.461-.611A4.117,4.117,0,0,1,39.4,33.558a4.887,4.887,0,0,1,1.16,3.467v1.151H34.675a2.135,2.135,0,0,0,.694,1.257,2.066,2.066,0,0,0,1.389.457,2.662,2.662,0,0,0,2.2-.984l1.354,1.6a3.784,3.784,0,0,1-1.569,1.217A5.3,5.3,0,0,1,36.556,42.176ZM36.222,34.6q-1.3,0-1.547,1.723h2.988v-.229a1.467,1.467,0,0,0-.36-1.1A1.434,1.434,0,0,0,36.222,34.6Zm-.035-6.108h3.129l-2.443,2.76-2.417,0Zm9.589,11.4a1.317,1.317,0,0,0,.967-.338,1.241,1.241,0,0,0,.334-.945h2.777a3.288,3.288,0,0,1-1.121,2.566,4.168,4.168,0,0,1-2.887,1,4.22,4.22,0,0,1-3.27-1.3,5.125,5.125,0,0,1-1.2-3.6v-.123a5.792,5.792,0,0,1,.532-2.544,3.872,3.872,0,0,1,1.534-1.7,4.573,4.573,0,0,1,2.373-.593,4.116,4.116,0,0,1,2.944,1.028,3.647,3.647,0,0,1,1.09,2.786H47.077A1.626,1.626,0,0,0,46.716,35a1.244,1.244,0,0,0-.967-.4q-1.151,0-1.345,1.468a10.357,10.357,0,0,0-.062,1.283,4.068,4.068,0,0,0,.343,1.986A1.187,1.187,0,0,0,45.776,39.891Zm8.051-7.4.1,1.116a3.225,3.225,0,0,1,2.716-1.292,2.713,2.713,0,0,1,2.219.888,4.226,4.226,0,0,1,.76,2.672V42H56.648V36a1.6,1.6,0,0,0-.29-1.059A1.342,1.342,0,0,0,55.3,34.6a1.413,1.413,0,0,0-1.292.686V42H51.049V32.49ZM64.382,42H61.412V32.49h2.971ZM61.236,30.038A1.322,1.322,0,0,1,61.693,29a1.943,1.943,0,0,1,2.373,0,1.405,1.405,0,0,1,0,2.074,1.943,1.943,0,0,1-2.373,0A1.322,1.322,0,0,1,61.236,30.038Zm8.991,9.853a1.317,1.317,0,0,0,.967-.338,1.241,1.241,0,0,0,.334-.945h2.777a3.288,3.288,0,0,1-1.121,2.566,4.168,4.168,0,0,1-2.887,1,4.22,4.22,0,0,1-3.27-1.3,5.125,5.125,0,0,1-1.2-3.6v-.123a5.792,5.792,0,0,1,.532-2.544,3.872,3.872,0,0,1,1.534-1.7,4.573,4.573,0,0,1,2.373-.593,4.116,4.116,0,0,1,2.944,1.028,3.647,3.647,0,0,1,1.09,2.786H71.528A1.626,1.626,0,0,0,71.167,35a1.244,1.244,0,0,0-.967-.4q-1.151,0-1.345,1.468a10.357,10.357,0,0,0-.062,1.283,4.068,4.068,0,0,0,.343,1.986A1.187,1.187,0,0,0,70.227,39.891Zm4.957-2.733a5.613,5.613,0,0,1,.554-2.536,3.96,3.96,0,0,1,1.591-1.709,4.791,4.791,0,0,1,2.435-.6,4.373,4.373,0,0,1,3.366,1.323,5.076,5.076,0,0,1,1.23,3.6v.105a4.925,4.925,0,0,1-1.235,3.529,4.384,4.384,0,0,1-3.344,1.305,4.434,4.434,0,0,1-3.261-1.217,4.761,4.761,0,0,1-1.327-3.3Zm2.962.185a3.538,3.538,0,0,0,.413,1.934,1.376,1.376,0,0,0,1.222.615q1.582,0,1.617-2.435v-.3q0-2.558-1.635-2.558-1.485,0-1.608,2.206Zm12.5,1.986a.684.684,0,0,0-.4-.606,6.016,6.016,0,0,0-1.5-.475,6.853,6.853,0,0,1-1.828-.646,3.062,3.062,0,0,1-1.1-.971,2.319,2.319,0,0,1-.378-1.31,2.628,2.628,0,0,1,1.081-2.158,4.453,4.453,0,0,1,2.83-.848,4.934,4.934,0,0,1,3.023.853,2.666,2.666,0,0,1,1.143,2.241H90.547q0-1.143-1.2-1.143a1.194,1.194,0,0,0-.782.259.8.8,0,0,0-.316.646.737.737,0,0,0,.387.642,3.654,3.654,0,0,0,1.235.4,10.671,10.671,0,0,1,1.49.378A2.706,2.706,0,0,1,93.5,39.24a2.491,2.491,0,0,1-1.156,2.118,5.068,5.068,0,0,1-2.993.817,5.172,5.172,0,0,1-2.18-.439,3.645,3.645,0,0,1-1.494-1.2,2.707,2.707,0,0,1-.536-1.591h2.769a1.145,1.145,0,0,0,.439.962,1.808,1.808,0,0,0,1.081.3,1.422,1.422,0,0,0,.91-.246A.787.787,0,0,0,90.644,39.328Z" transform="translate(1068 2036)" fill="#12263f"/>
  </g>
</svg>
