<svg xmlns="http://www.w3.org/2000/svg" width="72.596" height="74.226" viewBox="0 0 72.596 74.226">
  <g id="documento" transform="translate(0 0)">
    <path id="Trazado_609009" data-name="Trazado 609009" d="M0,47.54A36.3,36.3,0,1,1,61.461,73.7,234.367,234.367,0,0,0,36.3,72.366a234.965,234.965,0,0,0-24.122,1.222,2.2,2.2,0,0,1-1.8-.642A36.179,36.179,0,0,1,0,47.54Zm0,0" transform="translate(0 -9.612)" fill="#7e10b8"/>
    <path id="Trazado_609010" data-name="Trazado 609010" d="M123.39,5.926v57.4a36.292,36.292,0,0,1-51.855,0V5.926A5.926,5.926,0,0,1,77.461,0h40a5.926,5.926,0,0,1,5.926,5.926Zm0,0" transform="translate(-61.164)" fill="#fdd194"/>
    <path id="Trazado_609011" data-name="Trazado 609011" d="M75.739,67.005a36.569,36.569,0,0,1-4.2-3.676V5.926A5.926,5.926,0,0,1,77.461,0h4.2a5.926,5.926,0,0,0-5.926,5.926Zm0,0" transform="translate(-61.164)" fill="#fdc273"/>
    <path id="Trazado_609012" data-name="Trazado 609012" d="M159.981,133.6v1.481a.741.741,0,0,1-.741.741H132.573a.741.741,0,0,1-.741-.741V133.6a.741.741,0,0,1,.741-.741h26.668A.741.741,0,0,1,159.981,133.6Zm-9.63,5.186H132.573a.741.741,0,0,0-.741.741V141a.741.741,0,0,0,.741.741h17.779a.741.741,0,0,0,.741-.741v-1.481A.741.741,0,0,0,150.352,138.782Zm0,0" transform="translate(-112.72 -113.595)" fill="#fd7d43"/>
    <path id="Trazado_609013" data-name="Trazado 609013" d="M165.908,235.791v1.481a.741.741,0,0,1-.741.741H132.573a.741.741,0,0,1-.741-.741v-1.481a.741.741,0,0,1,.741-.741h32.594A.741.741,0,0,1,165.908,235.791Zm-5.186,5.186h-28.15a.741.741,0,0,0-.741.741V243.2a.741.741,0,0,0,.741.741h28.15a.741.741,0,0,0,.741-.741v-1.481A.741.741,0,0,0,160.722,240.977ZM150.352,246.9H132.573a.741.741,0,0,0-.741.741v1.481a.741.741,0,0,0,.741.741h17.779a.741.741,0,0,0,.741-.741v-1.481A.741.741,0,0,0,150.352,246.9Zm-17.038,14.816a1.481,1.481,0,1,0,1.481,1.481A1.481,1.481,0,0,0,133.313,261.719Zm4.445,0a1.481,1.481,0,1,0,1.481,1.481A1.481,1.481,0,0,0,137.758,261.719Zm4.445,0a1.481,1.481,0,1,0,1.481,1.481A1.482,1.482,0,0,0,142.2,261.719Zm0,0" transform="translate(-112.72 -200.975)" fill="#fc9368"/>
    <path id="Trazado_609014" data-name="Trazado 609014" d="M74.084,6.832v5.02A1.481,1.481,0,0,1,72.6,13.334H31.119a1.481,1.481,0,0,1-1.481-1.481V6.832A6.833,6.833,0,0,1,36.47,0H80.916a6.833,6.833,0,0,0-6.832,6.832Zm0,0" transform="translate(-25.341 0)" fill="#fcf498"/>
    <path id="Trazado_609015" data-name="Trazado 609015" d="M109.036,6.832v5.02a1.481,1.481,0,0,1-1.481,1.481H70.516v-6.5A6.833,6.833,0,0,1,77.349,0h38.52a6.833,6.833,0,0,0-6.832,6.832Zm0,0" transform="translate(-60.293 0)" fill="#fdf7bd"/>
    <path id="Trazado_609016" data-name="Trazado 609016" d="M313.308,317.367a15.21,15.21,0,1,1-15.21-15.211A15.211,15.211,0,0,1,313.308,317.367Zm0,0" transform="translate(-241.876 -258.352)" fill="#60cb28"/>
    <path id="Trazado_609017" data-name="Trazado 609017" d="M310.983,339.161a15.211,15.211,0,1,1-20.969-20.969,15.212,15.212,0,0,0,20.969,20.969Zm0,0" transform="translate(-241.876 -272.063)" fill="#54bc1d"/>
    <path id="Trazado_609018" data-name="Trazado 609018" d="M339.205,334.861l-15.863,15.863a2.223,2.223,0,0,1-3.143,0l-6.974-6.974a2.222,2.222,0,0,1,0-3.142l1.048-1.048a2.222,2.222,0,0,1,3.143,0l3.831,3.831a.741.741,0,0,0,1.048,0l12.72-12.721a2.223,2.223,0,0,1,3.143,0l1.048,1.048a2.223,2.223,0,0,1,0,3.143Zm0,0" transform="translate(-267.26 -282.176)" fill="#fdf7bd"/>
    <path id="Trazado_609019" data-name="Trazado 609019" d="M350.628,331.718a2.223,2.223,0,0,1,0,3.143l-14.971,14.971a15.241,15.241,0,0,1-9.723-10.475,2.221,2.221,0,0,1,2.9.2l3.831,3.831a.741.741,0,0,0,1.048,0l12.72-12.72a2.223,2.223,0,0,1,3.143,0Zm0,0" transform="translate(-278.682 -282.176)" fill="#fff5f5"/>
  </g>
</svg>
