<svg xmlns="http://www.w3.org/2000/svg" width="351" height="104" viewBox="0 0 351 104">
  <g id="Grupo_1014988" data-name="Grupo 1014988" transform="translate(-1151.336 -14108)">
    <g id="Rectángulo_345269" data-name="Rectángulo 345269" transform="translate(1151.336 14108)" fill="#fff" stroke="#707070" stroke-width="1">
      <rect width="351" height="104" rx="32" stroke="none"/>
      <rect x="0.5" y="0.5" width="350" height="103" rx="31.5" fill="none"/>
    </g>
    <path id="Trazado_609429" data-name="Trazado 609429" d="M5.713,13.136l-.381,2.007A6.249,6.249,0,0,1,10.2,12.857a3.932,3.932,0,0,1,3.311,1.553,6.032,6.032,0,0,1,.791,4.2L12.568,29H9.917L11.66,18.581a5.554,5.554,0,0,0,.015-1.332,2.19,2.19,0,0,0-2.417-2.092Q6.87,15.113,5.068,17.7L3.105,29H.454L3.208,13.15Zm32.4,3.94H26.25l.41-2.358H38.54Zm-1.055,6.079H25.2l.41-2.344h11.88ZM60.938,29H47.358l.322-2.065,7.866-7.646,1.436-1.421a8.407,8.407,0,0,0,2.739-4.57,3.389,3.389,0,0,0-.63-2.629,2.963,2.963,0,0,0-2.314-1.077,4.364,4.364,0,0,0-3.208,1.121A5.147,5.147,0,0,0,52,13.941l-2.622.015a7.418,7.418,0,0,1,1.208-3.479,6.732,6.732,0,0,1,2.681-2.329,7.7,7.7,0,0,1,3.611-.769,5.918,5.918,0,0,1,4.211,1.6,4.753,4.753,0,0,1,1.34,4.006q-.249,2.813-3.237,5.918L57.847,20.27l-6.855,6.519h10.3Zm4.98-3.076a1.586,1.586,0,0,1,1.187.439,1.514,1.514,0,0,1,.454,1.172,1.583,1.583,0,0,1-.483,1.165,1.743,1.743,0,0,1-1.172.476,1.477,1.477,0,0,1-1.611-1.553,1.639,1.639,0,0,1,1.626-1.7Zm12.319,3.369a4.813,4.813,0,0,1-4.043-1.912,8.486,8.486,0,0,1-1.23-5.339q.029-1.084.161-2.139l.527-3.56a13.2,13.2,0,0,1,2.681-6.8,6.409,6.409,0,0,1,5.215-2.168,4.871,4.871,0,0,1,4.065,1.868A8.3,8.3,0,0,1,86.851,14.5q-.044,1.1-.176,2.153l-.513,3.442q-.776,4.819-2.739,7.046A6.369,6.369,0,0,1,78.237,29.293Zm5.874-13.125a22.673,22.673,0,0,0,.19-2.754q-.073-3.721-2.886-3.823A3.85,3.85,0,0,0,78.1,11.107a10.51,10.51,0,0,0-1.765,4.988l-.63,4.248a21.609,21.609,0,0,0-.19,2.769q.073,3.882,2.871,3.984A3.763,3.763,0,0,0,81.6,25.66a10.18,10.18,0,0,0,1.809-4.834Zm10.62,13.125a4.813,4.813,0,0,1-4.043-1.912,8.486,8.486,0,0,1-1.23-5.339q.029-1.084.161-2.139l.527-3.56a13.2,13.2,0,0,1,2.681-6.8,6.409,6.409,0,0,1,5.215-2.168,4.871,4.871,0,0,1,4.065,1.868,8.3,8.3,0,0,1,1.238,5.251q-.044,1.1-.176,2.153l-.513,3.442q-.776,4.819-2.739,7.046A6.369,6.369,0,0,1,94.731,29.293Zm5.874-13.125a22.673,22.673,0,0,0,.19-2.754q-.073-3.721-2.886-3.823a3.85,3.85,0,0,0-3.318,1.516,10.51,10.51,0,0,0-1.765,4.988l-.63,4.248a21.609,21.609,0,0,0-.19,2.769q.073,3.882,2.871,3.984a3.763,3.763,0,0,0,3.215-1.436A10.18,10.18,0,0,0,99.9,20.826Zm10.62,13.125a4.813,4.813,0,0,1-4.043-1.912,8.486,8.486,0,0,1-1.23-5.339q.029-1.084.161-2.139l.527-3.56a13.2,13.2,0,0,1,2.681-6.8,6.409,6.409,0,0,1,5.215-2.168A4.871,4.871,0,0,1,118.6,9.247a8.3,8.3,0,0,1,1.238,5.251q-.044,1.1-.176,2.153l-.513,3.442q-.776,4.819-2.739,7.046A6.369,6.369,0,0,1,111.226,29.293ZM117.1,16.168a22.673,22.673,0,0,0,.19-2.754q-.073-3.721-2.886-3.823a3.85,3.85,0,0,0-3.318,1.516,10.51,10.51,0,0,0-1.765,4.988l-.63,4.248a21.609,21.609,0,0,0-.19,2.769q.073,3.882,2.871,3.984a3.763,3.763,0,0,0,3.215-1.436,10.18,10.18,0,0,0,1.809-4.834Zm16.685-1.633-4.058-1.317,1-2.107,4.072,1.653.747-5.092h2.2l-1.025,5.034,4.438-1.58.278,2.327-4.614,1.332,2.153,4.028L137.095,20.1l-1.919-4.248-3.252,4.1-1.67-1.436Zm20.508,2.483,1.758.015a5.192,5.192,0,0,0,3.259-1.018,3.859,3.859,0,0,0,1.516-2.761,3.4,3.4,0,0,0-.63-2.673,3.025,3.025,0,0,0-2.388-1,4.077,4.077,0,0,0-2.834.974,4.3,4.3,0,0,0-1.428,2.7l-2.622.015a6.077,6.077,0,0,1,2.249-4.285,7.134,7.134,0,0,1,4.768-1.619,5.7,5.7,0,0,1,4.211,1.677,5.322,5.322,0,0,1,1.326,4.27,4.933,4.933,0,0,1-1.157,2.754,7.709,7.709,0,0,1-2.842,2.065,4.215,4.215,0,0,1,2.168,1.853,5.17,5.17,0,0,1,.6,2.966,6.546,6.546,0,0,1-2.292,4.644,7.208,7.208,0,0,1-5,1.7,6.063,6.063,0,0,1-4.365-1.7,5.388,5.388,0,0,1-1.509-4.233l2.651.015a3.561,3.561,0,0,0,.791,2.644,3.375,3.375,0,0,0,2.549,1.062,4.262,4.262,0,0,0,3.12-1.069,4.462,4.462,0,0,0,1.421-3.018,3.264,3.264,0,0,0-.791-2.717,3.988,3.988,0,0,0-2.842-1.033l-2.036-.015Zm12.8,8.906a1.586,1.586,0,0,1,1.187.439,1.514,1.514,0,0,1,.454,1.172,1.583,1.583,0,0,1-.483,1.165,1.743,1.743,0,0,1-1.172.476,1.477,1.477,0,0,1-1.611-1.553,1.639,1.639,0,0,1,1.626-1.7Zm20.991-12.817a5.283,5.283,0,0,1-1.135,2.878,7.576,7.576,0,0,1-2.732,2.117,5.013,5.013,0,0,1,2.043,2.117,5.42,5.42,0,0,1,.549,2.893,6.216,6.216,0,0,1-2.314,4.534,7.5,7.5,0,0,1-5.054,1.648,6.019,6.019,0,0,1-4.38-1.714,5.125,5.125,0,0,1-1.392-4.219,5.7,5.7,0,0,1,1.289-3.2,8.074,8.074,0,0,1,3.076-2.219,4.848,4.848,0,0,1-1.692-1.992,5.063,5.063,0,0,1-.432-2.578,6.183,6.183,0,0,1,2.124-4.38,6.706,6.706,0,0,1,4.717-1.611A5.453,5.453,0,0,1,186.8,9.034,5.068,5.068,0,0,1,188.086,13.106Zm-3.9,9.946a3.644,3.644,0,0,0-.7-2.761,3.217,3.217,0,0,0-2.549-1.165,4.329,4.329,0,0,0-3.105,1.15,4.662,4.662,0,0,0-1.494,3.04,3.446,3.446,0,0,0,.71,2.725,3.223,3.223,0,0,0,2.512,1.055,4.355,4.355,0,0,0,3.135-1.077A4.464,4.464,0,0,0,184.189,23.053Zm1.23-9.9a3.358,3.358,0,0,0-.608-2.49,2.741,2.741,0,0,0-2.19-1.069,3.755,3.755,0,0,0-2.769,1.047,4.375,4.375,0,0,0-1.318,2.776,3.3,3.3,0,0,0,.623,2.5,2.738,2.738,0,0,0,2.2,1.011,3.75,3.75,0,0,0,2.732-1.033A4.285,4.285,0,0,0,185.42,13.15Zm16.128,8.687h2.871l-.4,2.212h-2.856L200.3,29h-2.666l.864-4.951h-9.434l.308-1.743L201.094,7.672h2.9Zm-8.994,0h6.328l1.9-10.488-.425.615Zm25.913-7.3-4.058-1.317,1-2.107,4.072,1.653.747-5.092h2.2L221.4,12.706l4.438-1.58.278,2.327L221.5,14.784l2.153,4.028L221.777,20.1l-1.919-4.248-3.252,4.1-1.67-1.436Zm21.328,14.758a4.813,4.813,0,0,1-4.043-1.912,8.486,8.486,0,0,1-1.23-5.339q.029-1.084.161-2.139l.527-3.56a13.2,13.2,0,0,1,2.681-6.8,6.409,6.409,0,0,1,5.215-2.168,4.871,4.871,0,0,1,4.065,1.868,8.3,8.3,0,0,1,1.238,5.251q-.044,1.1-.176,2.153l-.513,3.442q-.776,4.819-2.739,7.046A6.369,6.369,0,0,1,239.795,29.293Zm5.874-13.125a22.673,22.673,0,0,0,.19-2.754q-.073-3.721-2.886-3.823a3.85,3.85,0,0,0-3.318,1.516,10.51,10.51,0,0,0-1.765,4.988l-.63,4.248a21.609,21.609,0,0,0-.19,2.769q.073,3.882,2.871,3.984a3.763,3.763,0,0,0,3.215-1.436,10.18,10.18,0,0,0,1.809-4.834Zm6.108,9.756a1.586,1.586,0,0,1,1.187.439,1.514,1.514,0,0,1,.454,1.172,1.583,1.583,0,0,1-.483,1.165,1.743,1.743,0,0,1-1.172.476,1.477,1.477,0,0,1-1.611-1.553,1.639,1.639,0,0,1,1.626-1.7ZM271.1,29H257.52l.322-2.065,7.866-7.646,1.436-1.421a8.407,8.407,0,0,0,2.739-4.57,3.389,3.389,0,0,0-.63-2.629,2.963,2.963,0,0,0-2.314-1.077,4.364,4.364,0,0,0-3.208,1.121,5.147,5.147,0,0,0-1.567,3.23l-2.622.015a7.418,7.418,0,0,1,1.208-3.479,6.732,6.732,0,0,1,2.681-2.329,7.7,7.7,0,0,1,3.611-.769,5.918,5.918,0,0,1,4.211,1.6,4.753,4.753,0,0,1,1.34,4.006q-.249,2.813-3.237,5.918l-1.348,1.362-6.855,6.519h10.3Zm5.786-10.737,2.71-10.591h10.635l-.4,2.5h-8.35l-1.641,5.83a6.526,6.526,0,0,1,3.486-.923,4.787,4.787,0,0,1,4.072,2A7.245,7.245,0,0,1,288.56,22.1a8.013,8.013,0,0,1-2.329,5.273,6.846,6.846,0,0,1-5.112,1.934A5.578,5.578,0,0,1,277,27.667a6.2,6.2,0,0,1-1.655-4.292h2.476a4.249,4.249,0,0,0,1,2.725,3.22,3.22,0,0,0,2.417,1,3.943,3.943,0,0,0,3.157-1.333,6.154,6.154,0,0,0,1.516-3.647,4.685,4.685,0,0,0-.688-3.259,3.132,3.132,0,0,0-2.622-1.34,4.493,4.493,0,0,0-1.9.322,7.046,7.046,0,0,0-1.648,1.011Zm-273.677,37,2.71-10.591H16.553l-.4,2.5H7.808l-1.641,5.83a6.526,6.526,0,0,1,3.486-.923,4.787,4.787,0,0,1,4.072,2A7.245,7.245,0,0,1,14.883,59.1a8.013,8.013,0,0,1-2.329,5.273,6.846,6.846,0,0,1-5.112,1.934,5.578,5.578,0,0,1-4.116-1.641A6.2,6.2,0,0,1,1.67,60.375H4.146a4.249,4.249,0,0,0,1,2.725,3.22,3.22,0,0,0,2.417,1,3.943,3.943,0,0,0,3.157-1.333,6.154,6.154,0,0,0,1.516-3.647,4.685,4.685,0,0,0-.688-3.259,3.132,3.132,0,0,0-2.622-1.34,4.493,4.493,0,0,0-1.9.322,7.046,7.046,0,0,0-1.648,1.011Zm30.63-.7h5.771l-.454,2.563H33.4l-1.172,6.738H29.561l1.172-6.738H24.961l.454-2.563h5.757l1.084-6.226h2.666ZM54.756,66.293a4.813,4.813,0,0,1-4.043-1.912,8.486,8.486,0,0,1-1.23-5.339q.029-1.084.161-2.139l.527-3.56a13.2,13.2,0,0,1,2.681-6.8,6.409,6.409,0,0,1,5.215-2.168,4.871,4.871,0,0,1,4.065,1.868A8.3,8.3,0,0,1,63.369,51.5q-.044,1.1-.176,2.153l-.513,3.442q-.776,4.819-2.739,7.046A6.369,6.369,0,0,1,54.756,66.293ZM60.63,53.168a22.673,22.673,0,0,0,.19-2.754q-.073-3.721-2.886-3.823a3.85,3.85,0,0,0-3.318,1.516,10.51,10.51,0,0,0-1.765,4.988l-.63,4.248a21.609,21.609,0,0,0-.19,2.769Q52.1,63.993,54.9,64.1a3.763,3.763,0,0,0,3.215-1.436,10.18,10.18,0,0,0,1.809-4.834Zm6.108,9.756a1.586,1.586,0,0,1,1.187.439,1.514,1.514,0,0,1,.454,1.172A1.583,1.583,0,0,1,67.9,65.7a1.743,1.743,0,0,1-1.172.476,1.477,1.477,0,0,1-1.611-1.553,1.639,1.639,0,0,1,1.626-1.7Zm17.461-6.3a7.6,7.6,0,0,1-2.3,1.707,5.386,5.386,0,0,1-2.417.535,4.706,4.706,0,0,1-2.878-.952,5.245,5.245,0,0,1-1.743-2.534,8.4,8.4,0,0,1-.374-3.516A9.476,9.476,0,0,1,75.674,48a7.256,7.256,0,0,1,2.6-2.717,6.372,6.372,0,0,1,3.538-.9,5.028,5.028,0,0,1,4,1.846,7.887,7.887,0,0,1,1.567,4.79,19.948,19.948,0,0,1-.366,3.9q-.967,5.479-3.816,8.254a10.356,10.356,0,0,1-7.317,2.864H75.22l.234-2.3H76a7.961,7.961,0,0,0,5.164-1.761A10.531,10.531,0,0,0,84.2,56.625Zm-4.16,0a4.232,4.232,0,0,0,2.563-.754,6.381,6.381,0,0,0,2.021-2.19l.117-1.069.044-1.187a6.865,6.865,0,0,0-.842-3.5,2.647,2.647,0,0,0-2.249-1.289,3.75,3.75,0,0,0-3.1,1.4,6.34,6.34,0,0,0-1.487,3.684,7.084,7.084,0,0,0,.029,1.816,4.619,4.619,0,0,0,.527,1.626A2.648,2.648,0,0,0,80.039,56.625Zm22.588-11.982-.234,2.3h-.513a7.757,7.757,0,0,0-5.01,1.816,11.258,11.258,0,0,0-3.223,5.186,6.177,6.177,0,0,1,4.658-1.934,4.818,4.818,0,0,1,2.886.93,5.185,5.185,0,0,1,1.765,2.49,8.161,8.161,0,0,1,.388,3.508,8.539,8.539,0,0,1-2.322,5.339,6.379,6.379,0,0,1-4.988,2.014,5.2,5.2,0,0,1-3.9-1.743A7.363,7.363,0,0,1,90.4,60.038a17.076,17.076,0,0,1,.366-4.16,15.092,15.092,0,0,1,3.992-8.35,10.452,10.452,0,0,1,7.581-2.886Zm-4.893,9.609a4.473,4.473,0,0,0-2.666.82,5.768,5.768,0,0,0-1.919,2.168l-.1.981-.029,1.187a7.5,7.5,0,0,0,.366,2.329,3.562,3.562,0,0,0,1.084,1.714,2.65,2.65,0,0,0,1.685.6,3.745,3.745,0,0,0,3.04-1.318,7.028,7.028,0,0,0,1.355-6.079,3.55,3.55,0,0,0-1.018-1.736A2.7,2.7,0,0,0,97.734,54.252Z" transform="translate(1180.336 14122)"/>
  </g>
</svg>
