<svg id="Group_47" data-name="Group 47" xmlns="http://www.w3.org/2000/svg" width="550.811" height="341.572" viewBox="0 0 550.811 341.572">
  <path id="Trazado_606462" data-name="Trazado 606462" d="M247.717.483C158.5-5.114,126.853,38.889,81.507,84.407S15.2,177.96,41.552,246.356s88.562,85.776,186.212,85.776,198.208,9.53,249.135-27.672,68.274-122.207-5.515-166.685C427.922,111.579,371.047,8.218,247.717.483Z" transform="translate(-5.416 0)" fill="#fff"/>
  <g id="Grupo_1014734" data-name="Grupo 1014734" transform="translate(57.652 234.42)">
    <path id="Trazado_606463" data-name="Trazado 606463" d="M117.319,369.422c-.951-11.849-4.8-23.1-8.628-34.276-3.786-11.038-8.047-22.69-8.243-34.489-.082-5.1,2.245-15.462,9.505-13.512,2.458.656,4,3.327,5.113,5.4a59.133,59.133,0,0,1,3.614,8.571c3.81,11.046,4.5,22.878,4.466,34.473-.025,8.719-.631,17.478.082,26.189a.41.41,0,0,0,.819,0,203.557,203.557,0,0,1,2.8-36.464,159.474,159.474,0,0,1,4.072-17.011c.59-2.008,2.458-5.072,4.515-5.6,3.056-.795,6.834.057,8.014,3.36,4.392,12.324.672,25.59-3.417,37.439a158.158,158.158,0,0,1-5.662,14.8q-2.716,5.875-5.334,11.808c-.508,1.155-1.016,2.319-1.5,3.483-.2.492.59.7.787.221,3.106-7.473,6.973-14.651,9.71-22.272,4.089-11.414,8.661-23.132,8.145-35.464a38.276,38.276,0,0,0-1.27-8.063c-.623-2.368-1.352-4.163-3.483-5.5a7.887,7.887,0,0,0-5.113-.795,4.665,4.665,0,0,0-4.064,2.606,13.332,13.332,0,0,0-1.7,2.393q-.627,2.065-1.2,4.138c-.819,2.925-1.54,5.875-2.2,8.85a159.835,159.835,0,0,0-2.688,16.462,223.124,223.124,0,0,0-1.229,25.631h.819c-.819-10.013.016-20.108-.1-30.146-.131-11.349-1.385-22.755-5.457-33.424-1.491-3.909-3.261-8.637-6.818-11.136-3.679-2.581-7.768.254-9.776,3.466-2.671,4.269-2.5,9.948-1.967,14.741a100.169,100.169,0,0,0,3.491,16.339c4.572,15.888,11.726,31.138,13.07,47.8.041.524.86.524.819,0Z" transform="translate(-75.642 -286.082)" fill="#7e19b8"/>
    <path id="Trazado_606464" data-name="Trazado 606464" d="M120.745,386.073a55.558,55.558,0,0,0-.942-6.768.41.41,0,0,0-.8.107c.139,2.278.459,4.531.819,6.785.082.524.869.3.787-.221-.344-2.18-.656-4.359-.787-6.564-.27.033-.533.074-.8.107a55.168,55.168,0,0,1,.91,6.547c.049.524.869.524.819,0Z" transform="translate(-79.142 -302.864)" fill="#7e19b8"/>
    <path id="Trazado_606465" data-name="Trazado 606465" d="M100.768,376.2c-3.466-9.161-10.726-15.88-17.183-22.96a56.744,56.744,0,0,1-9.005-12.406c-2.2-4.359-5.187-10.906-2.2-15.52,2.589-3.991,8.26-.754,11.078,1.139a43.78,43.78,0,0,1,9.161,9.005,88.381,88.381,0,0,1,16.5,31.564,77.3,77.3,0,0,1,1.885,8.6c.082.524.877.3.787-.221a85.546,85.546,0,0,0-12.054-31.375c-4.63-7.449-10.415-15.462-18.289-19.764-2.557-1.393-5.883-2.466-8.506-.7-3.335,2.245-2.8,7.137-1.942,10.456,2.458,9.472,9.186,16.823,15.692,23.763,5.236,5.58,10.521,11.341,13.266,18.617.188.492.975.279.787-.221Z" transform="translate(-70.358 -292.684)" fill="#7e19b8"/>
    <path id="Trazado_606466" data-name="Trazado 606466" d="M143.56,312.657c-5.425,8.456-4.4,19.248-6.055,28.77-.951,5.474-2.909,10.677-3.909,16.134-1.057,5.769-2.212,11.5-3.589,17.191-.123.516.664.729.787.221q1.967-8.174,3.466-16.454c.934-5.187,2.737-10.153,3.745-15.323a148.4,148.4,0,0,0,1.827-14.864c.5-5.351,1.483-10.677,4.433-15.266C144.552,312.624,143.839,312.215,143.56,312.657Z" transform="translate(-81.127 -290.847)" fill="#7e19b8"/>
    <path id="Trazado_606467" data-name="Trazado 606467" d="M109.1,297.559c.369,6.178,2.458,12.029,3.884,18,1.59,6.67,2.884,13.43,4.228,20.149,1.311,6.547,2.483,13.127,3.884,19.65a99.708,99.708,0,0,1,2.647,20.469.41.41,0,0,0,.819,0,96.371,96.371,0,0,0-2.2-18.437q-2.04-10.153-4.04-20.322c-1.278-6.5-2.573-13-4.015-19.469-1.491-6.654-3.974-13.209-4.384-20.059-.033-.524-.852-.524-.819,0Z" transform="translate(-77.354 -288.08)" fill="#7e19b8"/>
    <path id="Trazado_606468" data-name="Trazado 606468" d="M84.221,339.176a109.58,109.58,0,0,1,15.888,19.863c2.352,3.605,4.482,7.383,6.6,11.128,2.376,4.187,3.737,8.612,5.457,13.078.188.483.983.279.787-.221-1.557-4.032-2.712-8.129-4.794-11.939-2.188-4.007-4.5-8.022-6.965-11.865a110.5,110.5,0,0,0-16.4-20.625c-.385-.361-.959.213-.582.582Z" transform="translate(-72.838 -295.544)" fill="#7e19b8"/>
    <path id="Trazado_606469" data-name="Trazado 606469" d="M85.58,352.626c4.974,3.343,10.423,5.965,15.134,9.7.41.328.992-.254.582-.582-4.761-3.786-10.259-6.449-15.3-9.833-.442-.295-.852.418-.41.7Z" transform="translate(-73.074 -297.957)" fill="#7e19b8"/>
    <path id="Trazado_606470" data-name="Trazado 606470" d="M102.324,351.9c1.819,2.4,2.909,5.49,3.933,8.292a89.471,89.471,0,0,1,2.974,10.62c.115.516.91.295.787-.221a95.1,95.1,0,0,0-3.155-11.128,30.573,30.573,0,0,0-3.827-7.973c-.311-.418-1.024,0-.7.41Z" transform="translate(-76.117 -297.862)" fill="#7e19b8"/>
    <path id="Trazado_606471" data-name="Trazado 606471" d="M135.27,340.292c.279,3.458,1.958,6.621,2.065,10.1.016.524.836.533.819,0-.115-3.491-1.786-6.645-2.065-10.1C136.048,339.768,135.229,339.768,135.27,340.292Z" transform="translate(-82.08 -295.8)" fill="#7e19b8"/>
    <path id="Trazado_606472" data-name="Trazado 606472" d="M115.414,305.166c-1.147,3.6-.991,7.522-1.475,11.242-.066.524.754.516.819,0,.475-3.646.32-7.489,1.45-11.021.164-.508-.631-.721-.787-.221Z" transform="translate(-78.227 -289.477)" fill="#7e19b8"/>
    <path id="Trazado_606473" data-name="Trazado 606473" d="M107.773,323.327c1.8,2.54,3.269,5.277,5.121,7.776a19.145,19.145,0,0,1,3.728,7.342c.115.516.9.3.787-.221a17.45,17.45,0,0,0-2.942-6.31c-2.024-2.974-3.909-6.072-5.99-9.005-.3-.426-1.016-.016-.7.41Z" transform="translate(-77.101 -292.7)" fill="#7e19b8"/>
    <path id="Trazado_606474" data-name="Trazado 606474" d="M123.38,335.5c-.836,5.039-1.647,10.087-2.13,15.184-.049.524.77.524.819,0,.475-5.015,1.278-9.989,2.106-14.963.09-.516-.7-.737-.787-.221Z" transform="translate(-79.548 -294.954)" fill="#7e19b8"/>
    <path id="Trazado_606475" data-name="Trazado 606475" d="M148.479,319.609c-2.024,5.293-5.457,9.964-7.858,15.085-.221.475.483.893.7.41,2.425-5.187,5.883-9.915,7.94-15.274C149.454,319.339,148.659,319.125,148.479,319.609Z" transform="translate(-83.039 -292.087)" fill="#7e19b8"/>
    <path id="Trazado_606476" data-name="Trazado 606476" d="M500.567,390.3a34.644,34.644,0,0,0-6.449-10.357c-3.54-3.835-8.1-6.367-11.226-10.611a132.351,132.351,0,0,1-8.194-13.348,25.2,25.2,0,0,1-3.212-8.342,38.452,38.452,0,0,1-.147-8.948c-.2.115-.41.238-.615.352a19.725,19.725,0,0,1,5.039,3.745c1.59,1.385,3.458,2.434,5.154,3.679a49.577,49.577,0,0,1,10.407,10.661c2.679,3.663,4.564,7.989,6.383,12.127,1.581,3.6,2.86,7.7,5.2,10.9.254.344.918.156.746-.311a71.441,71.441,0,0,1-3.786-25.762,98.227,98.227,0,0,1,1.2-11.89,30.988,30.988,0,0,1,3.466-10.988h-.7a20.623,20.623,0,0,1,1.541,5.859,38.824,38.824,0,0,0,2.016,6.531,86.2,86.2,0,0,1,3.7,14.684,45.265,45.265,0,0,1,.4,15.479c-.737,4.851-2.081,9.6-3.089,14.4-.09.434.533.754.746.311,1.45-2.917,2.811-5.867,4.023-8.891,1.319-3.294,2.2-6.719,3.36-10.062,1.835-5.252,4.957-10.03,9.98-12.652,6.006-3.13,19.732-6.252,21.3,3.491.2-.156.4-.311.6-.459-9.071-3.843-16.183,4.638-20.731,11.39-3.081,4.572-6.277,8.882-9.8,13.135-1.4,1.688-2.655,3.769-4.277,5.236-1.45,1.311-4.277,3.319-6.342,3.122-.524-.049-.524.77,0,.819,2.729.254,6.514-2.516,8.038-4.613,3.106-4.286,6.793-8.12,9.9-12.414,5.121-7.063,11.89-20.592,22.8-15.97a.411.411,0,0,0,.6-.459c-1.557-9.661-14.192-7.5-20.633-4.843a20.607,20.607,0,0,0-10.693,10.325c-1.639,3.27-2.458,6.834-3.614,10.275a96.484,96.484,0,0,1-5.22,12.16c.246.107.5.213.746.311,1.057-5.039,2.426-10.013,3.2-15.11a43,43,0,0,0-.369-14.414,92.029,92.029,0,0,0-3.843-15.471,47.75,47.75,0,0,1-2.016-6.531c-.443-2.081-.631-4.13-1.622-6.055a.411.411,0,0,0-.7,0c-3.737,6.367-4.277,14.635-4.72,21.854a70.6,70.6,0,0,0,3.753,27.409c.246-.107.5-.213.746-.311-2.466-3.36-3.818-7.752-5.49-11.562a61.423,61.423,0,0,0-6.949-12.619,50.286,50.286,0,0,0-9.284-9.374c-1.975-1.516-4.146-2.761-6.023-4.4a18.476,18.476,0,0,0-4.712-3.442.414.414,0,0,0-.615.352c-.377,5.277-.172,10.308,2.13,15.151A127.617,127.617,0,0,0,481.13,368.2a30.782,30.782,0,0,0,4.408,5.416c1.844,1.778,4.04,3.179,5.957,4.9a32.658,32.658,0,0,1,8.292,12.013c.2.483.992.27.787-.221Z" transform="translate(-142.596 -294.119)" fill="#7e19b8"/>
    <path id="Trazado_606477" data-name="Trazado 606477" d="M490.543,399.226c-4.638-7.506-8.342-17.683-17.241-21.125-4.736-1.827-10.456-.787-14.9,1.319-5.015,2.384-9.005,6.613-12.529,10.792a.415.415,0,0,0,.4.688c7.6-2.237,17.134-2.7,24.173,1.5,3.36,2.008,6,5.408,8.645,8.235,1.754,1.868,3.04,5.007,5.752,5.662.516.123.729-.664.221-.787-1.819-.434-3.048-2.425-4.105-3.818a46.735,46.735,0,0,0-3.269-3.7c-2.712-2.909-5.367-5.826-9.087-7.416-7-2.983-15.38-2.557-22.55-.451.131.229.262.459.4.688,6.465-7.645,15.848-15.6,26.631-11.9,4.417,1.516,7.588,5.572,10.071,9.325,2.434,3.679,4.359,7.67,6.678,11.423.279.451.983.041.7-.41Z" transform="translate(-138.152 -302.529)" fill="#7e19b8"/>
    <path id="Trazado_606478" data-name="Trazado 606478" d="M485.26,360.5c3.319,6.965,9.2,12.1,13.438,18.445a75.547,75.547,0,0,1,5.523,10.112c1.95,4.228,1.336,8.579,1.3,13.1a.41.41,0,0,0,.819,0c.025-3.818.68-7.858-.6-11.521a63.129,63.129,0,0,0-5.646-11c-4.113-6.965-10.62-12.168-14.135-19.543C485.735,359.618,485.031,360.035,485.26,360.5Z" transform="translate(-145.275 -299.409)" fill="#7e19b8"/>
    <path id="Trazado_606479" data-name="Trazado 606479" d="M471.506,386.191c6.072,3.22,12,6.572,16.208,12.136,1.491,1.975,2.95,3.974,4.474,5.933.442.574,1.68,2.712,2.614,2.614.516-.057.524-.877,0-.819-.68.074-2.9-3.5-3.228-3.941-1.377-1.819-2.712-3.671-4.113-5.474-3.966-5.08-9.948-8.2-15.536-11.16-.467-.246-.877.459-.41.7Z" transform="translate(-142.764 -304.022)" fill="#7e19b8"/>
    <path id="Trazado_606480" data-name="Trazado 606480" d="M512.6,358.792c.066,3.614,1.049,7.08,1.467,10.652a49.321,49.321,0,0,1-.533,12.947c-1.155,7.8-.623,15.725-2.77,23.394.27.033.541.074.8.107v-.926a.41.41,0,0,0-.819,0v.926a.41.41,0,0,0,.8.107c2.081-7.416,1.9-15.176,2.7-22.78A78.931,78.931,0,0,0,515,370.935c-.2-4.1-1.516-8.038-1.59-12.144a.41.41,0,0,0-.819,0Z" transform="translate(-149.886 -299.141)" fill="#7e19b8"/>
    <path id="Trazado_606481" data-name="Trazado 606481" d="M539.405,365.194c-6.268,3.966-10.816,10.816-14.4,17.175-3.442,6.121-6.465,13.668-13.315,16.683-.483.213-.066.918.41.7,6.1-2.688,9.3-9,12.3-14.569,3.8-7.072,8.481-14.905,15.413-19.289C540.257,365.62,539.848,364.908,539.405,365.194Z" transform="translate(-150.018 -300.356)" fill="#7e19b8"/>
  </g>
  <path id="Trazado_606482" data-name="Trazado 606482" d="M333.83,198a7.9,7.9,0,1,1-15.79,0V192.52a7.9,7.9,0,0,1,15.79,0Z" transform="translate(-57.433 -33.341)" fill="#7e19b8"/>
  <path id="Trazado_606483" data-name="Trazado 606483" d="M405.23,294.076c-2.18-10.636-11.6-39.389-34.555-49.788s-44.47-1.934-52.443,2.9-17.159,23.689-21.264,41.323-18.125,17.4-29,21.264l5.072,18.371,112.137.721.238-2.9c29.245-1.688,21.993-21.272,19.813-31.9ZM290.553,322.231c4.474,0,24.41-14.987,28.516-14.5,2.057,11,2.294,16.8,2.54,17.519s-29.843,6.039-31.056-3.024Z" transform="translate(-48.391 -43.222)" fill="#7e19b8"/>
  <path id="Trazado_606484" data-name="Trazado 606484" d="M343.476,254.834c-1.45,6.924-7.408,49.3,2.737,77.172a181.1,181.1,0,0,0,19.658,0c-2.253-14.659-6.768-55.261,2.573-78.467-9.341.164-24.976,1.286-24.976,1.286Z" transform="translate(-61.475 -45.785)" fill="#fffbe0"/>
  <path id="Trazado_606485" data-name="Trazado 606485" d="M348.682,239.6c-7.973.483-9.825,9.1-6.2,14.422s10.472.967,11.677-1.688c8.62,8.137,19.822.8,22.231-11.275,0-.967-13.692-3.622-27.713-1.45Z" transform="translate(-61.526 -43.119)" fill="#fffbe0"/>
  <path id="Trazado_606486" data-name="Trazado 606486" d="M367.826,180.594c-.361-8.038-8.62-23.386-28.2-22.518C325.692,159.15,324,172.351,324,172.351a24.209,24.209,0,0,1-2.983,4.613c-.721-6.187,3.188-22.575,20.789-23.017,19.813-.492,29.278,15.012,29.646,26.148a2.16,2.16,0,0,1-3.621.492Z" transform="translate(-57.957 -27.798)" fill="#7e19b8"/>
  <path id="Trazado_606487" data-name="Trazado 606487" d="M328.269,167.9c-6.695,4.589-10.7,12.217-7.31,19.805s4.352,10.931,1.066,16.872c-4.63,8.35-6.58,16.151-3.1,23.247,20.993-2.9,30.227-5.261,30.227-5.261S341.036,167.012,328.269,167.9Z" transform="translate(-57.273 -30.318)" fill="#31241c"/>
  <path id="Trazado_606488" data-name="Trazado 606488" d="M364.555,214.549s5.2,15.643,5.687,22.255c.451,6.064-19.609,10.1-21.034,3.753-1.483-7.563-3.687-20.412-3.687-20.412" transform="translate(-62.396 -38.744)" fill="#c97440"/>
  <path id="Trazado_606489" data-name="Trazado 606489" d="M366.218,221.08l-1.663-6.531-19.035,5.6s.68,3.95,1.549,8.9a18.437,18.437,0,0,0,4.376.328A18.8,18.8,0,0,0,366.218,221.08Z" transform="translate(-62.396 -38.744)" fill="#bf7141"/>
  <path id="Trazado_606490" data-name="Trazado 606490" d="M327.937,196.526a18.878,18.878,0,1,0,37.718-1.688l-.893-19.945a18.882,18.882,0,0,0-37.726,1.68l.893,19.945Z" transform="translate(-59.054 -28.326)" fill="#c97440"/>
  <path id="Trazado_606491" data-name="Trazado 606491" d="M356.685,179.781c-2.384-1.278-5.515-1.876-8.006-.59-.934.483-.107,1.885.819,1.4,1.942-1,4.523-.4,6.359.59.926.5,1.745-.91.819-1.4Z" transform="translate(-62.892 -32.23)" fill="#31241c"/>
  <path id="Trazado_606492" data-name="Trazado 606492" d="M330.451,182.649a4.766,4.766,0,0,1,4.236-1.147c1.024.213,1.459-1.36.434-1.565A6.482,6.482,0,0,0,329.3,181.5C328.542,182.223,329.7,183.37,330.451,182.649Z" transform="translate(-59.422 -32.468)" fill="#31241c"/>
  <path id="Trazado_606493" data-name="Trazado 606493" d="M343.543,199.585a.611.611,0,0,1-.41-.156l-3.679-3.237a.608.608,0,0,1-.2-.524.64.64,0,0,1,.311-.475l3.7-2.081a.617.617,0,0,1,.836.238.61.61,0,0,1-.238.836l-2.95,1.663,3.032,2.663a.619.619,0,0,1,.057.869A.6.6,0,0,1,343.543,199.585Z" transform="translate(-61.263 -34.859)" fill="#31241c"/>
  <path id="Trazado_606494" data-name="Trazado 606494" d="M345.49,206.243a4.9,4.9,0,0,1-2.729-.778.614.614,0,0,1,.688-1.016,4.121,4.121,0,0,0,4,.082,2.919,2.919,0,0,0,1.491-2.893.611.611,0,0,1,1.221-.057,4.155,4.155,0,0,1-2.114,4.023,5.338,5.338,0,0,1-2.565.639Z" transform="translate(-61.849 -36.297)" fill="#31241c"/>
  <path id="Trazado_606495" data-name="Trazado 606495" d="M349.5,192.044a2.3,2.3,0,1,0,1.336-2.958A2.291,2.291,0,0,0,349.5,192.044Z" transform="translate(-63.088 -34.119)" fill="#1a191f"/>
  <path id="Trazado_606496" data-name="Trazado 606496" d="M332.757,193.045a2.3,2.3,0,1,0,1.336-2.958A2.3,2.3,0,0,0,332.757,193.045Z" transform="translate(-60.064 -34.3)" fill="#1a191f"/>
  <path id="Trazado_606497" data-name="Trazado 606497" d="M332.9,192.528a.482.482,0,0,1-.279-.082l-2.237-1.368a.542.542,0,0,1,.565-.926l2.237,1.368a.545.545,0,0,1,.18.746.535.535,0,0,1-.459.254Z" transform="translate(-59.615 -34.324)" fill="#1a191f"/>
  <path id="Trazado_606498" data-name="Trazado 606498" d="M353.231,191.493a.538.538,0,0,1-.3-.983l2.344-1.622a.542.542,0,1,1,.615.893l-2.344,1.622a.536.536,0,0,1-.3.1Z" transform="translate(-63.691 -34.093)" fill="#1a191f"/>
  <path id="Trazado_606499" data-name="Trazado 606499" d="M383.919,195.7c-3.13-6.744.738-10.931-.934-17.363-1.459-5.621-8.153-5.449-11.6-13.414-5.285-12.209-32.5-23.206-42.642,1.573,11.275-7.645,22.837-3.671,27.229,1.983,8.85,11.4-.229,16.233,3.188,23.009,2.491,4.941,4.122,8.268.9,15.741s1.286,14.586,1.286,14.586c10.529-1.164,22.436-2.2,33.252-4.032,0-18.248-7.547-15.339-10.669-22.091Z" transform="translate(-59.366 -27.382)" fill="#31241c"/>
  <path id="Trazado_606500" data-name="Trazado 606500" d="M330.7,319.407c-9.186.8-12.726,3.548-20.944,7.9s-9.989,5.318-8.055,6.121c-4.835.32-2.016,2.9,1.368,1.77-2.253.967.885,2.016,5.4.32,1.131,1.77,6.932.967,10.636-1.131s12.57-3.868,20.625-1.131c.967-4.99-2.09-13.692-2.09-13.692l-6.932-.164Z" transform="translate(-54.016 -57.679)" fill="#c97440"/>
  <path id="Trazado_606501" data-name="Trazado 606501" d="M344.78,319.152c4.957-1.09,18.814-2.221,27.032-1.729.483,6.441-3.065,19.494-3.065,19.494l-21.911-4.835A23.381,23.381,0,0,0,344.78,319.152Z" transform="translate(-62.262 -57.301)" fill="#7e19b8"/>
  <path id="Trazado_606502" data-name="Trazado 606502" d="M344.167,318.858c9.784-1.418,19.674-1.385,29.54-1.663,4.753-.131,9.309-.688,14.012-1.221,4.474-.508,9.776.459,14.069,1.762a.409.409,0,0,0,.221-.787,42.783,42.783,0,0,0-12.775-1.9,48.561,48.561,0,0,0-6.154.77,74.717,74.717,0,0,1-8.563.541c-10.21.328-20.428.254-30.564,1.721-.524.074-.3.869.221.787Z" transform="translate(-62.059 -56.892)" fill="#1f0e03"/>
  <path id="Trazado_606503" data-name="Trazado 606503" d="M397.539,288.957a153.346,153.346,0,0,1,1.434,20.518.41.41,0,0,0,.819,0,155.286,155.286,0,0,0-1.467-20.731c-.074-.524-.86-.295-.787.221Z" transform="translate(-71.789 -52.089)" fill="#1f0e03"/>
  <path id="Trazado_606504" data-name="Trazado 606504" d="M346.421,335.658c2.966-.033,5.7,1.278,8.514,2.04,3.343.91,6.613,2.04,9.948,2.958a100.488,100.488,0,0,0,20.739,3.425c11.111.639,24.55.1,32.94-8.219.377-.369-.2-.951-.582-.582-8.768,8.694-23.181,8.7-34.686,7.825a100.545,100.545,0,0,1-20.4-3.868c-2.974-.869-5.941-1.778-8.907-2.663-2.5-.746-4.916-1.77-7.571-1.737a.41.41,0,0,0,0,.819Z" transform="translate(-62.485 -60.467)" fill="#1f0e03"/>
  <path id="Trazado_606505" data-name="Trazado 606505" d="M326.442,278.718c-.729,2.2-.516,4.564-.483,6.85.041,3.147.279,6.277.442,9.415.164,3.1.254,6.195.508,9.292.229,2.852,1.311,5.564,1.459,8.391.025.524.844.524.819,0-.139-2.589-1.131-5.031-1.385-7.621-.287-2.827-.377-5.679-.5-8.522-.123-2.868-.32-5.728-.442-8.587s-.533-6.244.385-9c.164-.5-.623-.713-.787-.221Z" transform="translate(-58.853 -50.282)" fill="#1f0e03"/>
  <path id="Trazado_606506" data-name="Trazado 606506" d="M341.479,244.495c-1.286,4.54-2.188,10.325,2.893,12.873a6.624,6.624,0,0,0,5.695-.336,14.867,14.867,0,0,0,3.351-2.393c1.041-.893,1.491.459,2.417,1.114,7.473,5.343,17.314-2.057,19.789-9.431.172-.5-.623-.713-.787-.221-2.638,7.866-13.93,15.094-20.42,7.072a.413.413,0,0,0-.582,0c-2.7,2.425-6.195,5.293-9.874,3.024-4.007-2.475-2.72-7.825-1.688-11.488a.409.409,0,0,0-.787-.221Z" transform="translate(-61.485 -44.099)" fill="#1f0e03"/>
  <path id="Trazado_606507" data-name="Trazado 606507" d="M309.956,338.064c2.581-.459,4.653-2.073,6.825-3.433,3-1.876,6.359-2.958,9.613-4.3.483-.2.27-.991-.222-.787-2.68,1.106-5.424,2.04-8.021,3.36-2.819,1.426-5.22,3.81-8.416,4.376C309.218,337.367,309.44,338.162,309.956,338.064Z" transform="translate(-55.88 -59.504)" fill="#1f0e03"/>
  <path id="Trazado_606508" data-name="Trazado 606508" d="M302.771,337.741c6.523-2.753,12.537-6.629,19.232-8.981.492-.172.279-.967-.221-.787-6.768,2.376-12.84,6.285-19.428,9.063-.483.2-.066.91.41.7Z" transform="translate(-54.562 -59.222)" fill="#1f0e03"/>
  <path id="Trazado_606509" data-name="Trazado 606509" d="M301.007,335.672c2.573-1.565,5.515-2.294,8.17-3.7,2.622-1.393,5.228-2.819,7.948-4.032.483-.213.066-.918-.41-.7-2.712,1.213-5.326,2.639-7.948,4.032-2.647,1.409-5.588,2.13-8.17,3.7C300.146,335.238,300.556,335.951,301.007,335.672Z" transform="translate(-54.248 -59.088)" fill="#1f0e03"/>
  <path id="Trazado_606510" data-name="Trazado 606510" d="M353,263.284c.279,1.459,2.335,1.4,3,.279a1.272,1.272,0,0,0-.606-1.688,1.737,1.737,0,0,0-2.229.361c-.3.434.41.844.7.41.361-.524,1.868.025,1.336.606-.4.442-1.295.483-1.418-.2-.1-.516-.885-.295-.787.221Z" transform="translate(-63.745 -47.247)" fill="#1f0e03"/>
  <path id="Trazado_606511" data-name="Trazado 606511" d="M351.676,270.8c-.2,1.45,1.475,1.86,2.45,1.049a1.328,1.328,0,0,0,.336-1.762,1.686,1.686,0,0,0-1.893-.295c-.5.156-.287.951.221.787a1.251,1.251,0,0,1,1-.033c.254.147-.09.606-.221.7-.3.221-1.188.377-1.1-.238.074-.516-.713-.737-.787-.221Z" transform="translate(-63.504 -48.694)" fill="#1f0e03"/>
  <path id="Trazado_606512" data-name="Trazado 606512" d="M351.068,280.22c.074,1.647,2.5.991,2.737-.254.295-1.516-2.344-2.344-2.606-.7-.082.516.713.737.787.221.1-.631,1-.2,1.016.295.008.385-1.1.918-1.123.442-.025-.524-.844-.524-.819,0Z" transform="translate(-63.396 -50.268)" fill="#1f0e03"/>
  <path id="Trazado_606513" data-name="Trazado 606513" d="M331.592,335.253a8.3,8.3,0,0,0,.5,3.737c.2.483.983.27.787-.221a7.686,7.686,0,0,1-.467-3.515C332.468,334.729,331.641,334.737,331.592,335.253Z" transform="translate(-59.874 -60.471)" fill="#1f0e03"/>
  <path id="Trazado_606514" data-name="Trazado 606514" d="M344.049,319.667c1.532,1.073,1.647,3.2,2.081,4.867.574,2.2,1,4.917.025,7.063-.213.475.492.893.7.41,1.1-2.417.639-5.187.057-7.694-.451-1.942-.721-4.13-2.458-5.351C344.025,318.66,343.615,319.372,344.049,319.667Z" transform="translate(-62.097 -57.587)" fill="#1f0e03"/>
  <path id="Trazado_606515" data-name="Trazado 606515" d="M319.952,206.644c-1.286,9.554,12.832,9.587,18.928,9.3.524-.025.524-.844,0-.819-5.384.254-19.314.516-18.134-8.26.066-.516-.721-.737-.787-.221Z" transform="translate(-57.764 -37.264)" fill="#1f0e03"/>
  <path id="Trazado_606516" data-name="Trazado 606516" d="M347.539,216.867a3.084,3.084,0,1,1-3.024-2.458A2.782,2.782,0,0,1,347.539,216.867Z" transform="translate(-61.67 -38.719)" fill="#7e19b8"/>
  <path id="Trazado_606517" data-name="Trazado 606517" d="M342.349,153.946c-10.038.254-15.618,5.687-18.429,11.464a9.232,9.232,0,0,1,2.852.795c2.081-3.605,6.023-7.563,13.4-8.137,19.576-.869,27.836,14.479,28.2,22.518a2.162,2.162,0,0,0,3.622-.492c-.369-11.136-9.833-26.647-29.646-26.148Z" transform="translate(-58.495 -27.798)" fill="#7e19b8"/>
  <path id="Trazado_606518" data-name="Trazado 606518" d="M386.87,198a7.9,7.9,0,1,1-15.79,0V192.52a7.9,7.9,0,0,1,15.79,0Z" transform="translate(-67.012 -33.341)" fill="#7e19b8"/>
  <path id="Trazado_606519" data-name="Trazado 606519" d="M385.758,197.856a4.853,4.853,0,0,1-9.4,1.549c-.582-1.491-.254-3.605-.254-5.179,0-5.449,7.5-6.391,9.4-1.549.582,1.491.254,3.605.254,5.179a.41.41,0,0,0,.819,0c0-3.286.32-6.457-2.794-8.506-3.778-2.483-8.276.852-8.5,4.876-.172,3.237-.2,6.539,2.794,8.506,3.778,2.483,8.276-.852,8.5-4.876C386.61,197.332,385.783,197.332,385.758,197.856Z" transform="translate(-67.76 -34.04)" fill="#1f0e03"/>
  <path id="Trazado_606520" data-name="Trazado 606520" d="M251.24,324.023h63c2.9,0,3.548,5.8-1.286,5.8H168.43c-4.351-8.7-23.845-61.866-25.779-66.864s-.164-10.792,7.735-10.792h55.425c5.8,0,12.242.967,16.274,9.825s29.163,62.03,29.163,62.03Z" transform="translate(-25.631 -45.538)" fill="#263c71"/>
  <path id="Trazado_606521" data-name="Trazado 606521" d="M327.374,329.6a4.394,4.394,0,0,0,.524-.229.07.07,0,0,0,.041-.025c2.475-1.385,1.622-5.318-.762-5.318h-63l-.049-.107c-.033-.057-.066-.139-.123-.254-.221-.475-.664-1.4-1.278-2.7-5.408-11.439-24.271-51.385-27.713-58.965-4.032-8.866-10.472-9.825-16.274-9.825H213.59c5.8,0,12.242.967,16.274,9.825s29.163,62.03,29.163,62.03l2.18,5.646s2.712.066,7.055.156H325.9a5.085,5.085,0,0,0,.811-.066,3.633,3.633,0,0,0,.451-.107c.074-.025.164-.033.229-.057Z" transform="translate(-38.571 -45.538)" fill="#304c8e"/>
  <path id="Trazado_606522" data-name="Trazado 606522" d="M208.18,298.97c1.59,3.933-.295,7.121-4.212,7.121S195.585,302.9,194,298.97s.295-7.121,4.212-7.121,8.383,3.188,9.964,7.121Z" transform="translate(-34.931 -52.704)" fill="none" stroke="#1f0e03" stroke-miterlimit="10" stroke-width="1"/>
  <path id="Trazado_606523" data-name="Trazado 606523" d="M392.315,352.429H165.05v36.03c24.951,5.31,58.572,9.153,91.684,9.571,45.33.574,92.34.057,135.58-2.049Z" transform="translate(-29.806 -63.644)" fill="#ecdcf5"/>
  <path id="Trazado_606524" data-name="Trazado 606524" d="M399.668,350.471a3.9,3.9,0,0,1-3.892,3.892H157.432a3.892,3.892,0,0,1,0-7.784H395.775A3.9,3.9,0,0,1,399.668,350.471Z" transform="translate(-27.727 -62.587)" fill="#c97440"/>
  <path id="Trazado_606525" data-name="Trazado 606525" d="M126.394,176.746c5.4,5.121,9.817,5.121,9.8,0s-.033-13.5-.041-18.609a9.617,9.617,0,0,0-9.825-9.309H106.72c-5.392,0-5.384,4.187.016,9.309s14.241,13.5,19.65,18.609Z" transform="translate(-18.543 -26.876)" fill="#7e19b8"/>
  <path id="Trazado_606526" data-name="Trazado 606526" d="M102.659,33.5H218.115a31.467,31.467,0,0,1,31.449,31.449v41.438a31.467,31.467,0,0,1-31.449,31.449H102.659A31.467,31.467,0,0,1,71.21,106.386V64.956a31.467,31.467,0,0,1,31.449-31.449Z" transform="translate(-12.859 -6.049)" fill="#7e19b8"/>
  <path id="Trazado_606527" data-name="Trazado 606527" d="M180.116,57.719V70.477h-2.458V65.028h-5.785v5.449H169.39V57.719h2.483v5.154h5.785V57.719Z" transform="translate(-30.589 -10.423)" fill="#4b0f6e"/>
  <path id="Trazado_606528" data-name="Trazado 606528" d="M194.588,68.306v2.171H185.73V57.719h8.7v2.171h-6.219v3.073h5.375v2.016h-5.375v3.327h6.375Z" transform="translate(-33.54 -10.423)" fill="#4b0f6e"/>
  <path id="Trazado_606529" data-name="Trazado 606529" d="M198.9,70.477V57.719h2.483V68.306h6.506v2.171Z" transform="translate(-35.918 -10.423)" fill="#4b0f6e"/>
  <path id="Trazado_606530" data-name="Trazado 606530" d="M211.71,70.477V57.719h5.408a3.646,3.646,0,0,1,1.614.361,4.253,4.253,0,0,1,1.286.967,4.47,4.47,0,0,1,.852,1.368,4.043,4.043,0,0,1,.3,1.549,4.475,4.475,0,0,1-.5,2.049,4.3,4.3,0,0,1-1.385,1.581,3.545,3.545,0,0,1-2.081.615h-3.015v4.277H211.71Zm2.483-6.449h2.876a1.362,1.362,0,0,0,.811-.254,1.732,1.732,0,0,0,.574-.729,2.563,2.563,0,0,0,.213-1.09,2.4,2.4,0,0,0-.246-1.131,1.715,1.715,0,0,0-.631-.7,1.573,1.573,0,0,0-.836-.238h-2.77v4.13Z" transform="translate(-38.232 -10.423)" fill="#4b0f6e"/>
  <path id="Trazado_606531" data-name="Trazado 606531" d="M225.66,65.654V57.6h2.409v8.055Zm0,4.8V67.743h2.409v2.712Z" transform="translate(-40.751 -10.402)" fill="#4b0f6e"/>
  <path id="Trazado_606532" data-name="Trazado 606532" d="M250.554,83.479H170.03v5.236h80.524Z" transform="translate(-30.705 -15.075)" fill="#fff2db"/>
  <path id="Trazado_606533" data-name="Trazado 606533" d="M239.566,99.009H170.03v5.236h69.536Z" transform="translate(-30.705 -17.88)" fill="#fff2db"/>
  <path id="Trazado_606534" data-name="Trazado 606534" d="M216.155,114.529H170.03v5.236h46.125Z" transform="translate(-30.705 -20.682)" fill="#fff2db"/>
  <path id="Trazado_606535" data-name="Trazado 606535" d="M244.63,130.049h-74.6v5.236h74.6Z" transform="translate(-30.705 -23.485)" fill="#fff2db"/>
  <path id="Trazado_606536" data-name="Trazado 606536" d="M140.776,131.84c-2.4-5.957-10.7-10.218-14.946-10.161H111.506c-4.712.442-12.545,4.2-14.946,10.161a31.639,31.639,0,0,0,44.216,0Z" transform="translate(-17.437 -21.973)" fill="#31241c"/>
  <path id="Trazado_606537" data-name="Trazado 606537" d="M115.884,106.749s-1.368,11.267-2.319,17.642c-.688,4.654,16.011,5.965,16.519.942.442-5.949.951-16.036.951-16.036" transform="translate(-20.505 -19.277)" fill="#c97440"/>
  <path id="Trazado_606538" data-name="Trazado 606538" d="M115.57,111.928l.68-5.179,15.159,2.548s-.156,3.1-.369,6.99a14.405,14.405,0,0,1-3.335.656,14.578,14.578,0,0,1-12.127-5.015Z" transform="translate(-20.87 -19.277)" fill="#bf7141"/>
  <path id="Trazado_606539" data-name="Trazado 606539" d="M140.087,89.488a14.626,14.626,0,1,1-29.171,2.18l-1.155-15.421a14.626,14.626,0,0,1,29.171-2.18Z" transform="translate(-19.814 -10.932)" fill="#c97440"/>
  <path id="Trazado_606540" data-name="Trazado 606540" d="M122.255,80.744a7.671,7.671,0,0,0,4.925-3.065c.615-.852-.8-1.663-1.4-.819a6.09,6.09,0,0,1-3.958,2.319C120.8,79.4,121.231,80.965,122.255,80.744Z" transform="translate(-21.894 -13.815)" fill="#31241c"/>
  <path id="Trazado_606541" data-name="Trazado 606541" d="M141.8,77.3a3.213,3.213,0,0,1-2.417-1.778c-.508-.918-1.909-.1-1.4.819a4.735,4.735,0,0,0,3.384,2.524C142.394,79.052,142.829,77.487,141.8,77.3Z" transform="translate(-24.899 -13.565)" fill="#31241c"/>
  <path id="Trazado_606542" data-name="Trazado 606542" d="M133.49,93.124a.6.6,0,0,1-.41-.156.612.612,0,0,1-.049-.869l1.95-2.188-2.245-.934a.625.625,0,0,1-.336-.8.618.618,0,0,1,.8-.336l3.04,1.262a.607.607,0,0,1,.361.434.631.631,0,0,1-.139.549l-2.532,2.835a.6.6,0,0,1-.459.2Z" transform="translate(-23.902 -15.854)" fill="#31241c"/>
  <path id="Trazado_606543" data-name="Trazado 606543" d="M129.095,101.16a.6.6,0,0,1-.5-.262.617.617,0,0,1,.148-.86c2.417-1.713,4.589-2.4,6.465-2.049a.617.617,0,0,1-.229,1.213c-1.524-.287-3.384.328-5.523,1.844a.623.623,0,0,1-.352.115Z" transform="translate(-23.202 -17.679)" fill="#31241c"/>
  <path id="Trazado_606544" data-name="Trazado 606544" d="M128.4,87.713a1.777,1.777,0,1,1-1.3-2.155A1.788,1.788,0,0,1,128.4,87.713Z" transform="translate(-22.554 -15.441)" fill="#1a191f"/>
  <path id="Trazado_606545" data-name="Trazado 606545" d="M141.367,86.944a1.781,1.781,0,1,1-1.3-2.147A1.782,1.782,0,0,1,141.367,86.944Z" transform="translate(-24.895 -15.304)" fill="#1a191f"/>
  <path id="Trazado_606546" data-name="Trazado 606546" d="M112.215,92.555a5.312,5.312,0,1,1-10.325,2.507l-.393-1.631a5.312,5.312,0,0,1,10.325-2.507Z" transform="translate(-18.302 -15.687)" fill="#c97440"/>
  <path id="Trazado_606547" data-name="Trazado 606547" d="M104.134,81.194c-1.246-3.556-7.334-18.019,1.713-18.453.565-5.679,8.456-8.669,18.314-10.611s16,2.688,15.258,7.3-6.8,6.3-11.6,4.933c-1.377,4.99-7.989,3.311-9.423,2.311-1.106,4.835-6.6,6.006-5.974,9.374s.9,6.8,1.032,7.489-2.745,2.032-3.368.656-3.089-3.835-5.941-3Z" transform="translate(-18.235 -9.332)" fill="#31241c"/>
  <path id="Trazado_606548" data-name="Trazado 606548" d="M138.025,173.04c5.982,1.188,2.557-19.109,2.516-22.173l-.41.41c12.881.115,25.754.148,38.635.033,9.2-.082,18.4-.32,27.614-.32,5.662,0,11.292-.2,16.945-.426,6.064-.238,12.111-.213,18.011-1.786,11.3-3,15.413-14.954,16.585-25.435.057-.524-.762-.516-.819,0-.869,7.784-3.229,16.315-9.489,21.493-4.72,3.909-11.668,4.4-17.519,4.687-5.826.287-11.677.533-17.511.615-18.453.262-36.923.442-55.384.4q-8.53-.025-17.068-.09a.416.416,0,0,0-.41.41c.033,2.581,2.7,22.214-1.475,21.387-.516-.1-.737.688-.221.787Z" transform="translate(-24.872 -22.203)" fill="#1f0e03"/>
  <path id="Trazado_606549" data-name="Trazado 606549" d="M283.884,80.553c0,10.177.443,20.411-.254,30.58-.033.524.787.524.819,0,.7-10.161.254-20.4.254-30.58A.41.41,0,0,0,283.884,80.553Z" transform="translate(-51.219 -14.476)" fill="#1f0e03"/>
  <path id="Trazado_606550" data-name="Trazado 606550" d="M479.145,150.689h119.7a32.621,32.621,0,0,1,32.6,32.6v42.954a32.621,32.621,0,0,1-32.6,32.6h-119.7a32.621,32.621,0,0,1-32.6-32.6V183.294A32.621,32.621,0,0,1,479.145,150.689Z" transform="translate(-80.639 -27.212)" fill="#7e19b8"/>
  <path id="Trazado_606551" data-name="Trazado 606551" d="M489.349,299.191c-5.6,5.3-10.177,5.3-10.169,0s.033-13.987.041-19.3a9.966,9.966,0,0,1,10.185-9.645h20.33c5.588,0,5.58,4.343-.016,9.645Z" transform="translate(-86.533 -48.803)" fill="#7e19b8"/>
  <path id="Trazado_606552" data-name="Trazado 606552" d="M487.053,180.822h-4.228v10.972h-2.557V180.822H476.04v-2.253h11.013Z" transform="translate(-85.966 -32.247)" fill="#4b0f6e"/>
  <path id="Trazado_606553" data-name="Trazado 606553" d="M502.6,178.559v13.225h-2.557v-5.646h-6v5.646H491.47V178.559h2.573v5.351h6v-5.351Z" transform="translate(-88.752 -32.245)" fill="#4b0f6e"/>
  <path id="Trazado_606554" data-name="Trazado 606554" d="M511.732,178.559h2.606l4.859,13.225H516.55l-1.1-3.294h-4.859l-1.106,3.294H506.84l4.884-13.225Zm3.122,8.12-1.819-5.457-1.827,5.457Z" transform="translate(-91.528 -32.245)" fill="#4b0f6e"/>
  <path id="Trazado_606555" data-name="Trazado 606555" d="M526.273,183.3v8.5H523.7V178.569h2.049l6.842,8.719v-8.7h2.573v13.209h-2.147Z" transform="translate(-94.573 -32.247)" fill="#4b0f6e"/>
  <path id="Trazado_606556" data-name="Trazado 606556" d="M541.05,191.789V178.564h2.573v6.285l5.556-6.309h2.835l-5.064,5.875,5.384,7.367h-2.909l-4.122-5.711-1.68,1.754v3.958H541.05Z" transform="translate(-97.706 -32.242)" fill="#4b0f6e"/>
  <path id="Trazado_606557" data-name="Trazado 606557" d="M563.932,182.009a3.064,3.064,0,0,0-.475-.352,4.942,4.942,0,0,0-.836-.426,8.667,8.667,0,0,0-1.073-.361,4.386,4.386,0,0,0-1.172-.156,2.62,2.62,0,0,0-1.573.393,1.282,1.282,0,0,0-.533,1.09,1.11,1.11,0,0,0,.336.852,2.621,2.621,0,0,0,1.008.541c.451.148,1.008.311,1.68.483a11.935,11.935,0,0,1,2.262.77,3.659,3.659,0,0,1,1.475,1.188,3.293,3.293,0,0,1,.516,1.934,3.885,3.885,0,0,1-.393,1.811,3.222,3.222,0,0,1-1.082,1.213,4.906,4.906,0,0,1-1.565.68,7.984,7.984,0,0,1-1.86.213,9.508,9.508,0,0,1-1.975-.2,10.659,10.659,0,0,1-1.9-.59,8.987,8.987,0,0,1-1.68-.926l1.139-2.221a3.612,3.612,0,0,0,.6.442,8.062,8.062,0,0,0,1.041.541,8.615,8.615,0,0,0,1.344.459,5.967,5.967,0,0,0,1.475.188,2.881,2.881,0,0,0,1.581-.352,1.122,1.122,0,0,0,.541-.992,1.1,1.1,0,0,0-.426-.926,3.873,3.873,0,0,0-1.2-.582c-.508-.164-1.115-.352-1.811-.549a11.473,11.473,0,0,1-2.089-.787,3.008,3.008,0,0,1-1.246-1.106,3.158,3.158,0,0,1-.41-1.672,3.809,3.809,0,0,1,.647-2.27,3.991,3.991,0,0,1,1.745-1.393,6.18,6.18,0,0,1,2.442-.475,7.209,7.209,0,0,1,1.762.2,9.172,9.172,0,0,1,1.557.541,8.874,8.874,0,0,1,1.3.729l-1.139,2.09Z" transform="translate(-100.241 -32.229)" fill="#4b0f6e"/>
  <path id="Trazado_606558" data-name="Trazado 606558" d="M570.49,186.8v-8.35h2.5v8.35Zm0,4.974v-2.811h2.5v2.811Z" transform="translate(-103.022 -32.225)" fill="#4b0f6e"/>
  <path id="Trazado_606559" data-name="Trazado 606559" d="M556.5,205.279H473.02V210.7H556.5Z" transform="translate(-85.42 -37.07)" fill="#fff2db"/>
  <path id="Trazado_606560" data-name="Trazado 606560" d="M545.112,221.369H473.02V226.8h72.092Z" transform="translate(-85.42 -39.976)" fill="#fff2db"/>
  <path id="Trazado_606561" data-name="Trazado 606561" d="M520.841,237.459H473.02v5.424h47.821Z" transform="translate(-85.42 -42.882)" fill="#fff2db"/>
  <path id="Trazado_606562" data-name="Trazado 606562" d="M598.29,255.087c2.491-6.178,11.095-10.6,15.5-10.538h14.848c4.884.459,13,4.359,15.5,10.538a32.807,32.807,0,0,1-45.838,0Z" transform="translate(-108.042 -44.162)" fill="#31241c"/>
  <path id="Trazado_606563" data-name="Trazado 606563" d="M630.2,229.079s1.426,11.685,2.4,18.289c.713,4.826-16.6,6.178-17.126.983-.459-6.17-.992-16.626-.992-16.626" transform="translate(-110.966 -41.368)" fill="#c97440"/>
  <path id="Trazado_606564" data-name="Trazado 606564" d="M630.9,234.456l-.7-5.367-15.708,2.647s.164,3.212.385,7.244a15.064,15.064,0,0,0,16.036-4.515Z" transform="translate(-110.968 -41.37)" fill="#bf7141"/>
  <path id="Trazado_606565" data-name="Trazado 606565" d="M602.151,211.192a15.16,15.16,0,1,0,30.236,2.253l1.2-15.987a15.16,15.16,0,0,0-30.236-2.262Z" transform="translate(-108.732 -32.716)" fill="#c97440"/>
  <path id="Trazado_606566" data-name="Trazado 606566" d="M626.346,200.728a4.624,4.624,0,0,0-4.458-2.475c-1.032.123-1.041,1.745,0,1.622a3.034,3.034,0,0,1,3.048,1.663c.483.934,1.885.107,1.4-.819Z" transform="translate(-112.164 -35.797)" fill="#31241c"/>
  <path id="Trazado_606567" data-name="Trazado 606567" d="M607.1,200.148a3.477,3.477,0,0,1,3.032-1.008c1.016.246,1.45-1.319.434-1.565A5.137,5.137,0,0,0,605.95,199C605.228,199.763,606.376,200.91,607.1,200.148Z" transform="translate(-109.384 -35.66)" fill="#31241c"/>
  <path id="Trazado_606568" data-name="Trazado 606568" d="M614.966,214.941a.6.6,0,0,1-.459-.2l-2.622-2.934a.607.607,0,0,1-.139-.549.622.622,0,0,1,.361-.434l3.155-1.311a.616.616,0,0,1,.467,1.139l-2.352.975,2.049,2.286a.612.612,0,0,1-.049.869.6.6,0,0,1-.41.156Z" transform="translate(-110.469 -37.826)" fill="#31241c"/>
  <path id="Trazado_606569" data-name="Trazado 606569" d="M614.621,225.058c-1.68,0-2.827-1.786-3.482-5.457a.6.6,0,0,1,.164-.533.639.639,0,0,1,.533-.18,27.132,27.132,0,0,0,4.253.311c.975,0,2.04-.041,3.253-.123a.632.632,0,0,1,.565.287.586.586,0,0,1,0,.631c-2.008,3.4-3.737,5.056-5.285,5.056Zm-2.106-4.843c.516,2.311,1.27,3.614,2.106,3.614.541,0,1.7-.475,3.614-3.458a33.083,33.083,0,0,1-5.719-.148Z" transform="translate(-110.361 -39.527)" fill="#31241c"/>
  <path id="Trazado_606570" data-name="Trazado 606570" d="M620.407,209.346a1.522,1.522,0,1,0-.008,0Z" transform="translate(-112.025 -37.393)" fill="#1a191f"/>
  <path id="Trazado_606571" data-name="Trazado 606571" d="M606.958,208.546a1.844,1.844,0,1,0,1.352-2.229A1.844,1.844,0,0,0,606.958,208.546Z" transform="translate(-109.598 -37.248)" fill="#1a191f"/>
  <path id="Trazado_606572" data-name="Trazado 606572" d="M635.485,214.37a5.507,5.507,0,1,0,10.7,2.606l.41-1.688a5.507,5.507,0,1,0-10.7-2.606Z" transform="translate(-114.731 -37.648)" fill="#c97440"/>
  <path id="Trazado_606573" data-name="Trazado 606573" d="M637.583,202.6c1.295-3.687,7.6-18.683-1.778-19.133-.582-5.892-8.768-8.989-18.986-11s-16.593,2.786-15.823,7.571,7.055,6.531,12.029,5.113c1.426,5.179,8.284,3.425,9.767,2.393,1.147,5.015,6.842,6.228,6.195,9.718s-.942,7.055-1.065,7.768,2.843,2.1,3.5.68,3.2-3.974,6.162-3.106Z" transform="translate(-108.52 -31.06)" fill="#31241c"/>
  <path id="Trazado_606574" data-name="Trazado 606574" d="M631.854,275.091c12.037-.475,24.935-8.137,27.5-20.576.107-.516-.68-.737-.787-.221-2.491,12.078-15.02,19.51-26.7,19.969-.524.025-.533.844,0,.819Z" transform="translate(-114.034 -45.869)" fill="#1f0e03"/>
  <path id="Trazado_606575" data-name="Trazado 606575" d="M619.7,279.638c2.2.082,4.392.123,6.588.172a.41.41,0,0,0,0-.819c-2.2-.049-4.392-.09-6.588-.172C619.17,278.8,619.178,279.622,619.7,279.638Z" transform="translate(-111.838 -50.351)" fill="#1f0e03"/>
  <path id="Trazado_606576" data-name="Trazado 606576" d="M491.207,297.616c4.13-3.712,8.268-7.408,12.144-11.382,1.795-1.836,3.392-4.236,5.564-5.695a8.634,8.634,0,0,1,4.376-1.09c2.95-.172,5.924-.09,8.882-.131,5.359-.074,10.71-.361,16.077-.352,5.744.008,11.488.27,17.224.533,11.177.508,22.378,1.041,33.53-.115.516-.057.524-.877,0-.819-11.414,1.172-22.87.6-34.3.074-6.006-.27-12.021-.508-18.035-.5-5.367.008-10.734.311-16.1.369-3.663.041-8.759-.77-12.054,1.311-2.04,1.295-3.573,3.556-5.2,5.269-3.991,4.212-8.366,8.055-12.676,11.931-.393.352.188.934.582.582Z" transform="translate(-88.579 -50.228)" fill="#1f0e03"/>
  <path id="Trazado_606577" data-name="Trazado 606577" d="M371.258,59.379H530.176a17.073,17.073,0,0,1,17.068,17.068V92.336A17.073,17.073,0,0,1,530.176,109.4H371.258A17.073,17.073,0,0,1,354.19,92.336V76.447A17.073,17.073,0,0,1,371.258,59.379Z" transform="translate(-63.962 -10.723)" fill="#ecdcf5"/>
  <path id="Trazado_606578" data-name="Trazado 606578" d="M384.177,73.759c.6-1.213,1.573-1.213,2.171,0l1.909,3.868a5.248,5.248,0,0,0,3.523,2.557l4.269.623c1.336.2,1.639,1.123.672,2.073l-3.089,3.015a5.247,5.247,0,0,0-1.344,4.138l.729,4.253c.229,1.336-.565,1.909-1.762,1.278l-3.827-2.007a5.237,5.237,0,0,0-4.351,0l-3.818,2.007c-1.2.631-1.991.057-1.762-1.278l.729-4.253a5.247,5.247,0,0,0-1.344-4.138L373.8,82.879c-.967-.942-.664-1.876.672-2.073l4.269-.623a5.267,5.267,0,0,0,3.523-2.557l1.909-3.868Z" transform="translate(-67.4 -13.155)" fill="#4b0f6e"/>
  <path id="Trazado_606579" data-name="Trazado 606579" d="M425.849,73.759c.6-1.213,1.573-1.213,2.18,0l1.909,3.868a5.249,5.249,0,0,0,3.523,2.557l4.269.623c1.336.2,1.639,1.123.672,2.073l-3.089,3.015a5.247,5.247,0,0,0-1.344,4.138l.729,4.253c.229,1.336-.565,1.909-1.762,1.278l-3.818-2.007a5.237,5.237,0,0,0-4.351,0l-3.827,2.007c-1.2.631-1.991.049-1.762-1.278l.729-4.253a5.247,5.247,0,0,0-1.344-4.138l-3.089-3.015c-.967-.942-.664-1.876.672-2.073l4.269-.623a5.267,5.267,0,0,0,3.523-2.557Z" transform="translate(-74.927 -13.155)" fill="#4b0f6e"/>
  <path id="Trazado_606580" data-name="Trazado 606580" d="M467.511,73.759c.6-1.213,1.581-1.213,2.18,0l1.909,3.868a5.249,5.249,0,0,0,3.523,2.557l4.269.623c1.336.2,1.639,1.123.672,2.073l-3.089,3.015a5.247,5.247,0,0,0-1.344,4.138l.729,4.253c.229,1.336-.565,1.909-1.762,1.278l-3.818-2.007a5.238,5.238,0,0,0-4.351,0l-3.818,2.007c-1.2.631-1.991.057-1.762-1.278l.729-4.253a5.247,5.247,0,0,0-1.344-4.138l-3.089-3.015c-.967-.942-.664-1.876.672-2.073l4.269-.623a5.267,5.267,0,0,0,3.523-2.557l1.909-3.868Z" transform="translate(-82.452 -13.155)" fill="#4b0f6e"/>
  <path id="Trazado_606581" data-name="Trazado 606581" d="M509.181,73.759c.6-1.213,1.581-1.213,2.18,0l1.909,3.868a5.248,5.248,0,0,0,3.523,2.557l4.269.623c1.336.2,1.639,1.123.672,2.073l-3.089,3.015a5.247,5.247,0,0,0-1.344,4.138l.729,4.253c.229,1.336-.565,1.909-1.762,1.278l-3.818-2.007a5.238,5.238,0,0,0-4.351,0l-3.818,2.007c-1.2.631-1.991.057-1.762-1.278l.729-4.253a5.247,5.247,0,0,0-1.344-4.138l-3.089-3.015c-.967-.942-.664-1.876.672-2.073l4.269-.623a5.267,5.267,0,0,0,3.523-2.557l1.909-3.868Z" transform="translate(-89.977 -13.155)" fill="#4b0f6e"/>
  <path id="Trazado_606582" data-name="Trazado 606582" d="M550.851,73.759c.6-1.213,1.581-1.213,2.18,0l1.909,3.868a5.248,5.248,0,0,0,3.523,2.557l4.269.623c1.336.2,1.639,1.123.672,2.073l-3.089,3.015a5.247,5.247,0,0,0-1.344,4.138l.729,4.253c.229,1.336-.565,1.909-1.762,1.278l-3.818-2.007a5.238,5.238,0,0,0-4.351,0l-3.818,2.007c-1.2.631-1.991.057-1.762-1.278l.729-4.253a5.247,5.247,0,0,0-1.344-4.138l-3.089-3.015c-.967-.942-.664-1.876.672-2.073l4.269-.623a5.267,5.267,0,0,0,3.523-2.557l1.909-3.868Z" transform="translate(-97.502 -13.155)" fill="#4b0f6e"/>
  <path id="Trazado_606583" data-name="Trazado 606583" d="M458.323,117.122c2.7-.033,5.392-.27,8.088-.3a.41.41,0,0,0,0-.819c-2.7.033-5.392.27-8.088.3A.41.41,0,0,0,458.323,117.122Z" transform="translate(-82.695 -20.948)" fill="#1f0e03"/>
  <path id="Trazado_606584" data-name="Trazado 606584" d="M472.773,114.391c9.636-.213,19.273.213,28.9.057,4.81-.082,9.579-.524,14.372-.762,5.039-.246,10.1-.164,15.135-.033,4.818.123,9.628.311,14.454.385a43.643,43.643,0,0,0,9.972-.5c5.351-1.155,7.629-5.49,7.981-10.636.033-.524-.787-.524-.819,0-.2,2.86-.86,5.662-2.983,7.711-1.934,1.86-4.851,2.36-7.416,2.565a111.068,111.068,0,0,1-11.562-.057c-4.54-.115-9.079-.295-13.627-.369-9.071-.156-18.06.787-27.114.91-9.1.115-18.2-.287-27.295-.082a.41.41,0,0,0,0,.819Z" transform="translate(-85.304 -18.512)" fill="#1f0e03"/>
  <path id="Trazado_606585" data-name="Trazado 606585" d="M17.068,204.239H84.5a17.073,17.073,0,0,1,17.068,17.068v19.854A17.073,17.073,0,0,1,84.5,258.23H17.068A17.073,17.073,0,0,1,0,241.162V221.307A17.073,17.073,0,0,1,17.068,204.239Z" transform="translate(0 -36.883)" fill="#ecdcf5"/>
  <path id="Trazado_606586" data-name="Trazado 606586" d="M24.6,243.2a11.5,11.5,0,0,1,.18-2.155,5.827,5.827,0,0,1,.647-1.786,6.277,6.277,0,0,1,1.262-1.557,10.9,10.9,0,0,1,2.04-1.426c.721-.393,1.352-.729,1.893-1.024s1.008-.565,1.385-.811a3.164,3.164,0,0,0,.852-.762,1.421,1.421,0,0,0,.287-.893,1.84,1.84,0,0,0-.287-.992,2.016,2.016,0,0,0-.819-.721,2.864,2.864,0,0,0-1.319-.27,4.135,4.135,0,0,0-1.172.156,4.077,4.077,0,0,0-1,.442,6.661,6.661,0,0,0-.852.647,6.173,6.173,0,0,0-.713.754l-2.237-2.581a7.422,7.422,0,0,1,.983-.8,9.374,9.374,0,0,1,1.475-.819,10.909,10.909,0,0,1,1.893-.631,9.649,9.649,0,0,1,2.221-.254,7.254,7.254,0,0,1,3.048.574,4.5,4.5,0,0,1,1.934,1.581,4.16,4.16,0,0,1,.672,2.368,3.845,3.845,0,0,1-.344,1.663,4.778,4.778,0,0,1-.869,1.27,7.223,7.223,0,0,1-1.147.975,13.353,13.353,0,0,1-1.2.746q-.811.43-1.475.787a10.162,10.162,0,0,0-1.155.721,7.4,7.4,0,0,0-.885.737,4.344,4.344,0,0,0-.672.852h8.022v3.179H24.57Z" transform="translate(-4.437 -41.121)" fill="#4b0f6e"/>
  <path id="Trazado_606587" data-name="Trazado 606587" d="M49.826,246.632v-3.917H42.14v-3.13l8.817-11.316h2.393v11.283h2.319v3.155H53.349v3.917H49.826Zm-4.154-7.08h4.548V233.6Z" transform="translate(-7.61 -41.222)" fill="#4b0f6e"/>
  <path id="Trazado_606588" data-name="Trazado 606588" d="M77.645,223.809,64.592,242.492H60.7L73.72,223.809h3.925Z" transform="translate(-10.961 -40.417)" fill="#4b0f6e"/>
  <path id="Trazado_606589" data-name="Trazado 606589" d="M91.637,231.481h-8.5v-3.212H97.193l-9.26,18.363h-4l7.711-15.151Z" transform="translate(-15.014 -41.222)" fill="#4b0f6e"/>
  <path id="Trazado_606590" data-name="Trazado 606590" d="M71.318,265.418c11.685-2.86,24.713,2.884,35.358-4.31.434-.295.025-1.008-.41-.7-10.521,7.1-23.583,1.393-35.161,4.228-.516.123-.295.918.221.787Z" transform="translate(-12.788 -47.012)" fill="#1f0e03"/>
  <path id="Trazado_606591" data-name="Trazado 606591" d="M118.9,229.523c.18,1.762.09,3.523.336,5.285a40.792,40.792,0,0,1,.557,6.064c-.041,3.9-.369,8.047-2.63,11.357-.3.434.41.844.7.41,1.991-2.9,2.491-6.4,2.688-9.841a27.968,27.968,0,0,0-.107-5.367c-.369-2.647-.459-5.261-.729-7.907C119.671,229.007,118.844,229,118.9,229.523Z" transform="translate(-21.145 -41.378)" fill="#1f0e03"/>
</svg>
