<svg xmlns="http://www.w3.org/2000/svg" width="451.826" height="319.416" viewBox="0 0 451.826 319.416">
  <g id="Grupo_1014976" data-name="Grupo 1014976" transform="translate(-810.674 -612)">
    <rect id="BG" width="451.826" height="319.416" transform="translate(810.674 612)" fill="#e8e8e8" opacity="0.949"/>
    <g id="Group_38" data-name="Group 38" transform="translate(933.836 659.662)">
      <g id="Grupo_1014605" data-name="Grupo 1014605" transform="translate(12.556 17.657)" opacity="0.41">
        <path id="Trazado_604734" data-name="Trazado 604734" d="M242.552,155.861a64.939,64.939,0,0,0-.3-11.08,71.606,71.606,0,0,0-23.848-45.03c-4.65-4.1-9.942-7.767-12.969-13.179-5.1-9.11-4.71-19.578-11.035-28.573a53.51,53.51,0,0,0-25.968-19.634C137.4,27.611,93.962,45.12,97.871,82.508c.015.135.03.331.045.576A13.613,13.613,0,0,1,84.581,97.566c-28.634.682-53.278,22.756-58.55,50.718-3.393,17.985,2.16,37.694,15.314,50.412,9.817,9.5,22.991,14.713,36.175,18.3,26.429,7.186,54.24,8.694,81.491,5.943,25.507-2.571,52.411-9.907,68.908-29.531a64.428,64.428,0,0,0,14.632-37.553Z" transform="translate(-25.057 -35.236)" fill="#e1e2fe"/>
      </g>
      <g id="Grupo_1014606" data-name="Grupo 1014606" transform="translate(92.258 4.798)" opacity="0.31">
        <path id="Trazado_604735" data-name="Trazado 604735" d="M197.342,17.3a6.66,6.66,0,1,0-7.637,5.512A6.66,6.66,0,0,0,197.342,17.3Z" transform="translate(-184.107 -9.574)" fill="#e1e2fe"/>
      </g>
      <g id="Grupo_1014607" data-name="Grupo 1014607" transform="translate(185.487 3.954)" opacity="0.31">
        <path id="Trazado_604736" data-name="Trazado 604736" d="M373.589,14.765a3.438,3.438,0,1,0-3.438-3.438A3.438,3.438,0,0,0,373.589,14.765Z" transform="translate(-370.151 -7.89)" fill="#e1e2fe"/>
      </g>
      <g id="Grupo_1014608" data-name="Grupo 1014608" transform="translate(62.989 21.761)" opacity="0.31">
        <path id="Trazado_604737" data-name="Trazado 604737" d="M134.774,49.145a4.605,4.605,0,1,0-5.582,3.354A4.605,4.605,0,0,0,134.774,49.145Z" transform="translate(-125.699 -43.425)" fill="#e1e2fe"/>
      </g>
      <g id="Grupo_1014609" data-name="Grupo 1014609" transform="translate(3.999 182.917)" opacity="0.31">
        <path id="Trazado_604738" data-name="Trazado 604738" d="M18.469,386A10.488,10.488,0,1,0,7.981,375.509,10.488,10.488,0,0,0,18.469,386Z" transform="translate(-7.981 -365.021)" fill="#e1e2fe"/>
      </g>
      <path id="Trazado_604739" data-name="Trazado 604739" d="M427.769,41.649a11.848,11.848,0,0,0-5.131-15.955c-5.823-2.992-17.013-2.771-20,3.052S408.606,39.564,412.259,45c5.1,7.572,12.518,2.475,15.5-3.347Z" transform="translate(-200.568 -11.872)" fill="#ecf1f7" opacity="0.47"/>
      <path id="Trazado_604740" data-name="Trazado 604740" d="M397.835,397.812a9.078,9.078,0,0,0,12.553-2.706c2.721-4.214,3.4-12.758-.812-15.479s-8.7,3.733-13.119,6.109C390.3,389.047,393.62,395.091,397.835,397.812Z" transform="translate(-196.096 -189.063)" fill="#e1e2fe" opacity="0.47"/>
      <path id="Trazado_604741" data-name="Trazado 604741" d="M38.516,3.062a11.446,11.446,0,0,0-16.181.6c-4.3,4.635-7.026,15.1-2.39,19.4s11.626-2.726,17.634-4.705c8.379-2.761,5.577-10.994.942-15.3Z" transform="translate(-8.745)" fill="#e1e2fe" opacity="0.47"/>
      <path id="Trazado_604742" data-name="Trazado 604742" d="M4.23,70.251A47.174,47.174,0,0,0,.953,99.225c2.33,11.365,9.406,20.095,6.95,32.217-1.493,7.386-1.869,14.227-2.626,21.533-1.558,15,8.183,28.223,20.27,35.364,9.817,5.8,21.322,7.973,32.608,7.817,10.158-.14,20.3-2.014,30.137-4.535,9.486-2.43,18.757-5.633,28.7-4.62,8.268.842,15.715,4.415,23.417,7.081,18.386,6.364,40.65,7.261,57.463-2.425a48.51,48.51,0,0,0,22.7-52.817c-2.06-9.1-5.537-18.261-4.46-27.737.752-6.6,3.773-12.974,3.217-19.6-.366-4.4-2.305-8.529-4.675-12.252C206,65.646,191.516,56.535,176.2,51.519c-14.417-4.726-29.29-8.143-44.3-7.006-31.039,2.35-37.363-2.581-69.083-9.366C42.334,30.763,19.429,46.378,7.447,64.463A42.907,42.907,0,0,0,4.23,70.246Z" transform="translate(0 -17.163)" fill="#e1e2fe" opacity="0.47"/>
      <path id="Trazado_604743" data-name="Trazado 604743" d="M35.647,93.411c-.636,7.161,1.779,14.542-.241,21.633-2.415,8.494-9.416,14.853-12.267,23.192a53.678,53.678,0,0,0,1.107,38.13c2.465,5.788,6.068,11.16,10.989,14.878,7.587,5.733,17.524,6.991,26.875,6.264,13.911-1.082,28.594-7.106,42.58-5.462,7.717.907,10.077,9.261,14.061,14.773A46.168,46.168,0,0,0,136.191,221.2a49.445,49.445,0,0,0,40.289,1.128c13.645-5.813,25.537-20,24.755-36.05-.361-7.426-3.332-14.8-1.959-22.094,1.729-9.155,8.624-17.5,13.625-24.955a57.485,57.485,0,0,0,9.516-28.082c.005-.115.015-.226.02-.341A38.246,38.246,0,0,0,196.1,72.339L161.1,60.824c-35.524-11.681-71.013-11.3-103.675,5.848C50.355,70.38,38.845,81.434,36.474,89.056a20.887,20.887,0,0,0-.832,4.35Z" transform="translate(-10.065 -26.347)" fill="#e1e2fe" opacity="0.81"/>
      <path id="Trazado_604744" data-name="Trazado 604744" d="M445.286,359.061a2.255,2.255,0,1,0-2.255-2.255A2.255,2.255,0,0,0,445.286,359.061Z" transform="translate(-221.022 -176.881)" fill="#3e479b" opacity="0.58"/>
      <path id="Trazado_604745" data-name="Trazado 604745" d="M237.406,8.341a2.255,2.255,0,1,0-2.255-2.255A2.255,2.255,0,0,0,237.406,8.341Z" transform="translate(-117.314 -1.911)" fill="#3e479b" opacity="0.58"/>
      <path id="Trazado_604746" data-name="Trazado 604746" d="M74.836,400.561a2.255,2.255,0,1,0-2.255-2.255A2.255,2.255,0,0,0,74.836,400.561Z" transform="translate(-36.21 -197.585)" fill="#3e479b" opacity="0.58"/>
      <path id="Trazado_604747" data-name="Trazado 604747" d="M359.365,419.479a1.754,1.754,0,1,0-1.754-1.754A1.754,1.754,0,0,0,359.365,419.479Z" transform="translate(-178.407 -207.523)" fill="#d2aee6" opacity="0.58"/>
      <path id="Trazado_604748" data-name="Trazado 604748" d="M56.472,84.974a.752.752,0,1,0-.752-.752A.752.752,0,0,0,56.472,84.974Z" transform="translate(-27.798 -41.642)" fill="#3e479b" opacity="0.58"/>
      <path id="Trazado_604749" data-name="Trazado 604749" d="M371.408,36.973a2.708,2.708,0,1,1-2.085-3.212A2.707,2.707,0,0,1,371.408,36.973Z" transform="translate(-182.618 -16.813)" fill="#d2aee6" opacity="0.58"/>
      <path id="Trazado_604750" data-name="Trazado 604750" d="M85.857,14.121a1.063,1.063,0,1,1-.817-1.263A1.066,1.066,0,0,1,85.857,14.121Z" transform="translate(-41.784 -6.403)" fill="#d2aee6" opacity="0.58"/>
      <path id="Trazado_604751" data-name="Trazado 604751" d="M423.931,5.4a.9.9,0,1,1-.7-1.072A.908.908,0,0,1,423.931,5.4Z" transform="translate(-210.602 -2.152)" fill="#3e479b" opacity="0.58"/>
      <path id="Trazado_604752" data-name="Trazado 604752" d="M42.871,435.034a.9.9,0,1,1-.7-1.072A.908.908,0,0,1,42.871,435.034Z" transform="translate(-20.496 -216.488)" fill="#3e479b" opacity="0.58"/>
      <g id="Grupo_1014610" data-name="Grupo 1014610" transform="translate(34.892 57.688)" opacity="0.66">
        <path id="Trazado_604753" data-name="Trazado 604753" d="M122.077,141.233l-3.989-.306a20.538,20.538,0,0,0-2.731-8.339l3.037-2.606a3.667,3.667,0,1,0-4.776-5.567l-3.037,2.606a20.527,20.527,0,0,0-7.827-3.964l.306-3.989a3.669,3.669,0,0,0-7.316-.561l-.306,3.989a20.538,20.538,0,0,0-8.339,2.731l-2.606-3.037a3.667,3.667,0,1,0-5.567,4.776L81.532,130a20.527,20.527,0,0,0-3.964,7.827l-3.989-.306a3.669,3.669,0,1,0-.561,7.316l3.989.306a20.538,20.538,0,0,0,2.731,8.339L76.7,156.091a3.667,3.667,0,1,0,4.776,5.567l3.037-2.606a20.526,20.526,0,0,0,7.827,3.964l-.306,3.989a3.669,3.669,0,1,0,7.316.561l.306-3.989A20.538,20.538,0,0,0,108,160.847l2.606,3.037a3.667,3.667,0,0,0,5.567-4.776l-2.606-3.037a20.527,20.527,0,0,0,3.964-7.827l3.989.306a3.669,3.669,0,1,0,.561-7.316ZM96.415,157.94a14.944,14.944,0,1,1,16.041-13.761A14.939,14.939,0,0,1,96.415,157.94Z" transform="translate(-69.629 -115.119)" fill="#fff"/>
        <path id="Trazado_604754" data-name="Trazado 604754" d="M320.116,353.408a3.059,3.059,0,0,1-2.906-2.135l-.717-2.26a14.66,14.66,0,0,1-5.482-.471l-1.092,2.1a3.06,3.06,0,0,1-4.119,1.3,3.057,3.057,0,0,1-1.3-4.119l1.092-2.1a14.678,14.678,0,0,1-3.543-4.209l-2.26.717a3.056,3.056,0,0,1-3.638-4.32,3.024,3.024,0,0,1,1.789-1.5l2.26-.717a14.669,14.669,0,0,1,.471-5.482l-2.1-1.092a3.055,3.055,0,0,1,2.816-5.422l2.1,1.092a14.611,14.611,0,0,1,4.209-3.543l-.717-2.26a3.056,3.056,0,0,1,4.32-3.638,3.024,3.024,0,0,1,1.5,1.789l.717,2.26a14.661,14.661,0,0,1,5.482.471l1.092-2.1a3.055,3.055,0,0,1,5.422,2.816l-1.092,2.1a14.678,14.678,0,0,1,3.543,4.209l2.26-.717a3.056,3.056,0,0,1,1.844,5.828l-2.26.717a14.67,14.67,0,0,1-.471,5.482l2.1,1.092a3.06,3.06,0,0,1,1.3,4.119,3.057,3.057,0,0,1-4.119,1.3l-2.1-1.092a14.745,14.745,0,0,1-4.209,3.543l.717,2.26a3.052,3.052,0,0,1-1.989,3.833,3.112,3.112,0,0,1-.927.145Zm-2.921-5.492.967,3.057a2.056,2.056,0,0,0,3.919-1.243l-.967-3.057.371-.2a13.7,13.7,0,0,0,4.515-3.8l.256-.331,2.846,1.478A2.055,2.055,0,1,0,331,340.178l-2.846-1.478.125-.4a13.649,13.649,0,0,0,.506-5.878l-.055-.416,3.057-.967a2.055,2.055,0,0,0-1.238-3.919l-3.057.967-.2-.371a13.7,13.7,0,0,0-3.8-4.515l-.331-.256,1.478-2.846a2.055,2.055,0,1,0-3.648-1.894l-1.478,2.846-.4-.125a13.727,13.727,0,0,0-5.878-.506l-.416.055-.967-3.057a2.056,2.056,0,1,0-3.919,1.243l.967,3.057-.371.2a13.7,13.7,0,0,0-4.515,3.8l-.256.331-2.846-1.478a2.052,2.052,0,1,0-1.889,3.643l2.846,1.478-.125.4a13.65,13.65,0,0,0-.506,5.878l.055.416-3.057.967a2.056,2.056,0,1,0,1.243,3.919l3.057-.967.2.371a13.7,13.7,0,0,0,3.8,4.515l.331.256-1.478,2.846a2.054,2.054,0,0,0,3.648,1.889l1.478-2.846.4.125a13.711,13.711,0,0,0,5.873.506l.416-.055Zm-2.2-2.8a10.838,10.838,0,1,0-.005,0Zm.025-20.831a9.976,9.976,0,0,0-3,.466,9.864,9.864,0,1,0,3-.466Z" transform="translate(-182.465 -214.839)" fill="#fff"/>
        <path id="Trazado_604755" data-name="Trazado 604755" d="M373.755,301.612a4.364,4.364,0,0,1-.566-.04,3.935,3.935,0,0,1-3.327-4.46l.481-3.3a19.587,19.587,0,0,1-6.535-3.889l-2.671,1.989a3.933,3.933,0,1,1-4.705-6.3l2.671-1.989a19.6,19.6,0,0,1-1.869-7.371l-3.3-.481a3.937,3.937,0,0,1,1.133-7.792l3.3.481a19.587,19.587,0,0,1,3.889-6.535l-1.989-2.666A3.94,3.94,0,0,1,363.989,253a3.878,3.878,0,0,1,2.586,1.543l1.989,2.666a19.6,19.6,0,0,1,7.371-1.869l.481-3.3a3.938,3.938,0,0,1,4.46-3.327,3.934,3.934,0,0,1,3.327,4.46l-.481,3.3a19.587,19.587,0,0,1,6.535,3.889l2.671-1.989a3.935,3.935,0,1,1,4.705,6.309l-2.666,1.989a19.6,19.6,0,0,1,1.869,7.371l3.3.481A3.935,3.935,0,1,1,399,282.314l-3.3-.476a19.587,19.587,0,0,1-3.889,6.535l1.989,2.671a3.937,3.937,0,0,1-3.723,6.249,3.9,3.9,0,0,1-2.591-1.543l-1.989-2.666a19.6,19.6,0,0,1-7.371,1.869l-.481,3.3a3.951,3.951,0,0,1-3.894,3.372Zm-9.887-12.989.306.286A18.655,18.655,0,0,0,371.049,293l.4.13-.6,4.119a2.932,2.932,0,0,0,5.8.842l.6-4.119.421-.015a18.533,18.533,0,0,0,7.752-1.969l.376-.185,2.491,3.337a2.934,2.934,0,0,0,4.1.6,2.934,2.934,0,0,0,.6-4.1L390.5,288.3l.286-.306a18.615,18.615,0,0,0,4.094-6.875l.13-.4,4.119.6a2.932,2.932,0,1,0,.842-5.8l-4.119-.6-.015-.421a18.533,18.533,0,0,0-1.969-7.752l-.185-.376,3.337-2.491a2.934,2.934,0,0,0,.6-4.1,2.934,2.934,0,0,0-4.1-.6l-3.337,2.491-.306-.286a18.655,18.655,0,0,0-6.875-4.094l-.4-.13.6-4.119a2.932,2.932,0,0,0-5.8-.842l-.6,4.119-.421.015a18.533,18.533,0,0,0-7.752,1.969l-.376.185-2.491-3.337a2.933,2.933,0,0,0-4.7,3.508l2.491,3.337-.286.306a18.655,18.655,0,0,0-4.094,6.875l-.13.4-4.119-.6a2.935,2.935,0,0,0-2.175.551,2.9,2.9,0,0,0-1.148,1.929,2.937,2.937,0,0,0,2.481,3.322l4.119.6.015.421a18.534,18.534,0,0,0,1.969,7.752l.185.376-3.337,2.491a2.933,2.933,0,0,0,3.508,4.7Zm13.174,1.007a4.8,4.8,0,1,0,0-.005ZM377,261.653a13.558,13.558,0,1,0,1.974.145,13.706,13.706,0,0,0-1.969-.145Z" transform="translate(-209.785 -181.749)" fill="#fff"/>
      </g>
      <g id="Grupo_1014611" data-name="Grupo 1014611" transform="translate(76.901 165.358)" opacity="0.81">
        <path id="Trazado_604756" data-name="Trazado 604756" d="M256.795,357.343H246.5a.5.5,0,1,1,0-1h10.293a.5.5,0,0,1,0,1Z" transform="translate(-199.628 -343.132)" fill="#fff"/>
        <path id="Trazado_604757" data-name="Trazado 604757" d="M256.795,378.693H246.5a.5.5,0,0,1,0-1h10.293a.5.5,0,0,1,0,1Z" transform="translate(-199.628 -353.783)" fill="#fff"/>
        <path id="Trazado_604758" data-name="Trazado 604758" d="M218.4,365.7H154.819a1.359,1.359,0,0,1-1.358-1.358v-33a1.359,1.359,0,0,1,1.358-1.358H218.4a1.359,1.359,0,0,1,1.358,1.358v33A1.359,1.359,0,0,1,218.4,365.7Zm-63.576-34.712a.357.357,0,0,0-.356.356v33a.357.357,0,0,0,.356.356H218.4a.357.357,0,0,0,.356-.356v-33a.357.357,0,0,0-.356-.356Z" transform="translate(-153.461 -329.981)" fill="#fff"/>
        <path id="Trazado_604759" data-name="Trazado 604759" d="M218.4,365.7H154.819a1.359,1.359,0,0,1-1.358-1.358v-33a1.359,1.359,0,0,1,1.358-1.358H218.4a1.359,1.359,0,0,1,1.358,1.358v33A1.359,1.359,0,0,1,218.4,365.7Zm-63.576-34.712a.357.357,0,0,0-.356.356v33a.357.357,0,0,0,.356.356H218.4a.357.357,0,0,0,.356-.356v-33a.357.357,0,0,0-.356-.356Z" transform="translate(-153.461 -329.981)" fill="#fff" opacity="0.66"/>
        <path id="Trazado_604760" data-name="Trazado 604760" d="M218.206,346.973H169.152a.5.5,0,0,1,0-1h49.054a.5.5,0,1,1,0,1Z" transform="translate(-161.039 -337.958)" fill="#fff"/>
        <path id="Trazado_604761" data-name="Trazado 604761" d="M218.206,367.7H169.152a.5.5,0,0,1,0-1h49.054a.5.5,0,1,1,0,1Z" transform="translate(-161.039 -348.3)" fill="#fff"/>
        <path id="Trazado_604762" data-name="Trazado 604762" d="M195.591,357.343H169.142a.5.5,0,1,1,0-1h26.449a.5.5,0,1,1,0,1Z" transform="translate(-161.034 -343.132)" fill="#fff"/>
        <path id="Trazado_604763" data-name="Trazado 604763" d="M195.591,378.693H169.142a.5.5,0,0,1,0-1h26.449a.5.5,0,1,1,0,1Z" transform="translate(-161.034 -353.783)" fill="#fff"/>
        <path id="Trazado_604764" data-name="Trazado 604764" d="M186.987,388.583H169.152a.5.5,0,0,1,0-1h17.835a.5.5,0,0,1,0,1Z" transform="translate(-161.039 -358.717)" fill="#fff"/>
      </g>
      <g id="Grupo_1014612" data-name="Grupo 1014612" transform="translate(13.811 122.312)" opacity="0.81">
        <path id="Trazado_604765" data-name="Trazado 604765" d="M58.973,293.313H47.4a.5.5,0,1,1,0-1H58.973a.5.5,0,1,1,0,1Z" transform="translate(-37.209 -268.142)" fill="#fff"/>
        <path id="Trazado_604766" data-name="Trazado 604766" d="M58.973,269.313H47.4a.5.5,0,1,1,0-1H58.973a.5.5,0,1,1,0,1Z" transform="translate(-37.209 -256.169)" fill="#fff"/>
        <path id="Trazado_604767" data-name="Trazado 604767" d="M100.583,284.095H28.919a1.359,1.359,0,0,1-1.358-1.358v-37.3a1.359,1.359,0,0,1,1.358-1.358h71.664a1.359,1.359,0,0,1,1.358,1.358v37.3A1.359,1.359,0,0,1,100.583,284.095ZM28.919,245.078a.357.357,0,0,0-.356.356v37.3a.357.357,0,0,0,.356.356h71.664a.357.357,0,0,0,.356-.356v-37.3a.357.357,0,0,0-.356-.356Z" transform="translate(-27.561 -244.081)" fill="#fff"/>
        <path id="Trazado_604768" data-name="Trazado 604768" d="M100.583,284.095H28.919a1.359,1.359,0,0,1-1.358-1.358v-37.3a1.359,1.359,0,0,1,1.358-1.358h71.664a1.359,1.359,0,0,1,1.358,1.358v37.3A1.359,1.359,0,0,1,100.583,284.095ZM28.919,245.078a.357.357,0,0,0-.356.356v37.3a.357.357,0,0,0,.356.356h71.664a.357.357,0,0,0,.356-.356v-37.3a.357.357,0,0,0-.356-.356Z" transform="translate(-27.561 -244.081)" fill="#fff" opacity="0.66"/>
        <path id="Trazado_604769" data-name="Trazado 604769" d="M102.545,304.963H47.412a.5.5,0,1,1,0-1h55.132a.5.5,0,1,1,0,1Z" transform="translate(-37.215 -273.954)" fill="#fff"/>
        <path id="Trazado_604770" data-name="Trazado 604770" d="M102.545,281.663H47.412a.5.5,0,1,1,0-1h55.132a.5.5,0,1,1,0,1Z" transform="translate(-37.215 -262.33)" fill="#fff"/>
        <path id="Trazado_604771" data-name="Trazado 604771" d="M127.838,293.313H98.112a.5.5,0,1,1,0-1h29.726a.5.5,0,1,1,0,1Z" transform="translate(-62.508 -268.142)" fill="#fff"/>
        <path id="Trazado_604772" data-name="Trazado 604772" d="M127.838,269.313H98.112a.5.5,0,1,1,0-1h29.726a.5.5,0,1,1,0,1Z" transform="translate(-62.508 -256.169)" fill="#fff"/>
        <path id="Trazado_604773" data-name="Trazado 604773" d="M137.477,258.193H117.432a.5.5,0,1,1,0-1h20.045a.5.5,0,1,1,0,1Z" transform="translate(-72.147 -250.621)" fill="#fff"/>
      </g>
      <path id="Trazado_604774" data-name="Trazado 604774" d="M273.922,147.48l-44.259,74.66a.927.927,0,0,0,.325,1.27l54.835,32.507a.927.927,0,0,0,1.27-.325l44.259-74.66a.927.927,0,0,0-.325-1.27l-54.835-32.507A.927.927,0,0,0,273.922,147.48Z" transform="translate(-114.511 -73.349)" fill="#3e479b" opacity="0.14"/>
      <path id="Trazado_604775" data-name="Trazado 604775" d="M271.078,141.509l-44.259,74.66a.927.927,0,0,0,.325,1.27l54.835,32.507a.927.927,0,0,0,1.27-.325l44.259-74.66a.927.927,0,0,0-.325-1.27l-54.835-32.507A.927.927,0,0,0,271.078,141.509Z" transform="translate(-113.092 -70.37)" fill="#f7a9b4"/>
      <path id="Trazado_604776" data-name="Trazado 604776" d="M305.282,258.226,242.593,246.67a.932.932,0,0,1-.747-1.082l15.735-85.355a.932.932,0,0,1,1.082-.747l62.689,11.556a.932.932,0,0,1,.747,1.082l-15.735,85.355A.932.932,0,0,1,305.282,258.226Z" transform="translate(-120.647 -79.558)" fill="#3e479b" opacity="0.14"/>
      <path id="Trazado_604777" data-name="Trazado 604777" d="M254.909,154.38l-16.063,87.179,64.515,11.887,16.063-87.18Z" transform="translate(-119.157 -77.018)" fill="#fff"/>
      <path id="Trazado_604778" data-name="Trazado 604778" d="M254.893,155.443,239.166,240.8a.927.927,0,0,0,.744,1.079L302.6,253.43a.926.926,0,0,0,1.079-.744l15.727-85.356a.927.927,0,0,0-.744-1.08L255.973,154.7A.927.927,0,0,0,254.893,155.443Z" transform="translate(-119.309 -77.17)" fill="#f7a9b4" opacity="0.39"/>
      <path id="Trazado_604779" data-name="Trazado 604779" d="M364.064,194.736a.278.278,0,0,1-.09-.01l-15.69-2.891a.5.5,0,1,1,.185-.982l15.69,2.891a.5.5,0,0,1-.09.992Z" transform="translate(-173.55 -95.21)" fill="#fff"/>
      <path id="Trazado_604780" data-name="Trazado 604780" d="M362.224,204.746a.277.277,0,0,1-.09-.01l-15.69-2.891a.5.5,0,0,1,.18-.982l15.69,2.891a.5.5,0,0,1-.09.992Z" transform="translate(-172.632 -100.204)" fill="#fff"/>
      <path id="Trazado_604781" data-name="Trazado 604781" d="M360.224,215.616a.277.277,0,0,1-.09-.01l-15.69-2.891a.5.5,0,0,1,.18-.982l15.69,2.891a.5.5,0,0,1-.09.992Z" transform="translate(-171.634 -105.626)" fill="#fff"/>
      <path id="Trazado_604782" data-name="Trazado 604782" d="M277.929,157.98,272.6,186.9a1,1,0,0,0,.8,1.168l26.888,4.954a1,1,0,0,0,1.167-.8l5.328-28.919a1,1,0,0,0-.8-1.167L279.1,157.175A1,1,0,0,0,277.929,157.98Z" transform="translate(-135.988 -78.404)" fill="#3e479b" opacity="0.14"/>
      <path id="Trazado_604783" data-name="Trazado 604783" d="M278.172,158.161l-5.045,27.381a1,1,0,0,0,.8,1.167l25.636,4.724a1,1,0,0,0,1.167-.8l5.045-27.381a1,1,0,0,0-.8-1.167l-25.636-4.724A1,1,0,0,0,278.172,158.161Z" transform="translate(-136.251 -78.495)" fill="#599af2"/>
      <path id="Trazado_604784" data-name="Trazado 604784" d="M309.887,165.843l-27.606-5.086.481-2.611a.971.971,0,0,1,1.138-.782l25.722,4.741a.938.938,0,0,1,.752,1.092Z" transform="translate(-140.826 -78.498)" fill="#ecf1f7" opacity="0.07"/>
      <path id="Trazado_604785" data-name="Trazado 604785" d="M293.672,171.489a3.416,3.416,0,0,1-.591-.055l-.381-.07a3.747,3.747,0,0,1-3-4.36l.962-5.232a.752.752,0,1,1,1.478.276l-.962,5.232a2.245,2.245,0,0,0,1.794,2.611l.381.07a1.744,1.744,0,0,0,2.03-1.4l2.44-13.239a1.8,1.8,0,0,0-1.443-2.095l-.651-.12a1.914,1.914,0,0,0-2.225,1.528l-.06.326a.752.752,0,1,1-1.478-.276l.06-.326A3.417,3.417,0,0,1,296,151.624l.651.12a3.3,3.3,0,0,1,2.646,3.844l-2.44,13.239a3.249,3.249,0,0,1-3.192,2.656Z" transform="translate(-144.495 -75.615)" fill="#3e479b"/>
      <path id="Trazado_604786" data-name="Trazado 604786" d="M292.679,166.8h-.045l-10.017-1.844a.25.25,0,0,1-.2-.291.246.246,0,0,1,.291-.2l10.017,1.844a.25.25,0,0,1-.045.5Z" transform="translate(-140.891 -82.047)" fill="#fff"/>
      <path id="Trazado_604787" data-name="Trazado 604787" d="M315.79,262.676a.278.278,0,0,1-.09-.01l-47.947-8.84a.5.5,0,0,1,.18-.982l47.946,8.84a.5.5,0,0,1-.09.992Z" transform="translate(-133.375 -126.136)" fill="#fff"/>
      <path id="Trazado_604788" data-name="Trazado 604788" d="M308.95,299.779a.278.278,0,0,1-.09-.01l-47.946-8.84a.5.5,0,0,1-.4-.586.5.5,0,0,1,.581-.4l47.947,8.84a.5.5,0,0,1-.09,1Z" transform="translate(-129.962 -144.644)" fill="#fff"/>
      <path id="Trazado_604789" data-name="Trazado 604789" d="M287.089,276.563a.278.278,0,0,1-.09-.01l-22.665-4.179a.5.5,0,0,1,.18-.982l22.665,4.179a.5.5,0,0,1-.09,1Z" transform="translate(-131.668 -135.389)" fill="#fff"/>
      <path id="Trazado_604790" data-name="Trazado 604790" d="M293.319,242.754a.278.278,0,0,1-.09-.01l-22.665-4.179a.5.5,0,1,1,.18-.982l22.665,4.179a.5.5,0,0,1-.09,1Z" transform="translate(-134.776 -118.523)" fill="#fff"/>
      <path id="Trazado_604791" data-name="Trazado 604791" d="M338.632,285.919a.277.277,0,0,1-.09-.01l-21.6-3.979a.5.5,0,0,1,.185-.987l21.6,3.979a.5.5,0,0,1-.09,1Z" transform="translate(-157.915 -140.154)" fill="#fff"/>
      <path id="Trazado_604792" data-name="Trazado 604792" d="M322.3,69.871H295.65a1.669,1.669,0,0,0-1.669,1.669v8.915a1.669,1.669,0,0,0,1.669,1.669H322.3a1.669,1.669,0,0,0,1.669-1.669V71.54A1.669,1.669,0,0,0,322.3,69.871Z" transform="translate(-146.663 -34.858)" fill="#599af2"/>
      <path id="Trazado_604793" data-name="Trazado 604793" d="M351.787,87.861H314.51a1.669,1.669,0,0,0-1.669,1.669v13.259a1.669,1.669,0,0,0,1.669,1.669h37.278a1.669,1.669,0,0,0,1.669-1.669V89.53A1.669,1.669,0,0,0,351.787,87.861Z" transform="translate(-156.072 -43.833)" fill="#f7a9b4"/>
      <path id="Trazado_604794" data-name="Trazado 604794" d="M371.668,113.981H330.386a2.265,2.265,0,0,0-2.265,2.265v12.648a2.265,2.265,0,0,0,2.265,2.265h41.282a2.265,2.265,0,0,0,2.265-2.265V116.246A2.265,2.265,0,0,0,371.668,113.981Z" transform="translate(-163.695 -56.864)" fill="#fff"/>
      <path id="Trazado_604795" data-name="Trazado 604795" d="M371.668,113.981H330.386a2.265,2.265,0,0,0-2.265,2.265v12.648a2.265,2.265,0,0,0,2.265,2.265h41.282a2.265,2.265,0,0,0,2.265-2.265V116.246A2.265,2.265,0,0,0,371.668,113.981Z" transform="translate(-163.695 -56.864)" fill="#6d6cd4" opacity="0.74"/>
      <path id="Trazado_604796" data-name="Trazado 604796" d="M388.54,131.18a1.989,1.989,0,1,1,1.989-1.989A1.991,1.991,0,0,1,388.54,131.18Zm0-3.478a1.488,1.488,0,1,0,1.488,1.488A1.488,1.488,0,0,0,388.54,127.7Z" transform="translate(-192.845 -63.459)" fill="#fff"/>
      <path id="Trazado_604797" data-name="Trazado 604797" d="M372.16,131.18a1.989,1.989,0,1,1,1.989-1.989A1.991,1.991,0,0,1,372.16,131.18Zm0-3.478a1.488,1.488,0,1,0,1.488,1.488A1.488,1.488,0,0,0,372.16,127.7Z" transform="translate(-184.673 -63.459)" fill="#fff"/>
      <path id="Trazado_604798" data-name="Trazado 604798" d="M356.88,131.18a1.989,1.989,0,1,1,1.989-1.989A1.991,1.991,0,0,1,356.88,131.18Zm0-3.478a1.488,1.488,0,1,0,1.488,1.488A1.489,1.489,0,0,0,356.88,127.7Z" transform="translate(-177.05 -63.459)" fill="#fff"/>
      <path id="Trazado_604799" data-name="Trazado 604799" d="M128.953,72.271h63.962a2.334,2.334,0,0,1,2.335,2.335v94.209a8.048,8.048,0,0,1-8.048,8.048H142.789a17.148,17.148,0,0,1-17.148-17.148V75.583A3.313,3.313,0,0,1,128.953,72.271Z" transform="translate(-62.681 -36.055)" fill="#fff"/>
      <path id="Trazado_604800" data-name="Trazado 604800" d="M126.458,72.271H194a1.253,1.253,0,0,1,1.253,1.253v95.667a7.669,7.669,0,0,1-7.672,7.672H141.266a15.625,15.625,0,0,1-15.625-15.625V73.083a.812.812,0,0,1,.812-.812Z" transform="translate(-62.681 -36.055)" fill="#6d6cd4" opacity="0.39"/>
      <path id="Trazado_604801" data-name="Trazado 604801" d="M138.537,72.271H200.42a.986.986,0,0,1,.987.987v96.194A7.41,7.41,0,0,1,194,176.863h-40.65A15.363,15.363,0,0,1,137.981,161.5V72.822a.55.55,0,0,1,.551-.551Z" transform="translate(-68.837 -36.055)" fill="#3e479b" opacity="0.39"/>
      <path id="Trazado_604802" data-name="Trazado 604802" d="M157.371,264.967v.02H213.28a11.651,11.651,0,0,0,11.651-11.651v-4.425H168.39v4.425a11.652,11.652,0,0,1-11.019,11.636Z" transform="translate(-78.51 -124.178)" fill="#6161b5"/>
      <g id="Grupo_1014613" data-name="Grupo 1014613" transform="translate(86.272 124.733)" opacity="0.28">
        <path id="Trazado_604803" data-name="Trazado 604803" d="M172.161,264.967v.02h49.776c5.728,0,10.373-5.217,10.373-11.651v-4.425H181.973v4.425c0,6.224-4.345,11.305-9.812,11.636Z" transform="translate(-172.161 -248.911)" fill="#3e479b"/>
      </g>
      <path id="Trazado_604804" data-name="Trazado 604804" d="M202.951,223.853h-40.2a.5.5,0,1,1,0-1h40.2a.5.5,0,1,1,0,1Z" transform="translate(-80.945 -111.177)" fill="#fff"/>
      <path id="Trazado_604805" data-name="Trazado 604805" d="M203.045,190.073H161.252a.5.5,0,1,1,0-1h41.793a.5.5,0,1,1,0,1Z" transform="translate(-80.197 -94.325)" fill="#fff"/>
      <path id="Trazado_604806" data-name="Trazado 604806" d="M181.6,206.943H160.242a.5.5,0,0,1,0-1H181.6a.5.5,0,0,1,0,1Z" transform="translate(-79.693 -102.741)" fill="#fff"/>
      <path id="Trazado_604807" data-name="Trazado 604807" d="M181.592,206.943h-18.12a.5.5,0,1,1,0-1h18.12a.5.5,0,1,1,0,1Z" transform="translate(-81.304 -102.741)" fill="#fff"/>
      <path id="Trazado_604808" data-name="Trazado 604808" d="M189.343,153.963H161.832a.5.5,0,0,1,0-1h27.511a.5.5,0,1,1,0,1Z" transform="translate(-80.486 -76.31)" fill="#fff"/>
      <path id="Trazado_604809" data-name="Trazado 604809" d="M233.841,153.963h-8.379a.5.5,0,0,1,0-1h8.379a.5.5,0,1,1,0,1Z" transform="translate(-112.23 -76.31)" fill="#fff"/>
      <path id="Trazado_604810" data-name="Trazado 604810" d="M214.993,170.833H185.2a.5.5,0,1,1,0-1h29.791a.5.5,0,0,1,0,1Z" transform="translate(-92.145 -84.726)" fill="#fff"/>
      <path id="Trazado_604811" data-name="Trazado 604811" d="M170.312,170.833h-9.06a.5.5,0,1,1,0-1h9.06a.5.5,0,1,1,0,1Z" transform="translate(-80.197 -84.726)" fill="#fff"/>
      <path id="Trazado_604812" data-name="Trazado 604812" d="M202.951,139.673h-40.2a.5.5,0,1,1,0-1h40.2a.5.5,0,1,1,0,1Z" transform="translate(-80.945 -69.181)" fill="#fff"/>
      <path id="Trazado_604813" data-name="Trazado 604813" d="M202.951,105.893h-40.2a.5.5,0,1,1,0-1h40.2a.5.5,0,1,1,0,1Z" transform="translate(-80.945 -52.329)" fill="#fff"/>
      <path id="Trazado_604814" data-name="Trazado 604814" d="M177.046,122.773H161.832a.5.5,0,0,1,0-1h15.214a.5.5,0,0,1,0,1Z" transform="translate(-80.486 -60.75)" fill="#fff"/>
      <path id="Trazado_604815" data-name="Trazado 604815" d="M224.322,122.773H206.2a.5.5,0,1,1,0-1h18.12a.5.5,0,0,1,0,1Z" transform="translate(-102.622 -60.75)" fill="#fff"/>
      <path id="Trazado_604816" data-name="Trazado 604816" d="M296.827,186.72a31.715,31.715,0,1,0-44.852,0A31.715,31.715,0,0,0,296.827,186.72Z" transform="translate(-121.073 -66.142)" fill="#fff" opacity="0.21"/>
      <path id="Trazado_604817" data-name="Trazado 604817" d="M254.385,169.54a2,2,0,0,1-2-2A29.048,29.048,0,0,1,281.4,138.521a2,2,0,0,1,0,4.009,25.034,25.034,0,0,0-25.006,25.006A2,2,0,0,1,254.385,169.54Z" transform="translate(-125.91 -69.106)" fill="#fff" opacity="0.76"/>
      <path id="Trazado_604818" data-name="Trazado 604818" d="M273.4,196.017A32.718,32.718,0,1,1,306.116,163.3,32.755,32.755,0,0,1,273.4,196.017Zm0-63.431A30.713,30.713,0,1,0,304.112,163.3,30.748,30.748,0,0,0,273.4,132.586Z" transform="translate(-120.073 -65.146)" fill="#3e479b" opacity="0.58"/>
      <path id="Trazado_604819" data-name="Trazado 604819" d="M298.278,181.749a1.812,1.812,0,0,1,.15-.125,37.123,37.123,0,1,0-6.785,6.755l4.28-4.28,2.35-2.35Zm-29.15,8.99a31.715,31.715,0,1,1,31.715-31.715A31.715,31.715,0,0,1,269.128,190.739Z" transform="translate(-115.797 -60.87)" fill="#3e479b"/>
      <path id="Trazado_604820" data-name="Trazado 604820" d="M268.624,196.038a37.513,37.513,0,1,1,37.513-37.513,37.142,37.142,0,0,1-7.812,22.906l-.1.1a.693.693,0,0,0-.1.075l-6.68,6.675a37.142,37.142,0,0,1-22.826,7.757Zm0-74.024a36.511,36.511,0,1,0,0,73.022,36.167,36.167,0,0,0,22.189-7.532l6.61-6.61a.908.908,0,0,1,.15-.125,36.175,36.175,0,0,0,7.562-22.244A36.553,36.553,0,0,0,268.624,122.013Zm0,68.728a32.217,32.217,0,1,1,32.217-32.217A32.253,32.253,0,0,1,268.624,190.741Zm0-63.431a31.214,31.214,0,1,0,31.214,31.214A31.248,31.248,0,0,0,268.624,127.31Z" transform="translate(-115.298 -60.371)" fill="#3e479b"/>
      <path id="Trazado_604821" data-name="Trazado 604821" d="M356.152,249.344l-1.433-1.433a1.416,1.416,0,0,1,0-2l-4.279,4.28-.07.07a1.415,1.415,0,0,0,0,2L352.113,254a34.477,34.477,0,0,1,4.044-4.66Z" transform="translate(-174.588 -122.682)" fill="#4c65ba"/>
      <path id="Trazado_604822" data-name="Trazado 604822" d="M359.049,243.157a1.415,1.415,0,0,0,0,2l1.433,1.433a39.913,39.913,0,0,1,4.585-4.119L363.4,240.8a1.413,1.413,0,0,0-1.849-.125,1.172,1.172,0,0,0-.15.125l-2.35,2.35Z" transform="translate(-178.919 -119.928)" fill="#4c65ba"/>
      <path id="Trazado_604823" data-name="Trazado 604823" d="M359.049,243.157a1.415,1.415,0,0,0,0,2l1.433,1.433a39.913,39.913,0,0,1,4.585-4.119L363.4,240.8a1.413,1.413,0,0,0-1.849-.125,1.172,1.172,0,0,0-.15.125l-2.35,2.35Z" transform="translate(-178.919 -119.928)" fill="#3e479b" opacity="0.43"/>
      <path id="Trazado_604824" data-name="Trazado 604824" d="M389.53,270.248,363.468,243.9c-.1-.1-.381.03-.787.311a39.44,39.44,0,0,0-4.585,4.119,33.869,33.869,0,0,0-4.044,4.66c-.185.316-.261.531-.175.611l26.063,26.349a6.73,6.73,0,0,0,9.6,0,6.912,6.912,0,0,0,0-9.7Z" transform="translate(-176.527 -121.663)" fill="#599af2"/>
      <path id="Trazado_604825" data-name="Trazado 604825" d="M393.16,270.248,367.1,243.9c-.351-.356-3.322,2.305-5.873,4.936-2.17,2.235,29.285,33.79,31.936,31.114A6.912,6.912,0,0,0,393.16,270.248Z" transform="translate(-180.157 -121.662)" fill="#3e479b" opacity="0.14"/>
      <path id="Trazado_604826" data-name="Trazado 604826" d="M138.676,195.062H53.006a9.063,9.063,0,1,0,0,18.125h85.67a9.063,9.063,0,1,0,0-18.125Z" transform="translate(-21.922 -97.314)" fill="#fff"/>
      <path id="Trazado_604827" data-name="Trazado 604827" d="M219.052,213.187H205.116l-.065-18.125h14a9.065,9.065,0,0,1,0,18.13Z" transform="translate(-102.297 -97.314)" fill="#599af2"/>
      <path id="Trazado_604828" data-name="Trazado 604828" d="M222.015,211.59a3.964,3.964,0,1,1,3.964-3.964,3.969,3.969,0,0,1-3.964,3.964Zm0-6.925a2.962,2.962,0,1,0,2.962,2.962A2.964,2.964,0,0,0,222.015,204.664Z" transform="translate(-108.783 -101.604)" fill="#fff"/>
      <path id="Trazado_604829" data-name="Trazado 604829" d="M233.458,219.635a.513.513,0,0,1-.356-.145l-3.147-3.147a.5.5,0,1,1,.707-.707l3.147,3.147a.5.5,0,0,1,0,.707.492.492,0,0,1-.356.145Z" transform="translate(-114.648 -107.505)" fill="#fff"/>
      <path id="Trazado_604830" data-name="Trazado 604830" d="M157.191,254.288H114.546a5.4,5.4,0,0,1-5.4-5.4v-3.543a5.422,5.422,0,0,0-5.422-5.422h-19.7a5.423,5.423,0,0,0-5.422,5.422v56.29a5.049,5.049,0,0,0,5.051,5.051h73.538a5.049,5.049,0,0,0,5.051-5.051V259.339A5.049,5.049,0,0,0,157.191,254.288Z" transform="translate(-39.213 -119.693)" fill="#d2aee6"/>
      <path id="Trazado_604831" data-name="Trazado 604831" d="M147.821,254.288H105.176a5.4,5.4,0,0,1-5.4-5.4v-3.543a5.423,5.423,0,0,0-5.422-5.422h-19.7a5.423,5.423,0,0,0-5.422,5.422v56.29a5.049,5.049,0,0,0,5.051,5.051h73.538a5.049,5.049,0,0,0,5.051-5.051V259.339A5.049,5.049,0,0,0,147.821,254.288Z" transform="translate(-34.538 -119.693)" fill="#d2aee6"/>
      <path id="Trazado_604832" data-name="Trazado 604832" d="M147.821,254.288H105.176a5.4,5.4,0,0,1-5.4-5.4v-3.543a5.423,5.423,0,0,0-5.422-5.422h-19.7a5.423,5.423,0,0,0-5.422,5.422v56.29a5.049,5.049,0,0,0,5.051,5.051h73.538a5.049,5.049,0,0,0,5.051-5.051V259.339A5.049,5.049,0,0,0,147.821,254.288Z" transform="translate(-34.538 -119.693)" fill="#fff" opacity="0.12"/>
      <path id="Trazado_604833" data-name="Trazado 604833" d="M137,254.288H100.22c-2.576,0-4.66-2.42-4.66-5.4v-3.543c0-3-2.095-5.422-4.675-5.422H73.9c-2.581,0-4.675,2.43-4.675,5.422v56.29c0,2.791,1.949,5.051,4.355,5.051H137c2.405,0,4.355-2.26,4.355-5.051V259.339C141.351,256.548,139.4,254.288,137,254.288Z" transform="translate(-34.534 -119.693)" fill="#fff" opacity="0.12"/>
      <path id="Trazado_604834" data-name="Trazado 604834" d="M76.582,263.652a.5.5,0,0,1-.5-.5v-12.3a3.456,3.456,0,0,1,3.453-3.453H94.046a.5.5,0,0,1,0,1H79.534a2.451,2.451,0,0,0-2.45,2.45v12.3A.5.5,0,0,1,76.582,263.652Z" transform="translate(-37.956 -123.425)" fill="#fff"/>
    </g>
  </g>
</svg>
