<svg xmlns="http://www.w3.org/2000/svg" width="371.5" height="590.587" viewBox="0 0 371.5 590.587">
  <g id="Grupo_1014985" data-name="Grupo 1014985" transform="translate(-589.5 -935.413)">
    <path id="Trazado_609430" data-name="Trazado 609430" d="M17,0H134a17,17,0,0,1,17,17V56a17,17,0,0,1-17,17H17A17,17,0,0,1,0,56V17A17,17,0,0,1,17,0Z" transform="translate(685 943.913)" fill="#7e10b8"/>
    <path id="Trazado_609431" data-name="Trazado 609431" d="M17,0H134a17,17,0,0,1,17,17V56a17,17,0,0,1-17,17H17A17,17,0,0,1,0,56V17A17,17,0,0,1,17,0Z" transform="translate(589.5 1049.913)" fill="#60cb28"/>
    <g id="Trazado_609432" data-name="Trazado 609432" transform="translate(623.5 1149)" fill="none" opacity="0.4">
      <path d="M17,0H134a17,17,0,0,1,17,17V56a17,17,0,0,1-17,17H17A17,17,0,0,1,0,56V17A17,17,0,0,1,17,0Z" stroke="none"/>
      <path d="M 17 2 C 12.99334716796875 2 9.226516723632812 3.560272216796875 6.393402099609375 6.393394470214844 C 3.560272216796875 9.226520538330078 2 12.99335479736328 2 17 L 2 56 C 2 60.00664520263672 3.560272216796875 63.77347946166992 6.393402099609375 66.60660552978516 C 9.226516723632812 69.43972778320312 12.99334716796875 71 17 71 L 134 71 C 138.0066528320312 71 141.7734832763672 69.43972778320312 144.6065979003906 66.60660552978516 C 147.4397277832031 63.77347946166992 149 60.00664520263672 149 56 L 149 17 C 149 12.99335479736328 147.4397277832031 9.226520538330078 144.6065979003906 6.393394470214844 C 141.7734832763672 3.560272216796875 138.0066528320312 2 134 2 L 17 2 M 17 0 L 134 0 C 143.3888397216797 0 151 7.611167907714844 151 17 L 151 56 C 151 65.38883209228516 143.3888397216797 73 134 73 L 17 73 C 7.611160278320312 73 0 65.38883209228516 0 56 L 0 17 C 0 7.611167907714844 7.611160278320312 0 17 0 Z" stroke="none" fill="#7e10b8"/>
    </g>
    <g id="Trazado_609433" data-name="Trazado 609433" transform="translate(810 1149)" fill="none" opacity="0.4">
      <path d="M17,0H134a17,17,0,0,1,17,17V56a17,17,0,0,1-17,17H17A17,17,0,0,1,0,56V17A17,17,0,0,1,17,0Z" stroke="none"/>
      <path d="M 17 2 C 12.99334716796875 2 9.226516723632812 3.560272216796875 6.393402099609375 6.393394470214844 C 3.560272216796875 9.226520538330078 2 12.99335479736328 2 17 L 2 56 C 2 60.00664520263672 3.560272216796875 63.77347946166992 6.393402099609375 66.60660552978516 C 9.226516723632812 69.43972778320312 12.99334716796875 71 17 71 L 134 71 C 138.0066528320312 71 141.7734832763672 69.43972778320312 144.6065979003906 66.60660552978516 C 147.4397277832031 63.77347946166992 149 60.00664520263672 149 56 L 149 17 C 149 12.99335479736328 147.4397277832031 9.226520538330078 144.6065979003906 6.393394470214844 C 141.7734832763672 3.560272216796875 138.0066528320312 2 134 2 L 17 2 M 17 0 L 134 0 C 143.3888397216797 0 151 7.611167907714844 151 17 L 151 56 C 151 65.38883209228516 143.3888397216797 73 134 73 L 17 73 C 7.611160278320312 73 0 65.38883209228516 0 56 L 0 17 C 0 7.611167907714844 7.611160278320312 0 17 0 Z" stroke="none" fill="#7e10b8"/>
    </g>
    <g id="Trazado_609434" data-name="Trazado 609434" transform="translate(810 1255)" fill="none" opacity="0.4">
      <path d="M17,0H134a17,17,0,0,1,17,17V56a17,17,0,0,1-17,17H17A17,17,0,0,1,0,56V17A17,17,0,0,1,17,0Z" stroke="none"/>
      <path d="M 17 2 C 12.99334716796875 2 9.226516723632812 3.560272216796875 6.393402099609375 6.393394470214844 C 3.560272216796875 9.226520538330078 2 12.99335479736328 2 17 L 2 56 C 2 60.00664520263672 3.560272216796875 63.77347946166992 6.393402099609375 66.60660552978516 C 9.226516723632812 69.43972778320312 12.99334716796875 71 17 71 L 134 71 C 138.0066528320312 71 141.7734832763672 69.43972778320312 144.6065979003906 66.60660552978516 C 147.4397277832031 63.77347946166992 149 60.00664520263672 149 56 L 149 17 C 149 12.99335479736328 147.4397277832031 9.226520538330078 144.6065979003906 6.393394470214844 C 141.7734832763672 3.560272216796875 138.0066528320312 2 134 2 L 17 2 M 17 0 L 134 0 C 143.3888397216797 0 151 7.611167907714844 151 17 L 151 56 C 151 65.38883209228516 143.3888397216797 73 134 73 L 17 73 C 7.611160278320312 73 0 65.38883209228516 0 56 L 0 17 C 0 7.611167907714844 7.611160278320312 0 17 0 Z" stroke="none" fill="#7e10b8"/>
    </g>
    <g id="Trazado_609435" data-name="Trazado 609435" transform="translate(810 1354)" fill="none" opacity="0.4">
      <path d="M17,0H134a17,17,0,0,1,17,17V56a17,17,0,0,1-17,17H17A17,17,0,0,1,0,56V17A17,17,0,0,1,17,0Z" stroke="none"/>
      <path d="M 17 2 C 12.99334716796875 2 9.226516723632812 3.560272216796875 6.393402099609375 6.393394470214844 C 3.560272216796875 9.226520538330078 2 12.99335479736328 2 17 L 2 56 C 2 60.00664520263672 3.560272216796875 63.77347946166992 6.393402099609375 66.60660552978516 C 9.226516723632812 69.43972778320312 12.99334716796875 71 17 71 L 134 71 C 138.0066528320312 71 141.7734832763672 69.43972778320312 144.6065979003906 66.60660552978516 C 147.4397277832031 63.77347946166992 149 60.00664520263672 149 56 L 149 17 C 149 12.99335479736328 147.4397277832031 9.226520538330078 144.6065979003906 6.393394470214844 C 141.7734832763672 3.560272216796875 138.0066528320312 2 134 2 L 17 2 M 17 0 L 134 0 C 143.3888397216797 0 151 7.611167907714844 151 17 L 151 56 C 151 65.38883209228516 143.3888397216797 73 134 73 L 17 73 C 7.611160278320312 73 0 65.38883209228516 0 56 L 0 17 C 0 7.611167907714844 7.611160278320312 0 17 0 Z" stroke="none" fill="#7e10b8"/>
    </g>
    <g id="Trazado_609436" data-name="Trazado 609436" transform="translate(810 1453)" fill="none" opacity="0.4">
      <path d="M17,0H134a17,17,0,0,1,17,17V56a17,17,0,0,1-17,17H17A17,17,0,0,1,0,56V17A17,17,0,0,1,17,0Z" stroke="none"/>
      <path d="M 17 2 C 12.99334716796875 2 9.226516723632812 3.560272216796875 6.393402099609375 6.393394470214844 C 3.560272216796875 9.226520538330078 2 12.99335479736328 2 17 L 2 56 C 2 60.00664520263672 3.560272216796875 63.77347946166992 6.393402099609375 66.60660552978516 C 9.226516723632812 69.43972778320312 12.99334716796875 71 17 71 L 134 71 C 138.0066528320312 71 141.7734832763672 69.43972778320312 144.6065979003906 66.60660552978516 C 147.4397277832031 63.77347946166992 149 60.00664520263672 149 56 L 149 17 C 149 12.99335479736328 147.4397277832031 9.226520538330078 144.6065979003906 6.393394470214844 C 141.7734832763672 3.560272216796875 138.0066528320312 2 134 2 L 17 2 M 17 0 L 134 0 C 143.3888397216797 0 151 7.611167907714844 151 17 L 151 56 C 151 65.38883209228516 143.3888397216797 73 134 73 L 17 73 C 7.611160278320312 73 0 65.38883209228516 0 56 L 0 17 C 0 7.611167907714844 7.611160278320312 0 17 0 Z" stroke="none" fill="#7e10b8"/>
    </g>
    <g id="Trazado_609437" data-name="Trazado 609437" transform="translate(623.5 1255)" fill="none" opacity="0.4">
      <path d="M17,0H134a17,17,0,0,1,17,17V56a17,17,0,0,1-17,17H17A17,17,0,0,1,0,56V17A17,17,0,0,1,17,0Z" stroke="none"/>
      <path d="M 17 2 C 12.99334716796875 2 9.226516723632812 3.560272216796875 6.393402099609375 6.393394470214844 C 3.560272216796875 9.226520538330078 2 12.99335479736328 2 17 L 2 56 C 2 60.00664520263672 3.560272216796875 63.77347946166992 6.393402099609375 66.60660552978516 C 9.226516723632812 69.43972778320312 12.99334716796875 71 17 71 L 134 71 C 138.0066528320312 71 141.7734832763672 69.43972778320312 144.6065979003906 66.60660552978516 C 147.4397277832031 63.77347946166992 149 60.00664520263672 149 56 L 149 17 C 149 12.99335479736328 147.4397277832031 9.226520538330078 144.6065979003906 6.393394470214844 C 141.7734832763672 3.560272216796875 138.0066528320312 2 134 2 L 17 2 M 17 0 L 134 0 C 143.3888397216797 0 151 7.611167907714844 151 17 L 151 56 C 151 65.38883209228516 143.3888397216797 73 134 73 L 17 73 C 7.611160278320312 73 0 65.38883209228516 0 56 L 0 17 C 0 7.611167907714844 7.611160278320312 0 17 0 Z" stroke="none" fill="#7e10b8"/>
    </g>
    <path id="Trazado_609438" data-name="Trazado 609438" d="M17,0H134a17,17,0,0,1,17,17V56a17,17,0,0,1-17,17H17A17,17,0,0,1,0,56V17A17,17,0,0,1,17,0Z" transform="translate(774.5 1049.913)" fill="#60cb28"/>
    <path id="Trazado_609439" data-name="Trazado 609439" d="M0,0V167" transform="translate(611.5 1122.5)" fill="none" stroke="#7e10b8" stroke-width="2"/>
    <path id="Trazado_609440" data-name="Trazado 609440" d="M0,0V373" transform="translate(790 1122.5)" fill="none" stroke="#7e10b8" stroke-width="2"/>
    <path id="Trazado_609441" data-name="Trazado 609441" d="M12,0H0" transform="translate(611.5 1187.5)" fill="none" stroke="#7e10b8" stroke-width="2"/>
    <path id="Trazado_609442" data-name="Trazado 609442" d="M12,0H0" transform="translate(611.5 1289.5)" fill="none" stroke="#7e10b8" stroke-width="2"/>
    <path id="Trazado_609443" data-name="Trazado 609443" d="M12,0H0" transform="translate(790 1495.5)" fill="none" stroke="#7e10b8" stroke-width="2"/>
    <path id="Trazado_609444" data-name="Trazado 609444" d="M12,0H0" transform="translate(790 1390.5)" fill="none" stroke="#7e10b8" stroke-width="2"/>
    <path id="Trazado_609445" data-name="Trazado 609445" d="M12,0H0" transform="translate(790 1288.5)" fill="none" stroke="#7e10b8" stroke-width="2"/>
    <path id="Trazado_609446" data-name="Trazado 609446" d="M12,0H0" transform="translate(790 1187.5)" fill="none" stroke="#7e10b8" stroke-width="2"/>
    <path id="Trazado_609447" data-name="Trazado 609447" d="M0,0V12" transform="translate(756.5 1019.5)" fill="none" stroke="#7e10b8" stroke-width="2"/>
    <path id="Trazado_609448" data-name="Trazado 609448" d="M0,0V12" transform="translate(667.5 1031.5)" fill="none" stroke="#7e10b8" stroke-width="2"/>
    <path id="Trazado_609449" data-name="Trazado 609449" d="M0,0V12" transform="translate(846.5 1031.5)" fill="none" stroke="#7e10b8" stroke-width="2"/>
    <path id="Trazado_609450" data-name="Trazado 609450" d="M179.5,0H0" transform="translate(667 1032.5)" fill="none" stroke="#7e10b8" stroke-width="2"/>
    <path id="Trazado_609429" data-name="Trazado 609429" d="M49.266,7.162H44.611V20H42.037V7.162H37.423V5.07H49.266ZM53.634,20H51.142V8.905h2.492ZM50.989,6.024a1.322,1.322,0,0,1,.364-.954,1.375,1.375,0,0,1,1.041-.379,1.392,1.392,0,0,1,1.046.379,1.312,1.312,0,0,1,.369.954,1.282,1.282,0,0,1-.369.938,1.4,1.4,0,0,1-1.046.374,1.386,1.386,0,0,1-1.041-.374A1.292,1.292,0,0,1,50.989,6.024Zm15.073,8.542a6.606,6.606,0,0,1-1.169,4.107,4.061,4.061,0,0,1-6.06.333v5.26H56.341V8.905h2.3l.1,1.128A3.66,3.66,0,0,1,61.724,8.7a3.782,3.782,0,0,1,3.184,1.512,6.782,6.782,0,0,1,1.154,4.2ZM63.58,14.35a4.627,4.627,0,0,0-.661-2.635,2.15,2.15,0,0,0-1.892-.974A2.293,2.293,0,0,0,58.833,12v4.922a2.314,2.314,0,0,0,2.215,1.292,2.148,2.148,0,0,0,1.861-.959A5.094,5.094,0,0,0,63.58,14.35Zm4.122,0a6.542,6.542,0,0,1,.646-2.938A4.718,4.718,0,0,1,70.163,9.4a5.114,5.114,0,0,1,2.687-.7A4.846,4.846,0,0,1,76.5,10.146a5.687,5.687,0,0,1,1.512,3.835l.01.584a6.6,6.6,0,0,1-.631,2.933,4.661,4.661,0,0,1-1.8,2,5.151,5.151,0,0,1-2.712.708,4.813,4.813,0,0,1-3.758-1.564,5.989,5.989,0,0,1-1.41-4.168Zm2.492.215a4.471,4.471,0,0,0,.708,2.681,2.3,2.3,0,0,0,1.969.969,2.275,2.275,0,0,0,1.964-.984,4.938,4.938,0,0,0,.7-2.881,4.413,4.413,0,0,0-.723-2.666,2.437,2.437,0,0,0-3.9-.015A4.844,4.844,0,0,0,70.194,14.565Zm16.15,2.42A1.13,1.13,0,0,0,85.8,15.97a5.834,5.834,0,0,0-1.82-.615,9.356,9.356,0,0,1-2.123-.677,2.833,2.833,0,0,1-1.866-2.615,2.953,2.953,0,0,1,1.21-2.4A4.783,4.783,0,0,1,84.273,8.7a4.977,4.977,0,0,1,3.215.984,3.124,3.124,0,0,1,1.225,2.553H86.221a1.536,1.536,0,0,0-.533-1.195,2.043,2.043,0,0,0-1.415-.477,2.208,2.208,0,0,0-1.338.379,1.2,1.2,0,0,0-.518,1.015,1.01,1.01,0,0,0,.482.892,6.627,6.627,0,0,0,1.948.641,9.222,9.222,0,0,1,2.3.769,3.26,3.26,0,0,1,1.241,1.072,2.733,2.733,0,0,1,.405,1.518,2.891,2.891,0,0,1-1.241,2.425,5.29,5.29,0,0,1-3.25.928,5.737,5.737,0,0,1-2.43-.492,4,4,0,0,1-1.661-1.354,3.2,3.2,0,0,1-.595-1.856h2.42a1.756,1.756,0,0,0,.667,1.359,2.59,2.59,0,0,0,1.63.477,2.52,2.52,0,0,0,1.5-.374A1.158,1.158,0,0,0,86.344,16.985Zm9.382-2.615a6.6,6.6,0,0,1,1.189-4.117A3.811,3.811,0,0,1,100.1,8.7a3.621,3.621,0,0,1,2.851,1.23V4.25h2.492V20h-2.256l-.123-1.148a3.673,3.673,0,0,1-2.984,1.354,3.79,3.79,0,0,1-3.153-1.569A6.838,6.838,0,0,1,95.726,14.371Zm2.492.215a4.618,4.618,0,0,0,.651,2.64,2.113,2.113,0,0,0,1.851.948,2.353,2.353,0,0,0,2.235-1.364V12.074a2.317,2.317,0,0,0-2.215-1.333,2.128,2.128,0,0,0-1.866.959A5.143,5.143,0,0,0,98.218,14.586Zm14.714,5.619a5.155,5.155,0,0,1-3.84-1.492,5.412,5.412,0,0,1-1.471-3.973v-.308a6.657,6.657,0,0,1,.641-2.969,4.878,4.878,0,0,1,1.8-2.035,4.758,4.758,0,0,1,2.584-.728,4.355,4.355,0,0,1,3.5,1.446,6.114,6.114,0,0,1,1.236,4.091v1h-7.25a3.332,3.332,0,0,0,.918,2.174,2.755,2.755,0,0,0,2.025.8,3.374,3.374,0,0,0,2.789-1.384l1.343,1.282a4.486,4.486,0,0,1-1.779,1.543A5.57,5.57,0,0,1,112.932,20.205Zm-.3-9.505a2.1,2.1,0,0,0-1.656.718,3.72,3.72,0,0,0-.8,2h4.748v-.185a3.029,3.029,0,0,0-.667-1.892A2.082,2.082,0,0,0,112.635,10.7ZM39.325,44H36.833V32.905h2.492ZM36.679,30.024a1.322,1.322,0,0,1,.364-.954,1.375,1.375,0,0,1,1.041-.379,1.392,1.392,0,0,1,1.046.379,1.312,1.312,0,0,1,.369.954,1.282,1.282,0,0,1-.369.938,1.4,1.4,0,0,1-1.046.374,1.386,1.386,0,0,1-1.041-.374A1.292,1.292,0,0,1,36.679,30.024Zm7.67,2.881.072,1.282a3.989,3.989,0,0,1,3.23-1.487q3.466,0,3.527,3.968V44H48.687V36.812a2.285,2.285,0,0,0-.456-1.564,1.919,1.919,0,0,0-1.492-.508A2.4,2.4,0,0,0,44.493,36.1V44H42V32.905ZM54.593,44V34.751H52.9V32.905h1.692V31.89a3.811,3.811,0,0,1,1.025-2.851,3.928,3.928,0,0,1,2.871-1,5.759,5.759,0,0,1,1.395.185l-.062,1.948a4.908,4.908,0,0,0-.954-.082,1.6,1.6,0,0,0-1.784,1.835v.984H59.34v1.846H57.084V44Zm6.1-5.65a6.542,6.542,0,0,1,.646-2.938,4.718,4.718,0,0,1,1.815-2.01,5.114,5.114,0,0,1,2.687-.7,4.846,4.846,0,0,1,3.645,1.446A5.687,5.687,0,0,1,71,37.981l.01.584a6.6,6.6,0,0,1-.631,2.933,4.661,4.661,0,0,1-1.8,2,5.151,5.151,0,0,1-2.712.708A4.813,4.813,0,0,1,62.1,42.641a5.989,5.989,0,0,1-1.41-4.168Zm2.492.215a4.471,4.471,0,0,0,.708,2.681,2.3,2.3,0,0,0,1.969.969,2.275,2.275,0,0,0,1.964-.984,4.938,4.938,0,0,0,.7-2.881,4.413,4.413,0,0,0-.723-2.666,2.437,2.437,0,0,0-3.9-.015A4.844,4.844,0,0,0,63.186,38.565Zm15.74-3.384A6.166,6.166,0,0,0,77.91,35.1,2.286,2.286,0,0,0,75.6,36.412V44H73.111V32.905H75.49l.062,1.241a2.807,2.807,0,0,1,2.5-1.446,2.333,2.333,0,0,1,.882.144Zm3.917-2.276.072,1.159a3.992,3.992,0,0,1,3.2-1.364,3.067,3.067,0,0,1,3.045,1.7,3.935,3.935,0,0,1,3.4-1.7A3.459,3.459,0,0,1,95.3,33.715a4.469,4.469,0,0,1,.918,2.994V44H93.722V36.781a2.207,2.207,0,0,0-.461-1.548,2.02,2.02,0,0,0-1.528-.492,2.075,2.075,0,0,0-1.389.456,2.406,2.406,0,0,0-.754,1.195L89.6,44H87.108V36.7a1.777,1.777,0,0,0-2-1.958,2.193,2.193,0,0,0-2.123,1.22V44H80.494V32.905Zm20.815,11.3a5.155,5.155,0,0,1-3.84-1.492,5.412,5.412,0,0,1-1.471-3.973v-.308a6.657,6.657,0,0,1,.641-2.969,4.878,4.878,0,0,1,1.8-2.035,4.758,4.758,0,0,1,2.584-.728,4.355,4.355,0,0,1,3.5,1.446,6.114,6.114,0,0,1,1.236,4.091v1h-7.25a3.332,3.332,0,0,0,.918,2.174,2.755,2.755,0,0,0,2.025.8,3.374,3.374,0,0,0,2.789-1.384l1.343,1.282a4.486,4.486,0,0,1-1.779,1.543A5.57,5.57,0,0,1,103.658,44.205Zm-.3-9.505a2.1,2.1,0,0,0-1.656.718,3.72,3.72,0,0,0-.8,2h4.748v-.185a3.029,3.029,0,0,0-.667-1.892A2.082,2.082,0,0,0,103.36,34.7Zm12.9,6.286a1.13,1.13,0,0,0-.549-1.015,5.834,5.834,0,0,0-1.82-.615,9.356,9.356,0,0,1-2.123-.677,2.833,2.833,0,0,1-1.866-2.615,2.953,2.953,0,0,1,1.21-2.4,4.783,4.783,0,0,1,3.076-.964,4.977,4.977,0,0,1,3.215.984,3.124,3.124,0,0,1,1.225,2.553h-2.492a1.536,1.536,0,0,0-.533-1.195,2.043,2.043,0,0,0-1.415-.477,2.208,2.208,0,0,0-1.338.379,1.2,1.2,0,0,0-.518,1.015,1.01,1.01,0,0,0,.482.892,6.627,6.627,0,0,0,1.948.641,9.222,9.222,0,0,1,2.3.769,3.26,3.26,0,0,1,1.241,1.072,2.733,2.733,0,0,1,.405,1.518,2.891,2.891,0,0,1-1.241,2.425,5.29,5.29,0,0,1-3.25.928,5.737,5.737,0,0,1-2.43-.492,4,4,0,0,1-1.661-1.354,3.2,3.2,0,0,1-.595-1.856h2.42a1.756,1.756,0,0,0,.667,1.359,2.59,2.59,0,0,0,1.63.477,2.52,2.52,0,0,0,1.5-.374A1.158,1.158,0,0,0,116.26,40.985Z" transform="translate(685 955.913)" fill="#fff"/>
    <path id="Trazado_609451" data-name="Trazado 609451" d="M43.354,16.155a1.8,1.8,0,0,0-.692-1.518,8.327,8.327,0,0,0-2.5-1.077,12.057,12.057,0,0,1-2.871-1.21,3.831,3.831,0,0,1-2.041-3.343,3.638,3.638,0,0,1,1.471-2.974,5.956,5.956,0,0,1,3.82-1.169,6.452,6.452,0,0,1,2.779.574,4.561,4.561,0,0,1,1.917,1.635,4.2,4.2,0,0,1,.7,2.353H43.354a2.34,2.34,0,0,0-.733-1.83,3.026,3.026,0,0,0-2.1-.661,3.16,3.16,0,0,0-1.974.543A1.81,1.81,0,0,0,37.848,9a1.637,1.637,0,0,0,.759,1.369,8.741,8.741,0,0,0,2.5,1.066,11.509,11.509,0,0,1,2.8,1.179,4.453,4.453,0,0,1,1.548,1.518,3.952,3.952,0,0,1,.492,2,3.553,3.553,0,0,1-1.43,2.969,6.2,6.2,0,0,1-3.881,1.1,7.293,7.293,0,0,1-2.979-.6,5,5,0,0,1-2.112-1.656,4.127,4.127,0,0,1-.754-2.461h2.594a2.415,2.415,0,0,0,.841,1.969,3.682,3.682,0,0,0,2.41.7,3.2,3.2,0,0,0,2.035-.549A1.77,1.77,0,0,0,43.354,16.155Zm9.516,4.05a5.155,5.155,0,0,1-3.84-1.492,5.412,5.412,0,0,1-1.471-3.973v-.308a6.657,6.657,0,0,1,.641-2.969A4.878,4.878,0,0,1,50,9.428,4.758,4.758,0,0,1,52.583,8.7a4.355,4.355,0,0,1,3.5,1.446,6.114,6.114,0,0,1,1.236,4.091v1h-7.25a3.332,3.332,0,0,0,.918,2.174,2.755,2.755,0,0,0,2.025.8A3.374,3.374,0,0,0,55.8,16.832l1.343,1.282a4.486,4.486,0,0,1-1.779,1.543A5.57,5.57,0,0,1,52.87,20.205Zm-.3-9.505a2.1,2.1,0,0,0-1.656.718,3.72,3.72,0,0,0-.8,2h4.748v-.185a3.029,3.029,0,0,0-.667-1.892A2.082,2.082,0,0,0,52.573,10.7Zm6.245,3.671a6.489,6.489,0,0,1,1.215-4.127A3.9,3.9,0,0,1,63.257,8.7a3.654,3.654,0,0,1,2.984,1.323l.113-1.118H68.6V19.662a4.471,4.471,0,0,1-1.359,3.445,5.175,5.175,0,0,1-3.666,1.261,5.908,5.908,0,0,1-2.384-.508,4.236,4.236,0,0,1-1.769-1.328l1.179-1.5a3.561,3.561,0,0,0,2.83,1.364,2.752,2.752,0,0,0,1.958-.672,2.574,2.574,0,0,0,.718-1.974v-.749a3.668,3.668,0,0,1-2.871,1.2,3.891,3.891,0,0,1-3.184-1.548A6.7,6.7,0,0,1,58.817,14.371Zm2.481.215a4.467,4.467,0,0,0,.682,2.63,2.193,2.193,0,0,0,1.892.959,2.4,2.4,0,0,0,2.235-1.292V12a2.363,2.363,0,0,0-2.215-1.261,2.2,2.2,0,0,0-1.912.974A5,5,0,0,0,61.3,14.586Zm16.581,4.327a3.864,3.864,0,0,1-3.117,1.292,3.444,3.444,0,0,1-2.733-1.056,4.493,4.493,0,0,1-.928-3.056V8.905h2.492v7.157q0,2.112,1.753,2.112a2.462,2.462,0,0,0,2.451-1.3V8.905h2.492V20H77.941ZM76.454,4.25h2.84l-2.84,3.107-2-.005Zm8.685,4.655.072,1.282A3.989,3.989,0,0,1,88.441,8.7q3.466,0,3.527,3.968V20H89.477V12.812a2.285,2.285,0,0,0-.456-1.564,1.919,1.919,0,0,0-1.492-.508A2.4,2.4,0,0,0,85.283,12.1V20H82.791V8.905Zm20.815,8.08a1.13,1.13,0,0,0-.549-1.015,5.834,5.834,0,0,0-1.82-.615,9.356,9.356,0,0,1-2.123-.677A2.833,2.833,0,0,1,99.6,12.063a2.953,2.953,0,0,1,1.21-2.4,4.783,4.783,0,0,1,3.076-.964,4.977,4.977,0,0,1,3.215.984,3.124,3.124,0,0,1,1.225,2.553h-2.492a1.536,1.536,0,0,0-.533-1.195,2.043,2.043,0,0,0-1.415-.477,2.208,2.208,0,0,0-1.338.379,1.2,1.2,0,0,0-.518,1.015,1.01,1.01,0,0,0,.482.892,6.627,6.627,0,0,0,1.948.641,9.222,9.222,0,0,1,2.3.769A3.26,3.26,0,0,1,108,15.334a2.733,2.733,0,0,1,.405,1.518,2.891,2.891,0,0,1-1.241,2.425,5.29,5.29,0,0,1-3.25.928,5.737,5.737,0,0,1-2.43-.492,4,4,0,0,1-1.661-1.354,3.2,3.2,0,0,1-.595-1.856h2.42a1.756,1.756,0,0,0,.667,1.359,2.59,2.59,0,0,0,1.63.477,2.52,2.52,0,0,0,1.5-.374A1.158,1.158,0,0,0,105.955,16.985ZM117.3,18.913a3.864,3.864,0,0,1-3.117,1.292,3.444,3.444,0,0,1-2.733-1.056,4.493,4.493,0,0,1-.928-3.056V8.905h2.492v7.157q0,2.112,1.753,2.112a2.462,2.462,0,0,0,2.451-1.3V8.905h2.492V20h-2.348ZM37.864,44.205a5.155,5.155,0,0,1-3.84-1.492,5.412,5.412,0,0,1-1.471-3.973v-.308a6.657,6.657,0,0,1,.641-2.969,4.878,4.878,0,0,1,1.8-2.035,4.758,4.758,0,0,1,2.584-.728,4.355,4.355,0,0,1,3.5,1.446,6.114,6.114,0,0,1,1.236,4.091v1h-7.25a3.332,3.332,0,0,0,.918,2.174,2.755,2.755,0,0,0,2.025.8A3.374,3.374,0,0,0,40.8,40.832l1.343,1.282a4.486,4.486,0,0,1-1.779,1.543A5.57,5.57,0,0,1,37.864,44.205Zm-.3-9.505a2.1,2.1,0,0,0-1.656.718,3.72,3.72,0,0,0-.8,2h4.748v-.185a3.029,3.029,0,0,0-.667-1.892A2.082,2.082,0,0,0,37.566,34.7ZM48.23,36.556l2.112-3.65h2.769l-3.394,5.465L53.224,44H50.476l-2.215-3.794L46.056,44H43.288l3.507-5.629-3.384-5.465h2.748Zm9.7-6.347v2.7h1.958v1.846H57.93v6.193a1.364,1.364,0,0,0,.251.918,1.165,1.165,0,0,0,.9.282,3.838,3.838,0,0,0,.872-.1v1.928a6.137,6.137,0,0,1-1.641.236q-2.871,0-2.871-3.168V34.751H53.614V32.905h1.825v-2.7Zm8.747,14a5.155,5.155,0,0,1-3.84-1.492,5.412,5.412,0,0,1-1.471-3.973v-.308a6.657,6.657,0,0,1,.641-2.969,4.878,4.878,0,0,1,1.8-2.035A4.758,4.758,0,0,1,66.39,32.7a4.355,4.355,0,0,1,3.5,1.446,6.114,6.114,0,0,1,1.236,4.091v1h-7.25a3.332,3.332,0,0,0,.918,2.174,2.755,2.755,0,0,0,2.025.8,3.374,3.374,0,0,0,2.789-1.384l1.343,1.282a4.486,4.486,0,0,1-1.779,1.543A5.57,5.57,0,0,1,66.677,44.205Zm-.3-9.505a2.1,2.1,0,0,0-1.656.718,3.72,3.72,0,0,0-.8,2h4.748v-.185A3.029,3.029,0,0,0,68,35.341,2.082,2.082,0,0,0,66.38,34.7Zm8.993-1.794.072,1.282a3.989,3.989,0,0,1,3.23-1.487q3.466,0,3.527,3.968V44H79.71V36.812a2.285,2.285,0,0,0-.456-1.564,1.919,1.919,0,0,0-1.492-.508A2.4,2.4,0,0,0,75.516,36.1V44H73.024V32.905Zm15.586,8.08a1.13,1.13,0,0,0-.549-1.015,5.834,5.834,0,0,0-1.82-.615,9.356,9.356,0,0,1-2.123-.677A2.833,2.833,0,0,1,84.6,36.063a2.953,2.953,0,0,1,1.21-2.4,4.783,4.783,0,0,1,3.076-.964,4.977,4.977,0,0,1,3.215.984,3.124,3.124,0,0,1,1.225,2.553H90.835a1.536,1.536,0,0,0-.533-1.195,2.043,2.043,0,0,0-1.415-.477,2.208,2.208,0,0,0-1.338.379,1.2,1.2,0,0,0-.518,1.015,1.01,1.01,0,0,0,.482.892,6.627,6.627,0,0,0,1.948.641,9.222,9.222,0,0,1,2.3.769A3.26,3.26,0,0,1,93,39.334a2.733,2.733,0,0,1,.405,1.518,2.891,2.891,0,0,1-1.241,2.425,5.29,5.29,0,0,1-3.25.928,5.737,5.737,0,0,1-2.43-.492,4,4,0,0,1-1.661-1.354,3.2,3.2,0,0,1-.595-1.856h2.42a1.756,1.756,0,0,0,.667,1.359,2.59,2.59,0,0,0,1.63.477,2.52,2.52,0,0,0,1.5-.374A1.158,1.158,0,0,0,90.958,40.985ZM98.228,44H95.737V32.905h2.492ZM95.583,30.024a1.322,1.322,0,0,1,.364-.954,1.375,1.375,0,0,1,1.041-.379,1.392,1.392,0,0,1,1.046.379,1.312,1.312,0,0,1,.369.954,1.282,1.282,0,0,1-.369.938,1.4,1.4,0,0,1-1.046.374,1.386,1.386,0,0,1-1.041-.374A1.292,1.292,0,0,1,95.583,30.024Zm4.891,8.326a6.542,6.542,0,0,1,.646-2.938,4.718,4.718,0,0,1,1.815-2.01,5.114,5.114,0,0,1,2.687-.7,4.846,4.846,0,0,1,3.645,1.446,5.687,5.687,0,0,1,1.512,3.835l.01.584a6.6,6.6,0,0,1-.631,2.933,4.661,4.661,0,0,1-1.8,2,5.151,5.151,0,0,1-2.712.708,4.813,4.813,0,0,1-3.758-1.564,5.989,5.989,0,0,1-1.41-4.168Zm2.492.215a4.471,4.471,0,0,0,.708,2.681,2.3,2.3,0,0,0,1.969.969,2.275,2.275,0,0,0,1.964-.984,4.938,4.938,0,0,0,.7-2.881,4.413,4.413,0,0,0-.723-2.666,2.437,2.437,0,0,0-3.9-.015A4.844,4.844,0,0,0,102.966,38.565Zm3.343-10.315h2.84l-2.84,3.107-2-.005Zm8.9,4.655.072,1.282a3.989,3.989,0,0,1,3.23-1.487q3.466,0,3.527,3.968V44h-2.492V36.812a2.285,2.285,0,0,0-.456-1.564,1.919,1.919,0,0,0-1.492-.508,2.4,2.4,0,0,0-2.246,1.364V44h-2.492V32.905Z" transform="translate(589.5 1061.913)" fill="#12263f"/>
    <path id="Trazado_609452" data-name="Trazado 609452" d="M44.944,13.335H38.812v4.594h7.167V20H36.218V5.07h9.69V7.162h-7.1v4.122h6.132Zm5.506-4.43V20.984a3.65,3.65,0,0,1-.846,2.6,3.242,3.242,0,0,1-2.476.9,4.98,4.98,0,0,1-1.323-.174V22.338a3.839,3.839,0,0,0,.882.092q1.241,0,1.271-1.354V8.905ZM47.743,6.024a1.322,1.322,0,0,1,.364-.954,1.375,1.375,0,0,1,1.041-.379,1.392,1.392,0,0,1,1.046.379,1.312,1.312,0,0,1,.369.954,1.282,1.282,0,0,1-.369.938,1.4,1.4,0,0,1-1.046.374,1.386,1.386,0,0,1-1.041-.374A1.292,1.292,0,0,1,47.743,6.024ZM58,20.205a5.155,5.155,0,0,1-3.84-1.492,5.412,5.412,0,0,1-1.471-3.973v-.308a6.657,6.657,0,0,1,.641-2.969,4.878,4.878,0,0,1,1.8-2.035A4.758,4.758,0,0,1,57.71,8.7a4.355,4.355,0,0,1,3.5,1.446,6.114,6.114,0,0,1,1.236,4.091v1H55.2a3.332,3.332,0,0,0,.918,2.174,2.755,2.755,0,0,0,2.025.8,3.374,3.374,0,0,0,2.789-1.384l1.343,1.282a4.486,4.486,0,0,1-1.779,1.543A5.57,5.57,0,0,1,58,20.205ZM57.7,10.7a2.1,2.1,0,0,0-1.656.718,3.72,3.72,0,0,0-.8,2h4.748v-.185a3.029,3.029,0,0,0-.667-1.892A2.082,2.082,0,0,0,57.7,10.7Zm11.238,7.516a2.253,2.253,0,0,0,1.548-.543,1.857,1.857,0,0,0,.656-1.343h2.348a3.66,3.66,0,0,1-.646,1.933,4.237,4.237,0,0,1-1.641,1.42,4.889,4.889,0,0,1-2.235.523A4.73,4.73,0,0,1,65.277,18.7a5.979,5.979,0,0,1-1.364-4.163v-.256a5.879,5.879,0,0,1,1.354-4.055A4.687,4.687,0,0,1,68.958,8.7a4.558,4.558,0,0,1,3.225,1.154,4.132,4.132,0,0,1,1.307,3.03H71.143a2.282,2.282,0,0,0-.651-1.569,2.1,2.1,0,0,0-1.553-.615,2.193,2.193,0,0,0-1.866.877,4.474,4.474,0,0,0-.667,2.661v.4a4.548,4.548,0,0,0,.651,2.692A2.191,2.191,0,0,0,68.938,18.216Zm13.156.7a3.864,3.864,0,0,1-3.117,1.292,3.444,3.444,0,0,1-2.733-1.056,4.493,4.493,0,0,1-.928-3.056V8.905h2.492v7.157q0,2.112,1.753,2.112a2.462,2.462,0,0,0,2.451-1.3V8.905H84.5V20H82.155Zm8.07-12.7v2.7h1.958v1.846H90.164v6.193a1.364,1.364,0,0,0,.251.918,1.165,1.165,0,0,0,.9.282,3.838,3.838,0,0,0,.872-.1v1.928a6.137,6.137,0,0,1-1.641.236q-2.871,0-2.871-3.168V10.751H85.847V8.905h1.825v-2.7ZM96.675,20H94.183V8.905h2.492ZM94.029,6.024a1.322,1.322,0,0,1,.364-.954,1.375,1.375,0,0,1,1.041-.379,1.392,1.392,0,0,1,1.046.379,1.312,1.312,0,0,1,.369.954,1.282,1.282,0,0,1-.369.938,1.4,1.4,0,0,1-1.046.374,1.386,1.386,0,0,1-1.041-.374A1.292,1.292,0,0,1,94.029,6.024Zm9.27,10.818,2.348-7.937h2.574L104.375,20h-2.164L98.336,8.905h2.584Zm5.855-2.492a6.542,6.542,0,0,1,.646-2.938,4.718,4.718,0,0,1,1.815-2.01,5.114,5.114,0,0,1,2.687-.7,4.846,4.846,0,0,1,3.645,1.446,5.687,5.687,0,0,1,1.512,3.835l.01.584a6.6,6.6,0,0,1-.631,2.933,4.661,4.661,0,0,1-1.8,2,5.151,5.151,0,0,1-2.712.708,4.813,4.813,0,0,1-3.758-1.564,5.989,5.989,0,0,1-1.41-4.168Zm2.492.215a4.471,4.471,0,0,0,.708,2.681,2.3,2.3,0,0,0,1.969.969,2.275,2.275,0,0,0,1.964-.984,4.938,4.938,0,0,0,.7-2.881,4.413,4.413,0,0,0-.723-2.666,2.437,2.437,0,0,0-3.9-.015A4.844,4.844,0,0,0,111.646,14.565Z" transform="translate(622 1173)" fill="#12263f"/>
    <path id="Trazado_609453" data-name="Trazado 609453" d="M54.726,17.929H61.5V20H52.132V5.07h2.594ZM69.881,20a3.845,3.845,0,0,1-.287-1.036,4.191,4.191,0,0,1-5.64.287A3.051,3.051,0,0,1,62.9,16.893a3.15,3.15,0,0,1,1.318-2.722,6.385,6.385,0,0,1,3.768-.948h1.528v-.728a1.943,1.943,0,0,0-.482-1.379,1.91,1.91,0,0,0-1.466-.518,2.195,2.195,0,0,0-1.395.426,1.317,1.317,0,0,0-.543,1.082H63.134a2.765,2.765,0,0,1,.6-1.707,4.03,4.03,0,0,1,1.646-1.246A5.781,5.781,0,0,1,67.708,8.7a4.655,4.655,0,0,1,3.107.979A3.492,3.492,0,0,1,72,12.433v5a5.671,5.671,0,0,0,.42,2.389V20Zm-2.738-1.794a2.834,2.834,0,0,0,1.389-.359,2.4,2.4,0,0,0,.979-.964V14.791H68.169a3.673,3.673,0,0,0-2.082.482,1.561,1.561,0,0,0-.7,1.364,1.456,1.456,0,0,0,.477,1.143A1.846,1.846,0,0,0,67.144,18.206Zm13.279-7.024a6.166,6.166,0,0,0-1.015-.082A2.286,2.286,0,0,0,77.1,12.412V20H74.608V8.905h2.379l.062,1.241a2.807,2.807,0,0,1,2.5-1.446,2.333,2.333,0,0,1,.882.144Zm.943,3.189a6.489,6.489,0,0,1,1.215-4.127A3.9,3.9,0,0,1,85.806,8.7a3.654,3.654,0,0,1,2.984,1.323L88.9,8.905h2.246V19.662a4.471,4.471,0,0,1-1.359,3.445,5.175,5.175,0,0,1-3.666,1.261,5.908,5.908,0,0,1-2.384-.508,4.236,4.236,0,0,1-1.769-1.328l1.179-1.5A3.561,3.561,0,0,0,85.98,22.4a2.752,2.752,0,0,0,1.958-.672,2.574,2.574,0,0,0,.718-1.974v-.749a3.668,3.668,0,0,1-2.871,1.2A3.891,3.891,0,0,1,82.6,18.657,6.7,6.7,0,0,1,81.366,14.371Zm2.481.215a4.467,4.467,0,0,0,.682,2.63,2.193,2.193,0,0,0,1.892.959,2.4,2.4,0,0,0,2.235-1.292V12a2.363,2.363,0,0,0-2.215-1.261,2.2,2.2,0,0,0-1.912.974A5,5,0,0,0,83.847,14.586Zm9.393-.236a6.542,6.542,0,0,1,.646-2.938A4.718,4.718,0,0,1,95.7,9.4a5.114,5.114,0,0,1,2.687-.7,4.846,4.846,0,0,1,3.645,1.446,5.687,5.687,0,0,1,1.512,3.835l.01.584a6.6,6.6,0,0,1-.631,2.933,4.661,4.661,0,0,1-1.8,2,5.151,5.151,0,0,1-2.712.708,4.813,4.813,0,0,1-3.758-1.564,5.989,5.989,0,0,1-1.41-4.168Zm2.492.215a4.471,4.471,0,0,0,.708,2.681,2.3,2.3,0,0,0,1.969.969,2.275,2.275,0,0,0,1.964-.984,4.938,4.938,0,0,0,.7-2.881,4.413,4.413,0,0,0-.723-2.666,2.437,2.437,0,0,0-3.9-.015A4.844,4.844,0,0,0,95.731,14.565Z" transform="translate(622 1279)" fill="#12263f"/>
    <path id="Trazado_609454" data-name="Trazado 609454" d="M45.564,15.14A5.391,5.391,0,0,1,43.8,18.867a6.013,6.013,0,0,1-4.091,1.338,5.822,5.822,0,0,1-3.143-.846,5.553,5.553,0,0,1-2.1-2.4,8.677,8.677,0,0,1-.769-3.62V11.94a8.74,8.74,0,0,1,.749-3.722A5.641,5.641,0,0,1,36.6,5.737a5.992,5.992,0,0,1,3.235-.872A5.771,5.771,0,0,1,43.811,6.2a5.592,5.592,0,0,1,1.753,3.789H42.98a3.688,3.688,0,0,0-.938-2.323,3.1,3.1,0,0,0-2.21-.713,3.029,3.029,0,0,0-2.6,1.237,6.181,6.181,0,0,0-.928,3.628v1.324a6.557,6.557,0,0,0,.866,3.695,2.875,2.875,0,0,0,2.538,1.273,3.354,3.354,0,0,0,2.3-.687,3.582,3.582,0,0,0,.974-2.287ZM50.291,20H47.8V8.905h2.492ZM47.646,6.024a1.322,1.322,0,0,1,.364-.954,1.375,1.375,0,0,1,1.041-.379A1.392,1.392,0,0,1,50.1,5.07a1.312,1.312,0,0,1,.369.954,1.282,1.282,0,0,1-.369.938,1.4,1.4,0,0,1-1.046.374,1.386,1.386,0,0,1-1.041-.374A1.292,1.292,0,0,1,47.646,6.024ZM57.889,20.205a5.155,5.155,0,0,1-3.84-1.492,5.412,5.412,0,0,1-1.471-3.973v-.308a6.657,6.657,0,0,1,.641-2.969,4.878,4.878,0,0,1,1.8-2.035A4.758,4.758,0,0,1,57.6,8.7a4.355,4.355,0,0,1,3.5,1.446,6.114,6.114,0,0,1,1.236,4.091v1H55.09a3.332,3.332,0,0,0,.918,2.174,2.755,2.755,0,0,0,2.025.8,3.374,3.374,0,0,0,2.789-1.384l1.343,1.282a4.486,4.486,0,0,1-1.779,1.543A5.57,5.57,0,0,1,57.889,20.205Zm-.3-9.505a2.1,2.1,0,0,0-1.656.718,3.72,3.72,0,0,0-.8,2h4.748v-.185a3.029,3.029,0,0,0-.667-1.892A2.082,2.082,0,0,0,57.592,10.7Zm8.993-1.794.072,1.282A3.989,3.989,0,0,1,69.886,8.7q3.466,0,3.527,3.968V20H70.922V12.812a2.285,2.285,0,0,0-.456-1.564,1.919,1.919,0,0,0-1.492-.508A2.4,2.4,0,0,0,66.728,12.1V20H64.237V8.905Zm12.489-2.7v2.7h1.958v1.846H79.074v6.193a1.364,1.364,0,0,0,.251.918,1.165,1.165,0,0,0,.9.282,3.838,3.838,0,0,0,.872-.1v1.928a6.137,6.137,0,0,1-1.641.236q-2.871,0-2.871-3.168V10.751H74.757V8.905h1.825v-2.7ZM85.616,20H83.124V8.905h2.492ZM85.144,4.322h2.84l-2.84,3.107-2-.005ZM89.113,20V10.751H87.421V8.905h1.692V8.146a4.439,4.439,0,0,1,.554-2.235,3.444,3.444,0,0,1,1.538-1.4,5.536,5.536,0,0,1,2.389-.472,6.964,6.964,0,0,1,1.574.174q.754.174,1.564.441l-.379,2.061a7.932,7.932,0,0,0-2.584-.492,2.309,2.309,0,0,0-1.651.5A1.989,1.989,0,0,0,91.6,8.208v.7h2.184v1.846H91.6V20Zm8.8,0H95.419V8.905H97.91Zm7.321-1.784a2.253,2.253,0,0,0,1.548-.543,1.857,1.857,0,0,0,.656-1.343h2.348a3.66,3.66,0,0,1-.646,1.933,4.237,4.237,0,0,1-1.641,1.42,4.889,4.889,0,0,1-2.235.523,4.73,4.73,0,0,1-3.691-1.507,5.979,5.979,0,0,1-1.364-4.163v-.256a5.879,5.879,0,0,1,1.354-4.055A4.687,4.687,0,0,1,105.252,8.7a4.558,4.558,0,0,1,3.225,1.154,4.132,4.132,0,0,1,1.307,3.03h-2.348a2.282,2.282,0,0,0-.651-1.569,2.1,2.1,0,0,0-1.553-.615,2.193,2.193,0,0,0-1.866.877,4.474,4.474,0,0,0-.667,2.661v.4a4.548,4.548,0,0,0,.651,2.692A2.191,2.191,0,0,0,105.232,18.216ZM111.2,14.35a6.542,6.542,0,0,1,.646-2.938A4.718,4.718,0,0,1,113.66,9.4a5.114,5.114,0,0,1,2.687-.7,4.846,4.846,0,0,1,3.645,1.446,5.687,5.687,0,0,1,1.512,3.835l.01.584a6.6,6.6,0,0,1-.631,2.933,4.661,4.661,0,0,1-1.8,2,5.151,5.151,0,0,1-2.712.708,4.813,4.813,0,0,1-3.758-1.564,5.989,5.989,0,0,1-1.41-4.168Zm2.492.215a4.471,4.471,0,0,0,.708,2.681,2.3,2.3,0,0,0,1.969.969,2.275,2.275,0,0,0,1.964-.984,4.938,4.938,0,0,0,.7-2.881,4.413,4.413,0,0,0-.723-2.666,2.437,2.437,0,0,0-3.9-.015A4.844,4.844,0,0,0,113.691,14.565Z" transform="translate(810 1279)" fill="#12263f"/>
    <path id="Trazado_609455" data-name="Trazado 609455" d="M52.762,7.162H48.107V20H45.533V7.162H40.919V5.07H52.762Zm5.691,13.043a5.155,5.155,0,0,1-3.84-1.492,5.412,5.412,0,0,1-1.471-3.973v-.308a6.657,6.657,0,0,1,.641-2.969,4.878,4.878,0,0,1,1.8-2.035A4.758,4.758,0,0,1,58.166,8.7a4.355,4.355,0,0,1,3.5,1.446A6.114,6.114,0,0,1,62.9,14.237v1h-7.25a3.332,3.332,0,0,0,.918,2.174,2.755,2.755,0,0,0,2.025.8,3.374,3.374,0,0,0,2.789-1.384l1.343,1.282a4.486,4.486,0,0,1-1.779,1.543A5.57,5.57,0,0,1,58.453,20.205Zm-.3-9.505a2.1,2.1,0,0,0-1.656.718,3.72,3.72,0,0,0-.8,2h4.748v-.185a3.029,3.029,0,0,0-.667-1.892A2.082,2.082,0,0,0,58.156,10.7Zm.564-6.45h2.84L58.72,7.357l-2-.005ZM69.394,18.216a2.253,2.253,0,0,0,1.548-.543,1.857,1.857,0,0,0,.656-1.343h2.348a3.66,3.66,0,0,1-.646,1.933,4.237,4.237,0,0,1-1.641,1.42,4.889,4.889,0,0,1-2.235.523A4.73,4.73,0,0,1,65.734,18.7a5.979,5.979,0,0,1-1.364-4.163v-.256a5.879,5.879,0,0,1,1.354-4.055A4.687,4.687,0,0,1,69.415,8.7,4.558,4.558,0,0,1,72.64,9.854a4.132,4.132,0,0,1,1.307,3.03H71.6a2.282,2.282,0,0,0-.651-1.569,2.1,2.1,0,0,0-1.553-.615,2.193,2.193,0,0,0-1.866.877,4.474,4.474,0,0,0-.667,2.661v.4a4.548,4.548,0,0,0,.651,2.692A2.191,2.191,0,0,0,69.394,18.216Zm8.747-9.311.072,1.282A3.989,3.989,0,0,1,81.443,8.7q3.466,0,3.527,3.968V20H82.478V12.812a2.285,2.285,0,0,0-.456-1.564,1.919,1.919,0,0,0-1.492-.508A2.4,2.4,0,0,0,78.284,12.1V20H75.793V8.905ZM90.158,20H87.667V8.905h2.492ZM87.513,6.024a1.322,1.322,0,0,1,.364-.954,1.375,1.375,0,0,1,1.041-.379,1.392,1.392,0,0,1,1.046.379,1.312,1.312,0,0,1,.369.954,1.282,1.282,0,0,1-.369.938,1.4,1.4,0,0,1-1.046.374,1.386,1.386,0,0,1-1.041-.374A1.292,1.292,0,0,1,87.513,6.024Zm9.916,12.192a2.253,2.253,0,0,0,1.548-.543,1.857,1.857,0,0,0,.656-1.343h2.348a3.66,3.66,0,0,1-.646,1.933,4.237,4.237,0,0,1-1.641,1.42,4.889,4.889,0,0,1-2.235.523A4.73,4.73,0,0,1,93.768,18.7,5.979,5.979,0,0,1,92.4,14.535v-.256a5.879,5.879,0,0,1,1.354-4.055A4.687,4.687,0,0,1,97.449,8.7a4.558,4.558,0,0,1,3.225,1.154,4.132,4.132,0,0,1,1.307,3.03H99.633a2.282,2.282,0,0,0-.651-1.569,2.1,2.1,0,0,0-1.553-.615,2.193,2.193,0,0,0-1.866.877,4.474,4.474,0,0,0-.667,2.661v.4a4.548,4.548,0,0,0,.651,2.692A2.191,2.191,0,0,0,97.428,18.216ZM103.4,14.35a6.542,6.542,0,0,1,.646-2.938,4.718,4.718,0,0,1,1.815-2.01,5.114,5.114,0,0,1,2.687-.7,4.846,4.846,0,0,1,3.645,1.446,5.687,5.687,0,0,1,1.512,3.835l.01.584a6.6,6.6,0,0,1-.631,2.933,4.661,4.661,0,0,1-1.8,2,5.151,5.151,0,0,1-2.712.708,4.813,4.813,0,0,1-3.758-1.564,5.989,5.989,0,0,1-1.41-4.168Zm2.492.215a4.471,4.471,0,0,0,.708,2.681,2.3,2.3,0,0,0,1.969.969,2.275,2.275,0,0,0,1.964-.984,4.938,4.938,0,0,0,.7-2.881,4.413,4.413,0,0,0-.723-2.666,2.437,2.437,0,0,0-3.9-.015A4.844,4.844,0,0,0,105.888,14.565Z" transform="translate(810 1378)" fill="#12263f"/>
    <path id="Trazado_609456" data-name="Trazado 609456" d="M55.91,5.07l4.307,11.443,4.3-11.443h3.353V20H65.282V15.078L65.539,8.5,61.13,20H59.274l-4.4-11.495.256,6.573V20H52.547V5.07ZM73.342,20H70.85V8.905h2.492ZM70.7,6.024a1.322,1.322,0,0,1,.364-.954A1.375,1.375,0,0,1,72.1,4.691a1.392,1.392,0,0,1,1.046.379,1.312,1.312,0,0,1,.369.954,1.282,1.282,0,0,1-.369.938,1.4,1.4,0,0,1-1.046.374,1.386,1.386,0,0,1-1.041-.374A1.292,1.292,0,0,1,70.7,6.024Zm9.341,6.532,2.112-3.65h2.769l-3.394,5.465L85.031,20H82.283l-2.215-3.794L77.864,20H75.1L78.6,14.371,75.219,8.905h2.748Zm9.7-6.347v2.7H91.7v1.846H89.738v6.193a1.364,1.364,0,0,0,.251.918,1.165,1.165,0,0,0,.9.282,3.838,3.838,0,0,0,.872-.1v1.928a6.137,6.137,0,0,1-1.641.236q-2.871,0-2.871-3.168V10.751H85.421V8.905h1.825v-2.7Zm3.086,8.142a6.542,6.542,0,0,1,.646-2.938A4.718,4.718,0,0,1,95.285,9.4a5.114,5.114,0,0,1,2.687-.7,4.846,4.846,0,0,1,3.645,1.446,5.687,5.687,0,0,1,1.512,3.835l.01.584a6.6,6.6,0,0,1-.631,2.933,4.661,4.661,0,0,1-1.8,2,5.151,5.151,0,0,1-2.712.708,4.813,4.813,0,0,1-3.758-1.564,5.989,5.989,0,0,1-1.41-4.168Zm2.492.215a4.471,4.471,0,0,0,.708,2.681,2.3,2.3,0,0,0,1.969.969,2.275,2.275,0,0,0,1.964-.984,4.938,4.938,0,0,0,.7-2.881,4.413,4.413,0,0,0-.723-2.666,2.437,2.437,0,0,0-3.9-.015A4.844,4.844,0,0,0,95.316,14.565Z" transform="translate(810 1477)" fill="#12263f"/>
    <path id="Trazado_609457" data-name="Trazado 609457" d="M26.866,20V5.07h4.409a6.916,6.916,0,0,1,3.512.882,6.013,6.013,0,0,1,2.374,2.5A7.942,7.942,0,0,1,38,12.166v.749a7.909,7.909,0,0,1-.846,3.732,5.941,5.941,0,0,1-2.41,2.481A7.236,7.236,0,0,1,31.163,20ZM29.46,7.162V17.929h1.692a3.9,3.9,0,0,0,3.133-1.277A5.561,5.561,0,0,0,35.4,12.986v-.831a5.706,5.706,0,0,0-1.056-3.712,3.744,3.744,0,0,0-3.066-1.282ZM43,20H40.5V8.905H43ZM40.35,6.024a1.322,1.322,0,0,1,.364-.954,1.375,1.375,0,0,1,1.041-.379A1.392,1.392,0,0,1,42.8,5.07a1.312,1.312,0,0,1,.369.954,1.282,1.282,0,0,1-.369.938,1.4,1.4,0,0,1-1.046.374,1.386,1.386,0,0,1-1.041-.374A1.292,1.292,0,0,1,40.35,6.024Zm9.27,10.818,2.348-7.937h2.574L50.7,20H48.533L44.657,8.905h2.584Zm13.2,2.071A3.864,3.864,0,0,1,59.7,20.205a3.444,3.444,0,0,1-2.733-1.056,4.493,4.493,0,0,1-.928-3.056V8.905H58.53v7.157q0,2.112,1.753,2.112a2.462,2.462,0,0,0,2.451-1.3V8.905h2.492V20H62.878ZM70.415,20H67.923V4.25h2.492Zm2.276-5.629a6.489,6.489,0,0,1,1.215-4.127A3.9,3.9,0,0,1,77.131,8.7a3.654,3.654,0,0,1,2.984,1.323l.113-1.118h2.246V19.662a4.471,4.471,0,0,1-1.359,3.445,5.175,5.175,0,0,1-3.666,1.261,5.908,5.908,0,0,1-2.384-.508A4.236,4.236,0,0,1,73.3,22.533l1.179-1.5a3.561,3.561,0,0,0,2.83,1.364,2.752,2.752,0,0,0,1.958-.672,2.574,2.574,0,0,0,.718-1.974v-.749a3.668,3.668,0,0,1-2.871,1.2,3.891,3.891,0,0,1-3.184-1.548A6.7,6.7,0,0,1,72.691,14.371Zm2.481.215a4.467,4.467,0,0,0,.682,2.63,2.193,2.193,0,0,0,1.892.959,2.4,2.4,0,0,0,2.235-1.292V12a2.363,2.363,0,0,0-2.215-1.261,2.2,2.2,0,0,0-1.912.974A5,5,0,0,0,75.172,14.586ZM91.661,20a3.845,3.845,0,0,1-.287-1.036,4.191,4.191,0,0,1-5.64.287,3.051,3.051,0,0,1-1.056-2.358A3.15,3.15,0,0,1,86,14.171a6.385,6.385,0,0,1,3.768-.948h1.528v-.728a1.943,1.943,0,0,0-.482-1.379,1.91,1.91,0,0,0-1.466-.518,2.195,2.195,0,0,0-1.395.426,1.317,1.317,0,0,0-.543,1.082H84.914a2.765,2.765,0,0,1,.6-1.707,4.03,4.03,0,0,1,1.646-1.246A5.781,5.781,0,0,1,89.487,8.7a4.655,4.655,0,0,1,3.107.979,3.492,3.492,0,0,1,1.189,2.753v5a5.671,5.671,0,0,0,.42,2.389V20Zm-2.738-1.794a2.834,2.834,0,0,0,1.389-.359,2.4,2.4,0,0,0,.979-.964V14.791H89.948a3.673,3.673,0,0,0-2.082.482,1.561,1.561,0,0,0-.7,1.364,1.456,1.456,0,0,0,.477,1.143A1.846,1.846,0,0,0,88.923,18.206Zm10.592-12v2.7h1.958v1.846H99.515v6.193a1.364,1.364,0,0,0,.251.918,1.165,1.165,0,0,0,.9.282,3.838,3.838,0,0,0,.872-.1v1.928a6.137,6.137,0,0,1-1.641.236q-2.871,0-2.871-3.168V10.751H95.2V8.905h1.825v-2.7ZM106.026,20h-2.492V8.905h2.492ZM103.381,6.024a1.322,1.322,0,0,1,.364-.954,1.375,1.375,0,0,1,1.041-.379,1.392,1.392,0,0,1,1.046.379,1.312,1.312,0,0,1,.369.954,1.282,1.282,0,0,1-.369.938,1.4,1.4,0,0,1-1.046.374,1.386,1.386,0,0,1-1.041-.374A1.292,1.292,0,0,1,103.381,6.024Zm9.27,10.818L115,8.905h2.574L113.727,20h-2.164L107.688,8.905h2.584Zm5.855-2.492a6.542,6.542,0,0,1,.646-2.938,4.718,4.718,0,0,1,1.815-2.01,5.114,5.114,0,0,1,2.687-.7,4.846,4.846,0,0,1,3.645,1.446,5.687,5.687,0,0,1,1.512,3.835l.01.584a6.6,6.6,0,0,1-.631,2.933,4.661,4.661,0,0,1-1.8,2,5.151,5.151,0,0,1-2.712.708,4.813,4.813,0,0,1-3.758-1.564,5.989,5.989,0,0,1-1.41-4.168Zm2.492.215a4.471,4.471,0,0,0,.708,2.681,2.3,2.3,0,0,0,1.969.969,2.275,2.275,0,0,0,1.964-.984,4.938,4.938,0,0,0,.7-2.881,4.413,4.413,0,0,0-.723-2.666,2.437,2.437,0,0,0-3.9-.015A4.844,4.844,0,0,0,121,14.565Z" transform="translate(808 1173)" fill="#12263f"/>
    <path id="Trazado_609458" data-name="Trazado 609458" d="M43.354,16.155a1.8,1.8,0,0,0-.692-1.518,8.327,8.327,0,0,0-2.5-1.077,12.057,12.057,0,0,1-2.871-1.21,3.831,3.831,0,0,1-2.041-3.343,3.638,3.638,0,0,1,1.471-2.974,5.956,5.956,0,0,1,3.82-1.169,6.452,6.452,0,0,1,2.779.574,4.561,4.561,0,0,1,1.917,1.635,4.2,4.2,0,0,1,.7,2.353H43.354a2.34,2.34,0,0,0-.733-1.83,3.026,3.026,0,0,0-2.1-.661,3.16,3.16,0,0,0-1.974.543A1.81,1.81,0,0,0,37.848,9a1.637,1.637,0,0,0,.759,1.369,8.741,8.741,0,0,0,2.5,1.066,11.509,11.509,0,0,1,2.8,1.179,4.453,4.453,0,0,1,1.548,1.518,3.952,3.952,0,0,1,.492,2,3.553,3.553,0,0,1-1.43,2.969,6.2,6.2,0,0,1-3.881,1.1,7.293,7.293,0,0,1-2.979-.6,5,5,0,0,1-2.112-1.656,4.127,4.127,0,0,1-.754-2.461h2.594a2.415,2.415,0,0,0,.841,1.969,3.682,3.682,0,0,0,2.41.7,3.2,3.2,0,0,0,2.035-.549A1.77,1.77,0,0,0,43.354,16.155Zm9.516,4.05a5.155,5.155,0,0,1-3.84-1.492,5.412,5.412,0,0,1-1.471-3.973v-.308a6.657,6.657,0,0,1,.641-2.969A4.878,4.878,0,0,1,50,9.428,4.758,4.758,0,0,1,52.583,8.7a4.355,4.355,0,0,1,3.5,1.446,6.114,6.114,0,0,1,1.236,4.091v1h-7.25a3.332,3.332,0,0,0,.918,2.174,2.755,2.755,0,0,0,2.025.8A3.374,3.374,0,0,0,55.8,16.832l1.343,1.282a4.486,4.486,0,0,1-1.779,1.543A5.57,5.57,0,0,1,52.87,20.205Zm-.3-9.505a2.1,2.1,0,0,0-1.656.718,3.72,3.72,0,0,0-.8,2h4.748v-.185a3.029,3.029,0,0,0-.667-1.892A2.082,2.082,0,0,0,52.573,10.7Zm6.245,3.671a6.489,6.489,0,0,1,1.215-4.127A3.9,3.9,0,0,1,63.257,8.7a3.654,3.654,0,0,1,2.984,1.323l.113-1.118H68.6V19.662a4.471,4.471,0,0,1-1.359,3.445,5.175,5.175,0,0,1-3.666,1.261,5.908,5.908,0,0,1-2.384-.508,4.236,4.236,0,0,1-1.769-1.328l1.179-1.5a3.561,3.561,0,0,0,2.83,1.364,2.752,2.752,0,0,0,1.958-.672,2.574,2.574,0,0,0,.718-1.974v-.749a3.668,3.668,0,0,1-2.871,1.2,3.891,3.891,0,0,1-3.184-1.548A6.7,6.7,0,0,1,58.817,14.371Zm2.481.215a4.467,4.467,0,0,0,.682,2.63,2.193,2.193,0,0,0,1.892.959,2.4,2.4,0,0,0,2.235-1.292V12a2.363,2.363,0,0,0-2.215-1.261,2.2,2.2,0,0,0-1.912.974A5,5,0,0,0,61.3,14.586Zm16.581,4.327a3.864,3.864,0,0,1-3.117,1.292,3.444,3.444,0,0,1-2.733-1.056,4.493,4.493,0,0,1-.928-3.056V8.905h2.492v7.157q0,2.112,1.753,2.112a2.462,2.462,0,0,0,2.451-1.3V8.905h2.492V20H77.941ZM76.454,4.25h2.84l-2.84,3.107-2-.005Zm8.685,4.655.072,1.282A3.989,3.989,0,0,1,88.441,8.7q3.466,0,3.527,3.968V20H89.477V12.812a2.285,2.285,0,0,0-.456-1.564,1.919,1.919,0,0,0-1.492-.508A2.4,2.4,0,0,0,85.283,12.1V20H82.791V8.905Zm20.815,8.08a1.13,1.13,0,0,0-.549-1.015,5.834,5.834,0,0,0-1.82-.615,9.356,9.356,0,0,1-2.123-.677A2.833,2.833,0,0,1,99.6,12.063a2.953,2.953,0,0,1,1.21-2.4,4.783,4.783,0,0,1,3.076-.964,4.977,4.977,0,0,1,3.215.984,3.124,3.124,0,0,1,1.225,2.553h-2.492a1.536,1.536,0,0,0-.533-1.195,2.043,2.043,0,0,0-1.415-.477,2.208,2.208,0,0,0-1.338.379,1.2,1.2,0,0,0-.518,1.015,1.01,1.01,0,0,0,.482.892,6.627,6.627,0,0,0,1.948.641,9.222,9.222,0,0,1,2.3.769A3.26,3.26,0,0,1,108,15.334a2.733,2.733,0,0,1,.405,1.518,2.891,2.891,0,0,1-1.241,2.425,5.29,5.29,0,0,1-3.25.928,5.737,5.737,0,0,1-2.43-.492,4,4,0,0,1-1.661-1.354,3.2,3.2,0,0,1-.595-1.856h2.42a1.756,1.756,0,0,0,.667,1.359,2.59,2.59,0,0,0,1.63.477,2.52,2.52,0,0,0,1.5-.374A1.158,1.158,0,0,0,105.955,16.985ZM117.3,18.913a3.864,3.864,0,0,1-3.117,1.292,3.444,3.444,0,0,1-2.733-1.056,4.493,4.493,0,0,1-.928-3.056V8.905h2.492v7.157q0,2.112,1.753,2.112a2.462,2.462,0,0,0,2.451-1.3V8.905h2.492V20h-2.348Zm-80.826,23.3a2.253,2.253,0,0,0,1.548-.543,1.857,1.857,0,0,0,.656-1.343h2.348a3.66,3.66,0,0,1-.646,1.933,4.237,4.237,0,0,1-1.641,1.42,4.889,4.889,0,0,1-2.235.523A4.73,4.73,0,0,1,32.808,42.7a5.979,5.979,0,0,1-1.364-4.163v-.256A5.879,5.879,0,0,1,32.8,34.223,4.687,4.687,0,0,1,36.49,32.7a4.558,4.558,0,0,1,3.225,1.154,4.132,4.132,0,0,1,1.307,3.03H38.674a2.282,2.282,0,0,0-.651-1.569,2.1,2.1,0,0,0-1.553-.615,2.193,2.193,0,0,0-1.866.877,4.474,4.474,0,0,0-.667,2.661v.4a4.548,4.548,0,0,0,.651,2.692A2.191,2.191,0,0,0,36.469,42.216Zm5.968-3.866a6.542,6.542,0,0,1,.646-2.938A4.718,4.718,0,0,1,44.9,33.4a5.114,5.114,0,0,1,2.687-.7,4.846,4.846,0,0,1,3.645,1.446,5.687,5.687,0,0,1,1.512,3.835l.01.584a6.6,6.6,0,0,1-.631,2.933,4.661,4.661,0,0,1-1.8,2,5.151,5.151,0,0,1-2.712.708,4.813,4.813,0,0,1-3.758-1.564,5.989,5.989,0,0,1-1.41-4.168Zm2.492.215a4.471,4.471,0,0,0,.708,2.681,2.3,2.3,0,0,0,1.969.969,2.275,2.275,0,0,0,1.964-.984,4.938,4.938,0,0,0,.7-2.881,4.413,4.413,0,0,0-.723-2.666,2.437,2.437,0,0,0-3.9-.015A4.844,4.844,0,0,0,44.928,38.565Zm12.243-5.66.072,1.282a3.989,3.989,0,0,1,3.23-1.487q3.466,0,3.527,3.968V44H61.509V36.812a2.285,2.285,0,0,0-.456-1.564,1.919,1.919,0,0,0-1.492-.508A2.4,2.4,0,0,0,57.315,36.1V44H54.823V32.905Zm12.489-2.7v2.7h1.958v1.846H69.661v6.193a1.364,1.364,0,0,0,.251.918,1.165,1.165,0,0,0,.9.282,3.838,3.838,0,0,0,.872-.1v1.928a6.137,6.137,0,0,1-1.641.236q-2.871,0-2.871-3.168V34.751H65.344V32.905h1.825v-2.7Zm8.747,14a5.155,5.155,0,0,1-3.84-1.492A5.412,5.412,0,0,1,73.1,38.74v-.308a6.657,6.657,0,0,1,.641-2.969,4.878,4.878,0,0,1,1.8-2.035A4.758,4.758,0,0,1,78.12,32.7a4.355,4.355,0,0,1,3.5,1.446,6.114,6.114,0,0,1,1.236,4.091v1h-7.25a3.332,3.332,0,0,0,.918,2.174,2.755,2.755,0,0,0,2.025.8,3.374,3.374,0,0,0,2.789-1.384l1.343,1.282A4.486,4.486,0,0,1,80.9,43.656,5.57,5.57,0,0,1,78.407,44.205Zm-.3-9.505a2.1,2.1,0,0,0-1.656.718,3.72,3.72,0,0,0-.8,2H80.4v-.185a3.029,3.029,0,0,0-.667-1.892A2.082,2.082,0,0,0,78.11,34.7ZM87.1,32.905l.072,1.282A3.989,3.989,0,0,1,90.4,32.7q3.466,0,3.527,3.968V44H91.44V36.812a2.285,2.285,0,0,0-.456-1.564,1.919,1.919,0,0,0-1.492-.508A2.4,2.4,0,0,0,87.246,36.1V44H84.755V32.905ZM99.12,44H96.629V32.905H99.12ZM96.475,30.024a1.322,1.322,0,0,1,.364-.954,1.375,1.375,0,0,1,1.041-.379,1.392,1.392,0,0,1,1.046.379,1.312,1.312,0,0,1,.369.954,1.282,1.282,0,0,1-.369.938,1.4,1.4,0,0,1-1.046.374,1.386,1.386,0,0,1-1.041-.374A1.292,1.292,0,0,1,96.475,30.024Zm4.891,8.347a6.6,6.6,0,0,1,1.189-4.117,3.811,3.811,0,0,1,3.189-1.553,3.621,3.621,0,0,1,2.851,1.23V28.25h2.492V44h-2.256l-.123-1.148a3.673,3.673,0,0,1-2.984,1.354,3.79,3.79,0,0,1-3.153-1.569A6.838,6.838,0,0,1,101.366,38.371Zm2.492.215a4.618,4.618,0,0,0,.651,2.64,2.113,2.113,0,0,0,1.851.948,2.353,2.353,0,0,0,2.235-1.364V36.074a2.317,2.317,0,0,0-2.215-1.333,2.128,2.128,0,0,0-1.866.959A5.143,5.143,0,0,0,103.858,38.586Zm9.362-.236a6.542,6.542,0,0,1,.646-2.938,4.718,4.718,0,0,1,1.815-2.01,5.114,5.114,0,0,1,2.687-.7,4.846,4.846,0,0,1,3.645,1.446,5.687,5.687,0,0,1,1.512,3.835l.01.584A6.6,6.6,0,0,1,122.9,41.5a4.661,4.661,0,0,1-1.8,2,5.151,5.151,0,0,1-2.712.708,4.813,4.813,0,0,1-3.758-1.564,5.989,5.989,0,0,1-1.41-4.168Zm2.492.215a4.471,4.471,0,0,0,.708,2.681,2.3,2.3,0,0,0,1.969.969,2.275,2.275,0,0,0,1.964-.984,4.938,4.938,0,0,0,.7-2.881,4.413,4.413,0,0,0-.723-2.666,2.437,2.437,0,0,0-3.9-.015A4.844,4.844,0,0,0,115.711,38.565Z" transform="translate(770.5 1061.913)" fill="#12263f"/>
    <g id="Grupo_1014962" data-name="Grupo 1014962" transform="translate(1018 2763.945) rotate(180)">
      <circle id="Elipse_4717" data-name="Elipse 4717" cx="2.5" cy="2.5" r="2.5" transform="translate(285 1811.532)" fill="#60cb28"/>
      <circle id="Elipse_4719" data-name="Elipse 4719" cx="2.5" cy="2.5" r="2.5" transform="translate(285 1823.532)" fill="#60cb28"/>
      <circle id="Elipse_4716" data-name="Elipse 4716" cx="2.5" cy="2.5" r="2.5" transform="translate(297 1811.532)" fill="#60cb28"/>
      <circle id="Elipse_4721" data-name="Elipse 4721" cx="2.5" cy="2.5" r="2.5" transform="translate(308 1811.532)" fill="#60cb28"/>
      <circle id="Elipse_4718" data-name="Elipse 4718" cx="2.5" cy="2.5" r="2.5" transform="translate(297 1823.532)" fill="#60cb28"/>
      <circle id="Elipse_4722" data-name="Elipse 4722" cx="2.5" cy="2.5" r="2.5" transform="translate(308 1823.532)" fill="#60cb28"/>
    </g>
  </g>
</svg>
