<svg xmlns="http://www.w3.org/2000/svg" width="304.306" height="149.574" viewBox="0 0 304.306 149.574">
  <g id="Group_53_" data-name="Group (53)" transform="translate(-0.959)">
    <g id="Grupo_1014742" data-name="Grupo 1014742" transform="translate(15.023 69.935)">
      <path id="Trazado_606798" data-name="Trazado 606798" d="M82.567,285.572c-.012-.089-1.2-9.118-6.421-22.151A141.887,141.887,0,0,0,63,238.385a.323.323,0,0,0,.034-.092l1.515-7.762a.305.305,0,0,0-.6-.116l-1.418,7.264a149.462,149.462,0,0,0-17.639-21.753.306.306,0,0,0-.437.427,149.521,149.521,0,0,1,11.311,12.964l-5.61-.965a.305.305,0,1,0-.1.6l6.255,1.077h0a145.863,145.863,0,0,1,15.529,25.156l-8.13-.781a.305.305,0,1,0-.059.608l8.307.8a.37.37,0,0,0,.071,0,.29.29,0,0,0,.1-.03c1.345,2.818,2.488,5.453,3.448,7.846,5.2,12.966,6.381,21.934,6.393,22.023a.3.3,0,0,0,.342.264h0a.3.3,0,0,0,.261-.342Z" transform="translate(-44.364 -215.834)" fill="#dedede"/>
    </g>
    <g id="Grupo_1014743" data-name="Grupo 1014743" transform="translate(0.959 112.104)">
      <path id="Trazado_606799" data-name="Trazado 606799" d="M37.6,376.733a60.867,60.867,0,0,0-8.457-11A85.313,85.313,0,0,0,16.286,354.6a.2.2,0,0,0,0-.058l-.854-4.679a.184.184,0,0,0-.361.066l.8,4.379A89.922,89.922,0,0,0,1.219,346a.184.184,0,0,0-.151.335,89.877,89.877,0,0,1,9.178,4.779l-3.354.69a.184.184,0,1,0,.074.36l3.739-.769h0a87.725,87.725,0,0,1,14.215,10.681L20.2,363.418a.184.184,0,0,0,.1.353l4.828-1.375a.177.177,0,0,0,.039-.016.208.208,0,0,0,.046-.037c1.372,1.282,2.589,2.508,3.652,3.638a60.6,60.6,0,0,1,8.411,10.931.184.184,0,0,0,.25.073h0a.185.185,0,0,0,.072-.249Z" transform="translate(-0.959 -345.98)" fill="#dedede"/>
    </g>
    <g id="Grupo_1014744" data-name="Grupo 1014744" transform="translate(263.032 92.528)">
      <path id="Trazado_606800" data-name="Trazado 606800" d="M809.775,335.891a73.046,73.046,0,0,1,4.635-15.986,102.438,102.438,0,0,1,9.49-18.068.209.209,0,0,1-.025-.066l-1.093-5.6a.22.22,0,1,1,.432-.085l1.024,5.243a107.91,107.91,0,0,1,12.73-15.7.22.22,0,0,1,.315.308,108,108,0,0,0-8.163,9.356l4.048-.7a.22.22,0,1,1,.074.434l-4.514.777h0a105.156,105.156,0,0,0-11.207,18.155l5.868-.563a.221.221,0,0,1,.042.439l-6,.576a.333.333,0,0,1-.051,0,.19.19,0,0,1-.068-.022c-.971,2.034-1.8,3.936-2.488,5.663a72.652,72.652,0,0,0-4.613,15.894.22.22,0,0,1-.246.191h0A.221.221,0,0,1,809.775,335.891Z" transform="translate(-809.774 -285.561)" fill="#dedede"/>
    </g>
    <g id="Grupo_1014745" data-name="Grupo 1014745" transform="translate(276.274 119.745)">
      <path id="Trazado_606801" data-name="Trazado 606801" d="M850.661,393.88a48.141,48.141,0,0,1,6.688-8.7,67.525,67.525,0,0,1,10.166-8.807.164.164,0,0,1,0-.046l.676-3.7a.146.146,0,0,1,.168-.118.144.144,0,0,1,.116.168l-.632,3.463a71.121,71.121,0,0,1,11.586-6.574.145.145,0,0,1,.119.265,71.061,71.061,0,0,0-7.258,3.779l2.652.545a.145.145,0,0,1-.059.285l-2.957-.609h0a69.289,69.289,0,0,0-11.241,8.446l3.736,1.065a.145.145,0,0,1-.079.279l-3.817-1.088a.166.166,0,0,1-.031-.013.168.168,0,0,1-.037-.03c-1.085,1.014-2.048,1.983-2.888,2.878a47.812,47.812,0,0,0-6.651,8.645.145.145,0,1,1-.254-.14Z" transform="translate(-850.644 -369.559)" fill="#dedede"/>
    </g>
    <path id="Trazado_606802" data-name="Trazado 606802" d="M141.753,162.937H139.2a.077.077,0,0,1-.077-.077v-2.552a.077.077,0,0,1,.077-.077h2.552a.077.077,0,0,1,.077.077v2.552A.077.077,0,0,1,141.753,162.937Zm-2.476-.154h2.4v-2.4h-2.4Z" transform="translate(-93.396 -108.313)" fill="#d2aee6"/>
    <path id="Trazado_606803" data-name="Trazado 606803" d="M141.753,182.278H139.2a.077.077,0,0,1-.077-.077v-2.552a.077.077,0,0,1,.077-.077h2.552a.077.077,0,0,1,.077.077V182.2A.077.077,0,0,1,141.753,182.278Zm-2.476-.153h2.4v-2.4h-2.4Z" transform="translate(-93.396 -121.387)" fill="#d2aee6"/>
    <path id="Trazado_606804" data-name="Trazado 606804" d="M127.129,182.278h-2.552a.077.077,0,0,1-.077-.077v-2.552a.077.077,0,0,1,.077-.077h2.552a.077.077,0,0,1,.077.077V182.2A.077.077,0,0,1,127.129,182.278Zm-2.475-.153h2.4v-2.4h-2.4Z" transform="translate(-83.511 -121.387)" fill="#d2aee6"/>
    <path id="Trazado_606805" data-name="Trazado 606805" d="M156.38,182.278h-2.552a.077.077,0,0,1-.077-.077v-2.552a.077.077,0,0,1,.077-.077h2.552a.077.077,0,0,1,.077.077V182.2A.077.077,0,0,1,156.38,182.278Zm-2.476-.153h2.4v-2.4h-2.4Z" transform="translate(-103.284 -121.387)" fill="#d2aee6"/>
    <path id="Trazado_606806" data-name="Trazado 606806" d="M143.015,171.966a.077.077,0,0,1-.077-.077V168.18a.076.076,0,0,1,.077-.076.076.076,0,0,1,.077.076v3.709A.077.077,0,0,1,143.015,171.966Z" transform="translate(-95.975 -113.635)" fill="#d2aee6"/>
    <path id="Trazado_606807" data-name="Trazado 606807" d="M137.962,175.669a.076.076,0,0,1-.077-.076v-1.918h-9.378v1.877a.077.077,0,0,1-.077.077.076.076,0,0,1-.077-.077V173.6a.076.076,0,0,1,.077-.076h9.531a.076.076,0,0,1,.076.076v1.993a.077.077,0,0,1-.076.077Z" transform="translate(-86.116 -117.297)" fill="#d2aee6"/>
    <path id="Trazado_606808" data-name="Trazado 606808" d="M782.485,149.474a4.144,4.144,0,1,1,4.144-4.144A4.148,4.148,0,0,1,782.485,149.474Zm0-8.135a3.991,3.991,0,1,0,3.991,3.991A4,4,0,0,0,782.485,141.339Z" transform="translate(-525.494 -95.44)" fill="#d2aee6"/>
    <path id="Trazado_606809" data-name="Trazado 606809" d="M787.392,149.474c-1,0-1.791-1.82-1.791-4.144s.786-4.144,1.791-4.144,1.791,1.82,1.791,4.144S788.4,149.474,787.392,149.474Zm0-8.135c-.9,0-1.638,1.79-1.638,3.991s.735,3.991,1.638,3.991,1.638-1.79,1.638-3.991S788.295,141.339,787.392,141.339Z" transform="translate(-530.402 -95.44)" fill="#d2aee6"/>
    <path id="Trazado_606810" data-name="Trazado 606810" d="M784.233,143.6a7.1,7.1,0,0,1-3.265-.682.075.075,0,0,1-.038-.051.076.076,0,0,1,.014-.063,4.142,4.142,0,0,1,6.577,0,.076.076,0,0,1-.025.114,7.1,7.1,0,0,1-3.265.682Zm-3.112-.773a8.118,8.118,0,0,0,6.224,0,3.99,3.99,0,0,0-6.224,0Z" transform="translate(-527.243 -95.438)" fill="#d2aee6"/>
    <path id="Trazado_606811" data-name="Trazado 606811" d="M784.41,162.035a4.13,4.13,0,0,1-3.2-1.515.074.074,0,0,1-.016-.064.078.078,0,0,1,.04-.052,8.266,8.266,0,0,1,6.356,0,.074.074,0,0,1,.04.052.072.072,0,0,1-.016.064,4.131,4.131,0,0,1-3.2,1.515Zm-3.022-1.538a3.991,3.991,0,0,0,6.045,0,8.234,8.234,0,0,0-6.045,0Z" transform="translate(-527.42 -108.001)" fill="#d2aee6"/>
    <path id="Trazado_606812" data-name="Trazado 606812" d="M790.969,149.472a.077.077,0,0,1-.077-.077V141.26a.077.077,0,0,1,.153,0V149.4A.077.077,0,0,1,790.969,149.472Z" transform="translate(-533.978 -95.438)" fill="#d2aee6"/>
    <path id="Trazado_606813" data-name="Trazado 606813" d="M786.549,153.888h-8.135a.077.077,0,0,1-.077-.077.076.076,0,0,1,.077-.076h8.135a.077.077,0,1,1,0,.153Z" transform="translate(-525.492 -103.922)" fill="#d2aee6"/>
    <path id="Trazado_606814" data-name="Trazado 606814" d="M774.858,12.441h-7a.076.076,0,0,1-.076-.077V7.938a.077.077,0,0,1,.076-.077h7a.077.077,0,0,1,.077.077v4.426A.077.077,0,0,1,774.858,12.441Zm-6.922-.153h6.846V8.014h-6.846Z" transform="translate(-518.357 -5.314)" fill="#d2aee6"/>
    <path id="Trazado_606815" data-name="Trazado 606815" d="M771.35,10.065a.072.072,0,0,1-.038-.01L767.822,8a.076.076,0,0,1-.035-.086.077.077,0,0,1,.073-.057h7a.075.075,0,0,1,.073.057A.077.077,0,0,1,774.9,8l-3.51,2.054A.076.076,0,0,1,771.35,10.065Zm-3.208-2.054L771.35,9.9l3.227-1.889Z" transform="translate(-518.358 -5.312)" fill="#d2aee6"/>
    <path id="Trazado_606816" data-name="Trazado 606816" d="M729.039,35.408h-.012a12.315,12.315,0,0,1-1.886-.145.158.158,0,0,1,.049-.311,11.967,11.967,0,0,0,1.838.142.163.163,0,0,1,.164.157.152.152,0,0,1-.151.157Zm1.873-.148a.157.157,0,0,1-.024-.312,11.731,11.731,0,0,0,1.8-.433.158.158,0,1,1,.1.3,12.068,12.068,0,0,1-1.852.445l-.024,0Zm-5.576-.431a.142.142,0,0,1-.049-.008,12.222,12.222,0,0,1-1.761-.727.157.157,0,1,1,.143-.28,11.765,11.765,0,0,0,1.716.709.158.158,0,0,1,.1.2.16.16,0,0,1-.15.109Zm9.14-.728a.157.157,0,0,1-.072-.3,11.91,11.91,0,0,0,1.58-.971.157.157,0,0,1,.185.254,12.086,12.086,0,0,1-1.622,1,.161.161,0,0,1-.072.017Zm-12.482-.971a.149.149,0,0,1-.092-.03,12.255,12.255,0,0,1-1.45-1.236.158.158,0,1,1,.223-.223,11.906,11.906,0,0,0,1.412,1.2.157.157,0,0,1-.093.285ZM737.506,31.9a.156.156,0,0,1-.111-.046.158.158,0,0,1,0-.223,11.83,11.83,0,0,0,1.2-1.411.157.157,0,0,1,.254.185,12.336,12.336,0,0,1-1.237,1.449.158.158,0,0,1-.111.046Zm-18.164-1.411a.153.153,0,0,1-.127-.065,12.247,12.247,0,0,1-1-1.62.157.157,0,1,1,.28-.143,11.835,11.835,0,0,0,.973,1.579.157.157,0,0,1-.035.22A.153.153,0,0,1,719.342,30.484Zm20.369-1.62a.152.152,0,0,1-.071-.017.157.157,0,0,1-.069-.211,11.748,11.748,0,0,0,.711-1.715.158.158,0,1,1,.3.1,12.043,12.043,0,0,1-.729,1.76.158.158,0,0,1-.141.086Zm-22.078-1.715a.159.159,0,0,1-.15-.108,12.049,12.049,0,0,1-.446-1.852.157.157,0,1,1,.31-.05,11.933,11.933,0,0,0,.435,1.8.158.158,0,0,1-.1.2.144.144,0,0,1-.049.008ZM740.868,25.3a.086.086,0,0,1-.024,0,.159.159,0,0,1-.131-.18,11.971,11.971,0,0,0,.144-1.849v-.048a.157.157,0,0,1,.157-.158.16.16,0,0,1,.158.157v.05a12.329,12.329,0,0,1-.147,1.9A.156.156,0,0,1,740.868,25.3Zm-23.825-1.862a.147.147,0,0,1-.157-.145h.157l-.157-.023a12.3,12.3,0,0,1,.144-1.875.158.158,0,0,1,.311.049,11.955,11.955,0,0,0-.141,1.826.168.168,0,0,1-.157.17ZM740.861,21.5a.158.158,0,0,1-.156-.132,11.787,11.787,0,0,0-.439-1.8.157.157,0,0,1,.3-.1,12.2,12.2,0,0,1,.451,1.85.157.157,0,0,1-.13.18l-.026,0Zm-23.242-1.756a.146.146,0,0,1-.049-.008.157.157,0,0,1-.1-.2,12.149,12.149,0,0,1,.726-1.762.157.157,0,1,1,.28.143,11.731,11.731,0,0,0-.707,1.716.158.158,0,0,1-.15.109Zm22.072-1.8a.157.157,0,0,1-.139-.085,11.848,11.848,0,0,0-.976-1.576.157.157,0,0,1,.253-.186,12.183,12.183,0,0,1,1,1.619.158.158,0,0,1-.067.211.161.161,0,0,1-.072.017ZM719.316,16.4a.151.151,0,0,1-.092-.03.157.157,0,0,1-.035-.22,12.246,12.246,0,0,1,1.234-1.451.158.158,0,0,1,.223.223,11.921,11.921,0,0,0-1.2,1.414.155.155,0,0,1-.128.065Zm2.644-2.657a.155.155,0,0,1-.126-.064.157.157,0,0,1,.033-.22,12.3,12.3,0,0,1,1.62-1,.157.157,0,1,1,.143.28,11.9,11.9,0,0,0-1.577.975.154.154,0,0,1-.093.03Zm3.333-1.712a.157.157,0,0,1-.049-.307,12.038,12.038,0,0,1,1.85-.448.157.157,0,1,1,.05.31,11.859,11.859,0,0,0-1.8.437A.142.142,0,0,1,725.293,12.033Zm5.575-.454a.088.088,0,0,1-.025,0,11.967,11.967,0,0,0-1.815-.138h-.036a.157.157,0,0,1,0-.314h.036a12.29,12.29,0,0,1,1.862.142.157.157,0,0,1-.024.312Z" transform="translate(-483.952 -7.52)" fill="#d2aee6"/>
    <path id="Trazado_606817" data-name="Trazado 606817" d="M154.2,12.286h-1a.077.077,0,0,1-.077-.077v-.585a2.848,2.848,0,0,1-.987-.447l-.44.44a.076.076,0,0,1-.108,0l-.705-.705a.076.076,0,0,1,0-.108l.465-.465a2.864,2.864,0,0,1-.38-.964h-.676a.077.077,0,0,1-.077-.077v-1a.077.077,0,0,1,.077-.077h.683a2.861,2.861,0,0,1,.386-.951L150.88,6.8a.076.076,0,0,1,0-.108l.705-.705a.078.078,0,0,1,.108,0l.46.46a2.844,2.844,0,0,1,.969-.433V5.39a.077.077,0,0,1,.077-.077h1a.077.077,0,0,1,.077.077v.578a2.845,2.845,0,0,1,1.048.395l.381-.381a.078.078,0,0,1,.108,0l.705.705a.077.077,0,0,1,.022.055.079.079,0,0,1-.022.055l-.358.358a2.914,2.914,0,0,1,.466,1.071h.483a.076.076,0,0,1,.076.077v1a.077.077,0,0,1-.076.077h-.476a2.909,2.909,0,0,1-.459,1.085l.344.344a.077.077,0,0,1,.022.055.079.079,0,0,1-.022.055l-.705.705a.078.078,0,0,1-.108,0l-.361-.361a2.835,2.835,0,0,1-1.067.408v.545a.077.077,0,0,1-.077.077Zm-.921-.153h.844V11.6a.075.075,0,0,1,.066-.076,2.712,2.712,0,0,0,1.123-.427.077.077,0,0,1,.1.009l.351.351.6-.6-.336-.336a.076.076,0,0,1-.008-.1,2.736,2.736,0,0,0,.482-1.137.076.076,0,0,1,.075-.064h.463V8.379h-.469a.077.077,0,0,1-.075-.063A2.729,2.729,0,0,0,156,7.193a.077.077,0,0,1,.007-.1l.35-.35-.6-.6-.37.371a.076.076,0,0,1-.1.01,2.687,2.687,0,0,0-1.1-.415.077.077,0,0,1-.066-.076V5.47h-.845v.6a.076.076,0,0,1-.06.074,2.687,2.687,0,0,0-1.025.46.076.076,0,0,1-.1-.008l-.452-.452-.6.6.467.467a.076.076,0,0,1,.009.1,2.687,2.687,0,0,0-.409,1.009.077.077,0,0,1-.075.063h-.669v.844h.663a.077.077,0,0,1,.076.064,2.715,2.715,0,0,0,.4,1.022.076.076,0,0,1-.01.1l-.454.454.6.6.433-.433a.076.076,0,0,1,.1-.007,2.719,2.719,0,0,0,1.043.473.077.077,0,0,1,.06.074v.57Zm.523-1.589a1.727,1.727,0,1,1,1.705-2V9.08a1.71,1.71,0,0,1-.409.878l-.151.151,0,0A1.723,1.723,0,0,1,153.8,10.544Zm0-3.3A1.575,1.575,0,1,0,154.835,10l.146-.146a1.564,1.564,0,0,0,.369-.785V8.554A1.568,1.568,0,0,0,153.8,7.242Z" transform="translate(-100.892 -3.591)" fill="#d2aee6"/>
    <path id="Trazado_606818" data-name="Trazado 606818" d="M141.78,19.15a.079.079,0,0,1-.036-.009.076.076,0,0,1-.037-.045l-.151-.484a1.452,1.452,0,0,1-.337-.044l-.243.461a.077.077,0,0,1-.045.037.072.072,0,0,1-.058-.006l-.458-.24a.077.077,0,0,1-.032-.1l.253-.482a1.327,1.327,0,0,1-.2-.245l-.526.164a.073.073,0,0,1-.058-.006.077.077,0,0,1-.037-.045l-.154-.494a.076.076,0,0,1,.05-.1l.531-.165a1.291,1.291,0,0,1,.026-.308l-.489-.257a.077.077,0,0,1-.033-.1l.24-.458a.076.076,0,0,1,.1-.031l.475.25a1.276,1.276,0,0,1,.245-.217l-.156-.5a.071.071,0,0,1,.006-.058.076.076,0,0,1,.045-.037l.494-.153a.072.072,0,0,1,.058.006.076.076,0,0,1,.037.045l.147.475a1.278,1.278,0,0,1,.358.02l.225-.427a.076.076,0,0,1,.1-.031l.458.24a.077.077,0,0,1,.032.1l-.215.408a1.311,1.311,0,0,1,.252.29l.432-.135a.078.078,0,0,1,.058.006.077.077,0,0,1,.037.045l.154.494a.076.076,0,0,1-.05.1l-.427.132a1.279,1.279,0,0,1-.04.388l.4.21a.077.077,0,0,1,.032.1l-.24.458a.077.077,0,0,1-.1.033l-.414-.217a1.3,1.3,0,0,1-.293.228l.143.459a.076.076,0,0,1-.05.1l-.494.153a.073.073,0,0,1-.023,0Zm-.167-.692a.077.077,0,0,1,.073.053l.145.467.347-.108-.138-.446a.076.076,0,0,1,.038-.091,1.144,1.144,0,0,0,.345-.267.077.077,0,0,1,.093-.017l.4.209.17-.323-.387-.2a.076.076,0,0,1-.037-.091,1.141,1.141,0,0,0,.045-.452.076.076,0,0,1,.053-.08l.412-.128-.108-.348-.416.129a.077.077,0,0,1-.089-.035,1.176,1.176,0,0,0-.294-.339.077.077,0,0,1-.021-.1l.208-.395-.323-.17-.216.411a.076.076,0,0,1-.086.038,1.133,1.133,0,0,0-.424-.022.078.078,0,0,1-.084-.053l-.144-.462-.348.108.15.483a.076.076,0,0,1-.032.087,1.17,1.17,0,0,0-.3.264.075.075,0,0,1-.1.02l-.462-.243-.17.323.474.249a.075.075,0,0,1,.038.086,1.153,1.153,0,0,0-.031.379.076.076,0,0,1-.053.079l-.515.16.108.348.511-.159a.077.077,0,0,1,.089.036,1.174,1.174,0,0,0,.239.3.078.078,0,0,1,.016.093l-.245.466.323.17.236-.45a.076.076,0,0,1,.091-.037,1.14,1.14,0,0,0,.4.053h0Zm-.058-.627a.535.535,0,0,1-.245-.06.525.525,0,0,1-.258-.31.528.528,0,0,1,.347-.66.53.53,0,0,1,.661.347.52.52,0,0,1-.037.4.531.531,0,0,1-.467.282Zm0-.9a.376.376,0,1,0,.359.265.374.374,0,0,0-.359-.265Z" transform="translate(-93.76 -10.457)" fill="#d2aee6"/>
    <path id="Trazado_606819" data-name="Trazado 606819" d="M158.234,38.951a.162.162,0,0,1,.164-.157,11.972,11.972,0,0,0,1.838-.142.158.158,0,1,1,.049.311,12.305,12.305,0,0,1-1.886.145h-.012a.152.152,0,0,1-.151-.157Zm-1.747.008a12.035,12.035,0,0,1-1.851-.445.158.158,0,1,1,.1-.3,11.829,11.829,0,0,0,1.8.433.157.157,0,0,1-.024.312.086.086,0,0,1-.024,0Zm5.452-.539a.158.158,0,0,1,.1-.2,11.863,11.863,0,0,0,1.716-.709.157.157,0,0,1,.143.28,11.977,11.977,0,0,1-1.761.727.177.177,0,0,1-.049.008.159.159,0,0,1-.15-.109Zm-9.062-.637a12.213,12.213,0,0,1-1.622-1,.157.157,0,0,1,.185-.254,11.913,11.913,0,0,0,1.58.971.157.157,0,0,1-.072.3.161.161,0,0,1-.072-.017ZM165.3,36.765a.158.158,0,0,1,.035-.22,12.019,12.019,0,0,0,1.412-1.2.158.158,0,1,1,.223.223,12.254,12.254,0,0,1-1.45,1.236.16.16,0,0,1-.092.03.157.157,0,0,1-.128-.065Zm-15.495-1.216A12.249,12.249,0,0,1,148.57,34.1a.157.157,0,0,1,.254-.185,12.017,12.017,0,0,0,1.2,1.411.158.158,0,0,1-.111.269.155.155,0,0,1-.111-.046Zm18.183-1.4a.158.158,0,0,1-.035-.22,12,12,0,0,0,.973-1.579.157.157,0,0,1,.28.143,12.108,12.108,0,0,1-1,1.62.16.16,0,0,1-.127.065A.154.154,0,0,1,167.991,34.154Zm-20.417-1.676a12.154,12.154,0,0,1-.729-1.76.158.158,0,0,1,.3-.1,11.783,11.783,0,0,0,.711,1.715.157.157,0,0,1-.069.211.16.16,0,0,1-.071.017.158.158,0,0,1-.14-.086Zm22.17-1.636a.158.158,0,0,1-.1-.2,11.707,11.707,0,0,0,.435-1.8.157.157,0,1,1,.31.05,12.162,12.162,0,0,1-.446,1.852.158.158,0,0,1-.15.108.146.146,0,0,1-.049-.008ZM146.4,28.865a12.329,12.329,0,0,1-.148-1.9v-.05a.16.16,0,0,1,.158-.157.157.157,0,0,1,.157.158v.048a12.02,12.02,0,0,0,.144,1.849.157.157,0,0,1-.131.18l-.024,0A.158.158,0,0,1,146.4,28.865Zm23.824-1.9a11.963,11.963,0,0,0-.141-1.826.158.158,0,0,1,.311-.049,12.3,12.3,0,0,1,.144,1.875l-.157.023h.157a.147.147,0,0,1-.157.145.168.168,0,0,1-.157-.17ZM146.54,25.2a.157.157,0,0,1-.13-.18,12.048,12.048,0,0,1,.451-1.85.157.157,0,1,1,.3.1,11.826,11.826,0,0,0-.439,1.8.157.157,0,0,1-.156.132.1.1,0,0,1-.026,0Zm23.118-1.864a11.9,11.9,0,0,0-.706-1.716.157.157,0,1,1,.28-.143,12.1,12.1,0,0,1,.726,1.762.157.157,0,0,1-.1.2.145.145,0,0,1-.049.008A.159.159,0,0,1,169.658,23.335Zm-21.994-1.711a.156.156,0,0,1-.067-.211,12.3,12.3,0,0,1,1-1.619.157.157,0,0,1,.253.186,11.961,11.961,0,0,0-.976,1.576.155.155,0,0,1-.139.085.16.16,0,0,1-.072-.017Zm20.319-1.588a12.016,12.016,0,0,0-1.2-1.414A.158.158,0,1,1,167,18.4a12.123,12.123,0,0,1,1.234,1.451.157.157,0,0,1-.035.22.161.161,0,0,1-.092.03.157.157,0,0,1-.128-.065Zm-2.609-2.622a11.891,11.891,0,0,0-1.578-.975.157.157,0,0,1,.143-.28,12.128,12.128,0,0,1,1.619,1,.157.157,0,0,1-.093.283.154.154,0,0,1-.093-.03Zm-3.29-1.69a11.85,11.85,0,0,0-1.8-.437.157.157,0,0,1,.05-.31,12.029,12.029,0,0,1,1.85.448.157.157,0,0,1-.049.307A.142.142,0,0,1,162.084,15.724Zm-5.681-.58a.156.156,0,0,1,.131-.179,12.289,12.289,0,0,1,1.862-.142h.036a.157.157,0,0,1,0,.314H158.4a11.974,11.974,0,0,0-1.814.138l-.025,0a.158.158,0,0,1-.156-.134Z" transform="translate(-98.216 -10.021)" fill="#d2aee6"/>
    <g id="Grupo_1014746" data-name="Grupo 1014746" transform="translate(128.347 2.033)">
      <path id="Trazado_606820" data-name="Trazado 606820" d="M395.583,7.013a.739.739,0,1,1-.739-.739A.739.739,0,0,1,395.583,7.013Z" transform="translate(-394.105 -6.274)" fill="#bfbfd9"/>
    </g>
    <g id="Grupo_1014747" data-name="Grupo 1014747" transform="translate(131.807 2.033)">
      <path id="Trazado_606821" data-name="Trazado 606821" d="M406.263,7.013a.739.739,0,1,1-.739-.739A.739.739,0,0,1,406.263,7.013Z" transform="translate(-404.785 -6.274)" fill="#bfbfd9"/>
    </g>
    <g id="Grupo_1014748" data-name="Grupo 1014748" transform="translate(135.269 2.033)">
      <path id="Trazado_606822" data-name="Trazado 606822" d="M416.946,7.013a.739.739,0,1,1-.739-.739A.739.739,0,0,1,416.946,7.013Z" transform="translate(-415.468 -6.274)" fill="#bfbfd9"/>
    </g>
    <g id="Grupo_1014749" data-name="Grupo 1014749" transform="translate(138.73 2.033)">
      <path id="Trazado_606823" data-name="Trazado 606823" d="M427.63,7.013a.739.739,0,1,1-.739-.739A.739.739,0,0,1,427.63,7.013Z" transform="translate(-426.152 -6.274)" fill="#bfbfd9"/>
    </g>
    <g id="Grupo_1014750" data-name="Grupo 1014750" transform="translate(128.347 5.495)">
      <path id="Trazado_606824" data-name="Trazado 606824" d="M395.583,17.7a.739.739,0,1,1-.739-.739A.739.739,0,0,1,395.583,17.7Z" transform="translate(-394.105 -16.958)" fill="#bfbfd9"/>
    </g>
    <g id="Grupo_1014751" data-name="Grupo 1014751" transform="translate(131.807 5.495)">
      <path id="Trazado_606825" data-name="Trazado 606825" d="M406.263,17.7a.739.739,0,1,1-.739-.739A.739.739,0,0,1,406.263,17.7Z" transform="translate(-404.785 -16.958)" fill="#bfbfd9"/>
    </g>
    <g id="Grupo_1014752" data-name="Grupo 1014752" transform="translate(135.269 5.495)">
      <path id="Trazado_606826" data-name="Trazado 606826" d="M416.946,17.7a.739.739,0,1,1-.739-.739A.739.739,0,0,1,416.946,17.7Z" transform="translate(-415.468 -16.958)" fill="#bfbfd9"/>
    </g>
    <g id="Grupo_1014753" data-name="Grupo 1014753" transform="translate(138.73 5.495)">
      <path id="Trazado_606827" data-name="Trazado 606827" d="M427.63,17.7a.739.739,0,1,1-.739-.739A.739.739,0,0,1,427.63,17.7Z" transform="translate(-426.152 -16.958)" fill="#bfbfd9"/>
    </g>
    <path id="Trazado_606828" data-name="Trazado 606828" d="M260.326,0,256.6,7.5h7.716Z" transform="translate(-172.81)" fill="#641493"/>
    <g id="Grupo_1014754" data-name="Grupo 1014754" transform="translate(39.166 32.951)">
      <path id="Trazado_606829" data-name="Trazado 606829" d="M122.523,102.443l-.748-.749L120.7,102.77l-1.074-1.076-.749.749,1.076,1.076-1.076,1.074.749.749,1.074-1.076,1.076,1.076.748-.749-1.075-1.074Z" transform="translate(-118.875 -101.694)" fill="#bfbfd9"/>
    </g>
    <g id="Grupo_1014755" data-name="Grupo 1014755" transform="translate(267.945 57.43)">
      <path id="Trazado_606830" data-name="Trazado 606830" d="M828.585,177.99l-.749-.748-1.074,1.076-1.076-1.076-.749.748,1.076,1.076-1.076,1.075.749.748,1.076-1.075,1.074,1.075.749-.748-1.076-1.075Z" transform="translate(-824.936 -177.242)" fill="#bfbfd9"/>
    </g>
    <path id="Trazado_606831" data-name="Trazado 606831" d="M649.035,5.879V6.9h4.571v4.817h1.271V5.879Z" transform="translate(-438.086 -3.974)" fill="#7e19b8"/>
    <g id="Grupo_1014756" data-name="Grupo 1014756" transform="translate(208.957 3.536)">
      <path id="Trazado_606832" data-name="Trazado 606832" d="M648.729,10.913h-5.842v5.842h5.842Z" transform="translate(-642.887 -10.913)" fill="#bfbfd9"/>
    </g>
    <path id="Trazado_606833" data-name="Trazado 606833" d="M826.322,244.883l.571,1.754a.252.252,0,0,0,.239.174h1.845a.252.252,0,0,1,.148.456l-1.493,1.084a.251.251,0,0,0-.092.281l.571,1.754a.251.251,0,0,1-.387.281l-1.493-1.084a.253.253,0,0,0-.3,0l-1.493,1.084a.251.251,0,0,1-.387-.281l.571-1.754a.251.251,0,0,0-.092-.281l-1.492-1.084a.252.252,0,0,1,.147-.456h1.845a.25.25,0,0,0,.239-.174l.571-1.754a.251.251,0,0,1,.479,0Z" transform="translate(-555.64 -165.419)" fill="#641493"/>
    <path id="Trazado_606834" data-name="Trazado 606834" d="M274.264,402.015h-11.47v8.054h11.47Z" transform="translate(-176.995 -271.754)" fill="#363636"/>
    <path id="Trazado_606835" data-name="Trazado 606835" d="M650.567,402.015H639.1v8.054h11.47Z" transform="translate(-431.368 -271.754)" fill="#363636"/>
    <path id="Trazado_606836" data-name="Trazado 606836" d="M361.189,39.164H176.181a3.346,3.346,0,0,0-3.346,3.346V155.771a3.345,3.345,0,0,0,3.346,3.346H361.189a3.345,3.345,0,0,0,3.345-3.346V42.509A3.346,3.346,0,0,0,361.189,39.164Z" transform="translate(-116.184 -26.474)" fill="#404040"/>
    <path id="Trazado_606837" data-name="Trazado 606837" d="M356.6,419.951H158.078a2.753,2.753,0,0,0-2.753,2.753v2.729a2.753,2.753,0,0,0,2.753,2.753H356.6a2.753,2.753,0,0,0,2.753-2.753V422.7A2.753,2.753,0,0,0,356.6,419.951Z" transform="translate(-104.348 -283.878)" fill="#404040"/>
    <path id="Trazado_606838" data-name="Trazado 606838" d="M363.623,44.875H181.465a2.919,2.919,0,0,0-2.919,2.919v104.24a2.919,2.919,0,0,0,2.919,2.919H363.623a2.919,2.919,0,0,0,2.919-2.919V47.794A2.919,2.919,0,0,0,363.623,44.875Z" transform="translate(-120.045 -30.335)" fill="#737373"/>
    <path id="Trazado_606839" data-name="Trazado 606839" d="M369.67,53.762H187.433V158.081H369.67Z" transform="translate(-126.052 -36.342)" fill="#ecf4ff"/>
    <path id="Trazado_606840" data-name="Trazado 606840" d="M375.786,164.2V71.139H204.81V164.2Z" transform="translate(-137.799 -48.088)" fill="#fff"/>
    <path id="Trazado_606841" data-name="Trazado 606841" d="M653.987,182.344H644.2a1.754,1.754,0,0,0-1.754,1.754V226.89a1.754,1.754,0,0,0,1.754,1.754h9.792a1.754,1.754,0,0,0,1.754-1.754V184.1A1.754,1.754,0,0,0,653.987,182.344Z" transform="translate(-433.629 -123.261)" fill="#7e19b8"/>
    <path id="Trazado_606842" data-name="Trazado 606842" d="M585.032,222.249h-9.792A1.754,1.754,0,0,0,573.487,224v29.862a1.754,1.754,0,0,0,1.754,1.754h9.792a1.754,1.754,0,0,0,1.754-1.754V224A1.754,1.754,0,0,0,585.032,222.249Z" transform="translate(-387.017 -150.236)" fill="#7e19b8"/>
    <path id="Trazado_606843" data-name="Trazado 606843" d="M516.078,256.45h-9.792a1.754,1.754,0,0,0-1.754,1.754v18.78a1.754,1.754,0,0,0,1.754,1.754h9.792a1.754,1.754,0,0,0,1.754-1.754V258.2A1.754,1.754,0,0,0,516.078,256.45Z" transform="translate(-340.405 -173.355)" fill="#7e19b8"/>
    <path id="Trazado_606844" data-name="Trazado 606844" d="M493.9,130.941l-10.52-4.3L485.329,130H450.883a.944.944,0,0,0-.858.552L437.47,158.072h-18.11a.945.945,0,0,0-.915.712l-7.7,30.32H390.79a.945.945,0,0,0,0,1.889h20.688a.945.945,0,0,0,.915-.712l7.7-30.32h17.983a.944.944,0,0,0,.858-.552l12.555-27.524h33.84l-1.948,3.355,10.52-4.3Z" transform="translate(-262.879 -85.608)" fill="#b6c0d7"/>
    <path id="Trazado_606845" data-name="Trazado 606845" d="M375.746,71.135h-171v6.636h171Z" transform="translate(-137.758 -48.086)" fill="#7e19b8"/>
    <path id="Trazado_606846" data-name="Trazado 606846" d="M213.059,75.089l-1.771,1.38v2.719h1.3V77.4h.948v1.792h1.3V76.469Z" transform="translate(-142.178 -50.759)" fill="#7e19b8"/>
    <path id="Trazado_606847" data-name="Trazado 606847" d="M715.862,77.724h-3.894a.36.36,0,1,1,0-.72h3.894a.36.36,0,0,1,0,.72Z" transform="translate(-480.384 -52.053)" fill="#7e19b8"/>
    <path id="Trazado_606848" data-name="Trazado 606848" d="M715.862,81.729h-3.894a.36.36,0,1,1,0-.72h3.894a.36.36,0,0,1,0,.72Z" transform="translate(-480.384 -54.76)" fill="#7e19b8"/>
    <path id="Trazado_606849" data-name="Trazado 606849" d="M715.862,85.736h-3.894a.36.36,0,1,1,0-.72h3.894a.36.36,0,0,1,0,.72Z" transform="translate(-480.384 -57.469)" fill="#7e19b8"/>
    <g id="Grupo_1014757" data-name="Grupo 1014757" transform="translate(78.933 36.788)">
      <path id="Trazado_606850" data-name="Trazado 606850" d="M270.6,113.535H244.263a2.66,2.66,0,0,0-2.66,2.66v1.855a2.66,2.66,0,0,0,2.66,2.66H270.6a2.66,2.66,0,0,0,2.66-2.66V116.2A2.66,2.66,0,0,0,270.6,113.535Z" transform="translate(-241.603 -113.535)" fill="#bfbfd9"/>
    </g>
    <path id="Trazado_606851" data-name="Trazado 606851" d="M266.909,109.409H240.571a2.66,2.66,0,0,0-2.66,2.66v1.855a2.66,2.66,0,0,0,2.66,2.66h26.338a2.66,2.66,0,0,0,2.66-2.66v-1.855A2.66,2.66,0,0,0,266.909,109.409Z" transform="translate(-160.174 -73.958)" fill="#7e19b8"/>
    <g id="Grupo_1014758" data-name="Grupo 1014758" transform="translate(70.801 51.596)">
      <path id="Trazado_606852" data-name="Trazado 606852" d="M228.441,159.238H217.975a1.468,1.468,0,0,0-1.468,1.468v10.36a1.468,1.468,0,0,0,1.468,1.468h10.465a1.468,1.468,0,0,0,1.468-1.468v-10.36A1.468,1.468,0,0,0,228.441,159.238Z" transform="translate(-216.507 -159.238)" fill="#bfbfd9"/>
    </g>
    <path id="Trazado_606853" data-name="Trazado 606853" d="M232.675,154.028H222.21a1.468,1.468,0,0,0-1.468,1.468v10.359a1.468,1.468,0,0,0,1.468,1.468h10.465a1.468,1.468,0,0,0,1.468-1.468V155.5A1.468,1.468,0,0,0,232.675,154.028Z" transform="translate(-148.569 -104.12)" fill="#fff"/>
    <path id="Trazado_606854" data-name="Trazado 606854" d="M227.9,157l4.116,5.17,8.97-11.4-9.04,8.5Z" transform="translate(-153.41 -101.917)" fill="#7e98de"/>
    <path id="Trazado_606855" data-name="Trazado 606855" d="M289.251,159.238H277.325a1.29,1.29,0,0,0-1.291,1.291v.9a1.29,1.29,0,0,0,1.291,1.291h11.927a1.29,1.29,0,0,0,1.291-1.291v-.9A1.29,1.29,0,0,0,289.251,159.238Z" transform="translate(-185.945 -107.642)" fill="#d4e6ff"/>
    <path id="Trazado_606856" data-name="Trazado 606856" d="M299.167,178.382H277.325a1.29,1.29,0,0,0-1.291,1.291v.9a1.29,1.29,0,0,0,1.291,1.291h21.842a1.29,1.29,0,0,0,1.291-1.291v-.9A1.29,1.29,0,0,0,299.167,178.382Z" transform="translate(-185.945 -120.583)" fill="#d4e6ff"/>
    <g id="Grupo_1014759" data-name="Grupo 1014759" transform="translate(70.801 73.441)">
      <path id="Trazado_606857" data-name="Trazado 606857" d="M228.441,226.655H217.975a1.468,1.468,0,0,0-1.468,1.468v10.36a1.468,1.468,0,0,0,1.468,1.468h10.465a1.468,1.468,0,0,0,1.468-1.468v-10.36A1.468,1.468,0,0,0,228.441,226.655Z" transform="translate(-216.507 -226.655)" fill="#bfbfd9"/>
    </g>
    <path id="Trazado_606858" data-name="Trazado 606858" d="M232.675,221.442H222.21a1.468,1.468,0,0,0-1.468,1.468v10.36a1.468,1.468,0,0,0,1.468,1.468h10.465a1.468,1.468,0,0,0,1.468-1.468V222.91A1.468,1.468,0,0,0,232.675,221.442Z" transform="translate(-148.569 -149.69)" fill="#fff"/>
    <path id="Trazado_606859" data-name="Trazado 606859" d="M227.9,224.413l4.116,5.17,8.97-11.4-9.04,8.5Z" transform="translate(-153.41 -147.49)" fill="#7e98de"/>
    <path id="Trazado_606860" data-name="Trazado 606860" d="M289.251,226.655H277.325a1.29,1.29,0,0,0-1.291,1.291v.9a1.29,1.29,0,0,0,1.291,1.291h11.927a1.29,1.29,0,0,0,1.291-1.291v-.9A1.29,1.29,0,0,0,289.251,226.655Z" transform="translate(-185.945 -153.214)" fill="#d4e6ff"/>
    <path id="Trazado_606861" data-name="Trazado 606861" d="M299.167,245.8H277.325a1.291,1.291,0,0,0-1.291,1.291v.9a1.29,1.29,0,0,0,1.291,1.291h21.842a1.29,1.29,0,0,0,1.291-1.291v-.9A1.291,1.291,0,0,0,299.167,245.8Z" transform="translate(-185.945 -166.152)" fill="#d4e6ff"/>
    <g id="Grupo_1014760" data-name="Grupo 1014760" transform="translate(70.801 95.284)">
      <path id="Trazado_606862" data-name="Trazado 606862" d="M228.441,294.068H217.975a1.468,1.468,0,0,0-1.468,1.468V305.9a1.468,1.468,0,0,0,1.468,1.468h10.465a1.468,1.468,0,0,0,1.468-1.468V295.536A1.468,1.468,0,0,0,228.441,294.068Z" transform="translate(-216.507 -294.068)" fill="#bfbfd9"/>
    </g>
    <path id="Trazado_606863" data-name="Trazado 606863" d="M232.675,288.859H222.21a1.468,1.468,0,0,0-1.468,1.468v10.359a1.468,1.468,0,0,0,1.468,1.468h10.465a1.468,1.468,0,0,0,1.468-1.468V290.327A1.468,1.468,0,0,0,232.675,288.859Z" transform="translate(-148.569 -195.263)" fill="#fff"/>
    <path id="Trazado_606864" data-name="Trazado 606864" d="M227.9,291.827,232.02,297l8.97-11.4-9.04,8.495Z" transform="translate(-153.41 -193.061)" fill="#7e98de"/>
    <path id="Trazado_606865" data-name="Trazado 606865" d="M289.251,294.068H277.325a1.291,1.291,0,0,0-1.291,1.291v.9a1.29,1.29,0,0,0,1.291,1.291h11.927a1.29,1.29,0,0,0,1.291-1.291v-.9A1.291,1.291,0,0,0,289.251,294.068Z" transform="translate(-185.945 -198.784)" fill="#d4e6ff"/>
    <path id="Trazado_606866" data-name="Trazado 606866" d="M299.167,313.213H277.325a1.29,1.29,0,0,0-1.291,1.291v.9a1.29,1.29,0,0,0,1.291,1.291h21.842a1.29,1.29,0,0,0,1.291-1.291v-.9A1.29,1.29,0,0,0,299.167,313.213Z" transform="translate(-185.945 -211.726)" fill="#d4e6ff"/>
    <path id="Trazado_606867" data-name="Trazado 606867" d="M668.516,338.71a34.277,34.277,0,0,0-34.276,34.276c0,.1,0,.191,0,.286h68.545c0-.1,0-.191,0-.286a34.277,34.277,0,0,0-34.276-34.276Z" transform="translate(-428.084 -228.961)" fill="#b6c0d7"/>
    <path id="Trazado_606868" data-name="Trazado 606868" d="M678.646,353.7a29.42,29.42,0,0,0-29.421,29.421c0,.1.006.191.007.286h58.826c0-.1.007-.189.007-.286A29.42,29.42,0,0,0,678.644,353.7Z" transform="translate(-438.214 -239.091)" fill="#fdfaff"/>
    <path id="Trazado_606869" data-name="Trazado 606869" d="M735.219,435.259a4.427,4.427,0,0,0-8.854,0c0,.1.008.191.014.286H735.2C735.211,435.449,735.219,435.355,735.219,435.259Z" transform="translate(-490.359 -291.234)" fill="#b6c0d7"/>
    <path id="Trazado_606870" data-name="Trazado 606870" d="M738.053,358.689h-1.021a.679.679,0,0,0-.679.68v3.973a.679.679,0,0,0,.679.679h1.021a.679.679,0,0,0,.679-.679v-3.973A.68.68,0,0,0,738.053,358.689Z" transform="translate(-497.111 -242.467)" fill="#7e19b8"/>
    <path id="Trazado_606871" data-name="Trazado 606871" d="M790.46,382.583l-2.809,2.809a.679.679,0,0,0,0,.961l.722.722a.68.68,0,0,0,.961,0l2.809-2.809a.68.68,0,0,0,0-.961l-.722-.722A.68.68,0,0,0,790.46,382.583Z" transform="translate(-531.653 -258.484)" fill="#415a9d"/>
    <path id="Trazado_606872" data-name="Trazado 606872" d="M813.342,432.242l-3.949.435a.68.68,0,0,0-.6.75l.112,1.015a.68.68,0,0,0,.75.6l3.949-.435a.68.68,0,0,0,.6-.75l-.112-1.015A.679.679,0,0,0,813.342,432.242Z" transform="translate(-546.076 -292.184)" fill="#415a9d"/>
    <path id="Trazado_606873" data-name="Trazado 606873" d="M804.915,403.5l-3.542,1.8a.68.68,0,0,0-.3.914l.463.91a.68.68,0,0,0,.914.3l3.541-1.8a.68.68,0,0,0,.3-.914l-.463-.91A.679.679,0,0,0,804.915,403.5Z" transform="translate(-540.813 -272.711)" fill="#415a9d"/>
    <path id="Trazado_606874" data-name="Trazado 606874" d="M764.283,364.545l-1.456,3.7a.679.679,0,0,0,.383.881l.95.374a.679.679,0,0,0,.881-.383l1.457-3.7a.68.68,0,0,0-.383-.881l-.95-.375A.68.68,0,0,0,764.283,364.545Z" transform="translate(-514.975 -246.134)" fill="#415a9d"/>
    <path id="Trazado_606875" data-name="Trazado 606875" d="M663.9,401.051l-.5.893a.68.68,0,0,0,.264.924l3.473,1.929a.68.68,0,0,0,.924-.264l.5-.893a.68.68,0,0,0-.264-.924l-3.473-1.929A.68.68,0,0,0,663.9,401.051Z" transform="translate(-447.744 -270.866)" fill="#7e19b8"/>
    <path id="Trazado_606876" data-name="Trazado 606876" d="M705.735,364.617l-.945.387a.679.679,0,0,0-.372.886l1.5,3.677a.679.679,0,0,0,.886.372l.945-.387a.679.679,0,0,0,.372-.886l-1.5-3.677A.679.679,0,0,0,705.735,364.617Z" transform="translate(-475.49 -246.439)" fill="#7e19b8"/>
    <path id="Trazado_606877" data-name="Trazado 606877" d="M680.2,380.461l-.748.7a.68.68,0,0,0-.035.96l2.7,2.91a.68.68,0,0,0,.96.035l.748-.7a.679.679,0,0,0,.035-.96l-2.7-2.91A.68.68,0,0,0,680.2,380.461Z" transform="translate(-458.5 -257.061)" fill="#7e19b8"/>
    <path id="Trazado_606878" data-name="Trazado 606878" d="M653.706,433.679l-.1,1.016a.679.679,0,0,0,.611.742l3.954.384a.679.679,0,0,0,.742-.61l.1-1.016a.68.68,0,0,0-.611-.742l-3.954-.384A.68.68,0,0,0,653.706,433.679Z" transform="translate(-441.175 -292.743)" fill="#7e19b8"/>
    <path id="Trazado_606879" data-name="Trazado 606879" d="M739.2,387.341h-.652a.436.436,0,0,0-.435.436V405a.436.436,0,0,0,.435.436h.652a.436.436,0,0,0,.436-.436V387.777A.436.436,0,0,0,739.2,387.341Z" transform="translate(-498.301 -261.835)" fill="#415a9d"/>
    <path id="Trazado_606880" data-name="Trazado 606880" d="M813.139,319.757s3.838,1.279,4.725,2.755-6.791,18.305-6.791,18.305l-5.413-21.947,7.48.885Z" transform="translate(-543.961 -215.55)" fill="#1b3375"/>
    <path id="Trazado_606881" data-name="Trazado 606881" d="M812.854,391.069a7.809,7.809,0,0,0-.295,4.724h11.417c-.394-.919-3.871-2.69-5.446-3.412a3.536,3.536,0,0,1-1.935-2.133l-3.739.82Z" transform="translate(-548.465 -263.8)" fill="#f57954"/>
    <path id="Trazado_606882" data-name="Trazado 606882" d="M759.081,325.065c-.016.426.82,2.149,4.167,2.149s9.546.246,9.546.246,3.248,15.992,3.4,16.042a9.123,9.123,0,0,0,4.921-.147s-.788-17.764-1.034-20.274a3.94,3.94,0,0,0-2.214-3.3l-14.909.049s-4,2.246-3.871,5.232Z" transform="translate(-512.474 -216.168)" fill="#2a458f"/>
    <path id="Trazado_606883" data-name="Trazado 606883" d="M812.61,279.994l1.411,2.822-4.691.311s-.279-1.87-.279-1.935S812.61,279.994,812.61,279.994Z" transform="translate(-546.254 -189.27)" fill="#f57954"/>
    <path id="Trazado_606884" data-name="Trazado 606884" d="M757.028,253.226c-5.915,1.161-8.568,4.763-10.8,9.52.263.262.394.262.394.262s3.018,8.333,3.018,9.021a74.2,74.2,0,0,0,.755,7.939c2.362-3.313,6.331-5.379,7.25-5.379s8.759-6.2,8.759-6.2l.262-4.527a6.089,6.089,0,0,0,3.9-2.034c-.032-.1-2.765-5.4-4.434-6.5-1.016-.673-4.049-2.256-4.049-2.256l-5.059.157Z" transform="translate(-503.787 -171.07)" fill="#fff"/>
    <g id="Grupo_1014761" data-name="Grupo 1014761" transform="translate(253.508 84.069)">
      <path id="Trazado_606885" data-name="Trazado 606885" d="M782.7,261.8a.051.051,0,0,0,.044-.025l1.375-2.194,2.115,1.455a.052.052,0,1,0,.059-.085l-2.16-1.485a.052.052,0,0,0-.039-.008.053.053,0,0,0-.034.023l-1.379,2.2a5.8,5.8,0,0,1-2.2-1.931.052.052,0,1,0-.088.053,5.919,5.919,0,0,0,2.29,1.99.049.049,0,0,0,.022,0Z" transform="translate(-780.382 -259.455)" fill="#d1d1d1"/>
    </g>
    <path id="Trazado_606886" data-name="Trazado 606886" d="M789.841,259.849s1.469.966,1.483,1.006a5.262,5.262,0,0,1-.122,2.2,2.022,2.022,0,0,0-1.336.2,3.2,3.2,0,0,1-1.017-1.825Z" transform="translate(-532.597 -175.653)" fill="#6885d4"/>
    <path id="Trazado_606887" data-name="Trazado 606887" d="M790.136,269.6c1.3,1.606,1.984,5.857,1.66,8.328a10.194,10.194,0,0,0,1.215,5.263,3.108,3.108,0,0,1-5.255.9c-.138-.16-.229-.267-.252-.3-.932-2.388,1.215-5.1,1.619-7.45a25.646,25.646,0,0,0-.324-6.546c.405-.459,1.336-.2,1.336-.2Z" transform="translate(-531.531 -182.194)" fill="#7e98de"/>
    <path id="Trazado_606888" data-name="Trazado 606888" d="M746.427,283.737a16.541,16.541,0,0,0,5.642,1.935l.032,3.28c3.444,1.246,7.807,2.854,9.087,2.887s-.82,2.919-.82,2.919-10.859.1-12.958-.59c-1.345-.065-1.509-.984-1.345-1.575-.426-2.69.361-8.857.361-8.857Z" transform="translate(-503.591 -191.8)" fill="#f57954"/>
    <path id="Trazado_606889" data-name="Trazado 606889" d="M799.27,285.662h-14.5l-2.515,10.695h14.5Z" transform="translate(-528.141 -193.102)" fill="#92b0ff"/>
    <path id="Trazado_606890" data-name="Trazado 606890" d="M801.212,285.662h-14.5L784.2,296.357h14.5Z" transform="translate(-529.452 -193.102)" fill="#b6c0d7"/>
    <path id="Trazado_606891" data-name="Trazado 606891" d="M808.507,301.294H806.4v-1.088a.519.519,0,0,1,.519-.519h2.106v1.088A.519.519,0,0,1,808.507,301.294Z" transform="translate(-544.462 -202.582)" fill="#92b0ff"/>
    <path id="Trazado_606892" data-name="Trazado 606892" d="M786.859,318.669H766.783v.951h20.076Z" transform="translate(-517.681 -215.414)" fill="#b6c0d7"/>
    <g id="Grupo_1014762" data-name="Grupo 1014762" transform="translate(247.791 84.886)">
      <path id="Trazado_606893" data-name="Trazado 606893" d="M765.13,267.057a.064.064,0,0,1-.063-.055c-.013-.094-.026-.194-.04-.3a6.47,6.47,0,0,0-2.268-4.615.063.063,0,0,1,.08-.1,6.578,6.578,0,0,1,2.312,4.7c.013.1.026.2.04.3a.063.063,0,0,1-.053.071h-.009Z" transform="translate(-762.737 -261.976)" fill="#bfbfbf"/>
    </g>
    <g id="Grupo_1014763" data-name="Grupo 1014763" transform="translate(260.979 86.658)">
      <path id="Trazado_606894" data-name="Trazado 606894" d="M804.815,272.558a.064.064,0,0,1-.06-.044c-.008-.027-.86-2.719-1.314-4.993a.063.063,0,1,1,.123-.026c.453,2.266,1.3,4.953,1.31,4.98a.064.064,0,0,1-.041.079A.053.053,0,0,1,804.815,272.558Z" transform="translate(-803.44 -267.445)" fill="#bfbfbf"/>
    </g>
    <g id="Grupo_1014764" data-name="Grupo 1014764" transform="translate(260.434 109.983)">
      <path id="Trazado_606895" data-name="Trazado 606895" d="M801.9,340.789h-.013a.135.135,0,0,1-.109-.052c-.036-.052-.015-.117.019-.225a2.775,2.775,0,0,0,.131-1.013.063.063,0,0,1,.126,0,2.912,2.912,0,0,1-.137,1.055c-.013.043-.028.089-.031.113h.012a2.105,2.105,0,0,0,.892-.723.063.063,0,0,1,.109.063C802.762,340.239,802.158,340.789,801.9,340.789Z" transform="translate(-801.758 -339.434)" fill="#bfbfbf"/>
    </g>
    <path id="Trazado_606896" data-name="Trazado 606896" d="M818.526,395.551a3.714,3.714,0,0,1-.938-.613,1.568,1.568,0,0,0-.8,1.236c-.935,1.416-3.312.318-4.353-.259a6.281,6.281,0,0,0,.121,3.048h11.417C823.578,398.044,820.1,396.273,818.526,395.551Z" transform="translate(-548.463 -266.97)" fill="#2b1710"/>
    <path id="Trazado_606897" data-name="Trazado 606897" d="M790.594,220.789a2.136,2.136,0,1,0-2.136-2.136A2.136,2.136,0,0,0,790.594,220.789Z" transform="translate(-532.333 -146.36)" fill="#2b1710"/>
    <path id="Trazado_606898" data-name="Trazado 606898" d="M796.229,228.543a.906.906,0,1,1,0-1.281A.9.9,0,0,1,796.229,228.543Z" transform="translate(-536.541 -153.445)" fill="#2b1710"/>
    <path id="Trazado_606899" data-name="Trazado 606899" d="M784.54,224.552c0-1.688-.971-2.889-3.952-2.543s-2.658,3.629-2.312,5.2a7.229,7.229,0,0,0,1.294,2.728Z" transform="translate(-525.304 -150.033)" fill="#2b1710"/>
    <path id="Trazado_606900" data-name="Trazado 606900" d="M783.632,225.049a1.189,1.189,0,0,1,1.611.931,14.822,14.822,0,0,1,0,2.819c-.115,2.127.07,3.582-1.78,3.906,0,.763.023,1.04.786,1.04.133,1.113-3.855,1.35-5.084.138,1.156-.6.808-3.722.808-3.722l-.133-1.237c.606.416.884-.33.8-.8s-.208-1.525-.208-1.525c1.092-.1,1.057-2.1,1.057-2.1.538,1.231,1.872.665,2.146.544Z" transform="translate(-526.052 -151.76)" fill="#ff8762"/>
    <path id="Trazado_606901" data-name="Trazado 606901" d="M794.886,234.274c0,.261.116.474.26.474s.26-.213.26-.474-.116-.474-.26-.474S794.886,234.013,794.886,234.274Z" transform="translate(-536.678 -158.044)" fill="#2b1710"/>
    <path id="Trazado_606902" data-name="Trazado 606902" d="M778.03,238.677a.8.8,0,1,0-.8-.8A.8.8,0,0,0,778.03,238.677Z" transform="translate(-524.745 -160.263)" fill="#ff8762"/>
    <g id="Grupo_1014765" data-name="Grupo 1014765" transform="translate(252.835 77.173)">
      <path id="Trazado_606903" data-name="Trazado 606903" d="M778.925,239.032a.052.052,0,0,0,.021-.1.157.157,0,0,1-.112-.124.17.17,0,0,1,.081-.147.179.179,0,0,1,.188-.008.053.053,0,0,0,.077-.049.446.446,0,0,0-.334-.405.475.475,0,0,0-.531.157.052.052,0,0,0,.084.063.376.376,0,0,1,.417-.119.364.364,0,0,1,.247.231.285.285,0,0,0-.206.044.273.273,0,0,0-.126.243.255.255,0,0,0,.174.21.07.07,0,0,0,.021,0Z" transform="translate(-778.305 -238.174)" fill="#e0b3a8"/>
    </g>
    <path id="Trazado_606904" data-name="Trazado 606904" d="M788.905,234.959c.144,0,.26-.212.26-.474s-.117-.474-.26-.474-.26.212-.26.474S788.761,234.959,788.905,234.959Z" transform="translate(-532.459 -158.187)" fill="#2b1710"/>
    <g id="Grupo_1014766" data-name="Grupo 1014766" transform="translate(255.97 76.471)">
      <path id="Trazado_606905" data-name="Trazado 606905" d="M788.5,236.539h.018a.044.044,0,0,0,0-.088.428.428,0,0,1-.448-.4.045.045,0,0,0-.048-.042.046.046,0,0,0-.042.048.517.517,0,0,0,.52.483Z" transform="translate(-787.981 -236.008)" fill="#e0b3a8"/>
    </g>
    <path id="Trazado_606906" data-name="Trazado 606906" d="M795.208,231.538a.045.045,0,0,0,.038-.022.044.044,0,0,0-.015-.061,1.4,1.4,0,0,0-1.2-.08.045.045,0,0,0,.037.081,1.313,1.313,0,0,1,1.12.076.042.042,0,0,0,.023.006Z" transform="translate(-536.081 -156.338)" fill="#2b1710"/>
    <path id="Trazado_606907" data-name="Trazado 606907" d="M786.446,231.67a.043.043,0,0,0,.023-.007,1.876,1.876,0,0,1,1.53-.143.044.044,0,1,0,.03-.084,1.975,1.975,0,0,0-1.607.151.045.045,0,0,0-.014.062.043.043,0,0,0,.037.021Z" transform="translate(-530.943 -156.375)" fill="#2b1710"/>
    <path id="Trazado_606908" data-name="Trazado 606908" d="M793.956,234.69a5.327,5.327,0,0,0,1.092-.1.067.067,0,0,0,.021-.04c0-.065-.11-.2-.536-.638a4.826,4.826,0,0,1-.623-.713,1.443,1.443,0,0,1,.051-.859.044.044,0,1,0-.084-.028,1.522,1.522,0,0,0-.052.911,3.9,3.9,0,0,0,.644.75,6.5,6.5,0,0,1,.5.554,8.3,8.3,0,0,1-1.016.07.044.044,0,0,0,0,.088Z" transform="translate(-535.929 -157.021)" fill="#2b1710"/>
    <g id="Grupo_1014767" data-name="Grupo 1014767" transform="translate(254.159 78.777)">
      <path id="Trazado_606909" data-name="Trazado 606909" d="M784.994,245.293h.044a.044.044,0,0,0,.043-.045.042.042,0,0,0-.045-.043,2.918,2.918,0,0,1-2.557-2.048.044.044,0,1,0-.086.023,3.028,3.028,0,0,0,2.6,2.113Z" transform="translate(-782.392 -243.124)" fill="#e0b3a8"/>
    </g>
    <path id="Trazado_606910" data-name="Trazado 606910" d="M782.9,238.192a.286.286,0,0,0,.175-.062.044.044,0,1,0-.053-.07.194.194,0,0,1-.229.012c-.048-.03-.066-.067-.064-.08s.007-.007.023-.009c.215-.03.316-.185.316-.486a.044.044,0,0,0-.088,0c0,.319-.115.381-.239.4a.1.1,0,0,0-.1.078.182.182,0,0,0,.1.173.292.292,0,0,0,.156.045Z" transform="translate(-528.398 -160.513)" fill="#2b1710"/>
    <path id="Trazado_606911" data-name="Trazado 606911" d="M790.15,238.643c.13.187.26.32.293.3s-.049-.191-.179-.377-.26-.321-.293-.3S790.02,238.456,790.15,238.643Z" transform="translate(-533.351 -161.061)" fill="#fff"/>
    <path id="Trazado_606912" data-name="Trazado 606912" d="M788.946,238.672c.13.187.26.32.293.3s-.049-.191-.179-.377-.26-.32-.293-.3S788.815,238.485,788.946,238.672Z" transform="translate(-532.537 -161.08)" fill="#fff"/>
    <path id="Trazado_606913" data-name="Trazado 606913" d="M787.691,238.643c.13.187.26.32.293.3s-.049-.191-.179-.377-.26-.321-.293-.3S787.56,238.456,787.691,238.643Z" transform="translate(-531.689 -161.061)" fill="#fff"/>
    <path id="Trazado_606914" data-name="Trazado 606914" d="M791.656,241.207a2.973,2.973,0,0,0-.248,1c.024.257.078.6-.451.625s-1.3-.911-1.507-1.458a9.012,9.012,0,0,0,1.424.121C790.89,241.483,791.656,241.207,791.656,241.207Z" transform="translate(-533.004 -163.051)" fill="#531710"/>
    <path id="Trazado_606915" data-name="Trazado 606915" d="M789.451,241.716c.285.044.556.073.785.093l.388.135a1.256,1.256,0,0,1,.645,1.15.632.632,0,0,1-.31.081c-.529.024-1.3-.911-1.507-1.458Z" transform="translate(-533.004 -163.395)" fill="#6c1710"/>
    <path id="Trazado_606916" data-name="Trazado 606916" d="M791.631,241.221c-.3.64-1.187.7-2.18.16A4.924,4.924,0,0,0,791.631,241.221Z" transform="translate(-533.004 -163.061)" fill="#fff"/>
    <path id="Trazado_606917" data-name="Trazado 606917" d="M789.731,241.131a3.827,3.827,0,0,0,1.727-.328.038.038,0,0,0,.015-.05.037.037,0,0,0-.05-.015,5.334,5.334,0,0,1-2.565.267.038.038,0,0,0-.009.075,7.259,7.259,0,0,0,.883.052Z" transform="translate(-532.575 -162.732)" fill="#2b1710"/>
    <g id="Grupo_1014768" data-name="Grupo 1014768" transform="translate(257.355 79.853)">
      <path id="Trazado_606918" data-name="Trazado 606918" d="M792.7,246.736a1.324,1.324,0,0,0,.751-.224.037.037,0,0,0-.041-.062,1.351,1.351,0,0,1-1.1.156.038.038,0,0,0-.024.071,1.363,1.363,0,0,0,.415.061Z" transform="translate(-792.256 -246.444)" fill="#e0b3a8"/>
    </g>
    <path id="Trazado_606919" data-name="Trazado 606919" d="M62.062,321.676l6.963-2.151-1.637-5.3a24.394,24.394,0,0,0,9.024-7.556L81.4,309.3l3.4-6.444-5.009-2.644a24.379,24.379,0,0,0,1.079-11.648l5.449-1.685-2.151-6.963-5.44,1.681a24.379,24.379,0,0,0-7.432-9.032l2.65-5.021-6.445-3.4-2.626,4.974a24.391,24.391,0,0,0-11.709-1.184l-1.641-5.31-6.963,2.151,1.623,5.252a24.385,24.385,0,0,0-9.192,7.505L32.188,275l-3.4,6.444,4.755,2.51a24.377,24.377,0,0,0-1.159,11.886l-5.115,1.581,2.151,6.963,5.105-1.577a24.369,24.369,0,0,0,7.632,9.184l-2.515,4.765,6.445,3.4,2.529-4.791a24.393,24.393,0,0,0,11.822,1.049l1.626,5.261Zm-17.7-25.682a12.84,12.84,0,1,1,16.059,8.476A12.84,12.84,0,0,1,44.358,295.994Z" transform="translate(-17.783 -177.531)" fill="#b6c0d7"/>
    <path id="Trazado_606920" data-name="Trazado 606920" d="M227.045,370.485l4.226-1.306-.993-3.214a14.8,14.8,0,0,0,5.477-4.587l3.025,1.6,2.066-3.912-3.041-1.606a14.807,14.807,0,0,0,.655-7.07l3.307-1.022-1.305-4.226-3.3,1.02a14.791,14.791,0,0,0-4.512-5.482l1.609-3.047-3.912-2.065-1.594,3.019a14.805,14.805,0,0,0-7.107-.718l-1-3.222-4.226,1.306.985,3.187a14.8,14.8,0,0,0-5.579,4.556l-2.915-1.538-2.065,3.913,2.887,1.523a14.808,14.808,0,0,0-.7,7.214l-3.105.959,1.306,4.226,3.1-.958a14.8,14.8,0,0,0,4.633,5.575l-1.526,2.893,3.913,2.065,1.535-2.907a14.784,14.784,0,0,0,7.175.636l.987,3.194ZM216.3,354.9a7.793,7.793,0,1,1,9.747,5.145A7.794,7.794,0,0,1,216.3,354.9Z" transform="translate(-138.552 -226.213)" fill="#b6c0d7"/>
    <g id="Grupo_1014769" data-name="Grupo 1014769" transform="translate(55.343 126.061)">
      <path id="Trazado_606921" data-name="Trazado 606921" d="M168.8,408.844a29.115,29.115,0,0,1,2.027-6.331,40.874,40.874,0,0,1,3.988-7.108.108.108,0,0,1-.009-.027l-.374-2.248a.088.088,0,0,1,.173-.029l.351,2.1a43.124,43.124,0,0,1,5.255-6.127.088.088,0,1,1,.122.127,43.046,43.046,0,0,0-3.362,3.645l1.624-.234a.088.088,0,0,1,.026.174l-1.811.26a42.023,42.023,0,0,0-4.674,7.123l2.349-.16a.088.088,0,0,1,.013.175l-2.4.164h-.021a.078.078,0,0,1-.027-.009c-.41.8-.76,1.551-1.056,2.233a29.111,29.111,0,0,0-2.018,6.294.087.087,0,0,1-.1.073.089.089,0,0,1-.073-.1Z" transform="translate(-168.798 -389.054)" fill="#dedede"/>
    </g>
    <path id="Trazado_606922" data-name="Trazado 606922" d="M312.162,450.458H21.254v-1.805a3.545,3.545,0,0,1,3.545-3.545H308.617a3.546,3.546,0,0,1,3.545,3.545Z" transform="translate(-13.719 -300.883)" fill="#bed1eb"/>
    <path id="Trazado_606923" data-name="Trazado 606923" d="M95.7,175.684a2.5,2.5,0,0,1-2.885-3.327c-.182-3.352,1.248-6.654,6.263-4.86,2.5.311,3.457,3.613,1.4,4.471a41.7,41.7,0,0,1-4.783,3.717Z" transform="translate(-61.977 -112.883)" fill="#2b1710"/>
    <path id="Trazado_606924" data-name="Trazado 606924" d="M98.165,179.413c-.156.936.148,1.7,1.473,2.593-.04,4.211-6.323,1.254-6.3.631,0-.078.951-1.39,1.36-2.112s.6-2.553.448-5.01c.955.253,1.287-.506,1.306-1.813s.644-3.392,3.177-3.061a4.39,4.39,0,0,1,1.384,3.432,28.559,28.559,0,0,1-.091,3.327,2.705,2.705,0,0,1-2.755,2.014Z" transform="translate(-62.444 -115.325)" fill="#ff8762"/>
    <g id="Grupo_1014770" data-name="Grupo 1014770" transform="translate(35.477 61.533)">
      <path id="Trazado_606925" data-name="Trazado 606925" d="M107.489,190.091c.965-.293,2.021-.221,2.117.089A3.269,3.269,0,0,1,107.489,190.091Z" transform="translate(-107.489 -189.906)" fill="#e0b3a8"/>
    </g>
    <path id="Trazado_606926" data-name="Trazado 606926" d="M95.006,185.728a.778.778,0,1,0,.778-.778A.778.778,0,0,0,95.006,185.728Z" transform="translate(-63.573 -125.022)" fill="#ff8762"/>
    <g id="Grupo_1014771" data-name="Grupo 1014771" transform="translate(31.771 60.274)">
      <path id="Trazado_606927" data-name="Trazado 606927" d="M96.657,186.855a.05.05,0,0,0,.046-.03.049.049,0,0,0-.027-.066.158.158,0,0,1-.109-.121.166.166,0,0,1,.079-.144.18.18,0,0,1,.185-.008.051.051,0,0,0,.051,0,.049.049,0,0,0,.023-.045.434.434,0,0,0-.326-.395.465.465,0,0,0-.518.152.051.051,0,0,0,.081.061.367.367,0,0,1,.407-.116.354.354,0,0,1,.242.226.274.274,0,0,0-.2.043.265.265,0,0,0-.124.237.249.249,0,0,0,.17.205.07.07,0,0,0,.02,0Z" transform="translate(-96.052 -186.02)" fill="#e0b3a8"/>
    </g>
    <g id="Grupo_1014772" data-name="Grupo 1014772" transform="translate(32.916 61.255)">
      <path id="Trazado_606928" data-name="Trazado 606928" d="M102.234,191.877a.041.041,0,0,1-.014,0,3.825,3.825,0,0,1-2.635-2.766.051.051,0,0,1,.037-.061.05.05,0,0,1,.06.037,3.724,3.724,0,0,0,2.564,2.693.051.051,0,0,1,.035.062.05.05,0,0,1-.048.036Z" transform="translate(-99.584 -189.046)" fill="#e0b3a8"/>
    </g>
    <path id="Trazado_606929" data-name="Trazado 606929" d="M103.768,179.565a.051.051,0,0,1-.024-.094,2.58,2.58,0,0,1,1.741-.3.05.05,0,1,1-.029.1,2.515,2.515,0,0,0-1.664.3A.05.05,0,0,1,103.768,179.565Z" transform="translate(-69.463 -121.082)" fill="#2b1710"/>
    <path id="Trazado_606930" data-name="Trazado 606930" d="M114.45,179.981a.05.05,0,0,1-.04-.02c-.008-.01-.209-.268-.85-.188a.05.05,0,1,1-.013-.1c.687-.086.919.2.943.228a.05.05,0,0,1-.01.07.049.049,0,0,1-.03.01Z" transform="translate(-76.078 -121.445)" fill="#2b1710"/>
    <path id="Trazado_606931" data-name="Trazado 606931" d="M112.325,183.5a.053.053,0,0,1-.04-.018.049.049,0,0,1,.008-.07,4.938,4.938,0,0,0,.608-.545,1.532,1.532,0,0,0-.214-.013,1.192,1.192,0,0,1-.5-.075c-.266-.15-.009-1.276.225-1.805a.05.05,0,1,1,.092.04c-.273.616-.429,1.588-.268,1.677a1.182,1.182,0,0,0,.458.063c.2,0,.322.006.322.1s-.357.4-.655.636a.05.05,0,0,1-.031.01Z" transform="translate(-75.109 -122.317)" fill="#2b1710"/>
    <path id="Trazado_606932" data-name="Trazado 606932" d="M108.6,190.671a3.576,3.576,0,0,1-1.407-.238.05.05,0,1,1,.043-.089,3.8,3.8,0,0,0,2.15.131.05.05,0,0,1,.048.087,2.257,2.257,0,0,1-.835.11Z" transform="translate(-71.794 -128.665)" fill="#2b1710"/>
    <g id="Grupo_1014773" data-name="Grupo 1014773" transform="translate(35.99 62.758)">
      <path id="Trazado_606933" data-name="Trazado 606933" d="M109.643,193.911a1,1,0,0,1-.547-.135.049.049,0,1,1,.055-.082,1.354,1.354,0,0,0,1.059.015.051.051,0,0,1,.07.009.049.049,0,0,1-.008.069A1.425,1.425,0,0,1,109.643,193.911Z" transform="translate(-109.073 -193.686)" fill="#e0b3a8"/>
    </g>
    <path id="Trazado_606934" data-name="Trazado 606934" d="M106.921,182.564c0,.3-.135.535-.3.535s-.3-.24-.3-.535.135-.536.3-.536S106.921,182.268,106.921,182.564Z" transform="translate(-71.22 -123.047)" fill="#2b1710"/>
    <g id="Grupo_1014774" data-name="Grupo 1014774" transform="translate(34.923 59.781)">
      <path id="Trazado_606935" data-name="Trazado 606935" d="M106.186,184.95c-.1,0-.333-.045-.408-.424a.025.025,0,0,1,.049-.009c.072.368.291.39.383.383a.025.025,0,0,1,.027.023.025.025,0,0,1-.023.027h-.028Z" transform="translate(-105.778 -184.497)" fill="#e0b3a8"/>
    </g>
    <path id="Trazado_606936" data-name="Trazado 606936" d="M113.678,183.3c.167,0,.3-.24.3-.536s-.135-.535-.3-.535-.3.239-.3.535S113.511,183.3,113.678,183.3Z" transform="translate(-75.991 -123.183)" fill="#2b1710"/>
    <g id="Grupo_1014775" data-name="Grupo 1014775" transform="translate(37.21 59.846)">
      <path id="Trazado_606937" data-name="Trazado 606937" d="M113.245,185.151c-.1,0-.333-.045-.408-.424a.025.025,0,0,1,.049-.009c.072.368.292.39.383.383a.025.025,0,0,1,.027.023.024.024,0,0,1-.023.027h-.028Z" transform="translate(-112.837 -184.698)" fill="#e0b3a8"/>
    </g>
    <path id="Trazado_606938" data-name="Trazado 606938" d="M105.616,186.831c-.119.16-.2.3-.177.318s.136-.1.254-.26.2-.3.177-.318S105.734,186.671,105.616,186.831Z" transform="translate(-70.624 -126.117)" fill="#fff"/>
    <path id="Trazado_606939" data-name="Trazado 606939" d="M106.559,186.949c-.119.16-.2.3-.177.319s.136-.1.254-.261.2-.3.177-.318S106.677,186.79,106.559,186.949Z" transform="translate(-71.261 -126.197)" fill="#fff"/>
    <path id="Trazado_606940" data-name="Trazado 606940" d="M107.6,187.049c-.119.16-.2.3-.177.319s.136-.1.254-.26.2-.3.177-.319S107.72,186.889,107.6,187.049Z" transform="translate(-71.966 -126.264)" fill="#fff"/>
    <path id="Trazado_606941" data-name="Trazado 606941" d="M74.263,417.568a7.894,7.894,0,0,0,.605-3.774c-.094-.685-.213-1.549-.344-2.539-.065-.493-.135-1.016-.206-1.565l3.28.878c-.056.59-.108,1.144-.157,1.651a11.877,11.877,0,0,0,.123,3.234,3.294,3.294,0,0,0,.2.742c.261.528,2.144,2.355,3.005,3.928.081.192,2.026.5,1.734.946-.177.1-3.57.364-3.95,0a5.213,5.213,0,0,0-2.293-1.48,14.565,14.565,0,0,0-.063,1.647l-1.469.006s-.171-1.453-.236-1.891-.565-1.106-.227-1.782Z" transform="translate(-49.474 -276.942)" fill="#ff8762"/>
    <path id="Trazado_606942" data-name="Trazado 606942" d="M80.774,435.106a5.074,5.074,0,0,1-1.524.1c-.318-.14-2.414-2.741-4.716-3.38a4.647,4.647,0,0,1-.276.7c-.338.676.163,1.344.227,1.782s.236,1.891.236,1.891l1.469-.006a14.554,14.554,0,0,1,.063-1.647,5.224,5.224,0,0,1,2.293,1.48c.38.366,3.773.1,3.95,0,.283-.433-1.543-.723-1.723-.928Z" transform="translate(-49.469 -291.907)" fill="#2b1710"/>
    <path id="Trazado_606943" data-name="Trazado 606943" d="M122.557,417.568a7.891,7.891,0,0,0,.605-3.774c-.094-.685-.213-1.549-.344-2.539-.065-.493-.135-1.016-.205-1.565l3.28.878c-.056.59-.108,1.144-.157,1.651a11.872,11.872,0,0,0,.123,3.234,3.277,3.277,0,0,0,.2.742c.261.528,2.144,2.355,3,3.928.081.192,2.026.5,1.734.946-.177.1-3.57.364-3.95,0a5.211,5.211,0,0,0-2.293-1.48,14.53,14.53,0,0,0-.063,1.647l-1.469.006s-.171-1.453-.236-1.891-.564-1.106-.226-1.782Z" transform="translate(-82.12 -276.942)" fill="#ff8762"/>
    <path id="Trazado_606944" data-name="Trazado 606944" d="M129.068,435.106a5.073,5.073,0,0,1-1.524.1c-.319-.14-2.414-2.741-4.716-3.38a4.6,4.6,0,0,1-.276.7c-.338.676.163,1.344.226,1.782s.236,1.891.236,1.891l1.469-.006a14.524,14.524,0,0,1,.063-1.647,5.226,5.226,0,0,1,2.293,1.48c.38.366,3.773.1,3.949,0,.284-.433-1.543-.723-1.723-.928Z" transform="translate(-82.115 -291.907)" fill="#2b1710"/>
    <g id="Grupo_1014776" data-name="Grupo 1014776" transform="translate(38.431 137.394)">
      <path id="Trazado_606945" data-name="Trazado 606945" d="M123.2,424.265a.077.077,0,0,0,0-.155l-6.519-.08a.076.076,0,0,0-.078.077.077.077,0,0,0,.077.078l6.519.08Z" transform="translate(-116.606 -424.03)" fill="#bfbfbf"/>
    </g>
    <g id="Grupo_1014777" data-name="Grupo 1014777" transform="translate(22.417 136.99)">
      <path id="Trazado_606946" data-name="Trazado 606946" d="M74.665,423.1a.076.076,0,0,0,.077-.076.077.077,0,0,0-.075-.079l-7.4-.162a.077.077,0,0,0,0,.155l7.4.161h0Z" transform="translate(-67.183 -422.783)" fill="#bfbfbf"/>
    </g>
    <path id="Trazado_606947" data-name="Trazado 606947" d="M74.837,208.013c-4.863,1.711-7.419,13.574-6.859,16s6.387,2.285,9.6.187-2.744-16.185-2.744-16.185Z" transform="translate(-45.251 -140.613)" fill="#d4d9ff"/>
    <path id="Trazado_606948" data-name="Trazado 606948" d="M92.3,204.685a5.279,5.279,0,0,1,2.424,1.4s5.222,4.429,3.892,6.807-1.678,7.623-1.678,7.623l-10.559.139c0-.35-2.867-5.874-3.357-8.672s.746-6.41,3.45-7.016A21.027,21.027,0,0,1,92.3,204.685Z" transform="translate(-55.401 -138.304)" fill="#fff"/>
    <path id="Trazado_606949" data-name="Trazado 606949" d="M104.471,253.791H93.748v1.864h10.723Z" transform="translate(-62.723 -171.558)" fill="#2b1710"/>
    <path id="Trazado_606950" data-name="Trazado 606950" d="M114.391,209.185c3.031,1.119,6.154,7.646,7.785,7.553s5.222-3.589,5.222-3.589l1.538,1.678c0,2.424-2.378,10.769-6.947,11.422s-9.052-6.211-9.79-10.257c-.979-5.361,2.191-6.807,2.191-6.807Z" transform="translate(-75.069 -141.405)" fill="#d4d9ff"/>
    <g id="Grupo_1014778" data-name="Grupo 1014778" transform="translate(47.07 75.428)">
      <path id="Trazado_606951" data-name="Trazado 606951" d="M143.556,234.322a.067.067,0,0,0,.066-.058,3.408,3.408,0,0,0-.144-.972c-.029-.122-.064-.267-.076-.348.122.078.4.344.4.49a.067.067,0,0,0,.135,0c0-.179-.228-.414-.363-.524-.164-.135-.221-.123-.242-.119a.089.089,0,0,0-.051.036c-.035.053-.019.142.066.5a3.437,3.437,0,0,1,.142.923.067.067,0,0,0,.058.076h.007Z" transform="translate(-143.266 -232.789)" fill="#d9d9d9"/>
    </g>
    <path id="Trazado_606952" data-name="Trazado 606952" d="M122.033,253.392h-.752v2.2h.752Z" transform="translate(-81.335 -171.288)" fill="#2a458f"/>
    <path id="Trazado_606953" data-name="Trazado 606953" d="M104.838,253.539h-.751v2.2h.751Z" transform="translate(-69.712 -171.387)" fill="#2a458f"/>
    <path id="Trazado_606954" data-name="Trazado 606954" d="M95.485,253.321h-.752v2.2h.752Z" transform="translate(-63.39 -171.24)" fill="#2a458f"/>
    <path id="Trazado_606955" data-name="Trazado 606955" d="M159.426,207.361c-.006-.373-.076-2.733-.006-3.013a20.931,20.931,0,0,1,1.678-2.623c.175-.157,1.626-1.1,1.678-1.1.385.3.245.717-.087,1.136s-.821.91-.839,1-.175.612-.07.63a8.455,8.455,0,0,1,1.206,1.311,1.683,1.683,0,0,1,.035,1.521,28.128,28.128,0,0,1-2.057,2.821l-1.538-1.679Z" transform="translate(-107.095 -135.618)" fill="#ff8762"/>
    <path id="Trazado_606956" data-name="Trazado 606956" d="M88.8,270.451s-.085-3.59-2.983-10.938L75.1,259.5a31.186,31.186,0,0,0-4.736,14.179L66.15,314.341h8.51a182.983,182.983,0,0,0,4.426-29.254s3.9,20.437,3.178,29.408h7.605c.724-3.867,2.128-31.413-1.071-44.045Z" transform="translate(-44.067 -175.415)" fill="#2a458f"/>
    <g id="Grupo_1014779" data-name="Grupo 1014779" transform="translate(31.433 87.014)">
      <path id="Trazado_606957" data-name="Trazado 606957" d="M98.152,289.91a.084.084,0,0,1-.084-.073,109.722,109.722,0,0,0-2.214-11.784c-1.179-3.99-1.315-4.786.8-9.46a.085.085,0,0,1,.113-.042.086.086,0,0,1,.043.113c-2.092,4.619-1.959,5.4-.795,9.343a109.719,109.719,0,0,1,2.22,11.809.085.085,0,0,1-.073.1h-.013Z" transform="translate(-95.007 -268.544)" fill="#d9d9d9"/>
    </g>
    <g id="Grupo_1014780" data-name="Grupo 1014780" transform="translate(39.815 85.594)">
      <path id="Trazado_606958" data-name="Trazado 606958" d="M124.333,315.954h0a.085.085,0,0,1-.082-.087c.008-.308.75-31.006-3.369-51.6a.085.085,0,1,1,.166-.034c4.123,20.614,3.38,51.33,3.372,51.638a.085.085,0,0,1-.085.083Z" transform="translate(-120.878 -264.164)" fill="#d9d9d9"/>
    </g>
    <g id="Grupo_1014781" data-name="Grupo 1014781" transform="translate(41.035 85.307)">
      <path id="Trazado_606959" data-name="Trazado 606959" d="M124.726,268.135a.085.085,0,0,1-.023-.166c.442-.127,1.416-1.449.639-4.587a.085.085,0,1,1,.165-.042c.791,3.2-.189,4.629-.757,4.792A.082.082,0,0,1,124.726,268.135Z" transform="translate(-124.641 -263.276)" fill="#d9d9d9"/>
    </g>
    <g id="Grupo_1014782" data-name="Grupo 1014782" transform="translate(22.609 137.49)">
      <path id="Trazado_606960" data-name="Trazado 606960" d="M75.442,424.563l-7.583-.066a.085.085,0,0,1-.085-.086.078.078,0,0,1,.086-.085l7.583.066a.085.085,0,0,1,0,.171Z" transform="translate(-67.774 -424.326)" fill="#d9d9d9"/>
    </g>
    <g id="Grupo_1014783" data-name="Grupo 1014783" transform="translate(38.507 137.525)">
      <path id="Trazado_606961" data-name="Trazado 606961" d="M116.924,424.668a.085.085,0,0,1-.085-.084.086.086,0,0,1,.084-.086l6.819-.066a.084.084,0,0,1,.085.084.086.086,0,0,1-.084.086Z" transform="translate(-116.839 -424.432)" fill="#d9d9d9"/>
    </g>
    <path id="Trazado_606962" data-name="Trazado 606962" d="M82.748,174.077a3.017,3.017,0,1,0-4.189-.807A3.017,3.017,0,0,0,82.748,174.077Z" transform="translate(-52.105 -113.944)" fill="#2b1710"/>
  </g>
</svg>
