<svg xmlns="http://www.w3.org/2000/svg" width="1044" height="536.673" viewBox="0 0 1044 536.673">
  <g id="Grupo_1014988" data-name="Grupo 1014988" transform="translate(-291 -14081.955)">
    <g id="Group_54_" data-name="Group (54)" transform="translate(463.91 14081.955)">
      <g id="Grupo_1014880" data-name="Grupo 1014880" transform="translate(528.648 307.851)">
        <path id="Trazado_608245" data-name="Trazado 608245" d="M772.514,569.081a.857.857,0,0,1,1.027.645l4.24,18.508q1.865-5.742,4.112-11.956a398.284,398.284,0,0,1,34.622-71.464.824.824,0,0,1-.1-.25l-4.958-21.647a.857.857,0,1,1,1.671-.382l4.638,20.249a420.257,420.257,0,0,1,47.527-62.65.858.858,0,0,1,1.264,1.161,420.319,420.319,0,0,0-30.567,37.415l15.657-3.222a.859.859,0,0,1,.346,1.682l-17.458,3.593h-.021a409.106,409.106,0,0,0-41.282,72.016l22.751-2.932a.857.857,0,1,1,.219,1.7l-23.241,3a.733.733,0,0,1-.2,0,.814.814,0,0,1-.273-.078c-3.521,8.035-6.48,15.528-8.956,22.336q-2.809,7.73-5,14.741a.847.847,0,0,1-.163.516c-8.91,28.405-10.746,46.918-10.766,47.132a.857.857,0,0,1-.934.773h-.008a.859.859,0,0,1-.766-.934c.021-.216,1.871-18.928,10.87-47.588l-4.886-21.332a.857.857,0,0,1,.645-1.027Z" transform="translate(-765.889 -439.856)" fill="#dedede"/>
      </g>
      <g id="Grupo_1014881" data-name="Grupo 1014881" transform="translate(562.434 457.407)">
        <path id="Trazado_608246" data-name="Trazado 608246" d="M812.906,706.253c.06-.1,6.046-9.583,18.613-21.474a174.8,174.8,0,0,1,27.629-21.232.369.369,0,0,1,.01-.119l2.309-9.467a.376.376,0,0,1,.73.178L860.035,663A184.254,184.254,0,0,1,891,647.758a.376.376,0,1,1,.268.7,184.425,184.425,0,0,0-19.344,8.672l6.774,1.813a.377.377,0,0,1-.2.728l-7.555-2.022h-.006a179.466,179.466,0,0,0-30.352,20.137l9.5,3.32a.377.377,0,1,1-.248.712l-9.706-3.391a.392.392,0,0,1-.078-.039.344.344,0,0,1-.09-.083c-2.959,2.458-5.6,4.819-7.906,7-12.505,11.829-18.457,21.252-18.514,21.344a.375.375,0,0,1-.518.119h0a.378.378,0,0,1-.116-.518Z" transform="translate(-812.851 -647.733)" fill="#dedede"/>
      </g>
      <g id="Grupo_1014882" data-name="Grupo 1014882" transform="translate(52.016 309.872)">
        <path id="Trazado_608247" data-name="Trazado 608247" d="M150.792,577.225a.836.836,0,0,0-1.06.521l-5.958,17.507q-1.23-5.75-2.786-11.995a387.888,387.888,0,0,0-26.393-72.707.92.92,0,0,0,.124-.232l6.969-20.475a.835.835,0,1,0-1.581-.539l-6.52,19.155A409.13,409.13,0,0,0,73.806,443a.835.835,0,1,0-1.341.995A409.075,409.075,0,0,1,98.336,483.31L83.489,478.62a.835.835,0,0,0-.5,1.591l16.555,5.229a.1.1,0,0,1,.021,0,398.8,398.8,0,0,1,32.793,73.909l-21.75-5.117a.835.835,0,1,0-.382,1.625l22.22,5.228a.8.8,0,0,0,.191.023.812.812,0,0,0,.273-.046c2.608,8.135,4.725,15.693,6.443,22.537,1.3,5.179,2.414,10.119,3.374,14.785a.821.821,0,0,0,.106.516c5.791,28.415,5.716,46.534,5.716,46.745a.835.835,0,0,0,.828.843h.008a.837.837,0,0,0,.835-.828c0-.211.08-18.528-5.77-47.2l6.869-20.179a.837.837,0,0,0-.522-1.06Z" transform="translate(-72.301 -442.666)" fill="#dedede"/>
      </g>
      <g id="Grupo_1014883" data-name="Grupo 1014883" transform="translate(2.268 432.19)">
        <path id="Trazado_608248" data-name="Trazado 608248" d="M90.018,695.294c-.057-.124-5.927-12.528-19.431-28.822a213.871,213.871,0,0,0-30.414-29.86.4.4,0,0,0,.005-.147l-1.406-11.838a.46.46,0,0,0-.913.109l1.316,11.079A225.353,225.353,0,0,0,3.828,612.736a.46.46,0,0,0-.428.815,225.5,225.5,0,0,1,22.209,13.385l-8.494,1.2a.461.461,0,1,0,.129.913l9.474-1.339h.005A219.781,219.781,0,0,1,60.61,656.649L48.582,659.28a.459.459,0,0,0,.2.9l12.289-2.688a.585.585,0,0,0,.1-.034.47.47,0,0,0,.124-.088c3.229,3.423,6.085,6.676,8.566,9.668,13.439,16.209,19.274,28.532,19.33,28.655a.46.46,0,0,0,.612.222h0a.465.465,0,0,0,.219-.612Z" transform="translate(-3.153 -612.683)" fill="#dedede"/>
      </g>
      <path id="Trazado_608249" data-name="Trazado 608249" d="M597.9,724.043H9.927A10.114,10.114,0,0,0,0,734.335v3.781a10.114,10.114,0,0,0,9.927,10.292H597.9a10.114,10.114,0,0,0,9.926-10.292v-3.781A10.114,10.114,0,0,0,597.9,724.043Z" transform="translate(0 -211.736)" fill="#84c0f0"/>
      <path id="Trazado_608250" data-name="Trazado 608250" d="M541.516,0H186.137A12.339,12.339,0,0,0,173.7,12.235V500.3a12.339,12.339,0,0,0,12.441,12.235h355.38A12.339,12.339,0,0,0,553.957,500.3V12.235A12.339,12.339,0,0,0,541.516,0Z" transform="translate(-58.601)" fill="#404040"/>
      <path id="Trazado_608251" data-name="Trazado 608251" d="M539.762,13.237H195.319a8.311,8.311,0,0,0-8.386,8.235V476.084a8.312,8.312,0,0,0,8.386,8.235H539.762a8.312,8.312,0,0,0,8.386-8.235V21.473A8.312,8.312,0,0,0,539.762,13.237Z" transform="translate(-62.398 -3.714)" fill="#737373"/>
      <path id="Trazado_608252" data-name="Trazado 608252" d="M531.83,50.41H224.105v426.2H531.83Z" transform="translate(-73.011 -14.143)" fill="#fff"/>
      <path id="Trazado_608253" data-name="Trazado 608253" d="M531.988,50.173H222.729V80.152H531.988Z" transform="translate(-72.607 -14.076)" fill="#80a7fa"/>
      <path id="Trazado_608254" data-name="Trazado 608254" d="M239.662,73.517a5.149,5.149,0,1,0-5.148-5.149A5.149,5.149,0,0,0,239.662,73.517Z" transform="translate(-71.572 -17.737)" fill="#fff"/>
      <path id="Trazado_608255" data-name="Trazado 608255" d="M262.253,73.517a5.149,5.149,0,1,0-5.148-5.149A5.149,5.149,0,0,0,262.253,73.517Z" transform="translate(-78.466 -17.737)" fill="#fff"/>
      <path id="Trazado_608256" data-name="Trazado 608256" d="M284.841,73.517a5.149,5.149,0,1,0-5.148-5.149A5.149,5.149,0,0,0,284.841,73.517Z" transform="translate(-85.36 -17.737)" fill="#fff"/>
      <g id="Grupo_1014884" data-name="Grupo 1014884" transform="translate(168.113 91.335)">
        <path id="Trazado_608257" data-name="Trazado 608257" d="M520.958,130.173H258.71a10.439,10.439,0,0,0-10.439,10.439V317.388a10.439,10.439,0,0,0,10.439,10.439H520.958A10.439,10.439,0,0,0,531.4,317.388V140.612A10.44,10.44,0,0,0,520.958,130.173Z" transform="translate(-248.271 -130.173)" fill="#e0b3a8"/>
      </g>
      <path id="Trazado_608258" data-name="Trazado 608258" d="M507.209,116.972H244.96a10.439,10.439,0,0,0-10.439,10.439V304.187a10.439,10.439,0,0,0,10.439,10.438H507.209a10.439,10.439,0,0,0,10.439-10.438V127.411A10.439,10.439,0,0,0,507.209,116.972Z" transform="translate(-75.719 -34.899)" fill="#fed095"/>
      <path id="Trazado_608259" data-name="Trazado 608259" d="M286.6,182.15H272.06v36.5H286.6Z" transform="translate(-83.074 -53.319)" fill="#7e19b8"/>
      <path id="Trazado_608260" data-name="Trazado 608260" d="M329.824,164.822H315.281V213.79h14.543Z" transform="translate(-96.272 -48.297)" fill="#80a7fa"/>
      <path id="Trazado_608261" data-name="Trazado 608261" d="M373.046,142.962H358.5v64.7h14.544Z" transform="translate(-109.47 -41.95)" fill="#304c8e"/>
      <path id="Trazado_608262" data-name="Trazado 608262" d="M335.72,255.578H254.529a3.921,3.921,0,0,0-3.921,3.92v.766a3.921,3.921,0,0,0,3.921,3.921H335.72a3.921,3.921,0,0,0,3.921-3.921V259.5A3.921,3.921,0,0,0,335.72,255.578Z" transform="translate(-77.33 -74.651)" fill="#fff"/>
      <path id="Trazado_608263" data-name="Trazado 608263" d="M283.489,280.876h-28.96a3.921,3.921,0,0,0-3.921,3.921v.766a3.921,3.921,0,0,0,3.921,3.92h28.96a3.921,3.921,0,0,0,3.921-3.92V284.8A3.921,3.921,0,0,0,283.489,280.876Z" transform="translate(-76.745 -82.04)" fill="#fff"/>
      <path id="Trazado_608264" data-name="Trazado 608264" d="M370.374,307.334l-11.259-4.465,2.079,3.5c-5.59.106-9.4.289-11.342.542-4.775.622-11.37,5.927-19.609,15.765-3.325,3.97-6.843,6.046-10.761,6.348-5.291.407-11.277-2.389-18.3-8.546-6.389-5.6-13.524-8.314-20.628-7.834-7.024.475-13.826,4.1-19.152,10.223a1.064,1.064,0,0,0,1.6,1.4c4.953-5.688,11.233-9.061,17.69-9.5,6.529-.441,13.127,2.086,19.083,7.31,6.979,6.121,13.108,9.113,18.685,9.113.4,0,.789-.016,1.178-.047,4.52-.348,8.52-2.672,12.229-7.1,9.82-11.729,15.346-14.644,18.252-15.023,1.834-.24,5.657-.418,11.092-.524l-2.009,3.542,11.167-4.7Z" transform="translate(-80.846 -88.597)" fill="#7e19b8"/>
      <path id="Trazado_608265" data-name="Trazado 608265" d="M331.589,347.163H318.831V326.754h-1.109v20.408h-36.37V310.805h-1.109v36.358H257.081V305.074h-1.109v42.089h-1.628v1.112h1.628v2.149h1.109v-2.149h23.161v2.564h1.109v-2.564h36.37v2.564h1.109v-2.564h12.758Z" transform="translate(-78.339 -89.37)" fill="#fff"/>
      <path id="Trazado_608266" data-name="Trazado 608266" d="M289.729,320.14a3.052,3.052,0,1,0-3.052-3.051A3.051,3.051,0,0,0,289.729,320.14Z" transform="translate(-87.446 -91.709)" fill="#80a7fa"/>
      <path id="Trazado_608267" data-name="Trazado 608267" d="M342.211,342.548a3.052,3.052,0,1,0-3.051-3.051A3.052,3.052,0,0,0,342.211,342.548Z" transform="translate(-103.456 -98.253)" fill="#80a7fa"/>
      <path id="Trazado_608268" data-name="Trazado 608268" d="M474.477,178.029A19.089,19.089,0,1,1,446.062,167.7l-3.661-5.93a26.033,26.033,0,1,0,38.7,14.115Z" transform="translate(-132.031 -47.399)" fill="#fff"/>
      <path id="Trazado_608269" data-name="Trazado 608269" d="M461.026,156.194a25.922,25.922,0,0,0-13.88,4.012l3.661,5.93a19.058,19.058,0,0,1,28.415,10.328l6.622-2.143a26.054,26.054,0,0,0-24.814-18.129Z" transform="translate(-136.966 -45.662)" fill="#7e19b8"/>
      <path id="Trazado_608270" data-name="Trazado 608270" d="M487.392,156.672a30.687,30.687,0,0,0-15.655-6.715l-1.006,7.483a23.305,23.305,0,0,1,18.812,31.7l7.034,2.744A30.87,30.87,0,0,0,487.392,156.672Z" transform="translate(-143.986 -43.915)" fill="#80a7fa"/>
      <path id="Trazado_608271" data-name="Trazado 608271" d="M547.2,191.377A19.089,19.089,0,1,1,574.6,178.588l6.781,1.607a26.031,26.031,0,1,0-37.343,17.38l3.165-6.2Z" transform="translate(-162.626 -43.482)" fill="#fff"/>
      <path id="Trazado_608272" data-name="Trazado 608272" d="M579.9,204.623a25.917,25.917,0,0,0,6.978-12.652l-6.781-1.607A19.055,19.055,0,0,1,552.7,203.153l-3.165,6.2A26.05,26.05,0,0,0,579.9,204.623Z" transform="translate(-168.298 -55.658)" fill="#304c8e"/>
      <path id="Trazado_608273" data-name="Trazado 608273" d="M557.893,219.047a30.73,30.73,0,0,0,15.817-6.32l-4.581-6a23.307,23.307,0,0,1-35.72-9.119l-6.915,3.034a30.867,30.867,0,0,0,31.4,18.407Z" transform="translate(-161.459 -57.775)" fill="#80a7fa"/>
      <path id="Trazado_608274" data-name="Trazado 608274" d="M587.7,157.05a25.994,25.994,0,0,0-7-4.992l-3.348,6.106A19.078,19.078,0,0,1,587.9,179.622l6.781,1.607a26.023,26.023,0,0,0-6.977-24.178Z" transform="translate(-176.372 -44.484)" fill="#7e19b8"/>
      <path id="Trazado_608275" data-name="Trazado 608275" d="M446.418,253.581h-4.409a2.288,2.288,0,0,0-2.288,2.288v4.408a2.288,2.288,0,0,0,2.288,2.288h4.409a2.288,2.288,0,0,0,2.288-2.288v-4.408A2.288,2.288,0,0,0,446.418,253.581Z" transform="translate(-134.178 -74.07)" fill="#fff"/>
      <path id="Trazado_608276" data-name="Trazado 608276" d="M541.836,253.591H464.873a2.288,2.288,0,0,0-2.288,2.289v4.408a2.288,2.288,0,0,0,2.288,2.288h76.963a2.288,2.288,0,0,0,2.288-2.288V255.88A2.288,2.288,0,0,0,541.836,253.591Z" transform="translate(-142.573 -74.072)" fill="#fff"/>
      <path id="Trazado_608277" data-name="Trazado 608277" d="M446.418,287.021h-4.409a2.288,2.288,0,0,0-2.288,2.289v4.408a2.288,2.288,0,0,0,2.288,2.288h4.409a2.288,2.288,0,0,0,2.288-2.288V289.31A2.288,2.288,0,0,0,446.418,287.021Z" transform="translate(-134.178 -83.837)" fill="#7e19b8"/>
      <path id="Trazado_608278" data-name="Trazado 608278" d="M541.836,287.032H464.873a2.288,2.288,0,0,0-2.288,2.288v4.409a2.288,2.288,0,0,0,2.288,2.288h76.963a2.288,2.288,0,0,0,2.288-2.288V289.32A2.288,2.288,0,0,0,541.836,287.032Z" transform="translate(-142.573 -83.84)" fill="#fff"/>
      <path id="Trazado_608279" data-name="Trazado 608279" d="M446.418,317.888h-4.409a2.288,2.288,0,0,0-2.288,2.288v4.408a2.288,2.288,0,0,0,2.288,2.288h4.409a2.288,2.288,0,0,0,2.288-2.288v-4.408A2.288,2.288,0,0,0,446.418,317.888Z" transform="translate(-134.178 -92.853)" fill="#80a7fa"/>
      <path id="Trazado_608280" data-name="Trazado 608280" d="M541.836,317.9H464.873a2.288,2.288,0,0,0-2.288,2.289v4.408a2.288,2.288,0,0,0,2.288,2.288h76.963a2.288,2.288,0,0,0,2.288-2.288v-4.408A2.288,2.288,0,0,0,541.836,317.9Z" transform="translate(-142.573 -92.856)" fill="#fff"/>
      <path id="Trazado_608281" data-name="Trazado 608281" d="M446.418,351.325h-4.409a2.288,2.288,0,0,0-2.288,2.288v4.408a2.288,2.288,0,0,0,2.288,2.288h4.409a2.288,2.288,0,0,0,2.288-2.288v-4.408A2.288,2.288,0,0,0,446.418,351.325Z" transform="translate(-134.178 -102.62)" fill="#304c8e"/>
      <path id="Trazado_608282" data-name="Trazado 608282" d="M541.836,351.339H464.873a2.288,2.288,0,0,0-2.288,2.288v4.408a2.288,2.288,0,0,0,2.288,2.289h76.963a2.288,2.288,0,0,0,2.288-2.289v-4.408A2.288,2.288,0,0,0,541.836,351.339Z" transform="translate(-142.573 -102.624)" fill="#fff"/>
      <path id="Trazado_608283" data-name="Trazado 608283" d="M116.115,669.557l22.94-10.653-11.61-25L104.5,644.557a2.576,2.576,0,0,0-1.251,3.42A2.577,2.577,0,0,1,102,651.4l-7.143,3.317a1.363,1.363,0,0,1-1.811-.663,1.363,1.363,0,0,0-1.811-.663l-49.415,22.96A11.615,11.615,0,0,0,35.659,690.9a11.361,11.361,0,0,0,15.384,6.214l49.768-23.122a1.363,1.363,0,0,0,.663-1.811,1.363,1.363,0,0,1,.663-1.811l7.143-3.317a2.576,2.576,0,0,1,3.42,1.251,2.576,2.576,0,0,0,3.42,1.25Z" transform="translate(-9.797 -186.447)" fill="#272047"/>
      <path id="Trazado_608284" data-name="Trazado 608284" d="M276.175,637.312a74.513,74.513,0,1,0-105.377,0A74.512,74.512,0,0,0,276.175,637.312Z" transform="translate(-46.455 -151.716)" fill="#42396b"/>
      <path id="Trazado_608285" data-name="Trazado 608285" d="M273.228,634.366a65.224,65.224,0,1,0-92.241,0A65.223,65.223,0,0,0,273.228,634.366Z" transform="translate(-50.305 -155.338)" fill="#7e9de8"/>
      <path id="Trazado_608286" data-name="Trazado 608286" d="M258.029,551.213a49.738,49.738,0,1,0,18.18,67.951A49.737,49.737,0,0,0,258.029,551.213ZM220.01,617.006a26.25,26.25,0,1,1,35.862-9.6A26.252,26.252,0,0,1,220.01,617.006Z" transform="translate(-56.686 -161.373)" fill="#fff"/>
      <path id="Trazado_608287" data-name="Trazado 608287" d="M295.922,628.66A49.7,49.7,0,0,0,282.565,553.8c-.023-.013-.049-.026-.075-.042l-11.636,20.4a26.232,26.232,0,0,1,6.988,39.51l18.082,14.986Z" transform="translate(-82.942 -163.962)" fill="#304c8e"/>
      <g id="Grupo_1014885" data-name="Grupo 1014885" transform="translate(211.804 410.349)">
        <path id="Trazado_608288" data-name="Trazado 608288" d="M309.233,599.823a4.643,4.643,0,0,1-.389-1.328,41.835,41.835,0,0,0-3.524-11.982,4.645,4.645,0,0,1,8.428-3.911,51.208,51.208,0,0,1,4.3,14.639,4.645,4.645,0,0,1-8.814,2.587Z" transform="translate(-304.887 -579.912)" fill="#38475c"/>
      </g>
      <g id="Grupo_1014886" data-name="Grupo 1014886" transform="translate(189.683 433.137)">
        <path id="Trazado_608289" data-name="Trazado 608289" d="M273.831,658.032a4.641,4.641,0,0,1,2.257-6.167,42.281,42.281,0,0,0,24.069-33.714,4.645,4.645,0,1,1,9.237.986A51.624,51.624,0,0,1,280,660.289a4.642,4.642,0,0,1-6.168-2.257Z" transform="translate(-273.397 -614)" fill="#38475c"/>
      </g>
      <path id="Trazado_608290" data-name="Trazado 608290" d="M191.052,389.572a.221.221,0,0,0,.163-.07.224.224,0,0,0-.008-.317c-3.379-3.2-3.348-7.914.117-18.028a.225.225,0,1,0-.426-.147c-3.534,10.315-3.534,15.157,0,18.5a.224.224,0,0,0,.155.062Z" transform="translate(-57.401 -108.405)" fill="#2b1710"/>
      <path id="Trazado_608291" data-name="Trazado 608291" d="M188.871,391.229a.234.234,0,0,0,.2-.112.223.223,0,0,0-.083-.306c-1.3-.756-2.185-2.363-2.5-4.527a15.062,15.062,0,0,1,3.781-11.863.224.224,0,1,0-.327-.306,15.524,15.524,0,0,0-3.9,12.237c.332,2.3,1.3,4.024,2.719,4.852a.232.232,0,0,0,.113.031Z" transform="translate(-56.699 -109.323)" fill="#2b1710"/>
      <path id="Trazado_608292" data-name="Trazado 608292" d="M193.183,364.784a.222.222,0,0,0,.219-.181.226.226,0,0,0-.176-.266c-2.577-.529-4.207-1.679-4.718-3.322-.712-2.3.776-5.507,4.186-9.046a.224.224,0,0,0-.322-.312c-3.583,3.714-5.066,7-4.292,9.49.56,1.81,2.309,3.067,5.056,3.632A.347.347,0,0,0,193.183,364.784Z" transform="translate(-57.306 -102.729)" fill="#2b1710"/>
      <path id="Trazado_608293" data-name="Trazado 608293" d="M196.37,348.474c7.135-4.981,15.593-2.956,18.059,7.792s7.548,13.744,15.183,14.213,10.924,7.517,7.635,10.805c8.574,6.7,11.628,29.718-8.574,29.6s-29.837-10.1-30.541-11.747-2.35-8.339-3.758-13.274-7.841-9.907-1.806-25.273c3.805-7.615,3.805-12.118,3.805-12.118Z" transform="translate(-58.329 -101.498)" fill="#2b1710"/>
      <path id="Trazado_608294" data-name="Trazado 608294" d="M115.2,399.144a18.943,18.943,0,0,1-2.935-5.874c-.235-1.293-.588-3.173-2.231-4.112s-2.935-5.99-2.935-5.99c-1.409,0-1.646,1.646-1.292,3.173s1.173,2.35.118,2.585S97.7,385.05,96.295,385.4s.939,2.7.47,2.7c-2.819-.469-3.408.47-2.819,1.762-.469,1.762,2.35,3.993,2.35,3.993-1.292-.119-2.35.119-1.527,1.058s9.278,3.993,11.747,4.346,5.05,3.877,5.05,3.877l3.643-3.993Z" transform="translate(-26.299 -112.014)" fill="#ff8762"/>
      <path id="Trazado_608295" data-name="Trazado 608295" d="M140.464,627.373c-.975-1.953-2.017-5.672-1.767-11.025.276-2,.619-4.527,1-7.416.191-1.439.392-2.968.6-4.568l-9.582,2.566c.162,1.726.317,3.343.456,4.821a34.666,34.666,0,0,1-.361,9.443,9.721,9.721,0,0,1-.573,2.169c-.76,1.542-6.263,6.877-8.775,11.477-.235.56-5.92,1.457-5.066,2.76.516.284,10.429,1.063,11.538-.005s3.748-3.727,6.7-4.323a42.68,42.68,0,0,1,.186,4.813l4.292.018s.5-4.243.689-5.525,1.651-3.23.663-5.205Z" transform="translate(-32.632 -178.159)" fill="#ff8762"/>
      <path id="Trazado_608296" data-name="Trazado 608296" d="M121.432,643.059c1.793.209,3.761.6,4.45.3.929-.408,7.05-8,13.774-9.874a13.732,13.732,0,0,0,.807,2.055c.988,1.976-.475,3.926-.663,5.206s-.689,5.525-.689,5.525l-4.292-.018a42.025,42.025,0,0,0-.186-4.813c-2.951.6-5.589,3.255-6.7,4.323s-11.022.289-11.538.005c-.828-1.266,4.506-2.11,5.03-2.711Z" transform="translate(-32.631 -186.329)" fill="#2b1710"/>
      <path id="Trazado_608297" data-name="Trazado 608297" d="M132.617,541.643c-1.486-1.6-3.531-4.875-4.8-10.083-.3-2-.678-4.517-1.122-7.4-.222-1.435-.459-2.959-.709-4.553l-8.473,5.159c.642,1.609,1.243,3.119,1.8,4.5a34.66,34.66,0,0,1,2.311,9.165,9.6,9.6,0,0,1,.06,2.241c-.3,1.695-4.076,8.363-5.192,13.483-.07.6-5.27,3.064-4.084,4.076.576.127,10.3-1.914,11.071-3.25s2.546-4.63,5.211-6.033a42.579,42.579,0,0,1,1.532,4.566l4.122-1.189s-.714-4.212-.895-5.494.676-3.565-.828-5.182Z" transform="translate(-31.487 -152.125)" fill="#ff8762"/>
      <path id="Trazado_608298" data-name="Trazado 608298" d="M116.464,562.125c1.78-.3,3.779-.48,4.354-.965.776-.65,4.515-9.662,10.439-13.351a13.861,13.861,0,0,0,1.352,1.746c1.5,1.617.65,3.9.828,5.182s.9,5.494.9,5.494l-4.122,1.188a42.42,42.42,0,0,0-1.532-4.566c-2.665,1.4-4.447,4.7-5.211,6.034s-10.5,3.379-11.071,3.25c-1.15-.983,3.73-3.294,4.066-4.016Z" transform="translate(-31.484 -160.124)" fill="#2b1710"/>
      <path id="Trazado_608299" data-name="Trazado 608299" d="M170.892,394.072c-13.452,6.114-11.09,36.979-49.206,6.619l-4.048,5.734c6.072,11.807,20.408,27.66,37.611,26.986s26.143-11.13,26.143-11.13l-10.5-28.209Z" transform="translate(-33.004 -115.379)" fill="#d2aee6"/>
      <path id="Trazado_608300" data-name="Trazado 608300" d="M194.3,392.811l-6,.908c-.758,8.223-8.223,17.076-8.6,21.631s5.566,11.386,7.968,15.686a18.285,18.285,0,0,1,2.4,8.1h25.173c0-1.137,6.072-29.346,5.314-36.3s-9.709-9.567-9.709-9.567a84.5,84.5,0,0,1-16.544-.449Z" transform="translate(-55.054 -115.077)" fill="#7e19b8"/>
      <path id="Trazado_608301" data-name="Trazado 608301" d="M205.336,371.137a6.769,6.769,0,0,0,7.821-9.018c.493-9.087-3.381-18.036-16.98-13.176-6.764.846-9.371,9.794-3.805,12.118A113.287,113.287,0,0,0,205.336,371.137Z" transform="translate(-57.889 -101.638)" fill="#2b1710"/>
      <path id="Trazado_608302" data-name="Trazado 608302" d="M201.016,375.864c.423,2.536.568,3.07-3.025,5.5.106,11.414,16.66,2.055,16.606.363,0-.211-3.064-.9-4.174-2.853s-1.638-6.923-1.215-13.581c-2.589.686-3.487-1.375-3.539-4.914s-1.743-9.193-8.612-8.3c-2.59,3.17-3.962,5.179-3.75,9.3s-.247,7.044.247,9.018a7.337,7.337,0,0,0,7.468,5.461Z" transform="translate(-59.071 -103.021)" fill="#ff8762"/>
      <path id="Trazado_608303" data-name="Trazado 608303" d="M203.732,373.624a2.672,2.672,0,1,0,2.286-2.891A2.608,2.608,0,0,0,203.732,373.624Z" transform="translate(-62.132 -108.25)" fill="#ff7557"/>
      <g id="Grupo_1014887" data-name="Grupo 1014887" transform="translate(136.613 265.708)">
        <path id="Trazado_608304" data-name="Trazado 608304" d="M202.486,376.292c-3.137-1.334-6.158-1.285-5.9-.176C196.406,378.815,199.765,381.662,202.486,376.292Z" transform="translate(-196.574 -375.288)" fill="#e0b3a8"/>
      </g>
      <path id="Trazado_608305" data-name="Trazado 608305" d="M207.519,363.212a.13.13,0,0,0,.116-.067c.036-.065-.008-.124-.049-.183-1.184-1.656-3.666-2.945-4.72-.822-.034.067-.111.1-.091.168a.135.135,0,0,0,.168.09,6.8,6.8,0,0,1,4.509.8A.122.122,0,0,0,207.519,363.212Z" transform="translate(-61.843 -105.403)" fill="#2b1710"/>
      <path id="Trazado_608306" data-name="Trazado 608306" d="M193.99,363.621a.131.131,0,0,0,.108-.054c.024-.031.568-.727,2.307-.511a.133.133,0,0,0,.15-.116c.01-.075-.086-.083-.117-.15-.957-2.1-2.489.529-2.556.616a.133.133,0,0,0,.029.189A.128.128,0,0,0,193.99,363.621Z" transform="translate(-59.108 -105.676)" fill="#2b1710"/>
      <path id="Trazado_608307" data-name="Trazado 608307" d="M197.677,371.547a.134.134,0,0,0,.106-.052.137.137,0,0,0-.02-.191,13.349,13.349,0,0,1-1.646-1.476,3.913,3.913,0,0,1,.578-.033,3.3,3.3,0,0,0,1.368-.2c.722-.4.025-3.458-.612-4.893a.135.135,0,1,0-.247.109c.74,1.668,1.163,4.3.727,4.548a3.26,3.26,0,0,1-1.241.17c-.544.011-.872.016-.872.266s.968,1.081,1.778,1.725a.129.129,0,0,0,.085.029Z" transform="translate(-59.705 -106.487)" fill="#2b1710"/>
      <path id="Trazado_608308" data-name="Trazado 608308" d="M204.923,368.839c.453,0,.82-.65.82-1.453s-.367-1.452-.82-1.452-.82.65-.82,1.452S204.47,368.839,204.923,368.839Z" transform="translate(-62.225 -106.84)" fill="#2b1710"/>
      <g id="Grupo_1014888" data-name="Grupo 1014888" transform="translate(142.719 261.238)">
        <path id="Trazado_608309" data-name="Trazado 608309" d="M205.447,370.176c.281,0,.9-.122,1.1-1.15a.068.068,0,1,0-.134-.026c-.2,1-.792,1.058-1.037,1.037a.065.065,0,0,0-.072.062.066.066,0,0,0,.062.072c.021,0,.046,0,.077,0Z" transform="translate(-205.308 -368.944)" fill="#e0b3a8"/>
      </g>
      <path id="Trazado_608310" data-name="Trazado 608310" d="M196.307,369.082c.453,0,.821-.65.821-1.452s-.368-1.453-.821-1.453-.82.65-.82,1.453S195.855,369.082,196.307,369.082Z" transform="translate(-59.598 -106.911)" fill="#2b1710"/>
      <g id="Grupo_1014889" data-name="Grupo 1014889" transform="translate(136.729 261.411)">
        <path id="Trazado_608311" data-name="Trazado 608311" d="M196.832,370.42c.281,0,.9-.121,1.1-1.15a.068.068,0,0,0-.134-.026c-.2,1-.792,1.058-1.037,1.037a.065.065,0,0,0-.073.062.066.066,0,0,0,.062.072c.021,0,.047,0,.078,0Z" transform="translate(-196.692 -369.188)" fill="#e0b3a8"/>
      </g>
      <path id="Trazado_608312" data-name="Trazado 608312" d="M216.232,377.059a.985.985,0,1,0-.986-.986A.985.985,0,0,0,216.232,377.059Z" transform="translate(-65.625 -109.505)" fill="#fff"/>
      <g id="Grupo_1014890" data-name="Grupo 1014890" transform="translate(138.083 270.417)">
        <path id="Trazado_608313" data-name="Trazado 608313" d="M199.88,382.307a3.38,3.38,0,0,1-1.161-.2.109.109,0,0,1,.075-.2,3.364,3.364,0,0,0,1.731.124.107.107,0,0,1,.049.209,3.192,3.192,0,0,1-.7.07Z" transform="translate(-198.648 -381.898)" fill="#e0b3a8"/>
      </g>
      <path id="Trazado_608314" data-name="Trazado 608314" d="M202.492,376.616l-5.9-.176C196.6,379.087,200.451,380.322,202.492,376.616Z" transform="translate(-59.967 -109.904)" fill="#2b1710"/>
      <path id="Trazado_608315" data-name="Trazado 608315" d="M198.108,378.507a5,5,0,0,1,1.925-1.6l1.814-.266,1.07.031c-1.364,2.476-3.515,2.719-4.808,1.837Z" transform="translate(-60.42 -109.96)" fill="#7d2727"/>
      <path id="Trazado_608316" data-name="Trazado 608316" d="M196.6,376.436l5.9.176C201.12,377.563,197.49,377.829,196.6,376.436Z" transform="translate(-59.967 -109.891)" fill="#fff"/>
      <path id="Trazado_608317" data-name="Trazado 608317" d="M213.7,371.421A2.082,2.082,0,1,0,215.371,369,2.085,2.085,0,0,0,213.7,371.421Z" transform="translate(-65.159 -107.736)" fill="#ff7a52"/>
      <g id="Grupo_1014891" data-name="Grupo 1014891" transform="translate(149.095 261.833)">
        <path id="Trazado_608318" data-name="Trazado 608318" d="M214.517,371.549a1.487,1.487,0,0,0,.83,1.078.086.086,0,0,0,.117-.041.09.09,0,0,0-.042-.117,1.3,1.3,0,0,1-.712-.869.886.886,0,1,0,.56-1.391.529.529,0,0,0-.055.016,1.3,1.3,0,0,1,1.63.08.088.088,0,0,0,.117-.132,1.484,1.484,0,0,0-2.443,1.378Zm.209-.34a.712.712,0,1,1,.828.573A.714.714,0,0,1,214.726,371.208Z" transform="translate(-214.495 -369.801)" fill="#e0b3a8"/>
      </g>
      <path id="Trazado_608319" data-name="Trazado 608319" d="M204.935,382.521c4.756-1.233,6.4-6.167,6.4-6.167C210.1,384.928,205.348,388.746,204.935,382.521Z" transform="translate(-62.515 -109.933)" fill="#ff7557"/>
      <path id="Trazado_608320" data-name="Trazado 608320" d="M168.7,453.484s-7.869,6.923-9.219,6.923-30.7-23.95-40.814-22.939S104.5,449.95,106.857,464.454s9.614,52.791,9.614,52.791l20.408-5.566s-9.446-43.851-7.083-42.5,22.939,17.54,22.939,17.54l29.685-4.047-1.35-26.986-6.915-3.2-5.453,1.006Z" transform="translate(-29.796 -128.541)" fill="#f7c480"/>
      <g id="Grupo_1014892" data-name="Grupo 1014892" transform="translate(86.18 376.631)">
        <path id="Trazado_608321" data-name="Trazado 608321" d="M120.108,537.176a.322.322,0,0,1-.309-.232.328.328,0,0,1,.219-.4l15.518-4.553a.324.324,0,1,1,.183.622L120.2,537.163a.371.371,0,0,1-.09.013Z" transform="translate(-119.786 -531.975)" fill="#d4d4d4"/>
      </g>
      <path id="Trazado_608322" data-name="Trazado 608322" d="M198.214,459.188s11.13,18.889,5.4,32.72-41.49,15.518-44.865,23.612-13.661,62.743-13.661,62.743H121.64s4.217-58.187,12.818-73.873,33.394-27.325,36.938-29.853,7.083-16.191,7.083-16.191l19.733.844Z" transform="translate(-34.127 -135.26)" fill="#fed095"/>
      <path id="Trazado_608323" data-name="Trazado 608323" d="M219.443,456.4H193.067v2.4h26.376Z" transform="translate(-59.043 -133.248)" fill="#2b1710"/>
      <path id="Trazado_608324" data-name="Trazado 608324" d="M212.871,455.238h-1.264v3.794h1.264Z" transform="translate(-64.51 -132.922)" fill="#fed095"/>
      <path id="Trazado_608325" data-name="Trazado 608325" d="M225.294,455.238H224.03v3.794h1.264Z" transform="translate(-68.297 -132.922)" fill="#fed095"/>
      <g id="Grupo_1014893" data-name="Grupo 1014893" transform="translate(148.897 326.563)">
        <path id="Trazado_608326" data-name="Trazado 608326" d="M222.01,477.746a.289.289,0,0,1-.078-.01c-5.811-1.409-8.687-7.71-7.325-16.052a.32.32,0,0,1,.371-.265.325.325,0,0,1,.268.371c-1.3,7.984,1.383,14,6.841,15.319a.323.323,0,0,1-.078.637Z" transform="translate(-214.273 -461.413)" fill="#d4d4d4"/>
      </g>
      <g id="Grupo_1014894" data-name="Grupo 1014894" transform="translate(100.203 325.549)">
        <path id="Trazado_608327" data-name="Trazado 608327" d="M144.959,573.106a.227.227,0,0,1-.06-.005.321.321,0,0,1-.258-.376c.4-2.115,9.846-51.935,14.7-61.646,3.178-6.358,15.931-9.632,26.176-12.263,5.9-1.517,11-2.825,13.225-4.385,6.335-4.453,5.569-19.648,2.737-32.385a.322.322,0,0,1,.245-.384.328.328,0,0,1,.387.245c2.876,12.941,3.6,28.42-3,33.056-2.317,1.628-7.47,2.951-13.434,4.484-10.119,2.6-22.712,5.832-25.761,11.925-4.815,9.631-14.548,60.96-14.646,61.476a.324.324,0,0,1-.317.263Z" transform="translate(-144.636 -461.653)" fill="#d4d4d4"/>
      </g>
      <g id="Grupo_1014895" data-name="Grupo 1014895" transform="translate(88.543 435.431)">
        <path id="Trazado_608328" data-name="Trazado 608328" d="M123.393,617.921a.324.324,0,0,1,0-.647l21.757-.086a.324.324,0,0,1,0,.648Z" transform="translate(-123.071 -617.188)" fill="#d4d4d4"/>
      </g>
      <path id="Trazado_608329" data-name="Trazado 608329" d="M244.141,434.913s3.6,11.9,3.387,22.39-5.025,24.9-5.025,26.429c-.219,4.37-3.822,6.663-6.443,6.335s-4.313-.655-4.586-.054c-.327.928-2.073,2.347-2.894,2.13a1.762,1.762,0,0,1-1.638.273,1.08,1.08,0,0,1-1.365-.219,12.943,12.943,0,0,1,.219-2.675c.219-.435.709-1.857.709-1.857s-1.148,1.037-1.2,1.583.109,2.294-.655,2.458a9.163,9.163,0,0,1-.327-3.822c.054-.764,1.8-3.5,3.276-3.768s7.426-.165,7.862-.709-1.365-26.976-1.858-29.435-5.407-16.547-5.407-16.547Z" transform="translate(-68.553 -127.537)" fill="#ff8762"/>
      <g id="Grupo_1014896" data-name="Grupo 1014896" transform="translate(158.241 358.07)">
        <path id="Trazado_608330" data-name="Trazado 608330" d="M227.795,506.955a.162.162,0,0,0,.116-.052l.859-.942a.157.157,0,1,0-.232-.211l-.859.942a.156.156,0,0,0,.01.222A.151.151,0,0,0,227.795,506.955Z" transform="translate(-227.637 -505.698)" fill="#e0b3a8"/>
      </g>
      <g id="Grupo_1014897" data-name="Grupo 1014897" transform="translate(158.355 359.405)">
        <path id="Trazado_608331" data-name="Trazado 608331" d="M228.119,512.076s.327-2.048.369-2.294a16.661,16.661,0,0,1,1.243-1.9.158.158,0,0,0-.037-.219.156.156,0,0,0-.219.036,14.338,14.338,0,0,0-1.3,2.03c-.041.245-.368,2.3-.368,2.3l.309.049Z" transform="translate(-227.81 -507.633)" fill="#e0b3a8"/>
      </g>
      <g id="Grupo_1014898" data-name="Grupo 1014898" transform="translate(159.93 360.262)">
        <path id="Trazado_608332" data-name="Trazado 608332" d="M230.238,512.257a.16.16,0,0,0,.15-.109c.005-.013.41-1.228.488-1.424.054-.124.7-.929,1.284-1.638a.157.157,0,1,0-.242-.2,20.163,20.163,0,0,0-1.336,1.72c-.083.206-.477,1.393-.495,1.442a.157.157,0,0,0,.1.2.169.169,0,0,0,.049.008Z" transform="translate(-230.078 -508.828)" fill="#e0b3a8"/>
      </g>
      <path id="Trazado_608333" data-name="Trazado 608333" d="M229.212,398.214c-8.1,5.819-7.084,18.216-3.036,28.083s7.336,19.985,7.336,39.213c7.841,1.517,10.877.506,10.877.506s6.072-17.455,2.53-34.661-11.131-33.141-17.711-33.141Z" transform="translate(-68.216 -116.886)" fill="#d2aee6"/>
      <g id="Grupo_1014899" data-name="Grupo 1014899" transform="translate(76.87 277.575)">
        <path id="Trazado_608334" data-name="Trazado 608334" d="M106.961,398.053a.1.1,0,0,0,.059-.018c.011-.008,1.143-.688,4.344-.63a.123.123,0,0,0,.1-.052.114.114,0,0,0,.008-.108,8.988,8.988,0,0,1-.522-5.038.113.113,0,0,0-.085-.135.114.114,0,0,0-.134.086,9.2,9.2,0,0,0,.469,5.02c-3.157-.026-4.251.637-4.3.666a.115.115,0,0,0-.036.155.11.11,0,0,0,.095.051Z" transform="translate(-106.847 -392.072)" fill="#e0b3a8"/>
      </g>
      <g id="Grupo_1014900" data-name="Grupo 1014900" transform="translate(68.443 277.952)">
        <path id="Trazado_608335" data-name="Trazado 608335" d="M100.783,395.042l.085-.209-5.579-2.262a.113.113,0,1,0-.085.209Z" transform="translate(-95.133 -392.563)" fill="#e0b3a8"/>
      </g>
      <g id="Grupo_1014901" data-name="Grupo 1014901" transform="translate(74.053 279.141)">
        <path id="Trazado_608336" data-name="Trazado 608336" d="M103.042,396.518a.112.112,0,0,0,.111-.1,8.511,8.511,0,0,1,.581-2.025.112.112,0,0,0-.206-.088,8.788,8.788,0,0,0-.6,2.084.113.113,0,0,0,.1.127Z" transform="translate(-102.931 -394.24)" fill="#e0b3a8"/>
      </g>
      <g id="Grupo_1014902" data-name="Grupo 1014902" transform="translate(71.114 276.424)">
        <path id="Trazado_608337" data-name="Trazado 608337" d="M102.012,392.239a.113.113,0,0,0,.047-.217,29.184,29.184,0,0,1-3.041-1.607.113.113,0,0,0-.119.191,29.347,29.347,0,0,0,3.067,1.622A.1.1,0,0,0,102.012,392.239Z" transform="translate(-98.845 -390.398)" fill="#e0b3a8"/>
      </g>
      <g id="Grupo_1014903" data-name="Grupo 1014903" transform="translate(70.558 281.692)">
        <path id="Trazado_608338" data-name="Trazado 608338" d="M100.682,398.551a.113.113,0,0,0,.108-.083.114.114,0,0,0-.077-.139,18.392,18.392,0,0,0-2.515-.5.115.115,0,0,0-.124.1.111.111,0,0,0,.1.124,19.127,19.127,0,0,1,2.479.5.162.162,0,0,0,.031.005Z" transform="translate(-98.073 -397.825)" fill="#e0b3a8"/>
      </g>
      <path id="Trazado_608339" data-name="Trazado 608339" d="M208.569,365.266a4.779,4.779,0,0,0,1.627-.338.225.225,0,1,0-.155-.423,2.762,2.762,0,0,1-2.5.028c-1.181-.768-1.323-3.007-1.462-5.174a13.657,13.657,0,0,0-.5-3.531c-1.178-3.163-3.738-3.924-7.506-4.723a.225.225,0,0,0-.093.441c3.732.792,6.077,1.486,7.176,4.439a13.45,13.45,0,0,1,.478,3.4c.144,2.277.3,4.633,1.666,5.522a2.271,2.271,0,0,0,1.274.353Z" transform="translate(-60.383 -102.594)" fill="#2b1710"/>
      <path id="Trazado_608340" data-name="Trazado 608340" d="M248.535,380.2a.226.226,0,0,0,.224-.2,6.728,6.728,0,0,0-1.682-5.425c-3.245-3.6-9.755-3.985-12.4-3.985-6.567,0-11.347-6.877-13.173-13.695a.226.226,0,0,0-.436.116c1.87,6.983,6.8,14.027,13.609,14.027,5.391,0,9.9,1.435,12.069,3.838a6.3,6.3,0,0,1,1.568,5.076.226.226,0,0,0,.2.248h.021Z" transform="translate(-67.615 -104.314)" fill="#2b1710"/>
      <path id="Trazado_608341" data-name="Trazado 608341" d="M236.22,367.585c.407,0,.825-.01,1.256-.028a.225.225,0,1,0-.021-.449c-10.656.49-13.6-5.381-16.728-11.595-.588-1.171-1.2-2.381-1.86-3.56a.225.225,0,0,0-.392.222c.658,1.171,1.264,2.376,1.85,3.541,3.064,6.1,5.966,11.871,15.895,11.871Z" transform="translate(-66.743 -102.822)" fill="#2b1710"/>
      <path id="Trazado_608342" data-name="Trazado 608342" d="M259.257,424.508a.211.211,0,0,0,.088-.018c2.074-.89,4.561-4.777,4.955-9.51.3-3.544-.407-10.264-8.445-15.436a.226.226,0,0,0-.245.379c7.842,5.045,8.53,11.577,8.242,15.021-.382,4.566-2.73,8.3-4.684,9.133a.227.227,0,0,0-.119.3.224.224,0,0,0,.206.137Z" transform="translate(-77.965 -116.836)" fill="#2b1710"/>
      <path id="Trazado_608343" data-name="Trazado 608343" d="M267.009,416.8a.228.228,0,0,0,.224-.2c1.089-11.36-5.109-19.155-11.476-19.862a.224.224,0,1,0-.049.446c6.155.683,12.139,8.285,11.077,19.372a.223.223,0,0,0,.2.245h.021Z" transform="translate(-77.994 -115.98)" fill="#2b1710"/>
      <path id="Trazado_608344" data-name="Trazado 608344" d="M636.507,475.249H595.514l-61.3,62.67h163.6Z" transform="translate(-167.074 -139.428)" fill="#f7c480"/>
      <path id="Trazado_608345" data-name="Trazado 608345" d="M697.806,562.358h-163.6V678.846h163.6Z" transform="translate(-167.073 -166.374)" fill="#d2aee6"/>
      <path id="Trazado_608346" data-name="Trazado 608346" d="M534.209,562.358V678.846h163.6Z" transform="translate(-167.073 -166.374)" fill="#fed095"/>
      <path id="Trazado_608347" data-name="Trazado 608347" d="M594.177,503.547l-20.468,22.506V600.3H676.431V503.547Z" transform="translate(-177.421 -148.22)" fill="#fff"/>
      <path id="Trazado_608348" data-name="Trazado 608348" d="M729.82,562.358l-81.514,57.958,81.514,58.53Z" transform="translate(-199.813 -166.374)" fill="#f7c480"/>
      <path id="Trazado_608349" data-name="Trazado 608349" d="M637.9,520.456H608.707a2.027,2.027,0,1,0,0,4.055H637.9a2.027,2.027,0,1,0,0-4.055Z" transform="translate(-185.698 -151.968)" fill="#304c8e"/>
      <path id="Trazado_608350" data-name="Trazado 608350" d="M666.105,544.675h-57.4a2.027,2.027,0,0,1,0-4.055h57.4a2.027,2.027,0,0,1,0,4.055Z" transform="translate(-186.424 -157.855)" fill="#304c8e"/>
      <path id="Trazado_608351" data-name="Trazado 608351" d="M666.105,564.839h-57.4a2.027,2.027,0,1,1,0-4.055h57.4a2.027,2.027,0,1,1,0,4.055Z" transform="translate(-186.424 -163.743)" fill="#304c8e"/>
      <path id="Trazado_608352" data-name="Trazado 608352" d="M666.105,594.6h-57.4a2.027,2.027,0,1,1,0-4.055h57.4a2.027,2.027,0,1,1,0,4.055Z" transform="translate(-186.424 -172.434)" fill="#304c8e"/>
      <path id="Trazado_608353" data-name="Trazado 608353" d="M728.4,687.375l-1.839,11.012c2.3,6.053,1.287,13.72,1.287,13.72l-45.05.042c4.867-9.119,26-9.81,28.222-14.177s3.2-17.311,3.2-17.311l14.18,6.715Z" transform="translate(-209.347 -199.564)" fill="#ff8762"/>
      <path id="Trazado_608354" data-name="Trazado 608354" d="M718.287,702.618c.07-1.576-1.094-7.253-5.182-8.943a31.4,31.4,0,0,1-2.079,7.945c-2.221,4.367-23.357,5.055-28.222,14.177l45.05-.042s1.014-7.666-1.287-13.72c0,0-8.133,3.428-8.277.581Z" transform="translate(-209.338 -203.216)" fill="#2b1710"/>
      <path id="Trazado_608355" data-name="Trazado 608355" d="M684.014,721.974a9.527,9.527,0,0,0-1.21,1.741l45.05-.042s.091-.678.155-1.785Z" transform="translate(-209.336 -211.131)" fill="#693e2f"/>
      <path id="Trazado_608356" data-name="Trazado 608356" d="M724.91,706.443a.26.26,0,0,1-.232-.171,4.7,4.7,0,0,0-1.991-2.43,2.139,2.139,0,0,0-1.746.033.259.259,0,1,1-.2-.477,2.65,2.65,0,0,1,2.159-.031,5.139,5.139,0,0,1,2.267,2.729.257.257,0,0,1-.157.33.27.27,0,0,1-.1.016Z" transform="translate(-219.761 -205.875)" fill="#693e2f"/>
      <path id="Trazado_608357" data-name="Trazado 608357" d="M718.994,710.6a.258.258,0,0,1-.232-.17,4.709,4.709,0,0,0-1.991-2.43,2.139,2.139,0,0,0-1.746.034.26.26,0,0,1-.2-.478,2.65,2.65,0,0,1,2.159-.031,5.14,5.14,0,0,1,2.268,2.73.258.258,0,0,1-.158.33.343.343,0,0,1-.1.015Z" transform="translate(-217.957 -207.042)" fill="#693e2f"/>
      <path id="Trazado_608358" data-name="Trazado 608358" d="M709.282,713.37a.259.259,0,0,1-.232-.171,4.706,4.706,0,0,0-1.991-2.43,2.139,2.139,0,0,0-1.746.033.259.259,0,0,1-.2-.477,2.65,2.65,0,0,1,2.159-.031,5.138,5.138,0,0,1,2.268,2.729.257.257,0,0,1-.158.33.266.266,0,0,1-.1.016Z" transform="translate(-214.995 -207.818)" fill="#693e2f"/>
      <path id="Trazado_608359" data-name="Trazado 608359" d="M809.743,687.375,807.9,698.386c2.3,6.053,1.287,13.72,1.287,13.72l-45.05.042c4.868-9.119,26-9.81,28.222-14.177s3.2-17.311,3.2-17.311l14.18,6.715Z" transform="translate(-236.751 -199.564)" fill="#ff8762"/>
      <path id="Trazado_608360" data-name="Trazado 608360" d="M799.628,702.618c.07-1.576-1.094-7.253-5.182-8.943a31.4,31.4,0,0,1-2.079,7.945c-2.221,4.367-23.357,5.055-28.222,14.177l45.05-.042s1.014-7.666-1.287-13.72c0,0-8.133,3.428-8.277.581Z" transform="translate(-236.752 -203.216)" fill="#2b1710"/>
      <path id="Trazado_608361" data-name="Trazado 608361" d="M765.351,721.974a9.53,9.53,0,0,0-1.21,1.741l45.05-.042s.091-.678.155-1.785Z" transform="translate(-236.751 -211.131)" fill="#693e2f"/>
      <path id="Trazado_608362" data-name="Trazado 608362" d="M806.251,706.443a.258.258,0,0,1-.232-.171,4.705,4.705,0,0,0-1.991-2.43,2.139,2.139,0,0,0-1.746.033.259.259,0,0,1-.2-.477,2.65,2.65,0,0,1,2.159-.031A5.14,5.14,0,0,1,806.5,706.1a.257.257,0,0,1-.158.33.264.264,0,0,1-.1.016Z" transform="translate(-247.35 -205.875)" fill="#693e2f"/>
      <path id="Trazado_608363" data-name="Trazado 608363" d="M800.331,710.6a.258.258,0,0,1-.232-.17,4.708,4.708,0,0,0-1.991-2.43,2.139,2.139,0,0,0-1.746.034.26.26,0,1,1-.2-.478,2.65,2.65,0,0,1,2.159-.031,5.144,5.144,0,0,1,2.268,2.73.258.258,0,0,1-.158.33.347.347,0,0,1-.1.015Z" transform="translate(-245.689 -207.042)" fill="#693e2f"/>
      <path id="Trazado_608364" data-name="Trazado 608364" d="M790.619,713.37a.261.261,0,0,1-.232-.171,4.7,4.7,0,0,0-1.991-2.43,2.139,2.139,0,0,0-1.746.033.259.259,0,1,1-.2-.477,2.65,2.65,0,0,1,2.159-.031,5.139,5.139,0,0,1,2.267,2.729.257.257,0,0,1-.157.33.272.272,0,0,1-.1.016Z" transform="translate(-242.964 -207.818)" fill="#693e2f"/>
      <path id="Trazado_608365" data-name="Trazado 608365" d="M715.263,467.608c-12.015,47.454-6.745,150.922-4.024,165.449h28.568c-2.722-33.7,11.94-110.465,11.94-110.465a687.22,687.22,0,0,0,16.627,109.885h31.967L783.791,469,750.01,457.576l-34.745,10.032Z" transform="translate(-220.92 -136.977)" fill="#272047"/>
      <path id="Trazado_608366" data-name="Trazado 608366" d="M799.313,365.243c23.352,23.806,38.542,68.015-1.814,74.817S799.313,365.243,799.313,365.243Z" transform="translate(-241.206 -107.279)" fill="#d2aee6"/>
      <path id="Trazado_608367" data-name="Trazado 608367" d="M745.565,355.679a37.4,37.4,0,0,0-11.979,4.648c-11.036,17.231-16.249,80.938-16.249,80.938l69.15,1.132c.227-4.762.908-74.59-4.761-80.033s-14.4-7.369-14.4-7.369-14.169.114-21.765.681Z" transform="translate(-223.62 -104.394)" fill="#7e19b8"/>
      <path id="Trazado_608368" data-name="Trazado 608368" d="M641.008,345.885c.467-1.455,3.545-10.619,3.6-11.8s-2.963-11.445-3.461-12.27-5.063-6.248-5.267-6.31c-1.86.707-1.811,2.517-1.009,4.558s2.141,4.538,2.1,4.9-.041,2.605-.474,2.549-5,2.672-6.284,3.7a6.907,6.907,0,0,0-1.945,5.92c.274,2.553,4.71,13.5,4.71,13.5l8.023-4.749Z" transform="translate(-191.875 -92.344)" fill="#ff8762"/>
      <path id="Trazado_608369" data-name="Trazado 608369" d="M752.508,324.963h-4.875a.972.972,0,0,1-.97-.971v-3.931a.972.972,0,0,1,.97-.97h4.875a.972.972,0,0,1,.97.97v3.931A.972.972,0,0,1,752.508,324.963Zm-4.875-5.291a.391.391,0,0,0-.39.389v3.931a.391.391,0,0,0,.39.39h4.875a.391.391,0,0,0,.389-.39v-3.931a.39.39,0,0,0-.389-.389Z" transform="translate(-231.847 -93.184)" fill="#2b1710"/>
      <path id="Trazado_608370" data-name="Trazado 608370" d="M751.779,314.461c-4.692-3.43-1.96-7.774-1.12-7.914.281-3.921,5.252-11.205,18.42-3.361.56-2.519,2.52-2.519,1.682.56,2.242-.56,2.662,1.261,1.961,1.681,6.3,5.324,4.761,10.225,3.5,11.487.841,4.761-4.785,7.5-4.785,7.5-2.218-.217-8.241,4.545-9.92,3.425s-6.32-3.536-6.8-5.83a54.78,54.78,0,0,0-2.932-7.547Z" transform="translate(-232.532 -87.669)" fill="#2b1710"/>
      <path id="Trazado_608371" data-name="Trazado 608371" d="M772.182,327.815s.389,12.774,4.805,15.072c-2.835,3.514-15.758.341-21.765.681,2.914,0,3.617-3.116,3.617-6.033-7.068-1.238-6.361-6.8-6.805-14.933-.209-3.843-.477-7.787,0-10.777.7,3.376,5.884,5.127,5.884,5.127-.63,2.871.49,6.444,3.43,6.163s3.643.63,3.643.63C764.569,327.036,768.865,328.452,772.182,327.815Z" transform="translate(-233.279 -91.249)" fill="#ff8762"/>
      <path id="Trazado_608372" data-name="Trazado 608372" d="M756.687,331.8a2.719,2.719,0,1,0-3.2-2.289A2.785,2.785,0,0,0,756.687,331.8Z" transform="translate(-233.754 -95.314)" fill="#ff7557"/>
      <path id="Trazado_608373" data-name="Trazado 608373" d="M762.195,326.348a2.225,2.225,0,1,0,1.79-2.587A2.223,2.223,0,0,0,762.195,326.348Z" transform="translate(-236.195 -94.527)" fill="#ff7a52"/>
      <g id="Grupo_1014904" data-name="Grupo 1014904" transform="translate(526.604 229.842)">
        <path id="Trazado_608374" data-name="Trazado 608374" d="M763.074,326.483a1.59,1.59,0,0,0,.887,1.153.112.112,0,0,0,.057.008.092.092,0,0,0,.067-.052.094.094,0,0,0-.044-.124,1.4,1.4,0,0,1-.761-.929.947.947,0,1,0,.6-1.486c-.021,0-.039.013-.06.018a1.376,1.376,0,0,1,.565-.242,1.393,1.393,0,0,1,1.176.327.093.093,0,1,0,.124-.139,1.569,1.569,0,0,0-1.333-.371,1.585,1.585,0,0,0-1.274,1.842Zm.224-.363a.762.762,0,1,1,.885.614A.764.764,0,0,1,763.3,326.119Z" transform="translate(-763.048 -324.62)" fill="#e0b3a8"/>
      </g>
      <path id="Trazado_608375" data-name="Trazado 608375" d="M762,343.159a25.637,25.637,0,0,0,3.075-9.915C766.139,341.777,761.87,351.692,762,343.159Z" transform="translate(-236.148 -97.369)" fill="#ff7557"/>
      <path id="Trazado_608376" data-name="Trazado 608376" d="M747.055,323.076l-.025.58,10.5.453.025-.58Z" transform="translate(-231.95 -94.314)" fill="#2b1710"/>
      <path id="Trazado_608377" data-name="Trazado 608377" d="M713.381,357.728c-7.978-.351-21.979,8.37-31.652,13.021s-31.9.573-36.729-20.8c-1.042.24-11.819,10.083-11.819,10.083-2.432,9.887,5.845,32.876,27.909,42.912s43.719-6.056,48.236-12.146c7.911-10.669,8.884-27.384,4.058-33.069Z" transform="translate(-195.086 -102.609)" fill="#d2aee6"/>
      <g id="Grupo_1014905" data-name="Grupo 1014905" transform="translate(473.125 269.921)">
        <path id="Trazado_608378" data-name="Trazado 608378" d="M681.985,386.242a.215.215,0,0,1-.222-.181,10.982,10.982,0,0,1,.353-3.168c.08-.4.176-.872.2-1.135-.384.265-1.259,1.163-1.241,1.632a.216.216,0,0,1-.209.224.218.218,0,0,1-.224-.209c-.021-.581.688-1.367,1.114-1.741.516-.454.7-.423.771-.413a.3.3,0,0,1,.17.109c.119.17.075.459-.158,1.617a11.185,11.185,0,0,0-.351,3.01.215.215,0,0,1-.178.25.1.1,0,0,0-.029,0Z" transform="translate(-680.645 -381.249)" fill="#d9d9d9"/>
      </g>
      <g id="Grupo_1014906" data-name="Grupo 1014906" transform="translate(531.443 337.944)">
        <path id="Trazado_608379" data-name="Trazado 608379" d="M770.063,524.2a.3.3,0,0,1-.112-.023.291.291,0,0,1-.155-.38,57.814,57.814,0,0,0,1.726-7.594c1.39-7.225,3.119-16.219,5.667-17.494,3.539-1.769,5.69-14.32,3.485-20.349a.289.289,0,1,1,.544-.2c2.33,6.363.039,19.162-3.771,21.066-2.293,1.148-4.065,10.359-5.357,17.084a57.528,57.528,0,0,1-1.759,7.707.292.292,0,0,1-.268.178Z" transform="translate(-769.775 -477.967)" fill="#bfbfbf"/>
      </g>
      <g id="Grupo_1014907" data-name="Grupo 1014907" transform="translate(497.577 335.573)">
        <path id="Trazado_608380" data-name="Trazado 608380" d="M718.4,630.116a.288.288,0,0,1-.288-.271c-.07-1.024-6.828-103.078,4.238-151.232a.29.29,0,0,1,.565.132c-11.048,48.071-4.3,150.037-4.225,151.061a.293.293,0,0,1-.268.309Z" transform="translate(-716.006 -478.39)" fill="#bfbfbf"/>
      </g>
      <g id="Grupo_1014908" data-name="Grupo 1014908" transform="translate(495.318 489.745)">
        <path id="Trazado_608381" data-name="Trazado 608381" d="M713.758,693.564a.288.288,0,0,1-.289-.286.293.293,0,0,1,.286-.294l24.486-.3a.286.286,0,0,1,.294.286.293.293,0,0,1-.286.294l-24.487.3h-.005Z" transform="translate(-713.47 -692.682)" fill="#bfbfbf"/>
      </g>
      <g id="Grupo_1014909" data-name="Grupo 1014909" transform="translate(547.766 488.233)">
        <path id="Trazado_608382" data-name="Trazado 608382" d="M792.751,691.765a.29.29,0,0,1-.006-.58l27.812-.6a.29.29,0,1,1,.012.58l-27.812.6h-.007Z" transform="translate(-792.462 -690.581)" fill="#bfbfbf"/>
      </g>
      <path id="Trazado_608383" data-name="Trazado 608383" d="M446.895,573.318l-23.457-69.589a1.383,1.383,0,0,0-1.311-.941H322.379a1.382,1.382,0,1,0,0,2.765h98.755l23.109,68.554a3.85,3.85,0,1,0,6.2,3.049,3.78,3.78,0,0,0-3.55-3.836Z" transform="translate(-99.73 -147.722)" fill="#304c8e"/>
      <path id="Trazado_608384" data-name="Trazado 608384" d="M404.707,481.412H329.559a5.135,5.135,0,1,0,0,10.271h75.147a5.135,5.135,0,1,0,0-10.271Z" transform="translate(-100.05 -140.631)" fill="#fed095"/>
      <path id="Trazado_608385" data-name="Trazado 608385" d="M372.537,461.248H329.555a5.135,5.135,0,0,0,0,10.271h42.982a5.135,5.135,0,1,0,0-10.271Z" transform="translate(-99.573 -134.741)" fill="#fed095"/>
      <path id="Trazado_608386" data-name="Trazado 608386" d="M372.541,431.482H329.559a5.136,5.136,0,0,0,0,10.272h42.982a5.136,5.136,0,0,0,0-10.272Z" transform="translate(-99.574 -126.045)" fill="#7e19b8"/>
    </g>
    <path id="Trazado_609434" data-name="Trazado 609434" d="M17,0H167a17,17,0,0,1,17,17V54a17,17,0,0,1-17,17H17A17,17,0,0,1,0,54V17A17,17,0,0,1,17,0Z" transform="translate(291 14176.291)" fill="#7e10b8"/>
    <path id="Trazado_609435" data-name="Trazado 609435" d="M17,0H167a17,17,0,0,1,17,17V54a17,17,0,0,1-17,17H17A17,17,0,0,1,0,54V17A17,17,0,0,1,17,0Z" transform="translate(1151 14381.291)" fill="#7e10b8"/>
    <path id="Trazado_609436" data-name="Trazado 609436" d="M36.095,13.673H30.086V20H27.492V5.07h9.485V7.162H30.086V11.6h6.009Zm8.234-2.492a6.166,6.166,0,0,0-1.015-.082,2.286,2.286,0,0,0-2.307,1.313V20H38.515V8.905h2.379l.062,1.241a2.807,2.807,0,0,1,2.5-1.446,2.333,2.333,0,0,1,.882.144Zm6.265,9.023a5.155,5.155,0,0,1-3.84-1.492,5.412,5.412,0,0,1-1.471-3.973v-.308a6.657,6.657,0,0,1,.641-2.969,4.878,4.878,0,0,1,1.8-2.035A4.758,4.758,0,0,1,50.307,8.7a4.355,4.355,0,0,1,3.5,1.446,6.114,6.114,0,0,1,1.236,4.091v1h-7.25a3.332,3.332,0,0,0,.918,2.174,2.755,2.755,0,0,0,2.025.8,3.374,3.374,0,0,0,2.789-1.384l1.343,1.282a4.486,4.486,0,0,1-1.779,1.543A5.57,5.57,0,0,1,50.594,20.205ZM50.3,10.7a2.1,2.1,0,0,0-1.656.718,3.72,3.72,0,0,0-.8,2h4.748v-.185a3.029,3.029,0,0,0-.667-1.892A2.082,2.082,0,0,0,50.3,10.7Zm11.238,7.516a2.253,2.253,0,0,0,1.548-.543,1.857,1.857,0,0,0,.656-1.343h2.348a3.66,3.66,0,0,1-.646,1.933,4.237,4.237,0,0,1-1.641,1.42,4.889,4.889,0,0,1-2.235.523A4.73,4.73,0,0,1,57.874,18.7a5.979,5.979,0,0,1-1.364-4.163v-.256a5.879,5.879,0,0,1,1.354-4.055A4.687,4.687,0,0,1,61.555,8.7,4.558,4.558,0,0,1,64.78,9.854a4.132,4.132,0,0,1,1.307,3.03H63.739a2.282,2.282,0,0,0-.651-1.569,2.1,2.1,0,0,0-1.553-.615,2.193,2.193,0,0,0-1.866.877A4.474,4.474,0,0,0,59,14.237v.4a4.548,4.548,0,0,0,.651,2.692A2.191,2.191,0,0,0,61.535,18.216Zm13.156.7a3.864,3.864,0,0,1-3.117,1.292,3.444,3.444,0,0,1-2.733-1.056,4.493,4.493,0,0,1-.928-3.056V8.905H70.4v7.157q0,2.112,1.753,2.112a2.462,2.462,0,0,0,2.451-1.3V8.905H77.1V20H74.752Zm9.833,1.292a5.155,5.155,0,0,1-3.84-1.492,5.412,5.412,0,0,1-1.471-3.973v-.308a6.657,6.657,0,0,1,.641-2.969,4.878,4.878,0,0,1,1.8-2.035A4.758,4.758,0,0,1,84.237,8.7a4.355,4.355,0,0,1,3.5,1.446,6.114,6.114,0,0,1,1.236,4.091v1h-7.25a3.332,3.332,0,0,0,.918,2.174,2.755,2.755,0,0,0,2.025.8,3.374,3.374,0,0,0,2.789-1.384L88.8,18.113a4.486,4.486,0,0,1-1.779,1.543A5.57,5.57,0,0,1,84.524,20.205Zm-.3-9.505a2.1,2.1,0,0,0-1.656.718,3.72,3.72,0,0,0-.8,2h4.748v-.185a3.029,3.029,0,0,0-.667-1.892A2.082,2.082,0,0,0,84.227,10.7Zm8.993-1.794.072,1.282A3.989,3.989,0,0,1,96.521,8.7q3.466,0,3.527,3.968V20H97.557V12.812a2.285,2.285,0,0,0-.456-1.564,1.919,1.919,0,0,0-1.492-.508A2.4,2.4,0,0,0,93.363,12.1V20H90.871V8.905Zm13.925,9.311a2.253,2.253,0,0,0,1.548-.543,1.857,1.857,0,0,0,.656-1.343H111.7a3.66,3.66,0,0,1-.646,1.933,4.237,4.237,0,0,1-1.641,1.42,4.889,4.889,0,0,1-2.235.523,4.73,4.73,0,0,1-3.691-1.507,5.979,5.979,0,0,1-1.364-4.163v-.256a5.879,5.879,0,0,1,1.354-4.055A4.687,4.687,0,0,1,107.165,8.7a4.558,4.558,0,0,1,3.225,1.154,4.132,4.132,0,0,1,1.307,3.03h-2.348a2.282,2.282,0,0,0-.651-1.569,2.1,2.1,0,0,0-1.553-.615,2.193,2.193,0,0,0-1.866.877,4.474,4.474,0,0,0-.667,2.661v.4a4.548,4.548,0,0,0,.651,2.692A2.191,2.191,0,0,0,107.144,18.216ZM116.229,20h-2.492V8.905h2.492ZM113.583,6.024a1.322,1.322,0,0,1,.364-.954,1.375,1.375,0,0,1,1.041-.379,1.392,1.392,0,0,1,1.046.379,1.312,1.312,0,0,1,.369.954,1.282,1.282,0,0,1-.369.938,1.4,1.4,0,0,1-1.046.374,1.386,1.386,0,0,1-1.041-.374A1.292,1.292,0,0,1,113.583,6.024ZM125.57,20a3.845,3.845,0,0,1-.287-1.036,4.191,4.191,0,0,1-5.64.287,3.051,3.051,0,0,1-1.056-2.358,3.15,3.15,0,0,1,1.318-2.722,6.385,6.385,0,0,1,3.768-.948H125.2v-.728a1.943,1.943,0,0,0-.482-1.379,1.91,1.91,0,0,0-1.466-.518,2.195,2.195,0,0,0-1.395.426,1.317,1.317,0,0,0-.543,1.082h-2.492a2.765,2.765,0,0,1,.6-1.707,4.03,4.03,0,0,1,1.646-1.246A5.781,5.781,0,0,1,123.4,8.7a4.655,4.655,0,0,1,3.107.979,3.492,3.492,0,0,1,1.189,2.753v5a5.671,5.671,0,0,0,.42,2.389V20Zm-2.738-1.794a2.834,2.834,0,0,0,1.389-.359,2.4,2.4,0,0,0,.979-.964V14.791h-1.343a3.673,3.673,0,0,0-2.082.482,1.561,1.561,0,0,0-.7,1.364,1.456,1.456,0,0,0,.477,1.143A1.846,1.846,0,0,0,122.833,18.206ZM44.729,44a3.845,3.845,0,0,1-.287-1.036,4.191,4.191,0,0,1-5.64.287,3.051,3.051,0,0,1-1.056-2.358,3.15,3.15,0,0,1,1.318-2.722,6.385,6.385,0,0,1,3.768-.948h1.528v-.728a1.943,1.943,0,0,0-.482-1.379,1.91,1.91,0,0,0-1.466-.518,2.195,2.195,0,0,0-1.395.426,1.317,1.317,0,0,0-.543,1.082H37.981a2.765,2.765,0,0,1,.6-1.707,4.03,4.03,0,0,1,1.646-1.246,5.781,5.781,0,0,1,2.323-.451,4.655,4.655,0,0,1,3.107.979,3.492,3.492,0,0,1,1.189,2.753v5a5.671,5.671,0,0,0,.42,2.389V44Zm-2.738-1.794a2.834,2.834,0,0,0,1.389-.359,2.4,2.4,0,0,0,.979-.964V38.791H43.016a3.673,3.673,0,0,0-2.082.482,1.561,1.561,0,0,0-.7,1.364,1.456,1.456,0,0,0,.477,1.143A1.846,1.846,0,0,0,41.991,42.206ZM59.2,38.565a6.665,6.665,0,0,1-1.154,4.112,3.758,3.758,0,0,1-3.174,1.528,3.619,3.619,0,0,1-3.035-1.4L51.711,44H49.456V28.25h2.492v5.722a3.607,3.607,0,0,1,2.9-1.271,3.8,3.8,0,0,1,3.189,1.507A6.775,6.775,0,0,1,59.2,38.422Zm-2.492-.215a4.71,4.71,0,0,0-.636-2.707,2.117,2.117,0,0,0-1.846-.9,2.313,2.313,0,0,0-2.276,1.415v4.573a2.337,2.337,0,0,0,2.3,1.446,2.1,2.1,0,0,0,1.8-.872,4.564,4.564,0,0,0,.656-2.635Zm10.8,2.635a1.13,1.13,0,0,0-.549-1.015,5.834,5.834,0,0,0-1.82-.615,9.356,9.356,0,0,1-2.123-.677,2.833,2.833,0,0,1-1.866-2.615,2.953,2.953,0,0,1,1.21-2.4,4.783,4.783,0,0,1,3.076-.964,4.977,4.977,0,0,1,3.215.984,3.124,3.124,0,0,1,1.225,2.553H67.379a1.536,1.536,0,0,0-.533-1.195,2.043,2.043,0,0,0-1.415-.477,2.208,2.208,0,0,0-1.338.379,1.2,1.2,0,0,0-.518,1.015,1.01,1.01,0,0,0,.482.892,6.627,6.627,0,0,0,1.948.641,9.222,9.222,0,0,1,2.3.769,3.26,3.26,0,0,1,1.241,1.072,2.733,2.733,0,0,1,.405,1.518,2.891,2.891,0,0,1-1.241,2.425,5.29,5.29,0,0,1-3.25.928,5.737,5.737,0,0,1-2.43-.492,4,4,0,0,1-1.661-1.354,3.2,3.2,0,0,1-.595-1.856H63.2a1.756,1.756,0,0,0,.667,1.359,2.59,2.59,0,0,0,1.63.477,2.52,2.52,0,0,0,1.5-.374A1.158,1.158,0,0,0,67.5,40.985Zm4.153-2.635a6.542,6.542,0,0,1,.646-2.938,4.718,4.718,0,0,1,1.815-2.01,5.114,5.114,0,0,1,2.687-.7,4.846,4.846,0,0,1,3.645,1.446,5.687,5.687,0,0,1,1.512,3.835l.01.584A6.6,6.6,0,0,1,81.34,41.5a4.661,4.661,0,0,1-1.8,2,5.151,5.151,0,0,1-2.712.708,4.813,4.813,0,0,1-3.758-1.564,5.989,5.989,0,0,1-1.41-4.168Zm2.492.215a4.471,4.471,0,0,0,.708,2.681,2.3,2.3,0,0,0,1.969.969,2.275,2.275,0,0,0,1.964-.984,4.938,4.938,0,0,0,.7-2.881,4.413,4.413,0,0,0-.723-2.666,2.437,2.437,0,0,0-3.9-.015A4.844,4.844,0,0,0,74.147,38.565ZM86.729,44H84.237V28.25h2.492Zm9.434-1.087a3.864,3.864,0,0,1-3.117,1.292,3.444,3.444,0,0,1-2.733-1.056,4.493,4.493,0,0,1-.928-3.056V32.905h2.492v7.157q0,2.112,1.753,2.112a2.462,2.462,0,0,0,2.451-1.3V32.905h2.492V44H96.224Zm8.07-12.7v2.7h1.958v1.846h-1.958v6.193a1.364,1.364,0,0,0,.251.918,1.165,1.165,0,0,0,.9.282,3.838,3.838,0,0,0,.872-.1v1.928a6.137,6.137,0,0,1-1.641.236q-2.871,0-2.871-3.168V34.751H99.915V32.905h1.825v-2.7ZM114.722,44a3.845,3.845,0,0,1-.287-1.036,4.191,4.191,0,0,1-5.64.287,3.051,3.051,0,0,1-1.056-2.358,3.15,3.15,0,0,1,1.318-2.722,6.385,6.385,0,0,1,3.768-.948h1.528v-.728a1.943,1.943,0,0,0-.482-1.379A1.91,1.91,0,0,0,112.4,34.6a2.195,2.195,0,0,0-1.395.426,1.317,1.317,0,0,0-.543,1.082h-2.492a2.765,2.765,0,0,1,.6-1.707,4.03,4.03,0,0,1,1.646-1.246,5.781,5.781,0,0,1,2.323-.451,4.655,4.655,0,0,1,3.107.979,3.492,3.492,0,0,1,1.189,2.753v5a5.671,5.671,0,0,0,.42,2.389V44Zm-2.738-1.794a2.834,2.834,0,0,0,1.389-.359,2.4,2.4,0,0,0,.979-.964V38.791h-1.343a3.673,3.673,0,0,0-2.082.482,1.561,1.561,0,0,0-.7,1.364,1.456,1.456,0,0,0,.477,1.143A1.846,1.846,0,0,0,111.984,42.206Z" transform="translate(306 14187.291)" fill="#fff"/>
    <path id="Trazado_609437" data-name="Trazado 609437" d="M36.095,13.673H30.086V20H27.492V5.07h9.485V7.162H30.086V11.6h6.009Zm8.234-2.492a6.166,6.166,0,0,0-1.015-.082,2.286,2.286,0,0,0-2.307,1.313V20H38.515V8.905h2.379l.062,1.241a2.807,2.807,0,0,1,2.5-1.446,2.333,2.333,0,0,1,.882.144Zm6.265,9.023a5.155,5.155,0,0,1-3.84-1.492,5.412,5.412,0,0,1-1.471-3.973v-.308a6.657,6.657,0,0,1,.641-2.969,4.878,4.878,0,0,1,1.8-2.035A4.758,4.758,0,0,1,50.307,8.7a4.355,4.355,0,0,1,3.5,1.446,6.114,6.114,0,0,1,1.236,4.091v1h-7.25a3.332,3.332,0,0,0,.918,2.174,2.755,2.755,0,0,0,2.025.8,3.374,3.374,0,0,0,2.789-1.384l1.343,1.282a4.486,4.486,0,0,1-1.779,1.543A5.57,5.57,0,0,1,50.594,20.205ZM50.3,10.7a2.1,2.1,0,0,0-1.656.718,3.72,3.72,0,0,0-.8,2h4.748v-.185a3.029,3.029,0,0,0-.667-1.892A2.082,2.082,0,0,0,50.3,10.7Zm11.238,7.516a2.253,2.253,0,0,0,1.548-.543,1.857,1.857,0,0,0,.656-1.343h2.348a3.66,3.66,0,0,1-.646,1.933,4.237,4.237,0,0,1-1.641,1.42,4.889,4.889,0,0,1-2.235.523A4.73,4.73,0,0,1,57.874,18.7a5.979,5.979,0,0,1-1.364-4.163v-.256a5.879,5.879,0,0,1,1.354-4.055A4.687,4.687,0,0,1,61.555,8.7,4.558,4.558,0,0,1,64.78,9.854a4.132,4.132,0,0,1,1.307,3.03H63.739a2.282,2.282,0,0,0-.651-1.569,2.1,2.1,0,0,0-1.553-.615,2.193,2.193,0,0,0-1.866.877A4.474,4.474,0,0,0,59,14.237v.4a4.548,4.548,0,0,0,.651,2.692A2.191,2.191,0,0,0,61.535,18.216Zm13.156.7a3.864,3.864,0,0,1-3.117,1.292,3.444,3.444,0,0,1-2.733-1.056,4.493,4.493,0,0,1-.928-3.056V8.905H70.4v7.157q0,2.112,1.753,2.112a2.462,2.462,0,0,0,2.451-1.3V8.905H77.1V20H74.752Zm9.833,1.292a5.155,5.155,0,0,1-3.84-1.492,5.412,5.412,0,0,1-1.471-3.973v-.308a6.657,6.657,0,0,1,.641-2.969,4.878,4.878,0,0,1,1.8-2.035A4.758,4.758,0,0,1,84.237,8.7a4.355,4.355,0,0,1,3.5,1.446,6.114,6.114,0,0,1,1.236,4.091v1h-7.25a3.332,3.332,0,0,0,.918,2.174,2.755,2.755,0,0,0,2.025.8,3.374,3.374,0,0,0,2.789-1.384L88.8,18.113a4.486,4.486,0,0,1-1.779,1.543A5.57,5.57,0,0,1,84.524,20.205Zm-.3-9.505a2.1,2.1,0,0,0-1.656.718,3.72,3.72,0,0,0-.8,2h4.748v-.185a3.029,3.029,0,0,0-.667-1.892A2.082,2.082,0,0,0,84.227,10.7Zm8.993-1.794.072,1.282A3.989,3.989,0,0,1,96.521,8.7q3.466,0,3.527,3.968V20H97.557V12.812a2.285,2.285,0,0,0-.456-1.564,1.919,1.919,0,0,0-1.492-.508A2.4,2.4,0,0,0,93.363,12.1V20H90.871V8.905Zm13.925,9.311a2.253,2.253,0,0,0,1.548-.543,1.857,1.857,0,0,0,.656-1.343H111.7a3.66,3.66,0,0,1-.646,1.933,4.237,4.237,0,0,1-1.641,1.42,4.889,4.889,0,0,1-2.235.523,4.73,4.73,0,0,1-3.691-1.507,5.979,5.979,0,0,1-1.364-4.163v-.256a5.879,5.879,0,0,1,1.354-4.055A4.687,4.687,0,0,1,107.165,8.7a4.558,4.558,0,0,1,3.225,1.154,4.132,4.132,0,0,1,1.307,3.03h-2.348a2.282,2.282,0,0,0-.651-1.569,2.1,2.1,0,0,0-1.553-.615,2.193,2.193,0,0,0-1.866.877,4.474,4.474,0,0,0-.667,2.661v.4a4.548,4.548,0,0,0,.651,2.692A2.191,2.191,0,0,0,107.144,18.216ZM116.229,20h-2.492V8.905h2.492ZM113.583,6.024a1.322,1.322,0,0,1,.364-.954,1.375,1.375,0,0,1,1.041-.379,1.392,1.392,0,0,1,1.046.379,1.312,1.312,0,0,1,.369.954,1.282,1.282,0,0,1-.369.938,1.4,1.4,0,0,1-1.046.374,1.386,1.386,0,0,1-1.041-.374A1.292,1.292,0,0,1,113.583,6.024ZM125.57,20a3.845,3.845,0,0,1-.287-1.036,4.191,4.191,0,0,1-5.64.287,3.051,3.051,0,0,1-1.056-2.358,3.15,3.15,0,0,1,1.318-2.722,6.385,6.385,0,0,1,3.768-.948H125.2v-.728a1.943,1.943,0,0,0-.482-1.379,1.91,1.91,0,0,0-1.466-.518,2.195,2.195,0,0,0-1.395.426,1.317,1.317,0,0,0-.543,1.082h-2.492a2.765,2.765,0,0,1,.6-1.707,4.03,4.03,0,0,1,1.646-1.246A5.781,5.781,0,0,1,123.4,8.7a4.655,4.655,0,0,1,3.107.979,3.492,3.492,0,0,1,1.189,2.753v5a5.671,5.671,0,0,0,.42,2.389V20Zm-2.738-1.794a2.834,2.834,0,0,0,1.389-.359,2.4,2.4,0,0,0,.979-.964V14.791h-1.343a3.673,3.673,0,0,0-2.082.482,1.561,1.561,0,0,0-.7,1.364,1.456,1.456,0,0,0,.477,1.143A1.846,1.846,0,0,0,122.833,18.206ZM50.025,35.182A6.166,6.166,0,0,0,49.01,35.1,2.286,2.286,0,0,0,46.7,36.412V44H44.211V32.905H46.59l.062,1.241a2.807,2.807,0,0,1,2.5-1.446,2.333,2.333,0,0,1,.882.144Zm6.265,9.023a5.155,5.155,0,0,1-3.84-1.492,5.412,5.412,0,0,1-1.471-3.973v-.308a6.657,6.657,0,0,1,.641-2.969,4.878,4.878,0,0,1,1.8-2.035A4.758,4.758,0,0,1,56,32.7a4.355,4.355,0,0,1,3.5,1.446,6.114,6.114,0,0,1,1.236,4.091v1H53.49a3.332,3.332,0,0,0,.918,2.174,2.755,2.755,0,0,0,2.025.8,3.374,3.374,0,0,0,2.789-1.384l1.343,1.282a4.486,4.486,0,0,1-1.779,1.543A5.57,5.57,0,0,1,56.29,44.205Zm-.3-9.505a2.1,2.1,0,0,0-1.656.718,3.72,3.72,0,0,0-.8,2h4.748v-.185a3.029,3.029,0,0,0-.667-1.892A2.082,2.082,0,0,0,55.992,34.7ZM65.323,44H62.832V28.25h2.492Zm9.341,0a3.845,3.845,0,0,1-.287-1.036,4.191,4.191,0,0,1-5.64.287,3.051,3.051,0,0,1-1.056-2.358A3.15,3.15,0,0,1,69,38.171a6.385,6.385,0,0,1,3.768-.948H74.3v-.728a1.943,1.943,0,0,0-.482-1.379,1.91,1.91,0,0,0-1.466-.518,2.195,2.195,0,0,0-1.395.426,1.317,1.317,0,0,0-.543,1.082H67.918a2.765,2.765,0,0,1,.6-1.707,4.03,4.03,0,0,1,1.646-1.246,5.781,5.781,0,0,1,2.323-.451,4.655,4.655,0,0,1,3.107.979,3.492,3.492,0,0,1,1.189,2.753v5a5.671,5.671,0,0,0,.42,2.389V44Zm-2.738-1.794a2.834,2.834,0,0,0,1.389-.359,2.4,2.4,0,0,0,.979-.964V38.791H72.952a3.673,3.673,0,0,0-2.082.482,1.561,1.561,0,0,0-.7,1.364,1.456,1.456,0,0,0,.477,1.143A1.846,1.846,0,0,0,71.927,42.206Zm10.592-12v2.7h1.958v1.846H82.519v6.193a1.364,1.364,0,0,0,.251.918,1.165,1.165,0,0,0,.9.282,3.838,3.838,0,0,0,.872-.1v1.928a6.137,6.137,0,0,1-1.641.236q-2.871,0-2.871-3.168V34.751H78.2V32.905h1.825v-2.7ZM89.031,44H86.539V32.905h2.492ZM86.385,30.024a1.322,1.322,0,0,1,.364-.954,1.375,1.375,0,0,1,1.041-.379,1.392,1.392,0,0,1,1.046.379,1.312,1.312,0,0,1,.369.954,1.282,1.282,0,0,1-.369.938,1.4,1.4,0,0,1-1.046.374,1.386,1.386,0,0,1-1.041-.374A1.292,1.292,0,0,1,86.385,30.024Zm9.27,10.818L98,32.905h2.574L96.731,44H94.568L90.692,32.905h2.584ZM108.605,44a3.845,3.845,0,0,1-.287-1.036,4.191,4.191,0,0,1-5.64.287,3.051,3.051,0,0,1-1.056-2.358,3.15,3.15,0,0,1,1.318-2.722,6.385,6.385,0,0,1,3.768-.948h1.528v-.728a1.943,1.943,0,0,0-.482-1.379,1.91,1.91,0,0,0-1.466-.518,2.195,2.195,0,0,0-1.395.426,1.317,1.317,0,0,0-.543,1.082h-2.492a2.765,2.765,0,0,1,.6-1.707,4.03,4.03,0,0,1,1.646-1.246,5.781,5.781,0,0,1,2.323-.451,4.655,4.655,0,0,1,3.107.979,3.492,3.492,0,0,1,1.189,2.753v5a5.671,5.671,0,0,0,.42,2.389V44Zm-2.738-1.794a2.834,2.834,0,0,0,1.389-.359,2.4,2.4,0,0,0,.979-.964V38.791h-1.343a3.673,3.673,0,0,0-2.082.482,1.561,1.561,0,0,0-.7,1.364,1.456,1.456,0,0,0,.477,1.143A1.846,1.846,0,0,0,105.867,42.206Z" transform="translate(1166 14392.291)" fill="#fff"/>
  </g>
</svg>
