<svg id="Group_48" data-name="Group 48" xmlns="http://www.w3.org/2000/svg" width="210.773" height="135.148" viewBox="0 0 210.773 135.148">
  <path id="Trazado_606963" data-name="Trazado 606963" d="M10.61,94.912l11.66,14.976a21.13,21.13,0,0,0,16.67,8.148H183.645a21.127,21.127,0,0,0,14.588-5.847l2.492-2.377a40.524,40.524,0,0,0,6.487-50.623,21.133,21.133,0,0,1-3.05-13.233,34.19,34.19,0,0,0-26.7-36.829L145.159,2.047A88.41,88.41,0,0,0,73.747,17.282c-3.742,2.761-6.408,4.609-6.818,4.6-.831-.023-13.285,1.95-25.231,3.88A26.941,26.941,0,0,0,19.057,51.9,21.116,21.116,0,0,1,12.606,66.73,21.133,21.133,0,0,0,10.61,94.912Z" transform="translate(-4.133 0)" fill="#b6c0d7" opacity="0.35"/>
  <path id="Trazado_606964" data-name="Trazado 606964" d="M556.93,83.762a6.134,6.134,0,0,0-4.011-3.568,7.774,7.774,0,0,0-15.337-1.458,6.21,6.21,0,0,0-.7-.043,6.116,6.116,0,0,0-5.535,3.509,7.769,7.769,0,0,0-11.164,1.559Z" transform="translate(-349.42 -48.859)" fill="#fff"/>
  <path id="Trazado_606965" data-name="Trazado 606965" d="M58.176,151.969a4.121,4.121,0,0,0-2.692-2.4,5.22,5.22,0,0,0-10.3-.975,4.455,4.455,0,0,0-.473-.03A4.109,4.109,0,0,0,41,150.925a5.217,5.217,0,0,0-7.5,1.044Z" transform="translate(-22.503 -97.109)" fill="#fff"/>
  <path id="Trazado_606966" data-name="Trazado 606966" d="M203.73,44.643a2.983,2.983,0,0,1,1.953-1.737,3.786,3.786,0,0,1,7.468-.709,2.934,2.934,0,0,1,.341-.02,2.977,2.977,0,0,1,2.7,1.71,3.786,3.786,0,0,1,5.436.758H203.73Z" transform="translate(-136.851 -26.383)" fill="#fff"/>
  <path id="Trazado_606967" data-name="Trazado 606967" d="M117.459,49.739v-3.23a1.2,1.2,0,0,0-1.2-1.2h-3.076a15.406,15.406,0,0,0-2.767-6.395l2.262-2.262a1.2,1.2,0,0,0,0-1.7l-2.285-2.285a1.2,1.2,0,0,0-1.7,0l-2.383,2.383a15.422,15.422,0,0,0-6.273-2.321V29.088a1.2,1.2,0,0,0-1.2-1.2h-3.23a1.2,1.2,0,0,0-1.2,1.2v3.89A15.491,15.491,0,0,0,88.683,35.6l-2.935-2.931a1.2,1.2,0,0,0-1.7,0l-2.285,2.285a1.2,1.2,0,0,0,0,1.7L84.819,39.7A15.551,15.551,0,0,0,82.6,45.3H78.181a1.2,1.2,0,0,0-1.2,1.2v3.23a1.2,1.2,0,0,0,1.2,1.2H82.6a15.535,15.535,0,0,0,2.216,5.6l-3.053,3.053a1.2,1.2,0,0,0,0,1.7l2.285,2.285a1.2,1.2,0,0,0,1.7,0l2.935-2.931A15.341,15.341,0,0,0,94.4,63.264v3.89a1.2,1.2,0,0,0,1.2,1.2h3.23a1.2,1.2,0,0,0,1.2-1.2V63.51a15.431,15.431,0,0,0,6.273-2.327l2.383,2.383a1.2,1.2,0,0,0,1.7,0l2.285-2.285a1.2,1.2,0,0,0,0-1.7l-2.262-2.262a15.436,15.436,0,0,0,2.767-6.391h3.076a1.2,1.2,0,0,0,1.2-1.2ZM104.9,52.6a8.318,8.318,0,0,1-3.178,2.9,8.282,8.282,0,0,1-6.493.5,7.936,7.936,0,0,1-1.819-.873A8.319,8.319,0,0,1,90.5,51.952a8,8,0,0,1-.65-1.681,8.329,8.329,0,0,1,0-4.3,8.1,8.1,0,0,1,.653-1.684,8.311,8.311,0,0,1,2.9-3.174,8.29,8.29,0,0,1,6.119-1.149,8.033,8.033,0,0,1,2.193.775,8.321,8.321,0,0,1,4.2,9.533A8.226,8.226,0,0,1,104.9,52.6Z" transform="translate(-51.71 -18.732)" fill="#7e19b8"/>
  <path id="Trazado_606968" data-name="Trazado 606968" d="M125.331,45.308h-3.076a15.406,15.406,0,0,0-2.767-6.395l2.262-2.262a1.2,1.2,0,0,0,0-1.7l-2.285-2.285a1.2,1.2,0,0,0-1.7,0l-2.383,2.383a15.422,15.422,0,0,0-6.273-2.321V29.088a1.2,1.2,0,0,0-1.2-1.2h-3.23a1.2,1.2,0,0,0-1.2,1.2v3.89A15.491,15.491,0,0,0,97.756,35.6l-2.935-2.931a1.2,1.2,0,0,0-1.7,0l-2.285,2.285a1.2,1.2,0,0,0,0,1.7L93.892,39.7a15.55,15.55,0,0,0-2.216,5.6h-.41a23.6,23.6,0,0,0,8.771,7.412,8.543,8.543,0,0,1-.456-.765,8,8,0,0,1-.65-1.681,8.329,8.329,0,0,1,0-4.3,8.1,8.1,0,0,1,.653-1.684,8.311,8.311,0,0,1,2.9-3.174,8.29,8.29,0,0,1,6.119-1.149,8.033,8.033,0,0,1,2.193.775,8.321,8.321,0,0,1,4.2,9.533,8.272,8.272,0,0,1-3.453,4.786,23.294,23.294,0,0,0,10.488-3.1c.085-.335.164-.673.227-1.018h1.385a23.5,23.5,0,0,0,2.892-2.36V46.506a1.2,1.2,0,0,0-1.2-1.2Z" transform="translate(-60.783 -18.732)" fill="#7e19b8"/>
  <path id="Trazado_606969" data-name="Trazado 606969" d="M303.946,326.046H277.54v17.238h26.406Z" transform="translate(-186.432 -219.014)" fill="#304c8e"/>
  <path id="Trazado_606970" data-name="Trazado 606970" d="M303.946,326.046H277.54V333.7h26.406Z" transform="translate(-186.432 -219.014)" fill="#284384"/>
  <path id="Trazado_606971" data-name="Trazado 606971" d="M131.536,89.536H245.3a6.327,6.327,0,0,1,6.326,6.326V161.27H125.21V95.862A6.327,6.327,0,0,1,131.536,89.536Z" transform="translate(-84.107 -60.144)" fill="#304c8e"/>
  <path id="Trazado_606972" data-name="Trazado 606972" d="M256.233,112.256H138.63v60.917h117.6Z" transform="translate(-93.122 -75.406)" fill="#7db6f4"/>
  <path id="Trazado_606973" data-name="Trazado 606973" d="M125.21,297.826H251.627v6.385a6.327,6.327,0,0,1-6.326,6.326H131.536a6.327,6.327,0,0,1-6.326-6.326Z" transform="translate(-84.107 -200.058)" fill="#304c8e"/>
  <path id="Trazado_606974" data-name="Trazado 606974" d="M312.863,316.252a2.393,2.393,0,1,0-2.393-2.393A2.393,2.393,0,0,0,312.863,316.252Z" transform="translate(-208.552 -209.221)" fill="#304c8e"/>
  <path id="Trazado_606975" data-name="Trazado 606975" d="M264.677,375.293H169.419a1.59,1.59,0,0,1-1.589-1.589,4.648,4.648,0,0,1,4.648-4.648h89.139a4.648,4.648,0,0,1,4.648,4.648A1.59,1.59,0,0,1,264.677,375.293Z" transform="translate(-112.736 -247.906)" fill="#304c8e"/>
  <path id="Trazado_606976" data-name="Trazado 606976" d="M427.112,140.146H402.479a.719.719,0,0,0-.719.719v5.082a.719.719,0,0,0,.719.719h24.633a.719.719,0,0,0,.719-.719v-5.082A.719.719,0,0,0,427.112,140.146Z" transform="translate(-269.874 -94.14)" fill="#afd9ff"/>
  <path id="Trazado_606977" data-name="Trazado 606977" d="M409.645,148.012l-1,.456.128-1.09-.745-.808,1.077-.217.538-.959.538.959,1.077.217-.742.808.125,1.09Z" transform="translate(-274.086 -97.667)" fill="#7e19b8"/>
  <path id="Trazado_606978" data-name="Trazado 606978" d="M423.905,148.012l-1,.456.128-1.09-.745-.808,1.077-.217.538-.959.538.959,1.077.217-.742.808.125,1.09Z" transform="translate(-283.664 -97.667)" fill="#7e19b8"/>
  <path id="Trazado_606979" data-name="Trazado 606979" d="M438.165,148.012l-1,.456.128-1.09-.745-.808,1.077-.217.538-.959.538.959,1.077.217-.742.808.125,1.09Z" transform="translate(-293.243 -97.667)" fill="#7e19b8"/>
  <path id="Trazado_606980" data-name="Trazado 606980" d="M452.425,148.012l-1,.456.128-1.09-.745-.808,1.077-.217.538-.959.538.959,1.077.217-.742.808.125,1.09Z" transform="translate(-302.822 -97.667)" fill="#7e19b8"/>
  <path id="Trazado_606981" data-name="Trazado 606981" d="M466.685,148.012l-1,.456.128-1.09-.745-.808,1.077-.217.538-.959.542.959,1.073.217-.742.808.125,1.09Z" transform="translate(-312.401 -97.667)" fill="#f7f7f7"/>
  <path id="Trazado_606982" data-name="Trazado 606982" d="M155.778,128.6H182.04a1.437,1.437,0,0,1,1.438,1.438v6.185a1.437,1.437,0,0,1-1.438,1.438H155.778a1.437,1.437,0,0,1-1.438-1.438v-6.185A1.437,1.437,0,0,1,155.778,128.6Z" transform="translate(-103.675 -86.382)" fill="#afd9ff"/>
  <path id="Trazado_606983" data-name="Trazado 606983" d="M166.255,138.17a2.541,2.541,0,1,0-3.322,1.369A2.541,2.541,0,0,0,166.255,138.17Z" transform="translate(-108.396 -90.449)" fill="#7e19b8"/>
  <path id="Trazado_606984" data-name="Trazado 606984" d="M163.91,141.274a2.529,2.529,0,0,0,3.414,0,1.708,1.708,0,0,0-1.067-1.454,1.057,1.057,0,1,0-1.274,0,1.708,1.708,0,0,0-1.067,1.454Z" transform="translate(-110.103 -92.649)" fill="#f7f7f7"/>
  <path id="Trazado_606985" data-name="Trazado 606985" d="M196,138.366H182.46v.486H196Z" transform="translate(-122.564 -92.944)" fill="#dcf1ff"/>
  <path id="Trazado_606986" data-name="Trazado 606986" d="M200.059,141.666h-17.6v.486h17.6Z" transform="translate(-122.564 -95.161)" fill="#dcf1ff"/>
  <path id="Trazado_606987" data-name="Trazado 606987" d="M200.059,144.966h-17.6v.486h17.6Z" transform="translate(-122.564 -97.378)" fill="#dcf1ff"/>
  <path id="Trazado_606988" data-name="Trazado 606988" d="M170.228,167.116H155.049a.719.719,0,0,0-.719.719v2.718a.719.719,0,0,0,.719.719h15.179a.719.719,0,0,0,.719-.719v-2.718A.719.719,0,0,0,170.228,167.116Z" transform="translate(-103.668 -112.257)" fill="#afd9ff"/>
  <path id="Trazado_606989" data-name="Trazado 606989" d="M170.228,185.006H155.049a.719.719,0,0,0-.719.719v2.718a.719.719,0,0,0,.719.719h15.179a.719.719,0,0,0,.719-.719v-2.718A.719.719,0,0,0,170.228,185.006Z" transform="translate(-103.668 -124.274)" fill="#afd9ff"/>
  <path id="Trazado_606990" data-name="Trazado 606990" d="M170.228,202.9H155.049a.719.719,0,0,0-.719.719v2.718a.719.719,0,0,0,.719.719h15.179a.719.719,0,0,0,.719-.719v-2.718A.719.719,0,0,0,170.228,202.9Z" transform="translate(-103.668 -136.291)" fill="#dcf1ff"/>
  <path id="Trazado_606991" data-name="Trazado 606991" d="M228.558,185.006H213.379a.719.719,0,0,0-.719.719v2.718a.719.719,0,0,0,.719.719h15.179a.719.719,0,0,0,.719-.719v-2.718A.719.719,0,0,0,228.558,185.006Z" transform="translate(-142.85 -124.274)" fill="#7e19b8"/>
  <path id="Trazado_606992" data-name="Trazado 606992" d="M228.558,202.9H213.379a.719.719,0,0,0-.719.719v2.718a.719.719,0,0,0,.719.719h15.179a.719.719,0,0,0,.719-.719v-2.718A.719.719,0,0,0,228.558,202.9Z" transform="translate(-142.85 -136.291)" fill="#afd9ff"/>
  <path id="Trazado_606993" data-name="Trazado 606993" d="M446.458,191.336H431.279a.719.719,0,0,0-.719.719v2.718a.719.719,0,0,0,.719.719h15.179a.719.719,0,0,0,.719-.719v-2.718A.719.719,0,0,0,446.458,191.336Z" transform="translate(-289.22 -128.526)" fill="#7e19b8"/>
  <path id="Trazado_606994" data-name="Trazado 606994" d="M446.458,209.226H431.279a.719.719,0,0,0-.719.719v2.718a.719.719,0,0,0,.719.719h15.179a.719.719,0,0,0,.719-.719v-2.718A.719.719,0,0,0,446.458,209.226Z" transform="translate(-289.22 -140.543)" fill="#afd9ff"/>
  <path id="Trazado_606995" data-name="Trazado 606995" d="M446.458,227.116H431.279a.719.719,0,0,0-.719.719v2.718a.719.719,0,0,0,.719.719h15.179a.719.719,0,0,0,.719-.719v-2.718A.719.719,0,0,0,446.458,227.116Z" transform="translate(-289.22 -152.56)" fill="#dcf1ff"/>
  <path id="Trazado_606996" data-name="Trazado 606996" d="M247.993,117.864c-.748,18.951-9.563,20.868,0,34.541s42.5,8.827,43.059-1.523-6.395-16.584-1.838-29.535S247.993,117.864,247.993,117.864Z" transform="translate(-163.614 -76.93)" fill="#263c71"/>
  <path id="Trazado_606997" data-name="Trazado 606997" d="M258.427,126.05c-1.11,8.614-4.067,17.106-2.547,21.778,0,0,.167-5.252,1.149-6.519,0,0-.982,7.373,2.025,13.354s35.473,4.842,35.473,4.842a57.92,57.92,0,0,0,0-11.3c-.663-4.747-1.93-6.592-2.295-9.133,0,0,2,4.133,2.78,5.715a11.767,11.767,0,0,1,.883,3.9,17.057,17.057,0,0,0-1.435-7.445c-1.645-3.227-.66-12.126-.171-15.586s-22.9-7.563-25.444-6.178S258.427,126.05,258.427,126.05Z" transform="translate(-171.596 -80.073)" fill="#0c0835"/>
  <path id="Trazado_606998" data-name="Trazado 606998" d="M231.545,209.943c-11.283,3.821-19.378,5.262-21.718,12.635s-5.617,15.76-5.617,15.76h76.307s-3.778-17.379-7.915-20.258-20.327-7.7-25.274-8.525-15.787.387-15.787.387Z" transform="translate(-137.174 -140.571)" fill="#fff"/>
  <path id="Trazado_606999" data-name="Trazado 606999" d="M380.752,262.216a58.046,58.046,0,0,1-.722,11.693h2.587Z" transform="translate(-255.277 -176.138)" fill="#dcedff"/>
  <path id="Trazado_607000" data-name="Trazado 607000" d="M257,270.516a44.58,44.58,0,0,0,.555,8.965H255.57Z" transform="translate(-171.674 -181.713)" fill="#dcedff"/>
  <path id="Trazado_607001" data-name="Trazado 607001" d="M213.425,231.8c.988-2.606,4.179-5.666,4.182-5.669-3.874,1.779-6.582,4-7.78,7.777-2.337,7.376-5.617,15.76-5.617,15.76h6.155a49.838,49.838,0,0,1,3.056-17.868Z" transform="translate(-137.174 -151.895)" fill="#dcedff"/>
  <path id="Trazado_607002" data-name="Trazado 607002" d="M298.263,218.914s-5.485-.361-8.814-2.879S286.57,211,286.57,211a19.654,19.654,0,0,1-3.329,0c-.9-.181.391-9.549,5.636-9.723s16.233,2.006,17.582,2.078,5.8,4.061,4.675,9.116c-.181.811-2.354-1.471-3.342-.3s-1.8,6.116-9.533,6.746Z" transform="translate(-190.084 -135.197)" fill="#304c8e"/>
  <path id="Trazado_607003" data-name="Trazado 607003" d="M304.17,218.761a27.667,27.667,0,0,1-9.556-13.1c-.469-1.372.325-2.14,1.779-2.373Z" transform="translate(-197.81 -136.553)" fill="#203a77"/>
  <path id="Trazado_607004" data-name="Trazado 607004" d="M330.383,224.1c3.857-2.469,7.412-8.542,8.489-10.564s1.123-3.929-2.183-4.281S330.38,224.1,330.38,224.1Z" transform="translate(-221.926 -140.558)" fill="#203a77"/>
  <path id="Trazado_607005" data-name="Trazado 607005" d="M315.273,168.982c-.995,8.023-1.563,12.313,1.119,15.642,0,0-4.783,9.714-8.2,11.693,0,0-8.184-5.846-10.432-15.2a11.411,11.411,0,0,0,1.53-5.128,77.558,77.558,0,0,0-.269-8.364Z" transform="translate(-200.014 -112.599)" fill="#ffc5c7"/>
  <path id="Trazado_607006" data-name="Trazado 607006" d="M320.084,233.534c-4.99,6.043-10.134.942-12.044-1.648a31.305,31.305,0,0,0,7.058,7.6c1.572-.909,3.434-3.46,4.986-5.945Z" transform="translate(-206.919 -155.765)" fill="#fe8a8b"/>
  <path id="Trazado_607007" data-name="Trazado 607007" d="M299.451,176.232a11.6,11.6,0,0,1-1.451,5,122.3,122.3,0,0,0,16.624-3.956c.079-2.2.41-4.822.808-8.049l-9.914-.827-6.329-.41a75.072,75.072,0,0,1,.259,8.246Z" transform="translate(-200.175 -112.841)" fill="#fe8a8b"/>
  <path id="Trazado_607008" data-name="Trazado 607008" d="M376.748,74.9c.318-5.059.4-9.664-3.549-15.567s-3.115,9.671-3.05,9.848,3.5,6.746,3.5,6.746l3.1-1.027Z" transform="translate(-248.562 -38.96)" fill="#972bd5"/>
  <path id="Trazado_607009" data-name="Trazado 607009" d="M383.251,123.654c-.5,2.908-.161,5.311,1.234,5.554s2.931-1.924,3.434-4.832-.223-5.462-1.618-5.705S383.753,120.746,383.251,123.654Z" transform="translate(-257.294 -79.703)" fill="#7e19b8"/>
  <path id="Trazado_607010" data-name="Trazado 607010" d="M387.785,139.19l-.88.358-.86,2.387s-.144.3-.325.676a1.261,1.261,0,0,0,.571.269c1.238.213,2.583-1.464,3.224-3.874a1.8,1.8,0,0,1-1.73.187Z" transform="translate(-259.099 -93.374)" fill="#7e19b8"/>
  <path id="Trazado_607011" data-name="Trazado 607011" d="M370.481,106.545c1.083-.2,4.153.614,4.5,2.2.791,3.6-.525,11.969-2.938,14.034-.88.752-3.332.6-4.2.332-2.209-.676-2.216-4.208-1.408-8.89S368.981,106.824,370.481,106.545Z" transform="translate(-245.814 -71.549)" fill="#7e19b8"/>
  <path id="Trazado_607012" data-name="Trazado 607012" d="M374.611,139.566c-1.123.811-1.707,0-1.707,0-.762,1.618-2.16,1.618-3.929,1.858l-.991-.525s-.968.712-1.874,1.356c.164,1.612.716,2.708,1.845,3.056.87.266,3.322.42,4.2-.332,1.057-.906,1.907-3.02,2.459-5.413Z" transform="translate(-245.926 -93.75)" fill="#7e19b8"/>
  <path id="Trazado_607013" data-name="Trazado 607013" d="M380.375,108.744c-.348-1.586-3.417-2.4-4.5-2.2a1.786,1.786,0,0,0-.272.076,2.974,2.974,0,0,1,3.25,2.833c.227,1.592,0,8.788-2.334,11.962a3.391,3.391,0,0,1-2.547,1.838c1.1.144,2.771.115,3.467-.479,2.416-2.065,3.732-10.429,2.938-14.034Z" transform="translate(-251.206 -71.549)" fill="#972bd5"/>
  <path id="Trazado_607014" data-name="Trazado 607014" d="M379.892,139.559c-1.123.811-1.707,0-1.707,0a11.493,11.493,0,0,1-1.668,4.051,3.391,3.391,0,0,1-2.547,1.838c1.1.144,2.771.115,3.467-.479,1.057-.906,1.907-3.02,2.459-5.413Z" transform="translate(-251.206 -93.744)" fill="#7e19b8"/>
  <path id="Trazado_607015" data-name="Trazado 607015" d="M374.75,122.129c-.437,2.541-1.343,4.5-2.025,4.389s-.876-2.272-.44-4.812,1.343-4.5,2.025-4.389S375.187,119.588,374.75,122.129Z" transform="translate(-249.918 -78.801)" fill="#7e19b8"/>
  <path id="Trazado_607016" data-name="Trazado 607016" d="M272.477,97.1c.03.076.062.148.1.223a25.57,25.57,0,0,0,5.055,7.2c2.885,2.941,6.8,5.5,10.951,6.053,4.461.6,8.555-1.884,11.539-5.069A11.474,11.474,0,0,0,303,100.266c.469-2.091.217-4.336.558-6.473a19.329,19.329,0,0,1,1.034-3.329,24.454,24.454,0,0,0,1.379-10.751,13.084,13.084,0,0,0-1.231-4.963c-.936-1.5-3.1-2.679-4.563-3.595A19.16,19.16,0,0,0,271.8,80.018a12.167,12.167,0,0,0-1.195,7.517C271.262,90.832,271.163,93.924,272.477,97.1Z" transform="translate(-181.644 -45.696)" fill="#ffc5c7"/>
  <path id="Trazado_607017" data-name="Trazado 607017" d="M273.373,88.863s8.453,2.324,15.918,0,10-7,10.62-9.428c0,0,6.1,4.78,7.317,11.834,0,0,.42-12.524-3.473-14.083s-12.038-3.6-12.937-2.787-16.01,9.444-16.01,9.444l-1.438,5.023Z" transform="translate(-183.631 -49.853)" fill="#fe8a8b"/>
  <path id="Trazado_607018" data-name="Trazado 607018" d="M299.59,116.6a16.489,16.489,0,0,1,1.907-.785,10.364,10.364,0,0,1,2.042-.466,5.74,5.74,0,0,1,2.13-.007,3.751,3.751,0,0,1,1.911.949l-.033.092a9.96,9.96,0,0,1-1.044-.013l-.985-.053c-.643-.023-1.274-.181-1.93-.181a13.041,13.041,0,0,0-1.976.161c-.663.092-1.323.246-1.989.4l-.033-.092Z" transform="translate(-201.243 -77.41)" fill="#0c0835"/>
  <path id="Trazado_607019" data-name="Trazado 607019" d="M350.257,116.967a7.606,7.606,0,0,0-1.95-.545,10.4,10.4,0,0,0-1.993-.1c-.666.03-1.307.21-1.963.249a19.576,19.576,0,0,1-2.058.089l-.033-.092a4.7,4.7,0,0,1,1.924-.965,6.109,6.109,0,0,1,2.144-.066,8.839,8.839,0,0,1,2.091.41,7.028,7.028,0,0,1,1.884.939l-.049.085Z" transform="translate(-229.906 -77.569)" fill="#0c0835"/>
  <path id="Trazado_607020" data-name="Trazado 607020" d="M310.8,129.532c.355,0,.643-.588.643-1.313s-.288-1.313-.643-1.313-.643.588-.643,1.313S310.448,129.532,310.8,129.532Z" transform="translate(-208.343 -85.246)" fill="#0c0835"/>
  <path id="Trazado_607021" data-name="Trazado 607021" d="M352.027,129.722c.341,0,.617-.588.617-1.313s-.276-1.313-.617-1.313-.617.588-.617,1.313S351.686,129.722,352.027,129.722Z" transform="translate(-236.052 -85.374)" fill="#0c0835"/>
  <path id="Trazado_607022" data-name="Trazado 607022" d="M332.3,150.136a2.468,2.468,0,0,1-.952,1.218,1.661,1.661,0,0,1-1.507.158c-.781-.328-.995-1.241.066-1.034a3.692,3.692,0,0,0,1.231.069C331.355,150.517,332.205,150.379,332.3,150.136Z" transform="translate(-221.122 -100.851)" fill="#fe8a8b"/>
  <path id="Trazado_607023" data-name="Trazado 607023" d="M315.11,161.009a97.132,97.132,0,0,0,11.224.4c-.86,2.856-2.981,5.656-5.883,5.551-2.977-.105-4.711-2.974-5.341-5.952Z" transform="translate(-211.668 -108.152)" fill="#c31f2a"/>
  <path id="Trazado_607024" data-name="Trazado 607024" d="M327.705,172.752c-2.242-1.888-3.86-.272-3.86-.272a2.933,2.933,0,0,0-3.165-.1,4.866,4.866,0,0,0,2.59,1.717c.325.043.663.089,1,.131A4.8,4.8,0,0,0,327.705,172.752Z" transform="translate(-215.41 -115.427)" fill="#fb8384"/>
  <path id="Trazado_607025" data-name="Trazado 607025" d="M317.23,161.247a6.9,6.9,0,0,0,.282,1.412,15.534,15.534,0,0,0,9.113.469c.108-.5.19-1.014.249-1.533C324.459,161.631,319.827,161.5,317.23,161.247Z" transform="translate(-213.093 -108.314)" fill="#fff"/>
  <path id="Trazado_607026" data-name="Trazado 607026" d="M360.105,162.515a2.938,2.938,0,0,1-.637-.016c-2.042-.276-3.138-.43-3.138-.43l.125-.9s1.093.151,3.135.43c1.881.256,4.294-2.731,4.931-6.247a.455.455,0,0,1,.509-.378.45.45,0,0,1,.387.519c-.66,3.709-3.1,6.841-5.308,7.015Z" transform="translate(-239.357 -104.1)" fill="#972bd5"/>
  <path id="Trazado_607027" data-name="Trazado 607027" d="M365.308,155.456a.5.5,0,0,1-.007.1c-.66,3.709-3.1,6.841-5.308,7.015a2.937,2.937,0,0,1-.637-.016c-1.612-.22-2.633-.358-2.991-.41l-.036.249s1.093.151,3.138.43a2.936,2.936,0,0,0,.637.016c2.213-.177,4.645-3.309,5.308-7.015A.445.445,0,0,0,365.308,155.456Z" transform="translate(-239.357 -104.424)" fill="#7e19b8"/>
  <path id="Trazado_607028" data-name="Trazado 607028" d="M350.826,173.039l-1.792-.246a1.13,1.13,0,1,1,.309-2.239l1.792.246a1.13,1.13,0,1,1-.309,2.239Z" transform="translate(-233.8 -114.559)" fill="#263c71"/>
  <path id="Trazado_607029" data-name="Trazado 607029" d="M351.837,172.506a1.705,1.705,0,0,1-.007.223,1.13,1.13,0,0,1-1.274.965l-1.569-.213a1.128,1.128,0,0,1-.9-.725.6.6,0,0,0-.02.082,1.131,1.131,0,0,0,.965,1.274l1.792.246a1.125,1.125,0,0,0,1.011-1.848Z" transform="translate(-233.8 -115.877)" fill="#261b60"/>
  <path id="Trazado_607030" data-name="Trazado 607030" d="M339.979,52.469s8.995,3.778,9.083,16.1c0,0,7.2-7.915,2.968-19.785s-16.46-11.421-16.46-11.421l4.405,15.11Z" transform="translate(-225.412 -25.095)" fill="#263c71"/>
  <path id="Trazado_607031" data-name="Trazado 607031" d="M348.214,79.235s8.771,3.693,9.07,15.662V94.69c-.148-12.077-4.333-15.284-8.469-17.484l-.985.706Z" transform="translate(-233.647 -51.862)" fill="#261b60"/>
  <path id="Trazado_607032" data-name="Trazado 607032" d="M260.539,60.908s24.791,1.438,26.771-11.151-4.376-15.645-7.494-15.947-9.192-1.024-14.391,4.018-11,8.1-10.354,24.4l5.466-1.32Z" transform="translate(-171.305 -22.564)" fill="#263c71"/>
  <path id="Trazado_607033" data-name="Trazado 607033" d="M270.26,88.468c1.08-.6,2.16-1.218,3.2-1.9s2.081-1.375,3.089-2.114a64.915,64.915,0,0,0,5.824-4.757A65.729,65.729,0,0,1,277,85.014q-1.418,1.261-2.915,2.432c-.991.791-2.032,1.526-3.082,2.249l-.745-1.231Z" transform="translate(-181.541 -53.534)" fill="#0c0835"/>
  <path id="Trazado_607034" data-name="Trazado 607034" d="M284.5,49.746c-5.876,3.178-12.336,10.82-12.461,17.152a5.238,5.238,0,0,1-1.178-5.61c1.307-3.306,5.154-6.969,7.284-8.542a29.7,29.7,0,0,1,6.355-3Z" transform="translate(-181.691 -33.416)" fill="#0c0835"/>
  <path id="Trazado_607035" data-name="Trazado 607035" d="M262.021,58.194c-.788-2.039-.246-9,0-10.977a18.47,18.47,0,0,1,1.057-3.857c.079-.371-.092-.483-.092-.483,4.09-6.3,9.894-7.2,15.78-9.037l-.338-.167c-3.325-.263-8.492-.227-13,4.146-5.2,5.042-11,8.1-10.354,24.4l5.466-1.32a55.692,55.692,0,0,0,15.915-1.618C268.19,60.909,262.806,60.236,262.021,58.194Z" transform="translate(-171.311 -22.559)" fill="#0c0835"/>
  <path id="Trazado_607036" data-name="Trazado 607036" d="M291.293,82.716c-2.429,3.795-5.436,7.333-16.916,8.981-7.649,1.1-8.857-.469-8.857-.469s13.348-.89,18.741-3.624,7.032-4.885,7.032-4.885Z" transform="translate(-178.357 -55.563)" fill="#0c0835"/>
  <path id="Trazado_607037" data-name="Trazado 607037" d="M270.025,43c1.487-4.346,8.932-9.254,17.569-9.375a17.9,17.9,0,0,0-9.592.84c-5.157,1.917-8.867,5.049-10.908,8.581s2.935-.043,2.935-.043Z" transform="translate(-179.084 -22.385)" fill="#972bd5"/>
  <path id="Trazado_607038" data-name="Trazado 607038" d="M278.159,36.247a17.325,17.325,0,0,0-7.343,5.889c-.236.03-2.393.43-2.426.437-.246.355-.476.712-.689,1.077-.072.128-.135.243-.19.351a7.308,7.308,0,0,1,1.927.023,1.235,1.235,0,0,0,.657-.049c.325-.213.542-.371.542-.371,1.487-4.346,8.932-9.254,17.569-9.375a22.614,22.614,0,0,0-10.045,2.016Z" transform="translate(-179.694 -22.989)" fill="#7e19b8"/>
  <path id="Trazado_607039" data-name="Trazado 607039" d="M265.12,76.837c-.407-8.075.735-13.584,1.753-15.084s-3.165-.847-4,.328c-.545.762-2.383,7.186-1.71,14.808s3.959-.056,3.959-.056Z" transform="translate(-175.331 -40.895)" fill="#972bd5"/>
  <path id="Trazado_607040" data-name="Trazado 607040" d="M266.239,60.886c.358.135.463.315.21.706a26.336,26.336,0,0,0-1.572,6.821c-.269,3.014-.135,6.175-.194,6.536s-2.7,1.024-3.493.663c.023.423.053.854.092,1.287.049.561.115,1.041.19,1.444.8.089,1.914.131,2.928.144a16.151,16.151,0,0,0,.84-1.648c-.407-8.075.735-13.584,1.753-15.084.414-.607-.026-.86-.752-.87Z" transform="translate(-175.449 -40.899)" fill="#7e19b8"/>
  <path id="Trazado_607041" data-name="Trazado 607041" d="M260.5,108.115c-1.057-.312-4.192.184-4.7,1.723-1.159,3.506-.712,11.962,1.48,14.263.8.84,3.253.939,4.146.762,2.265-.446,2.636-3.956,2.318-8.7s-1.773-7.619-3.237-8.052Z" transform="translate(-171.411 -72.564)" fill="#7e19b8"/>
  <path id="Trazado_607042" data-name="Trazado 607042" d="M258.413,138.006c.8.84,3.253.939,4.146.762,1.3-.256,1.976-1.53,2.255-3.46-1.09.936-3.877.637-5.285,0a24.2,24.2,0,0,0-.515-6.582,51.848,51.848,0,0,0-2.144,5.676,7.942,7.942,0,0,0,1.543,3.608Z" transform="translate(-172.547 -86.469)" fill="#7e19b8"/>
  <path id="Trazado_607043" data-name="Trazado 607043" d="M258.872,118.253c.286,4.235-.712,7.75-2.232,7.852s-2.984-3.247-3.27-7.481.712-7.75,2.232-7.852S258.586,114.018,258.872,118.253Z" transform="translate(-170.163 -74.407)" fill="#972bd5"/>
  <path id="Trazado_607044" data-name="Trazado 607044" d="M258.822,139s-1.943.243-2.692,3.181c.627,1.809,1.5,2.951,2.4,2.892.775-.053,1.412-.991,1.812-2.455a6.534,6.534,0,0,1-1.307-.407,10.429,10.429,0,0,0-.213-3.207Z" transform="translate(-172.05 -93.368)" fill="#7e19b8"/>
  <path id="Trazado_607045" data-name="Trazado 607045" d="M254.487,123.43c.213,3.171-.358,5.7-1.773,5.8s-2.731-2.4-2.945-5.571.758-5.82,2.17-5.915,2.334,2.515,2.547,5.686Z" transform="translate(-167.758 -79.088)" fill="#7e19b8"/>
  <path id="Trazado_607046" data-name="Trazado 607046" d="M253.978,142.41a2.264,2.264,0,0,1-1.828-1.024c.561,1.339,1.356,2.176,2.183,2.121,1.215-.082,1.805-1.966,1.812-4.51C255.843,141,255.127,142.331,253.978,142.41Z" transform="translate(-169.376 -93.368)" fill="#7e19b8"/>
  <path id="Trazado_607047" data-name="Trazado 607047" d="M466.335,185.055a2.266,2.266,0,0,0,.936,2.219,11.11,11.11,0,0,0,3.6,1.05c1.261.03,3.119-2.639,2.459-2.938a40.239,40.239,0,0,0-5.787-.63A3.819,3.819,0,0,0,466.335,185.055Z" transform="translate(-313.213 -124.106)" fill="#ffc5c7"/>
  <path id="Trazado_607048" data-name="Trazado 607048" d="M476.65,175.822c.315,3.237,1.438,5.755,1.845,5.8a37.906,37.906,0,0,0,5.538-1.8c1.116-.5.256-8.092-.423-7.961s-2.262,1.592-3.532,2.295S476.65,175.822,476.65,175.822Z" transform="translate(-320.18 -115.444)" fill="#fff"/>
  <path id="Trazado_607049" data-name="Trazado 607049" d="M484.936,188.026c-.423.647-3.66,2.291-5.416,2.889.355.955.712,1.543.9,1.566a34.8,34.8,0,0,0,4.895-1.54A22.345,22.345,0,0,0,484.936,188.026Z" transform="translate(-322.107 -126.302)" fill="#dcedff"/>
  <path id="Trazado_607050" data-name="Trazado 607050" d="M466.451,157.036c-.125,1.284,1.018,1.467,2.429,1.139s3.9-3.447,5.006-4.855a40.707,40.707,0,0,1,3.575-4.146,4.08,4.08,0,0,0,2.16-1.612c.854-1.267.046-3.92-.292-4.235s-3.5.735-3.9,1.267.007,3.388-.128,3.746a22.919,22.919,0,0,1-4.176,4.018C469.931,153.077,466.543,156.107,466.451,157.036Z" transform="translate(-313.322 -96.238)" fill="#ffc5c7"/>
  <path id="Trazado_607051" data-name="Trazado 607051" d="M496.83,148.125c.378-.181.522-1,.286-.854a2.5,2.5,0,0,1-1.178.135,4.525,4.525,0,0,1-.758-.053,4.578,4.578,0,0,0-.1.643A4.871,4.871,0,0,0,496.83,148.125Z" transform="translate(-332.559 -98.915)" fill="#fe8a8b"/>
  <path id="Trazado_607052" data-name="Trazado 607052" d="M486.013,149c-.19-.41-.338-.719-.338-.719l-2.272,2.045a12.265,12.265,0,0,0-1.221-.962l-.21.332a6.322,6.322,0,0,1,.5,2.111s.3.361.479.391c0,0-2.534,3.6-4.123,5.367a38.315,38.315,0,0,1-3.4,3.769c1.438-.8,3.509-3.391,4.5-4.645a40.715,40.715,0,0,1,3.575-4.146,4.1,4.1,0,0,0,2.16-1.612A3.122,3.122,0,0,0,486.013,149Z" transform="translate(-319.353 -99.608)" fill="#fe8a8b"/>
  <path id="Trazado_607053" data-name="Trazado 607053" d="M494.18,140.922a23.323,23.323,0,0,0,2.193,2.249.314.314,0,0,0,.227,0,47.7,47.7,0,0,0,3.427-5.1,12.925,12.925,0,0,0-1.93-2.091.442.442,0,0,0-.394.046c-.555.742-3.532,4.629-3.519,4.9Z" transform="translate(-331.955 -91.321)" fill="#0c0835"/>
  <path id="Trazado_607054" data-name="Trazado 607054" d="M494.87,140.959a23.319,23.319,0,0,0,2.193,2.249c.207.21,3.595-4.931,3.654-5.1a16.021,16.021,0,0,0-2.117-2.065.145.145,0,0,0-.21.02C497.834,136.8,494.857,140.69,494.87,140.959Z" transform="translate(-332.418 -91.359)" fill="#263c71"/>
  <path id="Trazado_607055" data-name="Trazado 607055" d="M496.02,140.706a21.874,21.874,0,0,0,2.052,2.1c.194.2,3.362-4.612,3.417-4.773a14.934,14.934,0,0,0-1.979-1.93.135.135,0,0,0-.2.02c-.519.7-3.306,4.33-3.293,4.583Z" transform="translate(-333.191 -91.404)" fill="#304c8e"/>
  <path id="Trazado_607056" data-name="Trazado 607056" d="M498.614,139.344a2.6,2.6,0,0,0,.844-1.09c.052-.227.046-.427-.128-.473s-.765.66-1.05.87-.643.643-.532.936.719.181.788.135.079-.381.079-.381Z" transform="translate(-334.337 -92.55)" fill="#ffc5c7"/>
  <path id="Trazado_607057" data-name="Trazado 607057" d="M500.3,137.966c.085.256-.663,1.28-1.277,1.576l.2.253.233-.053a1.829,1.829,0,0,0,.033-.272,2.6,2.6,0,0,0,.844-1.09.5.5,0,0,0-.03-.414Z" transform="translate(-335.206 -92.676)" fill="#fe8a8b"/>
  <path id="Trazado_607058" data-name="Trazado 607058" d="M496.2,143.484a6.887,6.887,0,0,1,1.336-.391c.315-.125.4-.6.2-.673a5.633,5.633,0,0,0-1.822.269c-.338.148-.542.821-.542.821l.824-.023Z" transform="translate(-332.761 -95.656)" fill="#ffc5c7"/>
  <path id="Trazado_607059" data-name="Trazado 607059" d="M497.3,143.911a.72.72,0,0,1-.427,0c0,.125-.121.187-.266.364l.423-.013a6.888,6.888,0,0,1,1.336-.391.505.505,0,0,0,.282-.315c-.154.259-1.027.3-1.346.358Z" transform="translate(-333.587 -96.431)" fill="#fe8a8b"/>
  <path id="Trazado_607060" data-name="Trazado 607060" d="M493.82,146.224c.269.414,1.753.236,2.055.19s.5-.233.483-.42c-.033-.381-1.983-.312-2.147-.253s-.391.486-.391.486Z" transform="translate(-331.713 -97.867)" fill="#ffc5c7"/>
  <path id="Trazado_607061" data-name="Trazado 607061" d="M497.369,146.886a2.284,2.284,0,0,1-1.238.355,4.838,4.838,0,0,1-.781.013,6.205,6.205,0,0,0,1.553-.039A.535.535,0,0,0,497.369,146.886Z" transform="translate(-332.741 -98.668)" fill="#fe8a8b"/>
  <path id="Trazado_607062" data-name="Trazado 607062" d="M515.9,398.135c.089.788.4,1.08,1.553,1.238s2.833.135,3.709-.719a5.364,5.364,0,0,0,1.484-2.272,4.385,4.385,0,0,1,.181-1.123,1.615,1.615,0,0,0,.762-1.618c-.089-1.254-7.685,4.5-7.685,4.5Z" transform="translate(-346.545 -264.3)" fill="#ffdcdc"/>
  <path id="Trazado_607063" data-name="Trazado 607063" d="M522.916,382.668c-.128-1.74-4.254-1.07-4.277-.371a10.393,10.393,0,0,1-1.94,4.507,2.56,2.56,0,0,0-1.211,3.339c.427,1.152,3.621.873,4.386.45a5.152,5.152,0,0,0,1.842-2.245,5.285,5.285,0,0,1,.63-1.4c.381-.473.584-.381.765-.945a14.558,14.558,0,0,0-.2-3.339Z" transform="translate(-346.135 -256.308)" fill="#7e19b8"/>
  <path id="Trazado_607064" data-name="Trazado 607064" d="M525.637,383.991c-.4,1.8-1.254,2.964-1,3.174s1.8.46,2.088,0a9.957,9.957,0,0,0,.794-3.174c0-.775-1.878,0-1.878,0Z" transform="translate(-352.382 -257.707)" fill="#ffdcdc"/>
  <path id="Trazado_607065" data-name="Trazado 607065" d="M472.7,378.331a5.419,5.419,0,0,0-.548-3.233c-.663-1.3-.63-1.418-1.4-1.553s-3.552-.519-3.552-.519a4.624,4.624,0,0,1-2.114,2.2c-1.641.9-1.979,1.215-3.036,1.215s-3.391.125-2.472,2.922a7.178,7.178,0,0,0,2.6.309,18.108,18.108,0,0,0,4.422-.42,2.807,2.807,0,0,1,1.783-.223,7.536,7.536,0,0,0,2.472,0,7.071,7.071,0,0,0,1.838-.7Z" transform="translate(-308.572 -250.572)" fill="#7e19b8"/>
  <path id="Trazado_607066" data-name="Trazado 607066" d="M472.859,376.272a.183.183,0,0,0-.092.276c.22.345.683.719.926.634a17.363,17.363,0,0,0,2.429-1.8c.345-.3.673-.87.479-1.139s-.706-.584-.916-.42a12.226,12.226,0,0,1-1.467,1.661,4.28,4.28,0,0,1-1.359.785Z" transform="translate(-317.55 -251.078)" fill="#ffdcdc"/>
  <path id="Trazado_607067" data-name="Trazado 607067" d="M460.01,390.189a34.918,34.918,0,0,0,6.956-.4c.867-.223,1.339-.607,2.17-.292a9.593,9.593,0,0,0,3.8-.338c.4-.158.292.476,0,.542s-2.137.456-3.079.542-.988-.611-2.114-.1a10.316,10.316,0,0,1-3.778.519,23.174,23.174,0,0,1-3.552,0C459.987,390.481,460.01,390.189,460.01,390.189Z" transform="translate(-309.002 -261.39)" fill="#ffdcdc"/>
  <path id="Trazado_607068" data-name="Trazado 607068" d="M495.395,289.944c1.261.345,4.855.223,5.036-.269s-.5-8.276-.5-10.748-.853-8.588-.719-9.264a5.306,5.306,0,0,0-.089-2.337c-.223-1.169-.312-14.72-1.4-23.849L483.7,244.8s-2.249,8.634-2.429,14.749.03,9.054,0,9.953a14.023,14.023,0,0,0,.476,2.518c.1.719-.026,6.057-.148,7.974s-.207,5.456-.4,5.876,4.241,1.261,4.839.959.6-.361.6-3.476.42-10.613.42-11.933.42-1.559.24-2.219.479-3.657,1.139-5.876,1.438-4.615,1.438-4.615,1.858,11.992,2.459,12.711.479,2.577.84,3.657a74.524,74.524,0,0,1,1.438,10.613c0,2.219-.538,3.9.778,4.258Z" transform="translate(-323.23 -163.551)" fill="#0e35af"/>
  <path id="Trazado_607069" data-name="Trazado 607069" d="M509.552,290.118a8.945,8.945,0,0,0,1.543-.187c.151-.64.309-1.444.476-2.38-.138-2.616-.463-6.9-.463-8.624,0-2.472-.853-8.588-.719-9.264a5.307,5.307,0,0,0-.089-2.337c-.223-1.169-.315-14.72-1.4-23.849l-2.823.266-8.263,3.105a62.97,62.97,0,0,0,8.614-.512s.647,7.307.666,8.387.8,11.155.8,12.084.361,1.195.42,2.2a1.394,1.394,0,0,1-.719,1.366s1.08.361,1.08.538.223,3.073.223,4.2.489,2.652.627,6.027.588,7.376.588,7.826,0,.9-.568,1.159Z" transform="translate(-334.4 -163.551)" fill="#001e7f"/>
  <path id="Trazado_607070" data-name="Trazado 607070" d="M493.843,267.592l-3.013-.765,2.337,1.123-1.888.046,1.448.515a16.3,16.3,0,0,1-.489,6.273c-1.031,2.757-1.5,9.8-1.812,10.344s-1.123.4-1.123.4.854.089.9.719-.181,2.383-.181,4.241a56.569,56.569,0,0,1-.361,6.06c-.181,1.254-.263,4.323-.361,5.137s-1.32.624-1.32.624a16.163,16.163,0,0,0,1.763.243c1.851.174,1.467-.512,1.464-4.156.046-3.394.414-10.065.414-11.3,0-1.32.42-1.559.24-2.219s.479-3.657,1.139-5.876,1.438-4.615,1.438-4.615-.328-3.066-.371-3.785-.223-3.014-.223-3.014Z" transform="translate(-327.79 -179.235)" fill="#001e7f"/>
  <path id="Trazado_607071" data-name="Trazado 607071" d="M494.617,162.8c-3.237,1.589-3.746,1.526-5.137,2.249s-1.546,8.305-1.546,9.474a63,63,0,0,1-.286,7.074c-.269,1.261-1.3,5.935-1.664,6.654s-1.034,1.934-.181,2.652,2.738,1.215,6.923.945a20.546,20.546,0,0,0,9.087-3.194c.223-.361-1.484-6.969-1.484-8.23a16.546,16.546,0,0,0-.269-2.787c-.089-.584,1.435-3.329,1.773-5.082s2.6-6.592,2.3-7.478-3.542-1.874-5.722-3a3.2,3.2,0,0,0-3.795.719Z" transform="translate(-326.049 -108.63)" fill="#fff"/>
  <path id="Trazado_607072" data-name="Trazado 607072" d="M511.138,168.876a2.506,2.506,0,0,0,.043.568,1.348,1.348,0,0,0,.2.515,1.039,1.039,0,0,0,.9.479,3.1,3.1,0,0,0,1.09-.217,10.983,10.983,0,0,0,1.047-.469c-.154.115-.318.22-.479.328-.171.089-.338.19-.519.269a2.686,2.686,0,0,1-1.149.269l-.151-.007-.151-.033a1.184,1.184,0,0,1-.289-.108,1.051,1.051,0,0,1-.423-.44,1.656,1.656,0,0,1-.125-1.152Z" transform="translate(-343.31 -113.439)" fill="#dcedff"/>
  <path id="Trazado_607073" data-name="Trazado 607073" d="M522.174,206.33c.223-.361-1.484-6.969-1.484-8.23a16.546,16.546,0,0,0-.269-2.787c-.089-.584,1.435-3.329,1.773-5.082a10.134,10.134,0,0,1,.328-1.159l-1.333-1.047c-.995,2.3-1.8,6.349-2.656,7.34a6.106,6.106,0,0,1-2.833,1.4,9.213,9.213,0,0,0,2.744.269,30.968,30.968,0,0,1,.519,5.3c-.118,1.753-.473,4.405-.519,4.766-.016.135-.023.6-.02,1.136A14.653,14.653,0,0,0,522.174,206.33Z" transform="translate(-346.411 -126.302)" fill="#dcedff"/>
  <path id="Trazado_607074" data-name="Trazado 607074" d="M516.24,153.1c-.105,1.878-.076,3.165.315,3.526,0,0-.942,3.115-3.778,2.849-.959-.089-.748-1.71-.21-2.459l-.121-2.3,3.792-1.612Z" transform="translate(-343.999 -102.839)" fill="#ffc5c7"/>
  <path id="Trazado_607075" data-name="Trazado 607075" d="M517.053,156.29a10.108,10.108,0,0,1-.121-3.194l-3.792,1.615.076,1.477a17.651,17.651,0,0,0,3.837.105Z" transform="translate(-344.691 -102.839)" fill="#fe8a8b"/>
  <path id="Trazado_607076" data-name="Trazado 607076" d="M524.052,199.319c.571.87,1.261,3.027.87,4.018s-3.988,5.4-5.607,7.045a14.85,14.85,0,0,0-2.278,2.459,29.026,29.026,0,0,1-2.1,3.1,1.8,1.8,0,0,1-.968.381,1.7,1.7,0,0,1-1.346.4,5.4,5.4,0,0,1-1.4.653s-.227.381-.427.417-.427-.371,0-1.182,1.057-1.146,1.192-1.664a11.276,11.276,0,0,1,.68-1.572s-1.129,1.077-1.783,1.146-.712-.315-.332-.63a9.244,9.244,0,0,0,1.346-1.4,2.705,2.705,0,0,1,1.865-1.123,5.042,5.042,0,0,0,1.641-.361,15.822,15.822,0,0,0,2.268-3.335,17.651,17.651,0,0,1,3.673-5.607l-.719-1.438,3.417-1.32Z" transform="translate(-342.797 -133.886)" fill="#ffc5c7"/>
  <path id="Trazado_607077" data-name="Trazado 607077" d="M513.19,249.281a3.864,3.864,0,0,1,.863-1.192l.138-.125c.039-.039.112-.089.128-.112.069-.082.135-.19.2-.289.135-.2.263-.407.41-.607a5.572,5.572,0,0,1-.289.676,2.2,2.2,0,0,1-.19.325,1.262,1.262,0,0,1-.141.135l-.128.125c-.174.167-.341.341-.509.515s-.322.358-.479.548Z" transform="translate(-344.725 -165.888)" fill="#fe8a8b"/>
  <path id="Trazado_607078" data-name="Trazado 607078" d="M517.48,249.135c.141-.243.305-.453.45-.673s.292-.437.433-.676a1.49,1.49,0,0,1-.286.778A2.023,2.023,0,0,1,517.48,249.135Z" transform="translate(-347.606 -166.445)" fill="#fe8a8b"/>
  <path id="Trazado_607079" data-name="Trazado 607079" d="M519.47,248.418a1.609,1.609,0,0,0,.647-.345,1.833,1.833,0,0,0,.968-.381,9.345,9.345,0,0,0,.831-1.116c-.007.01-.414.417-.709.755a.959.959,0,0,1-.952.318l.105-.44S519.923,248.2,519.47,248.418Z" transform="translate(-348.943 -165.632)" fill="#fe8a8b"/>
  <path id="Trazado_607080" data-name="Trazado 607080" d="M537.534,208.21a3.569,3.569,0,0,1-.762,1.812,95.437,95.437,0,0,1-6.227,7.261,5.221,5.221,0,0,0-1.586,2.495c.269-.42.5-.791.6-.968a15,15,0,0,1,2.278-2.459c1.618-1.648,5.216-6.057,5.607-7.045a2.519,2.519,0,0,0,.1-1.1Z" transform="translate(-355.318 -139.859)" fill="#fe8a8b"/>
  <path id="Trazado_607081" data-name="Trazado 607081" d="M543.273,204.451l.292.558a2.062,2.062,0,0,0-.814.463l-.571-1.106,1.093.089Z" transform="translate(-364.198 -137.279)" fill="#fe8a8b"/>
  <path id="Trazado_607082" data-name="Trazado 607082" d="M532.928,179.574c-.735-1.691-.88-4.435,0-5.879s2.383-1.963,2.731-1.792,1.156,2.426,1.993,3.467,3.122,3.959,3.178,4.205-1.966,2.229-5.6,3.683C534.793,183.431,532.928,179.574,532.928,179.574Z" transform="translate(-357.576 -115.451)" fill="#fff"/>
  <path id="Trazado_607083" data-name="Trazado 607083" d="M535.536,191.742l.479,1.156a26.426,26.426,0,0,1-3.575-4.862,7.9,7.9,0,0,0,.571,2.4s1.865,3.857,2.3,3.683c.624-.249,1.195-.515,1.72-.781l-1.49-1.592Z" transform="translate(-357.655 -126.309)" fill="#dcedff"/>
  <path id="Trazado_607084" data-name="Trazado 607084" d="M510.261,126.281c.663-1.615,1.471-3.325.453-4.225a4.815,4.815,0,0,1,1.74-.24,4.642,4.642,0,0,0-1.8-.479s.236-2.728-.391-3.9a4.048,4.048,0,0,1-.328,1.677,4.114,4.114,0,0,0-2.61-1.95c-1.95-.538-3.837-.6-5.187.778s-2.928,3.148-.657,5.817a10.65,10.65,0,0,0,6.562,3.539A2.663,2.663,0,0,0,510.261,126.281Z" transform="translate(-336.09 -78.466)" fill="#263c71"/>
  <path id="Trazado_607085" data-name="Trazado 607085" d="M509.4,130.046a7.216,7.216,0,0,0,1.385.437c.469.105.945.2,1.421.276s.955.138,1.438.184a6.129,6.129,0,0,0,1.451,0,3.585,3.585,0,0,1-1.461.279,8.952,8.952,0,0,1-1.484-.108,8.77,8.77,0,0,1-1.444-.361A3.853,3.853,0,0,1,509.4,130.046Z" transform="translate(-342.179 -87.356)" fill="#0c0835"/>
  <path id="Trazado_607086" data-name="Trazado 607086" d="M516.405,135.07a4.738,4.738,0,0,0,1.382-.962,4.347,4.347,0,0,1-2.728.479,15.66,15.66,0,0,1-3.059-.532,18.094,18.094,0,0,0,2.587,1.29A3.8,3.8,0,0,0,516.405,135.07Z" transform="translate(-343.925 -90.049)" fill="#0c0835"/>
  <path id="Trazado_607087" data-name="Trazado 607087" d="M503.72,133.089c-.853-.42-1.1.007-1.1.364a3.817,3.817,0,0,0,.4,1.126Z" transform="translate(-337.624 -89.283)" fill="#0c0835"/>
  <path id="Trazado_607088" data-name="Trazado 607088" d="M528.35,137.469a7.661,7.661,0,0,1-2.2,2.387s-.591.8.072,1.123a.714.714,0,0,0,.089.036,3.179,3.179,0,0,0,1.126-.863,12.121,12.121,0,0,0,.909-2.685Z" transform="translate(-353.27 -92.34)" fill="#0c0835"/>
  <path id="Trazado_607089" data-name="Trazado 607089" d="M511.086,137.155s.7-.519,1.169,0-.427,2.922-1.484,2.337a13.819,13.819,0,0,1-2.968,2.856c-1.215.63-2.022.315-2.429-.135a8.154,8.154,0,0,1-1.888-4.251c-.046-.7.158-2.068.158-2.36s-.181-1.438.069-1.776a.944.944,0,0,1,.584-.381,9.505,9.505,0,0,0,2.81.854,4.91,4.91,0,0,1-.831-.653,20.883,20.883,0,0,0,4.405,1.011,9.836,9.836,0,0,0,.069,1.484,5.821,5.821,0,0,0,.338,1.011Z" transform="translate(-338.202 -89.64)" fill="#ffc5c7"/>
  <path id="Trazado_607090" data-name="Trazado 607090" d="M527.231,145.932c-.062-.44-.433-.529-.735-.22a2.392,2.392,0,0,0-.368,1.458c.062.148.555.138.673-.167s-.158-.5-.44-.4a1.072,1.072,0,0,1,.2-.729c.25-.286.476-.177.529-.1s.141.167.141.167Z" transform="translate(-353.404 -97.757)" fill="#fe8a8b"/>
  <path id="Trazado_607091" data-name="Trazado 607091" d="M517.55,139.483a3.713,3.713,0,0,0-.318-.279,2.054,2.054,0,0,0-.364-.227,1.146,1.146,0,0,0-.414-.141.932.932,0,0,0-.433.056v.02a1.822,1.822,0,0,0,.2.066l.194.056c.125.039.259.049.387.092a2.637,2.637,0,0,1,.371.161c.121.062.24.135.358.21l.013-.016Z" transform="translate(-346.626 -93.257)" fill="#0c0835"/>
  <path id="Trazado_607092" data-name="Trazado 607092" d="M505.62,138.5a1.539,1.539,0,0,1,.391-.138,2.123,2.123,0,0,1,.407-.049c.138,0,.269.026.4.023s.272,0,.42-.01l.007-.02a.991.991,0,0,0-.407-.171,1.24,1.24,0,0,0-.44.016,1.845,1.845,0,0,0-.42.112,1.393,1.393,0,0,0-.371.217l.01.016Z" transform="translate(-339.633 -92.781)" fill="#0c0835"/>
  <path id="Trazado_607093" data-name="Trazado 607093" d="M516.435,142.56c.02-.19.125-.335.236-.325s.187.174.171.364-.125.335-.236.325S516.419,142.75,516.435,142.56Z" transform="translate(-346.903 -95.543)" fill="#0c0835"/>
  <path id="Trazado_607094" data-name="Trazado 607094" d="M507.332,141.813c.02-.19.108-.338.2-.328s.151.171.131.361-.108.338-.2.328S507.313,142,507.332,141.813Z" transform="translate(-340.787 -95.039)" fill="#0c0835"/>
  <path id="Trazado_607095" data-name="Trazado 607095" d="M511.266,148.836a.846.846,0,0,1-.926-.01.389.389,0,0,0,.217.341.583.583,0,0,0,.433-.023c.135-.059.187-.19.279-.309Z" transform="translate(-342.81 -99.971)" fill="#fe8a8b"/>
  <path id="Trazado_607096" data-name="Trazado 607096" d="M510.743,151.9a25.96,25.96,0,0,1-2.613-.174,1.317,1.317,0,0,0,2.613.177Z" transform="translate(-341.326 -101.919)" fill="#c31f2a"/>
  <path id="Trazado_607097" data-name="Trazado 607097" d="M511.252,154.653a1.16,1.16,0,0,0-.6-.007.934.934,0,0,0-.808-.079,1.132,1.132,0,0,0,1.412.085Z" transform="translate(-342.474 -103.792)" fill="#fb8384"/>
  <path id="Trazado_607098" data-name="Trazado 607098" d="M508.941,152.3a3.085,3.085,0,0,0,1.93-.076c.01-.1.026-.187.039-.282-.62-.013-1.618-.089-2.15-.148A1.665,1.665,0,0,0,508.941,152.3Z" transform="translate(-341.749 -101.966)" fill="#fff"/>
  <g id="Grupo_1014786" data-name="Grupo 1014786" transform="translate(176.551 32.741)">
    <path id="Trazado_607099" data-name="Trazado 607099" d="M555.853,107.7a6.405,6.405,0,0,1,.469-1,2.3,2.3,0,0,1,.755-.778,3.062,3.062,0,0,1,1.3-.423c.167-.023.4-.049.712-.079a7.659,7.659,0,0,0,.959-.158,3.28,3.28,0,0,0,.9-.341,1.176,1.176,0,0,0,.545-.62.881.881,0,0,0,.023-.558,1.151,1.151,0,0,0-.3-.486,1.522,1.522,0,0,0-.519-.322,1.325,1.325,0,0,0-.834-.059,2.088,2.088,0,0,0-.66.318c-.19.141-.358.253-.506.341l-1.7-2.492a3.934,3.934,0,0,1,1.405-.985,4.393,4.393,0,0,1,1.691-.325,5.154,5.154,0,0,1,1.812.338,5.757,5.757,0,0,1,1.379.748,4.436,4.436,0,0,1,1.1,1.159,3.548,3.548,0,0,1,.538,1.553,4.23,4.23,0,0,1-.292,1.93,5.074,5.074,0,0,1-.4.84,3.187,3.187,0,0,1-.548.686,3.366,3.366,0,0,1-.735.522,4.092,4.092,0,0,1-.942.348,7.81,7.81,0,0,1-1.369.22,7.1,7.1,0,0,0-1.179.174.877.877,0,0,0-.656.542l-2.951-1.093Zm-1.224,3.476.062-.171a1.574,1.574,0,1,1,2.951,1.093l-.062.171a1.574,1.574,0,0,1-2.951-1.093Z" transform="translate(-549.045 -99.736)" fill="#7e19b8"/>
    <path id="Trazado_607100" data-name="Trazado 607100" d="M539.438,110.494a4.55,4.55,0,0,1-.052-.8,1.679,1.679,0,0,1,.207-.762,2.2,2.2,0,0,1,.683-.732c.1-.072.24-.174.427-.3a5.074,5.074,0,0,0,.555-.44,2.35,2.35,0,0,0,.45-.535.85.85,0,0,0,.128-.588.627.627,0,0,0-.184-.364.791.791,0,0,0-.361-.2,1.123,1.123,0,0,0-.446-.023.964.964,0,0,0-.552.256,1.541,1.541,0,0,0-.309.437c-.072.154-.138.289-.2.4l-1.963-.991a2.872,2.872,0,0,1,.548-1.123,3.234,3.234,0,0,1,.962-.8,3.758,3.758,0,0,1,1.277-.427,4.176,4.176,0,0,1,1.146-.01,3.2,3.2,0,0,1,1.11.351,2.553,2.553,0,0,1,.893.8,3.047,3.047,0,0,1,.5,1.336,3.7,3.7,0,0,1,.043.676,2.393,2.393,0,0,1-.105.634,2.331,2.331,0,0,1-.286.591,2.953,2.953,0,0,1-.476.555,5.617,5.617,0,0,1-.794.624,5.264,5.264,0,0,0-.693.529.631.631,0,0,0-.227.578l-2.268.345Zm.446,2.649-.02-.131a1.147,1.147,0,0,1,2.268-.345l.02.131a1.147,1.147,0,0,1-2.268.345Z" transform="translate(-537.82 -102.225)" fill="#7e19b8"/>
  </g>
  <path id="Trazado_607101" data-name="Trazado 607101" d="M561.735,298.378c1.6,0,2.941-1.638,2.905-3.588a14.014,14.014,0,0,0-.558-3.7c-.8-2.7-2.442-5.311-1.848-8.164a18.878,18.878,0,0,0,.88-3.463,5.856,5.856,0,0,0-1.228-3.243,55.585,55.585,0,0,0-3.3-4.5c-.282,2.682-1.572,5.072-2.469,7.576s-1.359,5.584-.085,7.708c.909,1.517,2.633,2.429,2.833,4.323a14.5,14.5,0,0,1-.167,2.341c-.125,2.232,1.247,4.363,3.036,4.714Z" transform="translate(-372.979 -182.519)" fill="#7e19b8"/>
  <path id="Trazado_607102" data-name="Trazado 607102" d="M570.9,311.175l-.689-3.207c-.167-1.077-.351-2.153-.551-3.224-.4-2.144-.857-4.274-1.435-6.372-.148-.522-.3-1.047-.466-1.559-.082-.259-.171-.512-.259-.768s-.19-.5-.269-.788a7.882,7.882,0,0,1-.233-1.664c-.03-.555-.023-1.1-.013-1.654.03-1.1.1-2.19.141-3.276a14.222,14.222,0,0,0,.066-3.256,13.055,13.055,0,0,1,.364,3.273c-.043,1.1-.112,2.183-.141,3.27-.01.542-.016,1.083.013,1.622a7.291,7.291,0,0,0,.217,1.572c.066.24.164.5.263.758s.181.519.263.781c.171.522.322,1.05.469,1.579.581,2.114,1.044,4.258,1.441,6.408.2,1.073.381,2.153.558,3.233.1,1.09.2,2.18.259,3.276Z" transform="translate(-380.853 -191.715)" fill="#972bd5"/>
  <path id="Trazado_607103" data-name="Trazado 607103" d="M562.48,294.755c.315.22.6.443.89.663.144.112.276.243.42.361a1.948,1.948,0,0,0,.469.3l-.053.007c.177-.164.338-.351.512-.522s.355-.332.538-.489a6.973,6.973,0,0,1,1.2-.824l.02.023a6.98,6.98,0,0,1-1.027,1.037c-.19.151-.384.3-.578.44s-.41.263-.6.41l-.026.02-.026-.013a5.608,5.608,0,0,0-.5-.263,3.214,3.214,0,0,1-.5-.276,2.609,2.609,0,0,1-.758-.847l.023-.02Z" transform="translate(-377.821 -197.654)" fill="#972bd5"/>
  <path id="Trazado_607104" data-name="Trazado 607104" d="M559.093,308.5a6.825,6.825,0,0,1,.768.309,4.921,4.921,0,0,1,.722.387,4.309,4.309,0,0,0,.719.407c.249.112.519.184.778.276l-.128.03a12.6,12.6,0,0,1,.827-.991,8.969,8.969,0,0,1,.952-.88l.023.02a8.943,8.943,0,0,1-.755,1.057,12.6,12.6,0,0,1-.88.945l-.062.062-.066-.033c-.246-.128-.479-.282-.726-.4a5.752,5.752,0,0,0-.768-.305,4,4,0,0,1-.745-.361,4.39,4.39,0,0,1-.673-.489l.013-.026Z" transform="translate(-375.55 -206.917)" fill="#972bd5"/>
  <path id="Trazado_607105" data-name="Trazado 607105" d="M568.573,326.144a2.1,2.1,0,0,1,.627.171c.1.046.181.115.279.164a.559.559,0,0,0,.3.069l-.043.02c.066-.115.115-.243.187-.355s.141-.223.223-.325a2.278,2.278,0,0,1,.6-.532l.023.016a2.278,2.278,0,0,1-.378.706c-.082.1-.177.2-.266.292s-.2.174-.3.266l-.026.023h-.016a2.549,2.549,0,0,0-.335-.056,1.472,1.472,0,0,1-.338-.046,1.242,1.242,0,0,1-.548-.381l.013-.026Z" transform="translate(-381.918 -218.551)" fill="#972bd5"/>
  <path id="Trazado_607106" data-name="Trazado 607106" d="M570.106,341.523a3.155,3.155,0,0,1,.466,0,2.3,2.3,0,0,1,.45.053,2.134,2.134,0,0,0,.453.092,1.64,1.64,0,0,0,.456-.053l-.053.02a2.851,2.851,0,0,1,.309-.289,3.593,3.593,0,0,1,.328-.263,3.376,3.376,0,0,1,.755-.4l.016.023a3.182,3.182,0,0,1-.591.614,5.459,5.459,0,0,1-.709.46l-.043.02h-.01a2.883,2.883,0,0,0-.469-.049c-.154,0-.312.033-.469.046a1.318,1.318,0,0,1-.466-.056,1.418,1.418,0,0,1-.44-.194l.007-.026Z" transform="translate(-382.946 -228.849)" fill="#972bd5"/>
  <path id="Trazado_607107" data-name="Trazado 607107" d="M573.981,287.341c1.1,1.136,2.84-.249,3.982-1.563,1.441-1.651,2.987-3.558,3.155-5.892.062-.876-.082-1.75.049-2.623.3-2,1.9-3.394,2.666-5.246,1.1-2.685.246-5.748-.814-8.23a11.355,11.355,0,0,1-1.372-5.236,11.524,11.524,0,0,1,1.852-4.816c-1.986.118-4.222.381-5.617,2.275-1.323,1.8-1.392,4.409-1.264,6.716s.332,4.789-.64,6.884c-1.32,2.849-4.6,4.53-4.691,7.7-.046,1.6.8,2.892,1.382,4.251a5.807,5.807,0,0,1,.456,3.01,2.988,2.988,0,0,0,.748,2.672l.105.1Z" transform="translate(-383.748 -170.442)" fill="#972bd5"/>
  <path id="Trazado_607108" data-name="Trazado 607108" d="M578.923,297.68c.121-.765.263-1.523.394-2.281s.246-1.52.338-2.281a30.821,30.821,0,0,0,.6-4.537c.039-.762.026-1.517.03-2.3a9.6,9.6,0,0,1,.289-2.36,16.558,16.558,0,0,1,.771-2.229,16.753,16.753,0,0,1,1.09-2.085c.8-1.336,1.822-2.534,2.14-3.959a6.087,6.087,0,0,0,.062-2.183c-.118-.729-.309-1.484-.469-2.242a25.241,25.241,0,0,1-.657-4.629,8.935,8.935,0,0,1,.394-2.337,6.174,6.174,0,0,1,1.113-2.048,6.619,6.619,0,0,0-.8,2.13,8.307,8.307,0,0,0-.092,2.245,24.73,24.73,0,0,0,.643,4.51c.158.748.348,1.49.476,2.285a6.769,6.769,0,0,1-.072,2.41,7.337,7.337,0,0,1-.965,2.2c-.414.666-.854,1.3-1.247,1.943a15.349,15.349,0,0,0-1.792,4.146,8.947,8.947,0,0,0-.272,2.216c0,.758.01,1.543-.03,2.321a32.427,32.427,0,0,1-.6,4.622c-.387,1.5-.837,2.984-1.336,4.448Z" transform="translate(-388.877 -176.132)" fill="#7e19b8"/>
  <path id="Trazado_607109" data-name="Trazado 607109" d="M592.882,274a2.433,2.433,0,0,1-.259.683,1.879,1.879,0,0,1-.42.571,2.085,2.085,0,0,0-.469.538c-.121.2-.194.44-.3.653l-.1.2-.207-.174c-.138-.115-.269-.24-.4-.361a3.448,3.448,0,0,1-.364-.394,4.065,4.065,0,0,1-.568-.936l.033-.033a4.011,4.011,0,0,1,.886.643,3.448,3.448,0,0,1,.364.394c.112.141.223.279.328.427l-.3.023c.161-.177.351-.332.5-.522a2.085,2.085,0,0,0,.325-.637,1.935,1.935,0,0,1,.371-.6,2.481,2.481,0,0,1,.535-.492l.039.026Z" transform="translate(-396.186 -184.038)" fill="#7e19b8"/>
  <path id="Trazado_607110" data-name="Trazado 607110" d="M595.637,294.269a2.663,2.663,0,0,1-.318,1.008,2.835,2.835,0,0,1-.647.827,9.947,9.947,0,0,0-.791.676c-.25.236-.466.509-.735.745l-.141.125-.128-.19-.446-.66c-.151-.22-.3-.44-.433-.663l-.42-.67a7.144,7.144,0,0,0-.456-.657l.026-.039a2.291,2.291,0,0,1,.689.476,4.661,4.661,0,0,1,.552.617,4.921,4.921,0,0,1,.443.689,8.069,8.069,0,0,1,.364.735l-.269-.066a4.844,4.844,0,0,0,.847-.548,3.08,3.08,0,0,0,.637-.788c.177-.289.378-.545.578-.811s.381-.538.594-.821l.043.016Z" transform="translate(-397.072 -197.66)" fill="#7e19b8"/>
  <path id="Trazado_607111" data-name="Trazado 607111" d="M587.127,315.174a3.391,3.391,0,0,1-.893.811,3.859,3.859,0,0,1-1.093.492c-.387.1-.785.161-1.156.286s-.742.266-1.129.387l-.079.026-.085-.085a6.586,6.586,0,0,1-.64-.781,4.919,4.919,0,0,1-.512-.87,4.52,4.52,0,0,1-.328-.965,2.724,2.724,0,0,1-.026-1.018h.046a5.635,5.635,0,0,0,.315.913c.121.292.279.571.427.853l.473.834c.161.276.341.548.512.817l-.164-.059a6.017,6.017,0,0,0,1.152-.184,4.848,4.848,0,0,0,1.067-.473c.338-.19.693-.335,1.041-.5s.686-.335,1.044-.515l.03.036Z" transform="translate(-390.374 -210.558)" fill="#7e19b8"/>
  <path id="Trazado_607112" data-name="Trazado 607112" d="M582.917,336.973a1.481,1.481,0,0,1-.506.43,1.786,1.786,0,0,1-.627.207,3.962,3.962,0,0,1-.657-.033,4.234,4.234,0,0,0-.643.016h-.026l-.049-.043a5.7,5.7,0,0,1-.489-.486c-.148-.174-.3-.341-.433-.529a5.268,5.268,0,0,1-.355-.588,3.786,3.786,0,0,1-.272-.647l.036-.026a3.763,3.763,0,0,1,.535.45,5.1,5.1,0,0,1,.453.512c.138.181.253.378.374.571a5.652,5.652,0,0,1,.318.611l-.076-.043a1.367,1.367,0,0,0,.611.03,4.921,4.921,0,0,0,.588-.194c.19-.056.384-.1.578-.144s.387-.1.611-.138l.026.039Z" transform="translate(-388.837 -225.215)" fill="#7e19b8"/>
  <path id="Trazado_607113" data-name="Trazado 607113" d="M572.375,362.06h-9.868a1.169,1.169,0,0,1-1.156-.991L559.773,350.7a1.169,1.169,0,0,1,1.156-1.346h13.029a1.169,1.169,0,0,1,1.156,1.346l-1.579,10.367a1.166,1.166,0,0,1-1.155.991Z" transform="translate(-376.006 -234.673)" fill="#b4dff9"/>
  <path id="Trazado_607114" data-name="Trazado 607114" d="M595.656,349.356H593.64A1.169,1.169,0,0,1,594.8,350.7l-1.579,10.367a1.166,1.166,0,0,1-1.156.991h2.016a1.169,1.169,0,0,0,1.156-.991l1.579-10.367A1.169,1.169,0,0,0,595.656,349.356Z" transform="translate(-397.704 -234.673)" fill="#b6c0d7"/>
  <path id="Trazado_607115" data-name="Trazado 607115" d="M132.453,294.9a2.029,2.029,0,0,1-.24,1.221,8.761,8.761,0,0,0-1.077,4.474,10.009,10.009,0,0,1-.036,3.053c-.479,1.7-2.275,2.748-2.849,4.419-.512,1.481-.036,3.339-1.1,4.487a.991.991,0,0,1-1.034.358,1.271,1.271,0,0,1-.446-.371c-1.218-1.385-2.524-3.066-2.147-4.872.355-1.7,2.1-2.843,2.432-4.543.269-1.389-.44-2.994.358-4.162.22-.322.535-.571.775-.88.945-1.215.6-3.155,1.687-4.241a2.526,2.526,0,0,1,1.287-.66,2,2,0,0,1,2.393,1.714Z" transform="translate(-82.93 -196.913)" fill="#7e19b8"/>
  <path id="Trazado_607116" data-name="Trazado 607116" d="M129.458,321.091c-.072-.906-.105-1.809-.138-2.718.043-.906.089-1.809.167-2.715s.181-1.809.338-2.708a11.693,11.693,0,0,1,.752-2.646c.657-1.661,1.188-3.394,1.723-5.114l.778-2.593q.478-1.27.932-2.551c-.131.9-.338,1.783-.519,2.672l-.778,2.6c-.538,1.727-1.064,3.453-1.737,5.154a11.034,11.034,0,0,0-.725,2.554c-.158.88-.256,1.773-.335,2.669s-.128,1.8-.161,2.7l-.3,2.7Z" transform="translate(-86.868 -201.55)" fill="#972bd5"/>
  <path id="Trazado_607117" data-name="Trazado 607117" d="M140.025,306.667a2.109,2.109,0,0,1-.548.545,3.1,3.1,0,0,1-.345.177,1.311,1.311,0,0,0-.315.217l-.043.036-.036-.056c-.085-.131-.19-.256-.272-.387s-.164-.269-.233-.407a3.232,3.232,0,0,1-.292-.9l.026-.013a3.19,3.19,0,0,1,.542.778c.069.141.125.289.184.433s.092.305.144.453l-.079-.02a1.316,1.316,0,0,0,.3-.236,3.611,3.611,0,0,1,.269-.279,2.1,2.1,0,0,1,.683-.361l.016.023Z" transform="translate(-92.658 -205.466)" fill="#972bd5"/>
  <path id="Trazado_607118" data-name="Trazado 607118" d="M136.829,315.943c-.154.128-.315.266-.483.381a4.077,4.077,0,0,1-.522.325c-.187.089-.384.161-.561.263a3.339,3.339,0,0,0-.506.355l-.056.046-.056-.076a8.869,8.869,0,0,1-.66-1.021,6.333,6.333,0,0,1-.476-1.126l.026-.013a6.481,6.481,0,0,1,.719.988,9.356,9.356,0,0,1,.535,1.093l-.115-.03a3.91,3.91,0,0,0,.542-.3c.171-.115.322-.259.486-.387a3.776,3.776,0,0,1,.532-.315,2.492,2.492,0,0,1,.591-.22l.007.03Z" transform="translate(-89.683 -211.646)" fill="#972bd5"/>
  <path id="Trazado_607119" data-name="Trazado 607119" d="M133.677,329.733a2.74,2.74,0,0,1-.555.414,2.226,2.226,0,0,1-.634.253,1.645,1.645,0,0,0-.611.292c-.181.138-.358.289-.542.41l-.138.089-.1-.154a4.534,4.534,0,0,1-.394-.709,3.846,3.846,0,0,1-.253-.785l.033-.016a3.663,3.663,0,0,1,.525.634,4.152,4.152,0,0,1,.387.712l-.24-.062a3.894,3.894,0,0,1,.647-.256,1.945,1.945,0,0,0,.6-.332,1.955,1.955,0,0,1,.588-.351,2.413,2.413,0,0,1,.673-.171Z" transform="translate(-87.627 -221.352)" fill="#972bd5"/>
  <path id="Trazado_607120" data-name="Trazado 607120" d="M108.066,303.038c-.706-.115-3.358-.965-3.174-1.658.794-2.971,1.589-6.342-1.162-7.8-1.323-.7-2.987-1.054-3.742-2.35-.778-1.333-.2-3.027.492-4.4s1.536-2.849,1.238-4.363c-.312-1.586-1.812-2.754-2.052-4.353-.328-2.18,1.792-3.939,3.824-4.789a3.59,3.59,0,0,1,2.183-.361,2.666,2.666,0,0,1,1.329.86c1.428,1.6,1.372,4.008,1.044,6.129s-.824,4.356-.026,6.349c.568,1.415,1.779,2.744,1.454,4.231-.131.6-.5,1.116-.643,1.71-.381,1.6.945,3.04,1.556,4.57a5.611,5.611,0,0,1-1.244,5.876,1.238,1.238,0,0,1-1.08.355Z" transform="translate(-66.914 -183.318)" fill="#972bd5"/>
  <path id="Trazado_607121" data-name="Trazado 607121" d="M115.723,310.124c-.164-1.175-.328-2.347-.538-3.513-.049-.292-.112-.581-.158-.87s-.069-.584-.118-.876q-.133-.872-.3-1.74a22.668,22.668,0,0,0-.886-3.391,7.05,7.05,0,0,0-.742-1.533,2.119,2.119,0,0,0-.535-.568,2.754,2.754,0,0,1-.716-.666,2.936,2.936,0,0,1-.515-1.845,8.839,8.839,0,0,1,.266-1.809c.272-1.169.617-2.295.808-3.444a7.942,7.942,0,0,0-.069-3.407c-.092-.266-.164-.538-.253-.811a5.409,5.409,0,0,0-.338-.791,7.751,7.751,0,0,0-.991-1.454,6.673,6.673,0,0,1,1.264,1.28,6.094,6.094,0,0,1,.5.775,3.139,3.139,0,0,1,.341.86,8.469,8.469,0,0,1,.082,3.641c-.2,1.192-.548,2.334-.814,3.473a8.767,8.767,0,0,0-.253,1.7,2.4,2.4,0,0,0,.41,1.517,2.215,2.215,0,0,0,.581.535,2.6,2.6,0,0,1,.683.712,7.472,7.472,0,0,1,.8,1.654,23.22,23.22,0,0,1,.909,3.473q.167.877.3,1.763c.039.3.1.588.131.883s.043.594.062.89c.066,1.188.108,2.377.085,3.565Z" transform="translate(-74.321 -190.372)" fill="#7e19b8"/>
  <path id="Trazado_607122" data-name="Trazado 607122" d="M111.756,294.133a1.869,1.869,0,0,1,.532.315,1.95,1.95,0,0,1,.417.437,2.8,2.8,0,0,0,.355.492,4.869,4.869,0,0,0,.463.394l-.21.013c.072-.151.158-.3.236-.44a4.33,4.33,0,0,1,.263-.423c.092-.138.2-.266.3-.4s.213-.256.305-.394l.036.007a1.433,1.433,0,0,1-.105.519,3.343,3.343,0,0,1-.217.466,3.046,3.046,0,0,1-.279.423,4.015,4.015,0,0,1-.322.394l-.131.138-.079-.125a3.513,3.513,0,0,0-.345-.5,2.386,2.386,0,0,0-.466-.381,2.317,2.317,0,0,1-.423-.417,3.441,3.441,0,0,1-.351-.5l.023-.03Z" transform="translate(-75.052 -197.573)" fill="#7e19b8"/>
  <path id="Trazado_607123" data-name="Trazado 607123" d="M112.3,307.107a3.015,3.015,0,0,1-.315.561,4.117,4.117,0,0,1-.4.486c-.154.144-.328.269-.492.4a3,3,0,0,0-.43.46l-.039.053-.059-.046a4.6,4.6,0,0,1-.551-.509c-.161-.184-.332-.355-.479-.545s-.289-.384-.423-.588-.256-.41-.394-.607l.02-.03a2.536,2.536,0,0,1,.6.446,5.905,5.905,0,0,1,.5.535c.154.187.286.391.43.584s.259.423.394.591l-.1.007a2.594,2.594,0,0,0,.437-.453c.121-.171.233-.355.361-.519a5.62,5.62,0,0,1,.433-.453,4.539,4.539,0,0,1,.492-.4l.03.023Z" transform="translate(-73.024 -206.05)" fill="#7e19b8"/>
  <path id="Trazado_607124" data-name="Trazado 607124" d="M105.193,317.1c.223.263.453.5.693.735s.492.433.742.657a2.428,2.428,0,0,0,.863.5,3.186,3.186,0,0,0,.995.112l-.148.105a6.661,6.661,0,0,1,.236-.8,4.314,4.314,0,0,1,.341-.765,3.887,3.887,0,0,1,.489-.693,1.809,1.809,0,0,1,.689-.5l.02.03a2.643,2.643,0,0,0-.5.624c-.138.227-.256.463-.371.7l-.332.729c-.108.246-.2.5-.3.748l-.046.118-.1-.016a5.734,5.734,0,0,1-1.008-.289,10.181,10.181,0,0,1-.968-.4,2.817,2.817,0,0,1-1.323-1.586l.033-.016Z" transform="translate(-70.646 -212.573)" fill="#7e19b8"/>
  <path id="Trazado_607125" data-name="Trazado 607125" d="M115.25,326.519a2.017,2.017,0,0,1,.138.824,2.732,2.732,0,0,1-.154.827,3,3,0,0,1-.423.722l-.5.657-.036.046-.056-.039a7.182,7.182,0,0,0-.863-.486c-.289-.154-.591-.289-.89-.417s-.6-.259-.909-.378-.62-.227-.939-.345l.007-.036a4.706,4.706,0,0,1,2,.407,6.122,6.122,0,0,1,.9.5,6.011,6.011,0,0,1,.788.657l-.092.007a2.253,2.253,0,0,0,.456-.653,5.727,5.727,0,0,0,.259-.745,5.806,5.806,0,0,0,.282-1.543l.036-.007Z" transform="translate(-74.307 -219.33)" fill="#7e19b8"/>
  <path id="Trazado_607126" data-name="Trazado 607126" d="M119.149,362.121h-7.57a1.52,1.52,0,0,1-1.405-1.428l-1.2-9.31a1.614,1.614,0,0,1,1.4-1.937h9.966a1.614,1.614,0,0,1,1.4,1.937l-1.2,9.31A1.52,1.52,0,0,1,119.149,362.121Z" transform="translate(-73.191 -234.733)" fill="#b4dff9"/>
  <path id="Trazado_607127" data-name="Trazado 607127" d="M137.826,349.446h-1.648a1.614,1.614,0,0,1,1.4,1.937l-1.2,9.31a1.52,1.52,0,0,1-1.4,1.428h1.648a1.52,1.52,0,0,0,1.4-1.428l1.2-9.31A1.614,1.614,0,0,0,137.826,349.446Z" transform="translate(-90.67 -234.733)" fill="#b6c0d7"/>
  <path id="Trazado_607128" data-name="Trazado 607128" d="M25.113,188.836H2.249A2.249,2.249,0,0,0,0,191.085v11.89a2.249,2.249,0,0,0,2.249,2.249H25.113a2.249,2.249,0,0,0,2.249-2.249v-11.89A2.249,2.249,0,0,0,25.113,188.836Z" transform="translate(0 -126.847)" fill="#b6c0d7"/>
  <path id="Trazado_607129" data-name="Trazado 607129" d="M25.884,217.153H1.477A1.477,1.477,0,0,1,0,215.676l13.679-9.08,13.679,9.08a1.477,1.477,0,0,1-1.477,1.477Z" transform="translate(0 -138.776)" fill="#b6c0d7"/>
  <path id="Trazado_607130" data-name="Trazado 607130" d="M25.884,188.836H1.477A1.477,1.477,0,0,0,0,190.313l13.679,9.08,13.679-9.08a1.477,1.477,0,0,0-1.477-1.477Z" transform="translate(0 -126.847)" fill="#fafdff"/>
  <path id="Trazado_607131" data-name="Trazado 607131" d="M456.411,7.786h-54.6a3.079,3.079,0,0,0-3.079,3.079v12.77a3.079,3.079,0,0,0,3.079,3.079h5.485l-1.868,4.612,6.214-4.612h44.773a3.079,3.079,0,0,0,3.079-3.079V10.865a3.079,3.079,0,0,0-3.079-3.079Z" transform="translate(-267.838 -5.23)" fill="#b6c0d7"/>
  <path id="Trazado_607132" data-name="Trazado 607132" d="M465.021,26.024H423.41a.719.719,0,0,1,0-1.438h41.612a.719.719,0,0,1,0,1.438Zm.719,2.511a.719.719,0,0,0-.719-.719H417.629a.719.719,0,1,0,0,1.438h47.392A.719.719,0,0,0,465.74,28.535Zm-20.806,3.233a.719.719,0,0,0-.719-.719H417.629a.719.719,0,1,0,0,1.438h26.587A.719.719,0,0,0,444.935,31.768Z" transform="translate(-280.05 -16.515)" fill="#fff"/>
  <path id="Trazado_607133" data-name="Trazado 607133" d="M584.224,177.3a6.424,6.424,0,0,0-.975,7.823l-10.8,10.8a.569.569,0,0,0,0,.8l1.441,1.441a.569.569,0,0,0,.8,0l.768-.768,2,2a.569.569,0,0,0,.8,0l1.179-1.178a.569.569,0,0,0,0-.8l-2-2,1.034-1.034,1.7,1.7a.569.569,0,0,0,.8,0l1.178-1.178a.569.569,0,0,0,0-.8l-1.7-1.7,5.036-5.036a6.422,6.422,0,1,0-1.264-10.061Zm7.074,7.074a3.582,3.582,0,1,1,0-5.065A3.582,3.582,0,0,1,591.3,184.378Z" transform="translate(-384.422 -117.839)" fill="#b6c0d7"/>
  <path id="Trazado_607134" data-name="Trazado 607134" d="M48.6,270.85a9.215,9.215,0,0,1-.387-1.487,3.281,3.281,0,0,1,.115-1.5,4.264,4.264,0,0,1,1.018-1.612c.158-.171.387-.41.689-.712a9.781,9.781,0,0,0,.883-1.018,4.511,4.511,0,0,0,.653-1.159,1.626,1.626,0,0,0,.033-1.146,1.181,1.181,0,0,0-.473-.614,1.558,1.558,0,0,0-.745-.256,2.089,2.089,0,0,0-.84.118,1.81,1.81,0,0,0-.942.676,2.844,2.844,0,0,0-.42.926c-.079.318-.158.588-.236.814l-4.021-1.155a5.5,5.5,0,0,1,.627-2.3,6.186,6.186,0,0,1,1.513-1.845,7.2,7.2,0,0,1,2.236-1.247,7.891,7.891,0,0,1,2.137-.423,6.145,6.145,0,0,1,2.2.263,4.87,4.87,0,0,1,1.95,1.178,5.816,5.816,0,0,1,1.4,2.321,7.229,7.229,0,0,1,.322,1.251,4.483,4.483,0,0,1,.026,1.221,4.581,4.581,0,0,1-.322,1.208,5.771,5.771,0,0,1-.7,1.208,11.056,11.056,0,0,1-1.267,1.451,9.911,9.911,0,0,0-1.106,1.231,1.207,1.207,0,0,0-.22,1.159Zm1.776,4.8-.082-.236a2.183,2.183,0,0,1,4.12-1.448l.082.24a2.183,2.183,0,1,1-4.12,1.448Z" transform="translate(-29.509 -172.567)" fill="#fff"/>
</svg>
