<svg xmlns="http://www.w3.org/2000/svg" width="572.522" height="360.505" viewBox="0 0 572.522 360.505">
  <g id="Group_46" data-name="Group 46" transform="translate(0 -0.996)">
    <path id="Trazado_606210" data-name="Trazado 606210" d="M20.587,165.837a18.569,18.569,0,0,1,4.542-1.974l.933-4.5,7.6-.132,1.09,4.459a18.656,18.656,0,0,1,4.608,1.817l3.84-2.519,5.467,5.277-2.378,3.923a18.569,18.569,0,0,1,1.974,4.542l4.5.933.132,7.6-4.459,1.09a18.658,18.658,0,0,1-1.817,4.608l2.519,3.84-5.277,5.467-3.923-2.378a18.568,18.568,0,0,1-4.542,1.974l-.933,4.5-7.6.132-1.09-4.459a18.657,18.657,0,0,1-4.608-1.817l-3.84,2.519-5.467-5.277,2.378-3.923a18.569,18.569,0,0,1-1.974-4.542l-4.5-.933-.132-7.6,4.459-1.09a18.657,18.657,0,0,1,1.817-4.608l-2.519-3.84,5.277-5.467,3.931,2.378Zm4.055,10.125a8.153,8.153,0,1,0,11.528-.206A8.146,8.146,0,0,0,24.642,175.961Z" transform="translate(-1.329 -27.562)" fill="#d0d0d0"/>
    <path id="Trazado_606211" data-name="Trazado 606211" d="M34.147,32.657a18.568,18.568,0,0,1,4.542-1.974l.933-4.5,7.6-.132,1.09,4.459a18.658,18.658,0,0,1,4.608,1.817l3.84-2.519,5.467,5.277-2.378,3.923a18.569,18.569,0,0,1,1.974,4.542l4.5.933.132,7.6-4.459,1.09a18.658,18.658,0,0,1-1.817,4.608l2.519,3.84-5.277,5.467L53.5,64.707a18.569,18.569,0,0,1-4.542,1.974l-.933,4.5-7.6.132-1.09-4.459a18.657,18.657,0,0,1-4.608-1.817l-3.84,2.519-5.467-5.277L27.8,58.356a18.568,18.568,0,0,1-1.974-4.542l-4.5-.933-.132-7.6,4.459-1.09a18.658,18.658,0,0,1,1.817-4.608l-2.519-3.84,5.277-5.467,3.931,2.378ZM38.2,42.781a8.153,8.153,0,1,0,11.528-.206A8.146,8.146,0,0,0,38.2,42.781Z" transform="translate(-3.691 -4.364)" fill="#d0d0d0"/>
    <path id="Trazado_606212" data-name="Trazado 606212" d="M234.359,84.017a22.684,22.684,0,0,1,5.483-2.387l1.131-5.434,9.175-.157,1.321,5.384a22.431,22.431,0,0,1,5.566,2.188l4.633-3.039,6.6,6.375-2.874,4.74a22.683,22.683,0,0,1,2.387,5.483l5.426,1.131.165,9.175-5.384,1.321a22.43,22.43,0,0,1-2.188,5.566l3.039,4.641-6.375,6.6-4.74-2.874a22.685,22.685,0,0,1-5.483,2.387l-1.131,5.434-9.175.157-1.321-5.384a22.432,22.432,0,0,1-5.566-2.188l-4.633,3.039-6.6-6.375,2.874-4.74a22.685,22.685,0,0,1-2.387-5.483l-5.434-1.131-.157-9.175,5.384-1.321a22.432,22.432,0,0,1,2.188-5.566l-3.039-4.633,6.375-6.6,4.74,2.874Zm4.889,12.222a9.841,9.841,0,1,0,13.915-.248A9.838,9.838,0,0,0,239.248,96.239Z" transform="translate(-38.096 -13.071)" fill="#d0d0d0"/>
    <path id="Trazado_606213" data-name="Trazado 606213" d="M84.978,12.766a9.729,9.729,0,0,1,2.3-1L87.745,9.5l3.84-.066.553,2.254a9.49,9.49,0,0,1,2.329.917l1.941-1.272L99.174,14l-1.206,1.982a9.73,9.73,0,0,1,1,2.3l2.271.471.066,3.84-2.254.553a9.49,9.49,0,0,1-.917,2.329l1.272,1.941-2.667,2.766-1.982-1.206a9.729,9.729,0,0,1-2.3,1l-.471,2.271-3.84.066L87.6,30.051a9.49,9.49,0,0,1-2.329-.917l-1.941,1.272L80.56,27.739l1.206-1.982a9.729,9.729,0,0,1-1-2.3L78.5,22.99l-.066-3.84,2.254-.553a9.49,9.49,0,0,1,.917-2.329l-1.272-1.941L83,11.561Zm2.048,5.12a4.123,4.123,0,1,0,5.83-.1A4.13,4.13,0,0,0,87.026,17.887Z" transform="translate(-13.661 -1.469)" fill="#d0d0d0"/>
    <path id="Trazado_606214" data-name="Trazado 606214" d="M577.634,46.367A1.437,1.437,0,1,1,576.2,44.93,1.438,1.438,0,0,1,577.634,46.367Z" transform="translate(-100.114 -7.653)" fill="#e0e0e0" fill-rule="evenodd"/>
    <path id="Trazado_606215" data-name="Trazado 606215" d="M622.644,17.567a1.437,1.437,0,1,1-1.437-1.437A1.438,1.438,0,0,1,622.644,17.567Z" transform="translate(-107.954 -2.636)" fill="#e0e0e0" fill-rule="evenodd"/>
    <path id="Trazado_606216" data-name="Trazado 606216" d="M531.047,313.162s-.017-.4-.025-1.164-.008-1.916-.017-3.411c-.008-3.006-.025-7.432-.041-13.139-.017-11.429-.041-27.97-.066-48.492-.016-41.051-.041-97.983-.066-161.546v-.05l.025-.05c1.858-3.7,3.865-7.664,5.872-11.661l-.025.1V46.6l.215.215c-83.019-.05-153.238-.091-188.509-.116l.1-.1c-.017,8.721-.033,15.418-.05,19.943q-.012,3.382-.025,5.12c-.008,1.148-.025,1.734-.025,1.734s-.017-.586-.025-1.734-.017-2.866-.025-5.12c-.008-4.525-.025-11.215-.05-19.943v-.1h.1c35.271-.025,105.49-.066,188.509-.116h.215V73.8l-.025.05c-2.015,4-4.013,7.961-5.872,11.661l.025-.1c-.025,63.563-.05,120.495-.066,161.546-.025,20.522-.05,37.063-.066,48.492-.017,5.706-.033,10.133-.041,13.139-.008,1.495-.017,2.634-.017,3.411S531.047,313.162,531.047,313.162Z" transform="translate(-60.67 -7.907)" fill="#e0e0e0"/>
    <path id="Trazado_606217" data-name="Trazado 606217" d="M567.727,142.591s-.025-.421-.041-1.239-.041-2.031-.074-3.617c-.058-3.179-.14-7.854-.248-13.832-.19-11.983-.462-29.226-.8-50.3v-.066c2.106-5.583,4.319-11.471,6.623-17.606V56c-.017-12.321-.025-25.98-.033-40.4l.206.206c-16.475,0-34.346,0-52.869.008l-87.5-.025h-.116l-.05-.107q-2.676-5.661-5.194-10.992l.165.1c-24.543-.033-44.9-.058-59.128-.074-7.1-.025-12.676-.041-16.483-.05-1.891-.008-3.345-.017-4.336-.025s-1.486-.025-1.486-.025.5-.017,1.486-.025,2.444-.017,4.336-.025c3.807-.008,9.381-.025,16.483-.05,14.229-.017,34.585-.041,59.128-.074h.116l.05.1q2.527,5.339,5.211,10.983L433,15.415c25.873,0,55.734-.017,87.5-.025,18.523,0,36.394,0,52.869.008h.206V15.6c0,14.427-.016,28.078-.025,40.4v.066q-3.493,9.2-6.656,17.59V73.6c.281,21.075.5,38.318.661,50.309.066,5.979.116,10.653.157,13.832.008,1.577.025,2.791.025,3.617V142.6Z" transform="translate(-60.33 -0.6)" fill="#e0e0e0"/>
    <path id="Trazado_606218" data-name="Trazado 606218" d="M538.74,156.061s-.025-.462-.05-1.371-.058-2.254-.107-4.013c-.083-3.526-.215-8.712-.372-15.377-.306-13.337-.743-32.562-1.28-56.164V79.1l.016-.033c2.453-5.748,5.054-11.842,7.763-18.193l-.017.066c.24-9.943.5-20.687.776-31.951l.2.2c-27.648,0-58.716.017-91.451.017-57.477-.025-109.8-.041-148.49-.058l.116-.05L293.77,41.149l-.041.041h-.058c-17.136-.149-30.786-.264-40.159-.347-4.674-.05-8.283-.091-10.736-.116-1.214-.017-2.139-.033-2.775-.041-.619-.008-.941-.025-.941-.025s.314-.008.941-.017h2.775c2.444.008,6.061.025,10.736.041,9.373.05,23.024.124,40.159.223l-.1.041,12.049-12.073.05-.05h.066c38.689-.017,91.013-.033,148.49-.058,32.735,0,63.8.017,91.451.017h.2v.2c-.289,11.264-.57,22.016-.818,31.951v.033l-.016.033c-2.717,6.342-5.327,12.429-7.8,18.176l.016-.066c.479,23.6.867,42.835,1.131,56.172.124,6.656.223,11.842.289,15.377.025,1.759.05,3.1.066,4.013s0,1.371,0,1.371Z" transform="translate(-41.64 -4.838)" fill="#e0e0e0"/>
    <path id="Trazado_606219" data-name="Trazado 606219" d="M241.424,42.717a1.437,1.437,0,1,1-1.437-1.437A1.438,1.438,0,0,1,241.424,42.717Z" transform="translate(-41.552 -7.017)" fill="#e0e0e0" fill-rule="evenodd"/>
    <path id="Trazado_606220" data-name="Trazado 606220" d="M345.754,4.347a1.437,1.437,0,1,1-1.437-1.437A1.438,1.438,0,0,1,345.754,4.347Z" transform="translate(-59.724 -0.333)" fill="#e0e0e0" fill-rule="evenodd"/>
    <path id="Trazado_606221" data-name="Trazado 606221" d="M628.828,340.229H598.81C607.6,310.351,609.6,254.3,608.125,217.24h11.041C618.588,254.212,621.256,309.938,628.828,340.229Z" transform="translate(-104.303 -37.666)" fill="#d0d0d0"/>
    <path id="Trazado_606222" data-name="Trazado 606222" d="M658.73,396.631a23.925,23.925,0,0,0-20.555-7.763c.718-6.623,1.379-13.634-1.23-19.687s-9.769-10.372-15.228-7.168c2.015-9.158-1.52-19.44-8.6-25.006a21.824,21.824,0,0,0-24.849-1.288c-7.548,4.806-11.991,14.675-10.81,24.006a22.045,22.045,0,0,0-19.745,9.794,25.662,25.662,0,0,0-2.411,23.164c-11.239-.6-21.958,14.1-21.735,26.154l131.61-.165a27.372,27.372,0,0,0-6.458-22.049Z" transform="translate(-92.939 -57.733)" fill="#d0d0d0"/>
    <path id="Trazado_606223" data-name="Trazado 606223" d="M602.725,150.581l25.336,8.729c5.591,5.739,1.842,13.841-2.89,16.962a9.029,9.029,0,0,1-2.395,17.028,8.076,8.076,0,1,1-14.245,7.391c-1.065-2.791-.562-6.095-2.073-8.679-1.412-2.42-4.22-3.592-6.5-5.219-5.673-4.055-8.308-11.561-7.424-18.473s4.922-13.164,10.19-17.73Z" transform="translate(-103.181 -26.055)" fill="#d0d0d0"/>
    <path id="Trazado_606224" data-name="Trazado 606224" d="M621.781,156.729a20.256,20.256,0,0,1,1.371,7.854,1.819,1.819,0,0,1-3.312.983l-.025-.041a75.241,75.241,0,0,1-.322,9.835,2.242,2.242,0,0,1-4.08,1.057,34.329,34.329,0,0,1-5.748-23.437l12.115,3.741Z" transform="translate(-106.15 -26.473)" fill="#e0e0e0"/>
    <path id="Trazado_606225" data-name="Trazado 606225" d="M591.274,120.53l-.14.107a33.742,33.742,0,0,0-12.594,26.335v6.417l12.742-8.861v-24Z" transform="translate(-100.772 -20.821)" fill="#e0e0e0"/>
    <path id="Trazado_606226" data-name="Trazado 606226" d="M638.04,120.51s.066.05.132.107a33.3,33.3,0,0,1,12.453,25.964v6.334l-12.577-8.729V120.51Z" transform="translate(-111.136 -20.817)" fill="#e0e0e0"/>
    <path id="Trazado_606227" data-name="Trazado 606227" d="M612.136,44.42c2.882,0,8.184,7.449,13.114,19.886a73.99,73.99,0,0,1,5.112,22.949l.025,53.562H608.1l-14.113.017-.025-48.6a74.7,74.7,0,0,1,1.33-14.154,89.308,89.308,0,0,1,3.757-13.758C603.663,51.82,609.254,44.42,612.136,44.42Z" transform="translate(-103.458 -7.564)" fill="#f5f5f5"/>
    <path id="Trazado_606228" data-name="Trazado 606228" d="M594.42,150.631c0,.05,8.068.14,18.019.19s18.019.058,18.019,0-8.068-.14-18.019-.19S594.42,150.573,594.42,150.631Z" transform="translate(-103.538 -26.056)" fill="#e0e0e0"/>
    <path id="Trazado_606229" data-name="Trazado 606229" d="M594.61,152.591c0,.05,8.068.14,18.019.19s18.019.058,18.019,0-8.068-.14-18.019-.19S594.61,152.533,594.61,152.591Z" transform="translate(-103.572 -26.398)" fill="#e0e0e0"/>
    <path id="Trazado_606230" data-name="Trazado 606230" d="M594.58,154.671c0,.05,8.068.14,18.019.19s18.019.058,18.019,0-8.068-.14-18.019-.19S594.58,154.614,594.58,154.671Z" transform="translate(-103.566 -26.761)" fill="#e0e0e0"/>
    <path id="Trazado_606231" data-name="Trazado 606231" d="M594.55,156.741c0,.05,8.068.14,18.019.19s18.019.058,18.019,0-8.068-.14-18.019-.19S594.55,156.683,594.55,156.741Z" transform="translate(-103.561 -27.121)" fill="#e0e0e0"/>
    <path id="Trazado_606232" data-name="Trazado 606232" d="M594.51,158.821c0,.05,8.068.14,18.019.19s18.019.058,18.019,0-8.068-.14-18.019-.19S594.51,158.763,594.51,158.821Z" transform="translate(-103.554 -27.483)" fill="#e0e0e0"/>
    <path id="Trazado_606233" data-name="Trazado 606233" d="M615.881,120.569s-.016.083-.041.248-.025.413-.041.727c-.025.628-.041,1.544-.05,2.667-.017,2.254,0,5.368.033,8.8s.083,6.549.132,8.8c.025,1.107.05,2.015.066,2.667.008.3.025.537.025.727a1.076,1.076,0,0,0,.025.256s.008-.091.016-.256v-3.394c-.016-2.271-.05-5.376-.074-8.8s-.066-6.532-.091-8.8c0-1.107-.008-2.015-.016-2.667v-.983Z" transform="translate(-107.252 -20.826)" fill="#e0e0e0"/>
    <path id="Trazado_606234" data-name="Trazado 606234" d="M593.96,120.511c0,.05,8.085.1,18.044.1s18.052-.041,18.052-.091-8.076-.1-18.052-.1S593.96,120.461,593.96,120.511Z" transform="translate(-103.458 -20.802)" fill="#e0e0e0"/>
    <path id="Trazado_606235" data-name="Trazado 606235" d="M612.007,141.908a.56.56,0,0,0-.223-.157,1.162,1.162,0,0,0-.743-.058,1.084,1.084,0,0,0-.8.76,1.25,1.25,0,0,0,.388,1.3,1.217,1.217,0,0,0,1.346.066,1.092,1.092,0,0,0,.537-.966,1.162,1.162,0,0,0-.231-.71c-.116-.14-.2-.182-.206-.173s.058.074.149.223a1.18,1.18,0,0,1,.157.661.961.961,0,0,1-.5.818A1.007,1.007,0,0,1,610.4,142.5a.968.968,0,0,1,.669-.677,1.122,1.122,0,0,1,.685,0c.157.05.24.1.248.091Z" transform="translate(-106.286 -24.501)" fill="#e0e0e0"/>
    <path id="Trazado_606236" data-name="Trazado 606236" d="M611.767,129.377a.56.56,0,0,0-.223-.157,1.162,1.162,0,0,0-.743-.058,1.084,1.084,0,0,0-.8.76,1.25,1.25,0,0,0,.388,1.3,1.217,1.217,0,0,0,1.346.066,1.092,1.092,0,0,0,.537-.966,1.162,1.162,0,0,0-.231-.71c-.116-.14-.2-.182-.206-.173s.058.074.149.223a1.179,1.179,0,0,1,.157.661.961.961,0,0,1-.5.818,1.007,1.007,0,0,1-1.486-1.164.968.968,0,0,1,.669-.677,1.122,1.122,0,0,1,.685,0c.157.05.239.1.248.091Z" transform="translate(-106.244 -22.319)" fill="#e0e0e0"/>
    <path id="Trazado_606237" data-name="Trazado 606237" d="M614.162,187.59a1.985,1.985,0,1,1-.132-.074" transform="translate(-106.458 -32.452)" fill="#e0e0e0"/>
    <path id="Trazado_606238" data-name="Trazado 606238" d="M605.644,80.964a9.829,9.829,0,1,0,13.626-2.75A9.831,9.831,0,0,0,605.644,80.964Z" transform="translate(-105.207 -13.164)" fill="#fff"/>
    <path id="Trazado_606239" data-name="Trazado 606239" d="M605.622,80.938a20.3,20.3,0,0,1,1.643-1.767,9.791,9.791,0,0,1,5.929-2.444,9.609,9.609,0,0,1,4.385.768,9.752,9.752,0,0,1,3.98,3.163,9.723,9.723,0,0,1,1.858,5.269,9.592,9.592,0,0,1-6.284,9.48,9.159,9.159,0,0,1-2.824.578,9.018,9.018,0,0,1-2.758-.247,9.633,9.633,0,0,1-6.862-6.177,9.787,9.787,0,0,1-.05-6.408,21.937,21.937,0,0,1,.991-2.2,5.581,5.581,0,0,0-.355.52,4.312,4.312,0,0,0-.372.669,7.168,7.168,0,0,0-.421.958,9.9,9.9,0,0,0,2.362,10.463,10.063,10.063,0,0,0,4.608,2.568,9.171,9.171,0,0,0,2.866.273,9.474,9.474,0,0,0,2.948-.594,9.963,9.963,0,0,0,6.565-9.885,9.508,9.508,0,0,0-.595-2.948,9.154,9.154,0,0,0-1.371-2.535,9.94,9.94,0,0,0-8.7-4,9.849,9.849,0,0,0-6.02,2.618,6.618,6.618,0,0,0-.719.76,4.706,4.706,0,0,0-.471.6,4.269,4.269,0,0,0-.339.529Z" transform="translate(-105.186 -13.138)" fill="#e0e0e0"/>
    <path id="Trazado_606240" data-name="Trazado 606240" d="M613.209,44.42c2.882,0,8.184,7.449,13.114,19.886h-26.2C604.736,51.811,610.327,44.42,613.209,44.42Z" transform="translate(-104.531 -7.564)" fill="#e0e0e0"/>
    <path id="Trazado_606241" data-name="Trazado 606241" d="M612.1,44.417s-.173.008-.5.058a4.538,4.538,0,0,0-1.346.644,17.774,17.774,0,0,0-3.906,4.236,72.167,72.167,0,0,0-8.96,19.407,87.978,87.978,0,0,0-3.113,14.617,75.849,75.849,0,0,0-.512,8.365q0,4.323-.008,8.911v40.382h18.416c6.235,0,12.362,0,18.2-.008h.215v-.215c-.016-14.4-.033-27.946-.041-40.176q0-4.583-.016-8.911V87.475c-.033-1.412-.173-2.775-.33-4.121a78.8,78.8,0,0,0-3.212-14.6,94.72,94.72,0,0,0-4.625-11.338,62.407,62.407,0,0,0-4.534-7.994,18.116,18.116,0,0,0-3.84-4.294c-.289-.165-.52-.347-.751-.446a3.329,3.329,0,0,0-.595-.215c-.339-.041-.5-.058-.5-.058s.173.041.5.1a4.395,4.395,0,0,1,.578.231,7.546,7.546,0,0,1,.735.454,18.375,18.375,0,0,1,3.766,4.319,61.573,61.573,0,0,1,4.459,8,96.185,96.185,0,0,1,4.559,11.33A79.211,79.211,0,0,1,629.871,83.4c.149,1.33.289,2.7.314,4.08v53.331l.215-.215H612.2c-6.235,0-12.354,0-18.2.008l.215.215c-.017-14.394-.033-27.937-.041-40.168q0-4.583-.008-8.911a75.2,75.2,0,0,1,.5-8.332,88.672,88.672,0,0,1,3.056-14.576,73.433,73.433,0,0,1,8.82-19.4,18.008,18.008,0,0,1,3.824-4.261,4.645,4.645,0,0,1,1.313-.669c.33-.058.5-.1.5-.1Z" transform="translate(-103.422 -7.56)" fill="#e0e0e0"/>
    <path id="Trazado_606242" data-name="Trazado 606242" d="M609.4,92.478a14.858,14.858,0,0,0,1.486-1.313c.867-.859,2.023-2.1,3.27-3.477,1.181-1.33,2.255-2.527,3.171-3.559a10.345,10.345,0,0,0,1.264-1.52,8.123,8.123,0,0,0-1.487,1.313c-.867.859-2.023,2.1-3.27,3.477-1.181,1.33-2.255,2.527-3.171,3.559A10.328,10.328,0,0,0,609.4,92.478Z" transform="translate(-106.147 -14.215)" fill="#e0e0e0"/>
    <path id="Trazado_606243" data-name="Trazado 606243" d="M612.9,93.253a22.521,22.521,0,0,0,3.163-2.973,21.688,21.688,0,0,0,2.849-3.27,21.521,21.521,0,0,0-3.163,2.973A21.338,21.338,0,0,0,612.9,93.253Z" transform="translate(-106.757 -14.982)" fill="#e0e0e0"/>
    <path id="Trazado_606244" data-name="Trazado 606244" d="M562.414,437.235c0,.116-125.912.215-281.19.215S0,437.35,0,437.235s125.887-.215,281.223-.215S562.414,437.119,562.414,437.235Z" transform="translate(0 -75.948)" fill="#263c71"/>
    <path id="Trazado_606245" data-name="Trazado 606245" d="M634.107,205.84H603.891a8.151,8.151,0,0,0-8.151,8.151v30.217a8.151,8.151,0,0,0,8.151,8.151h30.217a8.151,8.151,0,0,0,8.151-8.151V213.991A8.151,8.151,0,0,0,634.107,205.84Z" transform="translate(-103.768 -35.681)" fill="#263c71"/>
    <path id="Trazado_606246" data-name="Trazado 606246" d="M625.847,205.84H595.631a8.151,8.151,0,0,0-8.151,8.151v30.217a8.151,8.151,0,0,0,8.151,8.151h30.217A8.151,8.151,0,0,0,634,244.207V213.991A8.151,8.151,0,0,0,625.847,205.84Z" transform="translate(-102.33 -35.681)" fill="#1c2d55"/>
    <path id="Trazado_606247" data-name="Trazado 606247" d="M598.41,231.32l4.426-4.426,8.531,7.589,14.254-14.3,4.113,4.426L610.74,243.014Z" transform="translate(-104.233 -38.178)" fill="#fff"/>
    <path id="Trazado_606248" data-name="Trazado 606248" d="M614.808,376.261a9.3,9.3,0,0,1,4.814,5.45,16.289,16.289,0,0,1,.636,7.383c-.545,4.79-3.262,9.629-6.194,13.453-4.03-3.518-4.963-9.662-5.236-12.808-.438-4.971,1.8-14.221,5.987-13.477" transform="translate(-106.039 -65.358)" fill="#641493"/>
    <path id="Trazado_606249" data-name="Trazado 606249" d="M620.822,415.564a7.919,7.919,0,0,1,2.56-7.531,10.509,10.509,0,0,1,7.754-2.42,4.43,4.43,0,0,1,3.4,1.528,3.387,3.387,0,0,1,.05,3.435,6.85,6.85,0,0,1-2.544,2.5c-3.493,2.2-7.284,3.675-11.231,2.486" transform="translate(-108.106 -70.472)" fill="#641493"/>
    <path id="Trazado_606250" data-name="Trazado 606250" d="M614.59,431.254s.033-.355.14-.983c.124-.694.289-1.586.487-2.659a27.809,27.809,0,0,1,2.742-8.5,17.016,17.016,0,0,1,6.1-6.483,11.183,11.183,0,0,1,2.486-1.1c.306-.1.553-.14.718-.182s.256-.05.256-.033a17.988,17.988,0,0,0-3.328,1.528,17.6,17.6,0,0,0-5.921,6.441,29.891,29.891,0,0,0-2.808,8.382c-.248,1.115-.446,2.015-.595,2.643a5.445,5.445,0,0,1-.281.958Z" transform="translate(-107.052 -71.47)" fill="#263c71"/>
    <path id="Trazado_606251" data-name="Trazado 606251" d="M614.728,384.98s.025.149.05.429c.016.322.041.727.074,1.239.058,1.074.124,2.626.182,4.542.124,3.84.223,9.142.2,15.005s-.173,11.165-.33,15.005c-.074,1.916-.157,3.468-.223,4.542-.033.5-.066.917-.083,1.23a3.018,3.018,0,0,1-.05.429,2.47,2.47,0,0,1-.016-.429c0-.322.008-.727.016-1.239.025-1.115.066-2.659.107-4.542.091-3.84.2-9.142.223-15s-.033-11.157-.091-15c-.033-1.883-.058-3.427-.074-4.55v-1.239a1.447,1.447,0,0,1,.025-.429Z" transform="translate(-107.041 -66.884)" fill="#263c71"/>
    <path id="Trazado_606252" data-name="Trazado 606252" d="M609.212,418.208A18.515,18.515,0,0,0,599.1,404.64c-1.346-.644-3.105-1.065-4.22-.066s-.859,2.808-.322,4.2a15.825,15.825,0,0,0,14.559,9.827" transform="translate(-103.482 -70.193)" fill="#641493"/>
    <path id="Trazado_606253" data-name="Trazado 606253" d="M600.94,410.268s.314.116.859.372a10.5,10.5,0,0,1,.966.512,12.672,12.672,0,0,1,1.23.776c.438.314.933.644,1.412,1.057a17.124,17.124,0,0,1,1.5,1.363,20.56,20.56,0,0,1,2.849,3.658,19.871,19.871,0,0,1,1.875,4.245,16.547,16.547,0,0,1,.471,1.974,17.812,17.812,0,0,1,.306,3.2,7.523,7.523,0,0,1-.033,1.1,4.076,4.076,0,0,1-.107.925c-.083,0,.058-1.33-.173-3.452a14.814,14.814,0,0,0-.281-1.718,18.019,18.019,0,0,0-.5-1.932,21.022,21.022,0,0,0-1.866-4.162,21.749,21.749,0,0,0-2.783-3.617,18.2,18.2,0,0,0-1.453-1.363c-.462-.421-.941-.76-1.363-1.082-1.734-1.239-2.948-1.792-2.915-1.866Z" transform="translate(-104.674 -71.287)" fill="#263c71"/>
    <path id="Trazado_606254" data-name="Trazado 606254" d="M152.011,186.64H65.68V393.672h86.331Z" transform="translate(-11.44 -32.336)" fill="#e0e0e0"/>
    <path id="Trazado_606255" data-name="Trazado 606255" d="M103.554,186.64H35.3V393.672h68.254Z" transform="translate(-6.149 -32.336)" fill="#f5f5f5"/>
    <path id="Trazado_606256" data-name="Trazado 606256" d="M118.025,393.476c-.116,0-.215-46.37-.215-103.549s.1-103.557.215-103.557.215,46.353.215,103.557S118.14,393.476,118.025,393.476Z" transform="translate(-20.521 -32.289)" fill="#263c71"/>
    <path id="Trazado_606257" data-name="Trazado 606257" d="M153.708,215.44H133.03v2.131h20.678Z" transform="translate(-23.172 -37.353)" fill="#263c71"/>
    <path id="Trazado_606258" data-name="Trazado 606258" d="M153.708,222.83H133.03v2.131h20.678Z" transform="translate(-23.172 -38.64)" fill="#263c71"/>
    <path id="Trazado_606259" data-name="Trazado 606259" d="M153.708,230.21H133.03v2.131h20.678Z" transform="translate(-23.172 -39.925)" fill="#263c71"/>
    <path id="Trazado_606260" data-name="Trazado 606260" d="M98.443,197.31H43.84V388.965h54.6Z" transform="translate(-7.636 -34.195)" fill="#e0e0e0"/>
    <path id="Trazado_606261" data-name="Trazado 606261" d="M93.828,205.85H48.59V212.7H93.828Z" transform="translate(-8.464 -35.682)" fill="#d0d0d0"/>
    <path id="Trazado_606262" data-name="Trazado 606262" d="M55.444,205.85H48.59V212.7h6.854Z" transform="translate(-8.464 -35.682)" fill="#641493"/>
    <path id="Trazado_606263" data-name="Trazado 606263" d="M101.928,205.85H87.03V212.7h14.9Z" transform="translate(-15.159 -35.682)" fill="#f5f5f5"/>
    <path id="Trazado_606264" data-name="Trazado 606264" d="M93.828,220.63H48.59v6.854H93.828Z" transform="translate(-8.464 -38.257)" fill="#d0d0d0"/>
    <path id="Trazado_606265" data-name="Trazado 606265" d="M55.444,220.63H48.59v6.854h6.854Z" transform="translate(-8.464 -38.257)" fill="#fff"/>
    <path id="Trazado_606266" data-name="Trazado 606266" d="M101.928,220.63H87.03v6.854h14.9Z" transform="translate(-15.159 -38.257)" fill="#f5f5f5"/>
    <path id="Trazado_606267" data-name="Trazado 606267" d="M93.828,235.4H48.59v6.854H93.828Z" transform="translate(-8.464 -40.829)" fill="#d0d0d0"/>
    <path id="Trazado_606268" data-name="Trazado 606268" d="M55.444,235.4H48.59v6.854h6.854Z" transform="translate(-8.464 -40.829)" fill="#641493"/>
    <path id="Trazado_606269" data-name="Trazado 606269" d="M101.928,235.4H87.03v6.854h14.9Z" transform="translate(-15.159 -40.829)" fill="#f5f5f5"/>
    <path id="Trazado_606270" data-name="Trazado 606270" d="M93.828,250.18H48.59v6.854H93.828Z" transform="translate(-8.464 -43.404)" fill="#d0d0d0"/>
    <path id="Trazado_606271" data-name="Trazado 606271" d="M55.444,250.18H48.59v6.854h6.854Z" transform="translate(-8.464 -43.404)" fill="#fff"/>
    <path id="Trazado_606272" data-name="Trazado 606272" d="M101.928,250.18H87.03v6.854h14.9Z" transform="translate(-15.159 -43.404)" fill="#f5f5f5"/>
    <path id="Trazado_606273" data-name="Trazado 606273" d="M93.828,264.96H48.59v6.854H93.828Z" transform="translate(-8.464 -45.978)" fill="#d0d0d0"/>
    <path id="Trazado_606274" data-name="Trazado 606274" d="M55.444,264.96H48.59v6.854h6.854Z" transform="translate(-8.464 -45.978)" fill="#641493"/>
    <path id="Trazado_606275" data-name="Trazado 606275" d="M101.928,264.96H87.03v6.854h14.9Z" transform="translate(-15.159 -45.978)" fill="#f5f5f5"/>
    <path id="Trazado_606276" data-name="Trazado 606276" d="M93.828,279.73H48.59v6.854H93.828Z" transform="translate(-8.464 -48.551)" fill="#d0d0d0"/>
    <path id="Trazado_606277" data-name="Trazado 606277" d="M55.444,279.73H48.59v6.854h6.854Z" transform="translate(-8.464 -48.551)" fill="#641493"/>
    <path id="Trazado_606278" data-name="Trazado 606278" d="M101.928,279.73H87.03v6.854h14.9Z" transform="translate(-15.159 -48.551)" fill="#f5f5f5"/>
    <path id="Trazado_606279" data-name="Trazado 606279" d="M93.828,294.51H48.59v6.854H93.828Z" transform="translate(-8.464 -51.125)" fill="#d0d0d0"/>
    <path id="Trazado_606280" data-name="Trazado 606280" d="M55.444,294.51H48.59v6.854h6.854Z" transform="translate(-8.464 -51.125)" fill="#fff"/>
    <path id="Trazado_606281" data-name="Trazado 606281" d="M101.928,294.51H87.03v6.854h14.9Z" transform="translate(-15.159 -51.125)" fill="#f5f5f5"/>
    <path id="Trazado_606282" data-name="Trazado 606282" d="M93.828,309.29H48.59v6.854H93.828Z" transform="translate(-8.464 -53.7)" fill="#d0d0d0"/>
    <path id="Trazado_606283" data-name="Trazado 606283" d="M55.444,309.29H48.59v6.854h6.854Z" transform="translate(-8.464 -53.7)" fill="#fff"/>
    <path id="Trazado_606284" data-name="Trazado 606284" d="M101.928,309.29H87.03v6.854h14.9Z" transform="translate(-15.159 -53.7)" fill="#f5f5f5"/>
    <path id="Trazado_606285" data-name="Trazado 606285" d="M93.828,324.06H48.59v6.854H93.828Z" transform="translate(-8.464 -56.273)" fill="#d0d0d0"/>
    <path id="Trazado_606286" data-name="Trazado 606286" d="M55.444,324.06H48.59v6.854h6.854Z" transform="translate(-8.464 -56.273)" fill="#fff"/>
    <path id="Trazado_606287" data-name="Trazado 606287" d="M101.928,324.06H87.03v6.854h14.9Z" transform="translate(-15.159 -56.273)" fill="#f5f5f5"/>
    <path id="Trazado_606288" data-name="Trazado 606288" d="M93.828,338.84H48.59v6.854H93.828Z" transform="translate(-8.464 -58.847)" fill="#d0d0d0"/>
    <path id="Trazado_606289" data-name="Trazado 606289" d="M55.444,338.84H48.59v6.854h6.854Z" transform="translate(-8.464 -58.847)" fill="#641493"/>
    <path id="Trazado_606290" data-name="Trazado 606290" d="M101.928,338.84H87.03v6.854h14.9Z" transform="translate(-15.159 -58.847)" fill="#f5f5f5"/>
    <path id="Trazado_606291" data-name="Trazado 606291" d="M93.828,353.62H48.59v6.854H93.828Z" transform="translate(-8.464 -61.421)" fill="#d0d0d0"/>
    <path id="Trazado_606292" data-name="Trazado 606292" d="M55.444,353.62H48.59v6.854h6.854Z" transform="translate(-8.464 -61.421)" fill="#fff"/>
    <path id="Trazado_606293" data-name="Trazado 606293" d="M101.928,353.62H87.03v6.854h14.9Z" transform="translate(-15.159 -61.421)" fill="#f5f5f5"/>
    <path id="Trazado_606294" data-name="Trazado 606294" d="M93.828,368.4H48.59v6.854H93.828Z" transform="translate(-8.464 -63.996)" fill="#d0d0d0"/>
    <path id="Trazado_606295" data-name="Trazado 606295" d="M55.444,368.4H48.59v6.854h6.854Z" transform="translate(-8.464 -63.996)" fill="#641493"/>
    <path id="Trazado_606296" data-name="Trazado 606296" d="M101.928,368.4H87.03v6.854h14.9Z" transform="translate(-15.159 -63.996)" fill="#f5f5f5"/>
    <path id="Trazado_606297" data-name="Trazado 606297" d="M93.828,383.17H48.59v6.854H93.828Z" transform="translate(-8.464 -66.569)" fill="#d0d0d0"/>
    <path id="Trazado_606298" data-name="Trazado 606298" d="M55.444,383.17H48.59v6.854h6.854Z" transform="translate(-8.464 -66.569)" fill="#fff"/>
    <path id="Trazado_606299" data-name="Trazado 606299" d="M101.928,383.17H87.03v6.854h14.9Z" transform="translate(-15.159 -66.569)" fill="#f5f5f5"/>
    <path id="Trazado_606300" data-name="Trazado 606300" d="M93.828,397.95H48.59V404.8H93.828Z" transform="translate(-8.464 -69.143)" fill="#d0d0d0"/>
    <path id="Trazado_606301" data-name="Trazado 606301" d="M55.444,397.95H48.59V404.8h6.854Z" transform="translate(-8.464 -69.143)" fill="#641493"/>
    <path id="Trazado_606302" data-name="Trazado 606302" d="M101.928,397.95H87.03V404.8h14.9Z" transform="translate(-15.159 -69.143)" fill="#f5f5f5"/>
    <path id="Trazado_606303" data-name="Trazado 606303" d="M93.828,412.73H48.59v6.854H93.828Z" transform="translate(-8.464 -71.717)" fill="#d0d0d0"/>
    <path id="Trazado_606304" data-name="Trazado 606304" d="M55.444,412.73H48.59v6.854h6.854Z" transform="translate(-8.464 -71.717)" fill="#fff"/>
    <path id="Trazado_606305" data-name="Trazado 606305" d="M101.928,412.73H87.03v6.854h14.9Z" transform="translate(-15.159 -71.717)" fill="#f5f5f5"/>
    <path id="Trazado_606306" data-name="Trazado 606306" d="M146.674,393.627c0-1.842-.083-85.967-.2-207.032l.2.2c-34.37,0-72.052.008-111.4.017h-.017l.215-.215c-.017,79.477-.041,152.148-.05,207.032l-.165-.165c68.526.1,110.114.157,111.419.165-1.3,0-42.893.066-111.419.165H35.09v-.165c-.017-54.884-.033-127.556-.05-207.032v-.215h.231c39.35,0,77.032.008,111.4.016h.2v.2c-.041,60.582-.074,112.361-.1,149-.066,36.509-.1,57.113-.107,58.03Z" transform="translate(-6.103 -32.291)" fill="#263c71"/>
    <path id="Trazado_606307" data-name="Trazado 606307" d="M459.806,115.98H162.644a9.276,9.276,0,0,0-9.274,9.274v209.9a9.276,9.276,0,0,0,9.274,9.274H276.7l-5.533,36.666h82.689l-4.616-36.666H459.806a9.276,9.276,0,0,0,9.274-9.274V125.262a9.276,9.276,0,0,0-9.274-9.274Z" transform="translate(-26.715 -20.028)" fill="#1c2d55"/>
    <path id="Trazado_606308" data-name="Trazado 606308" d="M347.247,365.506c4.038,5.781-2.288,12.106-8.06,8.06a2.017,2.017,0,0,1-.5-.5c-4.03-5.772,2.288-12.1,8.06-8.06A2.018,2.018,0,0,1,347.247,365.506Z" transform="translate(-58.773 -63.183)" fill="#263c71"/>
    <path id="Trazado_606309" data-name="Trazado 606309" d="M171.44,125.688H454.555a8.018,8.018,0,0,1,8.01,8.01V307.723H163.43V133.69a8.018,8.018,0,0,1,8.01-8.01Z" transform="translate(-28.467 -21.718)" fill="#263c71"/>
    <path id="Trazado_606310" data-name="Trazado 606310" d="M404.21,392.582c0,.1-24.915.182-55.635.182s-55.635-.083-55.635-.182,24.907-.182,55.635-.182S404.21,392.483,404.21,392.582Z" transform="translate(-51.025 -68.176)" fill="#263c71"/>
    <path id="Trazado_606311" data-name="Trazado 606311" d="M221.612,143.1h-21.8v4.6h21.8Z" transform="translate(-34.804 -24.752)" fill="#1c2d55"/>
    <path id="Trazado_606312" data-name="Trazado 606312" d="M210.711,168.05h-10.9v4.6h10.9Z" transform="translate(-34.804 -29.098)" fill="#641493"/>
    <path id="Trazado_606313" data-name="Trazado 606313" d="M225.1,180.6H209.75v4.6H225.1Z" transform="translate(-36.535 -31.284)" fill="#1c2d55"/>
    <path id="Trazado_606314" data-name="Trazado 606314" d="M240.234,180.6H231.29v4.6h8.944Z" transform="translate(-40.287 -31.284)" fill="#1c2d55"/>
    <path id="Trazado_606315" data-name="Trazado 606315" d="M335.359,180.6h-18.4v4.6h18.4Z" transform="translate(-55.209 -31.284)" fill="#1c2d55"/>
    <path id="Trazado_606316" data-name="Trazado 606316" d="M397.785,192.84H366.71v4.6h31.075Z" transform="translate(-63.875 -33.416)" fill="#1c2d55"/>
    <path id="Trazado_606317" data-name="Trazado 606317" d="M459.243,180.6H444.32v4.6h14.923Z" transform="translate(-77.393 -31.284)" fill="#1c2d55"/>
    <path id="Trazado_606318" data-name="Trazado 606318" d="M497.94,180.6H467.93v4.6h30.01Z" transform="translate(-81.506 -31.284)" fill="#1c2d55"/>
    <path id="Trazado_606319" data-name="Trazado 606319" d="M225.1,192.84H209.75v4.6H225.1Z" transform="translate(-36.535 -33.416)" fill="#1c2d55"/>
    <path id="Trazado_606320" data-name="Trazado 606320" d="M213.682,205.04H198.33v4.6h15.352Z" transform="translate(-34.546 -35.541)" fill="#641493"/>
    <path id="Trazado_606321" data-name="Trazado 606321" d="M215.406,217.24H208.23v4.6h7.176Z" transform="translate(-36.27 -37.666)" fill="#1c2d55"/>
    <path id="Trazado_606322" data-name="Trazado 606322" d="M247.278,242.94H240.11v4.6h7.168Z" transform="translate(-41.823 -42.143)" fill="#1c2d55"/>
    <path id="Trazado_606323" data-name="Trazado 606323" d="M373.594,289.39H359.58v4.6h14.014Z" transform="translate(-62.633 -50.234)" fill="#1c2d55"/>
    <path id="Trazado_606324" data-name="Trazado 606324" d="M464.109,289.39H429.78v4.6h34.329Z" transform="translate(-74.861 -50.234)" fill="#1c2d55"/>
    <path id="Trazado_606325" data-name="Trazado 606325" d="M309.7,277.2H295.69v4.6H309.7Z" transform="translate(-51.504 -48.11)" fill="#e0e0e0"/>
    <path id="Trazado_606326" data-name="Trazado 606326" d="M248.224,266.73H234.21v4.6h14.014Z" transform="translate(-40.796 -46.287)" fill="#1c2d55"/>
    <path id="Trazado_606327" data-name="Trazado 606327" d="M351.4,289.39H329.3v4.6h22.1Z" transform="translate(-57.359 -50.234)" fill="#1c2d55"/>
    <path id="Trazado_606328" data-name="Trazado 606328" d="M219.866,229.67H208.23v4.6h11.636Z" transform="translate(-36.27 -39.831)" fill="#1c2d55"/>
    <path id="Trazado_606329" data-name="Trazado 606329" d="M229.817,243.15H208.23v4.6h21.587Z" transform="translate(-36.27 -42.179)" fill="#1c2d55"/>
    <path id="Trazado_606330" data-name="Trazado 606330" d="M239.817,253.48H208.23v4.6h31.587Z" transform="translate(-36.27 -43.979)" fill="#1c2d55"/>
    <path id="Trazado_606331" data-name="Trazado 606331" d="M309.117,253.48H277.53v4.6h31.587Z" transform="translate(-48.341 -43.979)" fill="#1c2d55"/>
    <path id="Trazado_606332" data-name="Trazado 606332" d="M278.225,277.2H233.87v4.6h44.355Z" transform="translate(-40.736 -48.11)" fill="#1c2d55"/>
    <path id="Trazado_606333" data-name="Trazado 606333" d="M308.887,289.39H233.87v4.6h75.017Z" transform="translate(-40.736 -50.234)" fill="#1c2d55"/>
    <path id="Trazado_606334" data-name="Trazado 606334" d="M281.407,301.58H206.39v4.6h75.017Z" transform="translate(-35.95 -52.357)" fill="#1c2d55"/>
    <path id="Trazado_606335" data-name="Trazado 606335" d="M269.472,253.48H250.52v4.6h18.952Z" transform="translate(-43.637 -43.979)" fill="#1c2d55"/>
    <path id="Trazado_606336" data-name="Trazado 606336" d="M239.9,217.24H220.34v4.6H239.9Z" transform="translate(-38.38 -37.666)" fill="#1c2d55"/>
    <path id="Trazado_606337" data-name="Trazado 606337" d="M245.115,229.67H225.56v4.6h19.555Z" transform="translate(-39.289 -39.831)" fill="#1c2d55"/>
    <path id="Trazado_606338" data-name="Trazado 606338" d="M330.059,229.67H278.28v4.6h51.779Z" transform="translate(-48.472 -39.831)" fill="#1c2d55"/>
    <path id="Trazado_606339" data-name="Trazado 606339" d="M402.477,229.67h-59.8v4.6h59.8Z" transform="translate(-59.689 -39.831)" fill="#1c2d55"/>
    <path id="Trazado_606340" data-name="Trazado 606340" d="M269.316,229.67H253.13v4.6h16.186Z" transform="translate(-44.091 -39.831)" fill="#1c2d55"/>
    <path id="Trazado_606341" data-name="Trazado 606341" d="M272.9,217.24H247.27v4.6H272.9Z" transform="translate(-43.07 -37.666)" fill="#1c2d55"/>
    <path id="Trazado_606342" data-name="Trazado 606342" d="M296,217.24H281.73v4.6H296Z" transform="translate(-49.073 -37.666)" fill="#e0e0e0"/>
    <path id="Trazado_606343" data-name="Trazado 606343" d="M247.294,192.84h-16v4.6h16Z" transform="translate(-40.287 -33.416)" fill="#1c2d55"/>
    <path id="Trazado_606344" data-name="Trazado 606344" d="M342.862,192.84H263.84v4.6h79.022Z" transform="translate(-45.957 -33.416)" fill="#1c2d55"/>
    <path id="Trazado_606345" data-name="Trazado 606345" d="M459.06,229.67H421.7v4.6h37.36Z" transform="translate(-73.453 -39.831)" fill="#1c2d55"/>
    <path id="Trazado_606346" data-name="Trazado 606346" d="M418.328,289.39H380.96v4.6h37.368Z" transform="translate(-66.357 -50.234)" fill="#1c2d55"/>
    <path id="Trazado_606347" data-name="Trazado 606347" d="M420.861,180.6H343.02v4.6h77.841Z" transform="translate(-59.749 -31.284)" fill="#1c2d55"/>
    <path id="Trazado_606348" data-name="Trazado 606348" d="M299.675,180.6H245.51v4.6h54.165Z" transform="translate(-42.764 -31.284)" fill="#1c2d55"/>
    <path id="Trazado_606349" data-name="Trazado 606349" d="M236.278,154.91H199.81v4.6h36.468Z" transform="translate(-34.804 -26.809)" fill="#1c2d55"/>
    <path id="Trazado_606350" data-name="Trazado 606350" d="M298.317,154.91H248.38v4.6h49.937Z" transform="translate(-43.264 -26.809)" fill="#1c2d55"/>
    <path id="Trazado_606351" data-name="Trazado 606351" d="M246.394,143.1H230.34v4.6h16.054Z" transform="translate(-40.122 -24.752)" fill="#e0e0e0"/>
    <path id="Trazado_606352" data-name="Trazado 606352" d="M189.229,143.1H184.77v4.6h4.459Z" transform="translate(-32.184 -24.752)" fill="#1c2d55"/>
    <path id="Trazado_606353" data-name="Trazado 606353" d="M189.229,155.29H184.77v4.6h4.459Z" transform="translate(-32.184 -26.876)" fill="#1c2d55"/>
    <path id="Trazado_606354" data-name="Trazado 606354" d="M189.229,167.48H184.77v4.6h4.459Z" transform="translate(-32.184 -28.999)" fill="#1c2d55"/>
    <path id="Trazado_606355" data-name="Trazado 606355" d="M189.229,179.67H184.77v4.6h4.459Z" transform="translate(-32.184 -31.122)" fill="#1c2d55"/>
    <path id="Trazado_606356" data-name="Trazado 606356" d="M189.229,191.86H184.77v4.6h4.459Z" transform="translate(-32.184 -33.245)" fill="#1c2d55"/>
    <path id="Trazado_606357" data-name="Trazado 606357" d="M189.229,204.05H184.77v4.6h4.459Z" transform="translate(-32.184 -35.369)" fill="#1c2d55"/>
    <path id="Trazado_606358" data-name="Trazado 606358" d="M189.229,216.24H184.77v4.6h4.459Z" transform="translate(-32.184 -37.492)" fill="#1c2d55"/>
    <path id="Trazado_606359" data-name="Trazado 606359" d="M189.229,228.43H184.77v4.6h4.459Z" transform="translate(-32.184 -39.615)" fill="#1c2d55"/>
    <path id="Trazado_606360" data-name="Trazado 606360" d="M189.229,240.62H184.77v4.6h4.459Z" transform="translate(-32.184 -41.739)" fill="#1c2d55"/>
    <path id="Trazado_606361" data-name="Trazado 606361" d="M245.148,327.91H237.98v4.6h7.168Z" transform="translate(-41.452 -56.943)" fill="#e0e0e0"/>
    <path id="Trazado_606362" data-name="Trazado 606362" d="M228.147,327.91H206.56v4.6h21.587Z" transform="translate(-35.979 -56.943)" fill="#641493"/>
    <path id="Trazado_606363" data-name="Trazado 606363" d="M189.229,327.3H184.77v4.6h4.459Z" transform="translate(-32.184 -56.837)" fill="#1c2d55"/>
    <path id="Trazado_606364" data-name="Trazado 606364" d="M189.229,252.82H184.77v4.6h4.459Z" transform="translate(-32.184 -43.864)" fill="#1c2d55"/>
    <path id="Trazado_606365" data-name="Trazado 606365" d="M189.229,265.01H184.77v4.6h4.459Z" transform="translate(-32.184 -45.987)" fill="#1c2d55"/>
    <path id="Trazado_606366" data-name="Trazado 606366" d="M189.229,277.2H184.77v4.6h4.459Z" transform="translate(-32.184 -48.11)" fill="#1c2d55"/>
    <path id="Trazado_606367" data-name="Trazado 606367" d="M189.229,289.39H184.77v4.6h4.459Z" transform="translate(-32.184 -50.234)" fill="#1c2d55"/>
    <path id="Trazado_606368" data-name="Trazado 606368" d="M189.229,301.58H184.77v4.6h4.459Z" transform="translate(-32.184 -52.357)" fill="#1c2d55"/>
    <path id="Trazado_606369" data-name="Trazado 606369" d="M228.258,314.41H206.39v4.6h21.868Z" transform="translate(-35.95 -54.592)" fill="#1c2d55"/>
    <path id="Trazado_606370" data-name="Trazado 606370" d="M287.455,314.41H237.98v4.6h49.475Z" transform="translate(-41.452 -54.592)" fill="#1c2d55"/>
    <path id="Trazado_606371" data-name="Trazado 606371" d="M189.229,314.41H184.77v4.6h4.459Z" transform="translate(-32.184 -54.592)" fill="#1c2d55"/>
    <path id="Trazado_606372" data-name="Trazado 606372" d="M332.284,154.87H316.23v4.6h16.054Z" transform="translate(-55.082 -26.802)" fill="#e0e0e0"/>
    <g id="Grupo_1014721" data-name="Grupo 1014721" transform="translate(285.336 208.626)" opacity="0.3">
      <path id="Trazado_606373" data-name="Trazado 606373" d="M356.487,252.42H345.52v89.1H476.189l-3.4-86.934Z" transform="translate(-345.52 -252.42)"/>
    </g>
    <path id="Trazado_606374" data-name="Trazado 606374" d="M486.461,236.48H355.71v93.846H486.461Z" transform="translate(-61.959 -41.018)" fill="#e0e0e0"/>
    <path id="Trazado_606375" data-name="Trazado 606375" d="M486.787,330.642H355.21V235.97H486.787Zm-130.751-.826H485.961V236.8H356.036Z" transform="translate(-61.872 -40.929)" fill="#263c71"/>
    <path id="Trazado_606376" data-name="Trazado 606376" d="M406.911,248.62H385.77v4.459h21.141Z" transform="translate(-67.195 -43.132)" fill="#1c2d55"/>
    <path id="Trazado_606377" data-name="Trazado 606377" d="M396.34,272.81H385.77v4.459h10.57Z" transform="translate(-67.195 -47.346)" fill="#641493"/>
    <path id="Trazado_606378" data-name="Trazado 606378" d="M410.289,284.98H395.4v4.459h14.889Z" transform="translate(-68.872 -49.465)" fill="#1c2d55"/>
    <path id="Trazado_606379" data-name="Trazado 606379" d="M424.971,284.98H416.3v4.459h8.671Z" transform="translate(-72.513 -49.465)" fill="#1c2d55"/>
    <path id="Trazado_606380" data-name="Trazado 606380" d="M410.289,296.85H395.4v4.459h14.889Z" transform="translate(-68.872 -51.533)" fill="#1c2d55"/>
    <path id="Trazado_606381" data-name="Trazado 606381" d="M399.219,308.68H384.33v4.459h14.889Z" transform="translate(-66.944 -53.594)" fill="#641493"/>
    <path id="Trazado_606382" data-name="Trazado 606382" d="M400.883,320.51H393.93v4.459h6.953Z" transform="translate(-68.616 -55.654)" fill="#1c2d55"/>
    <path id="Trazado_606383" data-name="Trazado 606383" d="M405.219,332.57H393.93v4.459h11.289Z" transform="translate(-68.616 -57.755)" fill="#1c2d55"/>
    <path id="Trazado_606384" data-name="Trazado 606384" d="M424.641,320.51H405.68v4.459h18.961Z" transform="translate(-70.663 -55.654)" fill="#1c2d55"/>
    <path id="Trazado_606385" data-name="Trazado 606385" d="M429.7,332.57H410.74v4.459H429.7Z" transform="translate(-71.544 -57.755)" fill="#1c2d55"/>
    <path id="Trazado_606386" data-name="Trazado 606386" d="M484.3,332.57H461.87v4.459H484.3Z" transform="translate(-80.45 -57.755)" fill="#1c2d55"/>
    <path id="Trazado_606387" data-name="Trazado 606387" d="M453.171,332.57H437.48v4.459h15.69Z" transform="translate(-76.202 -57.755)" fill="#1c2d55"/>
    <path id="Trazado_606388" data-name="Trazado 606388" d="M456.647,320.51H431.79v4.459h24.857Z" transform="translate(-75.211 -55.654)" fill="#1c2d55"/>
    <path id="Trazado_606389" data-name="Trazado 606389" d="M479.051,320.51H465.21v4.459h13.841Z" transform="translate(-81.032 -55.654)" fill="#fff"/>
    <path id="Trazado_606390" data-name="Trazado 606390" d="M431.817,296.85H416.3v4.459h15.517Z" transform="translate(-72.513 -51.533)" fill="#1c2d55"/>
    <path id="Trazado_606391" data-name="Trazado 606391" d="M482.61,284.98H430.08v4.459h52.53Z" transform="translate(-74.913 -49.465)" fill="#1c2d55"/>
    <path id="Trazado_606392" data-name="Trazado 606392" d="M421.14,260.07H385.77v4.459h35.37Z" transform="translate(-67.195 -45.127)" fill="#1c2d55"/>
    <path id="Trazado_606393" data-name="Trazado 606393" d="M481.3,260.07H432.87v4.459H481.3Z" transform="translate(-75.399 -45.127)" fill="#1c2d55"/>
    <path id="Trazado_606394" data-name="Trazado 606394" d="M430.937,248.62H415.37v4.459h15.567Z" transform="translate(-72.351 -43.132)" fill="#fff"/>
    <path id="Trazado_606395" data-name="Trazado 606395" d="M375.5,248.62H371.18v4.459H375.5Z" transform="translate(-64.654 -43.132)" fill="#1c2d55"/>
    <path id="Trazado_606396" data-name="Trazado 606396" d="M375.5,260.44H371.18V264.9H375.5Z" transform="translate(-64.654 -45.191)" fill="#1c2d55"/>
    <path id="Trazado_606397" data-name="Trazado 606397" d="M375.5,272.26H371.18v4.459H375.5Z" transform="translate(-64.654 -47.25)" fill="#1c2d55"/>
    <path id="Trazado_606398" data-name="Trazado 606398" d="M375.5,284.08H371.18v4.459H375.5Z" transform="translate(-64.654 -49.309)" fill="#1c2d55"/>
    <path id="Trazado_606399" data-name="Trazado 606399" d="M375.5,295.9H371.18v4.459H375.5Z" transform="translate(-64.654 -51.368)" fill="#1c2d55"/>
    <path id="Trazado_606400" data-name="Trazado 606400" d="M375.5,307.73H371.18v4.459H375.5Z" transform="translate(-64.654 -53.428)" fill="#1c2d55"/>
    <path id="Trazado_606401" data-name="Trazado 606401" d="M375.5,319.55H371.18v4.459H375.5Z" transform="translate(-64.654 -55.487)" fill="#1c2d55"/>
    <path id="Trazado_606402" data-name="Trazado 606402" d="M375.5,331.37H371.18v4.459H375.5Z" transform="translate(-64.654 -57.546)" fill="#1c2d55"/>
    <g id="Grupo_1014722" data-name="Grupo 1014722" transform="translate(177.757 290.935)" opacity="0.3">
      <path id="Trazado_606403" data-name="Trazado 606403" d="M260.777,385.048c1.66-8.258-3.716-32.958-3.716-32.958l-40.151,5.1-1.66,27.673,45.519.182Z" transform="translate(-215.25 -352.09)"/>
    </g>
    <path id="Trazado_606404" data-name="Trazado 606404" d="M207.3,352.09s1.759,32.843-5.6,44.14l49.995,1.23a216.076,216.076,0,0,0,3-45.37Z" transform="translate(-35.133 -61.155)" fill="#641493"/>
    <path id="Trazado_606405" data-name="Trazado 606405" d="M255.913,359.745c0,.116-10.405.215-23.247.215s-23.247-.1-23.247-.215,10.405-.215,23.247-.215S255.913,359.629,255.913,359.745Z" transform="translate(-36.478 -62.451)" fill="#263c71"/>
    <path id="Trazado_606406" data-name="Trazado 606406" d="M251.152,373.355c0,.116-8.316.215-18.581.215s-18.581-.1-18.581-.215,8.316-.215,18.581-.215S251.152,373.239,251.152,373.355Z" transform="translate(-37.274 -64.822)" fill="#263c71"/>
    <path id="Trazado_606407" data-name="Trazado 606407" d="M251.642,380.785c0,.116-8.316.215-18.581.215s-18.581-.1-18.581-.215,8.316-.215,18.581-.215S251.642,380.669,251.642,380.785Z" transform="translate(-37.359 -66.116)" fill="#263c71"/>
    <path id="Trazado_606408" data-name="Trazado 606408" d="M250.232,388.215c0,.116-8.316.215-18.581.215s-18.581-.1-18.581-.215,8.316-.215,18.581-.215S250.232,388.1,250.232,388.215Z" transform="translate(-37.113 -67.41)" fill="#263c71"/>
    <g id="Grupo_1014723" data-name="Grupo 1014723" transform="translate(159.895 291.554)" opacity="0.3">
      <path id="Trazado_606409" data-name="Trazado 606409" d="M197.633,352.84s2.139,24.3,2.139,32.958H193.62Z" transform="translate(-193.62 -352.84)"/>
    </g>
    <path id="Trazado_606410" data-name="Trazado 606410" d="M179.449,352.84s1.759,32.843-5.6,44.14h16.459s4.757-17.953,3.873-44.14Z" transform="translate(-30.282 -61.286)" fill="#e0e0e0"/>
    <path id="Trazado_606411" data-name="Trazado 606411" d="M459.328,166.18l27.681-31.827L459.13,114.1l21.876-12.874s34.313,20.852,33.875,33.371c-.4,11.4-43.653,40.226-43.653,40.226l-11.9-8.638Z" transform="translate(-79.973 -17.459)" fill="#ffbf9d"/>
    <path id="Trazado_606412" data-name="Trazado 606412" d="M417.378,254.545a40.113,40.113,0,1,1,2.676-36.592A39.932,39.932,0,0,1,417.378,254.545Zm-66.222-40.366a37.421,37.421,0,1,0,17.309-14.98A37.4,37.4,0,0,0,351.156,214.179Z" transform="translate(-59.742 -33.532)" fill="#641493"/>
    <g id="Grupo_1014724" data-name="Grupo 1014724" transform="translate(283.24 159.973)" opacity="0.3">
      <path id="Trazado_606413" data-name="Trazado 606413" d="M417.378,254.545a40.113,40.113,0,1,1,2.676-36.592A39.932,39.932,0,0,1,417.378,254.545Zm-66.222-40.366a37.421,37.421,0,1,0,17.309-14.98A37.4,37.4,0,0,0,351.156,214.179Z" transform="translate(-342.982 -193.505)"/>
    </g>
    <path id="Trazado_606414" data-name="Trazado 606414" d="M415.408,252.415a40.113,40.113,0,1,1,2.676-36.592A39.932,39.932,0,0,1,415.408,252.415Zm-66.222-40.366a37.421,37.421,0,1,0,17.309-14.98A37.4,37.4,0,0,0,349.186,212.049Z" transform="translate(-59.399 -33.161)" fill="#641493"/>
    <path id="Trazado_606415" data-name="Trazado 606415" d="M489.315,175.389l1.577,2.453c1.4,2.188-.314,5.7-3.4,7.127l-52.382,32.075-4.889-7.152,51.06-35.758C484.575,171.632,487.507,172.573,489.315,175.389Z" transform="translate(-74.937 -29.905)" fill="#641493"/>
    <path id="Trazado_606416" data-name="Trazado 606416" d="M384.128,199.592a5.862,5.862,0,0,1-.661.017c-.429.017-1.065-.058-1.883.017a29.148,29.148,0,0,0-6.813,1.107,35.529,35.529,0,0,0-4.492,1.61,38.507,38.507,0,0,0-4.823,2.593,37.473,37.473,0,0,0-4.848,3.617,35.613,35.613,0,0,0-4.5,4.674,33.07,33.07,0,0,0-3.51,5.442,35.453,35.453,0,0,0-2.221,5.624,33.684,33.684,0,0,0-1.354,10.124,32.543,32.543,0,0,0,.842,6.863c.157.8.372,1.4.471,1.825a3.987,3.987,0,0,1,.149.644,3.927,3.927,0,0,1-.231-.619,18.007,18.007,0,0,1-.545-1.809,30.622,30.622,0,0,1-.983-6.887,33.46,33.46,0,0,1,1.28-10.24,34.947,34.947,0,0,1,2.221-5.7,33.116,33.116,0,0,1,3.551-5.525,35.413,35.413,0,0,1,4.559-4.724,37.409,37.409,0,0,1,4.914-3.634,39.635,39.635,0,0,1,4.889-2.585,34.481,34.481,0,0,1,4.55-1.577,26.92,26.92,0,0,1,6.887-.983,18.386,18.386,0,0,1,1.891.066,3.889,3.889,0,0,1,.652.066Z" transform="translate(-60.739 -34.569)" fill="#fff"/>
    <path id="Trazado_606417" data-name="Trazado 606417" d="M427.927,244.868c-.1-.033.644-1.842,1.164-4.914.058-.388.124-.793.182-1.206s.074-.867.116-1.321c.107-.908.083-1.891.1-2.915a31.132,31.132,0,0,0-3.047-12.932c-.471-.917-.892-1.8-1.387-2.568-.24-.388-.454-.776-.694-1.131s-.479-.677-.7-1c-1.842-2.519-3.3-3.807-3.237-3.881a8.632,8.632,0,0,1,1.016.908,11.8,11.8,0,0,1,1.107,1.156A20.685,20.685,0,0,1,423.9,216.7c.231.322.479.652.735.991s.471.735.727,1.131a27.732,27.732,0,0,1,1.445,2.585,32.986,32.986,0,0,1,2.279,6.375,32.625,32.625,0,0,1,.8,6.722c-.025,1.041-.025,2.032-.14,2.956-.05.462-.074.908-.149,1.33s-.149.826-.215,1.214a20.909,20.909,0,0,1-.479,2.065,11.32,11.32,0,0,1-.479,1.528,8.015,8.015,0,0,1-.5,1.263Z" transform="translate(-73.23 -36.927)" fill="#fff"/>
    <path id="Trazado_606418" data-name="Trazado 606418" d="M394.32,217.158c.083.091-5.327,5.145-12.065,11.3s-12.28,11.074-12.354,10.983,5.318-5.145,12.065-11.305,12.272-11.074,12.354-10.983Z" transform="translate(-64.431 -37.65)" fill="#fff"/>
    <path id="Trazado_606419" data-name="Trazado 606419" d="M403.625,225.05a5.236,5.236,0,0,1-.38.372c-.3.256-.677.586-1.156.991-1.049.884-2.5,2.106-4.278,3.609-3.617,3.039-8.605,7.251-14.064,11.966s-10.348,9.034-13.882,12.173c-1.734,1.544-3.155,2.8-4.187,3.716-.471.413-.851.743-1.148,1a3.067,3.067,0,0,1-.421.33,2.51,2.51,0,0,1,.363-.388c.281-.273.644-.628,1.1-1.057.958-.908,2.354-2.213,4.1-3.815,3.485-3.2,8.341-7.556,13.808-12.272s10.48-8.894,14.146-11.875c1.833-1.495,3.328-2.684,4.369-3.5.5-.38.892-.694,1.206-.933a3.62,3.62,0,0,1,.438-.306Z" transform="translate(-63.422 -39.027)" fill="#fff"/>
    <g id="Grupo_1014725" data-name="Grupo 1014725" transform="translate(290.01 169.623)" opacity="0.3">
      <path id="Trazado_606420" data-name="Trazado 606420" d="M351.188,252.716l55.09-47.526s5.45,4.162,7.754,7.895L357.654,261.61a28.747,28.747,0,0,1-6.474-8.894Z" transform="translate(-351.18 -205.19)" fill="#fff"/>
    </g>
    <g id="Grupo_1014726" data-name="Grupo 1014726" transform="translate(302.522 183.692)" opacity="0.3">
      <path id="Trazado_606421" data-name="Trazado 606421" d="M366.331,269.012l53.686-46.766s.264-.438,1,2.923l-52.084,45.3A6.68,6.68,0,0,1,366.331,269.012Z" transform="translate(-366.331 -222.227)" fill="#fff"/>
    </g>
    <path id="Trazado_606422" data-name="Trazado 606422" d="M455.083,179.88s-16.161,17.8-16.516,18.457-4.715,10.942-3.642,13.023,9.167,9.39,9.167,9.39,2.89-1.247.157-6.136l-2.733-4.881,1.47-4.93s2.18,6.251,3.444,7.622,6.268,3.716,7.523,2.51a4.943,4.943,0,0,0,1.445-2.676s3.427,2.733,5.847-1.6c0,0,3.047-.471,4.352-2.6s1.14-6.26,1.14-6.26a1.938,1.938,0,0,0-2.965-.669,8.9,8.9,0,0,0-2.882,3.815l-1.412-1.883a26.815,26.815,0,0,1,2.155-7.35c.983-1.883,7.325-6,8.076-9.257.636-2.766-4.905-4.6-7.738-4.443a4.244,4.244,0,0,0-1.247.256Z" transform="translate(-75.727 -31.159)" fill="#ffbf9d"/>
    <path id="Trazado_606423" data-name="Trazado 606423" d="M457.669,207.4a2.387,2.387,0,0,0,0,.479,6.941,6.941,0,0,0,.223,1.3A8.439,8.439,0,0,0,460,212.931a8.577,8.577,0,0,0,3.683,2.238,7.4,7.4,0,0,0,1.288.264,1.52,1.52,0,0,0,.479.017c0-.041-.677-.1-1.718-.446a8.776,8.776,0,0,1-5.682-5.88c-.314-1.049-.339-1.734-.38-1.734Z" transform="translate(-79.717 -35.951)" fill="#eab9a0"/>
    <path id="Trazado_606424" data-name="Trazado 606424" d="M451.088,206.74a4.058,4.058,0,0,0,0,.512,4.574,4.574,0,0,0,.058.6,7.046,7.046,0,0,0,.14.793,10.969,10.969,0,0,0,.619,1.99,12.348,12.348,0,0,0,2.849,4.212,10.9,10.9,0,0,0,1.627,1.3c.239.173.479.3.685.421a3.8,3.8,0,0,0,.537.281,2.611,2.611,0,0,0,.479.2c.025-.041-.644-.347-1.6-1.032a12.835,12.835,0,0,1-1.569-1.33,14.228,14.228,0,0,1-1.6-1.932,17.214,17.214,0,0,1-1.371-2.3,10.578,10.578,0,0,1-.5-1.85c-.281-1.14-.322-1.875-.372-1.866Z" transform="translate(-78.569 -35.837)" fill="#eab9a0"/>
    <path id="Trazado_606425" data-name="Trazado 606425" d="M443.556,205.18a1.845,1.845,0,0,0-.19.669,3.727,3.727,0,0,0,.2,1.676,3.128,3.128,0,0,0,.908,1.42c.314.3.562.421.57.4a4.766,4.766,0,0,1-1.486-4.162Z" transform="translate(-77.223 -35.566)" fill="#eab9a0"/>
    <path id="Trazado_606426" data-name="Trazado 606426" d="M507.677,138.565c-.041.066-.884-.529-2.42-1.082a12.45,12.45,0,0,0-6.235-.586,10.7,10.7,0,0,0-5.541,2.841c-1.189,1.115-1.784,1.957-1.842,1.908-.025-.017.1-.24.363-.619a12.191,12.191,0,0,1,1.263-1.511,10.262,10.262,0,0,1,5.682-3.047,11.95,11.95,0,0,1,6.417.727,9.8,9.8,0,0,1,1.742.917c.388.256.578.429.562.454Z" transform="translate(-85.635 -23.57)" fill="#eab9a0"/>
    <path id="Trazado_606427" data-name="Trazado 606427" d="M407.049,42.444a94.728,94.728,0,0,0-.941-16.194A32.9,32.9,0,0,0,399.956,11.4c-.512-.644-4.418-4.806-5.17-4.476-.537.231,2.37,4.352,2.246,4.922-1.189,5.467-.132,11.239,2.015,16.409a73.575,73.575,0,0,0,8,14.179" transform="translate(-68.754 -1.03)" fill="#263c71"/>
    <path id="Trazado_606428" data-name="Trazado 606428" d="M393.243,22.007C389.486,8.959,378.767.271,365.826,4.392l-1.173.446a24.265,24.265,0,0,0-14.592,29.5c3.32,11.289,7.135,23.717,9.456,29.564,4.815,12.106,17.706,9.323,17.706,9.323.025-.008,8.052,18.507,8.052,18.507l25.592-13.122L393.243,22Z" transform="translate(-60.803 -0.412)" fill="#ffbf9d"/>
    <path id="Trazado_606429" data-name="Trazado 606429" d="M383.2,85.83a31.492,31.492,0,0,0,14.039-10.76S397.6,86.441,385.05,90l-1.842-4.17Z" transform="translate(-66.747 -12.902)" fill="#eab9a0"/>
    <path id="Trazado_606430" data-name="Trazado 606430" d="M360.71,53.663a1.851,1.851,0,0,0,2.345,1.107,1.777,1.777,0,0,0,1.189-2.254A1.862,1.862,0,0,0,361.9,51.4a1.777,1.777,0,0,0-1.189,2.254Z" transform="translate(-62.814 -8.763)" fill="#263c71"/>
    <path id="Trazado_606431" data-name="Trazado 606431" d="M355.753,45.057c.306.14,1.247-1.338,3.113-2.048,1.858-.735,3.6-.306,3.716-.611.058-.14-.314-.462-1.082-.669a5.09,5.09,0,0,0-3.08.206,4.872,4.872,0,0,0-2.37,1.916C355.646,44.512,355.6,45,355.753,45.057Z" transform="translate(-61.953 -7.069)" fill="#263c71"/>
    <path id="Trazado_606432" data-name="Trazado 606432" d="M380.06,46.883a1.851,1.851,0,0,0,2.345,1.107,1.777,1.777,0,0,0,1.189-2.254,1.862,1.862,0,0,0-2.345-1.115,1.777,1.777,0,0,0-1.189,2.254Z" transform="translate(-66.184 -7.582)" fill="#263c71"/>
    <path id="Trazado_606433" data-name="Trazado 606433" d="M378.263,37.467c.306.14,1.247-1.338,3.113-2.048,1.858-.735,3.6-.306,3.716-.611.058-.14-.314-.462-1.082-.669a5.09,5.09,0,0,0-3.08.206,4.872,4.872,0,0,0-2.37,1.916C378.156,36.922,378.115,37.409,378.263,37.467Z" transform="translate(-65.874 -5.747)" fill="#263c71"/>
    <path id="Trazado_606434" data-name="Trazado 606434" d="M375.678,55.347a13.119,13.119,0,0,0-3.245.619c-.5.132-.983.215-1.189-.083a2.6,2.6,0,0,1-.223-1.536c0-1.33.008-2.717.017-4.179-.025-5.929-.24-10.727-.479-10.719s-.413,4.806-.388,10.736c.017,1.453.033,2.849.05,4.179a2.921,2.921,0,0,0,.471,1.965,1.294,1.294,0,0,0,1.049.4,3.589,3.589,0,0,0,.851-.2,13.46,13.46,0,0,0,3.08-1.173Z" transform="translate(-64.477 -6.698)" fill="#263c71"/>
    <path id="Trazado_606435" data-name="Trazado 606435" d="M383.244,57.707c-.314.1.462,2.131-.718,4.236s-3.427,2.709-3.336,3c.025.14.636.206,1.553-.116a5.436,5.436,0,0,0,2.833-2.395,4.691,4.691,0,0,0,.471-3.5c-.248-.875-.669-1.3-.8-1.23Z" transform="translate(-66.048 -9.875)" fill="#263c71"/>
    <path id="Trazado_606436" data-name="Trazado 606436" d="M374.869,28.256c.38.438,2.155-.52,4.443-1.1,2.279-.619,4.294-.661,4.41-1.23.05-.264-.446-.628-1.346-.842a7.49,7.49,0,0,0-3.576.107,7.708,7.708,0,0,0-3.171,1.66c-.677.636-.933,1.189-.76,1.4Z" transform="translate(-65.287 -4.167)" fill="#263c71"/>
    <path id="Trazado_606437" data-name="Trazado 606437" d="M353.777,37.167c.5.3,1.61-.636,3.146-1.255,1.52-.669,2.965-.809,3.1-1.371.05-.264-.322-.611-1.049-.793a4.9,4.9,0,0,0-5.038,2.114c-.38.644-.388,1.156-.165,1.3Z" transform="translate(-61.595 -5.687)" fill="#263c71"/>
    <path id="Trazado_606438" data-name="Trazado 606438" d="M405.55,36.9c.173-.165,7.408-5.682,10.331,2.742s-6.128,9.621-6.227,9.381-4.1-12.115-4.1-12.115Z" transform="translate(-70.64 -5.919)" fill="#ffbf9d"/>
    <path id="Trazado_606439" data-name="Trazado 606439" d="M411.976,45.5a3.469,3.469,0,0,0,.471.083,1.583,1.583,0,0,0,1.107-.355c.776-.636,1.032-2.3.545-3.84a5.193,5.193,0,0,0-1.14-1.957,1.79,1.79,0,0,0-1.495-.743.8.8,0,0,0-.727.7c-.033.273.083.421.041.454-.017.033-.231-.074-.281-.446a.944.944,0,0,1,.149-.644,1.194,1.194,0,0,1,.735-.5,2.174,2.174,0,0,1,1.982.776,5.325,5.325,0,0,1,1.321,2.172c.537,1.718.215,3.6-.875,4.377a1.63,1.63,0,0,1-1.42.239c-.33-.116-.446-.289-.421-.314Z" transform="translate(-71.501 -6.483)" fill="#eab9a0"/>
    <path id="Trazado_606440" data-name="Trazado 606440" d="M351.065,18.1c-1.619-.289.983-6.1,3.832-8.762,4.294-4.013,11.57-8.052,16.69-8.3,6.169-.306,11.8.917,16.359,5.087A35.1,35.1,0,0,1,397.4,21.818a10.61,10.61,0,0,1,.553,5.558c-.545,2.263-2.411,4.2-1.445,6.747a3.766,3.766,0,0,1,0,2.874c-.991,2.164-3.4,1.255-4.79,0-2.973-2.676-4.509-6.557-5.954-10.29a26.121,26.121,0,0,1-2.18-8.209c-.066-1.544.149-3.1,0-4.641a5.339,5.339,0,0,0-2.023-4.013,5.8,5.8,0,0,0-.917-.462,9.3,9.3,0,0,0-9.3,1.288c-4.187,3.287-11.454,8.539-14.121,7.647-3.832-1.288-5.079-2.56-5.079-2.56l-1.082,2.337Z" transform="translate(-61.063)" fill="#263c71"/>
    <path id="Trazado_606441" data-name="Trazado 606441" d="M335.715,110.112s-1.206-3.4,2.882-7.977S375.082,88.6,375.082,88.6s11.776,13.337,21.967,4.236c7.416-6.631,7.68-13.246,7.68-13.246h29.308l3.667,30.118-11.694.066-90.3.347Z" transform="translate(-58.447 -13.69)" fill="#641493"/>
    <path id="Trazado_606442" data-name="Trazado 606442" d="M448.37,79.5s7.647-1.544,14.633,1.627c11.743,5.318,32.133,22.248,32.133,22.248l-24.8,20.365-17.177-14.1L448.378,79.5Z" transform="translate(-78.099 -13.609)" fill="#641493"/>
    <path id="Trazado_606443" data-name="Trazado 606443" d="M458.98,115.878a1.839,1.839,0,0,1-.314-.165c-.2-.124-.5-.3-.859-.553a25.1,25.1,0,0,1-2.915-2.37,26.721,26.721,0,0,1-3.675-4.2,15.393,15.393,0,0,1-2.733-6.26c-.859-4.8-.1-9.365,1.445-12.173a9.268,9.268,0,0,1,2.411-2.89,8.067,8.067,0,0,1,.867-.545c.206-.116.314-.173.322-.157.017.033-.4.3-1.082.834a9.613,9.613,0,0,0-2.246,2.9c-1.437,2.766-2.131,7.251-1.3,11.95a15.315,15.315,0,0,0,2.634,6.111,28.253,28.253,0,0,0,3.559,4.2,32.377,32.377,0,0,0,2.808,2.453A11.11,11.11,0,0,1,458.98,115.878Z" transform="translate(-78.056 -14.905)" fill="#263c71"/>
    <path id="Trazado_606444" data-name="Trazado 606444" d="M435.141,116.059c0,.116-20.183.3-45.081.4s-45.09.083-45.09-.033,20.183-.3,45.09-.4S435.141,115.944,435.141,116.059Z" transform="translate(-60.088 -20.025)" fill="#263c71"/>
    <path id="Trazado_606445" data-name="Trazado 606445" d="M322.832,110.063c.058.124.107.248.157.38a6.836,6.836,0,0,1,.372,1.817,5.18,5.18,0,0,0,.041.875,2.89,2.89,0,0,0,.24.512,8.869,8.869,0,0,1,.322,3.609,6.947,6.947,0,0,0,.669,3.873c.694,1.131,2.3,1.809,3.4,1.049a1.741,1.741,0,0,0,1.3,1.9,2.493,2.493,0,0,0,2.312-.718,4.732,4.732,0,0,0,1.164-2.221,1.923,1.923,0,0,0,1.916,1.858,2.944,2.944,0,0,0,2.428-1.486,6.751,6.751,0,0,0,.834-2.833,32.607,32.607,0,0,1,.6-3.79s1.247.2,1.817.256c.768.074.165.017.165.017a7.846,7.846,0,0,0,1.189-2.073c.793-1.635,1.4-2.676,2.007-4.154.454-1.115.751-2.221.066-2.948-1.652-1.742-4.889,1.8-4.889,1.8-.454-1.23-4.22-1.437-4.947.206-.3-.908-.182-1.429-.917-2.04a3.013,3.013,0,0,0-2.667-.669,2.174,2.174,0,0,0-1.619,2.089,3.525,3.525,0,0,0-5.929-.132,3.788,3.788,0,0,0-.545,1.189,1.424,1.424,0,0,0-.091.5.6.6,0,0,0,.074.215c.165.314.388.595.537.925Z" transform="translate(-56.127 -18.149)" fill="#ffbf9d"/>
    <path id="Trazado_606446" data-name="Trazado 606446" d="M317.523,108.179a2.83,2.83,0,0,0-2.254.751,4.691,4.691,0,0,0-.7,3.13c1.131.215,1.726.256,2.857.471.24.041.438-.017.636.124.52.372.438,1.627.652,2.23a2.184,2.184,0,0,0,2.758,1.181,2.926,2.926,0,0,0,1.767-2.61,4.55,4.55,0,0,0-1.156-3.056A6.325,6.325,0,0,0,317.523,108.179Z" transform="translate(-54.789 -18.669)" fill="#ffbf9d"/>
    <path id="Trazado_606447" data-name="Trazado 606447" d="M329.984,107.42c.215.008.215,3.411,0,7.589s-.562,7.556-.768,7.548-.215-3.411,0-7.589S329.778,107.412,329.984,107.42Z" transform="translate(-57.316 -18.537)" fill="#eab9a0"/>
    <path id="Trazado_606448" data-name="Trazado 606448" d="M336.241,108.3c.206-.008.479,3.08.149,6.887s-1.123,6.8-1.321,6.763c-.215-.041.24-3.072.553-6.829C335.952,111.372,336.018,108.308,336.241,108.3Z" transform="translate(-58.354 -18.691)" fill="#eab9a0"/>
    <path id="Trazado_606449" data-name="Trazado 606449" d="M342.412,109.14c.215,0,.306,2.568-.091,5.69s-.875,5.591-1.074,5.574c-.223-.025-.083-2.568.314-5.665s.644-5.6.859-5.6Z" transform="translate(-59.421 -18.837)" fill="#eab9a0"/>
    <path id="Trazado_606450" data-name="Trazado 606450" d="M320.13,108.8c0-.091.545-.215,1.33.149a4.281,4.281,0,0,1,2.089,2.444,8.654,8.654,0,0,1,.52,3.122c-.091.941-.776,1.214-.793,1.09-.058-.083.306-.413.248-1.107a15.075,15.075,0,0,0-.694-2.833,4.6,4.6,0,0,0-1.635-2.238c-.595-.413-1.074-.5-1.057-.619Z" transform="translate(-55.762 -18.761)" fill="#eab9a0"/>
    <path id="Trazado_606451" data-name="Trazado 606451" d="M462.985,399.561a23.858,23.858,0,0,0,10.554-23.6l9.381-6.152,1.33-.851,74.216-48.641a23.874,23.874,0,0,0,36.683-19.72l-4.311-.718-4.724,6.607L575.254,304.2l-6.061-9.3,2.288-10.859,9.034-5.9-6.119-1.6c-6.474-1.908-10.067-.355-16.161,3.625a23.867,23.867,0,0,0-10.562,23.561l-75.455,49.458-2.345,1.519-7.152,4.691a23.872,23.872,0,0,0-25.823.165c-6.07,3.956-14.254,12.2-15.137,18.853l4.311.718,9.034-5.9,10.859,2.287,6.061,9.3-2.287,10.859-9.72,2.75.685,3.146a23.838,23.838,0,0,0,22.272-2.023Z" transform="translate(-73.464 -47.854)" fill="#e0e0e0"/>
    <g id="Grupo_1014727" data-name="Grupo 1014727" transform="translate(348.296 227.873)" opacity="0.3">
      <path id="Trazado_606452" data-name="Trazado 606452" d="M462.985,399.561a23.858,23.858,0,0,0,10.554-23.6l9.381-6.152,1.33-.851,74.216-48.641a23.874,23.874,0,0,0,36.683-19.72l-4.311-.718-4.724,6.607L575.254,304.2l-6.061-9.3,2.288-10.859,9.034-5.9-6.119-1.6c-6.474-1.908-10.067-.355-16.161,3.625a23.867,23.867,0,0,0-10.562,23.561l-75.455,49.458-2.345,1.519-7.152,4.691a23.872,23.872,0,0,0-25.823.165c-6.07,3.956-14.254,12.2-15.137,18.853l4.311.718,9.034-5.9,10.859,2.287,6.061,9.3-2.287,10.859-9.72,2.75.685,3.146a23.838,23.838,0,0,0,22.272-2.023Z" transform="translate(-421.76 -275.727)"/>
    </g>
    <path id="Trazado_606453" data-name="Trazado 606453" d="M458.686,398.81a23.858,23.858,0,0,0,10.554-23.6l9.381-6.152,1.33-.851,74.216-48.641a23.874,23.874,0,0,0,36.683-19.72l-9.034,5.9-10.86-2.287-6.061-9.3,2.287-10.859,9.034-5.9a23.874,23.874,0,0,0-32.834,25.584L467.927,352.44l-2.345,1.52-7.152,4.691a23.87,23.87,0,0,0-36.65,19.737l9.034-5.9,10.859,2.288,6.061,9.3-2.287,10.859-9.034,5.9A23.838,23.838,0,0,0,458.686,398.81Z" transform="translate(-73.467 -47.821)" fill="#e0e0e0"/>
    <path id="Trazado_606454" data-name="Trazado 606454" d="M458.656,398.765s-.429.281-1.288.809a25.4,25.4,0,0,1-4.071,1.85,24.207,24.207,0,0,1-7.168,1.28,24.513,24.513,0,0,1-9.778-1.842l-.149-.058.132-.091c2.676-1.751,5.715-3.741,9.026-5.9l-.041.066c.7-3.353,1.462-6.995,2.271-10.868l.017.091c-1.9-2.9-3.939-6.02-6.07-9.29l.083.058c-3.378-.71-7.044-1.478-10.859-2.279l.107-.017c-2.791,1.825-5.863,3.832-9.026,5.9l-.231.149v-.281a24,24,0,0,1,11.512-20.084,23.794,23.794,0,0,1,12.412-3.535,24.231,24.231,0,0,1,12.974,3.724h-.19c25.163-16.492,54.066-35.444,84.935-55.685l-.091.2a24.071,24.071,0,0,1,33.115-25.8l.355.149-.322.215q-4.546,2.961-9.034,5.888l.091-.132q-1.152,5.475-2.287,10.859l-.025-.149q3.06,4.695,6.061,9.3l-.124-.083q5.487,1.152,10.859,2.288l-.149.025q4.571-2.985,9.034-5.888l.314-.206v.372a24.32,24.32,0,0,1-3.84,12.594A24.1,24.1,0,0,1,565.5,323.368a24.444,24.444,0,0,1-11.429-3.708h.19c-36.848,24.1-66.5,43.487-84.968,55.569l.041-.091a23.932,23.932,0,0,1-5.393,19.035,24.92,24.92,0,0,1-3.8,3.576c-.958.669-1.453,1-1.453,1s.479-.355,1.429-1.041a25.54,25.54,0,0,0,3.749-3.6,23.859,23.859,0,0,0,5.285-18.944V375.1l.041-.033c18.449-12.115,48.071-31.554,84.877-55.718l.1-.066.1.058a24.074,24.074,0,0,0,11.264,3.642,23.388,23.388,0,0,0,11.974-2.428,23.662,23.662,0,0,0,13.155-20.786l.306.165q-4.472,2.911-9.034,5.9l-.066.041-.083-.017q-5.376-1.127-10.859-2.288l-.083-.017-.041-.066q-3.01-4.608-6.062-9.3l-.05-.074.017-.083q1.127-5.388,2.287-10.859l.017-.083.074-.05q4.484-2.923,9.034-5.9l.033.363a23.676,23.676,0,0,0-32.562,25.361l.017.132-.107.074c-30.877,20.224-59.8,39.16-84.968,55.643l-.1.066-.1-.058a23.832,23.832,0,0,0-12.775-3.683,23.8,23.8,0,0,0-20.654,12.2,23.779,23.779,0,0,0-2.981,11.074l-.231-.124c3.171-2.065,6.243-4.063,9.043-5.888l.05-.033h.058c3.815.818,7.482,1.594,10.859,2.3h.05l.025.058c2.131,3.27,4.162,6.4,6.053,9.3l.025.041v.05c-.826,3.865-1.6,7.507-2.312,10.859v.041l-.041.025c-3.312,2.155-6.367,4.137-9.043,5.88l-.017-.149a23.911,23.911,0,0,0,16.855.636,25.765,25.765,0,0,0,4.08-1.809c.859-.512,1.3-.768,1.3-.768Z" transform="translate(-73.438 -47.776)" fill="#263c71"/>
    <path id="Trazado_606455" data-name="Trazado 606455" d="M576.439,321.92a3.633,3.633,0,0,1-.537-.347,12.1,12.1,0,0,1-1.321-1.14,19.229,19.229,0,0,1-5.434-10.025,12.323,12.323,0,0,1-.231-1.734,2.166,2.166,0,0,1,0-.644c.066,0,.173.9.512,2.312a21.808,21.808,0,0,0,5.36,9.885c1,1.065,1.7,1.643,1.66,1.693Z" transform="translate(-99.093 -53.48)" fill="#263c71"/>
    <path id="Trazado_606456" data-name="Trazado 606456" d="M164.55,55.47H105.281a8.151,8.151,0,0,0-8.151,8.151V122.89a8.151,8.151,0,0,0,8.151,8.151H164.55a8.151,8.151,0,0,0,8.151-8.151V63.621A8.151,8.151,0,0,0,164.55,55.47Z" transform="translate(-16.918 -9.489)" fill="#641493"/>
    <g id="Grupo_1014728" data-name="Grupo 1014728" transform="translate(80.211 45.982)" opacity="0.3">
      <path id="Trazado_606457" data-name="Trazado 606457" d="M164.55,55.47H105.281a8.151,8.151,0,0,0-8.151,8.151V122.89a8.151,8.151,0,0,0,8.151,8.151H164.55a8.151,8.151,0,0,0,8.151-8.151V63.621A8.151,8.151,0,0,0,164.55,55.47Z" transform="translate(-97.13 -55.47)"/>
    </g>
    <path id="Trazado_606458" data-name="Trazado 606458" d="M151.13,55.47H91.861a8.151,8.151,0,0,0-8.151,8.151V122.89a8.151,8.151,0,0,0,8.151,8.151H151.13a8.151,8.151,0,0,0,8.151-8.151V63.621A8.151,8.151,0,0,0,151.13,55.47Z" transform="translate(-14.581 -9.489)" fill="#641493"/>
    <path id="Trazado_606459" data-name="Trazado 606459" d="M113.572,79.3a20.419,20.419,0,0,1,5-2.172l1.032-4.947,8.357-.149,1.206,4.905a20.323,20.323,0,0,1,5.071,2l4.22-2.766,6.012,5.805-2.618,4.319a20.419,20.419,0,0,1,2.172,5l4.947,1.032.149,8.357-4.905,1.206a20.321,20.321,0,0,1-2,5.071l2.766,4.22-5.805,6.012-4.319-2.618a20.419,20.419,0,0,1-5,2.172l-1.032,4.947-8.357.149-1.206-4.905a20.322,20.322,0,0,1-5.071-2l-4.22,2.766-6.012-5.805,2.618-4.319a20.418,20.418,0,0,1-2.172-5l-4.947-1.032-.149-8.357,4.905-1.206a20.322,20.322,0,0,1,2-5.071l-2.766-4.22,5.805-6.012Zm4.451,11.132a8.965,8.965,0,1,0,12.676-.223A8.963,8.963,0,0,0,118.023,90.429Z" transform="translate(-17.298 -12.373)" fill="#fff"/>
    <g id="Grupo_1014729" data-name="Grupo 1014729" transform="translate(69.129 45.982)" opacity="0.3">
      <path id="Trazado_606460" data-name="Trazado 606460" d="M142.3,55.47l-58.592,46.8v9.117L153.574,55.47Z" transform="translate(-83.71 -55.47)" fill="#fff"/>
    </g>
    <g id="Grupo_1014730" data-name="Grupo 1014730" transform="translate(69.195 53.943)" opacity="0.3">
      <path id="Trazado_606461" data-name="Trazado 606461" d="M83.8,123.685l75.5-58.575V81.552L91.685,132.72a7.893,7.893,0,0,1-7.895-7.961v-1.074Z" transform="translate(-83.79 -65.11)" fill="#fff"/>
    </g>
  </g>
</svg>
