<svg xmlns="http://www.w3.org/2000/svg" width="1070" height="545.353" viewBox="0 0 1070 545.353">
  <g id="Grupo_1014983" data-name="Grupo 1014983" transform="translate(-265 -11621.092)">
    <g id="Group_51" data-name="Group 51" transform="translate(407.871 11621.092)">
      <path id="Trazado_608154" data-name="Trazado 608154" d="M69.908,552.2l807.441.192c19.971-44.162,38.5-90.256,41-138.548,4.094-78.987-33.75-144.243-106.012-178.051-33.09-15.484-70.406-22.811-100.232-44.685-11.131-8.164-19.854-18.726-28.6-29.243C635.438,104.065,567.036,59.393,490.931,46.97c-50.372-8.223-103.485-2.552-145.7,27.7-39.5,28.308-60.8,74.216-83.9,115.133-6.418,11.363-13.314,22.821-23.468,31.122-20.174,16.491-42.375,11.246-66.16,10.71-69.83-1.569-135.424,48.051-158.043,112.815C-11.056,415.209-1.19,497.511,56.1,543.317,60.826,547.091,64.833,548.9,69.908,552.2Z" transform="translate(-3.447 -11.6)" fill="#f7f7f7"/>
      <g id="Grupo_1014849" data-name="Grupo 1014849" transform="translate(-12 54.836)">
        <path id="Trazado_608155" data-name="Trazado 608155" d="M1151.037,462.35s-55.607,74.863-48.453,135.84c0,0,2.7-113.372-7.675-153.684,0,0-32.019,74.712-25.5,120.352,0,0-27.169-66.37-72.034-91.9,0,0,14.358,105.759,52.657,137.885,0,0-47-60.245-114.887-80.487,0,0,4.494,59.571,73.045,86.465,0,0-47.658-17.389-134.606-10.275,0,0,29.247,43.838,84.576,52.744h197.607s18.988-160.132-4.732-196.943Z" transform="translate(-223.835 -173.209)" fill="#fff"/>
        <path id="Trazado_608156" data-name="Trazado 608156" d="M-12,576.643s46.231,27.191,78.2,70.4c0,0-38.361-78.762-8.853-141.716,0,0,29.508,84.1,30.491,132.3,0,0-6.536-81.151,41.489-116.565,0,0-2.791,69.6-12.628,104.266,0,0,18.655-59.9,90.066-69.788,0,0-30.445,66.408-60.666,85.311,0,0,23.38-23.393,96.171-29.3,0,0-27.348,43.724-80.354,46.538,0,0,67.075-9.16,102.489,21.825H52.428S-.2,614.024-12,576.643Z" transform="translate(12 -189.407)" fill="#d1d1d1"/>
        <path id="Trazado_608157" data-name="Trazado 608157" d="M813.121,180.162V539.4H454.373V74.739H813.121Z" transform="translate(-112.197 -74.739)" fill="#d1d1d1"/>
      </g>
      <path id="Trazado_608158" data-name="Trazado 608158" d="M791.878,0H428.194V507.148H791.878Z" transform="translate(-117.225)" fill="#e8e8e8"/>
      <path id="Trazado_608159" data-name="Trazado 608159" d="M596.731,166.18H468.1V43.893h128.63Zm-116.6-12.03H584.7V55.926H480.131Z" transform="translate(-127.852 -11.689)" fill="#fff"/>
      <path id="Trazado_608160" data-name="Trazado 608160" d="M548.794,97.027l71.058-71.059,19.579,19.576L568.37,116.607l-19.576,19.576-19.579-19.576L502.1,89.488l19.579-19.579Z" transform="translate(-136.905 -6.916)" fill="#7e19b8"/>
      <path id="Trazado_608161" data-name="Trazado 608161" d="M827.8,80.2H689.6a.317.317,0,0,0-.317.317v18.86a.317.317,0,0,0,.317.317H827.8a.317.317,0,0,0,.317-.317V80.521A.317.317,0,0,0,827.8,80.2Z" transform="translate(-186.753 -21.359)" fill="#fff"/>
      <path id="Trazado_608162" data-name="Trazado 608162" d="M827.8,127.229H689.6a.317.317,0,0,0-.317.317v18.86a.317.317,0,0,0,.317.317H827.8a.317.317,0,0,0,.317-.317v-18.86A.317.317,0,0,0,827.8,127.229Z" transform="translate(-186.753 -33.881)" fill="#fff"/>
      <path id="Trazado_608163" data-name="Trazado 608163" d="M767.213,174.253H689.519a.238.238,0,0,0-.238.238v19.017a.238.238,0,0,0,.238.238h77.693a.239.239,0,0,0,.238-.238V174.491A.239.239,0,0,0,767.213,174.253Z" transform="translate(-186.753 -46.404)" fill="#fff"/>
      <path id="Trazado_608164" data-name="Trazado 608164" d="M596.731,383.324H468.1V261.037h128.63Zm-116.6-12.03H584.7V273.07H480.131Z" transform="translate(-127.852 -69.515)" fill="#fff"/>
      <path id="Trazado_608165" data-name="Trazado 608165" d="M827.8,297.353H689.6a.317.317,0,0,0-.317.317v18.86a.317.317,0,0,0,.317.317H827.8a.317.317,0,0,0,.317-.317V297.67A.317.317,0,0,0,827.8,297.353Z" transform="translate(-186.753 -79.186)" fill="#fff"/>
      <path id="Trazado_608166" data-name="Trazado 608166" d="M827.8,344.373H689.6a.317.317,0,0,0-.317.317v18.86a.317.317,0,0,0,.317.317H827.8a.317.317,0,0,0,.317-.317V344.69A.317.317,0,0,0,827.8,344.373Z" transform="translate(-186.753 -91.708)" fill="#fff"/>
      <path id="Trazado_608167" data-name="Trazado 608167" d="M767.213,391.4H689.519a.238.238,0,0,0-.238.238v19.017a.238.238,0,0,0,.238.238h77.693a.239.239,0,0,0,.238-.238V391.635A.239.239,0,0,0,767.213,391.4Z" transform="translate(-186.753 -104.23)" fill="#fff"/>
      <path id="Trazado_608168" data-name="Trazado 608168" d="M596.731,600.472H468.1V478.185h128.63Zm-116.6-12.03H584.7V490.218H480.131Z" transform="translate(-127.852 -127.342)" fill="#fff"/>
      <path id="Trazado_608169" data-name="Trazado 608169" d="M827.8,514.5H689.6a.317.317,0,0,0-.317.317v18.86a.317.317,0,0,0,.317.317H827.8a.317.317,0,0,0,.317-.317v-18.86A.317.317,0,0,0,827.8,514.5Z" transform="translate(-186.753 -137.012)" fill="#fff"/>
      <path id="Trazado_608170" data-name="Trazado 608170" d="M827.8,561.521H689.6a.317.317,0,0,0-.317.317V580.7a.317.317,0,0,0,.317.317H827.8a.317.317,0,0,0,.317-.317v-18.86A.317.317,0,0,0,827.8,561.521Z" transform="translate(-186.753 -149.535)" fill="#fff"/>
      <path id="Trazado_608171" data-name="Trazado 608171" d="M767.213,608.545H689.519a.238.238,0,0,0-.238.238V627.8a.239.239,0,0,0,.238.238h77.693a.239.239,0,0,0,.238-.238V608.783A.239.239,0,0,0,767.213,608.545Z" transform="translate(-186.753 -162.058)" fill="#fff"/>
      <path id="Trazado_608172" data-name="Trazado 608172" d="M169.153,668.853l-2.882,6.429,21.1,21.648a12.51,12.51,0,0,1,2.458,13.847l-62.065-27.821,12.19-27.194,29.208,13.092Z" transform="translate(-37.218 -174.631)" fill="#4f5285"/>
      <path id="Trazado_608173" data-name="Trazado 608173" d="M157.207,685.411a5.658,5.658,0,1,1-2.85-7.477A5.659,5.659,0,0,1,157.207,685.411Z" transform="translate(-42.178 -180.404)" fill="#373660"/>
      <path id="Trazado_608174" data-name="Trazado 608174" d="M182,685.921l-3.994,3.294a2,2,0,0,0,2.49,3.118l4.432-3.412-2.928-3Z" transform="translate(-50.406 -182.662)" fill="#373660"/>
      <path id="Trazado_608175" data-name="Trazado 608175" d="M189.012,693.137l-3.994,3.294a2,2,0,0,0,2.49,3.118l4.432-3.412-2.928-3Z" transform="translate(-52.274 -184.584)" fill="#373660"/>
      <path id="Trazado_608176" data-name="Trazado 608176" d="M196.95,701.275l-3.993,3.294a2,2,0,0,0,2.49,3.118l4.432-3.412-2.928-3Z" transform="translate(-54.387 -186.751)" fill="#373660"/>
      <path id="Trazado_608177" data-name="Trazado 608177" d="M127.018,692.764l-2.065,4.608,62.068,27.817,2.065-4.608Z" transform="translate(-36.471 -184.485)" fill="#373660"/>
      <path id="Trazado_608178" data-name="Trazado 608178" d="M253.941,406.028h-69.17l-10.775,93a94.218,94.218,0,0,1-8.866,30.38l-29.544,60.771,44.8,16.458,28.021-69.65a48.477,48.477,0,0,0,3.412-15.135l5.6-91.795,1.108,183.936h44.731l-9.311-207.967Z" transform="translate(-39.302 -108.126)" fill="#373660"/>
      <path id="Trazado_608179" data-name="Trazado 608179" d="M288.038,689.48v7.043l28.1,11.124a12.51,12.51,0,0,1,7.906,11.631H256.03v-29.8Z" transform="translate(-71.377 -183.611)" fill="#4f5285"/>
      <path id="Trazado_608180" data-name="Trazado 608180" d="M280.377,711.515a5.657,5.657,0,1,0-6.8,4.218A5.657,5.657,0,0,0,280.377,711.515Z" transform="translate(-74.887 -187.629)" fill="#373660"/>
      <path id="Trazado_608181" data-name="Trazado 608181" d="M303.362,700.91l-2.294,4.641a2,2,0,0,0,3.546,1.831l2.651-4.925-3.9-1.542Z" transform="translate(-83.315 -186.655)" fill="#373660"/>
      <path id="Trazado_608182" data-name="Trazado 608182" d="M312.712,704.629l-2.294,4.641a2,2,0,0,0,3.546,1.83l2.651-4.925-3.9-1.542Z" transform="translate(-85.805 -187.645)" fill="#373660"/>
      <path id="Trazado_608183" data-name="Trazado 608183" d="M323.282,708.8l-2.294,4.641a2,2,0,0,0,3.546,1.831l2.651-4.925-3.9-1.542Z" transform="translate(-88.62 -188.757)" fill="#373660"/>
      <path id="Trazado_608184" data-name="Trazado 608184" d="M324.046,730.1H256.03v5.049h68.016Z" transform="translate(-71.377 -194.428)" fill="#373660"/>
      <path id="Trazado_608185" data-name="Trazado 608185" d="M251.257,212.336c-7.19,1.454-11.184,11.7-8.922,22.883l1.991,9.84a66.075,66.075,0,0,1,1.3,11.866l.271,14.39,16.6-3.415-3.049-15.066c7.19-1.455,11.183-11.7,8.922-22.884s-9.925-19.072-17.115-17.618Z" transform="translate(-67.562 -56.499)" fill="#ffd1c1"/>
      <g id="Grupo_1014850" data-name="Grupo 1014850" transform="translate(180.963 164.033)">
        <path id="Trazado_608186" data-name="Trazado 608186" d="M271.391,235.67s-10.642-8.03-19.593-6.219l-.8-5.88,20.295,2.451s1.958,7.975.1,9.644" transform="translate(-251.001 -223.571)" fill="#ffb2a0"/>
      </g>
      <path id="Trazado_608187" data-name="Trazado 608187" d="M262.265,265.43s-5.353.268-9.994-5.974c0,0,3,9.425,10.513,8.539Z" transform="translate(-70.376 -69.094)" fill="#ffb2a0"/>
      <path id="Trazado_608188" data-name="Trazado 608188" d="M301.189,315.6l-29.936-27.9a41.129,41.129,0,0,0-28.041-11.043h-27.23c-.324,0-.65,0-.974.013a35.923,35.923,0,0,0-31.675,21.18l-14.693,32.26,22.965,13.8-3.376,27.671h79.6l-3.572-40.244L276,343.193l25.191-27.586Z" transform="translate(-48.105 -73.675)" fill="#fee132"/>
      <g id="Grupo_1014851" data-name="Grupo 1014851" transform="translate(114.228 234.602)">
        <path id="Trazado_608189" data-name="Trazado 608189" d="M171.8,319.754s17.017,29.285,18.563,27.429,7.425-25.988,7.425-25.988l68.68,68.372-5.641,1.847H166.355l-6.311-51.963L171.8,319.757Z" transform="translate(-160.044 -319.754)" fill="#cbb428"/>
      </g>
      <path id="Trazado_608190" data-name="Trazado 608190" d="M259.942,202.714c-9.184-4.627-15.654,5.405-15.654,5.405-6.922.343-8.7,4.4-9.3,8.664s7.592,25.694,7.592,25.694l1.066-9.8a4.921,4.921,0,0,1-1.343-2.586c-.428-2.121.4-4.079,1.843-4.369s2.968,1.189,3.4,3.31c.036.18.059.353.079.53.036-.023.069-.046.1-.069,1.389-.935,1.118-9.735,1.118-9.735l28.073.732s-6.5-12.488-16.971-17.769Z" transform="translate(-65.766 -53.659)" fill="#373660"/>
      <path id="Trazado_608191" data-name="Trazado 608191" d="M262.074,305.167,153.147,196.244,123.14,226.252,232.063,335.178l30.011,30.008,30.008-30.008,41.571-41.571L303.642,263.6Z" transform="translate(-35.988 -52.26)" fill="#7e19b8"/>
      <g id="Grupo_1014852" data-name="Grupo 1014852" transform="translate(174.14 256.611)">
        <path id="Trazado_608192" data-name="Trazado 608192" d="M331.094,400.114s3.036-14.334,5.072-16.03,14.752-5.458,14.752-5.458-7.794,16.4-9.915,17.246-9.906,4.242-9.906,4.242" transform="translate(-265.507 -357.441)" fill="#0f3e6e"/>
        <path id="Trazado_608193" data-name="Trazado 608193" d="M241.7,357.1s28.779-.016,29.971-.516c1.255-.53,8.785-9.043,9.54-6.278.467,1.719-1.575,4.693,1.023,4.314s13.513-3.193,13.513-3.193-9.314,18.488-13.02,19.85-21.791,8.063-22.144,7.671S241.7,357.1,241.7,357.1Z" transform="translate(-241.701 -349.751)" fill="#0f3e6e"/>
      </g>
      <path id="Trazado_608194" data-name="Trazado 608194" d="M189.629,363.193,168.223,350.6l-4.209,14.118s-5.944,19.651,2.876,26.55c8.991,7.033,88.694-21.282,88.694-21.282l1.039-10.792-66.989,3.994Z" transform="translate(-46.351 -93.367)" fill="#ffd1c1"/>
      <g id="Grupo_1014853" data-name="Grupo 1014853" transform="translate(115.702 252.13)">
        <path id="Trazado_608195" data-name="Trazado 608195" d="M189.629,361.34l-27.576,2.065,6.8-19.762Z" transform="translate(-162.053 -343.643)" fill="#ffb2a0"/>
      </g>
      <path id="Trazado_608196" data-name="Trazado 608196" d="M283,359.8s7.932-11.266,8.69-9.38-1.1,2.575-.814,4.758c.484,3.631,18.593-5.834,19.184-4.582s-2.157,15.942-5.115,17.521c-7.559,4.032-23.887,3.2-23.887,3.2l1.945-11.521Z" transform="translate(-78.044 -93.261)" fill="#ffd1c1"/>
      <path id="Trazado_608197" data-name="Trazado 608197" d="M355.055,377.575s-13.5,4.16-14.8,5.644-3.016,12.177-2.739,11.9,8.939-4.092,11.168-5.948S355.055,377.575,355.055,377.575Z" transform="translate(-93.068 -100.549)" fill="#ffd1c1"/>
      <path id="Trazado_608198" data-name="Trazado 608198" d="M1061.391,218.278s14.645-.82,17.66,17.821,3.016,27.874,3.016,27.874L1041.6,263.2s-.36-26.393,3.015-32.429S1061.391,218.278,1061.391,218.278Z" transform="translate(-280.573 -58.127)" fill="#373660"/>
      <path id="Trazado_608199" data-name="Trazado 608199" d="M1131.617,681.936l2.326,5.177-17,17.439a10.071,10.071,0,0,0-1.974,11.154l49.994-22.413-9.817-21.906-23.53,10.546Z" transform="translate(-299.88 -178.793)" fill="#4f5285"/>
      <path id="Trazado_608200" data-name="Trazado 608200" d="M1156.4,695.273a4.559,4.559,0,1,0,2.3-6.024A4.56,4.56,0,0,0,1156.4,695.273Z" transform="translate(-311.041 -183.443)" fill="#373660"/>
      <path id="Trazado_608201" data-name="Trazado 608201" d="M1137.5,695.684l3.221,2.654a1.609,1.609,0,0,1-2.01,2.513l-3.566-2.748,2.355-2.421Z" transform="translate(-305.487 -185.262)" fill="#373660"/>
      <path id="Trazado_608202" data-name="Trazado 608202" d="M1131.845,701.5l3.221,2.654a1.607,1.607,0,0,1-2,2.513l-3.573-2.748,2.355-2.421Z" transform="translate(-303.983 -186.81)" fill="#373660"/>
      <path id="Trazado_608203" data-name="Trazado 608203" d="M1125.455,708.054l3.221,2.654a1.609,1.609,0,0,1-2.01,2.513l-3.566-2.749,2.355-2.422Z" transform="translate(-302.281 -188.556)" fill="#373660"/>
      <path id="Trazado_608204" data-name="Trazado 608204" d="M1165.271,701.347l-50,22.409,1.666,3.71,50-22.409Z" transform="translate(-300.196 -186.771)" fill="#373660"/>
      <path id="Trazado_608205" data-name="Trazado 608205" d="M1034.423,698.554v5.674l-22.635,8.961a10.076,10.076,0,0,0-6.368,9.369h54.793v-24Z" transform="translate(-270.942 -186.027)" fill="#4f5285"/>
      <path id="Trazado_608206" data-name="Trazado 608206" d="M1061.606,719.853a4.556,4.556,0,1,0-4.556-4.556A4.556,4.556,0,0,0,1061.606,719.853Z" transform="translate(-284.691 -189.273)" fill="#373660"/>
      <path id="Trazado_608207" data-name="Trazado 608207" d="M1040.1,707.761l1.849,3.739a1.61,1.61,0,0,1-2.862,1.474l-2.135-3.968,3.148-1.245Z" transform="translate(-279.339 -188.479)" fill="#373660"/>
      <path id="Trazado_608208" data-name="Trazado 608208" d="M1032.57,710.754l1.849,3.739a1.606,1.606,0,0,1-2.854,1.474L1029.43,712l3.14-1.245Z" transform="translate(-277.336 -189.276)" fill="#373660"/>
      <path id="Trazado_608209" data-name="Trazado 608209" d="M1024.05,714.122l1.849,3.738a1.606,1.606,0,0,1-2.854,1.474l-2.135-3.967,3.147-1.245Z" transform="translate(-275.067 -190.173)" fill="#373660"/>
      <path id="Trazado_608210" data-name="Trazado 608210" d="M1060.213,731.276H1005.42v4.065h54.793Z" transform="translate(-270.942 -194.741)" fill="#373660"/>
      <path id="Trazado_608211" data-name="Trazado 608211" d="M1064.938,224.674c7.19,1.455,11.181,11.7,8.922,22.884l-1.988,9.84a65.8,65.8,0,0,0-1.306,11.866l-.271,14.39-16.6-3.415,3.045-15.066c-7.183-1.454-11.182-11.7-8.922-22.883s9.927-19.072,17.117-17.618Z" transform="translate(-282.066 -59.785)" fill="#ffd1c1"/>
      <g id="Grupo_1014854" data-name="Grupo 1014854" transform="translate(763.767 167.58)">
        <path id="Trazado_608212" data-name="Trazado 608212" d="M1045.34,248.284c.286-.213,24.256-3.589,24.747-4.465s.352-14.357.352-14.357-3.522-1.405-4.732-.977-5.129,11.609-7.476,11.68-11.321-1.765-11.534-.428S1045.34,248.284,1045.34,248.284Z" transform="translate(-1045.34 -228.405)" fill="#ffb2a0"/>
      </g>
      <path id="Trazado_608213" data-name="Trazado 608213" d="M1060.021,277.772s5.356.268,9.993-5.974c0,0-3,9.426-10.514,8.539Z" transform="translate(-285.344 -72.381)" fill="#ffb2a0"/>
      <path id="Trazado_608214" data-name="Trazado 608214" d="M1069.17,223.748l-2.561,14.622h-28.02s4.358-21.017,23.442-20.105c0,0,6.075,1.4,7.139,5.487Z" transform="translate(-279.776 -58.117)" fill="#373660"/>
      <path id="Trazado_608215" data-name="Trazado 608215" d="M1083.85,248.091s2.091-4.255,3.375-.765c1.644,4.458-4.835,6.906-4.835,6.906l1.46-6.14Z" transform="translate(-291.44 -65.498)" fill="#ffd1c1"/>
      <path id="Trazado_608216" data-name="Trazado 608216" d="M1152.837,659.717,1140.8,623.663l-26.714,9.523,19.964,34.95Z" transform="translate(-299.881 -166.083)" fill="#ffd1c1"/>
      <g id="Grupo_1014855" data-name="Grupo 1014855" transform="translate(811.575 458.269)">
        <path id="Trazado_608217" data-name="Trazado 608217" d="M1116.685,647.1s21.05-7.893,28.02-14.736L1142.6,624.6l-32.1,10.919,6.185,11.576Z" transform="translate(-1110.5 -624.603)" fill="#ffb2a0"/>
      </g>
      <path id="Trazado_608218" data-name="Trazado 608218" d="M1067.045,684l3.837-37.815-28.262-2.294,3.837,40.064Z" transform="translate(-280.849 -171.47)" fill="#ffd1c1"/>
      <g id="Grupo_1014856" data-name="Grupo 1014856" transform="translate(759.343 471.325)">
        <path id="Trazado_608219" data-name="Trazado 608219" d="M1039.449,659.032s16.875-.186,32.7-7.19l.14-9.445-32.98,1.092.139,15.54Z" transform="translate(-1039.31 -642.398)" fill="#ffb2a0"/>
      </g>
      <path id="Trazado_608220" data-name="Trazado 608220" d="M1092.349,389.017l-13.28-80.958a19.188,19.188,0,0,0-12.216-14.86c-2.443,5.791-7.821,8.683-12.253,10.118a18.173,18.173,0,0,1-15.73-2.065,14.43,14.43,0,0,1-6.156-8.245,19.194,19.194,0,0,0-12.9,16.05l-8.834,79.958s-10.044,75.4-10.022,94.89c.015,12.418,11.409,76.15,11.409,76.15s84.177-4.376,119.739-26.641c0,0-34.337-111.336-39.759-144.4Z" transform="translate(-269.755 -78.028)" fill="#fee132"/>
      <g id="Grupo_1014857" data-name="Grupo 1014857" transform="translate(735.556 275.448)">
        <path id="Trazado_608221" data-name="Trazado 608221" d="M1104.53,447s-45.7-34.426-47.778-34.724-20.742,44-23.874,42.293c-8.8-4.8-25.988-13.8-25.988-14.694s29.678-61.925,34.726-64.35,72.115,41.1,70.926,45.9S1104.53,447,1104.53,447Z" transform="translate(-1006.89 -375.425)" fill="#cbb428"/>
      </g>
      <path id="Trazado_608222" data-name="Trazado 608222" d="M1050.4,300.883a18.173,18.173,0,0,0,15.73,2.065c4.432-1.434,9.81-4.327,12.253-10.118a19.17,19.17,0,0,0-6.7-1.206H1050.4a19.166,19.166,0,0,0-6.156,1.013A14.43,14.43,0,0,0,1050.4,300.883Z" transform="translate(-281.28 -77.661)" fill="#ffd1c1"/>
      <g id="Grupo_1014858" data-name="Grupo 1014858" transform="translate(761.008 213.964)">
        <path id="Trazado_608223" data-name="Trazado 608223" d="M1045.7,291.625s2.524,10.213,18.739,11.978c0,0-15.246,6.928-22.855-10.964l4.116-1.013Z" transform="translate(-1041.58 -291.625)" fill="#ffb2a0"/>
      </g>
      <path id="Trazado_608224" data-name="Trazado 608224" d="M1055.851,303.931s-6.706,7.216-10.6,5.4-5.349-14.909-5.349-14.909a13.294,13.294,0,0,1,3.184-1.415S1047.633,302.559,1055.851,303.931Z" transform="translate(-280.124 -78.028)" fill="#fff"/>
      <path id="Trazado_608225" data-name="Trazado 608225" d="M1069.6,304.132s4.219,7.889,9.105,7.392,10.448-16.177,10.448-16.177a14.673,14.673,0,0,0-4.021-2.079s-2.891,8.091-15.532,10.863Z" transform="translate(-288.034 -78.098)" fill="#fff"/>
      <path id="Trazado_608226" data-name="Trazado 608226" d="M996.744,362.961l-4.219,19.906-23.808,57.768s-11.749,9.167-11.19,10.1,6.514-2.791,7.818,0-8.226,14.517-7.837,15.259,13.233,2.791,15.465,0,5.749-20.831,5.749-20.831l24.143-41.1,8.056-32.927-14.175-8.173Z" transform="translate(-258.18 -96.658)" fill="#ffd1c1"/>
      <g id="Grupo_1014859" data-name="Grupo 1014859" transform="translate(724.716 257.29)">
        <path id="Trazado_608227" data-name="Trazado 608227" d="M1001.723,365.547l15.033,14.046s-25.748,48.31-24.6,55.123c0,0,38.493-62.074,37-64.888s-24.4-19.521-25.342-19.145-2.091,14.864-2.091,14.864Z" transform="translate(-992.116 -350.676)" fill="#ffb2a0"/>
      </g>
      <path id="Trazado_608228" data-name="Trazado 608228" d="M1114.517,358.935l-50.456-29.1,29.106-50.453-33.016-19.047-29.106,50.453-50.451-29.1L961.547,314.7,1012,343.8l-29.1,50.453,33.019,19.047,29.1-50.453,50.456,29.1Z" transform="translate(-259.259 -69.328)" fill="#7e19b8"/>
      <g id="Grupo_1014860" data-name="Grupo 1014860" transform="translate(750.003 273.061)">
        <path id="Trazado_608229" data-name="Trazado 608229" d="M1090.375,401.654l38.893-24.021-7.337-5.462-39.862,25.9Z" transform="translate(-1041.357 -372.172)" fill="#0f3e6e"/>
        <path id="Trazado_608230" data-name="Trazado 608230" d="M1047.916,433.111s-6.281,5.059-7.77,4.971-13.566-8.922-13.566-8.922l28.768-6.6Z" transform="translate(-1026.58 -385.589)" fill="#0f3e6e"/>
      </g>
      <path id="Trazado_608231" data-name="Trazado 608231" d="M1110.479,345.843l-11.754-32.838-13.074,22.668,4.667,12.157-42.445,37.459c-2.223.114-17.924.968-17.205,2.409.778,1.549,9.076-.775,8.724,2.327s-15.078,7.906-14.615,8.991,12.4,6.357,15.195,5.736,16.611-14.207,16.611-14.207l-.015-.01c6.075-3.487,22.532-13,36.516-21.72,1.034-.644,12.216-7.778,12.216-7.778a12.878,12.878,0,0,0,5.18-15.187Z" transform="translate(-276.094 -83.354)" fill="#ffd1c1"/>
      <g id="Grupo_1014861" data-name="Grupo 1014861" transform="translate(805.69 244.289)">
        <path id="Trazado_608232" data-name="Trazado 608232" d="M1111.013,353.144l10.228-6.788s-7.19.706-8.606-.846-7.755-12.553-7.755-12.553l-2.4,2.679,8.526,17.507" transform="translate(-1102.48 -332.957)" fill="#ffb2a0"/>
      </g>
      <path id="Trazado_608233" data-name="Trazado 608233" d="M301.146,117.583a47.96,47.96,0,1,0-67.826,0A47.961,47.961,0,0,0,301.146,117.583Z" transform="translate(-61.589 -9.51)" fill="#fee132"/>
      <path id="Trazado_608234" data-name="Trazado 608234" d="M295.916,74.386c-2.111-13.03-17.854-12.863-17.854-12.863s-15.742-.167-17.854,12.863,8.958,30.975,8.958,30.975h17.794s11.069-17.945,8.958-30.975Z" transform="translate(-72.419 -16.384)" fill="#fff"/>
      <path id="Trazado_608235" data-name="Trazado 608235" d="M287.725,111.613H276.614a.343.343,0,0,1-.343-.343V86.224a5.9,5.9,0,1,1,11.8,0v25.047A.343.343,0,0,1,287.725,111.613Zm-10.772-.686h10.429v-24.7a5.213,5.213,0,1,0-10.425,0v24.7Z" transform="translate(-76.768 -21.391)" fill="#7e19b8"/>
      <path id="Trazado_608236" data-name="Trazado 608236" d="M291.088,125.119H268.525a1.925,1.925,0,1,1,0-3.85h22.563a1.925,1.925,0,1,1,0,3.85Z" transform="translate(-74.192 -32.294)" fill="#373660"/>
      <path id="Trazado_608237" data-name="Trazado 608237" d="M291.133,133.5H268.57a1.925,1.925,0,1,1,0-3.85h22.563a1.925,1.925,0,1,1,0,3.85Z" transform="translate(-74.204 -34.525)" fill="#373660"/>
      <path id="Trazado_608238" data-name="Trazado 608238" d="M288.381,126.516H275.593v2.3h12.788Z" transform="translate(-76.587 -33.692)" fill="#4f5285"/>
      <path id="Trazado_608239" data-name="Trazado 608239" d="M284.172,139.108H279.8a4.211,4.211,0,0,1-4.209-4.209h12.788A4.211,4.211,0,0,1,284.172,139.108Z" transform="translate(-76.587 -35.924)" fill="#4f5285"/>
      <path id="Trazado_608240" data-name="Trazado 608240" d="M1163.02,101.242h-92.571a4.412,4.412,0,0,0-4.409,4.415v43.737a4.412,4.412,0,0,0,4.409,4.415h18.343l-2.781,17.824a1.862,1.862,0,0,0,3.052,1.7c6.978-5.968,21.16-18.148,22.2-19.53h51.755a4.419,4.419,0,0,0,4.417-4.415V105.657A4.419,4.419,0,0,0,1163.02,101.242Z" transform="translate(-287.086 -26.961)" fill="#e8e8e8"/>
      <path id="Trazado_608241" data-name="Trazado 608241" d="M1162.229,114.075h-85.718a.3.3,0,0,0-.3.307v5.124a.3.3,0,0,0,.3.307h85.718a.308.308,0,0,0,.308-.307v-5.124A.309.309,0,0,0,1162.229,114.075Z" transform="translate(-289.794 -30.379)" fill="#fff"/>
      <path id="Trazado_608242" data-name="Trazado 608242" d="M1162.329,133.157h-85.711a.309.309,0,0,0-.308.307v5.124a.308.308,0,0,0,.308.307h85.711a.308.308,0,0,0,.308-.307v-5.124A.309.309,0,0,0,1162.329,133.157Z" transform="translate(-289.821 -35.46)" fill="#fff"/>
      <path id="Trazado_608243" data-name="Trazado 608243" d="M1125.208,152.24h-48.563a.231.231,0,0,0-.235.232v5.275a.232.232,0,0,0,.235.233h48.563a.232.232,0,0,0,.235-.233v-5.275A.232.232,0,0,0,1125.208,152.24Z" transform="translate(-289.847 -40.542)" fill="#fff"/>
      <path id="Trazado_608244" data-name="Trazado 608244" d="M922.631,735.873H44.717v1.774H922.631Z" transform="translate(-15.104 -195.965)" fill="#373660"/>
    </g>
    <path id="Trazado_609425" data-name="Trazado 609425" d="M17,0H167a17,17,0,0,1,17,17V54a17,17,0,0,1-17,17H17A17,17,0,0,1,0,54V17A17,17,0,0,1,17,0Z" transform="translate(265 11658.092)" fill="#7e10b8"/>
    <path id="Trazado_609426" data-name="Trazado 609426" d="M17,0H167a17,17,0,0,1,17,17V54a17,17,0,0,1-17,17H17A17,17,0,0,1,0,54V17A17,17,0,0,1,17,0Z" transform="translate(265 11761.092)" fill="#7e10b8"/>
    <path id="Trazado_609427" data-name="Trazado 609427" d="M50.112,13.673H44.1V20H41.509V5.07h9.485V7.162H44.1V11.6h6.009Zm9.188,5.24a3.864,3.864,0,0,1-3.117,1.292,3.444,3.444,0,0,1-2.733-1.056,4.493,4.493,0,0,1-.928-3.056V8.905h2.492v7.157q0,2.112,1.753,2.112a2.462,2.462,0,0,0,2.451-1.3V8.905h2.492V20H59.361Zm9.833,1.292a5.155,5.155,0,0,1-3.84-1.492,5.412,5.412,0,0,1-1.471-3.973v-.308a6.657,6.657,0,0,1,.641-2.969,4.878,4.878,0,0,1,1.8-2.035A4.758,4.758,0,0,1,68.846,8.7a4.355,4.355,0,0,1,3.5,1.446,6.114,6.114,0,0,1,1.236,4.091v1h-7.25a3.332,3.332,0,0,0,.918,2.174,2.755,2.755,0,0,0,2.025.8,3.374,3.374,0,0,0,2.789-1.384l1.343,1.282a4.486,4.486,0,0,1-1.779,1.543A5.57,5.57,0,0,1,69.133,20.205Zm-.3-9.505a2.1,2.1,0,0,0-1.656.718,3.72,3.72,0,0,0-.8,2h4.748v-.185a3.029,3.029,0,0,0-.667-1.892A2.082,2.082,0,0,0,68.835,10.7Zm8.993-1.794.072,1.282A3.989,3.989,0,0,1,81.13,8.7q3.466,0,3.527,3.968V20H82.166V12.812a2.285,2.285,0,0,0-.456-1.564,1.919,1.919,0,0,0-1.492-.508A2.4,2.4,0,0,0,77.972,12.1V20H75.48V8.905Zm12.489-2.7v2.7h1.958v1.846H90.317v6.193a1.364,1.364,0,0,0,.251.918,1.165,1.165,0,0,0,.9.282,3.838,3.838,0,0,0,.872-.1v1.928a6.137,6.137,0,0,1-1.641.236q-2.871,0-2.871-3.168V10.751H86V8.905h1.825v-2.7Zm8.747,14a5.155,5.155,0,0,1-3.84-1.492,5.412,5.412,0,0,1-1.471-3.973v-.308a6.657,6.657,0,0,1,.641-2.969,4.878,4.878,0,0,1,1.8-2.035A4.758,4.758,0,0,1,98.777,8.7a4.355,4.355,0,0,1,3.5,1.446,6.114,6.114,0,0,1,1.236,4.091v1h-7.25a3.332,3.332,0,0,0,.918,2.174,2.755,2.755,0,0,0,2.025.8A3.374,3.374,0,0,0,102,16.832l1.343,1.282a4.486,4.486,0,0,1-1.779,1.543A5.57,5.57,0,0,1,99.064,20.205Zm-.3-9.505a2.1,2.1,0,0,0-1.656.718,3.72,3.72,0,0,0-.8,2h4.748v-.185a3.029,3.029,0,0,0-.667-1.892A2.082,2.082,0,0,0,98.767,10.7Zm12.9,6.286a1.13,1.13,0,0,0-.549-1.015,5.834,5.834,0,0,0-1.82-.615,9.356,9.356,0,0,1-2.123-.677,2.833,2.833,0,0,1-1.866-2.615,2.953,2.953,0,0,1,1.21-2.4,4.783,4.783,0,0,1,3.076-.964,4.977,4.977,0,0,1,3.215.984,3.124,3.124,0,0,1,1.225,2.553h-2.492a1.536,1.536,0,0,0-.533-1.195,2.043,2.043,0,0,0-1.415-.477,2.208,2.208,0,0,0-1.338.379,1.2,1.2,0,0,0-.518,1.015,1.01,1.01,0,0,0,.482.892,6.627,6.627,0,0,0,1.948.641,9.222,9.222,0,0,1,2.3.769,3.26,3.26,0,0,1,1.241,1.072,2.733,2.733,0,0,1,.405,1.518,2.891,2.891,0,0,1-1.241,2.425,5.29,5.29,0,0,1-3.25.928,5.737,5.737,0,0,1-2.43-.492,4,4,0,0,1-1.661-1.354,3.2,3.2,0,0,1-.595-1.856h2.42a1.756,1.756,0,0,0,.667,1.359,2.59,2.59,0,0,0,1.63.477,2.52,2.52,0,0,0,1.5-.374A1.158,1.158,0,0,0,111.666,16.985ZM43.149,44H40.658V32.905h2.492ZM40.5,30.024a1.322,1.322,0,0,1,.364-.954,1.375,1.375,0,0,1,1.041-.379,1.392,1.392,0,0,1,1.046.379,1.312,1.312,0,0,1,.369.954,1.282,1.282,0,0,1-.369.938,1.4,1.4,0,0,1-1.046.374,1.386,1.386,0,0,1-1.041-.374A1.292,1.292,0,0,1,40.5,30.024Zm7.67,2.881.072,1.282a3.989,3.989,0,0,1,3.23-1.487q3.466,0,3.527,3.968V44H52.511V36.812a2.285,2.285,0,0,0-.456-1.564,1.919,1.919,0,0,0-1.492-.508A2.4,2.4,0,0,0,48.317,36.1V44H45.826V32.905Zm12.489-2.7v2.7h1.958v1.846H60.663v6.193a1.364,1.364,0,0,0,.251.918,1.165,1.165,0,0,0,.9.282,3.838,3.838,0,0,0,.872-.1v1.928a6.137,6.137,0,0,1-1.641.236q-2.871,0-2.871-3.168V34.751H56.346V32.905h1.825v-2.7Zm8.747,14a5.155,5.155,0,0,1-3.84-1.492A5.412,5.412,0,0,1,64.1,38.74v-.308a6.657,6.657,0,0,1,.641-2.969,4.878,4.878,0,0,1,1.8-2.035,4.758,4.758,0,0,1,2.584-.728,4.355,4.355,0,0,1,3.5,1.446,6.114,6.114,0,0,1,1.236,4.091v1H66.61a3.332,3.332,0,0,0,.918,2.174,2.755,2.755,0,0,0,2.025.8,3.374,3.374,0,0,0,2.789-1.384l1.343,1.282a4.486,4.486,0,0,1-1.779,1.543A5.57,5.57,0,0,1,69.41,44.205Zm-.3-9.505a2.1,2.1,0,0,0-1.656.718,3.72,3.72,0,0,0-.8,2H71.4v-.185a3.029,3.029,0,0,0-.667-1.892A2.082,2.082,0,0,0,69.112,34.7Zm12.489.482a6.166,6.166,0,0,0-1.015-.082,2.286,2.286,0,0,0-2.307,1.313V44H75.788V32.905h2.379l.062,1.241a2.807,2.807,0,0,1,2.5-1.446,2.333,2.333,0,0,1,.882.144Zm3.886-2.276.072,1.282A3.989,3.989,0,0,1,88.79,32.7q3.466,0,3.527,3.968V44H89.825V36.812a2.285,2.285,0,0,0-.456-1.564,1.919,1.919,0,0,0-1.492-.508A2.4,2.4,0,0,0,85.631,36.1V44H83.14V32.905Zm16,11.095a3.845,3.845,0,0,1-.287-1.036,4.191,4.191,0,0,1-5.64.287A3.051,3.051,0,0,1,94.5,40.893a3.15,3.15,0,0,1,1.318-2.722,6.385,6.385,0,0,1,3.768-.948h1.528v-.728a1.943,1.943,0,0,0-.482-1.379,1.91,1.91,0,0,0-1.466-.518,2.195,2.195,0,0,0-1.395.426,1.317,1.317,0,0,0-.543,1.082H94.737a2.765,2.765,0,0,1,.6-1.707,4.03,4.03,0,0,1,1.646-1.246A5.781,5.781,0,0,1,99.31,32.7a4.655,4.655,0,0,1,3.107.979,3.492,3.492,0,0,1,1.189,2.753v5a5.671,5.671,0,0,0,.42,2.389V44Zm-2.738-1.794a2.834,2.834,0,0,0,1.389-.359,2.4,2.4,0,0,0,.979-.964V38.791H99.771a3.673,3.673,0,0,0-2.082.482,1.561,1.561,0,0,0-.7,1.364,1.456,1.456,0,0,0,.477,1.143A1.846,1.846,0,0,0,98.746,42.206Zm13.689-1.22a1.13,1.13,0,0,0-.549-1.015,5.834,5.834,0,0,0-1.82-.615,9.356,9.356,0,0,1-2.123-.677,2.833,2.833,0,0,1-1.866-2.615,2.953,2.953,0,0,1,1.21-2.4,4.783,4.783,0,0,1,3.076-.964,4.977,4.977,0,0,1,3.215.984,3.124,3.124,0,0,1,1.225,2.553h-2.492a1.536,1.536,0,0,0-.533-1.195,2.043,2.043,0,0,0-1.415-.477,2.208,2.208,0,0,0-1.338.379,1.2,1.2,0,0,0-.518,1.015,1.01,1.01,0,0,0,.482.892,6.627,6.627,0,0,0,1.948.641,9.222,9.222,0,0,1,2.3.769,3.26,3.26,0,0,1,1.241,1.072,2.733,2.733,0,0,1,.405,1.518,2.891,2.891,0,0,1-1.241,2.425,5.29,5.29,0,0,1-3.25.928,5.737,5.737,0,0,1-2.43-.492,4,4,0,0,1-1.661-1.354,3.2,3.2,0,0,1-.595-1.856h2.42a1.756,1.756,0,0,0,.667,1.359,2.59,2.59,0,0,0,1.63.477,2.52,2.52,0,0,0,1.5-.374A1.158,1.158,0,0,0,112.435,40.985Z" transform="translate(280 11669.092)" fill="#fff"/>
    <path id="Trazado_609428" data-name="Trazado 609428" d="M50.112,13.673H44.1V20H41.509V5.07h9.485V7.162H44.1V11.6h6.009Zm9.188,5.24a3.864,3.864,0,0,1-3.117,1.292,3.444,3.444,0,0,1-2.733-1.056,4.493,4.493,0,0,1-.928-3.056V8.905h2.492v7.157q0,2.112,1.753,2.112a2.462,2.462,0,0,0,2.451-1.3V8.905h2.492V20H59.361Zm9.833,1.292a5.155,5.155,0,0,1-3.84-1.492,5.412,5.412,0,0,1-1.471-3.973v-.308a6.657,6.657,0,0,1,.641-2.969,4.878,4.878,0,0,1,1.8-2.035A4.758,4.758,0,0,1,68.846,8.7a4.355,4.355,0,0,1,3.5,1.446,6.114,6.114,0,0,1,1.236,4.091v1h-7.25a3.332,3.332,0,0,0,.918,2.174,2.755,2.755,0,0,0,2.025.8,3.374,3.374,0,0,0,2.789-1.384l1.343,1.282a4.486,4.486,0,0,1-1.779,1.543A5.57,5.57,0,0,1,69.133,20.205Zm-.3-9.505a2.1,2.1,0,0,0-1.656.718,3.72,3.72,0,0,0-.8,2h4.748v-.185a3.029,3.029,0,0,0-.667-1.892A2.082,2.082,0,0,0,68.835,10.7Zm8.993-1.794.072,1.282A3.989,3.989,0,0,1,81.13,8.7q3.466,0,3.527,3.968V20H82.166V12.812a2.285,2.285,0,0,0-.456-1.564,1.919,1.919,0,0,0-1.492-.508A2.4,2.4,0,0,0,77.972,12.1V20H75.48V8.905Zm12.489-2.7v2.7h1.958v1.846H90.317v6.193a1.364,1.364,0,0,0,.251.918,1.165,1.165,0,0,0,.9.282,3.838,3.838,0,0,0,.872-.1v1.928a6.137,6.137,0,0,1-1.641.236q-2.871,0-2.871-3.168V10.751H86V8.905h1.825v-2.7Zm8.747,14a5.155,5.155,0,0,1-3.84-1.492,5.412,5.412,0,0,1-1.471-3.973v-.308a6.657,6.657,0,0,1,.641-2.969,4.878,4.878,0,0,1,1.8-2.035A4.758,4.758,0,0,1,98.777,8.7a4.355,4.355,0,0,1,3.5,1.446,6.114,6.114,0,0,1,1.236,4.091v1h-7.25a3.332,3.332,0,0,0,.918,2.174,2.755,2.755,0,0,0,2.025.8A3.374,3.374,0,0,0,102,16.832l1.343,1.282a4.486,4.486,0,0,1-1.779,1.543A5.57,5.57,0,0,1,99.064,20.205Zm-.3-9.505a2.1,2.1,0,0,0-1.656.718,3.72,3.72,0,0,0-.8,2h4.748v-.185a3.029,3.029,0,0,0-.667-1.892A2.082,2.082,0,0,0,98.767,10.7Zm12.9,6.286a1.13,1.13,0,0,0-.549-1.015,5.834,5.834,0,0,0-1.82-.615,9.356,9.356,0,0,1-2.123-.677,2.833,2.833,0,0,1-1.866-2.615,2.953,2.953,0,0,1,1.21-2.4,4.783,4.783,0,0,1,3.076-.964,4.977,4.977,0,0,1,3.215.984,3.124,3.124,0,0,1,1.225,2.553h-2.492a1.536,1.536,0,0,0-.533-1.195,2.043,2.043,0,0,0-1.415-.477,2.208,2.208,0,0,0-1.338.379,1.2,1.2,0,0,0-.518,1.015,1.01,1.01,0,0,0,.482.892,6.627,6.627,0,0,0,1.948.641,9.222,9.222,0,0,1,2.3.769,3.26,3.26,0,0,1,1.241,1.072,2.733,2.733,0,0,1,.405,1.518,2.891,2.891,0,0,1-1.241,2.425,5.29,5.29,0,0,1-3.25.928,5.737,5.737,0,0,1-2.43-.492,4,4,0,0,1-1.661-1.354,3.2,3.2,0,0,1-.595-1.856h2.42a1.756,1.756,0,0,0,.667,1.359,2.59,2.59,0,0,0,1.63.477,2.52,2.52,0,0,0,1.5-.374A1.158,1.158,0,0,0,111.666,16.985ZM42.99,44.205a5.155,5.155,0,0,1-3.84-1.492,5.412,5.412,0,0,1-1.471-3.973v-.308a6.657,6.657,0,0,1,.641-2.969,4.878,4.878,0,0,1,1.8-2.035A4.758,4.758,0,0,1,42.7,32.7a4.355,4.355,0,0,1,3.5,1.446,6.114,6.114,0,0,1,1.236,4.091v1h-7.25a3.332,3.332,0,0,0,.918,2.174,2.755,2.755,0,0,0,2.025.8,3.374,3.374,0,0,0,2.789-1.384l1.343,1.282a4.486,4.486,0,0,1-1.779,1.543A5.57,5.57,0,0,1,42.99,44.205Zm-.3-9.505a2.1,2.1,0,0,0-1.656.718,3.72,3.72,0,0,0-.8,2H44.98v-.185a3.029,3.029,0,0,0-.667-1.892A2.082,2.082,0,0,0,42.693,34.7Zm10.664,1.856,2.112-3.65h2.769l-3.394,5.465L58.351,44H55.6l-2.215-3.794L51.183,44H48.415l3.507-5.629-3.384-5.465h2.748Zm9.7-6.347v2.7h1.958v1.846H63.057v6.193a1.364,1.364,0,0,0,.251.918,1.165,1.165,0,0,0,.9.282,3.838,3.838,0,0,0,.872-.1v1.928a6.137,6.137,0,0,1-1.641.236q-2.871,0-2.871-3.168V34.751H58.74V32.905h1.825v-2.7Zm8.747,14a5.155,5.155,0,0,1-3.84-1.492,5.412,5.412,0,0,1-1.471-3.973v-.308a6.657,6.657,0,0,1,.641-2.969,4.878,4.878,0,0,1,1.8-2.035,4.758,4.758,0,0,1,2.584-.728,4.355,4.355,0,0,1,3.5,1.446,6.114,6.114,0,0,1,1.236,4.091v1H69a3.332,3.332,0,0,0,.918,2.174,2.755,2.755,0,0,0,2.025.8,3.374,3.374,0,0,0,2.789-1.384l1.343,1.282A4.486,4.486,0,0,1,74.3,43.656,5.57,5.57,0,0,1,71.8,44.205Zm-.3-9.505a2.1,2.1,0,0,0-1.656.718,3.72,3.72,0,0,0-.8,2h4.748v-.185a3.029,3.029,0,0,0-.667-1.892A2.082,2.082,0,0,0,71.507,34.7ZM84,35.182a6.166,6.166,0,0,0-1.015-.082,2.286,2.286,0,0,0-2.307,1.313V44H78.182V32.905h2.379l.062,1.241a2.807,2.807,0,0,1,2.5-1.446,2.333,2.333,0,0,1,.882.144Zm3.886-2.276.072,1.282a3.989,3.989,0,0,1,3.23-1.487q3.466,0,3.527,3.968V44H92.219V36.812a2.285,2.285,0,0,0-.456-1.564,1.919,1.919,0,0,0-1.492-.508A2.4,2.4,0,0,0,88.026,36.1V44H85.534V32.905Zm16,11.095a3.845,3.845,0,0,1-.287-1.036,4.191,4.191,0,0,1-5.64.287A3.051,3.051,0,0,1,96.9,40.893a3.15,3.15,0,0,1,1.318-2.722,6.385,6.385,0,0,1,3.768-.948h1.528v-.728a1.943,1.943,0,0,0-.482-1.379,1.91,1.91,0,0,0-1.466-.518,2.195,2.195,0,0,0-1.395.426,1.317,1.317,0,0,0-.543,1.082H97.131a2.765,2.765,0,0,1,.6-1.707,4.03,4.03,0,0,1,1.646-1.246A5.781,5.781,0,0,1,101.7,32.7a4.655,4.655,0,0,1,3.107.979A3.492,3.492,0,0,1,106,36.433v5a5.671,5.671,0,0,0,.42,2.389V44Zm-2.738-1.794a2.834,2.834,0,0,0,1.389-.359,2.4,2.4,0,0,0,.979-.964V38.791h-1.343a3.673,3.673,0,0,0-2.082.482,1.561,1.561,0,0,0-.7,1.364,1.456,1.456,0,0,0,.477,1.143A1.846,1.846,0,0,0,101.14,42.206Zm13.689-1.22a1.13,1.13,0,0,0-.549-1.015,5.834,5.834,0,0,0-1.82-.615,9.356,9.356,0,0,1-2.123-.677,2.833,2.833,0,0,1-1.866-2.615,2.953,2.953,0,0,1,1.21-2.4,4.783,4.783,0,0,1,3.076-.964,4.977,4.977,0,0,1,3.215.984,3.124,3.124,0,0,1,1.225,2.553h-2.492a1.536,1.536,0,0,0-.533-1.195,2.043,2.043,0,0,0-1.415-.477,2.208,2.208,0,0,0-1.338.379,1.2,1.2,0,0,0-.518,1.015,1.01,1.01,0,0,0,.482.892,6.627,6.627,0,0,0,1.948.641,9.222,9.222,0,0,1,2.3.769,3.26,3.26,0,0,1,1.241,1.072,2.733,2.733,0,0,1,.405,1.518,2.891,2.891,0,0,1-1.241,2.425,5.29,5.29,0,0,1-3.25.928,5.737,5.737,0,0,1-2.43-.492,4,4,0,0,1-1.661-1.354A3.2,3.2,0,0,1,108.1,40.5h2.42a1.756,1.756,0,0,0,.667,1.359,2.59,2.59,0,0,0,1.63.477,2.52,2.52,0,0,0,1.5-.374A1.158,1.158,0,0,0,114.829,40.985Z" transform="translate(280 11772.092)" fill="#fff"/>
  </g>
</svg>
