<svg xmlns="http://www.w3.org/2000/svg" width="181" height="104" viewBox="0 0 181 104">
  <g id="Grupo_1014984" data-name="Grupo 1014984" transform="translate(-1151.336 -14108)">
    <g id="Rectángulo_345269" data-name="Rectángulo 345269" transform="translate(1151.336 14108)" fill="#fff" stroke="#707070" stroke-width="1">
      <rect width="181" height="104" rx="32" stroke="none"/>
      <rect x="0.5" y="0.5" width="180" height="103" rx="31.5" fill="none"/>
    </g>
    <path id="Trazado_609430" data-name="Trazado 609430" d="M5.713,13.136l-.381,2.007A6.249,6.249,0,0,1,10.2,12.857a3.932,3.932,0,0,1,3.311,1.553,6.032,6.032,0,0,1,.791,4.2L12.568,29H9.917L11.66,18.581a5.554,5.554,0,0,0,.015-1.332,2.19,2.19,0,0,0-2.417-2.092Q6.87,15.113,5.068,17.7L3.105,29H.454L3.208,13.15Zm32.4,3.94H26.25l.41-2.358H38.54Zm-1.055,6.079H25.2l.41-2.344h11.88Zm16.055-6.138,1.758.015a5.192,5.192,0,0,0,3.259-1.018,3.859,3.859,0,0,0,1.516-2.761,3.4,3.4,0,0,0-.63-2.673,3.025,3.025,0,0,0-2.388-1,4.077,4.077,0,0,0-2.834.974,4.3,4.3,0,0,0-1.428,2.7l-2.622.015a6.077,6.077,0,0,1,2.249-4.285,7.134,7.134,0,0,1,4.768-1.619,5.7,5.7,0,0,1,4.211,1.677,5.322,5.322,0,0,1,1.326,4.27,4.933,4.933,0,0,1-1.157,2.754A7.709,7.709,0,0,1,58.3,18.131a4.215,4.215,0,0,1,2.168,1.853,5.17,5.17,0,0,1,.6,2.966,6.546,6.546,0,0,1-2.292,4.644,7.208,7.208,0,0,1-5,1.7,6.063,6.063,0,0,1-4.365-1.7A5.388,5.388,0,0,1,47.9,23.36l2.651.015a3.561,3.561,0,0,0,.791,2.644,3.375,3.375,0,0,0,2.549,1.062,4.262,4.262,0,0,0,3.12-1.069,4.462,4.462,0,0,0,1.421-3.018,3.264,3.264,0,0,0-.791-2.717A3.988,3.988,0,0,0,54.8,19.244l-2.036-.015ZM77.432,29H63.853l.322-2.065,7.866-7.646,1.436-1.421a8.407,8.407,0,0,0,2.739-4.57,3.389,3.389,0,0,0-.63-2.629,2.963,2.963,0,0,0-2.314-1.077,4.364,4.364,0,0,0-3.208,1.121,5.147,5.147,0,0,0-1.567,3.23l-2.622.015a7.418,7.418,0,0,1,1.208-3.479,6.732,6.732,0,0,1,2.681-2.329,7.7,7.7,0,0,1,3.611-.769,5.918,5.918,0,0,1,4.211,1.6,4.753,4.753,0,0,1,1.34,4.006q-.249,2.813-3.237,5.918L74.341,20.27l-6.855,6.519h10.3Zm16.494,0H80.347l.322-2.065,7.866-7.646,1.436-1.421A8.407,8.407,0,0,0,92.71,13.3a3.389,3.389,0,0,0-.63-2.629,2.963,2.963,0,0,0-2.314-1.077,4.364,4.364,0,0,0-3.208,1.121,5.147,5.147,0,0,0-1.567,3.23l-2.622.015a7.418,7.418,0,0,1,1.208-3.479,6.732,6.732,0,0,1,2.681-2.329,7.7,7.7,0,0,1,3.611-.769,5.918,5.918,0,0,1,4.211,1.6,4.753,4.753,0,0,1,1.34,4.006q-.249,2.813-3.237,5.918L90.835,20.27l-6.855,6.519h10.3Zm4.98-3.076a1.586,1.586,0,0,1,1.187.439,1.514,1.514,0,0,1,.454,1.172,1.583,1.583,0,0,1-.483,1.165,1.743,1.743,0,0,1-1.172.476,1.477,1.477,0,0,1-1.611-1.553,1.639,1.639,0,0,1,1.626-1.7Zm17.959-4.087h2.871l-.4,2.212h-2.856L115.62,29h-2.666l.864-4.951h-9.434l.308-1.743L116.411,7.672h2.9Zm-8.994,0H114.2l1.9-10.488-.425.615Z" transform="translate(1180.336 14135)"/>
  </g>
</svg>
