<svg xmlns="http://www.w3.org/2000/svg" width="181" height="104" viewBox="0 0 181 104">
  <g id="Grupo_1014984" data-name="Grupo 1014984" transform="translate(-1151.336 -14108)">
    <g id="Rectángulo_345269" data-name="Rectángulo 345269" transform="translate(1151.336 14108)" fill="#fff" stroke="#707070" stroke-width="1">
      <rect width="181" height="104" rx="32" stroke="none"/>
      <rect x="0.5" y="0.5" width="180" height="103" rx="31.5" fill="none"/>
    </g>
    <path id="Trazado_609430" data-name="Trazado 609430" d="M5.713,13.136l-.381,2.007A6.249,6.249,0,0,1,10.2,12.857a3.932,3.932,0,0,1,3.311,1.553,6.032,6.032,0,0,1,.791,4.2L12.568,29H9.917L11.66,18.581a5.554,5.554,0,0,0,.015-1.332,2.19,2.19,0,0,0-2.417-2.092Q6.87,15.113,5.068,17.7L3.105,29H.454L3.208,13.15Zm32.4,3.94H26.25l.41-2.358H38.54Zm-1.055,6.079H25.2l.41-2.344h11.88ZM55.869,29H53.2l3.135-17.988L50.669,13l.454-2.578,7.91-2.856H59.5Zm19.7-9.375a7.6,7.6,0,0,1-2.3,1.707,5.386,5.386,0,0,1-2.417.535,4.706,4.706,0,0,1-2.878-.952,5.245,5.245,0,0,1-1.743-2.534,8.4,8.4,0,0,1-.374-3.516A9.476,9.476,0,0,1,67.046,11a7.256,7.256,0,0,1,2.6-2.717,6.372,6.372,0,0,1,3.538-.9,5.028,5.028,0,0,1,4,1.846,7.887,7.887,0,0,1,1.567,4.79,19.948,19.948,0,0,1-.366,3.9q-.967,5.479-3.816,8.254a10.356,10.356,0,0,1-7.317,2.864h-.659l.234-2.3h.542a7.961,7.961,0,0,0,5.164-1.761A10.531,10.531,0,0,0,75.571,19.625Zm-4.16,0a4.232,4.232,0,0,0,2.563-.754A6.381,6.381,0,0,0,76,16.681l.117-1.069.044-1.187a6.865,6.865,0,0,0-.842-3.5,2.647,2.647,0,0,0-2.249-1.289,3.75,3.75,0,0,0-3.1,1.4,6.34,6.34,0,0,0-1.487,3.684,7.084,7.084,0,0,0,.029,1.816,4.619,4.619,0,0,0,.527,1.626A2.648,2.648,0,0,0,71.411,19.625ZM93.926,29H80.347l.322-2.065,7.866-7.646,1.436-1.421A8.407,8.407,0,0,0,92.71,13.3a3.389,3.389,0,0,0-.63-2.629,2.963,2.963,0,0,0-2.314-1.077,4.364,4.364,0,0,0-3.208,1.121,5.147,5.147,0,0,0-1.567,3.23l-2.622.015a7.418,7.418,0,0,1,1.208-3.479,6.732,6.732,0,0,1,2.681-2.329,7.7,7.7,0,0,1,3.611-.769,5.918,5.918,0,0,1,4.211,1.6,4.753,4.753,0,0,1,1.34,4.006q-.249,2.813-3.237,5.918L90.835,20.27l-6.855,6.519h10.3Zm11.426,0h-2.666l3.135-17.988L100.151,13l.454-2.578,7.91-2.856h.469ZM47.329,55.263l2.71-10.591H60.674l-.4,2.5h-8.35l-1.641,5.83a6.526,6.526,0,0,1,3.486-.923,4.787,4.787,0,0,1,4.072,2A7.245,7.245,0,0,1,59,59.1a8.013,8.013,0,0,1-2.329,5.273,6.846,6.846,0,0,1-5.112,1.934,5.578,5.578,0,0,1-4.116-1.641,6.2,6.2,0,0,1-1.655-4.292h2.476a4.249,4.249,0,0,0,1,2.725,3.22,3.22,0,0,0,2.417,1,3.943,3.943,0,0,0,3.157-1.333,6.154,6.154,0,0,0,1.516-3.647,4.685,4.685,0,0,0-.688-3.259,3.132,3.132,0,0,0-2.622-1.34,4.493,4.493,0,0,0-1.9.322A7.046,7.046,0,0,0,49.5,55.849Zm15.688,7.661a1.586,1.586,0,0,1,1.187.439,1.514,1.514,0,0,1,.454,1.172,1.583,1.583,0,0,1-.483,1.165A1.743,1.743,0,0,1,63,66.176a1.477,1.477,0,0,1-1.611-1.553,1.639,1.639,0,0,1,1.626-1.7Zm17.461-6.3a7.6,7.6,0,0,1-2.3,1.707,5.386,5.386,0,0,1-2.417.535,4.706,4.706,0,0,1-2.878-.952A5.245,5.245,0,0,1,71.14,55.38a8.4,8.4,0,0,1-.374-3.516A9.476,9.476,0,0,1,71.953,48a7.256,7.256,0,0,1,2.6-2.717,6.372,6.372,0,0,1,3.538-.9,5.028,5.028,0,0,1,4,1.846,7.887,7.887,0,0,1,1.567,4.79,19.948,19.948,0,0,1-.366,3.9q-.967,5.479-3.816,8.254a10.356,10.356,0,0,1-7.317,2.864H71.5l.234-2.3h.542a7.961,7.961,0,0,0,5.164-1.761A10.531,10.531,0,0,0,80.479,56.625Zm-4.16,0a4.232,4.232,0,0,0,2.563-.754,6.381,6.381,0,0,0,2.021-2.19l.117-1.069.044-1.187a6.865,6.865,0,0,0-.842-3.5,2.647,2.647,0,0,0-2.249-1.289,3.75,3.75,0,0,0-3.1,1.4,6.34,6.34,0,0,0-1.487,3.684,7.084,7.084,0,0,0,.029,1.816,4.619,4.619,0,0,0,.527,1.626A2.648,2.648,0,0,0,76.318,56.625ZM98.906,44.643l-.234,2.3h-.513a7.757,7.757,0,0,0-5.01,1.816,11.258,11.258,0,0,0-3.223,5.186,6.177,6.177,0,0,1,4.658-1.934,4.818,4.818,0,0,1,2.886.93,5.185,5.185,0,0,1,1.765,2.49,8.161,8.161,0,0,1,.388,3.508A8.539,8.539,0,0,1,97.3,64.279a6.379,6.379,0,0,1-4.988,2.014,5.2,5.2,0,0,1-3.9-1.743,7.363,7.363,0,0,1-1.743-4.512,17.076,17.076,0,0,1,.366-4.16,15.092,15.092,0,0,1,3.992-8.35,10.452,10.452,0,0,1,7.581-2.886Zm-4.893,9.609a4.473,4.473,0,0,0-2.666.82,5.768,5.768,0,0,0-1.919,2.168l-.1.981L89.3,59.408a7.5,7.5,0,0,0,.366,2.329,3.562,3.562,0,0,0,1.084,1.714,2.65,2.65,0,0,0,1.685.6,3.745,3.745,0,0,0,3.04-1.318,7.028,7.028,0,0,0,1.355-6.079,3.55,3.55,0,0,0-1.018-1.736A2.7,2.7,0,0,0,94.014,54.252Z" transform="translate(1180.336 14122)"/>
  </g>
</svg>
