<svg xmlns="http://www.w3.org/2000/svg" width="365.845" height="377.93" viewBox="0 0 365.845 377.93">
  <g id="Group_44" data-name="Group 44" transform="translate(0 -0.012)">
    <path id="Trazado_605660" data-name="Trazado 605660" d="M84.592,379.67l-1.329,1.422L43.52,428.46l88.127.059,24.23-48.6Z" transform="translate(-6.688 -58.347)" fill="#ebebeb"/>
    <path id="Trazado_605661" data-name="Trazado 605661" d="M63.649,382.29l-1.329,1.464L18.05,432.739l85.867.051,31.018-50.237Z" transform="translate(-2.774 -58.75)" fill="#e3e3e3"/>
    <path id="Trazado_605662" data-name="Trazado 605662" d="M63.573,382.282s.11-.008.322-.017c.229,0,.55,0,.973-.008.872,0,2.15,0,3.808-.017H83.148c12.492.025,30.324.059,51.71.11h.339l-.178.288c-9.132,14.811-19.7,31.948-30.992,50.254l-.068.1H92.077c-27.26-.025-52.717-.059-74.1-.076H17.55l.288-.313c13.736-15.141,25.153-27.734,33.142-36.552,3.995-4.392,7.134-7.837,9.284-10.2,1.075-1.168,1.9-2.065,2.454-2.674s.855-.9.855-.9-.279.33-.812.948c-.55.618-1.363,1.532-2.412,2.708-2.133,2.378-5.247,5.848-9.208,10.266-7.964,8.844-19.347,21.471-33.032,36.654l-.135-.313c21.386,0,46.844.008,74.1.017H103.84l-.186.1c11.307-18.289,21.886-35.418,31.043-50.229l.161.288c-21.361-.11-39.168-.212-51.642-.271-6.237-.042-11.138-.085-14.489-.1-1.667-.017-2.945-.034-3.825-.042-.423,0-.753-.017-.982-.017a2.667,2.667,0,0,1-.339-.017Z" transform="translate(-2.697 -58.742)" fill="#e0e4ee"/>
    <path id="Trazado_605663" data-name="Trazado 605663" d="M99.8,431.128s-.212.025-.609.042c-.44,0-1.016.017-1.735.025-1.557,0-3.724,0-6.381.008-5.434-.034-12.856-.076-21.048-.127-8.2-.1-15.623-.186-21.048-.254-2.657-.051-4.824-.093-6.381-.127-.719-.025-1.295-.042-1.735-.059a2.748,2.748,0,0,1-.6-.051,3.394,3.394,0,0,1,.6-.042c.44,0,1.016-.017,1.735-.025,1.557,0,3.724,0,6.381-.008,5.433.034,12.856.076,21.056.127,8.2.1,15.615.186,21.048.254,2.657.051,4.824.093,6.381.127.719.025,1.295.042,1.735.059A2.75,2.75,0,0,1,99.8,431.128Z" transform="translate(-6.187 -66.16)" fill="#e0e4ee"/>
    <path id="Trazado_605664" data-name="Trazado 605664" d="M103.07,424.919s-.2.025-.592.042c-.432,0-.99.017-1.693.025-1.523,0-3.639,0-6.229.017-5.3-.034-12.543-.076-20.54-.119-8-.1-15.242-.186-20.54-.254-2.59-.051-4.706-.093-6.22-.127-.7-.025-1.261-.042-1.693-.059a2.706,2.706,0,0,1-.592-.051,3.23,3.23,0,0,1,.592-.042c.432,0,.99-.017,1.693-.025,1.523,0,3.639,0,6.229-.017,5.3.034,12.542.076,20.54.119,8,.1,15.234.186,20.54.254,2.59.051,4.706.093,6.22.127.7.025,1.261.042,1.693.059A2.706,2.706,0,0,1,103.07,424.919Z" transform="translate(-6.911 -65.208)" fill="#e0e4ee"/>
    <path id="Trazado_605665" data-name="Trazado 605665" d="M107.795,418.661s-.2.025-.584.042c-.423,0-.973.017-1.659.025-1.5,0-3.571,0-6.11.017-5.2-.034-12.314-.076-20.159-.118-7.854-.093-14.954-.186-20.168-.245-2.539-.051-4.612-.093-6.11-.127-.686-.025-1.236-.042-1.659-.059a2.528,2.528,0,0,1-.575-.051,3.13,3.13,0,0,1,.575-.042c.423,0,.973-.017,1.659-.025,1.5,0,3.571-.008,6.11-.017,5.2.034,12.314.076,20.168.118,7.854.093,14.954.186,20.159.245,2.539.051,4.612.093,6.11.127.686.025,1.236.042,1.659.059a2.528,2.528,0,0,1,.575.051Z" transform="translate(-7.803 -64.247)" fill="#e0e4ee"/>
    <path id="Trazado_605666" data-name="Trazado 605666" d="M113.247,412.861s-.195.025-.567.042c-.415,0-.956.017-1.625.025-1.464,0-3.5.008-5.983.017-5.1-.025-12.06-.068-19.753-.119-7.693-.093-14.65-.178-19.753-.245-2.488-.051-4.519-.093-5.984-.127l-1.625-.059a2.487,2.487,0,0,1-.567-.051,2.961,2.961,0,0,1,.567-.042c.415,0,.956-.017,1.625-.025,1.464,0,3.5-.008,5.984-.017,5.1.034,12.06.068,19.753.119,7.693.093,14.65.178,19.753.245,2.488.051,4.519.093,5.983.127l1.625.059A2.485,2.485,0,0,1,113.247,412.861Z" transform="translate(-8.82 -63.356)" fill="#e0e4ee"/>
    <path id="Trazado_605667" data-name="Trazado 605667" d="M117.117,406.771s-.195.025-.567.042c-.415,0-.956.017-1.625.025-1.464,0-3.5.008-5.983.017-5.1-.034-12.06-.068-19.753-.118-7.693-.093-14.65-.178-19.753-.245-2.488-.051-4.519-.093-5.983-.127-.669-.025-1.21-.042-1.625-.059a2.488,2.488,0,0,1-.567-.051,2.964,2.964,0,0,1,.567-.042c.415,0,.956-.017,1.625-.025,1.464,0,3.5-.008,5.983-.017,5.1.034,12.06.068,19.753.118,7.685.093,14.65.178,19.753.245,2.488.051,4.519.093,5.983.127.669.025,1.21.042,1.625.059A2.487,2.487,0,0,1,117.117,406.771Z" transform="translate(-9.415 -62.42)" fill="#e0e4ee"/>
    <path id="Trazado_605668" data-name="Trazado 605668" d="M122.827,400.711s-.195.025-.567.042c-.415,0-.956.017-1.625.025-1.464,0-3.5.008-5.983.017-5.1-.025-12.06-.068-19.753-.118-7.693-.093-14.65-.178-19.753-.245-2.488-.051-4.519-.093-5.983-.127-.669-.025-1.21-.042-1.625-.059a2.485,2.485,0,0,1-.567-.051,2.969,2.969,0,0,1,.567-.042c.415,0,.956-.017,1.625-.025,1.464,0,3.5-.009,5.983-.017,5.1.034,12.06.068,19.753.118,7.685.093,14.65.178,19.753.245,2.488.051,4.519.093,5.983.127l1.625.059A2.488,2.488,0,0,1,122.827,400.711Z" transform="translate(-10.292 -61.489)" fill="#e0e4ee"/>
    <path id="Trazado_605669" data-name="Trazado 605669" d="M127.018,394.763s-.195.025-.567.034c-.415,0-.956.008-1.625.017-1.464,0-3.5,0-5.983-.008-5.1-.051-12.06-.127-19.745-.2-7.693-.127-14.65-.245-19.753-.33-2.488-.059-4.519-.11-5.983-.152-.669-.025-1.21-.051-1.625-.068A2.485,2.485,0,0,1,71.17,394a2.673,2.673,0,0,1,.567-.034c.415,0,.956-.008,1.625-.017,1.464,0,3.5,0,5.983.008,5.1.051,12.06.127,19.753.2,7.685.127,14.65.245,19.745.33,2.488.059,4.519.11,5.983.152.669.025,1.21.051,1.625.068A2.487,2.487,0,0,1,127.018,394.763Z" transform="translate(-10.938 -60.542)" fill="#e0e4ee"/>
    <path id="Trazado_605670" data-name="Trazado 605670" d="M133.468,389.122s-.195.025-.567.034c-.415,0-.956.008-1.625.017-1.464,0-3.5,0-5.983-.008-5.1-.051-12.06-.127-19.745-.2-7.693-.127-14.65-.245-19.753-.33-2.488-.059-4.519-.11-5.983-.152-.669-.025-1.21-.051-1.625-.068a2.488,2.488,0,0,1-.567-.051,2.676,2.676,0,0,1,.567-.034c.415,0,.956-.008,1.625-.017,1.464,0,3.5,0,5.983.008,5.1.051,12.06.127,19.753.2,7.685.127,14.65.245,19.745.33,2.488.059,4.519.11,5.983.152.669.025,1.21.051,1.625.059a2.487,2.487,0,0,1,.567.051Z" transform="translate(-11.929 -59.675)" fill="#e0e4ee"/>
    <path id="Trazado_605671" data-name="Trazado 605671" d="M42.91,199.908c0-5.967,3.588-9.758,8.683-9.758s8.632,3.741,8.632,9.758-3.546,9.758-8.632,9.758S42.91,205.875,42.91,199.908Zm12.322,0c0-3.791-1.447-5.611-3.639-5.611s-3.639,1.87-3.639,5.611,1.5,5.611,3.639,5.611S55.232,203.7,55.232,199.908ZM72.4,190.556h5.941L54.487,225.949H48.546ZM66.657,216.6c0-5.967,3.588-9.758,8.632-9.758s8.683,3.792,8.683,9.758-3.6,9.758-8.683,9.758S66.657,222.564,66.657,216.6Zm12.272,0c0-3.741-1.447-5.611-3.639-5.611s-3.639,1.82-3.639,5.611,1.5,5.611,3.639,5.611S78.929,220.338,78.929,216.6Z" transform="translate(-6.595 -29.221)" fill="#ebebeb"/>
    <path id="Trazado_605672" data-name="Trazado 605672" d="M364.659,32.932a34.021,34.021,0,1,0,0,.008Z" transform="translate(-44.184)" fill="#f5f5f5"/>
    <path id="Trazado_605673" data-name="Trazado 605673" d="M357.212,35.984a25.93,25.93,0,1,0,0,.008Z" transform="translate(-45.86 -1.673)" fill="#ebebeb"/>
    <path id="Trazado_605674" data-name="Trazado 605674" d="M356.97,34.854c-.178.034-.491-1.227-1.3-3.4A31.5,31.5,0,0,0,350.944,23a30.3,30.3,0,0,0-4.672-4.731A29.644,29.644,0,0,0,339.79,14.3a27.8,27.8,0,0,0-3.859-1.4,26.82,26.82,0,0,0-4.189-.863,29.363,29.363,0,0,0-4.426-.237,30.767,30.767,0,0,0-4.536.465,31.559,31.559,0,0,0-4.409,1.176,29.114,29.114,0,0,0-4.054,1.786,28.469,28.469,0,0,0-3.614,2.294,27.41,27.41,0,0,0-3.114,2.683,29.348,29.348,0,0,0-4.655,6,30.344,30.344,0,0,0-2.691,6.077,31.22,31.22,0,0,0-1.422,9.572c.017,2.31.161,3.605-.017,3.639-.127.025-.576-1.219-.863-3.588a27.335,27.335,0,0,1,.762-10.071,29.749,29.749,0,0,1,2.6-6.55,30.3,30.3,0,0,1,4.807-6.542A28.25,28.25,0,0,1,309.4,15.8a29.13,29.13,0,0,1,3.859-2.522,30.788,30.788,0,0,1,4.359-1.963,32.774,32.774,0,0,1,4.756-1.278,33.381,33.381,0,0,1,4.9-.491,30.648,30.648,0,0,1,4.773.288,28.533,28.533,0,0,1,4.5.99,28.865,28.865,0,0,1,4.122,1.583,29.619,29.619,0,0,1,11.561,9.631,27.478,27.478,0,0,1,4.282,9.149C357.08,33.508,357.105,34.828,356.97,34.854Z" transform="translate(-45.762 -1.464)" fill="#e0e4ee"/>
    <path id="Trazado_605675" data-name="Trazado 605675" d="M336.892,58.928l.838,5.078-4.536.753-.821-4.942c-4.536.474-9.081-.22-11.891-1.76l1.574-5.95a18.536,18.536,0,0,0,9.335,1.76l-1.253-7.575C324.9,45.9,319,45.158,317.926,38.667c-.8-4.807,2.014-9.513,9.047-11.518l-.829-5.036,4.536-.753L331.5,26.3a20.818,20.818,0,0,1,9.665,1.244L339.82,33.5a18.871,18.871,0,0,0-7.329-1.21L333.769,40c5.23.347,11.044,1.109,12.1,7.507.779,4.722-1.989,9.369-8.971,11.408Zm-7.854-19.3-1.066-6.44c-2.31.939-3.047,2.412-2.8,3.91C325.433,38.684,326.94,39.327,329.038,39.632Zm9.614,9.64c-.262-1.591-1.718-2.234-3.783-2.59l1.033,6.263C338.086,52.073,338.889,50.727,338.653,49.271Z" transform="translate(-48.84 -3.281)" fill="#e0e4ee"/>
    <path id="Trazado_605676" data-name="Trazado 605676" d="M419.128,298.873a31.062,31.062,0,1,1-18.61-39.734A31.019,31.019,0,0,1,419.128,298.873Z" transform="translate(-55.153 -39.534)" fill="#f5f5f5"/>
    <path id="Trazado_605677" data-name="Trazado 605677" d="M413.52,297.691a23.672,23.672,0,1,1-14.184-30.281A23.653,23.653,0,0,1,413.52,297.691Z" transform="translate(-56.494 -40.875)" fill="#ebebeb"/>
    <path id="Trazado_605678" data-name="Trazado 605678" d="M413.985,296.844a14.5,14.5,0,0,1,.381-2.886,25.353,25.353,0,0,0-.085-7.752,24.441,24.441,0,0,0-1.473-5.112,23.771,23.771,0,0,0-3.047-5.264,21.891,21.891,0,0,0-2.175-2.463,22.112,22.112,0,0,0-2.615-2.209,23.065,23.065,0,0,0-3.021-1.853,26.4,26.4,0,0,0-3.368-1.413,25.55,25.55,0,0,0-3.555-.863,22.845,22.845,0,0,0-3.538-.3,21.624,21.624,0,0,0-3.419.237,23.045,23.045,0,0,0-3.216.694,23.829,23.829,0,0,0-5.569,2.437,24.218,24.218,0,0,0-8.886,9.436,13.709,13.709,0,0,1-1.4,2.556c-.1-.034.059-1.075.762-2.852a21.844,21.844,0,0,1,4.384-6.787,23.727,23.727,0,0,1,10.215-6.373,22.348,22.348,0,0,1,3.436-.8,22.833,22.833,0,0,1,3.681-.3,24.379,24.379,0,0,1,3.817.288,24.19,24.19,0,0,1,7.464,2.454,23.869,23.869,0,0,1,3.25,2.031,24.2,24.2,0,0,1,5.078,5.112,24.005,24.005,0,0,1,3.106,5.713,24.279,24.279,0,0,1,1.346,5.484,21.917,21.917,0,0,1-.491,8.074,6.9,6.9,0,0,1-1.075,2.751Z" transform="translate(-56.704 -40.721)" fill="#e0e4ee"/>
    <path id="Trazado_605679" data-name="Trazado 605679" d="M390.814,305.212l-1.354,3.893-3.478-1.21,1.312-3.791c-3.368-1.4-6.305-3.631-7.693-5.789l3.385-3.58a14.969,14.969,0,0,0,5.89,4.816l2.014-5.806c-3.538-2.277-7.4-5.061-5.67-10.037,1.278-3.69,5.053-5.924,10.765-4.638l1.337-3.859,3.478,1.21-1.32,3.791a16.671,16.671,0,0,1,6.322,4.57l-3.224,3.673a15.04,15.04,0,0,0-4.7-3.656l-2.048,5.916c3.546,2.243,7.346,5,5.645,9.91-1.253,3.614-4.985,5.831-10.672,4.6Zm1.862-16.579,1.71-4.943c-1.989-.22-3.072.533-3.47,1.684-.423,1.219.389,2.243,1.752,3.258Zm3.072,10.46c.423-1.219-.355-2.226-1.667-3.267l-1.667,4.8C394.284,300.845,395.367,300.21,395.748,299.093Z" transform="translate(-58.338 -42.293)" fill="#e0e4ee"/>
    <path id="Trazado_605680" data-name="Trazado 605680" d="M219.945,23.62H27.56V148.985H219.945Z" transform="translate(-4.236 -3.628)" fill="#f5f5f5"/>
    <path id="Trazado_605681" data-name="Trazado 605681" d="M208.7,15.61H16.32V140.7H208.7Z" transform="translate(-2.508 -2.397)" fill="#ebebeb"/>
    <path id="Trazado_605682" data-name="Trazado 605682" d="M360.125,369.72c0,.118-80.62.22-180.054.22S0,369.839,0,369.72s80.6-.22,180.071-.22S360.125,369.6,360.125,369.72Z" transform="translate(0 -56.784)" fill="#263238"/>
    <path id="Trazado_605683" data-name="Trazado 605683" d="M380.15,424.7l-75.5,2.446L246.11,372.83h73.359Z" transform="translate(-37.823 -57.296)" fill="#f5f5f5"/>
    <path id="Trazado_605684" data-name="Trazado 605684" d="M348.22,434.261l-75.5,2.446L214.18,382.39h73.359Z" transform="translate(-32.916 -58.765)" fill="#f5f5f5"/>
    <path id="Trazado_605685" data-name="Trazado 605685" d="M363.23,427.9l-75.5,2.446L229.19,376.03h73.359Z" transform="translate(-35.223 -57.788)" fill="#e0e4ee"/>
    <path id="Trazado_605686" data-name="Trazado 605686" d="M291.5,372.83H218.14l58.54,54.317,77.92-2.522Z" transform="translate(-33.524 -57.296)" fill="#f5f5f5"/>
    <path id="Trazado_605687" data-name="Trazado 605687" d="M291.411,372.8s.1.068.3.229.491.4.872.7c.779.635,1.921,1.557,3.4,2.759,2.979,2.429,7.338,5.983,12.872,10.5,11.087,9.073,26.879,22,45.769,37.466l.4.33-.516.017c-21.9.719-47.5,1.557-74.721,2.446l-3.191.1H276.5l-.068-.059c-21.556-20.015-41.622-38.651-58.514-54.342l-.347-.322h.474c22.089.034,40.429.059,53.267.085,6.4.025,11.417.042,14.853.051,1.7.008,3.013.017,3.9.025s1.329.025,1.329.025-.465.017-1.354.025-2.209.017-3.918.025c-3.436.008-8.472.025-14.878.051-12.822.017-31.153.051-53.216.085l.127-.322c16.909,15.674,36.993,34.3,58.565,54.291l-.161-.059,3.191-.1,74.721-2.4-.118.338c-18.831-15.5-34.572-28.462-45.625-37.56l-12.822-10.6c-1.473-1.227-2.607-2.167-3.377-2.81-.372-.313-.66-.559-.863-.728s-.288-.254-.288-.254Z" transform="translate(-33.437 -57.265)" fill="#263238"/>
    <path id="Trazado_605688" data-name="Trazado 605688" d="M326.405,409.845c0,.118-11.7.584-26.134,1.041s-26.151.719-26.151.6,11.7-.584,26.134-1.041S326.4,409.726,326.405,409.845Z" transform="translate(-42.128 -62.98)" fill="#263238"/>
    <path id="Trazado_605689" data-name="Trazado 605689" d="M333.625,415.315c0,.118-11.882.584-26.549,1.032s-26.566.711-26.566.592,11.882-.584,26.549-1.032S333.616,415.2,333.625,415.315Z" transform="translate(-43.11 -63.821)" fill="#263238"/>
    <path id="Trazado_605690" data-name="Trazado 605690" d="M341.347,420.8c0,.119-11.967.609-26.735,1.083s-26.752.77-26.752.643,11.967-.609,26.735-1.083S341.339,420.678,341.347,420.8Z" transform="translate(-44.239 -64.664)" fill="#263238"/>
    <path id="Trazado_605691" data-name="Trazado 605691" d="M321.869,404.885c0,.118-12.043.6-26.9,1.075s-26.9.753-26.913.635,12.035-.6,26.9-1.075S321.86,404.767,321.869,404.885Z" transform="translate(-41.196 -62.218)" fill="#263238"/>
    <path id="Trazado_605692" data-name="Trazado 605692" d="M293.174,384.352c0,.118-11.171.432-24.958.7s-24.966.381-24.966.262,11.171-.432,24.958-.7S293.166,384.233,293.174,384.352Z" transform="translate(-37.383 -59.06)" fill="#263238"/>
    <path id="Trazado_605693" data-name="Trazado 605693" d="M300.266,389.831c0,.118-11.518.44-25.72.711s-25.728.4-25.736.271,11.51-.44,25.728-.711S300.266,389.7,300.266,389.831Z" transform="translate(-38.238 -59.901)" fill="#263238"/>
    <path id="Trazado_605694" data-name="Trazado 605694" d="M307.187,395.311c0,.118-12.085.449-26.989.736s-27,.423-27,.3,12.077-.449,26.989-.736S307.187,395.184,307.187,395.311Z" transform="translate(-38.913 -60.744)" fill="#263238"/>
    <path id="Trazado_605695" data-name="Trazado 605695" d="M314.557,400.781c0,.118-12.085.449-26.989.736s-27,.423-27,.3,12.077-.449,26.989-.736S314.557,400.654,314.557,400.781Z" transform="translate(-40.045 -61.584)" fill="#263238"/>
    <path id="Trazado_605696" data-name="Trazado 605696" d="M288.63,379.391a4.227,4.227,0,0,1-.525.051c-.389.017-.889.034-1.5.059-1.363.034-3.233.085-5.518.152-4.706.085-11.121.2-18.2.33l-18.2.195c-2.285,0-4.155,0-5.518.008-.609,0-1.109-.017-1.5-.017a3.123,3.123,0,0,1-.525-.034,2.809,2.809,0,0,1,.525-.051c.389-.017.889-.034,1.5-.059,1.363-.034,3.233-.085,5.518-.152,4.706-.085,11.121-.2,18.2-.33l18.2-.195c2.285,0,4.155,0,5.518-.008.609,0,1.109.017,1.5.017A3.124,3.124,0,0,1,288.63,379.391Z" transform="translate(-36.444 -58.297)" fill="#263238"/>
    <path id="Trazado_605697" data-name="Trazado 605697" d="M266.674,391.368,247.42,373.739l66.656-2.649,19.584,10.85Z" transform="translate(-38.024 -57.029)" fill="#455a64"/>
    <path id="Trazado_605698" data-name="Trazado 605698" d="M256.559,376.76l3.749,3.208-.017-2.285-3.961-2.962Z" transform="translate(-39.394 -57.586)" fill="#263238"/>
    <path id="Trazado_605699" data-name="Trazado 605699" d="M260.248,377.784l5.4-.178-4.342-3.157-4.976.229Z" transform="translate(-39.394 -57.545)" fill="#304c8e"/>
    <path id="Trazado_605700" data-name="Trazado 605700" d="M260.96,378.358l.059,2.141,5.273-.339.068-1.98Z" transform="translate(-40.105 -58.118)" fill="#263238"/>
    <path id="Trazado_605701" data-name="Trazado 605701" d="M265.646,377.568a30.61,30.61,0,0,1-4.35-2.793l-.254-.178.135.042a28.614,28.614,0,0,1-4.858.017,29.235,29.235,0,0,1,4.832-.457h.076l.059.042.254.178a29.571,29.571,0,0,1,4.088,3.157Z" transform="translate(-39.392 -57.507)" fill="#263238"/>
    <path id="Trazado_605702" data-name="Trazado 605702" d="M260.965,380.534c-.118,0-.229-.465-.245-1.058s.068-1.066.195-1.066.228.465.245,1.058S261.092,380.534,260.965,380.534Z" transform="translate(-40.068 -58.154)" fill="#455a64"/>
    <path id="Trazado_605703" data-name="Trazado 605703" d="M267.237,376.56l3.741,3.208-.017-2.285L267,374.52Z" transform="translate(-41.033 -57.556)" fill="#263238"/>
    <path id="Trazado_605704" data-name="Trazado 605704" d="M270.927,377.585l5.391-.178-4.342-3.157-4.976.229Z" transform="translate(-41.033 -57.514)" fill="#e0e4ee"/>
    <path id="Trazado_605705" data-name="Trazado 605705" d="M271.64,378.158l.051,2.141,5.273-.339.068-1.98Z" transform="translate(-41.747 -58.088)" fill="#263238"/>
    <path id="Trazado_605706" data-name="Trazado 605706" d="M276.316,377.368a30.606,30.606,0,0,1-4.35-2.793c-.085-.059-.178-.127-.254-.178l.135.042a28.627,28.627,0,0,1-4.858.017,28.3,28.3,0,0,1,4.832-.457h.076l.059.042.254.178a30.659,30.659,0,0,1,4.1,3.157Z" transform="translate(-41.032 -57.476)" fill="#263238"/>
    <path id="Trazado_605707" data-name="Trazado 605707" d="M271.635,380.334c-.118,0-.228-.465-.245-1.058s.068-1.066.195-1.066.229.465.245,1.058S271.762,380.334,271.635,380.334Z" transform="translate(-41.708 -58.123)" fill="#455a64"/>
    <path id="Trazado_605708" data-name="Trazado 605708" d="M277.457,376.421l3.741,3.216-.017-2.294-3.961-2.954Z" transform="translate(-42.604 -57.536)" fill="#263238"/>
    <path id="Trazado_605709" data-name="Trazado 605709" d="M281.147,377.455l5.391-.186L282.2,374.12l-4.976.229Z" transform="translate(-42.604 -57.494)" fill="#455a64"/>
    <path id="Trazado_605710" data-name="Trazado 605710" d="M281.86,378.026l.051,2.141,5.273-.347.068-1.98Z" transform="translate(-43.317 -58.066)" fill="#263238"/>
    <path id="Trazado_605711" data-name="Trazado 605711" d="M286.536,377.228a30.611,30.611,0,0,1-4.35-2.793l-.254-.178.135.042a28.622,28.622,0,0,1-4.858.017,28.307,28.307,0,0,1,4.832-.457h.076l.059.042.254.178a30.667,30.667,0,0,1,4.1,3.157Z" transform="translate(-42.603 -57.454)" fill="#263238"/>
    <path id="Trazado_605712" data-name="Trazado 605712" d="M281.855,380.2c-.118,0-.228-.465-.245-1.058s.068-1.066.195-1.066.229.465.245,1.058S281.982,380.2,281.855,380.2Z" transform="translate(-43.278 -58.103)" fill="#455a64"/>
    <path id="Trazado_605713" data-name="Trazado 605713" d="M288.1,376.12l3.741,3.208-.017-2.285-3.961-2.962Z" transform="translate(-44.239 -57.488)" fill="#263238"/>
    <path id="Trazado_605714" data-name="Trazado 605714" d="M291.786,377.145l5.391-.178-4.342-3.157-4.976.229Z" transform="translate(-44.239 -57.447)" fill="#455a64"/>
    <path id="Trazado_605715" data-name="Trazado 605715" d="M292.5,377.718l.051,2.141,5.273-.339.068-1.98Z" transform="translate(-44.952 -58.02)" fill="#263238"/>
    <path id="Trazado_605716" data-name="Trazado 605716" d="M297.176,376.928a30.617,30.617,0,0,1-4.35-2.793l-.254-.178.135.042a28.62,28.62,0,0,1-4.858.017,28.3,28.3,0,0,1,4.832-.457h.076l.059.042.254.178a30.664,30.664,0,0,1,4.1,3.157Z" transform="translate(-44.238 -57.408)" fill="#263238"/>
    <path id="Trazado_605717" data-name="Trazado 605717" d="M292.5,379.894c-.119,0-.229-.465-.245-1.058s.068-1.066.195-1.066.228.465.245,1.058S292.622,379.894,292.5,379.894Z" transform="translate(-44.914 -58.055)" fill="#455a64"/>
    <path id="Trazado_605718" data-name="Trazado 605718" d="M298.887,375.851l3.741,3.216-.017-2.294-3.961-2.954Z" transform="translate(-45.898 -57.448)" fill="#263238"/>
    <path id="Trazado_605719" data-name="Trazado 605719" d="M302.577,376.883l5.4-.186-4.35-3.157-4.976.237Z" transform="translate(-45.898 -57.405)" fill="#455a64"/>
    <path id="Trazado_605720" data-name="Trazado 605720" d="M303.29,377.456l.051,2.141,5.273-.347.076-1.98Z" transform="translate(-46.611 -57.978)" fill="#263238"/>
    <path id="Trazado_605721" data-name="Trazado 605721" d="M307.976,376.658a30.61,30.61,0,0,1-4.35-2.793l-.254-.178.135.042a28.622,28.622,0,0,1-4.858.017,28.307,28.307,0,0,1,4.832-.457h.076l.059.042.254.178a30.662,30.662,0,0,1,4.1,3.157Z" transform="translate(-45.898 -57.367)" fill="#263238"/>
    <path id="Trazado_605722" data-name="Trazado 605722" d="M303.285,379.634c-.118,0-.228-.465-.245-1.058s.068-1.066.195-1.066.229.466.245,1.058S303.412,379.634,303.285,379.634Z" transform="translate(-46.572 -58.015)" fill="#455a64"/>
    <path id="Trazado_605723" data-name="Trazado 605723" d="M309.188,375.37l3.749,3.208-.017-2.285-3.961-2.962Z" transform="translate(-47.482 -57.373)" fill="#263238"/>
    <path id="Trazado_605724" data-name="Trazado 605724" d="M312.877,376.395l5.4-.178-4.342-3.157-4.976.229Z" transform="translate(-47.482 -57.331)" fill="#455a64"/>
    <path id="Trazado_605725" data-name="Trazado 605725" d="M313.59,376.968l.059,2.141,5.273-.339.068-1.98Z" transform="translate(-48.194 -57.905)" fill="#263238"/>
    <path id="Trazado_605726" data-name="Trazado 605726" d="M318.276,376.178a30.623,30.623,0,0,1-4.35-2.793c-.085-.059-.178-.127-.254-.178l.135.042a28.612,28.612,0,0,1-4.858.017,28.3,28.3,0,0,1,4.832-.457h.076l.059.042.254.178a30.665,30.665,0,0,1,4.1,3.157Z" transform="translate(-47.48 -57.293)" fill="#263238"/>
    <path id="Trazado_605727" data-name="Trazado 605727" d="M313.6,379.144c-.118,0-.229-.466-.245-1.058s.068-1.066.195-1.066.229.465.245,1.058S313.722,379.144,313.6,379.144Z" transform="translate(-48.156 -57.94)" fill="#455a64"/>
    <path id="Trazado_605728" data-name="Trazado 605728" d="M319.267,374.79,323.008,378l-.017-2.285-3.961-2.962Z" transform="translate(-49.03 -57.284)" fill="#263238"/>
    <path id="Trazado_605729" data-name="Trazado 605729" d="M322.957,375.815l5.4-.178-4.35-3.157-4.976.228Z" transform="translate(-49.03 -57.242)" fill="#455a64"/>
    <path id="Trazado_605730" data-name="Trazado 605730" d="M323.67,376.388l.051,2.141,5.273-.339.076-1.98Z" transform="translate(-49.743 -57.815)" fill="#263238"/>
    <path id="Trazado_605731" data-name="Trazado 605731" d="M328.356,375.6a30.613,30.613,0,0,1-4.35-2.793l-.254-.178.135.042a28.619,28.619,0,0,1-4.858.017,28.3,28.3,0,0,1,4.832-.457h.076l.059.042.254.178a30.659,30.659,0,0,1,4.1,3.157Z" transform="translate(-49.03 -57.204)" fill="#263238"/>
    <path id="Trazado_605732" data-name="Trazado 605732" d="M323.665,378.564c-.118,0-.228-.465-.245-1.058s.068-1.066.195-1.066.229.465.245,1.058S323.792,378.564,323.665,378.564Z" transform="translate(-49.704 -57.851)" fill="#455a64"/>
    <path id="Trazado_605733" data-name="Trazado 605733" d="M263.678,383.88l3.749,3.208-.017-2.285-3.961-2.962Z" transform="translate(-40.488 -58.681)" fill="#263238"/>
    <path id="Trazado_605734" data-name="Trazado 605734" d="M267.368,384.9l5.4-.178-4.342-3.157-4.976.228Z" transform="translate(-40.488 -58.639)" fill="#455a64"/>
    <path id="Trazado_605735" data-name="Trazado 605735" d="M268.08,385.478l.059,2.141,5.273-.339.068-1.98Z" transform="translate(-41.199 -59.212)" fill="#263238"/>
    <path id="Trazado_605736" data-name="Trazado 605736" d="M272.766,384.688a30.609,30.609,0,0,1-4.35-2.793l-.254-.178.135.042a28.616,28.616,0,0,1-4.858.017,28.322,28.322,0,0,1,4.832-.457h.076l.059.042.254.178a29.57,29.57,0,0,1,4.088,3.157Z" transform="translate(-40.486 -58.601)" fill="#263238"/>
    <path id="Trazado_605737" data-name="Trazado 605737" d="M268.085,387.654c-.118,0-.229-.465-.245-1.058s.068-1.066.195-1.066.229.465.245,1.058S268.212,387.654,268.085,387.654Z" transform="translate(-41.162 -59.248)" fill="#455a64"/>
    <path id="Trazado_605738" data-name="Trazado 605738" d="M274.357,383.68l3.741,3.208-.017-2.285-3.961-2.962Z" transform="translate(-42.128 -58.65)" fill="#263238"/>
    <path id="Trazado_605739" data-name="Trazado 605739" d="M278.047,384.7l5.391-.178L279.1,381.37l-4.976.229Z" transform="translate(-42.128 -58.608)" fill="#455a64"/>
    <path id="Trazado_605740" data-name="Trazado 605740" d="M278.76,385.278l.051,2.141,5.273-.339.068-1.98Z" transform="translate(-42.841 -59.182)" fill="#263238"/>
    <path id="Trazado_605741" data-name="Trazado 605741" d="M283.436,384.488a30.616,30.616,0,0,1-4.35-2.793l-.254-.178.135.042a28.615,28.615,0,0,1-4.858.017,28.314,28.314,0,0,1,4.832-.457h.076l.059.042.254.178a30.662,30.662,0,0,1,4.1,3.157Z" transform="translate(-42.126 -58.57)" fill="#263238"/>
    <path id="Trazado_605742" data-name="Trazado 605742" d="M278.755,387.454c-.118,0-.228-.465-.245-1.058s.068-1.066.195-1.066.229.465.245,1.058S278.882,387.454,278.755,387.454Z" transform="translate(-42.802 -59.217)" fill="#455a64"/>
    <path id="Trazado_605743" data-name="Trazado 605743" d="M284.577,383.54l3.741,3.216-.017-2.294-3.961-2.954Z" transform="translate(-43.698 -58.63)" fill="#263238"/>
    <path id="Trazado_605744" data-name="Trazado 605744" d="M288.267,384.573l5.391-.186-4.342-3.148-4.976.228Z" transform="translate(-43.698 -58.588)" fill="#455a64"/>
    <path id="Trazado_605745" data-name="Trazado 605745" d="M288.98,385.145l.051,2.141,5.273-.347.068-1.98Z" transform="translate(-44.411 -59.16)" fill="#263238"/>
    <path id="Trazado_605746" data-name="Trazado 605746" d="M293.656,384.347a30.611,30.611,0,0,1-4.35-2.793l-.254-.178.135.042a28.634,28.634,0,0,1-4.858.017,28.3,28.3,0,0,1,4.832-.457h.076l.059.042.254.178a29.569,29.569,0,0,1,4.088,3.157Z" transform="translate(-43.697 -58.548)" fill="#263238"/>
    <path id="Trazado_605747" data-name="Trazado 605747" d="M288.975,387.324c-.118,0-.228-.465-.245-1.058s.068-1.066.195-1.066.229.465.245,1.058S289.1,387.324,288.975,387.324Z" transform="translate(-44.373 -59.197)" fill="#455a64"/>
    <path id="Trazado_605748" data-name="Trazado 605748" d="M295.216,383.24l3.741,3.208-.017-2.285-3.961-2.962Z" transform="translate(-45.333 -58.582)" fill="#263238"/>
    <path id="Trazado_605749" data-name="Trazado 605749" d="M298.906,384.264l5.391-.178-4.342-3.157-4.976.229Z" transform="translate(-45.333 -58.541)" fill="#455a64"/>
    <path id="Trazado_605750" data-name="Trazado 605750" d="M299.62,384.838l.051,2.141,5.273-.339.068-1.98Z" transform="translate(-46.047 -59.114)" fill="#263238"/>
    <path id="Trazado_605751" data-name="Trazado 605751" d="M304.3,384.048a30.612,30.612,0,0,1-4.35-2.793l-.254-.178.135.042a28.628,28.628,0,0,1-4.858.017,28.3,28.3,0,0,1,4.832-.457h.076l.059.042.254.178a30.665,30.665,0,0,1,4.1,3.157Z" transform="translate(-45.332 -58.502)" fill="#263238"/>
    <path id="Trazado_605752" data-name="Trazado 605752" d="M299.615,387.014c-.119,0-.228-.465-.245-1.058s.068-1.066.195-1.066.228.465.245,1.058S299.742,387.014,299.615,387.014Z" transform="translate(-46.008 -59.149)" fill="#455a64"/>
    <path id="Trazado_605753" data-name="Trazado 605753" d="M306.007,382.97l3.741,3.216-.017-2.294-3.961-2.954Z" transform="translate(-46.992 -58.542)" fill="#263238"/>
    <path id="Trazado_605754" data-name="Trazado 605754" d="M309.7,384l5.4-.186-4.35-3.157-4.976.237Z" transform="translate(-46.992 -58.499)" fill="#455a64"/>
    <path id="Trazado_605755" data-name="Trazado 605755" d="M310.41,384.576l.051,2.141,5.273-.347.076-1.98Z" transform="translate(-47.705 -59.073)" fill="#263238"/>
    <path id="Trazado_605756" data-name="Trazado 605756" d="M315.1,383.778a30.614,30.614,0,0,1-4.35-2.793l-.254-.178.135.042a28.628,28.628,0,0,1-4.858.017,28.3,28.3,0,0,1,4.833-.457h.076l.059.042.254.178a30.674,30.674,0,0,1,4.1,3.157Z" transform="translate(-46.992 -58.461)" fill="#263238"/>
    <path id="Trazado_605757" data-name="Trazado 605757" d="M310.405,386.754c-.118,0-.229-.465-.245-1.058s.068-1.066.195-1.066.229.465.245,1.058S310.532,386.754,310.405,386.754Z" transform="translate(-47.666 -59.109)" fill="#455a64"/>
    <path id="Trazado_605758" data-name="Trazado 605758" d="M316.309,382.49l3.749,3.208-.017-2.285-3.961-2.962Z" transform="translate(-48.576 -58.467)" fill="#263238"/>
    <path id="Trazado_605759" data-name="Trazado 605759" d="M320,383.514l5.4-.178-4.342-3.157-4.976.229Z" transform="translate(-48.576 -58.426)" fill="#455a64"/>
    <path id="Trazado_605760" data-name="Trazado 605760" d="M320.71,384.088l.059,2.141,5.273-.339.068-1.98Z" transform="translate(-49.288 -58.999)" fill="#263238"/>
    <path id="Trazado_605761" data-name="Trazado 605761" d="M325.4,383.3a30.62,30.62,0,0,1-4.35-2.793l-.254-.178.135.042a28.62,28.62,0,0,1-4.858.017,29.234,29.234,0,0,1,4.832-.457h.076l.059.042.254.178a30.661,30.661,0,0,1,4.1,3.157Z" transform="translate(-48.575 -58.387)" fill="#263238"/>
    <path id="Trazado_605762" data-name="Trazado 605762" d="M320.715,386.264c-.119,0-.229-.465-.245-1.058s.068-1.066.195-1.066.229.465.245,1.058S320.842,386.264,320.715,386.264Z" transform="translate(-49.251 -59.034)" fill="#455a64"/>
    <path id="Trazado_605763" data-name="Trazado 605763" d="M326.387,381.91l3.741,3.208-.017-2.285-3.961-2.962Z" transform="translate(-50.124 -58.378)" fill="#263238"/>
    <path id="Trazado_605764" data-name="Trazado 605764" d="M330.077,382.935l5.4-.178-4.35-3.157-4.976.229Z" transform="translate(-50.124 -58.336)" fill="#455a64"/>
    <path id="Trazado_605765" data-name="Trazado 605765" d="M330.79,383.508l.051,2.141,5.273-.339.076-1.98Z" transform="translate(-50.837 -58.91)" fill="#263238"/>
    <path id="Trazado_605766" data-name="Trazado 605766" d="M335.476,382.718a30.6,30.6,0,0,1-4.35-2.793l-.254-.178.135.042a28.615,28.615,0,0,1-4.858.017,28.311,28.311,0,0,1,4.832-.457h.076l.059.042.254.178a30.674,30.674,0,0,1,4.1,3.157Z" transform="translate(-50.124 -58.298)" fill="#263238"/>
    <path id="Trazado_605767" data-name="Trazado 605767" d="M330.785,385.684c-.118,0-.228-.465-.245-1.058s.068-1.066.195-1.066.229.465.245,1.058S330.912,385.684,330.785,385.684Z" transform="translate(-50.798 -58.945)" fill="#455a64"/>
    <path id="Trazado_605768" data-name="Trazado 605768" d="M352.38,377.571,276.8,381.685l-10.037,9.5L247.42,374.22v4.917l20.041,19.2,11.061-10.757,75.009-4.469Z" transform="translate(-38.024 -57.51)" fill="#263238"/>
    <path id="Trazado_605769" data-name="Trazado 605769" d="M271.1,399.954l68.289-3.995,17.781-11.231-76.812,3.013Z" transform="translate(-41.664 -59.125)" fill="#263238"/>
    <path id="Trazado_605770" data-name="Trazado 605770" d="M357.169,384.729s-.076.017-.228.034l-.686.059c-.635.051-1.515.11-2.632.195-2.319.152-5.62.372-9.682.652-8.209.508-19.491,1.2-31.957,1.972-11.468.66-21.937,1.269-29.816,1.726l.1-.042c-3.411,3.275-6.187,5.941-8.142,7.812-.948.9-1.7,1.608-2.234,2.116-.245.22-.44.4-.592.542-.135.119-.2.178-.212.169a1.873,1.873,0,0,1,.178-.212c.144-.152.33-.339.559-.576L274,397c1.921-1.9,4.663-4.6,8.032-7.913l.042-.042h.059c7.871-.491,18.34-1.134,29.807-1.836l31.965-1.845c4.071-.212,7.371-.389,9.69-.508,1.117-.051,2-.085,2.641-.118.279,0,.508-.017.686-.017a1.039,1.039,0,0,1,.237.008Z" transform="translate(-41.662 -59.123)" fill="#455a64"/>
    <path id="Trazado_605771" data-name="Trazado 605771" d="M283.852,388.939a11.125,11.125,0,0,1-1.075-2.886,11.383,11.383,0,0,1-.652-3.013,11.123,11.123,0,0,1,1.075,2.886A11.318,11.318,0,0,1,283.852,388.939Z" transform="translate(-43.354 -58.865)" fill="#455a64"/>
    <path id="Trazado_605772" data-name="Trazado 605772" d="M369.848,216.179,302.016,203.2a3.828,3.828,0,0,1-3.038-4.477L320.8,84.679a5.44,5.44,0,0,1,6.356-4.316l64.676,12.382a5.44,5.44,0,0,1,4.316,6.356L374.325,213.141A3.828,3.828,0,0,1,369.848,216.179Z" transform="translate(-45.937 -12.334)" fill="#455a64"/>
    <g id="Grupo_1014681" data-name="Grupo 1014681" transform="translate(252.92 67.916)" opacity="0.4">
      <path id="Trazado_605773" data-name="Trazado 605773" d="M369.788,216.16l-67.832-12.982a3.828,3.828,0,0,1-3.038-4.477L320.744,84.659a5.44,5.44,0,0,1,6.356-4.316l64.676,12.382a5.44,5.44,0,0,1,4.316,6.356L374.265,213.121A3.828,3.828,0,0,1,369.788,216.16Z" transform="translate(-298.848 -80.247)"/>
    </g>
    <path id="Trazado_605774" data-name="Trazado 605774" d="M362.868,214.809l-67.832-12.983A3.828,3.828,0,0,1,292,197.35L313.824,83.309a5.44,5.44,0,0,1,6.356-4.316l64.676,12.382a5.44,5.44,0,0,1,4.316,6.356L367.345,211.771A3.828,3.828,0,0,1,362.868,214.809Z" transform="translate(-44.865 -12.123)" fill="#455a64"/>
    <path id="Trazado_605775" data-name="Trazado 605775" d="M332.652,197.5l-21.387-4.1a2.049,2.049,0,0,0-2.4,1.627l-1.379,7.206a2.048,2.048,0,0,0,1.627,2.4l21.386,4.1a2.048,2.048,0,0,0,2.4-1.627l1.38-7.206A2.048,2.048,0,0,0,332.652,197.5Z" transform="translate(-47.25 -29.715)" fill="#455a64"/>
    <g id="Grupo_1014682" data-name="Grupo 1014682" transform="translate(260.201 163.65)" opacity="0.2">
      <path id="Trazado_605776" data-name="Trazado 605776" d="M332.652,197.5l-21.387-4.1a2.049,2.049,0,0,0-2.4,1.627l-1.379,7.206a2.048,2.048,0,0,0,1.627,2.4l21.386,4.1a2.048,2.048,0,0,0,2.4-1.627l1.38-7.206A2.048,2.048,0,0,0,332.652,197.5Z" transform="translate(-307.451 -193.365)"/>
    </g>
    <path id="Trazado_605777" data-name="Trazado 605777" d="M322.361,93.635,317.523,118.9l64.419,12.335,4.838-25.269Z" transform="translate(-48.798 -14.388)" fill="#e3e3e3"/>
    <path id="Trazado_605778" data-name="Trazado 605778" d="M381.9,131.2s.025-.152.076-.449.135-.736.245-1.312c.22-1.151.533-2.844.939-5.019.821-4.359,2.014-10.672,3.5-18.5l.059.093c-16.215-3.1-39.091-7.464-64.422-12.3l.127-.093c-1.693,8.835-3.326,17.375-4.841,25.271l-.085-.127,46.158,8.886c5.721,1.109,10.274,1.989,13.406,2.6,1.566.3,2.767.542,3.588.7.406.085.719.144.931.186s.322.068.322.068l-.3-.051-.922-.169c-.821-.152-2.014-.381-3.571-.669-3.123-.592-7.676-1.456-13.389-2.53-11.459-2.184-27.573-5.247-46.251-8.8l-.1-.017.017-.1c1.506-7.9,3.14-16.435,4.832-25.271l.017-.11.11.017c25.322,4.858,48.2,9.25,64.4,12.365l.076.017-.017.076c-1.523,7.845-2.742,14.167-3.588,18.534-.423,2.167-.753,3.851-.973,5l-.254,1.295c-.059.288-.093.432-.093.432Z" transform="translate(-48.773 -14.366)" fill="#263238"/>
    <path id="Trazado_605779" data-name="Trazado 605779" d="M328.351,138.037l-7.49-1.434a1.76,1.76,0,0,0-2.06,1.4l-1.434,7.489a1.76,1.76,0,0,0,1.4,2.06l7.489,1.434a1.76,1.76,0,0,0,2.06-1.4l1.434-7.49A1.76,1.76,0,0,0,328.351,138.037Z" transform="translate(-48.769 -20.987)" fill="#455a64"/>
    <g id="Grupo_1014683" data-name="Grupo 1014683" transform="translate(268.566 115.584)" opacity="0.2">
      <path id="Trazado_605780" data-name="Trazado 605780" d="M328.351,138.037l-7.49-1.434a1.76,1.76,0,0,0-2.06,1.4l-1.434,7.489a1.76,1.76,0,0,0,1.4,2.06l7.489,1.434a1.76,1.76,0,0,0,2.06-1.4l1.434-7.49A1.76,1.76,0,0,0,328.351,138.037Z" transform="translate(-317.336 -136.572)"/>
    </g>
    <path id="Trazado_605781" data-name="Trazado 605781" d="M326.358,137.658l-7.489-1.434a1.76,1.76,0,0,0-2.06,1.4l-1.435,7.489a1.761,1.761,0,0,0,1.4,2.061l7.489,1.434a1.76,1.76,0,0,0,2.06-1.4l1.435-7.489A1.761,1.761,0,0,0,326.358,137.658Z" transform="translate(-48.463 -20.929)" fill="#263238"/>
    <path id="Trazado_605782" data-name="Trazado 605782" d="M323.763,140.881l-.872,4.562-1.058-.2.711-3.715-.914-.178.161-.846Z" transform="translate(-49.429 -21.591)" fill="#e0e4ee"/>
    <path id="Trazado_605783" data-name="Trazado 605783" d="M346.4,141.5l-7.489-1.434a1.76,1.76,0,0,0-2.06,1.4l-1.434,7.489a1.76,1.76,0,0,0,1.4,2.06l7.49,1.434a1.76,1.76,0,0,0,2.06-1.4l1.434-7.49A1.76,1.76,0,0,0,346.4,141.5Z" transform="translate(-51.543 -21.519)" fill="#455a64"/>
    <g id="Grupo_1014684" data-name="Grupo 1014684" transform="translate(283.84 118.514)" opacity="0.2">
      <path id="Trazado_605784" data-name="Trazado 605784" d="M346.4,141.5l-7.489-1.434a1.76,1.76,0,0,0-2.06,1.4l-1.435,7.489a1.761,1.761,0,0,0,1.4,2.06l7.489,1.434a1.76,1.76,0,0,0,2.06-1.4l1.434-7.49A1.761,1.761,0,0,0,346.4,141.5Z" transform="translate(-335.383 -140.033)"/>
    </g>
    <path id="Trazado_605785" data-name="Trazado 605785" d="M344.407,141.111l-7.489-1.434a1.761,1.761,0,0,0-2.061,1.4l-1.434,7.49a1.76,1.76,0,0,0,1.4,2.06l7.489,1.434a1.76,1.76,0,0,0,2.06-1.4l1.434-7.489A1.76,1.76,0,0,0,344.407,141.111Z" transform="translate(-51.237 -21.459)" fill="#263238"/>
    <path id="Trazado_605786" data-name="Trazado 605786" d="M342.645,148.389l-.161.863-3.445-.66.127-.686,2.082-1.329c.474-.3.592-.525.635-.753.068-.355-.135-.618-.618-.711a1.117,1.117,0,0,0-1.033.279l-.677-.643a2.139,2.139,0,0,1,1.972-.5c1.016.195,1.591.846,1.439,1.676a1.867,1.867,0,0,1-1.041,1.295l-1.236.787,1.963.372Z" transform="translate(-52.105 -22.159)" fill="#e0e4ee"/>
    <path id="Trazado_605787" data-name="Trazado 605787" d="M365.1,145.083l-7.489-1.434a1.76,1.76,0,0,0-2.06,1.4l-1.435,7.489a1.761,1.761,0,0,0,1.4,2.06L363,156.03a1.76,1.76,0,0,0,2.06-1.4l1.435-7.49A1.761,1.761,0,0,0,365.1,145.083Z" transform="translate(-54.417 -22.07)" fill="#455a64"/>
    <g id="Grupo_1014685" data-name="Grupo 1014685" transform="translate(299.669 121.548)" opacity="0.2">
      <path id="Trazado_605788" data-name="Trazado 605788" d="M365.1,145.083l-7.489-1.434a1.76,1.76,0,0,0-2.06,1.4l-1.435,7.489a1.761,1.761,0,0,0,1.4,2.06L363,156.03a1.76,1.76,0,0,0,2.06-1.4l1.435-7.49A1.761,1.761,0,0,0,365.1,145.083Z" transform="translate(-354.086 -143.618)"/>
    </g>
    <path id="Trazado_605789" data-name="Trazado 605789" d="M363.1,144.694l-7.489-1.434a1.76,1.76,0,0,0-2.06,1.4l-1.435,7.49a1.761,1.761,0,0,0,1.4,2.06L361,155.641a1.76,1.76,0,0,0,2.06-1.4l1.435-7.489A1.761,1.761,0,0,0,363.1,144.694Z" transform="translate(-54.11 -22.01)" fill="#263238"/>
    <path id="Trazado_605790" data-name="Trazado 605790" d="M361.386,151.4c-.144.77-.872,1.363-2.175,1.109a3.214,3.214,0,0,1-1.65-.821l.567-.728a2.264,2.264,0,0,0,1.227.66c.525.1.9-.051.965-.423.068-.347-.144-.609-.745-.728l-.482-.093.135-.694,1.143-.88-1.947-.372.161-.846,3.191.609-.127.686-1.253.973A1.327,1.327,0,0,1,361.386,151.4Z" transform="translate(-54.951 -22.679)" fill="#e0e4ee"/>
    <path id="Trazado_605791" data-name="Trazado 605791" d="M383.8,148.666l-7.49-1.434a1.76,1.76,0,0,0-2.06,1.4l-1.434,7.489a1.76,1.76,0,0,0,1.4,2.06l7.489,1.434a1.76,1.76,0,0,0,2.06-1.4l1.434-7.49A1.76,1.76,0,0,0,383.8,148.666Z" transform="translate(-57.291 -22.621)" fill="#455a64"/>
    <g id="Grupo_1014686" data-name="Grupo 1014686" transform="translate(315.497 124.58)" opacity="0.2">
      <path id="Trazado_605792" data-name="Trazado 605792" d="M383.8,148.666l-7.49-1.434a1.76,1.76,0,0,0-2.06,1.4l-1.434,7.489a1.76,1.76,0,0,0,1.4,2.06l7.489,1.434a1.76,1.76,0,0,0,2.06-1.4l1.434-7.49A1.76,1.76,0,0,0,383.8,148.666Z" transform="translate(-372.789 -147.201)"/>
    </g>
    <path id="Trazado_605793" data-name="Trazado 605793" d="M381.85,148.286l-7.489-1.434a1.76,1.76,0,0,0-2.06,1.4l-1.435,7.489a1.761,1.761,0,0,0,1.4,2.06l7.489,1.434a1.76,1.76,0,0,0,2.06-1.4l1.435-7.489A1.762,1.762,0,0,0,381.85,148.286Z" transform="translate(-56.991 -22.562)" fill="#263238"/>
    <path id="Trazado_605794" data-name="Trazado 605794" d="M375.318,153.137l-.08.416,4.887.936.08-.416Z" transform="translate(-57.668 -23.533)" fill="#e0e4ee"/>
    <path id="Trazado_605795" data-name="Trazado 605795" d="M379.288,151.405a.81.81,0,1,1-.643-.948A.809.809,0,0,1,379.288,151.405Z" transform="translate(-58.044 -23.119)" fill="#e0e4ee"/>
    <path id="Trazado_605796" data-name="Trazado 605796" d="M378.328,156.445a.81.81,0,1,1-.643-.948A.809.809,0,0,1,378.328,156.445Z" transform="translate(-57.896 -23.893)" fill="#e0e4ee"/>
    <g id="Grupo_1014687" data-name="Grupo 1014687" transform="translate(265.41 131.516)" opacity="0.2">
      <path id="Trazado_605797" data-name="Trazado 605797" d="M323.215,168.018l-8.666-1.659a1.162,1.162,0,0,1-.922-1.354l1.659-8.666a1.162,1.162,0,0,1,1.354-.923l8.666,1.659a1.14,1.14,0,0,1,.922,1.354l-1.659,8.666A1.162,1.162,0,0,1,323.215,168.018Z" transform="translate(-313.606 -155.396)"/>
    </g>
    <path id="Trazado_605798" data-name="Trazado 605798" d="M322.739,156.609l-7.489-1.434a1.761,1.761,0,0,0-2.061,1.4l-1.434,7.49a1.76,1.76,0,0,0,1.4,2.06l7.489,1.434a1.76,1.76,0,0,0,2.06-1.4l1.434-7.49A1.761,1.761,0,0,0,322.739,156.609Z" transform="translate(-47.907 -23.841)" fill="#263238"/>
    <path id="Trazado_605799" data-name="Trazado 605799" d="M320.512,163.733l-.745-.144-.186.956-1.033-.195.186-.956-2.454-.474.135-.711,2.708-2.48,1.109.212L317.71,162.3l1.227.237.161-.855,1,.195-.161.855.745.144-.161.863Z" transform="translate(-48.607 -24.546)" fill="#e0e4ee"/>
    <path id="Trazado_605800" data-name="Trazado 605800" d="M342.769,160.45l-7.49-1.435a1.761,1.761,0,0,0-2.06,1.4l-1.434,7.489a1.76,1.76,0,0,0,1.4,2.06l7.49,1.435a1.761,1.761,0,0,0,2.06-1.4l1.434-7.489A1.76,1.76,0,0,0,342.769,160.45Z" transform="translate(-50.985 -24.431)" fill="#455a64"/>
    <g id="Grupo_1014688" data-name="Grupo 1014688" transform="translate(280.769 134.552)" opacity="0.2">
      <path id="Trazado_605801" data-name="Trazado 605801" d="M342.769,160.45l-7.49-1.435a1.761,1.761,0,0,0-2.06,1.4l-1.434,7.489a1.76,1.76,0,0,0,1.4,2.06l7.49,1.435a1.761,1.761,0,0,0,2.06-1.4l1.434-7.489A1.76,1.76,0,0,0,342.769,160.45Z" transform="translate(-331.754 -158.984)"/>
    </g>
    <path id="Trazado_605802" data-name="Trazado 605802" d="M340.776,160.07l-7.489-1.434a1.76,1.76,0,0,0-2.06,1.4l-1.435,7.49a1.761,1.761,0,0,0,1.4,2.06l7.489,1.434a1.76,1.76,0,0,0,2.06-1.4l1.435-7.489A1.761,1.761,0,0,0,340.776,160.07Z" transform="translate(-50.679 -24.373)" fill="#263238"/>
    <path id="Trazado_605803" data-name="Trazado 605803" d="M338.514,166.637c-.152.8-.88,1.4-2.184,1.151a3.215,3.215,0,0,1-1.65-.821l.576-.728a2.239,2.239,0,0,0,1.219.66c.525.1.9-.059.965-.432.068-.355-.119-.635-.948-.8l-1.168-.22.728-2.522,2.784.533-.161.846-1.9-.364-.237.855.372.068c1.346.262,1.769.965,1.617,1.777Z" transform="translate(-51.435 -25.038)" fill="#e0e4ee"/>
    <path id="Trazado_605804" data-name="Trazado 605804" d="M361.471,164.033l-7.489-1.434a1.761,1.761,0,0,0-2.06,1.4l-1.434,7.489a1.761,1.761,0,0,0,1.4,2.06l7.489,1.435a1.76,1.76,0,0,0,2.06-1.4l1.434-7.489A1.76,1.76,0,0,0,361.471,164.033Z" transform="translate(-53.859 -24.982)" fill="#455a64"/>
    <g id="Grupo_1014689" data-name="Grupo 1014689" transform="translate(296.597 137.585)" opacity="0.2">
      <path id="Trazado_605805" data-name="Trazado 605805" d="M361.472,164.033l-7.49-1.434a1.761,1.761,0,0,0-2.06,1.4l-1.434,7.489a1.76,1.76,0,0,0,1.4,2.06l7.489,1.435a1.761,1.761,0,0,0,2.06-1.4l1.434-7.489A1.76,1.76,0,0,0,361.472,164.033Z" transform="translate(-350.457 -162.567)"/>
    </g>
    <path id="Trazado_605806" data-name="Trazado 605806" d="M359.469,163.653l-7.489-1.434a1.761,1.761,0,0,0-2.061,1.4l-1.434,7.49a1.76,1.76,0,0,0,1.4,2.06l7.489,1.434a1.76,1.76,0,0,0,2.06-1.4l1.434-7.489A1.76,1.76,0,0,0,359.469,163.653Z" transform="translate(-53.551 -24.924)" fill="#263238"/>
    <path id="Trazado_605807" data-name="Trazado 605807" d="M357.62,170.309a1.591,1.591,0,0,1-2.014,1.185A2,2,0,0,1,354,168.844a2.268,2.268,0,0,1,2.8-2.014,2.515,2.515,0,0,1,1.21.559l-.542.7a1.524,1.524,0,0,0-.812-.389,1.24,1.24,0,0,0-1.54,1.075,1.538,1.538,0,0,1,1.2-.186A1.479,1.479,0,0,1,357.62,170.309Zm-1.033-.144a.7.7,0,0,0-.643-.829.731.731,0,0,0-.922.533c-.076.389.161.736.669.829a.693.693,0,0,0,.889-.533Z" transform="translate(-54.394 -25.629)" fill="#e0e4ee"/>
    <path id="Trazado_605808" data-name="Trazado 605808" d="M380.165,167.616l-7.49-1.435a1.761,1.761,0,0,0-2.06,1.4l-1.434,7.489a1.76,1.76,0,0,0,1.4,2.06l7.49,1.435a1.761,1.761,0,0,0,2.06-1.4l1.434-7.489A1.76,1.76,0,0,0,380.165,167.616Z" transform="translate(-56.732 -25.533)" fill="#455a64"/>
    <g id="Grupo_1014690" data-name="Grupo 1014690" transform="translate(312.417 140.617)" opacity="0.2">
      <path id="Trazado_605809" data-name="Trazado 605809" d="M380.165,167.616l-7.49-1.435a1.761,1.761,0,0,0-2.06,1.4l-1.434,7.489a1.76,1.76,0,0,0,1.4,2.06l7.49,1.435a1.761,1.761,0,0,0,2.06-1.4l1.434-7.489A1.76,1.76,0,0,0,380.165,167.616Z" transform="translate(-369.15 -166.15)"/>
    </g>
    <path id="Trazado_605810" data-name="Trazado 605810" d="M378.172,167.236l-7.489-1.434a1.76,1.76,0,0,0-2.06,1.4l-1.435,7.49a1.761,1.761,0,0,0,1.4,2.06l7.489,1.434a1.76,1.76,0,0,0,2.06-1.4l1.435-7.489A1.761,1.761,0,0,0,378.172,167.236Z" transform="translate(-56.426 -25.474)" fill="#263238"/>
    <path id="Trazado_605811" data-name="Trazado 605811" d="M376.09,171.282l-4.159,2.732.232.354,4.16-2.733Z" transform="translate(-57.16 -26.321)" fill="#e0e4ee"/>
    <path id="Trazado_605812" data-name="Trazado 605812" d="M373.024,170.523l-.35.238,2.8,4.117.35-.238Z" transform="translate(-57.274 -26.205)" fill="#e0e4ee"/>
    <path id="Trazado_605813" data-name="Trazado 605813" d="M321.129,175.8l-7.489-1.434a1.761,1.761,0,0,0-2.06,1.4l-1.434,7.489a1.76,1.76,0,0,0,1.4,2.06l7.49,1.435a1.761,1.761,0,0,0,2.06-1.4l1.434-7.489A1.76,1.76,0,0,0,321.129,175.8Z" transform="translate(-47.659 -26.79)" fill="#455a64"/>
    <g id="Grupo_1014691" data-name="Grupo 1014691" transform="translate(262.455 147.54)" opacity="0.2">
      <path id="Trazado_605814" data-name="Trazado 605814" d="M321.13,175.8l-7.489-1.434a1.76,1.76,0,0,0-2.06,1.4l-1.435,7.489a1.761,1.761,0,0,0,1.4,2.06l7.489,1.435a1.761,1.761,0,0,0,2.06-1.4l1.435-7.489A1.761,1.761,0,0,0,321.13,175.8Z" transform="translate(-310.115 -174.33)"/>
    </g>
    <path id="Trazado_605815" data-name="Trazado 605815" d="M319.127,175.407l-7.489-1.435a1.761,1.761,0,0,0-2.06,1.4l-1.435,7.489a1.761,1.761,0,0,0,1.4,2.06l7.489,1.435a1.761,1.761,0,0,0,2.06-1.4l1.434-7.489A1.76,1.76,0,0,0,319.127,175.407Z" transform="translate(-47.352 -26.73)" fill="#263238"/>
    <path id="Trazado_605816" data-name="Trazado 605816" d="M317.059,178.734l-.127.686-2.437,3.555-1.151-.22,2.344-3.394-1.515-.288-.144.745-.939-.178.3-1.6,3.656.7Z" transform="translate(-48.117 -27.36)" fill="#e0e4ee"/>
    <path id="Trazado_605817" data-name="Trazado 605817" d="M339.167,179.247l-7.489-1.435a1.761,1.761,0,0,0-2.06,1.4l-1.434,7.489a1.76,1.76,0,0,0,1.4,2.06l7.49,1.434a1.761,1.761,0,0,0,2.06-1.4l1.434-7.489A1.76,1.76,0,0,0,339.167,179.247Z" transform="translate(-50.432 -27.32)" fill="#455a64"/>
    <g id="Grupo_1014692" data-name="Grupo 1014692" transform="translate(277.721 150.46)" opacity="0.2">
      <path id="Trazado_605818" data-name="Trazado 605818" d="M339.167,179.247l-7.489-1.435a1.761,1.761,0,0,0-2.06,1.4l-1.434,7.489a1.76,1.76,0,0,0,1.4,2.06l7.49,1.434a1.761,1.761,0,0,0,2.06-1.4l1.434-7.489A1.76,1.76,0,0,0,339.167,179.247Z" transform="translate(-328.152 -177.781)"/>
    </g>
    <path id="Trazado_605819" data-name="Trazado 605819" d="M337.175,178.868l-7.489-1.435a1.76,1.76,0,0,0-2.06,1.4l-1.435,7.489a1.76,1.76,0,0,0,1.4,2.06l7.489,1.435a1.761,1.761,0,0,0,2.06-1.4l1.435-7.489A1.76,1.76,0,0,0,337.175,178.868Z" transform="translate(-50.125 -27.262)" fill="#263238"/>
    <path id="Trazado_605820" data-name="Trazado 605820" d="M335.317,185.641c-.161.863-1.041,1.253-2.2,1.033s-1.811-.906-1.65-1.769a1.166,1.166,0,0,1,.9-.939,1.081,1.081,0,0,1-.347-1.041c.152-.8.965-1.168,2.006-.965s1.667.838,1.515,1.642a1.079,1.079,0,0,1-.711.838,1.182,1.182,0,0,1,.491,1.21Zm-1.066-.237c.076-.406-.212-.719-.736-.821s-.9.085-.973.491.2.719.719.821S334.166,185.8,334.251,185.4Zm-1.193-2.234c-.068.347.169.609.6.694s.762-.076.821-.423-.178-.626-.609-.711S333.125,182.806,333.058,183.17Z" transform="translate(-50.937 -27.954)" fill="#e0e4ee"/>
    <path id="Trazado_605821" data-name="Trazado 605821" d="M357.87,182.83l-7.489-1.435a1.761,1.761,0,0,0-2.06,1.4l-1.435,7.489a1.76,1.76,0,0,0,1.4,2.06l7.489,1.435a1.76,1.76,0,0,0,2.06-1.4l1.435-7.489A1.761,1.761,0,0,0,357.87,182.83Z" transform="translate(-53.306 -27.871)" fill="#455a64"/>
    <g id="Grupo_1014693" data-name="Grupo 1014693" transform="translate(293.55 153.493)" opacity="0.2">
      <path id="Trazado_605822" data-name="Trazado 605822" d="M357.871,182.83l-7.49-1.435a1.761,1.761,0,0,0-2.06,1.4l-1.434,7.489a1.76,1.76,0,0,0,1.4,2.06l7.489,1.435a1.761,1.761,0,0,0,2.06-1.4l1.434-7.489A1.76,1.76,0,0,0,357.871,182.83Z" transform="translate(-346.855 -181.364)"/>
    </g>
    <path id="Trazado_605823" data-name="Trazado 605823" d="M355.868,182.451l-7.49-1.434a1.76,1.76,0,0,0-2.06,1.4l-1.434,7.489a1.76,1.76,0,0,0,1.4,2.06l7.489,1.435a1.761,1.761,0,0,0,2.06-1.4l1.434-7.489A1.76,1.76,0,0,0,355.868,182.451Z" transform="translate(-52.998 -27.813)" fill="#263238"/>
    <path id="Trazado_605824" data-name="Trazado 605824" d="M354.033,188.121a2.265,2.265,0,0,1-2.8,2.014,2.41,2.41,0,0,1-1.2-.559l.542-.7a1.468,1.468,0,0,0,.812.389,1.244,1.244,0,0,0,1.54-1.083,1.56,1.56,0,0,1-1.21.195,1.479,1.479,0,0,1-1.3-1.718,1.591,1.591,0,0,1,2.014-1.185A2,2,0,0,1,354.033,188.121Zm-1.024-1.024c.076-.389-.161-.736-.669-.829a.7.7,0,1,0-.245,1.363A.722.722,0,0,0,353.009,187.1Z" transform="translate(-53.794 -28.496)" fill="#e0e4ee"/>
    <path id="Trazado_605825" data-name="Trazado 605825" d="M376.573,186.413l-7.489-1.435a1.761,1.761,0,0,0-2.06,1.4l-1.435,7.489a1.76,1.76,0,0,0,1.4,2.06l7.489,1.435a1.762,1.762,0,0,0,2.061-1.4l1.434-7.489A1.76,1.76,0,0,0,376.573,186.413Z" transform="translate(-56.18 -28.421)" fill="#455a64"/>
    <g id="Grupo_1014694" data-name="Grupo 1014694" transform="translate(309.377 156.525)" opacity="0.2">
      <path id="Trazado_605826" data-name="Trazado 605826" d="M376.573,186.413l-7.489-1.435a1.761,1.761,0,0,0-2.06,1.4l-1.435,7.489a1.76,1.76,0,0,0,1.4,2.06l7.489,1.435a1.762,1.762,0,0,0,2.061-1.4l1.434-7.489A1.76,1.76,0,0,0,376.573,186.413Z" transform="translate(-365.558 -184.947)"/>
    </g>
    <path id="Trazado_605827" data-name="Trazado 605827" d="M374.572,186.024l-7.489-1.434a1.761,1.761,0,0,0-2.06,1.4l-1.434,7.489a1.76,1.76,0,0,0,1.4,2.06l7.489,1.435a1.762,1.762,0,0,0,2.061-1.4l1.434-7.489A1.76,1.76,0,0,0,374.572,186.024Z" transform="translate(-55.873 -28.362)" fill="#263238"/>
    <path id="Trazado_605828" data-name="Trazado 605828" d="M368.064,191.084l-.08.416,4.887.935.08-.416Z" transform="translate(-56.553 -29.365)" fill="#e0e4ee"/>
    <path id="Trazado_605829" data-name="Trazado 605829" d="M354.239,201.789l-7.489-1.435a1.761,1.761,0,0,0-2.06,1.4l-1.434,7.489a1.759,1.759,0,0,0,1.4,2.06l7.489,1.435a1.76,1.76,0,0,0,2.06-1.4l1.435-7.489A1.76,1.76,0,0,0,354.239,201.789Z" transform="translate(-52.748 -30.784)" fill="#455a64"/>
    <g id="Grupo_1014695" data-name="Grupo 1014695" transform="translate(290.477 169.538)" opacity="0.2">
      <path id="Trazado_605830" data-name="Trazado 605830" d="M354.24,201.789l-7.489-1.435a1.762,1.762,0,0,0-2.061,1.4l-1.434,7.489a1.76,1.76,0,0,0,1.4,2.06l7.489,1.435a1.761,1.761,0,0,0,2.06-1.4l1.434-7.489A1.759,1.759,0,0,0,354.24,201.789Z" transform="translate(-343.225 -200.323)"/>
    </g>
    <path id="Trazado_605831" data-name="Trazado 605831" d="M352.237,201.41l-7.489-1.434a1.76,1.76,0,0,0-2.06,1.4l-1.435,7.489a1.761,1.761,0,0,0,1.4,2.06l7.489,1.435a1.761,1.761,0,0,0,2.06-1.4l1.435-7.489A1.76,1.76,0,0,0,352.237,201.41Z" transform="translate(-52.44 -30.726)" fill="#263238"/>
    <path id="Trazado_605832" data-name="Trazado 605832" d="M372.942,205.372l-7.489-1.435a1.76,1.76,0,0,0-2.06,1.4l-1.435,7.489a1.76,1.76,0,0,0,1.4,2.06l7.489,1.435a1.761,1.761,0,0,0,2.06-1.4l1.435-7.489A1.761,1.761,0,0,0,372.942,205.372Z" transform="translate(-55.622 -31.335)" fill="#304c8e"/>
    <g id="Grupo_1014696" data-name="Grupo 1014696" transform="translate(306.305 172.57)" opacity="0.4">
      <path id="Trazado_605833" data-name="Trazado 605833" d="M372.942,205.372l-7.489-1.435a1.761,1.761,0,0,0-2.06,1.4l-1.434,7.489a1.76,1.76,0,0,0,1.4,2.06l7.49,1.435a1.761,1.761,0,0,0,2.06-1.4l1.434-7.489A1.76,1.76,0,0,0,372.942,205.372Z" transform="translate(-361.927 -203.906)"/>
    </g>
    <path id="Trazado_605834" data-name="Trazado 605834" d="M370.939,204.993l-7.489-1.435a1.76,1.76,0,0,0-2.06,1.4l-1.434,7.489a1.76,1.76,0,0,0,1.4,2.06l7.49,1.435a1.761,1.761,0,0,0,2.06-1.4l1.434-7.489A1.76,1.76,0,0,0,370.939,204.993Z" transform="translate(-55.314 -31.277)" fill="#304c8e"/>
    <path id="Trazado_605835" data-name="Trazado 605835" d="M364.583,209.341l-.08.416,4.887.935.08-.416Z" transform="translate(-56.018 -32.17)" fill="#e0e4ee"/>
    <path id="Trazado_605836" data-name="Trazado 605836" d="M364.165,211.537l-.08.416,4.887.935.08-.416Z" transform="translate(-55.954 -32.508)" fill="#e0e4ee"/>
    <path id="Trazado_605837" data-name="Trazado 605837" d="M329.984,196.989l-22.277-4.266a2.117,2.117,0,0,0-2.476,1.681l-1.354,7.074a2.115,2.115,0,0,0,1.68,2.475l22.277,4.266a2.117,2.117,0,0,0,2.476-1.681l1.354-7.074A2.115,2.115,0,0,0,329.984,196.989Z" transform="translate(-46.695 -29.611)" fill="#263238"/>
    <path id="Trazado_605838" data-name="Trazado 605838" d="M319.168,201.012c.288-1.506,1.286-2.2,2.4-1.989s1.794,1.227,1.506,2.734-1.278,2.2-2.4,1.989S318.88,202.519,319.168,201.012Zm2.852.542c.195-1.033-.085-1.54-.609-1.642s-.965.262-1.168,1.295.085,1.54.609,1.633.973-.262,1.176-1.295Z" transform="translate(-49.041 -30.579)" fill="#e0e4ee"/>
    <path id="Trazado_605839" data-name="Trazado 605839" d="M348.761,204.337l-1.008,4.873.415.086,1.008-4.874Z" transform="translate(-53.444 -31.401)" fill="#e0e4ee"/>
    <path id="Trazado_605840" data-name="Trazado 605840" d="M345.724,206.456l-.079.416,4.887.935.08-.416Z" transform="translate(-53.12 -31.727)" fill="#e0e4ee"/>
    <path id="Trazado_605841" data-name="Trazado 605841" d="M350.6,114.5l-1.3,6.821-.322-.059,1.244-6.517-1.718-.33.059-.3Z" transform="translate(-53.559 -17.535)" fill="#263238"/>
    <path id="Trazado_605842" data-name="Trazado 605842" d="M356.07,122.4l-.059.3-4.621-.88.042-.237,3.487-2.387c1-.677,1.269-1.143,1.371-1.693.178-.906-.347-1.616-1.54-1.837a2.565,2.565,0,0,0-2.2.423l-.186-.254a2.944,2.944,0,0,1,2.454-.474c1.3.254,2.006,1.083,1.794,2.184-.127.643-.432,1.168-1.506,1.9l-3.174,2.175,4.122.787Z" transform="translate(-54.003 -17.717)" fill="#263238"/>
    <path id="Trazado_605843" data-name="Trazado 605843" d="M362.589,121.949c-.22,1.134-1.168,1.777-2.666,1.49a3.119,3.119,0,0,1-2.184-1.4l.22-.2a2.872,2.872,0,0,0,2.014,1.295c1.3.254,2.107-.262,2.3-1.244s-.347-1.752-1.794-2.031l-.381-.076.042-.237,2.657-2.361-3.766-.719.059-.3,4.189.8-.042.237-2.666,2.37c1.6.3,2.234,1.236,2.023,2.378Z" transform="translate(-54.979 -17.85)" fill="#263238"/>
    <path id="Trazado_605844" data-name="Trazado 605844" d="M370.371,123.469l-1.481-.288-.381,1.972-.322-.059.381-1.972-3.918-.753.042-.237,4.655-3.9.381.076-4.6,3.851,3.487.669.33-1.735.322.059-.33,1.735,1.481.279-.059.3Z" transform="translate(-56.041 -18.168)" fill="#263238"/>
    <path id="Trazado_605845" data-name="Trazado 605845" d="M372.742,126.688a1.966,1.966,0,0,1-.127.347l-.6,1.236-.254-.051.559-1.286a.328.328,0,0,1,.161-.635.333.333,0,0,1,.262.381Z" transform="translate(-57.133 -19.407)" fill="#263238"/>
    <path id="Trazado_605846" data-name="Trazado 605846" d="M380.041,125.32l-1.481-.279-.381,1.972-.322-.059.381-1.972-3.918-.753.042-.237,4.655-3.9.381.076-4.6,3.851,3.487.669.33-1.735.322.059-.33,1.735,1.481.279-.059.3Z" transform="translate(-57.527 -18.454)" fill="#263238"/>
    <path id="Trazado_605847" data-name="Trazado 605847" d="M386.175,126.448c-.212,1.109-1.151,1.82-2.7,1.523a3.111,3.111,0,0,1-2.175-1.4l.229-.195a2.854,2.854,0,0,0,2.006,1.295c1.337.254,2.124-.322,2.31-1.286.2-1.049-.3-1.794-2.251-2.167l-1.329-.254.973-3.148,3.521.677-.059.3-3.241-.618-.8,2.556,1.049.2c2.082.4,2.691,1.312,2.454,2.522Z" transform="translate(-58.599 -18.566)" fill="#263238"/>
    <path id="Trazado_605848" data-name="Trazado 605848" d="M190.012,13.07H1.3V138.917H190.012Z" transform="translate(-0.2 -2.007)" fill="#e3e3e3"/>
    <path id="Trazado_605849" data-name="Trazado 605849" d="M73.723,66.27H42.68V78.728H73.723Z" transform="translate(-6.559 -10.183)" fill="#304c8e"/>
    <path id="Trazado_605850" data-name="Trazado 605850" d="M183.773,66.27H152.73V78.728h31.043Z" transform="translate(-23.472 -10.183)" fill="#304c8e"/>
    <path id="Trazado_605851" data-name="Trazado 605851" d="M183.773,95.5H152.73v12.458h31.043Z" transform="translate(-23.472 -14.675)" fill="#304c8e"/>
    <path id="Trazado_605852" data-name="Trazado 605852" d="M183.773,110.11H152.73v12.458h31.043Z" transform="translate(-23.472 -16.92)" fill="#304c8e"/>
    <path id="Trazado_605853" data-name="Trazado 605853" d="M110.4,95.76H79.36v12.458H110.4Z" transform="translate(-12.196 -14.715)" fill="#455a64"/>
    <path id="Trazado_605854" data-name="Trazado 605854" d="M147.033,110.66H115.99v12.458h31.043Z" transform="translate(-17.826 -17.005)" fill="#455a64"/>
    <path id="Trazado_605855" data-name="Trazado 605855" d="M110.4,139.85H79.36v12.957H110.4Z" transform="translate(-12.196 -21.491)" fill="#ebebeb"/>
    <path id="Trazado_605856" data-name="Trazado 605856" d="M183.773,140.06H152.73v12.458h31.043Z" transform="translate(-23.472 -21.523)" fill="#304c8e"/>
    <path id="Trazado_605857" data-name="Trazado 605857" d="M187.06,51.89H19.43V64.06H187.06Z" transform="translate(-2.986 -7.973)" fill="#e0e4ee"/>
    <path id="Trazado_605858" data-name="Trazado 605858" d="M37.343,51.89H7.95v87.661H37.343Z" transform="translate(-1.222 -7.973)" fill="#e0e4ee"/>
    <path id="Trazado_605859" data-name="Trazado 605859" d="M37.689,139.9H7.45V51.39H37.689ZM8.3,139.052H36.843V52.236H8.3Z" transform="translate(-1.145 -7.896)" fill="#e0e4ee"/>
    <path id="Trazado_605860" data-name="Trazado 605860" d="M190.012,13.07H1.3V27.347H190.012Z" transform="translate(-0.2 -2.007)" fill="#304c8e"/>
    <path id="Trazado_605861" data-name="Trazado 605861" d="M37.4,36.09H8.35v8.167H37.4Z" transform="translate(-1.283 -5.545)" fill="#ebebeb"/>
    <path id="Trazado_605862" data-name="Trazado 605862" d="M74.722,36.09H46.7v8.167H74.722Z" transform="translate(-7.177 -5.545)" fill="#ebebeb"/>
    <path id="Trazado_605863" data-name="Trazado 605863" d="M111.032,36.09H83.01v8.167h28.021Z" transform="translate(-12.757 -5.545)" fill="#ebebeb"/>
    <path id="Trazado_605864" data-name="Trazado 605864" d="M147.342,36.09H119.32v8.167h28.022Z" transform="translate(-18.337 -5.545)" fill="#ebebeb"/>
    <path id="Trazado_605865" data-name="Trazado 605865" d="M183.652,36.09H155.63v8.167h28.022Z" transform="translate(-23.918 -5.545)" fill="#ebebeb"/>
    <path id="Trazado_605866" data-name="Trazado 605866" d="M214.968,36.09H191.94v8.167h23.028Z" transform="translate(-29.498 -5.545)" fill="#ebebeb"/>
    <path id="Trazado_605867" data-name="Trazado 605867" d="M7.919,139.252s.3,0,.863-.008,1.422,0,2.53-.008c2.234,0,5.526-.017,9.8-.025,8.556-.017,21.023-.034,36.73-.059,31.39-.025,75.7-.059,127.413-.1l-.212.212c0-27.031,0-56.593-.008-87.391l.22.212c-68.518-.025-130.942-.042-177.346-.059l.161-.161C8.038,78.8,8,100.635,7.987,115.733c-.017,7.558-.034,13.431-.042,17.426,0,1.989-.017,3.512-.017,4.545s-.017,1.557-.017,1.557-.008-.508-.017-1.523-.008-2.539-.017-4.511c-.008-3.986-.025-9.843-.042-17.383-.017-15.124-.051-36.993-.085-63.973v-.161h.161c46.4-.017,108.836-.034,177.346-.059h.22v.22c0,30.806-.008,60.368-.008,87.4v.212h-.212c-51.769-.042-96.125-.076-127.548-.1-15.682-.025-28.14-.042-36.688-.059-4.257-.008-7.541-.017-9.758-.025-1.1,0-1.938-.008-2.505-.008s-.846-.017-.846-.017Z" transform="translate(-1.191 -7.936)" fill="#263238"/>
    <path id="Trazado_605868" data-name="Trazado 605868" d="M185.7,66.23c0,.118-39.7.22-88.669.22s-88.677-.1-88.677-.22,39.692-.22,88.677-.22S185.7,66.112,185.7,66.23Z" transform="translate(-1.283 -10.143)" fill="#263238"/>
    <path id="Trazado_605869" data-name="Trazado 605869" d="M185.7,80.95c0,.118-39.7.22-88.669.22s-88.677-.1-88.677-.22,39.692-.22,88.677-.22S185.7,80.832,185.7,80.95Z" transform="translate(-1.283 -12.405)" fill="#263238"/>
    <path id="Trazado_605870" data-name="Trazado 605870" d="M185.7,95.66c0,.118-39.7.22-88.669.22s-88.677-.1-88.677-.22,39.692-.22,88.677-.22S185.7,95.541,185.7,95.66Z" transform="translate(-1.283 -14.666)" fill="#263238"/>
    <path id="Trazado_605871" data-name="Trazado 605871" d="M185.7,110.38c0,.118-39.7.22-88.669.22s-88.677-.1-88.677-.22,39.692-.22,88.677-.22S185.7,110.262,185.7,110.38Z" transform="translate(-1.283 -16.928)" fill="#263238"/>
    <path id="Trazado_605872" data-name="Trazado 605872" d="M185.7,125.09c0,.118-39.7.22-88.669.22s-88.677-.1-88.677-.22,39.692-.22,88.677-.22S185.7,124.972,185.7,125.09Z" transform="translate(-1.283 -19.189)" fill="#263238"/>
    <path id="Trazado_605873" data-name="Trazado 605873" d="M185.7,139.81c0,.118-39.7.22-88.669.22s-88.677-.1-88.677-.22,39.692-.22,88.677-.22S185.7,139.692,185.7,139.81Z" transform="translate(-1.283 -21.451)" fill="#263238"/>
    <path id="Trazado_605874" data-name="Trazado 605874" d="M42.64,139.641c-.118,0-.22-19.516-.22-43.585s.1-43.585.22-43.585.22,19.508.22,43.585S42.758,139.641,42.64,139.641Z" transform="translate(-6.519 -8.062)" fill="#263238"/>
    <path id="Trazado_605875" data-name="Trazado 605875" d="M79.32,139.378c-.118,0-.22-19.457-.22-43.45s.1-43.458.22-43.458.22,19.457.22,43.458S79.439,139.378,79.32,139.378Z" transform="translate(-12.156 -8.062)" fill="#263238"/>
    <path id="Trazado_605876" data-name="Trazado 605876" d="M116.01,139.641c-.118,0-.22-19.516-.22-43.585s.1-43.585.22-43.585.22,19.508.22,43.585S116.129,139.641,116.01,139.641Z" transform="translate(-17.795 -8.062)" fill="#263238"/>
    <path id="Trazado_605877" data-name="Trazado 605877" d="M152.69,139.641c-.118,0-.22-19.516-.22-43.585s.1-43.585.22-43.585.22,19.508.22,43.585S152.809,139.641,152.69,139.641Z" transform="translate(-23.432 -8.062)" fill="#263238"/>
    <path id="Trazado_605878" data-name="Trazado 605878" d="M189.38,139.641c-.118,0-.22-19.516-.22-43.585s.1-43.585.22-43.585.22,19.508.22,43.585S189.5,139.641,189.38,139.641Z" transform="translate(-29.071 -8.062)" fill="#263238"/>
    <path id="Trazado_605879" data-name="Trazado 605879" d="M13.675,21.164a1.8,1.8,0,1,1-1.8-1.853A1.826,1.826,0,0,1,13.675,21.164Z" transform="translate(-1.548 -2.966)" fill="#e0e4ee"/>
    <path id="Trazado_605880" data-name="Trazado 605880" d="M20.905,21.164a1.8,1.8,0,1,1-1.8-1.853A1.826,1.826,0,0,1,20.905,21.164Z" transform="translate(-2.659 -2.966)" fill="#e0e4ee"/>
    <path id="Trazado_605881" data-name="Trazado 605881" d="M28.136,21.164a1.8,1.8,0,1,1-1.8-1.853A1.826,1.826,0,0,1,28.136,21.164Z" transform="translate(-3.77 -2.966)" fill="#e0e4ee"/>
    <path id="Trazado_605882" data-name="Trazado 605882" d="M189.972,138.874c0-1.439-.068-49.179-.178-125.847l.178.178c-51.955.008-117.57.025-188.695.042H1.26l.22-.22c0,44.821-.017,87.441-.017,125.847l-.2-.2,135.978.1c16.647.025,29.816.042,38.837.051,4.511.008,7.972.017,10.325.025,1.168,0,2.057.008,2.666.008s.906.008.906.008-.3,0-.889.008-1.481,0-2.641.008c-2.336,0-5.789.017-10.283.025-9,.008-22.165.034-38.787.051l-136.113.1h-.2v-.2c0-38.406-.008-81.026-.017-125.847v-.22h.237c71.124.017,136.739.034,188.695.042h.178v.178c-.11,76.668-.178,124.409-.178,125.847Z" transform="translate(-0.16 -1.964)" fill="#263238"/>
    <path id="Trazado_605883" data-name="Trazado 605883" d="M197.291,188.93l-9.783,12.162L146.69,212.458l6.093,65.928c1.879,25.838,4.528,32.177,6.347,49.357v14.007H275.059l16.182-133.837-39.98-9.191-8.6-9.783h-45.38Z" transform="translate(-22.544 -29.034)" fill="#304c8e"/>
    <path id="Trazado_605884" data-name="Trazado 605884" d="M204.43,214.964l4.993,66.03,5.34,33.514L253.956,205.13,222.347,242.6Z" transform="translate(-31.417 -31.523)" fill="#e0e4ee"/>
    <path id="Trazado_605885" data-name="Trazado 605885" d="M215.968,318.509s.042-.11.152-.322c.118-.229.279-.533.491-.922.449-.821,1.1-2.006,1.921-3.512,1.7-3.064,4.138-7.465,7.143-12.889,6.077-10.875,14.464-25.872,23.714-42.443,4.587-8.175,8.962-15.962,12.932-23.028l.042.254q-2.92-2.463-5.628-4.756l-.2-.178.229-.135c2.835-1.676,5.518-3.258,8.015-4.731l-.085.169c-.88-7.812-1.591-14.184-2.09-18.627-.237-2.192-.423-3.91-.55-5.1-.059-.567-.1-1.016-.127-1.337-.025-.3-.025-.457-.025-.457s.034.152.076.449c.042.322.1.762.178,1.329.152,1.193.364,2.9.643,5.095.533,4.443,1.3,10.807,2.243,18.611l.017.11-.093.059c-2.488,1.481-5.163,3.081-8,4.765l.025-.313q2.717,2.285,5.645,4.739l.127.11-.085.144c-3.961,7.067-8.319,14.861-12.9,23.045-9.3,16.537-17.722,31.517-23.832,42.375-3.064,5.4-5.543,9.775-7.27,12.822-.855,1.49-1.523,2.657-2,3.478-.22.381-.4.677-.525.9a1.3,1.3,0,0,1-.195.3Z" transform="translate(-33.189 -30.81)" fill="#263238"/>
    <path id="Trazado_605886" data-name="Trazado 605886" d="M211.516,318.942s-.042-.1-.11-.313c-.068-.229-.169-.533-.288-.922-.254-.838-.609-2.031-1.066-3.555-.914-3.114-2.217-7.591-3.834-13.109-1.591-5.543-3.563-12.111-5.586-19.474-1.887-7.4-3.69-15.581-5.594-24.171-2.581-11.781-4.926-22.808-6.864-32.143l-.034-.161.152-.051c1.862-.652,3.639-1.269,5.34-1.87l-.025.322c-2.344-1.244-4.5-2.387-6.5-3.445l-.118-.068.051-.127c2.04-5.129,3.69-9.267,4.832-12.145.567-1.4,1.016-2.505,1.329-3.275l.355-.846a1.467,1.467,0,0,1,.135-.279s-.025.1-.093.3c-.076.212-.186.5-.313.863-.3.779-.711,1.887-1.253,3.309-1.117,2.894-2.717,7.05-4.706,12.2l-.068-.195c2.006,1.049,4.172,2.175,6.525,3.4l.355.186-.381.135c-1.7.6-3.47,1.236-5.332,1.9l.118-.22c1.98,9.326,4.342,20.354,6.923,32.126,1.9,8.582,3.7,16.774,5.56,24.162,2,7.338,3.944,13.939,5.493,19.491,1.557,5.535,2.818,10.02,3.7,13.143.423,1.54.753,2.742.982,3.58.1.4.186.7.245.931a1.885,1.885,0,0,1,.068.322Z" transform="translate(-28.737 -31.244)" fill="#263238"/>
    <path id="Trazado_605887" data-name="Trazado 605887" d="M133.692,216.73s-8.979,4.367-15.3,24.492c-4.6,14.624-23.282,64.972-23.282,64.972l-20.7-6.034s-15.234,18.974-11.789,25.584S91.283,346.03,91.283,346.03h29.528a24.215,24.215,0,0,0,8.438-12.305l16.884-56.856Z" transform="translate(-9.545 -33.306)" fill="#304c8e"/>
    <path id="Trazado_605888" data-name="Trazado 605888" d="M314.38,211.36a36.364,36.364,0,0,1,12.991,13.346c5.154,9.166,46.31,76.143,49.721,92.02,5.095,23.714-5.086,28.445-5.086,28.445H357.788l-35.2-.195-4.443-27.548,15.648-3.343-29-32.16-1.921,3.284L297.2,239.3Z" transform="translate(-45.675 -32.481)" fill="#304c8e"/>
    <path id="Trazado_605889" data-name="Trazado 605889" d="M151.1,249.41c.118-.008,1.168,11.383,2.344,25.44s2.023,25.466,1.9,25.474-1.168-11.375-2.344-25.44S150.98,249.418,151.1,249.41Z" transform="translate(-23.22 -38.328)" fill="#263238"/>
    <path id="Trazado_605890" data-name="Trazado 605890" d="M313.653,234.35c.119.017-1.5,14.227-3.622,31.737s-3.935,31.7-4.062,31.686,1.5-14.227,3.622-31.737S313.526,234.342,313.653,234.35Z" transform="translate(-47.021 -36.014)" fill="#263238"/>
    <path id="Trazado_605891" data-name="Trazado 605891" d="M327.357,363.523s.135-.178.4-.508a18.126,18.126,0,0,0,1.058-1.506,24.692,24.692,0,0,0,2.725-6.161,29.583,29.583,0,0,0,.982-4.553,21.528,21.528,0,0,0,.229-5.315,12.506,12.506,0,0,0-1.963-5.45,14.848,14.848,0,0,0-4.46-4.367c-.127-.076-.262-.161-.381-.22l-.474-.254.508-.152a110.027,110.027,0,0,1,21.742-4.054c2.818-.237,5.1-.347,6.677-.4.787-.025,1.4-.034,1.82-.034a3.655,3.655,0,0,1,.635.017,2.936,2.936,0,0,1-.635.068c-.457.034-1.058.068-1.811.118-1.574.1-3.851.254-6.66.533a118.1,118.1,0,0,0-21.649,4.172l.042-.406c.135.076.271.152.406.237a15.257,15.257,0,0,1,4.6,4.5,12.842,12.842,0,0,1,2.006,5.645,21.673,21.673,0,0,1-.271,5.408,29.959,29.959,0,0,1-1.041,4.6,23.326,23.326,0,0,1-2.877,6.161,13.325,13.325,0,0,1-1.134,1.464,2.808,2.808,0,0,1-.465.449Z" transform="translate(-50.019 -50.798)" fill="#263238"/>
    <path id="Trazado_605892" data-name="Trazado 605892" d="M216.05,364.91c-.118,0-.22-5.67-.22-12.661s.1-12.669.22-12.669.22,5.67.22,12.669S216.169,364.91,216.05,364.91Z" transform="translate(-33.169 -52.186)" fill="#263238"/>
    <path id="Trazado_605893" data-name="Trazado 605893" d="M287.73,301.516s-.017-.212-.025-.6c0-.415-.017-.973-.034-1.693-.017-1.489-.042-3.614-.076-6.288l.127.127c-7.9.017-20.667.051-35.071.093l.22-.22v8.582l-.22-.22c9.953.042,18.687.076,24.966.1,3.114.025,5.628.051,7.4.059.846.008,1.515.025,2.006.025.212,0,.381.008.525.017a.479.479,0,0,1,.186.017,6.284,6.284,0,0,1-.66.025c-.482,0-1.134.017-1.955.025-1.752.017-4.248.034-7.346.059-6.322.025-15.1.059-25.119.1h-.22v-8.8l.22-.22c14.4.034,27.167.068,35.071.093h.135v.127c-.034,2.708-.059,4.849-.076,6.364-.017.7-.025,1.253-.034,1.659a4.216,4.216,0,0,1-.025.55Z" transform="translate(-38.794 -44.979)" fill="#263238"/>
    <path id="Trazado_605894" data-name="Trazado 605894" d="M150.244,240.955c-.118.025-1.269-4.866-2.564-10.926s-2.26-10.994-2.141-11.019,1.269,4.866,2.564,10.926S150.362,240.93,150.244,240.955Z" transform="translate(-22.365 -33.656)" fill="#263238"/>
    <g id="Grupo_1014697" data-name="Grupo 1014697" transform="translate(184.726 195.196)" opacity="0.3">
      <path id="Trazado_605895" data-name="Trazado 605895" d="M218.27,319.673l50.06-76.786-7.219-6.974,4.122-5.273-8.006,4.739,5.636,4.748Z" transform="translate(-218.27 -230.64)"/>
    </g>
    <g id="Grupo_1014698" data-name="Grupo 1014698" transform="translate(61.062 286.802)" opacity="0.3">
      <path id="Trazado_605896" data-name="Trazado 605896" d="M72.15,338.88v4.265l56.822.178V338.88Z" transform="translate(-72.15 -338.88)"/>
    </g>
    <path id="Trazado_605897" data-name="Trazado 605897" d="M153.92,139.939a8.426,8.426,0,0,0,7.913-3.529c-2.04.313-4.24.6-6.077-.339s-2.877-3.648-1.439-5.12c1.126-1.151,2.979-.956,4.587-1.075a9.917,9.917,0,0,0,8.438-6.474c1.363-3.91.118-8.167-.372-12.28a33.781,33.781,0,0,1,14.159-31.2L206.865,65.04c9.335,11.942,12.246,28.047,10.308,43.078s-8.311,29.164-15.978,42.248a50.2,50.2,0,0,1-7.761,10.681,19.861,19.861,0,0,1-11.569,5.933,11.91,11.91,0,0,1,1.9-10.765,25.972,25.972,0,0,1-19.135-6.855c1.837-1.413,3.673-2.818,5.518-4.232a20.155,20.155,0,0,1-16.215-5.188Z" transform="translate(-23.612 -9.994)" fill="#263238"/>
    <path id="Trazado_605898" data-name="Trazado 605898" d="M257.134,98.114c-.457-10.757-7.151-19.753-17.5-22.715L207.37,66.183c-14-1.921-23.875,15.09-25.195,29.164-1.464,15.631-2.573,32.143-1.075,43.882,3.013,23.612,20.929,27.158,20.929,27.158,0-.034-.6,21.285-.779,28.148l16.41,34.31,31.8-43.89L257.21,98.4C257.227,98,257.159,98.648,257.134,98.114Z" transform="translate(-27.723 -10.147)" fill="#af7e69"/>
    <path id="Trazado_605899" data-name="Trazado 605899" d="M189.829,123.191a3.018,3.018,0,0,0,2.81,3.131,2.888,2.888,0,0,0,3.191-2.624,3.018,3.018,0,0,0-2.81-3.131A2.878,2.878,0,0,0,189.829,123.191Z" transform="translate(-29.173 -18.526)" fill="#263238"/>
    <path id="Trazado_605900" data-name="Trazado 605900" d="M186.354,111.117c.364.406,2.7-1.219,5.941-1.109,3.241.059,5.569,1.8,5.933,1.413.178-.169-.178-.889-1.193-1.676a8.29,8.29,0,0,0-4.731-1.616,7.95,7.95,0,0,0-4.739,1.371c-1.024.736-1.379,1.439-1.2,1.616Z" transform="translate(-28.634 -16.616)" fill="#263238"/>
    <path id="Trazado_605901" data-name="Trazado 605901" d="M222.229,123.2a3.018,3.018,0,0,0,2.81,3.131,2.893,2.893,0,0,0,3.191-2.624,3.018,3.018,0,0,0-2.81-3.131A2.878,2.878,0,0,0,222.229,123.2Z" transform="translate(-34.152 -18.527)" fill="#263238"/>
    <path id="Trazado_605902" data-name="Trazado 605902" d="M222.754,112.155c.364.406,2.7-1.21,5.941-1.109,3.241.059,5.569,1.8,5.933,1.413.178-.169-.178-.889-1.193-1.676a8.29,8.29,0,0,0-4.731-1.625,7.95,7.95,0,0,0-4.739,1.371c-1.016.736-1.379,1.439-1.2,1.616Z" transform="translate(-34.228 -16.774)" fill="#263238"/>
    <path id="Trazado_605903" data-name="Trazado 605903" d="M208.433,137.562c.017-.186-1.98-.592-5.239-1.109-.821-.11-1.608-.3-1.726-.872a4.2,4.2,0,0,1,.626-2.437q1.257-2.971,2.641-6.229c3.673-8.869,6.364-16.182,6.009-16.325s-3.631,6.931-7.3,15.8c-.889,2.192-1.735,4.274-2.539,6.271a4.829,4.829,0,0,0-.533,3.233,2.077,2.077,0,0,0,1.32,1.253,5.474,5.474,0,0,0,1.4.237c3.284.279,5.323.355,5.34.169Z" transform="translate(-30.774 -16.994)" fill="#263238"/>
    <path id="Trazado_605904" data-name="Trazado 605904" d="M237.349,175.78s-8.108,15.919-31.559,13l.152-5.526A59.265,59.265,0,0,0,237.349,175.78Z" transform="translate(-31.626 -27.013)" fill="#7c5142"/>
    <path id="Trazado_605905" data-name="Trazado 605905" d="M224.346,99.933c.3.889,3.546.575,7.329,1.151,3.8.5,6.838,1.71,7.363.931.237-.372-.271-1.219-1.49-2.107a12.915,12.915,0,0,0-11.2-1.583c-1.413.516-2.141,1.193-2.014,1.616Z" transform="translate(-34.475 -15.012)" fill="#263238"/>
    <path id="Trazado_605906" data-name="Trazado 605906" d="M187.936,99.4c.55.753,2.8.059,5.493.1,2.691-.051,4.943.643,5.493-.11.237-.364-.093-1.117-1.066-1.845a7.952,7.952,0,0,0-8.852,0c-.973.728-1.312,1.473-1.066,1.845Z" transform="translate(-28.871 -14.783)" fill="#263238"/>
    <path id="Trazado_605907" data-name="Trazado 605907" d="M222.774,149.333A4.224,4.224,0,0,0,218.491,146a4.406,4.406,0,0,0-3.47,2.319,5.427,5.427,0,0,0-.313,4.223l.059.3a4.827,4.827,0,0,0,5.391,1.312A4.513,4.513,0,0,0,222.774,149.333Z" transform="translate(-32.953 -22.434)" fill="#7c5142"/>
    <path id="Trazado_605908" data-name="Trazado 605908" d="M212.05,152.468c.008-.491,3.284-.245,5.831-2.861s2.454-6.136,2.92-6.127c.212-.025.576.829.5,2.3a8.217,8.217,0,0,1-2.251,5.129,7.129,7.129,0,0,1-4.875,2.192C212.795,153.119,212.016,152.688,212.05,152.468Z" transform="translate(-32.588 -22.049)" fill="#263238"/>
    <path id="Trazado_605909" data-name="Trazado 605909" d="M244.113,57.267C240.483,51.5,231.91,45.478,225.2,44.31c-7.651-1.337-12.263-.025-17.29,4.57,0,0-3.918,3.775-7.583,4.494s-6.737.11-11.112,2.344c-5.975,3.055-8.6,11.053-11.374,17.172-3.445,7.6-8.353,14.6-10.6,22.639s-1.049,17.917,5.721,22.791c-1.159-6.161-2.133-12.932.406-18.509a16.271,16.271,0,0,0,.406,6.669c1.269-3.614,2.607-7.346,5.23-10.139,2.48-2.632,5.9-4.206,8.455-6.77,3.749-3.766,5.476-9.5,10.029-12.229,4.739-2.844,10.731-1.422,16.258-1.4a31.148,31.148,0,0,0,24.222-11.671l-1.371-.118A38.759,38.759,0,0,0,244.113,57.267Z" transform="translate(-25.544 -6.732)" fill="#263238"/>
    <path id="Trazado_605910" data-name="Trazado 605910" d="M289.522,116.859c-2.107-6.914-5.814-13.236-8.133-20.083-2.26-6.669-3.191-13.8-6.187-20.159-4.028-8.565-11.569-19.66-23.308-19.051l-.8.7a25.131,25.131,0,0,0-11.831,1.413l-.178,9.149-2.251,1.98c.939,1.82,1.837,3.571,2.7,5.3a57.66,57.66,0,0,0,3,10.071,26.086,26.086,0,0,0,5.636,8.565c20.227,48.418,1.879,51.481,10.994,79.232l5.73-15.885a28.265,28.265,0,0,0,11.332-12.212c.339,1.676.677,3.36,1.007,5.036a29.151,29.151,0,0,0,7.9-18.035c.88,1.608,1.752,3.224,2.632,4.832,4.164-5.907,3.868-13.939,1.76-20.853Z" transform="translate(-36.397 -8.841)" fill="#263238"/>
    <path id="Trazado_605911" data-name="Trazado 605911" d="M258.217,125.3c.313-.787,14.937-5.594,14.684,9.792-.237,14.946-15.234,11.578-15.251,11.146S258.217,125.3,258.217,125.3Z" transform="translate(-39.596 -19.051)" fill="#af7e69"/>
    <path id="Trazado_605912" data-name="Trazado 605912" d="M263.227,141.552c.068-.042.254.186.694.4a2.6,2.6,0,0,0,1.947.076c1.591-.55,2.971-3.03,3.089-5.721a8.482,8.482,0,0,0-.66-3.741,3.015,3.015,0,0,0-1.921-2.04,1.319,1.319,0,0,0-1.549.686c-.212.415-.118.711-.2.736-.042.034-.313-.254-.186-.872a1.621,1.621,0,0,1,.609-.922,1.969,1.969,0,0,1,1.447-.355,3.664,3.664,0,0,1,2.674,2.37,8.83,8.83,0,0,1,.821,4.181c-.152,3.013-1.752,5.8-3.918,6.381a2.766,2.766,0,0,1-2.37-.44C263.244,141.908,263.177,141.578,263.227,141.552Z" transform="translate(-40.451 -19.943)" fill="#7c5142"/>
    <path id="Trazado_605913" data-name="Trazado 605913" d="M264.7,146.864a2.915,2.915,0,1,1-.711.195" transform="translate(-40.298 -22.564)" fill="#e0e4ee"/>
    <path id="Trazado_605914" data-name="Trazado 605914" d="M263.94,147.049a4.063,4.063,0,0,0-1.4,1.972,2.53,2.53,0,0,0,.516,2.361,2.615,2.615,0,0,0,4.638-1.329,2.551,2.551,0,0,0-.812-2.277,3.991,3.991,0,0,0-2.234-.922c0-.034.237-.144.7-.144a3.033,3.033,0,0,1,1.845.7,2.985,2.985,0,0,1,1.126,2.725,3.211,3.211,0,0,1-5.738,1.65,3.108,3.108,0,0,1,.694-4.485c.4-.254.66-.288.677-.254Z" transform="translate(-40.25 -22.545)" fill="#263238"/>
    <path id="Trazado_605915" data-name="Trazado 605915" d="M238.234,74.607c.3.118,1.676-4.951,5.84-9.648,4.1-4.765,8.929-6.813,8.768-7.092a8.329,8.329,0,0,0-3.148,1.261,24.254,24.254,0,0,0-10.638,12.187C238.3,73.286,238.116,74.581,238.234,74.607Z" transform="translate(-36.608 -8.888)" fill="#455a64"/>
    <path id="Trazado_605916" data-name="Trazado 605916" d="M71.962,331.983,60.808,318.874s-7.828,0-11.738-3.715-11.154-7.236-8.218-13.9c0,0-3.521-4.113-.686-8.607l.093-1.176s-8.8-3.715-6.263-8.218,7.439-2.547,7.439-2.547-9.614-6.5-11.349-8.277c-4.629-4.756.347-7.964,5.5-5.112,8.522,4.714,37.348,18.28,39.3,28.064v4.265s8.023,9.826,8.023,10.41-.584,15.852-10.96,21.92Z" transform="translate(-4.342 -40.916)" fill="#af7e69"/>
    <path id="Trazado_605917" data-name="Trazado 605917" d="M13.28,226.975c-.355-.44,43.772,70.684,43.772,70.684l2.006,23.866h68.856l-6.39-27.167s-11.908-31.906-11.772-32.279c.262-.728-22.275-36.18-22.275-36.18l-74.2,1.083Z" transform="translate(-2.041 -34.715)" fill="#e0e4ee"/>
    <path id="Trazado_605918" data-name="Trazado 605918" d="M13.275,226.941s.465-.025,1.346-.042c.9-.017,2.209-.042,3.918-.085,3.445-.059,8.489-.152,14.946-.262,12.915-.212,31.449-.508,53.978-.872h.1l.051.085c5.9,9.3,12.382,19.491,19.11,30.51.838,1.38,1.676,2.776,2.48,4.2.2.355.4.719.584,1.1.042.1.093.186.135.313a.643.643,0,0,1,.025.152c-.017.11,0,.068.008.076l.017.068.186.576c.271.779.542,1.557.812,2.344q1.7,4.684,3.453,9.5,3.555,9.6,7.278,19.643v.025c1.947,8.243,3.978,16.884,6.051,25.677.118.5.237,1,.347,1.49l.068.271h-.279c-24.5,0-47.809-.008-68.856-.017h-.186l-.017-.186q-1.041-12.517-1.989-23.866l.025.085c-13.16-21.285-24.086-38.964-31.728-51.329-3.8-6.187-6.779-11.036-8.819-14.354-1.007-1.65-1.777-2.92-2.3-3.792-.254-.423-.449-.753-.584-.973a2.281,2.281,0,0,1-.186-.339c.829,1.329,17.536,28.182,43.932,70.583l.025.034v.042q.965,11.324,2.023,23.866l-.2-.186c21.048,0,44.356-.008,68.856-.017l-.212.271c-.118-.491-.229-.99-.347-1.49-2.065-8.793-4.1-17.443-6.034-25.677v.025q-3.707-10.042-7.261-19.651-1.739-4.811-3.445-9.5c-.271-.787-.542-1.566-.812-2.353l-.186-.6-.025-.076a.838.838,0,0,1-.017-.152v-.076c-.152-.068.229.051.135.025a.287.287,0,0,0-.118-.017c-.059,0-.008.034-.025.025v-.025c-.034-.068-.076-.169-.118-.254-.178-.355-.372-.719-.575-1.075-.8-1.422-1.642-2.81-2.471-4.189-6.7-11.011-13.177-21.217-19.059-30.527l.152.085c-22.563.3-41.123.533-54.046.7-6.44.076-11.485.127-14.921.169-1.7.017-3.013.025-3.9.034H13.267Z" transform="translate(-2.036 -34.682)" fill="#263238"/>
    <path id="Trazado_605919" data-name="Trazado 605919" d="M109.019,270.535a5.793,5.793,0,0,1-.618.025h-1.76c-1.583-.034-3.783-.068-6.474-.119-5.467-.127-13.025-.33-21.361-.465s-15.9-.119-21.361.051c-2.734.076-4.942.186-6.466.271l-1.76.1a2.858,2.858,0,0,1-.618,0,2.782,2.782,0,0,1,.609-.093c.44-.051,1.024-.11,1.752-.186,1.523-.135,3.732-.3,6.466-.415,5.467-.254,13.033-.3,21.378-.186,8.345.135,15.9.389,21.369.592,2.7.11,4.892.195,6.474.262.728.034,1.312.068,1.76.093a3.064,3.064,0,0,1,.609.059Z" transform="translate(-7.469 -41.41)" fill="#263238"/>
    <path id="Trazado_605920" data-name="Trazado 605920" d="M122.1,307.206c-.017.119-9.75-.939-21.75-2.378s-21.717-2.691-21.7-2.81,9.75.939,21.75,2.378S122.108,307.088,122.1,307.206Z" transform="translate(-12.087 -46.412)" fill="#263238"/>
    <path id="Trazado_605921" data-name="Trazado 605921" d="M55.02,311.957q6.436-.406,12.881-.821c1.354-.085,2.844-.229,3.783-1.21,1.176-1.219.6-3.969-.88-4.782l-14.76-3.555" transform="translate(-8.456 -46.348)" fill="#af7e69"/>
    <path id="Trazado_605922" data-name="Trazado 605922" d="M56.042,301.584s.406.042,1.143.195c.8.178,1.845.406,3.114.686l10.554,2.463h.034l.025.017a3.057,3.057,0,0,1,1.236,1.422,4.2,4.2,0,0,1,.381,1.879,2.677,2.677,0,0,1-.762,1.887,3.875,3.875,0,0,1-1.735.914,20.588,20.588,0,0,1-3.546.364c-2.226.127-4.249.237-5.967.33-1.642.076-3,.135-4.028.186a7.41,7.41,0,0,1-1.481,0,8.969,8.969,0,0,1,1.473-.178l4.02-.33c1.718-.127,3.732-.271,5.958-.423a22.177,22.177,0,0,0,3.461-.372,3.435,3.435,0,0,0,1.54-.812,2.245,2.245,0,0,0,.626-1.591,3.3,3.3,0,0,0-1.388-2.911l.051.017c-4.155-1.033-7.812-1.938-10.52-2.615-1.261-.33-2.294-.6-3.089-.812a6.534,6.534,0,0,1-1.109-.347Z" transform="translate(-8.454 -46.341)" fill="#7c5142"/>
    <path id="Trazado_605923" data-name="Trazado 605923" d="M60.008,296.12a63.354,63.354,0,0,1,11.442,3.224,2.541,2.541,0,0,1,1.693,2.954,2.038,2.038,0,0,1-.846,1.574,4.022,4.022,0,0,1-1.8.5,46.223,46.223,0,0,1-10.951-.669c-3.69-.516-8.8,0-10.943,1.126" transform="translate(-7.469 -45.507)" fill="#af7e69"/>
    <path id="Trazado_605924" data-name="Trazado 605924" d="M48.59,304.837a4.1,4.1,0,0,1,.364-.22,9.771,9.771,0,0,1,1.134-.44,20.625,20.625,0,0,1,4.4-.762,30.157,30.157,0,0,1,3.089-.068,33.847,33.847,0,0,1,3.521.364,47.931,47.931,0,0,0,8.006.533,17.97,17.97,0,0,0,2.073-.186,1.958,1.958,0,0,0,1.515-.956,2.642,2.642,0,0,0-.686-3.241,8.381,8.381,0,0,0-1.616-.694c-.55-.195-1.083-.389-1.608-.576-1.041-.364-2.014-.669-2.911-.939-1.794-.533-3.267-.9-4.291-1.134s-1.591-.364-1.583-.389a1.6,1.6,0,0,1,.423.034c.271.034.677.1,1.193.195,1.033.186,2.522.5,4.342,1,.906.254,1.9.55,2.945.889q.787.267,1.625.559a8.848,8.848,0,0,1,1.71.728,2.507,2.507,0,0,1,1.092,1.693,3.564,3.564,0,0,1-.245,2.082,1.869,1.869,0,0,1-.779.821,3.393,3.393,0,0,1-1.041.364,16.641,16.641,0,0,1-2.141.2,45.1,45.1,0,0,1-8.082-.567,34.562,34.562,0,0,0-3.478-.4,28,28,0,0,0-3.047.008,23.671,23.671,0,0,0-4.367.609c-1.016.254-1.523.533-1.549.491Z" transform="translate(-7.467 -45.507)" fill="#7c5142"/>
    <path id="Trazado_605925" data-name="Trazado 605925" d="M44.319,283.51l10.156,5.662a10.415,10.415,0,0,1,4.054,3.275c.922,1.5.838,3.758-.626,4.722-1.151.753-2.674.474-4.012.135a99.008,99.008,0,0,1-11.171-3.546" transform="translate(-6.565 -43.569)" fill="#af7e69"/>
    <path id="Trazado_605926" data-name="Trazado 605926" d="M42.72,293.752s.516.135,1.43.449,2.226.753,3.868,1.253,3.605,1.075,5.806,1.616a6.346,6.346,0,0,0,3.394.195,2.4,2.4,0,0,0,1.312-1.066,3.241,3.241,0,0,0,.389-1.752,4.478,4.478,0,0,0-1.633-3.157,15.389,15.389,0,0,0-2.92-1.947c-1.963-1.117-3.732-2.124-5.247-2.979-1.439-.838-2.624-1.523-3.521-2.04a9.158,9.158,0,0,1-1.261-.8,9.339,9.339,0,0,1,1.346.652c.914.491,2.124,1.134,3.588,1.921,1.532.838,3.318,1.82,5.3,2.9a15.69,15.69,0,0,1,3.013,1.989,6.159,6.159,0,0,1,1.236,1.506,4.42,4.42,0,0,1,.55,1.947,3.624,3.624,0,0,1-.449,1.989,2.8,2.8,0,0,1-1.549,1.261,6.539,6.539,0,0,1-3.631-.2c-2.2-.575-4.164-1.168-5.8-1.718s-2.937-1.033-3.834-1.388c-.449-.178-.8-.322-1.024-.423a1.383,1.383,0,0,1-.347-.178Z" transform="translate(-6.565 -43.57)" fill="#7c5142"/>
    <path id="Trazado_605927" data-name="Trazado 605927" d="M325.4,362.054l-4.824-1.363-15.335-1.43-4.291-5.7,2.988-12.305,19.169-4.562c8.852,6.3,6.466,16.791,2.3,25.364Z" transform="translate(-46.251 -51.742)" fill="#af7e69"/>
    <path id="Trazado_605928" data-name="Trazado 605928" d="M275.217,330.154a13.234,13.234,0,0,0-5.383.423,7.151,7.151,0,0,0-4.265,5.586c-.5,3.944-.652,7.143-.931,10.816a3.459,3.459,0,0,0,1.007,2.6c1.2,1.236,3.4.821,4.646-.372a11.535,11.535,0,0,0,2.4-4.519c.6-1.616,1.236-5.484,2.175-5.823,2.666-.965,6.305,3.639,8.311,1.38l3.639-8.886C281.175,330.806,280.862,330.7,275.217,330.154Z" transform="translate(-40.669 -50.724)" fill="#af7e69"/>
    <path id="Trazado_605929" data-name="Trazado 605929" d="M275.18,330.141a1.223,1.223,0,0,1,.2,0c.161.008.364.025.6.034.567.051,1.337.11,2.31.195,2.048.195,4.934.474,8.489.812l.212.017-.085.2c-1.049,2.59-2.268,5.6-3.605,8.895v.034l-.034.025a2.093,2.093,0,0,1-1.752.686,5.708,5.708,0,0,1-1.8-.542,19.333,19.333,0,0,0-3.419-1.481l-.449-.076H275.4a3.541,3.541,0,0,0-.432.093c-.152.025-.195.093-.3.195a5.883,5.883,0,0,0-.753,1.735c-.4,1.27-.652,2.607-1.134,3.927a16.078,16.078,0,0,1-1.566,3.453,5.488,5.488,0,0,1-1.3,1.388,4.419,4.419,0,0,1-1.735.728,3.412,3.412,0,0,1-1.862-.161,3.058,3.058,0,0,1-1.371-1.219,3.621,3.621,0,0,1-.559-1.7c-.017-.618.068-1.126.1-1.693.161-2.184.3-4.265.5-6.212.093-.973.195-1.913.313-2.81a7.5,7.5,0,0,1,.669-2.556A6.838,6.838,0,0,1,272.311,330a15.974,15.974,0,0,1,2.141.042c.245.025.432.042.55.059s.186.034.186.042a7.066,7.066,0,0,1-.745-.008c-.491-.008-1.21-.025-2.124.042a7.335,7.335,0,0,0-3.191.855,7.055,7.055,0,0,0-2.877,3.216,7.216,7.216,0,0,0-.609,2.463c-.1.9-.195,1.837-.288,2.8-.178,1.938-.3,4.02-.457,6.2-.025.533-.11,1.126-.093,1.633a3.137,3.137,0,0,0,.508,1.5,2.565,2.565,0,0,0,1.176,1.049,2.93,2.93,0,0,0,1.625.135,4.186,4.186,0,0,0,2.759-1.93,15.967,15.967,0,0,0,1.523-3.36c.457-1.269.719-2.615,1.126-3.91a6.327,6.327,0,0,1,.838-1.887c.076-.068.118-.152.22-.2a.671.671,0,0,1,.279-.127,3.828,3.828,0,0,1,.525-.1h.525l.508.085a20.249,20.249,0,0,1,3.5,1.523,5.22,5.22,0,0,0,1.659.516,1.656,1.656,0,0,0,1.422-.542l-.034.059c1.363-3.292,2.607-6.288,3.682-8.869l.135.22c-3.58-.364-6.474-.728-8.48-.956-.973-.118-1.735-.212-2.3-.279l-.6-.085a.572.572,0,0,1-.2-.042Z" transform="translate(-40.632 -50.711)" fill="#7c5142"/>
    <path id="Trazado_605930" data-name="Trazado 605930" d="M308.521,330.634s-1.9-.592-4.477,1.278c0,0-.965-4.232-4.342-5.061-2.454-.6-5.569,1.913-5.569,1.913s-2.116-4.232-7.761-2.471c-4.672,1.456-14.464,30.417-15.31,32.363-.965,2.226,3,5.01,5.179,2.767,2.294-2.353,9.987-15.217,9.987-15.217l-5.12,18.043a3.548,3.548,0,0,0,.051,1.786,3.759,3.759,0,0,0,6.711.525c3.174-4.3,6.407-13.169,6.407-13.169l3.123-6.8s-5.823,18.027-3.707,19.668,4.833,1.007,6.771-3.224,9-17.637,9-17.637l3.351-1.76-1.236,4.232s-6.415,3.351-4.976,6.347,4.469,2.107,7.439.7,5.56-8.37,7.143-11.231c1.422-2.564,1.557-10.1-4.528-10.384a4.656,4.656,0,0,0-3.487,1.388l-.3.3s-1-3.758-4.367-4.35Z" transform="translate(-41.635 -50.078)" fill="#af7e69"/>
    <path id="Trazado_605931" data-name="Trazado 605931" d="M308.484,330.615s.135.017.406.076a2.823,2.823,0,0,1,.491.152,3.86,3.86,0,0,1,.652.3,6.5,6.5,0,0,1,2.886,3.808l-.118-.034a4.976,4.976,0,0,1,3.123-1.7,5.646,5.646,0,0,1,4.13,1.27,6.761,6.761,0,0,1,2.006,4.646,10.752,10.752,0,0,1-.178,2.835,6.827,6.827,0,0,1-.449,1.43c-.212.474-.465.889-.685,1.363-.906,1.837-1.769,3.825-2.877,5.814a18.576,18.576,0,0,1-1.947,2.911,6.985,6.985,0,0,1-1.337,1.253,11.8,11.8,0,0,1-1.676.821,8.068,8.068,0,0,1-3.741.77,3.192,3.192,0,0,1-1.837-.812,3.936,3.936,0,0,1-.652-.8l-.254-.449c-.059-.169-.11-.339-.169-.508a2.9,2.9,0,0,1,.406-2.048A7.387,7.387,0,0,1,308,350.105a17.678,17.678,0,0,1,3.461-2.437l-.093.11c.381-1.3.8-2.759,1.227-4.232l.262.22c-1.033.542-2.184,1.151-3.351,1.769l.076-.076q-2.5,4.837-5.188,10.012c-.872,1.735-1.76,3.487-2.657,5.273-.432.9-.872,1.8-1.312,2.717a9.4,9.4,0,0,1-1.769,2.556,4,4,0,0,1-2.911,1.261,3.647,3.647,0,0,1-1.574-.457,4.454,4.454,0,0,1-.694-.457,1.522,1.522,0,0,1-.406-.8,10.542,10.542,0,0,1,.059-3.224c.144-1.058.339-2.116.559-3.165.906-4.206,2.116-8.412,3.453-12.661l.406.161c-.99,2.15-2.048,4.469-3.123,6.8v-.017c-.7,1.913-1.54,3.935-2.437,5.941-.669,1.481-1.379,2.937-2.158,4.35-.389.7-.8,1.4-1.244,2.074a8.259,8.259,0,0,1-1.566,1.879,3.9,3.9,0,0,1-2.31.9,4.184,4.184,0,0,1-2.353-.711,3.542,3.542,0,0,1-1.5-1.938,3.8,3.8,0,0,1-.1-1.236,5.486,5.486,0,0,1,.271-1.168q2.539-8.963,4.943-17.409l.381.169q-2.932,4.875-5.882,9.453c-.99,1.523-1.98,3.013-3.038,4.443a6.406,6.406,0,0,1-1.9,1.921,3.178,3.178,0,0,1-2.674.025,3.817,3.817,0,0,1-1.955-1.777,2.439,2.439,0,0,1-.212-1.346,11.962,11.962,0,0,1,.432-1.219q.863-2.349,1.7-4.629c1.117-3.03,2.234-5.958,3.351-8.751s2.234-5.459,3.385-7.981a62.723,62.723,0,0,1,3.656-7.024,11.415,11.415,0,0,1,2.327-2.852,2.507,2.507,0,0,1,.812-.432c.288-.076.567-.144.846-.22a8.379,8.379,0,0,1,1.71-.178,5.947,5.947,0,0,1,5.264,2.971l-.169-.034a10.539,10.539,0,0,1,3.7-1.87,4.123,4.123,0,0,1,1.87-.059,4.682,4.682,0,0,1,1.583.686,6.422,6.422,0,0,1,1.989,2.217,9.412,9.412,0,0,1,.906,2.251l-.093-.034a6.622,6.622,0,0,1,3.351-1.337,2.83,2.83,0,0,1,1.159.1s-.093-.017-.279-.042a4.157,4.157,0,0,0-.872,0,6.642,6.642,0,0,0-3.292,1.371l-.068.051-.025-.085a9.361,9.361,0,0,0-.914-2.209,6.337,6.337,0,0,0-1.963-2.15,4.548,4.548,0,0,0-1.523-.643,4.137,4.137,0,0,0-1.786.068,10.146,10.146,0,0,0-3.6,1.853l-.1.076-.068-.118a5.705,5.705,0,0,0-5.061-2.81,8.5,8.5,0,0,0-1.65.186c-.271.068-.55.144-.829.212a2.267,2.267,0,0,0-.728.4,10.976,10.976,0,0,0-2.251,2.784,62.866,62.866,0,0,0-3.605,7q-1.7,3.77-3.351,7.981c-1.109,2.793-2.209,5.713-3.326,8.751-.55,1.515-1.117,3.064-1.684,4.629-.135.389-.322.8-.406,1.151a2.056,2.056,0,0,0,.178,1.117,3.434,3.434,0,0,0,1.76,1.583,2.769,2.769,0,0,0,2.344-.017,6.259,6.259,0,0,0,1.752-1.8c1.041-1.413,2.031-2.911,3.013-4.426,1.963-3.038,3.91-6.2,5.865-9.445l.812-1.354-.432,1.515c-1.591,5.611-3.233,11.434-4.926,17.4a6.048,6.048,0,0,0-.254,1.1,2.839,2.839,0,0,0,1.413,2.767,3.711,3.711,0,0,0,2.1.635,3.391,3.391,0,0,0,2.04-.8,7.961,7.961,0,0,0,1.473-1.777c.432-.669.838-1.346,1.227-2.048.77-1.4,1.473-2.844,2.141-4.316.9-2,1.727-4.012,2.437-5.916v-.017c1.075-2.336,2.141-4.655,3.123-6.8l.406.161c-1.329,4.232-2.539,8.438-3.445,12.619-.22,1.049-.415,2.09-.559,3.131a10.158,10.158,0,0,0-.068,3.072,1.107,1.107,0,0,0,.271.584,3.816,3.816,0,0,0,.609.406,3.25,3.25,0,0,0,1.4.406,3.627,3.627,0,0,0,2.607-1.142c1.439-1.4,2.065-3.394,3-5.154q1.358-2.679,2.666-5.273,2.691-5.167,5.2-10l.025-.051.051-.025c1.168-.609,2.327-1.219,3.351-1.76l.389-.2-.127.423c-.432,1.473-.855,2.928-1.236,4.232l-.017.076-.068.034a17.2,17.2,0,0,0-3.385,2.37,7.029,7.029,0,0,0-1.278,1.523,2.589,2.589,0,0,0-.381,1.794,3.094,3.094,0,0,0,2.615,2.31,7.987,7.987,0,0,0,3.588-.736,10.99,10.99,0,0,0,1.616-.779,6.834,6.834,0,0,0,1.278-1.193,19,19,0,0,0,1.921-2.861c1.109-1.963,1.98-3.944,2.9-5.789.212-.457.491-.914.686-1.346a6.709,6.709,0,0,0,.44-1.38,10.283,10.283,0,0,0,.186-2.767,6.592,6.592,0,0,0-1.913-4.511,5.5,5.5,0,0,0-3.978-1.244,4.827,4.827,0,0,0-3.038,1.633l-.076.085-.034-.118a6.528,6.528,0,0,0-2.793-3.783,5.865,5.865,0,0,0-1.515-.584Z" transform="translate(-41.599 -50.059)" fill="#7c5142"/>
    <path id="Trazado_605932" data-name="Trazado 605932" d="M305.246,339.94a21.146,21.146,0,0,1-1.617,5.645c-.584,1.515-1.159,2.861-1.591,3.834a6.881,6.881,0,0,1-.77,1.54,37.164,37.164,0,0,1,1.947-5.526c.584-1.506,1.083-2.877,1.422-3.876a8.292,8.292,0,0,1,.6-1.608Z" transform="translate(-46.298 -52.241)" fill="#7c5142"/>
    <path id="Trazado_605933" data-name="Trazado 605933" d="M293.324,337.79c.118.059-.956,2.429-2.15,5.4a35.349,35.349,0,0,1-2.336,5.332,7.028,7.028,0,0,1,.491-1.642c.347-.99.838-2.361,1.439-3.859s1.21-2.818,1.684-3.758A5.778,5.778,0,0,1,293.324,337.79Z" transform="translate(-44.388 -51.911)" fill="#7c5142"/>
  </g>
</svg>
