<svg xmlns="http://www.w3.org/2000/svg" width="542.088" height="326.415" viewBox="0 0 542.088 326.415">
  <g id="Group_41" data-name="Group 41" transform="translate(-0.99 -0.987)">
    <path id="Trazado_604987" data-name="Trazado 604987" d="M771.667,451.66v4.5h33.652v-4.5Z" transform="translate(-426.079 -249.161)" fill="#e0e0e0"/>
    <path id="Trazado_604988" data-name="Trazado 604988" d="M781.665,452.09a5.386,5.386,0,0,1,.208,2.1,5.571,5.571,0,0,1-.208,2.1,10.752,10.752,0,0,1,0-4.209Z" transform="translate(-431.491 -249.398)" fill="#fafafa"/>
    <path id="Trazado_604989" data-name="Trazado 604989" d="M780.036,451.875a5.384,5.384,0,0,1,.208,2.1,5.574,5.574,0,0,1-.208,2.105,10.76,10.76,0,0,1,0-4.21Z" transform="translate(-430.591 -249.28)" fill="#fafafa"/>
    <path id="Trazado_604990" data-name="Trazado 604990" d="M840.854,452.09a5.4,5.4,0,0,1,.208,2.1,5.589,5.589,0,0,1-.208,2.1,10.733,10.733,0,0,1,0-4.209Z" transform="translate(-464.215 -249.398)" fill="#fafafa"/>
    <path id="Trazado_604991" data-name="Trazado 604991" d="M839.208,456.085a10.736,10.736,0,0,0,0-4.21,10.76,10.76,0,0,0,0,4.21Z" transform="translate(-463.305 -249.28)" fill="#fafafa"/>
    <path id="Trazado_604992" data-name="Trazado 604992" d="M808.354,456.737c0,.12-3.858.208-8.6.208s-8.611-.1-8.611-.208,3.849-.208,8.611-.208S808.354,456.625,808.354,456.737Z" transform="translate(-436.845 -251.853)" fill="#fafafa"/>
    <path id="Trazado_604993" data-name="Trazado 604993" d="M771.344,496.925v8.987H805v-8.987Z" transform="translate(-425.9 -274.186)" fill="#e0e0e0"/>
    <path id="Trazado_604994" data-name="Trazado 604994" d="M805.516,504.34a1.471,1.471,0,0,1-.184.1c-.12.064-.312.152-.56.256a9.574,9.574,0,0,1-2.281.656,5.939,5.939,0,0,1-3.705-.528,5.024,5.024,0,0,1-1.76-1.593,3.711,3.711,0,0,1-.608-2.593,2.7,2.7,0,0,1,.616-1.336,1.768,1.768,0,0,1,1.417-.648,2.051,2.051,0,0,1,1.425.769,2.738,2.738,0,0,1,.648,1.536,4.06,4.06,0,0,1-1.16,3.185,5.156,5.156,0,0,1-3.233,1.585,8.632,8.632,0,0,1-3.753-.465,6.958,6.958,0,0,1-3.281-2.2,3.656,3.656,0,0,1-.769-1.945,2.5,2.5,0,0,1,.72-2.017,1.643,1.643,0,0,1,1.057-.464,1.926,1.926,0,0,1,1.1.312,2.913,2.913,0,0,1,1.24,1.817,4.22,4.22,0,0,1-1.328,3.961,6.618,6.618,0,0,1-3.785,1.545,9.4,9.4,0,0,1-3.93-.384,5.424,5.424,0,0,1-2.985-2.321,3.989,3.989,0,0,1-.376-3.569,1.878,1.878,0,0,1,1.368-1.16,2.192,2.192,0,0,1,1.7.408,2.812,2.812,0,0,1,.8,3.033,5.3,5.3,0,0,1-1.7,2.393,7.643,7.643,0,0,1-4.618,1.793,7.384,7.384,0,0,1-3.658-.832,7.262,7.262,0,0,1-1.9-1.417,5.775,5.775,0,0,1-.4-.464c-.088-.112-.128-.168-.12-.176a8.345,8.345,0,0,0,2.5,1.9,7.273,7.273,0,0,0,8-1.04,4.912,4.912,0,0,0,1.577-2.257,2.5,2.5,0,0,0-.7-2.657,1.818,1.818,0,0,0-1.417-.336,1.518,1.518,0,0,0-1.1.952,3.612,3.612,0,0,0,.368,3.225,5.011,5.011,0,0,0,2.785,2.136,9.07,9.07,0,0,0,3.754.36,6.212,6.212,0,0,0,3.553-1.441,3.816,3.816,0,0,0,1.2-3.553,2.507,2.507,0,0,0-1.048-1.552,1.3,1.3,0,0,0-1.641.1,2.092,2.092,0,0,0-.584,1.688,3.176,3.176,0,0,0,.68,1.721,6.544,6.544,0,0,0,3.081,2.073,8.266,8.266,0,0,0,3.578.464,4.732,4.732,0,0,0,3.009-1.448,3.687,3.687,0,0,0,1.081-2.9A2.146,2.146,0,0,0,798.442,499a1.441,1.441,0,0,0-1.168.528,2.5,2.5,0,0,0-.56,1.185,3.434,3.434,0,0,0,.544,2.393,4.694,4.694,0,0,0,1.649,1.536,5.8,5.8,0,0,0,3.569.568,10.6,10.6,0,0,0,2.273-.568c.5-.184.768-.3.776-.28Z" transform="translate(-425.988 -275.135)" fill="#fafafa"/>
    <path id="Trazado_604995" data-name="Trazado 604995" d="M778.056,462.005v15.6H808.7v-15.6Z" transform="translate(-429.611 -254.88)" fill="#ebebeb"/>
    <path id="Trazado_604996" data-name="Trazado 604996" d="M789.2,463.2a67.173,67.173,0,0,1,.208,7.547,69.556,69.556,0,0,1-.208,7.547,136.767,136.767,0,0,1,0-15.094Z" transform="translate(-435.657 -255.543)" fill="#e0e0e0"/>
    <path id="Trazado_604997" data-name="Trazado 604997" d="M794.39,462.775a65.533,65.533,0,0,1,.208,7.451,67.724,67.724,0,0,1-.208,7.451,133.626,133.626,0,0,1,0-14.9Z" transform="translate(-438.527 -255.306)" fill="#e0e0e0"/>
    <path id="Trazado_604998" data-name="Trazado 604998" d="M838.6,461.647a72.494,72.494,0,0,1,.208,7.851,75.025,75.025,0,0,1-.208,7.851,148.312,148.312,0,0,1,0-15.7Z" transform="translate(-462.968 -254.682)" fill="#e0e0e0"/>
    <path id="Trazado_604999" data-name="Trazado 604999" d="M832.495,462.131a68.73,68.73,0,0,1,.208,7.643,71.186,71.186,0,0,1-.208,7.643,140.6,140.6,0,0,1,0-15.286Z" transform="translate(-459.593 -254.95)" fill="#e0e0e0"/>
    <path id="Trazado_605000" data-name="Trazado 605000" d="M576.616,64.825H370.027V201.86H576.616Z" transform="translate(-204.027 -35.294)" fill="#e0e0e0"/>
    <path id="Trazado_605001" data-name="Trazado 605001" d="M.995,43.037a35.01,35.01,0,1,1,35.573,34.6A35.141,35.141,0,0,1,.995,43.037ZM52.726,42.2A16.737,16.737,0,1,0,36.264,59.283,16.8,16.8,0,0,0,52.726,42.2Z" transform="translate(0 -3.494)" fill="#f5f5f5"/>
    <path id="Trazado_605002" data-name="Trazado 605002" d="M.995,43.043A35.141,35.141,0,0,1,35.439,7.318l.3,18.351a16.813,16.813,0,0,0,.544,33.62l.3,18.351A35.127,35.127,0,0,1,.995,43.043Z" transform="translate(0 -3.5)" fill="#e0e0e0"/>
    <path id="Trazado_605003" data-name="Trazado 605003" d="M71,.993a39.991,39.991,0,0,1,40.951,39.839l-21.368.344c-.176-10.844-8.427-17.671-19.223-17.5Z" transform="translate(-38.706)" fill="#ebebeb"/>
    <path id="Trazado_605004" data-name="Trazado 605004" d="M373.122,694.163c-.9-.768-2.905-3.217-1.361-6.058a5.378,5.378,0,0,1,2.865-2.017,11.443,11.443,0,0,0,3.137-1.625c1.7-1.448,2.169-3.857,3.305-5.786a7.226,7.226,0,0,1,6.274-3.761c2.929.136,5.37,2.529,6.483,5.25s1.144,5.754,1.168,8.7c.016,1.632-.056,3.465-1.257,4.562-1.1,1.016-2.761,1.024-4.258.984q-8.007-.24-16.006-.488" transform="translate(-204.673 -372.588)" fill="#f5f5f5"/>
    <path id="Trazado_605005" data-name="Trazado 605005" d="M391.916,619.519h-42.1l7.579,45.217a5.041,5.041,0,0,0,3.593,4.026c.048.016.1.024.144.04.128.032.248.072.376.1a5.122,5.122,0,0,0,.856.1v.04l.208-.032h18.759a5.516,5.516,0,0,0,1.032-.1,5.071,5.071,0,0,0,4.258-4.418l3.657-31.156.168-1.241h-.016l1.449-12.34.024-.232Zm-7.939,28.843h-4.322l.432-13.125h5l-1.121,13.125Zm1.537-13.125h4.137l-1.536,13.125H384.4l1.12-13.125ZM373.173,662.9l-.264-11.4h6.218l-.376,11.4Zm-6.723-11.4h6.042l.264,11.4h-5.418Zm.464,11.4h-5.066c-.48-3.081-1.1-7.075-1.785-11.4h5.97l.888,11.4Zm-.712-14.549-1.016-13.125h6.931l.3,13.125Zm6.635,0-.3-13.125h7.139l-.432,13.125h-6.4Zm-.376-16.27-.28-12.148h8l-.4,12.148Zm-.416,0h-7.107l-.944-12.148h7.771Zm-7.523,0H357c-.264-1.68-.52-3.265-.744-4.7-.784-4.914-1.081-6.762-1.241-7.459h8.563l.944,12.149Zm.248,3.145,1.016,13.125h-6.218c-.208-1.328-.424-2.681-.632-4.026-.488-3.1-.976-6.194-1.432-9.1Zm-5.618,13.125h-4.066l-2.2-13.125h4.194c.64,4.058,1.353,8.572,2.065,13.125Zm.5,3.145c.617,3.946,1.233,7.835,1.785,11.4h-3.906l-1.912-11.4h4.033Zm19.535,11.4.376-11.4h4.154l-.977,11.4h-3.553Zm1.024-30.812.4-12.148h5.8l-1.04,12.148h-5.162ZM354.63,619.935c.168.88.936,5.658,1.961,12.148h-4.225l-2.041-12.148h4.305ZM386.418,662.9h-3.257l.976-11.4h3.617Zm3.617-30.812H385.8l1.041-12.148h4.626l-1.425,12.148Z" transform="translate(-192.855 -341.959)" fill="#e0e0e0"/>
    <path id="Trazado_605006" data-name="Trazado 605006" d="M1114.018,112.595h-9.068V148.8h9.068Z" transform="translate(-610.339 -61.704)" fill="#e0e0e0"/>
    <path id="Trazado_605007" data-name="Trazado 605007" d="M1143.838,130.261h-9.068v28.307h9.068Z" transform="translate(-626.825 -71.471)" fill="#e0e0e0"/>
    <path id="Trazado_605008" data-name="Trazado 605008" d="M1174.1,144.723h-9.068v21.84h9.068Z" transform="translate(-643.555 -79.466)" fill="#e0e0e0"/>
    <path id="Trazado_605009" data-name="Trazado 605009" d="M1202.128,164.572h-9.068v12.973h9.068Z" transform="translate(-659.052 -90.44)" fill="#e0e0e0"/>
    <path id="Trazado_605010" data-name="Trazado 605010" d="M1115.823,283.955a31.361,31.361,0,0,0-44.1,1.5,30.92,30.92,0,0,0,1.507,43.832,31.36,31.36,0,0,0,44.1-1.5A30.916,30.916,0,0,0,1115.823,283.955Zm-10.4,32.78a14.991,14.991,0,0,1-21.078.712,14.788,14.788,0,0,1-.72-20.96,14.99,14.99,0,0,1,21.078-.712A14.788,14.788,0,0,1,1105.427,316.736Z" transform="translate(-587.337 -151.834)" fill="#f5f5f5"/>
    <path id="Trazado_605011" data-name="Trazado 605011" d="M1071.727,285.459a31.375,31.375,0,0,1,44.1-1.5l-11.116,11.828a15,15,0,0,0-21.078.712,14.781,14.781,0,0,0,.72,20.96l-11.116,11.829A30.92,30.92,0,0,1,1071.727,285.459Z" transform="translate(-587.337 -151.841)" fill="#ebebeb"/>
    <path id="Trazado_605012" data-name="Trazado 605012" d="M1162.086,282.933c15.395,14.3,17.246,37.542,2.857,52.852l-15.623-13.533c6.873-7.323,8.37-17.094,1.011-23.928Z" transform="translate(-634.869 -155.878)" fill="#fafafa"/>
    <path id="Trazado_605013" data-name="Trazado 605013" d="M234.8,408.991h83.223a2.589,2.589,0,0,1,2.585,2.585V431.3a2.589,2.589,0,0,1-2.585,2.585H234.8a2.589,2.589,0,0,1-2.585-2.585V411.576A2.589,2.589,0,0,1,234.8,408.991Z" transform="translate(-127.833 -225.571)" fill="#e0e0e0"/>
    <path id="Trazado_605014" data-name="Trazado 605014" d="M262.021,435.246a5.393,5.393,0,1,1-.832-7.6A5.376,5.376,0,0,1,262.021,435.246Z" transform="translate(-139.013 -235.227)" fill="#f5f5f5"/>
    <path id="Trazado_605015" data-name="Trazado 605015" d="M263.778,434.443a22.3,22.3,0,0,1-2.9,3.129l-.712.688-.144.144-.136-.144a15.563,15.563,0,0,1-2.161-2.457,14.6,14.6,0,0,1,2.449,2.177h-.288c.232-.224.465-.456.7-.7a22.114,22.114,0,0,1,3.185-2.833Z" transform="translate(-141.939 -239.642)" fill="#e0e0e0"/>
    <path id="Trazado_605016" data-name="Trazado 605016" d="M344.915,432.306c0,.112-11.868.208-26.5.208s-26.5-.1-26.5-.208,11.86-.208,26.5-.208S344.915,432.194,344.915,432.306Z" transform="translate(-160.844 -238.346)" fill="#fafafa"/>
    <path id="Trazado_605017" data-name="Trazado 605017" d="M345.453,442.4c0,.112-11.868.208-26.5.208s-26.5-.1-26.5-.208,11.86-.208,26.5-.208S345.453,442.288,345.453,442.4Z" transform="translate(-161.141 -243.926)" fill="#fafafa"/>
    <path id="Trazado_605018" data-name="Trazado 605018" d="M1033.274,450l-1.614,125.647h72.289V451.71Z" transform="translate(-569.82 -248.241)" fill="#f5f5f5"/>
    <path id="Trazado_605019" data-name="Trazado 605019" d="M1121.569,452.109l-.639,124.7H1153.3V452.877Z" transform="translate(-619.174 -249.409)" fill="#e0e0e0"/>
    <path id="Trazado_605020" data-name="Trazado 605020" d="M1040.35,455.062v25.7H1074.6V456.271Z" transform="translate(-574.624 -251.042)" fill="#e0e0e0"/>
    <path id="Trazado_605021" data-name="Trazado 605021" d="M1066.75,470.44v3.794h10.476V470.1Z" transform="translate(-589.22 -259.353)" fill="#f5f5f5"/>
    <path id="Trazado_605022" data-name="Trazado 605022" d="M1077.571,486.491H1066.75v1.552h10.821Z" transform="translate(-589.22 -268.417)" fill="#f5f5f5"/>
    <path id="Trazado_605023" data-name="Trazado 605023" d="M1040.35,656.454v25.705H1074.6V657.67Z" transform="translate(-574.624 -362.384)" fill="#e0e0e0"/>
    <path id="Trazado_605024" data-name="Trazado 605024" d="M1066.75,671.85v3.793h10.476v-4.138Z" transform="translate(-589.22 -370.706)" fill="#f5f5f5"/>
    <path id="Trazado_605025" data-name="Trazado 605025" d="M1077.571,687.9H1066.75v1.553h10.821Z" transform="translate(-589.22 -379.77)" fill="#f5f5f5"/>
    <path id="Trazado_605026" data-name="Trazado 605026" d="M1040.35,519.853v25.7H1074.6V521.062Z" transform="translate(-574.624 -286.862)" fill="#e0e0e0"/>
    <path id="Trazado_605027" data-name="Trazado 605027" d="M1066.75,535.232v3.794h10.476v-4.137Z" transform="translate(-589.22 -295.174)" fill="#f5f5f5"/>
    <path id="Trazado_605028" data-name="Trazado 605028" d="M1077.571,551.283H1066.75v1.552h10.821Z" transform="translate(-589.22 -304.239)" fill="#f5f5f5"/>
    <path id="Trazado_605029" data-name="Trazado 605029" d="M1073.6,588.672H1039.35v25.7H1073.6Z" transform="translate(-574.071 -324.91)" fill="#e0e0e0"/>
    <path id="Trazado_605030" data-name="Trazado 605030" d="M1066.27,614.165v3.569h9.846v-3.9Z" transform="translate(-588.954 -338.822)" fill="#f5f5f5"/>
    <path id="Trazado_605031" data-name="Trazado 605031" d="M1076.443,629.266H1066.27v1.457h10.172Z" transform="translate(-588.954 -347.353)" fill="#f5f5f5"/>
    <path id="Trazado_605032" data-name="Trazado 605032" d="M544.774,728.309c0,.112-118.533.208-264.708.208s-264.731-.1-264.731-.208,118.5-.208,264.731-.208S544.774,728.2,544.774,728.309Z" transform="translate(-7.931 -401.995)" fill="#263238"/>
    <path id="Trazado_605033" data-name="Trazado 605033" d="M556.282,72.521H342.338V212.853H556.282Z" transform="translate(-188.719 -39.548)" fill="#fafafa"/>
    <path id="Trazado_605034" data-name="Trazado 605034" d="M556.007,212.6c0-1.353-.064-54.741-.168-140.332l.168.168c-58.71.008-133.162.024-213.928.04h-.016l.208-.208c0,49.907-.008,97.4-.016,140.332l-.192-.192c125.879.112,212.231.192,213.944.192-1.713,0-88.065.08-213.944.192h-.192V212.6c0-42.936-.008-90.426-.016-140.332v-.208h.224c80.758.016,155.218.032,213.928.04h.168v.168C556.071,157.856,556.007,211.244,556.007,212.6Z" transform="translate(-188.452 -39.291)" fill="#263238"/>
    <path id="Trazado_605035" data-name="Trazado 605035" d="M488.4,245.831l21.04.288a20.951,20.951,0,0,1-21.04,20.352h-.12Z" transform="translate(-269.405 -135.365)" fill="#263c71"/>
    <path id="Trazado_605036" data-name="Trazado 605036" d="M532.381,289.739s-.152.024-.448.04c-.336.008-.76.016-1.289.032-1.16.016-2.761.032-4.7.056h-.056l-.04-.048c-1.881-2.369-4.3-5.418-6.939-8.747-2.049-2.617-3.969-5.066-5.594-7.139l.112.056c-2.537-.024-4.658-.04-6.194-.056-.712-.016-1.289-.032-1.729-.04a3.729,3.729,0,0,1-.616-.04,2.849,2.849,0,0,1,.616-.04c.44-.008,1.016-.024,1.729-.04,1.536-.016,3.657-.032,6.194-.056h.064l.04.056c1.632,2.065,3.569,4.5,5.634,7.107,2.617,3.345,5.026,6.41,6.883,8.8l-.1-.048c1.945.024,3.545.04,4.7.056.529.016.952.024,1.289.032a1.488,1.488,0,0,1,.448.04Z" transform="translate(-278.588 -150.783)" fill="#263238"/>
    <path id="Trazado_605037" data-name="Trazado 605037" d="M566.408,314.792c0,.088-3.049.16-6.811.16s-6.81-.072-6.81-.16,3.049-.16,6.81-.16S566.408,314.7,566.408,314.792Z" transform="translate(-305.068 -173.403)" fill="#263238"/>
    <path id="Trazado_605038" data-name="Trazado 605038" d="M566.408,320.43c0,.088-3.049.16-6.811.16s-6.81-.072-6.81-.16,3.049-.16,6.81-.16S566.408,320.342,566.408,320.43Z" transform="translate(-305.068 -176.52)" fill="#263238"/>
    <path id="Trazado_605039" data-name="Trazado 605039" d="M455.1,213.607l-.3,20.64a20.943,20.943,0,0,1-20.752-20.64c0-11.212,9.5-20.648,21.048-20.648a20.946,20.946,0,0,1,21.048,20.648Z" transform="translate(-239.423 -106.134)" fill="#304c8e"/>
    <path id="Trazado_605040" data-name="Trazado 605040" d="M439.238,208.108s-.128.04-.368.088c-.288.048-.632.1-1.048.168-.968.136-2.249.312-3.777.528h-.064l-.048-.04c-1.441-1.4-3.169-3.089-5.042-4.906-2.425-2.377-4.6-4.538-6.17-6.115-.744-.76-1.369-1.392-1.841-1.881a5.447,5.447,0,0,1-.648-.72,5.761,5.761,0,0,1,.736.632c.5.464,1.137,1.073,1.913,1.809,1.609,1.537,3.81,3.674,6.234,6.05,1.857,1.833,3.577,3.537,5,4.946l-.112-.04c1.536-.168,2.825-.312,3.793-.416q.624-.06,1.057-.1c.24-.016.376-.024.376,0Z" transform="translate(-231.782 -107.39)" fill="#263238"/>
    <path id="Trazado_605041" data-name="Trazado 605041" d="M391.488,193.012c0,.088-3.049.16-6.811.16s-6.81-.072-6.81-.16,3.049-.16,6.81-.16S391.488,192.924,391.488,193.012Z" transform="translate(-208.361 -106.075)" fill="#263238"/>
    <path id="Trazado_605042" data-name="Trazado 605042" d="M391.488,198.65c0,.088-3.049.16-6.811.16s-6.81-.072-6.81-.16,3.049-.16,6.81-.16S391.488,198.562,391.488,198.65Z" transform="translate(-208.361 -109.192)" fill="#263238"/>
    <path id="Trazado_605043" data-name="Trazado 605043" d="M626.16,132.064l-.08-12.829a16.342,16.342,0,0,0-10.58,4.13,15.162,15.162,0,0,0-5.1,13.285,17.622,17.622,0,0,0,.3,1.865.107.107,0,0,0,.008.048l15.454-3.481Z" transform="translate(-336.866 -65.375)" fill="#304c8e"/>
    <g id="Grupo_1014653" data-name="Grupo 1014653" transform="translate(273.436 53.86)" opacity="0.3">
      <path id="Trazado_605044" data-name="Trazado 605044" d="M626.16,132.064l-.08-12.829a16.342,16.342,0,0,0-10.58,4.13,15.162,15.162,0,0,0-5.1,13.285,17.622,17.622,0,0,0,.3,1.865.107.107,0,0,0,.008.048l15.454-3.481Z" transform="translate(-610.303 -119.235)" fill="#fff"/>
    </g>
    <path id="Trazado_605045" data-name="Trazado 605045" d="M663.722,128.2a15.216,15.216,0,0,0-12.477-8.731c-.16-.016-.328-.032-.488-.04-.1,0-.208-.016-.312-.024-.3-.016-.616-.024-.928-.024h-.08l.08,12.829.016,3.017,15.462,3.377h.016a14.818,14.818,0,0,0,.344-3.321,16.607,16.607,0,0,0-1.633-7.067Z" transform="translate(-358.503 -65.455)" fill="#304c8e"/>
    <g id="Grupo_1014654" data-name="Grupo 1014654" transform="translate(290.935 53.924)" opacity="0.3">
      <path id="Trazado_605046" data-name="Trazado 605046" d="M663.722,128.2a15.216,15.216,0,0,0-12.477-8.731c-.16-.016-.328-.032-.488-.04-.1,0-.208-.016-.312-.024-.3-.016-.616-.024-.928-.024h-.08l.08,12.829.016,3.017,15.462,3.377h.016a14.818,14.818,0,0,0,.344-3.321,16.607,16.607,0,0,0-1.633-7.067Z" transform="translate(-649.437 -119.379)"/>
    </g>
    <path id="Trazado_605047" data-name="Trazado 605047" d="M628.5,158.253l-15.454,3.481a15.84,15.84,0,0,0,30.932-.1l-15.461-3.378" transform="translate(-338.385 -86.947)" fill="#304c8e"/>
    <path id="Trazado_605048" data-name="Trazado 605048" d="M738.038,152.824c0,.112-8,.208-17.847.208s-17.847-.1-17.847-.208,7.987-.208,17.847-.208S738.038,152.712,738.038,152.824Z" transform="translate(-387.753 -83.83)" fill="#263238"/>
    <path id="Trazado_605049" data-name="Trazado 605049" d="M738.038,143.731c0,.112-8,.208-17.847.208s-17.847-.1-17.847-.208,7.987-.208,17.847-.208S738.038,143.619,738.038,143.731Z" transform="translate(-387.753 -78.803)" fill="#263238"/>
    <path id="Trazado_605050" data-name="Trazado 605050" d="M738.038,134.621c0,.112-8,.208-17.847.208s-17.847-.1-17.847-.208,7.987-.208,17.847-.208S738.038,134.509,738.038,134.621Z" transform="translate(-387.753 -73.766)" fill="#263238"/>
    <path id="Trazado_605051" data-name="Trazado 605051" d="M738.038,161.29c0,.112-8,.208-17.847.208s-17.847-.1-17.847-.208,7.987-.208,17.847-.208S738.038,161.178,738.038,161.29Z" transform="translate(-387.753 -88.511)" fill="#263238"/>
    <path id="Trazado_605052" data-name="Trazado 605052" d="M727.135,170.507c0,.112-5.49.208-12.26.208s-12.26-.1-12.26-.208,5.49-.208,12.26-.208S727.135,170.4,727.135,170.507Z" transform="translate(-387.902 -93.606)" fill="#263238"/>
    <path id="Trazado_605053" data-name="Trazado 605053" d="M622.29,236.631h-3.674v41.063h3.674Z" transform="translate(-341.463 -130.279)" fill="#304c8e"/>
    <path id="Trazado_605054" data-name="Trazado 605054" d="M638.166,267.828h-3.674v27.114h3.674Z" transform="translate(-350.24 -147.527)" fill="#304c8e"/>
    <path id="Trazado_605055" data-name="Trazado 605055" d="M654.041,248.05h-3.673v36.165h3.673Z" transform="translate(-359.017 -136.592)" fill="#304c8e"/>
    <path id="Trazado_605056" data-name="Trazado 605056" d="M669.917,240.175h-3.673v39.479h3.673Z" transform="translate(-367.794 -132.238)" fill="#304c8e"/>
    <path id="Trazado_605057" data-name="Trazado 605057" d="M685.793,269.689H682.12v26.282h3.673Z" transform="translate(-376.572 -148.556)" fill="#304c8e"/>
    <path id="Trazado_605058" data-name="Trazado 605058" d="M701.669,281.216H698v21.128h3.673Z" transform="translate(-385.349 -154.928)" fill="#304c8e"/>
    <path id="Trazado_605059" data-name="Trazado 605059" d="M717.545,246.063h-3.673v36.846h3.673Z" transform="translate(-394.126 -135.494)" fill="#304c8e"/>
    <path id="Trazado_605060" data-name="Trazado 605060" d="M733.421,260.918h-3.673v30.2h3.673Z" transform="translate(-402.904 -143.706)" fill="#304c8e"/>
    <path id="Trazado_605061" data-name="Trazado 605061" d="M749.3,249.052h-3.673v35.509H749.3Z" transform="translate(-411.68 -137.146)" fill="#304c8e"/>
    <path id="Trazado_605062" data-name="Trazado 605062" d="M765.172,274.361H761.5v24.193h3.673Z" transform="translate(-420.457 -151.139)" fill="#304c8e"/>
    <path id="Trazado_605063" data-name="Trazado 605063" d="M781.048,264.069h-3.673v28.795h3.673Z" transform="translate(-429.235 -145.448)" fill="#304c8e"/>
    <path id="Trazado_605064" data-name="Trazado 605064" d="M692.633,334.669c0,.08-17.438.152-38.95.152s-38.951-.064-38.951-.152,17.439-.152,38.951-.152S692.633,334.581,692.633,334.669Z" transform="translate(-339.315 -184.397)" fill="#263238"/>
    <path id="Trazado_605065" data-name="Trazado 605065" d="M623.609,341.9a12.691,12.691,0,0,1-2.729.152,12.107,12.107,0,0,1-2.729-.152,24.57,24.57,0,0,1,5.458,0Z" transform="translate(-341.206 -188.394)" fill="#263238"/>
    <path id="Trazado_605066" data-name="Trazado 605066" d="M642.528,342.276a17.982,17.982,0,0,1-3.257.152,17.185,17.185,0,0,1-3.257-.152,34.973,34.973,0,0,1,6.514,0Z" transform="translate(-351.081 -188.602)" fill="#263238"/>
    <path id="Trazado_605067" data-name="Trazado 605067" d="M659.8,342.276a17.982,17.982,0,0,1-3.257.152,17.185,17.185,0,0,1-3.257-.152,34.972,34.972,0,0,1,6.514,0Z" transform="translate(-360.63 -188.602)" fill="#263238"/>
    <path id="Trazado_605068" data-name="Trazado 605068" d="M677.071,342.276a17.974,17.974,0,0,1-3.257.152,17.192,17.192,0,0,1-3.257-.152,34.972,34.972,0,0,1,6.514,0Z" transform="translate(-370.179 -188.602)" fill="#263238"/>
    <path id="Trazado_605069" data-name="Trazado 605069" d="M694.326,342.276a17.982,17.982,0,0,1-3.257.152,17.186,17.186,0,0,1-3.257-.152,34.972,34.972,0,0,1,6.514,0Z" transform="translate(-379.719 -188.602)" fill="#263238"/>
    <path id="Trazado_605070" data-name="Trazado 605070" d="M711.6,342.276a17.974,17.974,0,0,1-3.257.152,17.193,17.193,0,0,1-3.257-.152,34.973,34.973,0,0,1,6.514,0Z" transform="translate(-389.267 -188.602)" fill="#263238"/>
    <path id="Trazado_605071" data-name="Trazado 605071" d="M728.869,342.276a17.976,17.976,0,0,1-3.257.152,17.188,17.188,0,0,1-3.257-.152,34.973,34.973,0,0,1,6.514,0Z" transform="translate(-398.816 -188.602)" fill="#263238"/>
    <path id="Trazado_605072" data-name="Trazado 605072" d="M746.123,342.276a17.978,17.978,0,0,1-3.257.152,17.185,17.185,0,0,1-3.257-.152,34.972,34.972,0,0,1,6.514,0Z" transform="translate(-408.355 -188.602)" fill="#263238"/>
    <path id="Trazado_605073" data-name="Trazado 605073" d="M763.4,342.276a17.978,17.978,0,0,1-3.257.152,17.185,17.185,0,0,1-3.257-.152,34.972,34.972,0,0,1,6.514,0Z" transform="translate(-417.904 -188.602)" fill="#263238"/>
    <path id="Trazado_605074" data-name="Trazado 605074" d="M780.649,342.276a17.977,17.977,0,0,1-3.257.152,17.185,17.185,0,0,1-3.257-.152,34.972,34.972,0,0,1,6.514,0Z" transform="translate(-427.443 -188.602)" fill="#263238"/>
    <g id="Grupo_1014655" data-name="Grupo 1014655" transform="translate(284.252 120.301)" opacity="0.3">
      <path id="Trazado_605075" data-name="Trazado 605075" d="M638.166,267.828h-3.674v27.114h3.674Z" transform="translate(-634.492 -267.828)" fill="#fff"/>
    </g>
    <g id="Grupo_1014656" data-name="Grupo 1014656" transform="translate(298.45 107.937)" opacity="0.3">
      <path id="Trazado_605076" data-name="Trazado 605076" d="M669.917,240.175h-3.673v39.479h3.673Z" transform="translate(-666.244 -240.175)" fill="#fff"/>
    </g>
    <g id="Grupo_1014657" data-name="Grupo 1014657" transform="translate(312.647 126.288)" opacity="0.3">
      <path id="Trazado_605077" data-name="Trazado 605077" d="M701.669,281.216H698v21.128h3.673Z" transform="translate(-697.996 -281.216)" fill="#fff"/>
    </g>
    <g id="Grupo_1014658" data-name="Grupo 1014658" transform="translate(326.845 117.212)" opacity="0.3">
      <path id="Trazado_605078" data-name="Trazado 605078" d="M733.421,260.918h-3.673v30.2h3.673Z" transform="translate(-729.748 -260.918)" fill="#fff"/>
    </g>
    <g id="Grupo_1014659" data-name="Grupo 1014659" transform="translate(341.042 123.222)" opacity="0.3">
      <path id="Trazado_605079" data-name="Trazado 605079" d="M765.172,274.361H761.5v24.193h3.673Z" transform="translate(-761.499 -274.361)" fill="#fff"/>
    </g>
    <path id="Trazado_605080" data-name="Trazado 605080" d="M391.707,127.14a3.537,3.537,0,1,1-3.537-3.537A3.539,3.539,0,0,1,391.707,127.14Z" transform="translate(-212.101 -67.79)" fill="#304c8e"/>
    <path id="Trazado_605081" data-name="Trazado 605081" d="M470.632,125.01c0,.112-11.933.208-26.65.208s-26.65-.1-26.65-.208,11.932-.208,26.65-.208S470.632,124.9,470.632,125.01Z" transform="translate(-230.18 -68.453)" fill="#304c8e"/>
    <path id="Trazado_605082" data-name="Trazado 605082" d="M439.227,134.585a6.532,6.532,0,0,1-.824.08c-.528.024-1.3.048-2.249.064-1.9.04-4.529.064-7.427.064s-5.53-.024-7.427-.064c-.952-.016-1.721-.04-2.249-.064a3.51,3.51,0,0,1-.825-.08,3.478,3.478,0,0,1,.825-.08c.528-.024,1.3-.048,2.249-.064,1.9-.04,4.529-.064,7.427-.064s5.53.024,7.427.064c.952.016,1.721.04,2.249.064A3.477,3.477,0,0,1,439.227,134.585Z" transform="translate(-230.675 -73.747)" fill="#304c8e"/>
    <path id="Trazado_605083" data-name="Trazado 605083" d="M194.138,100.925H82.168V228.717h111.97Z" transform="translate(-44.88 -55.252)" fill="#fafafa"/>
    <path id="Trazado_605084" data-name="Trazado 605084" d="M193.881,228.46s0-.208-.008-.608,0-1-.008-1.777c0-1.569-.016-3.882-.024-6.9-.008-6.034-.024-14.861-.048-26.074-.024-22.408-.056-54.332-.1-92.434l.184.184c-32.972,0-71.283.016-111.962.024h-.008l.208-.208c-.008,47.113-.024,91.05-.032,127.792l-.176-.176c33.684.04,61.655.072,81.214.088,9.788.016,17.463.032,22.7.048,2.617.008,4.626.016,5.986.024s2.065.016,2.065.016-.681.016-2.025.016-3.345.008-5.954.024c-5.234.008-12.9.024-22.664.048-19.583.024-47.594.056-81.326.088h-.176v-.176c-.008-36.742-.024-80.678-.032-127.792v-.208h.216l111.962.024h.184v.184c-.04,38.158-.072,70.122-.1,92.555-.024,11.2-.04,20.007-.048,26.034-.008,3-.016,5.3-.024,6.859,0,.768-.008,1.352-.008,1.752s-.008.584-.008.584Z" transform="translate(-44.623 -54.995)" fill="#263238"/>
    <path id="Trazado_605085" data-name="Trazado 605085" d="M201.48,243.3c-.04.08-1.24-.624-3.6-1.369a23.179,23.179,0,0,0-10.324-.768,22.506,22.506,0,0,0-6.81,2.185,31.991,31.991,0,0,0-6.7,4.818c-2.193,1.937-4.377,4.137-6.89,6.17a23.768,23.768,0,0,1-8.8,4.762,13.439,13.439,0,0,1-5.138.312,16.615,16.615,0,0,1-4.754-1.472A84.591,84.591,0,0,1,140.5,253.2a24.861,24.861,0,0,0-7.5-3.361,22.118,22.118,0,0,0-7.131-.544,23.009,23.009,0,0,0-9.844,3.2c-2.113,1.288-3.1,2.265-3.161,2.193a4.843,4.843,0,0,1,.712-.7,17.61,17.61,0,0,1,2.289-1.745,22.432,22.432,0,0,1,17.279-3.017,25.1,25.1,0,0,1,7.715,3.378,84.77,84.77,0,0,0,7.915,4.657,13.534,13.534,0,0,0,9.388,1.1,23.255,23.255,0,0,0,8.515-4.6c2.473-1.985,4.665-4.178,6.89-6.114a32.167,32.167,0,0,1,6.875-4.85,22.893,22.893,0,0,1,7.019-2.161,22.588,22.588,0,0,1,10.5,1.016,18.62,18.62,0,0,1,2.641,1.136,5.181,5.181,0,0,1,.864.512Z" transform="translate(-61.85 -132.37)" fill="#304c8e"/>
    <path id="Trazado_605086" data-name="Trazado 605086" d="M160.611,285.243H151.1v25.746h9.516Z" transform="translate(-82.987 -157.155)" fill="#304c8e"/>
    <path id="Trazado_605087" data-name="Trazado 605087" d="M250.943,285.243h-9.516v25.746h9.516Z" transform="translate(-132.929 -157.155)" fill="#304c8e"/>
    <path id="Trazado_605088" data-name="Trazado 605088" d="M281.065,251.433H271.55V292.3h9.516Z" transform="translate(-149.583 -138.463)" fill="#304c8e"/>
    <path id="Trazado_605089" data-name="Trazado 605089" d="M133.065,324.708h-9.516v8.667h9.516Z" transform="translate(-67.758 -178.974)" fill="#304c8e"/>
    <path id="Trazado_605090" data-name="Trazado 605090" d="M190.723,311.249H181.2v14.117h9.524Z" transform="translate(-99.631 -171.533)" fill="#304c8e"/>
    <path id="Trazado_605091" data-name="Trazado 605091" d="M220.838,304h-9.516v17.359h9.516Z" transform="translate(-116.285 -167.525)" fill="#304c8e"/>
    <path id="Trazado_605092" data-name="Trazado 605092" d="M160.509,349.148c0,.208-2.3.384-5.146.384s-5.146-.168-5.146-.384,2.3-.384,5.146-.384S160.509,348.932,160.509,349.148Z" transform="translate(-82.502 -192.273)" fill="#263238"/>
    <path id="Trazado_605093" data-name="Trazado 605093" d="M134.021,349.148c0,.208-2.3.384-5.146.384s-5.146-.168-5.146-.384,2.3-.384,5.146-.384S134.021,348.932,134.021,349.148Z" transform="translate(-67.858 -192.273)" fill="#263238"/>
    <path id="Trazado_605094" data-name="Trazado 605094" d="M282.67,349.148c0,.208-2.6.384-5.811.384s-5.81-.168-5.81-.384,2.6-.384,5.81-.384S282.67,348.932,282.67,349.148Z" transform="translate(-149.306 -192.273)" fill="#263238"/>
    <path id="Trazado_605095" data-name="Trazado 605095" d="M245.215,349.532c3.209,0,5.81-.172,5.81-.384s-2.6-.384-5.81-.384-5.81.172-5.81.384S242.006,349.532,245.215,349.532Z" transform="translate(-131.811 -192.273)" fill="#263238"/>
    <path id="Trazado_605096" data-name="Trazado 605096" d="M219.879,349.148c0,.208-2.3.384-5.146.384s-5.146-.168-5.146-.384,2.3-.384,5.146-.384S219.879,348.932,219.879,349.148Z" transform="translate(-115.326 -192.273)" fill="#263238"/>
    <path id="Trazado_605097" data-name="Trazado 605097" d="M188.771,349.148c0,.208-2.3.384-5.146.384s-5.146-.168-5.146-.384,2.3-.384,5.146-.384S188.771,348.932,188.771,349.148Z" transform="translate(-98.127 -192.273)" fill="#263238"/>
    <path id="Trazado_605098" data-name="Trazado 605098" d="M200.845,142.593h-77.8V174.9h77.8Z" transform="translate(-67.481 -78.289)" fill="#e0e0e0"/>
    <path id="Trazado_605099" data-name="Trazado 605099" d="M150.22,160.948a3.625,3.625,0,1,1-3.625-3.625A3.627,3.627,0,0,1,150.22,160.948Z" transform="translate(-78.495 -86.433)" fill="#263238"/>
    <path id="Trazado_605100" data-name="Trazado 605100" d="M192.566,159.829H167.292v1.4h25.274Z" transform="translate(-91.942 -87.818)" fill="#263238"/>
    <path id="Trazado_605101" data-name="Trazado 605101" d="M216.455,166.971H167.292v1.4h49.163Z" transform="translate(-91.942 -91.767)" fill="#fff"/>
    <path id="Trazado_605102" data-name="Trazado 605102" d="M150.22,185.881a3.625,3.625,0,1,1-3.625-3.625A3.627,3.627,0,0,1,150.22,185.881Z" transform="translate(-78.495 -100.217)" fill="#304c8e"/>
    <path id="Trazado_605103" data-name="Trazado 605103" d="M180.193,184.762h-12.9v1.4h12.9Z" transform="translate(-91.942 -101.603)" fill="#304c8e"/>
    <path id="Trazado_605104" data-name="Trazado 605104" d="M216.455,191.9H167.292v1.4h49.163Z" transform="translate(-91.942 -105.551)" fill="#fff"/>
    <path id="Trazado_605105" data-name="Trazado 605105" d="M967.237,49.629H844.278V189.962H967.237Z" transform="translate(-466.223 -26.893)" fill="#fafafa"/>
    <path id="Trazado_605106" data-name="Trazado 605106" d="M966.97,189.714s0-.224-.009-.664,0-1.1-.009-1.953c0-1.721-.013-4.266-.022-7.571-.009-6.627-.027-16.318-.049-28.627-.022-24.6-.054-59.662-.094-101.51l.183.184c-36.2,0-78.279.016-122.943.024h-.016l.208-.208c-.008,51.739-.024,99.981-.032,140.332l-.176-.176c37,.04,67.714.072,89.187.088,10.745.016,19.182.032,24.928.048,2.875.008,5.084.016,6.568.024s2.267.016,2.267.016-.751.016-2.227.016-3.671.008-6.537.024c-5.746.008-14.165.024-24.9.048-21.5.024-52.26.056-89.3.088h-.176v-.176c-.008-40.343-.024-88.593-.032-140.332v-.208h.224l122.942.024h.183v.184c-.04,41.9-.071,77-.094,101.63-.027,12.293-.04,21.976-.049,28.587-.009,3.3-.018,5.826-.022,7.539v1.928l-.027.648Z" transform="translate(-465.956 -26.645)" fill="#263238"/>
    <path id="Trazado_605107" data-name="Trazado 605107" d="M965.881,74.723H866.275v79.91h99.606Z" transform="translate(-478.384 -40.766)" fill="#e0e0e0"/>
    <path id="Trazado_605108" data-name="Trazado 605108" d="M885.112,221.65h-3.266v.944h3.266Z" transform="translate(-486.993 -121.997)" fill="#263238"/>
    <path id="Trazado_605109" data-name="Trazado 605109" d="M902.563,232.926h-4.178v.944h4.178Z" transform="translate(-496.137 -128.231)" fill="#263238"/>
    <path id="Trazado_605110" data-name="Trazado 605110" d="M935.12,232.926h-4.178v.944h4.178Z" transform="translate(-514.136 -128.231)" fill="#263238"/>
    <path id="Trazado_605111" data-name="Trazado 605111" d="M967.659,232.926h-4.178v.944h4.178Z" transform="translate(-532.126 -128.231)" fill="#263238"/>
    <path id="Trazado_605112" data-name="Trazado 605112" d="M1000.215,232.926h-4.177v.944h4.177Z" transform="translate(-550.125 -128.231)" fill="#263238"/>
    <path id="Trazado_605113" data-name="Trazado 605113" d="M1032.756,232.926h-4.176v.944h4.176Z" transform="translate(-568.117 -128.231)" fill="#263238"/>
    <path id="Trazado_605114" data-name="Trazado 605114" d="M1065.311,232.926h-4.181v.944h4.181Z" transform="translate(-586.112 -128.231)" fill="#263238"/>
    <path id="Trazado_605115" data-name="Trazado 605115" d="M885.112,193.514h-3.266v.944h3.266Z" transform="translate(-486.993 -106.441)" fill="#263238"/>
    <path id="Trazado_605116" data-name="Trazado 605116" d="M885.112,140.553h-3.266v.944h3.266Z" transform="translate(-486.993 -77.161)" fill="#263238"/>
    <path id="Trazado_605117" data-name="Trazado 605117" d="M885.112,113.938h-3.266v.944h3.266Z" transform="translate(-486.993 -62.447)" fill="#263238"/>
    <path id="Trazado_605118" data-name="Trazado 605118" d="M885.488,167.042h-3.265v.944h3.265Z" transform="translate(-487.201 -91.806)" fill="#263238"/>
    <path id="Trazado_605119" data-name="Trazado 605119" d="M971.959,153.9s-.121.016-.353.024l-1.033.024c-.926.008-2.254.024-3.953.04-3.456.016-8.42.04-14.55.064l-47.993.064H892.5v-.208c.032-16.046.056-30.163.072-40.3.024-5.042.048-9.092.064-11.9.016-1.376.024-2.449.032-3.2,0-.352.016-.624.016-.832a1.893,1.893,0,0,1,.016-.28,1.952,1.952,0,0,1,.016.28c0,.208.008.48.016.832.008.752.024,1.825.032,3.2.016,2.809.032,6.859.064,11.9.016,10.132.04,24.249.072,40.3l-.208-.208h11.372l48,.064c6.13.024,11.089.048,14.55.064,1.7.016,3.031.032,3.953.04l1.033.024a1.317,1.317,0,0,1,.349.024Z" transform="translate(-492.881 -53.303)" fill="#263238"/>
    <path id="Trazado_605120" data-name="Trazado 605120" d="M977.065,167.841c0,.112-17.242.208-38.5.208s-38.51-.1-38.51-.208,17.238-.208,38.51-.208S977.065,167.729,977.065,167.841Z" transform="translate(-497.057 -92.133)" fill="#263238"/>
    <path id="Trazado_605121" data-name="Trazado 605121" d="M977.065,141.352c0,.112-17.242.208-38.5.208s-38.51-.1-38.51-.208,17.238-.208,38.51-.208S977.065,141.24,977.065,141.352Z" transform="translate(-497.057 -77.488)" fill="#263238"/>
    <path id="Trazado_605122" data-name="Trazado 605122" d="M977.065,114.736c0,.112-17.242.208-38.5.208s-38.51-.1-38.51-.208,17.238-.208,38.51-.208S977.065,114.624,977.065,114.736Z" transform="translate(-497.057 -62.773)" fill="#263238"/>
    <path id="Trazado_605123" data-name="Trazado 605123" d="M977.065,194.312c0,.112-17.242.208-38.5.208s-38.51-.1-38.51-.208,17.238-.208,38.51-.208S977.065,194.2,977.065,194.312Z" transform="translate(-497.057 -106.767)" fill="#263238"/>
    <path id="Trazado_605124" data-name="Trazado 605124" d="M901.822,152.425V141.917l6.547-10.164,4.441,3.409L921.933,121l5.378,3.785,7.483-13.069,6.082,4.954L950,99.333l9.819,19.375,7.946-9.692,9.359-2.673v46.089h-75.3Z" transform="translate(-498.037 -54.372)" fill="#263c71"/>
    <path id="Trazado_605125" data-name="Trazado 605125" d="M978.03,106.465s-.054.008-.165.016l-.487.016c-.456,0-1.091.016-1.9.032-1.69.016-4.114.032-7.181.056l.089-.048c-2.088,2.737-4.69,6.146-7.682,10.06l-.049.064h-.081c-5.594.008-12.14.024-19.256.032l.168-.1c-2.537,4.217-5.266,8.771-8.091,13.477-2.761,4.585-5.426,9.019-7.947,13.213l-.16.256-.176-.248c-3.8-5.234-7.315-10.068-10.428-14.35h.28c-3.961,6.154-7.235,11.236-9.532,14.806-1.136,1.752-2.041,3.129-2.665,4.09-.3.456-.536.808-.712,1.064a4.153,4.153,0,0,1-.256.352,4.4,4.4,0,0,1,.216-.384c.16-.264.384-.632.665-1.1.608-.977,1.48-2.369,2.585-4.146,2.265-3.585,5.5-8.7,9.411-14.893l.136-.208.144.2c3.121,4.265,6.659,9.091,10.476,14.309l-.336.016c2.521-4.194,5.186-8.636,7.939-13.221,2.833-4.706,5.57-9.252,8.107-13.469l.056-.1h.112c7.115.016,13.661.024,19.255.032l-.13.064c3.018-3.89,5.643-7.275,7.758-10l.031-.048h.054c3.067.024,5.491.04,7.181.056.809.016,1.44.024,1.9.032l.487.016c.112,0,.17.008.17.016Z" transform="translate(-498.027 -58.231)" fill="#304c8e"/>
    <path id="Trazado_605126" data-name="Trazado 605126" d="M936.173,163.387a.737.737,0,1,1-.736-.712A.724.724,0,0,1,936.173,163.387Z" transform="translate(-516.214 -89.391)" fill="#304c8e"/>
    <path id="Trazado_605127" data-name="Trazado 605127" d="M985.859,135.144a.737.737,0,1,1-.736-.712A.725.725,0,0,1,985.859,135.144Z" transform="translate(-543.684 -73.777)" fill="#304c8e"/>
    <path id="Trazado_605128" data-name="Trazado 605128" d="M1024.465,128.216a.738.738,0,1,1-.738-.712A.727.727,0,0,1,1024.465,128.216Z" transform="translate(-565.026 -69.947)" fill="#304c8e"/>
    <path id="Trazado_605129" data-name="Trazado 605129" d="M962.93,279.742c0,.112-21.015.208-46.935.208s-46.946-.1-46.946-.208,21.016-.208,46.946-.208S962.93,279.63,962.93,279.742Z" transform="translate(-479.918 -153.999)" fill="#263238"/>
    <path id="Trazado_605130" data-name="Trazado 605130" d="M962.93,291.089c0,.112-21.015.208-46.935.208s-46.946-.1-46.946-.208,21.016-.208,46.946-.208S962.93,290.977,962.93,291.089Z" transform="translate(-479.918 -160.272)" fill="#263238"/>
    <path id="Trazado_605131" data-name="Trazado 605131" d="M962.93,302.436c0,.112-21.015.208-46.935.208s-46.946-.1-46.946-.208,21.016-.208,46.946-.208S962.93,302.324,962.93,302.436Z" transform="translate(-479.918 -166.545)" fill="#263238"/>
    <path id="Trazado_605132" data-name="Trazado 605132" d="M962.93,313.8c0,.112-21.015.208-46.935.208s-46.946-.1-46.946-.208,21.016-.208,46.946-.208S962.93,313.69,962.93,313.8Z" transform="translate(-479.918 -172.829)" fill="#263238"/>
    <path id="Trazado_605133" data-name="Trazado 605133" d="M986.889,274.56c2.57-4.313,3.321-10.06,3.979-15.038.313-2.345.854-5.674-.787-7.147-1.759-1.577-1.919-3.993-3.944-5.21a6.222,6.222,0,0,0-6.69.056" transform="translate(-540.952 -135.58)" fill="#263238"/>
    <path id="Trazado_605134" data-name="Trazado 605134" d="M962.692,292.764a6.929,6.929,0,0,1-7.459-6.643c-.144-3.769-.272-7.587-.272-7.587s-5.714-.536-6.13-6.195-.224-18.719-.224-18.719a19.713,19.713,0,0,1,19.928,1.281l-.352,19.911v10.716C968.142,289.122,966.278,292.491,962.692,292.764Z" transform="translate(-523.878 -138.505)" fill="#ffbe9d"/>
    <path id="Trazado_605135" data-name="Trazado 605135" d="M948.573,259.547a2.9,2.9,0,0,1,3.866-.84,3.285,3.285,0,0,1,1.1,4.113,4.347,4.347,0,0,1-2.777,2.1,2.182,2.182,0,0,0-1.705,2.337c.16,1.417,2.529,1.953,3.594,3.129,1.657,1.825,5.3,2.6,7.747,2.889,2.409.288,2.121.312,3.522-1.673a7.638,7.638,0,0,0,1.376-4.594q.132-6.254.256-12.517a17.561,17.561,0,0,0-.288-4.49,6.05,6.05,0,0,0-2.369-3.713c-1.377-.9-3.121-.984-4.69-1.489-1.961-.632-3.625-1.937-5.458-2.873s-4.082-1.5-5.922-.576c-1.32.664-2.209,1.985-3.49,2.713-1.833,1.04-4.322.8-5.21,3.5a4.582,4.582,0,0,0,.032,2.873c1.24,3.657,5.77,5.138,9.035,3.553.064.616-.544,2,.1,3.961.208.624.28,1.577,1.264,1.6" transform="translate(-517.987 -132.627)" fill="#263238"/>
    <path id="Trazado_605136" data-name="Trazado 605136" d="M964.005,287.141a1.137,1.137,0,0,0,.7.272,1.318,1.318,0,0,0,1.057-1.289,1.42,1.42,0,0,0-.969-1.408c-.464-.176-.8-.08-.816-.152-.024-.04.312-.256.9-.136a1.737,1.737,0,0,1,.888.512,1.635,1.635,0,0,1,.416,1.2,1.562,1.562,0,0,1-1.473,1.569.825.825,0,0,1-.632-.32c-.1-.136-.1-.24-.08-.248Z" transform="translate(-532.402 -156.685)" fill="#eb996e"/>
    <path id="Trazado_605137" data-name="Trazado 605137" d="M977.209,250.912a1.784,1.784,0,0,1,.472-.48,3.756,3.756,0,0,1,1.721-.664,4.943,4.943,0,0,1,2.705.408,6.249,6.249,0,0,1,2.5,2.233,12.8,12.8,0,0,1,1.761,5.73,15.154,15.154,0,0,1,.152,2.473,14.381,14.381,0,0,1-.441-2.433,13.763,13.763,0,0,0-1.809-5.538,5.963,5.963,0,0,0-2.313-2.113,4.548,4.548,0,0,0-4.738.392Z" transform="translate(-539.716 -137.518)" fill="#263c71"/>
    <path id="Trazado_605138" data-name="Trazado 605138" d="M939.523,255.217a.557.557,0,0,1-.216-.016,1.558,1.558,0,0,1-.56-.256,2.07,2.07,0,0,1-.656-.736,1.872,1.872,0,0,1-.176-1.313,2.134,2.134,0,0,1,.92-1.32,3.063,3.063,0,0,1,1.793-.352,2.451,2.451,0,0,0,1.7-.432,11.947,11.947,0,0,0,1.384-1.488,7.044,7.044,0,0,1,3.522-2.033,7.447,7.447,0,0,1,3.321-.072,6.473,6.473,0,0,1,2.089.8,2.384,2.384,0,0,1,.648.5,9.875,9.875,0,0,0-2.785-1.008,7.508,7.508,0,0,0-3.169.16,6.83,6.83,0,0,0-3.313,1.945,11.9,11.9,0,0,1-1.448,1.537,2.348,2.348,0,0,1-.977.44,4.584,4.584,0,0,1-.984.048,2.765,2.765,0,0,0-1.6.256,1.889,1.889,0,0,0-.816,1.1,1.819,1.819,0,0,0,.648,1.848,4.7,4.7,0,0,0,.681.4Z" transform="translate(-517.964 -136.036)" fill="#263c71"/>
    <path id="Trazado_605139" data-name="Trazado 605139" d="M969.078,278.659a7.752,7.752,0,0,0,.744-.448,4.676,4.676,0,0,0,1.545-1.721,4.287,4.287,0,0,0,.256-3.313,4.211,4.211,0,0,0-1.024-1.7,8.267,8.267,0,0,0-1.769-1.3c-.664-.384-1.337-.744-1.945-1.16a6.728,6.728,0,0,1-1.569-1.473,6.842,6.842,0,0,1-1.32-3.345,6.119,6.119,0,0,1,.184-2.417,4.107,4.107,0,0,1,.224-.617c.064-.136.1-.208.112-.2a8.4,8.4,0,0,0-.232,3.2,6.79,6.79,0,0,0,1.336,3.153,6.277,6.277,0,0,0,1.488,1.369c.593.4,1.256.744,1.929,1.136a8.513,8.513,0,0,1,1.849,1.369,4.648,4.648,0,0,1,1.1,1.873,4.508,4.508,0,0,1-2.089,5.29,2,2,0,0,1-.833.312Z" transform="translate(-532.385 -143.736)" fill="#263c71"/>
    <path id="Trazado_605140" data-name="Trazado 605140" d="M980.815,269.727a4.607,4.607,0,0,1-.728.16,10.276,10.276,0,0,1-2.033.064,12.652,12.652,0,0,1-6.314-2.169,9.986,9.986,0,0,1-4.137-5.21,4.356,4.356,0,0,1-.088-2.049,1.635,1.635,0,0,1,.28-.7,5.055,5.055,0,0,0,.088,2.665,10.286,10.286,0,0,0,4.089,4.946,13.4,13.4,0,0,0,6.1,2.225c1.681.184,2.729-.016,2.737.072Z" transform="translate(-534.31 -143.104)" fill="#263c71"/>
    <path id="Trazado_605141" data-name="Trazado 605141" d="M998.313,268.925a9.977,9.977,0,0,1,7.8-3.529,7.193,7.193,0,0,1,6.546,5.066c.541,2.153-.121,4.4-.4,6.61s-.009,4.786,1.793,6.09a10.527,10.527,0,0,0,3.787,1.248c1.3.32,2.7.969,3.134,2.233a3.181,3.181,0,0,1-1.945,3.705,7.238,7.238,0,0,1-4.53.064,3.8,3.8,0,0,1-1.681,4.538,5,5,0,0,1-5.026-.208,7.533,7.533,0,0,1-3.072-4.162,3.726,3.726,0,0,1-5.147.976,5.386,5.386,0,0,1-2.079-5.17,10.065,10.065,0,0,1,2.607-5.17,13.081,13.081,0,0,0,1.829-2.321,2.968,2.968,0,0,0,.112-2.825,1.71,1.71,0,0,0-2.522-.5" transform="translate(-550.904 -146.175)" fill="#263238"/>
    <path id="Trazado_605142" data-name="Trazado 605142" d="M1001.771,276.8a2.14,2.14,0,0,1-1.7-.016,4.071,4.071,0,0,1-2.465-3.217,4.2,4.2,0,0,1,.272-2.3,4.442,4.442,0,0,1,1.079-1.536,2.818,2.818,0,0,1,1.489-.833,11.26,11.26,0,0,0-1.279,1.04,4.188,4.188,0,0,0-1.146,3.561,4.027,4.027,0,0,0,2.169,3.017,3.835,3.835,0,0,0,1.583.288Z" transform="translate(-550.961 -148.115)" fill="#304c8e"/>
    <path id="Trazado_605143" data-name="Trazado 605143" d="M954.8,305a2.631,2.631,0,0,1-1.289-.128,6.982,6.982,0,0,1-4.585-4.05,2.639,2.639,0,0,1-.288-1.264,7.986,7.986,0,0,1,.552,1.145,7.988,7.988,0,0,0,4.4,3.882,8.981,8.981,0,0,1,1.2.408Z" transform="translate(-523.911 -165.07)" fill="#eb996e"/>
    <path id="Trazado_605144" data-name="Trazado 605144" d="M1004.482,297.45a1.459,1.459,0,0,1-.277-.04,2.891,2.891,0,0,1-.738-.328,4.048,4.048,0,0,1-1.61-2.441,5.067,5.067,0,0,1-.072-2.057,8.463,8.463,0,0,1,.747-2.224c.711-1.488,1.838-2.905,2.669-4.554a8.235,8.235,0,0,0,.841-2.521,4.815,4.815,0,0,0-.273-2.409,4.883,4.883,0,0,0-2.87-2.841,5.2,5.2,0,0,0-2.8-.176c-.662.136-1,.328-1.015.288,0-.016.072-.064.232-.152a3.7,3.7,0,0,1,.742-.288,5.037,5.037,0,0,1,6.077,3.033,5.15,5.15,0,0,1,.322,2.6,8.132,8.132,0,0,1-.876,2.649c-.863,1.7-1.99,3.105-2.7,4.538a6.085,6.085,0,0,0-.733,4.049,3.965,3.965,0,0,0,1.413,2.377,9.014,9.014,0,0,0,.921.5Z" transform="translate(-551.808 -152.884)" fill="#263c71"/>
    <path id="Trazado_605145" data-name="Trazado 605145" d="M1013.051,300.616a2.06,2.06,0,0,1-.362.024,3.737,3.737,0,0,1-1.006-.184,5.68,5.68,0,0,1-2.947-2.3,8.741,8.741,0,0,1-1.27-5.394,54.683,54.683,0,0,1,1.086-6.7,15.988,15.988,0,0,0,.241-3.449,8.631,8.631,0,0,0-.729-3.089,5.883,5.883,0,0,0-1.722-2.257,5.8,5.8,0,0,0-2.249-1.064,8.262,8.262,0,0,0-3.64.016c-.859.192-1.306.376-1.322.344a1.172,1.172,0,0,1,.312-.168,7.43,7.43,0,0,1,.961-.336,8.026,8.026,0,0,1,3.747-.144,6.063,6.063,0,0,1,2.392,1.073,6.141,6.141,0,0,1,1.865,2.368,9.259,9.259,0,0,1,.783,3.226,16.136,16.136,0,0,1-.233,3.537,61.678,61.678,0,0,0-1.118,6.65,8.53,8.53,0,0,0,1.136,5.21,5.7,5.7,0,0,0,2.755,2.3,8.027,8.027,0,0,0,1.31.312Z" transform="translate(-551.837 -151.912)" fill="#263c71"/>
    <path id="Trazado_605146" data-name="Trazado 605146" d="M1019.17,388.981l-12.05,9.4,5.057,8.3,14.51-10.692Z" transform="translate(-556.252 -214.508)" fill="#ffbe9d"/>
    <path id="Trazado_605147" data-name="Trazado 605147" d="M925.948,308.2s.056-1.008-2.569-1.152a26.981,26.981,0,0,0-2.921-.1,6.673,6.673,0,0,1-1.256-2.433,7.359,7.359,0,0,1,.56-2.473l2.657-.248-.72-1.809-1.873.128-5.29.632-2.1,9.267-14.446,26.97a6.962,6.962,0,0,0,2.761,10.14c3.738,1.809,8.739-2.025,10.124-5.938l8-30,2.809-2.2,4.034-.736" transform="translate(-495.265 -165.309)" fill="#ffbe9d"/>
    <path id="Trazado_605148" data-name="Trazado 605148" d="M888.3,557.588l19.671-113.17h-.024c.04-.176.08-.336.12-.5V443.9c3.345-13.277,8.507-17.526,8.507-17.526l30.109,1.889c2.558,4.6,2.88,15.638,2.88,15.638.353,1.353-6.363,111.018-6.363,111.018l-10.067-.28-5.458-103.75-29.3,107.136-10.083-.432Z" transform="translate(-490.556 -235.179)" fill="#ffbe9d"/>
    <path id="Trazado_605149" data-name="Trazado 605149" d="M879.086,720.838l.04-1.025,10.356.3-.088,3.369-.64.024c-2.849.072-14.493.168-16.382-.416-2.1-.656,6.715-2.257,6.715-2.257Z" transform="translate(-481.575 -397.413)" fill="#304c8e"/>
    <g id="Grupo_1014660" data-name="Grupo 1014660" transform="translate(404.081 323.239)" opacity="0.6">
      <path id="Trazado_605150" data-name="Trazado 605150" d="M902.483,724.347a3.289,3.289,0,0,1,1.377-2.009,3.667,3.667,0,0,1,2.433-.632l-.08,2.681Z" transform="translate(-902.483 -721.688)" fill="#fff"/>
    </g>
    <g id="Grupo_1014661" data-name="Grupo 1014661" transform="translate(390.438 324.345)" opacity="0.6">
      <path id="Trazado_605151" data-name="Trazado 605151" d="M874.73,724.163s-3.1.745-2.729,1.225,12.14.792,17.342.5v-.216l-13.741-.256S875.33,724.2,874.73,724.163Z" transform="translate(-871.971 -724.163)" fill="#fff"/>
    </g>
    <path id="Trazado_605152" data-name="Trazado 605152" d="M889.551,726.991s-.064.008-.176.016c-.152,0-.32.008-.512.016-.512,0-1.137.016-1.873.024-1.585.008-3.769,0-6.186-.064s-4.6-.16-6.186-.256q-1.1-.072-1.873-.12c-.192-.016-.352-.032-.512-.04-.12-.008-.176-.016-.176-.024h.176c.152,0,.32.016.512.016.512.024,1.137.048,1.873.088,1.584.072,3.769.16,6.186.224s4.6.088,6.186.1c.736,0,1.369.008,1.873.008h.512a.572.572,0,0,1,.176.008Z" transform="translate(-481.58 -401.133)" fill="#263238"/>
    <path id="Trazado_605153" data-name="Trazado 605153" d="M878.923,725.428a2.3,2.3,0,0,0-.328-.841,3.886,3.886,0,0,0-.617-.68,1.323,1.323,0,0,1,.728.624A1.194,1.194,0,0,1,878.923,725.428Z" transform="translate(-484.854 -399.675)" fill="#263238"/>
    <path id="Trazado_605154" data-name="Trazado 605154" d="M886.35,723.287a2.094,2.094,0,0,1-.312-.376c-.144-.224-.24-.416-.208-.432s.168.152.312.377S886.383,723.271,886.35,723.287Z" transform="translate(-489.192 -398.886)" fill="#263238"/>
    <path id="Trazado_605155" data-name="Trazado 605155" d="M888.1,722.724a1.592,1.592,0,0,1-.36-.232c-.176-.152-.3-.3-.272-.32s.184.08.36.232S888.12,722.7,888.1,722.724Z" transform="translate(-490.097 -398.715)" fill="#263238"/>
    <path id="Trazado_605156" data-name="Trazado 605156" d="M888.808,721.343a2.349,2.349,0,0,1-.536.048.271.271,0,1,1,0-.112A1.392,1.392,0,0,1,888.808,721.343Z" transform="translate(-490.249 -398.222)" fill="#263238"/>
    <path id="Trazado_605157" data-name="Trazado 605157" d="M889.067,719.987a1.485,1.485,0,0,1-.608.144,1.069,1.069,0,0,1-.616-.1,4.905,4.905,0,0,1,.608-.024,3.4,3.4,0,0,1,.608-.032Z" transform="translate(-490.308 -397.499)" fill="#263238"/>
    <path id="Trazado_605158" data-name="Trazado 605158" d="M883.875,721.287a2.827,2.827,0,0,1-.664-.024,5.319,5.319,0,0,1-.7-.16,1.846,1.846,0,0,1-.4-.168.351.351,0,0,1-.16-.192.233.233,0,0,1,.1-.24,1.261,1.261,0,0,1,1.489.368,1.009,1.009,0,0,1,.2.416.527.527,0,0,1,.016.168,1.733,1.733,0,0,0-.288-.536,1.233,1.233,0,0,0-.552-.36,1.085,1.085,0,0,0-.792.032c-.1.072-.072.184.048.256a1.893,1.893,0,0,0,.368.16,4.9,4.9,0,0,0,.68.184c.392.072.648.08.648.1Z" transform="translate(-487.046 -397.734)" fill="#263238"/>
    <path id="Trazado_605159" data-name="Trazado 605159" d="M885.784,721a.641.641,0,0,1-.064-.432,1.07,1.07,0,0,1,.192-.448.656.656,0,0,1,.56-.3.238.238,0,0,1,.192.288.7.7,0,0,1-.12.272,1.884,1.884,0,0,1-.328.368,1.051,1.051,0,0,1-.384.24c-.008-.016.136-.1.32-.3a1.941,1.941,0,0,0,.288-.36c.1-.128.168-.36,0-.392a.625.625,0,0,0-.448.248.954.954,0,0,0-.2.392,2.6,2.6,0,0,0-.024.416Z" transform="translate(-489.13 -397.42)" fill="#263238"/>
    <path id="Trazado_605160" data-name="Trazado 605160" d="M906.252,721.554a4.739,4.739,0,0,0-.761,0,3.411,3.411,0,0,0-1.68.592,3.186,3.186,0,0,0-1.081,1.336c-.168.408-.192.68-.216.68a1.19,1.19,0,0,1,0-.192,2.256,2.256,0,0,1,.128-.512,3.007,3.007,0,0,1,1.088-1.4,3.338,3.338,0,0,1,1.752-.584,2.337,2.337,0,0,1,.568.032A.77.77,0,0,1,906.252,721.554Z" transform="translate(-498.418 -398.33)" fill="#263238"/>
    <path id="Trazado_605161" data-name="Trazado 605161" d="M895.907,725.388a9.166,9.166,0,0,1-1.513.1,6.267,6.267,0,0,1-1.5-.152c0-.032.68.024,1.5.032s1.5-.016,1.5.016Z" transform="translate(-493.099 -400.458)" fill="#263238"/>
    <path id="Trazado_605162" data-name="Trazado 605162" d="M903.778,725.572s-.056.128-.136.272-.112.264-.152.264-.048-.152.04-.312S903.754,725.548,903.778,725.572Z" transform="translate(-498.945 -400.594)" fill="#263238"/>
    <path id="Trazado_605163" data-name="Trazado 605163" d="M905.429,723.655a.661.661,0,0,1-.152.216c-.112.1-.216.16-.24.136s.048-.12.152-.216S905.405,723.631,905.429,723.655Z" transform="translate(-499.812 -399.534)" fill="#263238"/>
    <path id="Trazado_605164" data-name="Trazado 605164" d="M907.663,722.744a2.393,2.393,0,0,0-.3.072c-.152.04-.264.12-.288.1s.064-.152.256-.208.344.008.336.04Z" transform="translate(-500.941 -398.999)" fill="#263238"/>
    <path id="Trazado_605165" data-name="Trazado 605165" d="M909.74,722.419a.253.253,0,0,1-.136.1c-.088.032-.168.024-.176,0s.048-.08.136-.1S909.732,722.395,909.74,722.419Z" transform="translate(-502.241 -398.841)" fill="#263238"/>
    <path id="Trazado_605166" data-name="Trazado 605166" d="M1000.91,325.479a19.818,19.818,0,0,1,7.968,3.137c9.524,6.17,25.442,19.223,24.123,25.265-1.122,5.146-13.539,11.388-13.539,11.388l-8.071-9.7,4.945-2.825-12.153-8.083Z" transform="translate(-552.819 -179.4)" fill="#263238"/>
    <path id="Trazado_605167" data-name="Trazado 605167" d="M948.365,344.415l-.394,1.448-1.4,6.69-.344,9.8c7.221,9.3,7.333,17.126,7.333,17.126l-36.471,4.258c0-7.2,2.633-16.278,2.633-16.278,2.113-3.578,2.009-14.286,1.617-14.678-2.281-2.257-2.833-3.913-1.009-6.8,0,0-11.308,11.876-12.468,12.941-3.993,3.666-7.835,2.641-9.62,1.049-4.994-4.458.136-10.2.136-10.2l19.047-21.824a9.5,9.5,0,0,1,4.946-3.017,40.984,40.984,0,0,1,4.081-.72l12.717.112a21.456,21.456,0,0,1,3.784.464,9.1,9.1,0,0,1,5.553,6.883c1.136,5.466-.125,12.765-.125,12.765Z" transform="translate(-494.85 -178.697)" fill="#263238"/>
    <path id="Trazado_605168" data-name="Trazado 605168" d="M1010.75,349.856s.054.376.076,1.057,0,1.664-.072,2.881a76.849,76.849,0,0,1-1.256,9.427c-.237,1.248-.487,2.441-.751,3.553v-.04c-.1,2.833-.215,5.282-.313,7.027-.045.808-.094,1.489-.125,2.041a.372.372,0,1,1-.139,0c0-.552,0-1.232.018-2.041.022-1.745.089-4.194.174-7.027v-.04c.255-1.1.505-2.3.738-3.537.7-3.633,1.154-6.955,1.368-9.372.112-1.209.17-2.185.2-2.865a4.555,4.555,0,0,1,.085-1.056Z" transform="translate(-556.833 -192.877)" fill="#263c71"/>
    <path id="Trazado_605169" data-name="Trazado 605169" d="M1014.2,371.777a75.8,75.8,0,0,1,6.662,4.354,73.793,73.793,0,0,1,6.416,4.7,151.578,151.578,0,0,1-13.079-9.051Z" transform="translate(-560.165 -204.994)" fill="#263c71"/>
    <path id="Trazado_605170" data-name="Trazado 605170" d="M950.777,339.815a1.1,1.1,0,0,1,.184.144,3.29,3.29,0,0,1,.456.5,5.429,5.429,0,0,1,.985,2.257,7.465,7.465,0,0,1-.208,3.657,14.95,14.95,0,0,1-2.049,3.978,14.2,14.2,0,0,1-1.5,1.768c-.528.536-1.1.985-1.592,1.433-1.009.9-1.881,1.761-2.6,2.5s-1.289,1.336-1.681,1.761a4.294,4.294,0,0,1-.64.632,3.616,3.616,0,0,1,.512-.736c.36-.456.888-1.1,1.585-1.857s1.553-1.649,2.553-2.577c.5-.472,1.057-.92,1.56-1.44a14.63,14.63,0,0,0,1.457-1.721,15.228,15.228,0,0,0,2.017-3.849,7.337,7.337,0,0,0,.28-3.481,6.592,6.592,0,0,0-1.336-2.953Z" transform="translate(-520.318 -187.326)" fill="#263c71"/>
    <path id="Trazado_605171" data-name="Trazado 605171" d="M951.99,405.861l.416-4.906H977.28l-.139,3.833Z" transform="translate(-525.773 -221.128)" fill="#263c71"/>
    <path id="Trazado_605172" data-name="Trazado 605172" d="M900.5,379.209c.048.064-.632.472-1.377,1.441a6.63,6.63,0,0,0,.352,8.691,18.854,18.854,0,0,0,1.489,1.32c-.008.024-.2-.04-.512-.208a5.682,5.682,0,0,1-1.193-.9,6.741,6.741,0,0,1-2.009-4.466,6.81,6.81,0,0,1,1.633-4.618,5.706,5.706,0,0,1,1.12-1c.3-.192.472-.272.488-.248Z" transform="translate(-495.508 -209.105)" fill="#263c71"/>
    <path id="Trazado_605173" data-name="Trazado 605173" d="M998.679,713.5l2.817,6.563-12.622-.144-.264-6.69Z" transform="translate(-546.019 -393.772)" fill="#304c8e"/>
    <path id="Trazado_605174" data-name="Trazado 605174" d="M988.986,725.4s.672.072,1.769.088,2.6.016,4.265-.016c1.592-.032,3.027-.064,4.257-.088a15.339,15.339,0,0,0,1.771-.088,11.642,11.642,0,0,0-1.771-.088c-1.1-.016-2.6-.008-4.266.016-1.583.032-3.024.064-4.256.088A11.79,11.79,0,0,0,988.986,725.4Z" transform="translate(-546.227 -400.391)" fill="#263238"/>
    <path id="Trazado_605175" data-name="Trazado 605175" d="M1000.634,713.514a8.936,8.936,0,0,0-.054,2.665,9.306,9.306,0,0,0,.344,2.641,8.946,8.946,0,0,0,.054-2.665A9.124,9.124,0,0,0,1000.634,713.514Z" transform="translate(-552.61 -393.93)" fill="#263238"/>
    <path id="Trazado_605176" data-name="Trazado 605176" d="M1001.687,726.818l-12.62-.416-.08-1.2,12.061.1.64,1.376" transform="translate(-546.227 -400.391)" fill="#fff" opacity="0.6"/>
    <path id="Trazado_605177" data-name="Trazado 605177" d="M942.273,420.323c9.5,29.971-2.745,66.353.192,101.278.286,3.433,1.681,7.539-1.529,9.491a5.225,5.225,0,0,1-2.9.7c-2.562-.088-4.7-1.417-6.994-2.329a20.783,20.783,0,0,0-13.765-.536c-3.033.944-6.035,2.617-9.172,2.136-4.17-.632-6.867-4.745-10.708-6.5-3.593-1.633-7.739-1.024-11.684-1.121h-.12a8.847,8.847,0,0,1-8.171-11.212c5.73-20.992,24.745-89.2,33.165-101.654l25.16-1.073c2.321,2.8,5.3,6.986,6.524,10.8Z" transform="translate(-484.372 -225.858)" fill="#304c8e"/>
    <path id="Trazado_605178" data-name="Trazado 605178" d="M988.946,465.245a11.413,11.413,0,0,1-1.368,1.721,40.018,40.018,0,0,1-3.715,3.793,24.956,24.956,0,0,1-4.386,3.017,10.5,10.5,0,0,1-2,.928,61.433,61.433,0,0,0,6.106-4.258c1.545-1.345,2.825-2.713,3.769-3.681a11.868,11.868,0,0,1,1.586-1.52Z" transform="translate(-539.862 -256.67)" fill="#263238"/>
    <g id="Grupo_1014662" data-name="Grupo 1014662" transform="translate(423.13 219.883)" opacity="0.1">
      <path id="Trazado_605179" data-name="Trazado 605179" d="M959.93,490.537a107.212,107.212,0,0,0-4.218,64.152c.448,1.833.913,3.914-.128,5.482-1.353,2.033-4.618,1.9-6.466.3s-2.585-4.114-3.049-6.506c-3.457-17.879,2.8-35.854,9.563-52.764" transform="translate(-945.087 -490.537)"/>
    </g>
    <path id="Trazado_605180" data-name="Trazado 605180" d="M600.154,513.124h-47.69v2.321h47.69Z" transform="translate(-304.89 -283.142)" fill="#263238"/>
    <path id="Trazado_605181" data-name="Trazado 605181" d="M524.881,476.873l-8.947-33.517h37.238l8.1,33.517Z" transform="translate(-284.694 -244.57)" fill="#263238"/>
    <path id="Trazado_605182" data-name="Trazado 605182" d="M561.63,476.246H528.37l-7.747-29.435h33.436Z" transform="translate(-287.286 -246.48)" fill="#f5f5f5"/>
    <path id="Trazado_605183" data-name="Trazado 605183" d="M521.193,448.924h33.445l-.56-2.113H520.641l.56,2.113Z" transform="translate(-287.296 -246.48)" fill="#ebebeb"/>
    <path id="Trazado_605184" data-name="Trazado 605184" d="M529.948,448.718a.367.367,0,0,0,.368.368.368.368,0,1,0-.368-.368Z" transform="translate(-292.441 -247.331)" fill="#fafafa"/>
    <path id="Trazado_605185" data-name="Trazado 605185" d="M527.137,448.718a.367.367,0,0,0,.368.368.368.368,0,1,0-.368-.368Z" transform="translate(-290.887 -247.331)" fill="#fafafa"/>
    <path id="Trazado_605186" data-name="Trazado 605186" d="M524.328,448.718a.367.367,0,0,0,.368.368.368.368,0,1,0-.368-.368Z" transform="translate(-289.334 -247.331)" fill="#fafafa"/>
    <path id="Trazado_605187" data-name="Trazado 605187" d="M570.774,473.788l3.666,4.186a5.166,5.166,0,0,0,2.249-4.21c-.008-2.929-2.689-5.33-5.93-5.314s-5.9,2.433-5.89,5.362l5.914-.024Z" transform="translate(-311.747 -258.443)" fill="#304c8e"/>
    <path id="Trazado_605188" data-name="Trazado 605188" d="M569.706,481.789s.392.344,1.048,1.048,1.593,1.729,2.705,2.977l.128.144-.16.12a6.338,6.338,0,0,1-6.17.608,6.064,6.064,0,0,1-2.537-2.041,5.289,5.289,0,0,1-.944-2.753v-.184h.176c1.752-.008,3.2,0,4.209.016a9.67,9.67,0,0,1,1.552.072,10.9,10.9,0,0,1-1.608.128c-1.008.048-2.433.1-4.138.144l.176-.184a4.906,4.906,0,0,0,.913,2.537,5.765,5.765,0,0,0,2.376,1.889,6.063,6.063,0,0,0,5.8-.512l-.032.256c-1.064-1.24-1.937-2.289-2.545-3.033a12.021,12.021,0,0,1-.944-1.225Z" transform="translate(-311.144 -265.772)" fill="#263238"/>
    <path id="Trazado_605189" data-name="Trazado 605189" d="M571.688,472.9a.332.332,0,1,0,.328-.336A.331.331,0,0,0,571.688,472.9Z" transform="translate(-315.518 -260.719)" fill="#263238"/>
    <path id="Trazado_605190" data-name="Trazado 605190" d="M556.957,467.671a19.166,19.166,0,0,1,3.954-.224h.616l.056.056a15.828,15.828,0,0,1,2.289,2.561,15.9,15.9,0,0,1-2.577-2.265l.144.056h-.528a18,18,0,0,1-3.954-.192Z" transform="translate(-307.374 -257.889)" fill="#263238"/>
    <path id="Trazado_605191" data-name="Trazado 605191" d="M538.571,469.733s-.152-.528-.376-1.544-.545-2.5-.9-4.322l-.04-.2h.208c2.353-.024,5.2-.048,8.275-.072-.04-.04.392.32.208.168v.048l.016.048.016.1.04.2.072.392c.048.264.1.52.144.776.1.512.192,1.016.28,1.513.184.985.352,1.929.52,2.825l.04.224h-.224c-2.489,0-4.578-.04-6.026-.064q-1-.024-1.68-.048a2.325,2.325,0,0,1-.568-.048,3.91,3.91,0,0,1,.64-.048c.464-.016,1.032-.032,1.713-.056,1.464-.04,3.505-.088,5.922-.112l-.184.224c-.176-.888-.36-1.832-.552-2.817q-.144-.745-.288-1.513c-.048-.256-.1-.512-.144-.776l-.072-.392-.04-.2-.016-.1v-.048l-.016-.024v-.016c-.184-.16.248.192.208.16h-8.275l.168-.2c.312,1.76.552,3.225.72,4.257a14.748,14.748,0,0,1,.232,1.673Z" transform="translate(-296.478 -255.758)" fill="#263238"/>
    <path id="Trazado_605192" data-name="Trazado 605192" d="M570.578,487.812a.332.332,0,1,0,.328-.336A.331.331,0,0,0,570.578,487.812Z" transform="translate(-314.904 -268.962)" fill="#263238"/>
    <path id="Trazado_605193" data-name="Trazado 605193" d="M557.878,487.986a21.386,21.386,0,0,1,6.01-.024,10.8,10.8,0,0,1-3.009.224,11.028,11.028,0,0,1-3.009-.2Z" transform="translate(-307.878 -269.12)" fill="#263238"/>
    <path id="Trazado_605194" data-name="Trazado 605194" d="M538.663,488.424s-.144-.368-.36-1.1-.528-1.825-.9-3.185l-.048-.192h.2c2.257-.048,5.25-.072,8.531-.088-.184-.136.248.192.2.16v.032l.016.032.016.072.04.144.072.288.144.56c.1.376.192.745.28,1.1.184.72.36,1.425.528,2.1l.064.248H547.2c-2.529,0-4.69-.032-6.194-.064-.688-.016-1.264-.032-1.745-.048a2.531,2.531,0,0,1-.592-.048,4.748,4.748,0,0,1,.672-.056c.488-.016,1.08-.04,1.784-.064,1.513-.04,3.625-.088,6.082-.112l-.192.248c-.176-.672-.36-1.368-.544-2.089q-.144-.541-.288-1.1l-.144-.56-.072-.288-.04-.144-.016-.072v-.032l-.016-.016v-.016c-.048-.04.384.3.2.152-3.281.016-6.282,0-8.531-.016l.152-.192c.32,1.312.56,2.385.728,3.145a8.049,8.049,0,0,1,.232,1.224Z" transform="translate(-296.538 -266.942)" fill="#263238"/>
    <path id="Trazado_605195" data-name="Trazado 605195" d="M541.672,467.914a19.386,19.386,0,0,1,5.666-.016,9.436,9.436,0,0,1-2.833.216A9.8,9.8,0,0,1,541.672,467.914Z" transform="translate(-298.923 -258.028)" fill="#263238"/>
    <path id="Trazado_605196" data-name="Trazado 605196" d="M541.833,469.99a19.581,19.581,0,0,1,5.7-.016,9.546,9.546,0,0,1-2.849.216A9.931,9.931,0,0,1,541.833,469.99Z" transform="translate(-299.012 -259.175)" fill="#263238"/>
    <path id="Trazado_605197" data-name="Trazado 605197" d="M542.208,471.995a9.2,9.2,0,0,1,2.745-.216,9.308,9.308,0,0,1,2.753.2,9.189,9.189,0,0,1-2.745.216A9.282,9.282,0,0,1,542.208,471.995Z" transform="translate(-299.22 -260.284)" fill="#263238"/>
    <path id="Trazado_605198" data-name="Trazado 605198" d="M542.048,487.835a17.59,17.59,0,0,1,5.394-.016,17.6,17.6,0,0,1-5.394.016Z" transform="translate(-299.131 -269.041)" fill="#263238"/>
    <path id="Trazado_605199" data-name="Trazado 605199" d="M542.8,490.126a6.514,6.514,0,0,1,2.3-.216,6.761,6.761,0,0,1,2.3.2,6.512,6.512,0,0,1-2.3.216A6.759,6.759,0,0,1,542.8,490.126Z" transform="translate(-299.546 -270.308)" fill="#263238"/>
    <path id="Trazado_605200" data-name="Trazado 605200" d="M426.174,518.064v4.4h2.881v89h5.906v-89h31.348v89h5.906v-89H608.21v88.977h5.906V522.466h2.561v-4.4Z" transform="translate(-235.069 -285.873)" fill="#263238"/>
    <path id="Trazado_605201" data-name="Trazado 605201" d="M712.618,592.036a46.17,46.17,0,0,0,7.683,0,46.187,46.187,0,0,0-7.683,0Z" transform="translate(-393.433 -326.681)" fill="#263238"/>
    <path id="Trazado_605202" data-name="Trazado 605202" d="M587.234,594.018c.115,0,.208-.047.208-.1s-.093-.1-.208-.1-.208.047-.208.1S587.119,594.018,587.234,594.018Z" transform="translate(-323.998 -327.75)" fill="#263c71"/>
    <path id="Trazado_605203" data-name="Trazado 605203" d="M630.182,375.06l-22.064-22.417-.48-2.425c-.088-.44-.184-.936-.272-1.5a6.057,6.057,0,0,1,.032-1.976,8.906,8.906,0,0,1,.68-2.353c.368-.648-.224-1.432-.84-1.16s-1.681,2.033-1.913,4.45-2.3-.792-3.065-1.945-3.329-4.626-3.857-4.665c-.784-.064-.985.784-.184,1.92.808,1.153,2.961,4.722,2.345,5.106h-.024a2.885,2.885,0,0,0-3.049,1.5c-.56,1.073-1.176,2.585-.672,3.289a39.762,39.762,0,0,0,3.521,3.73l.737.632S620.163,384.9,624.324,385.8c2.585.56,42.584,3.874,42.584,3.874l3.017-11.02-39.759-3.6Z" transform="translate(-329.308 -188.014)" fill="#b78876"/>
    <path id="Trazado_605204" data-name="Trazado 605204" d="M596.709,364.544l2.041,1.961a2.37,2.37,0,0,0,.768.56.831.831,0,0,0,.888-.144.81.81,0,0,0,.12-.816,2.536,2.536,0,0,0-.472-.728c-.664-.792-1.321-1.593-1.985-2.385" transform="translate(-329.351 -200.139)" fill="#b78876"/>
    <path id="Trazado_605205" data-name="Trazado 605205" d="M598.054,362.989c.048-.04.424.344,1.008.984.328.368.664.753,1.008,1.145a3.656,3.656,0,0,1,.56.76,1.085,1.085,0,0,1-.056,1.137,1,1,0,0,1-1.121.256,2.261,2.261,0,0,1-.8-.56c-.368-.376-.72-.736-1.072-1.088a4.745,4.745,0,0,1-.913-1.08,4.906,4.906,0,0,1,1.112.864c.368.328.745.672,1.129,1.024a1.976,1.976,0,0,0,.664.456.613.613,0,0,0,.656-.128.694.694,0,0,0,.016-.7,3.884,3.884,0,0,0-.488-.689c-.32-.416-.632-.808-.936-1.2a4.461,4.461,0,0,1-.784-1.176Z" transform="translate(-329.327 -200.136)" fill="#aa6550"/>
    <path id="Trazado_605206" data-name="Trazado 605206" d="M599.949,361.359c.68.656,1.36,1.3,2.041,1.961a2.377,2.377,0,0,0,.768.56.833.833,0,0,0,.888-.144.811.811,0,0,0,.12-.816,2.533,2.533,0,0,0-.472-.728c-.664-.792-1.32-1.592-1.985-2.385" transform="translate(-331.142 -198.379)" fill="#b78876"/>
    <path id="Trazado_605207" data-name="Trazado 605207" d="M601.294,359.8c.048-.04.424.344,1.008.985.328.368.664.752,1.008,1.144a3.673,3.673,0,0,1,.56.76,1.068,1.068,0,0,1-.056,1.137,1,1,0,0,1-1.121.256,2.268,2.268,0,0,1-.8-.56c-.368-.376-.72-.736-1.072-1.088a4.729,4.729,0,0,1-.913-1.081,4.951,4.951,0,0,1,1.112.864c.368.328.744.672,1.129,1.024a1.973,1.973,0,0,0,.664.457.613.613,0,0,0,.656-.128.694.694,0,0,0,.016-.7,3.874,3.874,0,0,0-.488-.688c-.32-.416-.632-.808-.936-1.2a4.43,4.43,0,0,1-.784-1.176Z" transform="translate(-331.119 -198.375)" fill="#aa6550"/>
    <path id="Trazado_605208" data-name="Trazado 605208" d="M603.493,358.746c.68.656,1.36,1.3,2.041,1.961a2.37,2.37,0,0,0,.768.56.832.832,0,0,0,.888-.144.81.81,0,0,0,.12-.816,2.529,2.529,0,0,0-.472-.728c-.664-.792-1.32-1.593-1.985-2.385" transform="translate(-333.102 -196.934)" fill="#b78876"/>
    <path id="Trazado_605209" data-name="Trazado 605209" d="M604.837,357.19c.048-.04.424.344,1.008.984.328.368.664.753,1.008,1.145a3.659,3.659,0,0,1,.56.76,1.084,1.084,0,0,1-.056,1.137,1,1,0,0,1-1.12.256,2.271,2.271,0,0,1-.8-.56l-1.072-1.089a4.723,4.723,0,0,1-.912-1.08,4.94,4.94,0,0,1,1.112.864c.368.328.744.673,1.129,1.024a1.974,1.974,0,0,0,.664.456.612.612,0,0,0,.656-.128.693.693,0,0,0,.016-.7,3.848,3.848,0,0,0-.488-.688c-.32-.416-.632-.808-.936-1.2a4.447,4.447,0,0,1-.784-1.176Z" transform="translate(-333.078 -196.93)" fill="#aa6550"/>
    <path id="Trazado_605210" data-name="Trazado 605210" d="M610.7,364.122c0-.064.5-.168,1.24.056l-.232.2a3.492,3.492,0,0,1-.056-1.4,3.559,3.559,0,0,1,.768-1.7c.312-.368.576-.512.616-.472a7.369,7.369,0,0,0-.969,2.249,4.2,4.2,0,0,0-.016,1.265l.04.32-.28-.12c-.64-.272-1.121-.312-1.121-.392Z" transform="translate(-337.08 -198.925)" fill="#aa6550"/>
    <path id="Trazado_605211" data-name="Trazado 605211" d="M711.641,337.264l.1,30.7-11.972.568-.488-7.363s-5.778.88-6.979-3.465c-.769-2.777-.576-24.225-.576-24.225l19.919,3.777Z" transform="translate(-381.868 -183.823)" fill="#b78876"/>
    <path id="Trazado_605212" data-name="Trazado 605212" d="M684.455,330.568c.888,1.833,5.114,5.194,5.114,5.194l1.9,5.114c1.657-1.3,3.882-1.224,4.305,1.689.3,2.1-2.312,2.529-2.312,2.529a38.057,38.057,0,0,0,4.778,7.155c2.4,2.673,3.746,2.937,6.354,2.985h2.873s5.874-4.914,4.714-17.839-12.789-9.155-15.566-12.388c-4.522-5.266-15.126-.56-12.165,5.57Z" transform="translate(-377.578 -177.879)" fill="#263238"/>
    <path id="Trazado_605213" data-name="Trazado 605213" d="M712.3,354.319a4.142,4.142,0,0,1-1.425-.064,7.351,7.351,0,0,1-3.434-1.769,18.7,18.7,0,0,1-3.465-4.586c-1.12-1.824-2.337-3.961-4.4-5.378-2.081-1.393-4.529-1.681-6.634-2.105a12.513,12.513,0,0,1-5.354-2.041,5.739,5.739,0,0,1-2.145-3.177,3.165,3.165,0,0,1-.056-1.417,5.168,5.168,0,0,0,.12,1.408,5.731,5.731,0,0,0,2.153,3.1,12.585,12.585,0,0,0,5.314,1.985c2.1.424,4.57.7,6.7,2.121a16.483,16.483,0,0,1,4.434,5.442,18.831,18.831,0,0,0,3.417,4.578,7.512,7.512,0,0,0,3.37,1.793,5.613,5.613,0,0,0,1.04.12h.368Z" transform="translate(-378.349 -183.991)" fill="#263c71"/>
    <path id="Trazado_605214" data-name="Trazado 605214" d="M713.163,341.694l-.616-.184a8.931,8.931,0,0,0-1.8-.4,4.024,4.024,0,0,0-2.769.624,2.262,2.262,0,0,0-.96,1.456,2.035,2.035,0,0,0,.56,1.833,1.558,1.558,0,0,0,.968.384,2.052,2.052,0,0,0,1.065-.288,3.256,3.256,0,0,0,1.448-1.849,4.584,4.584,0,0,0-3.865-6.01,7.976,7.976,0,0,0-2.977.392,20.111,20.111,0,0,1-3.081.736,12.39,12.39,0,0,1-3.265.008,10.85,10.85,0,0,1-3.153-.872,3.794,3.794,0,0,1-2.153-2.273,2.962,2.962,0,0,1,.728-2.9,2.551,2.551,0,0,1,2.809-.416,2.109,2.109,0,0,1,1.04.985,2.355,2.355,0,0,1,.224,1.376,3.116,3.116,0,0,1-1.4,2.193,4.5,4.5,0,0,1-2.369.656,7.016,7.016,0,0,1-2.241-.344,7.984,7.984,0,0,1-3.3-2.033,8.51,8.51,0,0,1-1.68-2.4,8.316,8.316,0,0,1-.593-1.761c-.072-.416-.1-.64-.1-.64s.048.216.136.632a8.688,8.688,0,0,0,.624,1.737,8.53,8.53,0,0,0,1.689,2.361,7.9,7.9,0,0,0,3.265,1.985,6.845,6.845,0,0,0,2.209.328,4.321,4.321,0,0,0,2.289-.648,2.985,2.985,0,0,0,1.328-2.1,2.059,2.059,0,0,0-1.184-2.2,2.4,2.4,0,0,0-2.641.392,2.819,2.819,0,0,0-.689,2.737,3.663,3.663,0,0,0,2.073,2.169,10.647,10.647,0,0,0,3.1.856,12.76,12.76,0,0,0,3.225,0,20.517,20.517,0,0,0,3.057-.736,8.037,8.037,0,0,1,3.033-.392,4.729,4.729,0,0,1,3.978,6.21,3.371,3.371,0,0,1-1.513,1.912,2.225,2.225,0,0,1-1.137.3,1.7,1.7,0,0,1-1.04-.416,2.131,2.131,0,0,1-.584-1.937,2.366,2.366,0,0,1,1.016-1.512,4.128,4.128,0,0,1,2.833-.609,9.1,9.1,0,0,1,1.809.432C712.955,341.614,713.163,341.694,713.163,341.694Z" transform="translate(-378.54 -181.883)" fill="#263c71"/>
    <path id="Trazado_605215" data-name="Trazado 605215" d="M707.336,694.846l-3.913-5.018,9.355-7.387,5.8,7.282-.552.5c-2.465,2.185-12.709,10.924-14.846,11.765-2.385.936,4.153-7.131,4.153-7.131Z" transform="translate(-387.927 -376.752)" fill="#304c8e"/>
    <g id="Grupo_1014663" data-name="Grupo 1014663" transform="translate(314.743 312.765)" opacity="0.4">
      <path id="Trazado_605216" data-name="Trazado 605216" d="M704.269,707.675s-2.153,3-1.441,3.185,11.388-8.259,15.774-12.4l-.184-.2-12.373,9.956s-1.216-.961-1.776-.552Z" transform="translate(-702.684 -698.264)" fill="#fff"/>
    </g>
    <path id="Trazado_605217" data-name="Trazado 605217" d="M718.592,697.992a2,2,0,0,1-.144.144c-.128.12-.28.248-.44.392-.448.384-.992.856-1.641,1.417-1.392,1.184-3.345,2.8-5.538,4.537s-4.209,3.265-5.682,4.346c-.689.5-1.281.928-1.753,1.273q-.264.192-.48.336c-.112.072-.168.112-.176.112a2.1,2.1,0,0,1,.16-.136c.144-.112.3-.224.464-.36.472-.352,1.049-.792,1.729-1.313,1.457-1.1,3.465-2.649,5.658-4.377s4.146-3.337,5.562-4.506c.656-.544,1.216-1.008,1.673-1.384.168-.136.32-.264.456-.376.1-.08.16-.128.168-.12Z" transform="translate(-387.971 -385.339)" fill="#263238"/>
    <path id="Trazado_605218" data-name="Trazado 605218" d="M707.926,719.848a3.015,3.015,0,0,0-.96-.56,4.6,4.6,0,0,0-1.1-.192,1.93,1.93,0,0,1,2.057.752Z" transform="translate(-389.702 -396.975)" fill="#263238"/>
    <path id="Trazado_605219" data-name="Trazado 605219" d="M712.79,712.35a2.249,2.249,0,0,1-.576-.128c-.3-.1-.545-.224-.529-.264s.272.016.576.128S712.807,712.31,712.79,712.35Z" transform="translate(-392.917 -393.063)" fill="#263238"/>
    <path id="Trazado_605220" data-name="Trazado 605220" d="M713.905,710.478a1.881,1.881,0,0,1-.5.04c-.272-.016-.5-.064-.5-.1s.224-.056.5-.04S713.905,710.438,713.905,710.478Z" transform="translate(-393.592 -392.191)" fill="#263238"/>
    <path id="Trazado_605221" data-name="Trazado 605221" d="M713.459,707.8a2.567,2.567,0,0,1-.44.448c-.264.216-.5.368-.528.336s.168-.233.44-.449S713.435,707.766,713.459,707.8Z" transform="translate(-393.361 -390.768)" fill="#263238"/>
    <path id="Trazado_605222" data-name="Trazado 605222" d="M712.637,706.121a1.809,1.809,0,0,1-.416.592,1.248,1.248,0,0,1-.624.368c-.024-.04.24-.216.52-.472s.48-.5.52-.48Z" transform="translate(-392.867 -389.843)" fill="#263238"/>
    <path id="Trazado_605223" data-name="Trazado 605223" d="M709.234,711.329a2.955,2.955,0,0,1-.6.472,4.145,4.145,0,0,1-.752.368,2.068,2.068,0,0,1-.488.136.466.466,0,0,1-.3-.072.3.3,0,0,1-.1-.312,1.4,1.4,0,0,1,1.617-.752,1.32,1.32,0,0,1,.512.248c.1.08.152.144.144.153a2.009,2.009,0,0,0-.68-.3,1.341,1.341,0,0,0-.776.072,1.2,1.2,0,0,0-.68.617c-.04.144.088.232.24.208a2.846,2.846,0,0,0,.448-.12,5.11,5.11,0,0,0,.744-.328c.408-.225.64-.4.656-.385Z" transform="translate(-390.321 -392.61)" fill="#263238"/>
    <path id="Trazado_605224" data-name="Trazado 605224" d="M710.983,709.874a.864.864,0,0,1-.4-.36,1.289,1.289,0,0,1-.184-.568.776.776,0,0,1,.256-.7.313.313,0,0,1,.408.128.865.865,0,0,1,.112.352,2.05,2.05,0,0,1,0,.584,1.015,1.015,0,0,1-.152.512c-.024,0,.032-.2.048-.52a3.567,3.567,0,0,0-.032-.56c-.016-.192-.144-.464-.312-.377a.674.674,0,0,0-.192.568,1.282,1.282,0,0,0,.136.528A2.855,2.855,0,0,0,710.983,709.874Z" transform="translate(-392.206 -390.995)" fill="#263238"/>
    <path id="Trazado_605225" data-name="Trazado 605225" d="M730.863,692.616a4.474,4.474,0,0,0-.672.568A3.781,3.781,0,0,0,729.174,695a3.859,3.859,0,0,0,.112,2.073c.176.512.377.792.352.809a1.007,1.007,0,0,1-.152-.192,3.2,3.2,0,0,1-.3-.584,3.634,3.634,0,0,1,.936-4,3.031,3.031,0,0,1,.528-.392.7.7,0,0,1,.216-.1Z" transform="translate(-402.458 -382.371)" fill="#263238"/>
    <path id="Trazado_605226" data-name="Trazado 605226" d="M724.179,685.627s.744.808,1.6,1.857a19.947,19.947,0,0,1,1.488,1.945,21.867,21.867,0,0,1-1.6-1.857A20.065,20.065,0,0,1,724.179,685.627Z" transform="translate(-399.824 -378.512)" fill="#263238"/>
    <path id="Trazado_605227" data-name="Trazado 605227" d="M722.955,704.571a9.83,9.83,0,0,1-1.256,1.216,6.57,6.57,0,0,1-1.457.969c-.024-.032.616-.48,1.361-1.088s1.32-1.129,1.353-1.1Z" transform="translate(-397.648 -388.981)" fill="#263238"/>
    <path id="Trazado_605228" data-name="Trazado 605228" d="M730.34,701.342c.04,0,.056.168.1.36s.112.344.08.36-.168-.112-.216-.328,0-.4.04-.392Z" transform="translate(-403.2 -387.2)" fill="#263238"/>
    <path id="Trazado_605229" data-name="Trazado 605229" d="M730.291,698.183a.821.821,0,0,1,.04.32c-.016.176-.064.312-.1.312s-.056-.152-.04-.328.064-.312.1-.312Z" transform="translate(-403.143 -385.45)" fill="#263238"/>
    <path id="Trazado_605230" data-name="Trazado 605230" d="M731.424,695.559s-.1.136-.208.288-.144.312-.184.3-.064-.192.064-.384.312-.248.328-.216Z" transform="translate(-403.596 -383.994)" fill="#263238"/>
    <path id="Trazado_605231" data-name="Trazado 605231" d="M732.943,693.909a.368.368,0,0,1-.032.2c-.056.088-.128.152-.16.128s-.016-.112.032-.2S732.911,693.885,732.943,693.909Z" transform="translate(-404.555 -383.088)" fill="#263238"/>
    <g id="Grupo_1014664" data-name="Grupo 1014664" transform="translate(317.849 309.347)" opacity="0.3">
      <path id="Trazado_605232" data-name="Trazado 605232" d="M719.977,691.277l-9.468,7.227-.88-1.137,9.948-6.746Z" transform="translate(-709.629 -690.621)"/>
    </g>
    <path id="Trazado_605233" data-name="Trazado 605233" d="M606.925,713.544l.016-6.362,11.925-.04.072,9.316-.736.048c-3.289.192-16.742.76-18.943.1C596.8,715.864,606.925,713.544,606.925,713.544Z" transform="translate(-330.548 -390.407)" fill="#304c8e"/>
    <g id="Grupo_1014665" data-name="Grupo 1014665" transform="translate(268.289 324.441)" opacity="0.4">
      <path id="Trazado_605234" data-name="Trazado 605234" d="M601.933,724.377s-3.545,1.041-3.1,1.616,14.061.529,20.063-.024l-.024-.264-15.878.2s-.368-1.5-1.065-1.529Z" transform="translate(-598.79 -724.377)" fill="#fff"/>
    </g>
    <path id="Trazado_605235" data-name="Trazado 605235" d="M619.087,727.32a1.467,1.467,0,0,1-.208.024c-.176.008-.368.024-.592.04-.592.024-1.313.064-2.169.1-1.832.072-4.361.144-7.155.16s-5.33-.032-7.155-.088c-.856-.032-1.577-.056-2.169-.08-.216-.008-.408-.024-.592-.032a.718.718,0,0,1-.208-.024s.072,0,.208-.008h.592c.592.008,1.312.024,2.169.032,1.833.032,4.362.056,7.155.04s5.322-.064,7.155-.112c.856-.024,1.577-.04,2.169-.056.216,0,.416,0,.592-.008h.208Z" transform="translate(-330.529 -401.559)" fill="#263238"/>
    <path id="Trazado_605236" data-name="Trazado 605236" d="M606.774,725.925a4.539,4.539,0,0,0-.408-1.032,4.471,4.471,0,0,0-.745-.824,1.563,1.563,0,0,1,.864.752,1.64,1.64,0,0,1,.288,1.113Z" transform="translate(-334.278 -399.763)" fill="#263238"/>
    <path id="Trazado_605237" data-name="Trazado 605237" d="M615.269,722.969a2.6,2.6,0,0,1-.376-.456c-.176-.272-.288-.512-.256-.536s.2.184.376.456S615.3,722.945,615.269,722.969Z" transform="translate(-339.26 -398.608)" fill="#263238"/>
    <path id="Trazado_605238" data-name="Trazado 605238" d="M617.271,722.225a1.858,1.858,0,0,1-.424-.28c-.208-.184-.352-.36-.328-.384s.216.1.424.28S617.295,722.2,617.271,722.225Z" transform="translate(-340.302 -398.376)" fill="#263238"/>
    <path id="Trazado_605239" data-name="Trazado 605239" d="M618.021,720.45a2.527,2.527,0,0,1-.624.08,1.489,1.489,0,0,1-.624-.064,1.345,1.345,0,0,1,.624-.08A1.481,1.481,0,0,1,618.021,720.45Z" transform="translate(-340.444 -397.729)" fill="#263238"/>
    <path id="Trazado_605240" data-name="Trazado 605240" d="M618.279,718.725a1.72,1.72,0,0,1-.7.208,1.207,1.207,0,0,1-.72-.1,4.047,4.047,0,0,1,.7-.048,3.7,3.7,0,0,1,.7-.064Z" transform="translate(-340.493 -396.804)" fill="#263238"/>
    <path id="Trazado_605241" data-name="Trazado 605241" d="M612.363,720.553a2.787,2.787,0,0,1-.768,0,4.208,4.208,0,0,1-.817-.176,2.032,2.032,0,0,1-.464-.192.423.423,0,0,1-.192-.24.31.31,0,0,1,.112-.3,1.4,1.4,0,0,1,1.737.4,1.517,1.517,0,0,1,.256.513.476.476,0,0,1,.024.208,2.075,2.075,0,0,0-.352-.648,1.417,1.417,0,0,0-.656-.424,1.2,1.2,0,0,0-.912.064c-.12.088-.072.232.064.312a2.614,2.614,0,0,0,.432.184,5.494,5.494,0,0,0,.792.2c.456.08.752.08.752.1Z" transform="translate(-336.762 -397.232)" fill="#263238"/>
    <path id="Trazado_605242" data-name="Trazado 605242" d="M614.578,720.13a.8.8,0,0,1-.088-.528,1.245,1.245,0,0,1,.208-.56.761.761,0,0,1,.632-.392.312.312,0,0,1,.24.352.882.882,0,0,1-.128.344,2.267,2.267,0,0,1-.36.464,1.14,1.14,0,0,1-.44.312c-.016-.016.152-.136.36-.384a2.547,2.547,0,0,0,.32-.464c.1-.16.176-.456-.016-.488-.192-.016-.384.176-.5.328a1.316,1.316,0,0,0-.216.5A2.606,2.606,0,0,0,614.578,720.13Z" transform="translate(-339.177 -396.769)" fill="#263238"/>
    <path id="Trazado_605243" data-name="Trazado 605243" d="M638.323,719.944a4.623,4.623,0,0,0-.88.032,3.727,3.727,0,0,0-3.113,2.5c-.176.512-.192.856-.224.848a.633.633,0,0,1,0-.24,2.876,2.876,0,0,1,.128-.64,3.688,3.688,0,0,1,1.2-1.784,3.744,3.744,0,0,1,2-.792,3.253,3.253,0,0,1,.656.016A.743.743,0,0,1,638.323,719.944Z" transform="translate(-350.021 -397.44)" fill="#263238"/>
    <path id="Trazado_605244" data-name="Trazado 605244" d="M640.685,708.967s.088,1.1.112,2.449a20.352,20.352,0,0,1-.032,2.449,21.348,21.348,0,0,1-.112-2.449A20.313,20.313,0,0,1,640.685,708.967Z" transform="translate(-353.64 -391.416)" fill="#263238"/>
    <path id="Trazado_605245" data-name="Trazado 605245" d="M626.411,725.162a9.78,9.78,0,0,1-1.737.184,6.488,6.488,0,0,1-1.745-.136c0-.04.784,0,1.745-.016s1.737-.08,1.745-.032Z" transform="translate(-343.848 -400.361)" fill="#263238"/>
    <path id="Trazado_605246" data-name="Trazado 605246" d="M635.523,725.161s-.064.168-.144.344-.12.336-.16.336-.064-.192.032-.392S635.5,725.137,635.523,725.161Z" transform="translate(-350.622 -400.367)" fill="#263238"/>
    <path id="Trazado_605247" data-name="Trazado 605247" d="M637.34,722.686a.814.814,0,0,1-.168.28c-.12.128-.248.208-.272.176s.048-.152.168-.28S637.317,722.654,637.34,722.686Z" transform="translate(-351.567 -398.997)" fill="#263238"/>
    <path id="Trazado_605248" data-name="Trazado 605248" d="M639.882,721.49c-.008.04-.168.04-.344.1s-.3.16-.328.128.064-.192.288-.264.4,0,.392.032Z" transform="translate(-352.845 -398.305)" fill="#263238"/>
    <path id="Trazado_605249" data-name="Trazado 605249" d="M642.277,720.993a.361.361,0,0,1-.152.136c-.1.04-.192.04-.208,0s.056-.1.152-.136S642.261,720.953,642.277,720.993Z" transform="translate(-354.344 -398.049)" fill="#263238"/>
    <g id="Grupo_1014666" data-name="Grupo 1014666" transform="translate(276.369 320.52)" opacity="0.3">
      <path id="Trazado_605250" data-name="Trazado 605250" d="M628.883,717.112l-12.021.016.016-1.441,11.964-.08Z" transform="translate(-616.862 -715.607)"/>
    </g>
    <path id="Trazado_605251" data-name="Trazado 605251" d="M633.115,469.213l-4.778,14.382c-1.289,3.881-4.682,4.546-8.772,4.546H593v-5.962l24.265-3.465,5.786-14.774,10.06,5.266Z" transform="translate(-327.303 -255.949)" fill="#b78876"/>
    <path id="Trazado_605252" data-name="Trazado 605252" d="M570.064,495.515l-2.105-1s-2.273-4.394-2.793-4.217-.673,1.464.24,3.481l-2.8-.8s-6.066,2.8-5.8,3.185a1.4,1.4,0,0,0,2.089.592c1.32-.672,3.057-1.472,3.057-1.472l3.273.936-4.217.536-3.97,3.61a1.942,1.942,0,0,0,2.425-.056l10.3,2.217,3.225.184v-5.962l-2.921-1.241Z" transform="translate(-307.284 -270.519)" fill="#b78876"/>
    <path id="Trazado_605253" data-name="Trazado 605253" d="M562.749,510.108c.04.032.232-.272.609-.681a2.907,2.907,0,0,1,.752-.576,3,3,0,0,1,1.112-.288,15.057,15.057,0,0,0,3.089-.528,15,15,0,0,0-3.13.208,2.984,2.984,0,0,0-1.224.352,3.015,3.015,0,0,0-.776.688c-.352.472-.464.808-.432.832Z" transform="translate(-310.573 -280.31)" fill="#aa6550"/>
    <path id="Trazado_605254" data-name="Trazado 605254" d="M566.3,512.669a.46.46,0,0,1,.36-.272c.3-.056.76-.112,1.248-.16a11.071,11.071,0,0,0,1.809-.184,3.591,3.591,0,0,0-1.841-.136,5.606,5.606,0,0,0-1.3.264.521.521,0,0,0-.312.32C566.247,512.613,566.279,512.669,566.3,512.669Z" transform="translate(-312.518 -282.455)" fill="#aa6550"/>
    <path id="Trazado_605255" data-name="Trazado 605255" d="M669.185,432.714l-2.041,6.923-12.965-5.866c.464-1.449,2.609-7.9,6.715-18.143A17.6,17.6,0,0,1,674.332,404.8a76.98,76.98,0,0,1,12.413-1.217c7.267.08,17.967,4.626,19.407,11.749,1.1,5.442.04,15.046.04,26.714l-.952,22.3-37.254,1.264,1.193-32.876Z" transform="translate(-361.125 -222.58)" fill="#304c8e"/>
    <g id="Grupo_1014667" data-name="Grupo 1014667" transform="translate(317.409 213.882)" opacity="0.3">
      <path id="Trazado_605256" data-name="Trazado 605256" d="M736.263,477.531c-4.53.929-9.187,0-13.8-.28-2.8-.168-5.906-.472-8.123,1.248-1.753,1.369-2.465,3.658-2.969,5.826-1.928,8.259-2.281,13.789-2.721,22.256l22.424,1.361Z" transform="translate(-708.645 -477.118)"/>
    </g>
    <path id="Trazado_605257" data-name="Trazado 605257" d="M685.61,414.6a4.913,4.913,0,0,1,3.137,2.033,7.174,7.174,0,0,1,1.281,3.881,24,24,0,0,1-.392,5.106,86.52,86.52,0,0,1-2.081,9.131c-.3,1.121-.56,2.041-.752,2.745a5.884,5.884,0,0,0-.24,1.016,6.06,6.06,0,0,0,.36-.984c.208-.64.5-1.569.848-2.713a71.07,71.07,0,0,0,2.177-9.147,23.437,23.437,0,0,0,.368-5.178,7.347,7.347,0,0,0-1.392-3.993,5.107,5.107,0,0,0-2.281-1.721,3.853,3.853,0,0,0-.761-.176C685.706,414.581,685.61,414.581,685.61,414.6Z" transform="translate(-378.501 -228.663)" fill="#263238"/>
    <path id="Trazado_605258" data-name="Trazado 605258" d="M655.083,467.125s.672.448,1.825,1.049,2.761,1.4,4.57,2.217,3.473,1.5,4.682,1.961a12.321,12.321,0,0,0,1.993.672,16.138,16.138,0,0,0-1.9-.888c-1.193-.52-2.833-1.232-4.642-2.041s-3.425-1.577-4.6-2.121a14.012,14.012,0,0,0-1.929-.84Z" transform="translate(-361.62 -257.711)" fill="#263238"/>
    <path id="Trazado_605259" data-name="Trazado 605259" d="M633.24,546.058a13.276,13.276,0,0,0-5.418,17.783l32.42,55.669,14.958-9.035-25.177-50.259,18.247-11.909" transform="translate(-345.722 -301.35)" fill="#263238"/>
    <path id="Trazado_605260" data-name="Trazado 605260" d="M659.224,539.882l-44.5,1.577a13.274,13.274,0,0,0-12.8,13.477l1.849,63.568,18.719-.04-.624-60.1,37.374-.984V539.882Z" transform="translate(-332.228 -297.935)" fill="#263238"/>
    <path id="Trazado_605261" data-name="Trazado 605261" d="M646.48,586.05s.032.2.056.584c.016.424.04.984.072,1.689.056,1.464.112,3.585.168,6.21.112,5.242.184,12.484.224,20.48.04,7.979.08,15.2.1,20.48.016,2.585.024,4.7.032,6.21v1.688a2.446,2.446,0,0,1-.032.592,3.122,3.122,0,0,1-.056-.584c-.016-.424-.04-.984-.072-1.688-.056-1.465-.112-3.586-.168-6.21-.112-5.242-.184-12.485-.224-20.488-.04-7.979-.08-15.2-.1-20.48-.016-2.585-.024-4.7-.032-6.21v-1.689a2.491,2.491,0,0,1,.032-.592Z" transform="translate(-356.85 -323.456)" fill="#263c71"/>
    <path id="Trazado_605262" data-name="Trazado 605262" d="M702.759,449.657H689.3a9.813,9.813,0,0,0-9.812,9.811v46.978H652.581a6.793,6.793,0,0,0-6.795,6.795h61.423v-.04a5.609,5.609,0,0,0,5.37-5.594V459.469a9.813,9.813,0,0,0-9.811-9.811Z" transform="translate(-356.484 -248.053)" fill="#263c71"/>
    <path id="Trazado_605263" data-name="Trazado 605263" d="M729.651,453.129c.112,0,.208,13.8.208,30.835s-.1,30.835-.208,30.835-.208-13.8-.208-30.835S729.539,453.129,729.651,453.129Z" transform="translate(-402.735 -249.973)" fill="#263238"/>
    <path id="Trazado_605264" data-name="Trazado 605264" d="M700.151,641.213V591.931h-4.378v49.282c-2.673,5.266-8.955,8.835-16.606,11.749H718.2c-7.923-3.217-15.078-5.69-18.039-11.749Z" transform="translate(-374.939 -326.711)" fill="#263c71"/>
    <path id="Trazado_605265" data-name="Trazado 605265" d="M160.289,543.3a2.662,2.662,0,0,1,.12-.3c.1-.208.224-.48.392-.833a20.422,20.422,0,0,0,1.152-3.345,29.537,29.537,0,0,0-.1-12.925,68.748,68.748,0,0,0-2.4-8.683c-1.016-3.081-2.193-6.355-3.153-9.884a38.286,38.286,0,0,1-1.561-11.364,44.328,44.328,0,0,1,2.649-12.029c1.3-4,2.657-7.915,3.065-11.844a18.094,18.094,0,0,0-2.169-10.94c-1.729-3.193-3.913-5.922-5.546-8.747A30.4,30.4,0,0,1,149.413,444a31.144,31.144,0,0,1-.208-13.029,24,24,0,0,1,1.361-4.6s-.024.1-.08.3c-.072.216-.16.512-.272.88a34.2,34.2,0,0,0-.849,3.441,31.66,31.66,0,0,0,.336,12.933,30.136,30.136,0,0,0,3.345,8.307c1.624,2.793,3.817,5.514,5.586,8.739a18.442,18.442,0,0,1,2.241,11.164c-.408,4-1.768,7.939-3.073,11.933a44.351,44.351,0,0,0-2.633,11.916,37.979,37.979,0,0,0,1.52,11.252c.944,3.514,2.113,6.787,3.113,9.876a69.832,69.832,0,0,1,2.361,8.731,29.239,29.239,0,0,1-.032,13.021,19.756,19.756,0,0,1-1.232,3.345c-.184.344-.328.616-.432.825a1.443,1.443,0,0,1-.16.272Z" transform="translate(-81.617 -235.179)" fill="#263238"/>
    <path id="Trazado_605266" data-name="Trazado 605266" d="M161.645,469.938s-3.313-10.6,2.633-16.79a.37.37,0,0,1,.632.184c.32,1.753.712,7.075-3.257,16.614Z" transform="translate(-88.311 -249.92)" fill="#304c8e"/>
    <path id="Trazado_605267" data-name="Trazado 605267" d="M164.616,461.184a9.885,9.885,0,0,1-.224,1.953c-.216,1.345-.472,2.929-.753,4.673s-.528,3.329-.744,4.674a10.74,10.74,0,0,1-.352,1.937,8.145,8.145,0,0,1,.056-1.969c.112-1.208.32-2.873.624-4.706s.616-3.473.88-4.658a8.474,8.474,0,0,1,.512-1.9Z" transform="translate(-89.298 -254.426)" fill="#263238"/>
    <path id="Trazado_605268" data-name="Trazado 605268" d="M171.481,529.863s2.025-10.908,10.18-13.613a.368.368,0,0,1,.472.456C181.6,518.4,179.452,523.292,171.481,529.863Z" transform="translate(-94.258 -284.859)" fill="#304c8e"/>
    <path id="Trazado_605269" data-name="Trazado 605269" d="M179.37,522.575a9.151,9.151,0,0,1-1.112,1.624c-.824,1.088-1.785,2.369-2.849,3.777s-2.025,2.689-2.841,3.786a9.97,9.97,0,0,1-1.217,1.544,7.836,7.836,0,0,1,.977-1.713c.664-1.016,1.632-2.393,2.753-3.865s2.169-2.785,2.953-3.705a8.349,8.349,0,0,1,1.345-1.44Z" transform="translate(-94.184 -288.367)" fill="#263238"/>
    <path id="Trazado_605270" data-name="Trazado 605270" d="M166.456,588.084s-1.232-11.028,5.786-15.982a.368.368,0,0,1,.584.3C172.8,574.175,172.179,579.481,166.456,588.084Z" transform="translate(-91.434 -315.71)" fill="#304c8e"/>
    <path id="Trazado_605271" data-name="Trazado 605271" d="M170.941,579.642a9.539,9.539,0,0,1-.592,1.873c-.472,1.281-1.024,2.785-1.633,4.441s-1.152,3.161-1.616,4.442a11.488,11.488,0,0,1-.712,1.833,8.355,8.355,0,0,1,.432-1.921c.336-1.168.864-2.761,1.513-4.5s1.273-3.289,1.753-4.41a8.616,8.616,0,0,1,.864-1.768Z" transform="translate(-91.437 -319.913)" fill="#263238"/>
    <path id="Trazado_605272" data-name="Trazado 605272" d="M180.252,649.947s-.833-11.068,6.354-15.766a.369.369,0,0,1,.576.32c-.088,1.776-.9,7.059-6.923,15.445Z" transform="translate(-99.091 -350.035)" fill="#304c8e"/>
    <path id="Trazado_605273" data-name="Trazado 605273" d="M185.119,641.615a9.553,9.553,0,0,1-.656,1.857c-.512,1.264-1.121,2.745-1.793,4.378l-1.777,4.386a10.432,10.432,0,0,1-.776,1.8,8.622,8.622,0,0,1,.5-1.9c.376-1.152.96-2.729,1.673-4.441s1.384-3.241,1.9-4.338a8.594,8.594,0,0,1,.929-1.737Z" transform="translate(-99.028 -354.18)" fill="#263238"/>
    <path id="Trazado_605274" data-name="Trazado 605274" d="M139.735,452.58s-9.836-5.138-10.028-13.725a.372.372,0,0,1,.576-.32c1.464,1.008,5.514,4.49,9.459,14.037Z" transform="translate(-71.163 -241.869)" fill="#304c8e"/>
    <path id="Trazado_605275" data-name="Trazado 605275" d="M134.266,445.932a9.915,9.915,0,0,1,1.224,1.536c.8,1.1,1.737,2.4,2.777,3.834s1.985,2.721,2.785,3.825a10.331,10.331,0,0,1,1.12,1.617,8.709,8.709,0,0,1-1.352-1.433c-.777-.936-1.809-2.257-2.889-3.761s-2.025-2.889-2.681-3.914A9,9,0,0,1,134.266,445.932Z" transform="translate(-73.681 -245.993)" fill="#263238"/>
    <path id="Trazado_605276" data-name="Trazado 605276" d="M162.349,504.222s-10.132-4.529-10.844-13.093a.367.367,0,0,1,.552-.352c1.52.92,5.778,4.154,10.292,13.437Z" transform="translate(-83.214 -270.758)" fill="#304c8e"/>
    <path id="Trazado_605277" data-name="Trazado 605277" d="M156.462,497.944a9.583,9.583,0,0,1,1.32,1.465c.864,1.056,1.881,2.289,3,3.657s2.144,2.6,3.009,3.65a10.63,10.63,0,0,1,1.217,1.544,7.886,7.886,0,0,1-1.433-1.345c-.832-.88-1.945-2.144-3.113-3.577s-2.193-2.761-2.913-3.746a9.132,9.132,0,0,1-1.088-1.641Z" transform="translate(-85.953 -274.749)" fill="#263238"/>
    <path id="Trazado_605278" data-name="Trazado 605278" d="M157.089,556.845s-6.955-8.651-3.689-16.59a.37.37,0,0,1,.656-.064c.936,1.513,3.249,6.322,3.041,16.654Z" transform="translate(-83.779 -298.012)" fill="#304c8e"/>
    <path id="Trazado_605279" data-name="Trazado 605279" d="M156.005,548.42a9.827,9.827,0,0,1,.5,1.9c.288,1.329.632,2.9,1.008,4.626s.728,3.289,1.016,4.617a10.674,10.674,0,0,1,.384,1.929,8.52,8.52,0,0,1-.664-1.857c-.344-1.168-.753-2.793-1.137-4.6s-.7-3.457-.888-4.658a8.8,8.8,0,0,1-.216-1.953Z" transform="translate(-85.697 -302.656)" fill="#263238"/>
    <path id="Trazado_605280" data-name="Trazado 605280" d="M165.008,627.524s-10.052-4.7-10.62-13.269a.369.369,0,0,1,.56-.344c1.5.944,5.706,4.25,10.068,13.613Z" transform="translate(-84.807 -338.832)" fill="#304c8e"/>
    <path id="Trazado_605281" data-name="Trazado 605281" d="M159.224,621.131a9.273,9.273,0,0,1,1.289,1.481c.848,1.072,1.841,2.321,2.937,3.705s2.1,2.633,2.945,3.7a11.628,11.628,0,0,1,1.193,1.561,7.973,7.973,0,0,1-1.417-1.369c-.816-.9-1.9-2.177-3.049-3.633s-2.145-2.8-2.849-3.793a8.591,8.591,0,0,1-1.056-1.657Z" transform="translate(-87.475 -342.851)" fill="#263238"/>
    <path id="Trazado_605282" data-name="Trazado 605282" d="M199.195,546.845a1.412,1.412,0,0,1,.016.248c0,.192-.008.424-.016.712-.032.664-.072,1.569-.12,2.689-.128,2.369-.312,5.666-.528,9.612v.024a37.384,37.384,0,0,1-5.514,12.789c-2.017,3.185-4.13,6.074-5.946,8.771a61.3,61.3,0,0,0-4.458,7.371,31.025,31.025,0,0,0-2.089,5.41c-.176.664-.313,1.177-.385,1.536a3.623,3.623,0,0,1-.144.536,2.6,2.6,0,0,1,.064-.552c.048-.36.16-.888.312-1.56a28.532,28.532,0,0,1,1.977-5.5,58.653,58.653,0,0,1,4.41-7.459c1.809-2.713,3.914-5.61,5.914-8.78a37.86,37.86,0,0,0,5.514-12.637v.024c.272-3.945.5-7.235.672-9.6.088-1.121.16-2.017.216-2.681.032-.28.048-.512.072-.7a.829.829,0,0,1,.04-.24Z" transform="translate(-98.972 -301.785)" fill="#263238"/>
    <path id="Trazado_605283" data-name="Trazado 605283" d="M206.784,582.143s4.258-10.252-1.1-16.966a.365.365,0,0,0-.64.128c-.472,1.713-1.353,6.987,1.745,16.838Z" transform="translate(-112.546 -311.842)" fill="#304c8e"/>
    <path id="Trazado_605284" data-name="Trazado 605284" d="M207.752,573.342a9.261,9.261,0,0,1,.336,1.937c.152,1.2.32,2.873.448,4.722s.192,3.522.192,4.738a7.914,7.914,0,0,1-.12,1.969,10.162,10.162,0,0,1-.176-1.961c-.088-1.361-.2-2.953-.312-4.722s-.232-3.361-.328-4.722a10.331,10.331,0,0,1-.048-1.969Z" transform="translate(-114.29 -316.43)" fill="#263238"/>
    <g id="Grupo_1014668" data-name="Grupo 1014668" transform="translate(92.014 253.194)" opacity="0.3">
      <path id="Trazado_605285" data-name="Trazado 605285" d="M206.784,582.143s4.258-10.252-1.1-16.966a.365.365,0,0,0-.64.128c-.472,1.713-1.353,6.987,1.745,16.838Z" transform="translate(-204.56 -565.037)"/>
    </g>
    <path id="Trazado_605286" data-name="Trazado 605286" d="M175.935,637.595s3.409-10.564-2.473-16.814a.369.369,0,0,0-.632.176c-.336,1.745-.784,7.067,3.105,16.646Z" transform="translate(-94.886 -342.596)" fill="#304c8e"/>
    <path id="Trazado_605287" data-name="Trazado 605287" d="M175.854,628.808a8.954,8.954,0,0,1,.5,1.9c.248,1.185.552,2.833.833,4.666s.48,3.5.576,4.706a8.029,8.029,0,0,1,.04,1.969,10.763,10.763,0,0,1-.336-1.937c-.2-1.344-.44-2.929-.7-4.682s-.5-3.329-.712-4.682a9.662,9.662,0,0,1-.208-1.953Z" transform="translate(-96.662 -347.095)" fill="#263238"/>
    <g id="Grupo_1014669" data-name="Grupo 1014669" transform="translate(77.731 278.067)" opacity="0.3">
      <path id="Trazado_605288" data-name="Trazado 605288" d="M175.935,637.595s3.409-10.564-2.473-16.814a.369.369,0,0,0-.632.176c-.336,1.745-.784,7.067,3.105,16.646Z" transform="translate(-172.617 -620.663)"/>
    </g>
    <path id="Trazado_605289" data-name="Trazado 605289" d="M221.668,556.448s9.091-6.363,8.171-14.9a.368.368,0,0,0-.608-.24C227.91,542.5,224.341,546.476,221.668,556.448Z" transform="translate(-122.005 -298.672)" fill="#304c8e"/>
    <g id="Grupo_1014670" data-name="Grupo 1014670" transform="translate(99.663 242.542)" opacity="0.3">
      <path id="Trazado_605290" data-name="Trazado 605290" d="M221.668,556.448s9.091-6.363,8.171-14.9a.368.368,0,0,0-.608-.24C227.91,542.5,224.341,546.476,221.668,556.448Z" transform="translate(-221.668 -541.214)"/>
    </g>
    <path id="Trazado_605291" data-name="Trazado 605291" d="M228.294,549.081a9.512,9.512,0,0,1-.753,1.817c-.52,1.1-1.273,2.593-2.153,4.225s-1.729,3.081-2.377,4.106a8.471,8.471,0,0,1-1.152,1.593,10.475,10.475,0,0,1,.9-1.745c.656-1.193,1.417-2.6,2.265-4.154s1.609-2.961,2.257-4.161a9.294,9.294,0,0,1,1.016-1.681Z" transform="translate(-122.108 -303.02)" fill="#263238"/>
    <path id="Trazado_605292" data-name="Trazado 605292" d="M188.234,622.406s10.964-1.713,13.9-9.779a.37.37,0,0,0-.44-.488C199.983,612.626,195.029,614.627,188.234,622.406Z" transform="translate(-103.52 -337.876)" fill="#304c8e"/>
    <g id="Grupo_1014671" data-name="Grupo 1014671" transform="translate(84.714 274.249)" opacity="0.3">
      <path id="Trazado_605293" data-name="Trazado 605293" d="M188.234,622.406s10.964-1.713,13.9-9.779a.37.37,0,0,0-.44-.488C199.983,612.626,195.029,614.627,188.234,622.406Z" transform="translate(-188.234 -612.125)"/>
    </g>
    <path id="Trazado_605294" data-name="Trazado 605294" d="M199.332,618.021a8.61,8.61,0,0,1-1.48,1.3c-.952.76-2.281,1.769-3.794,2.849s-2.905,2-3.946,2.641a8.11,8.11,0,0,1-1.737.92,10,10,0,0,1,1.577-1.168c1.112-.784,2.417-1.713,3.866-2.729l3.857-2.745A9.19,9.19,0,0,1,199.332,618.021Z" transform="translate(-103.598 -341.134)" fill="#263238"/>
    <path id="Trazado_605295" data-name="Trazado 605295" d="M160.883,680.24l-3.2,21.528h19.935l-2.585-21.528Z" transform="translate(-86.629 -375.534)" fill="#263c71"/>
    <path id="Trazado_605296" data-name="Trazado 605296" d="M178.405,694.911a78.764,78.764,0,0,1-8.035.208,78.771,78.771,0,0,1-8.035-.208,78.771,78.771,0,0,1,8.035-.208A78.764,78.764,0,0,1,178.405,694.911Z" transform="translate(-89.202 -383.53)" fill="#263238"/>
    <path id="Trazado_605297" data-name="Trazado 605297" d="M178.629,698.741c0,.112-3.713.208-8.3.208s-8.3-.1-8.3-.208,3.713-.208,8.3-.208S178.629,698.629,178.629,698.741Z" transform="translate(-89.034 -385.648)" fill="#263238"/>
  </g>
</svg>
