<svg xmlns="http://www.w3.org/2000/svg" width="772.328" height="484.5" viewBox="0 0 772.328 484.5">
  <g id="Grupo_1014982" data-name="Grupo 1014982" transform="translate(-398.336 -9109.988)">
    <path id="Trazado_609403" data-name="Trazado 609403" d="M23,0H226a23,23,0,0,1,23,23V45a23,23,0,0,1-23,23H23A23,23,0,0,1,0,45V23A23,23,0,0,1,23,0Z" transform="translate(632.5 9118.488)" fill="#304c8e"/>
    <path id="Trazado_609404" data-name="Trazado 609404" d="M22,0H227a22,22,0,0,1,22,22V78a22,22,0,0,1-22,22H22A22,22,0,0,1,0,78V22A22,22,0,0,1,22,0Z" transform="translate(632.5 9224.488)" fill="#60cb28"/>
    <path id="Trazado_609405" data-name="Trazado 609405" d="M23,0H193a23,23,0,0,1,23,23V77a23,23,0,0,1-23,23H23A23,23,0,0,1,0,77V23A23,23,0,0,1,23,0Z" transform="translate(398.336 9224.488)" fill="#60cb28"/>
    <path id="Trazado_609406" data-name="Trazado 609406" d="M18,0H198a18,18,0,0,1,18,18V82a18,18,0,0,1-18,18H18A18,18,0,0,1,0,82V18A18,18,0,0,1,18,0Z" transform="translate(899.664 9224.488)" fill="#60cb28"/>
    <path id="Trazado_609407" data-name="Trazado 609407" d="M23,0H193a23,23,0,0,1,23,23V77a23,23,0,0,1-23,23H23A23,23,0,0,1,0,77V23A23,23,0,0,1,23,0Z" transform="translate(954.664 9359.488)" fill="#60cb28" opacity="0.14"/>
    <path id="Trazado_609408" data-name="Trazado 609408" d="M24,0H192a24,24,0,0,1,24,24V76a24,24,0,0,1-24,24H24A24,24,0,0,1,0,76V24A24,24,0,0,1,24,0Z" transform="translate(954.664 9494.488)" fill="#60cb28" opacity="0.14"/>
    <path id="Trazado_609409" data-name="Trazado 609409" d="M0,0V34" transform="translate(756.836 9186.5)" fill="none" stroke="#60cb28" stroke-width="2"/>
    <path id="Trazado_609410" data-name="Trazado 609410" d="M0,0V18" transform="translate(1011.836 9202.5)" fill="none" stroke="#60cb28" stroke-width="2"/>
    <path id="Trazado_609411" data-name="Trazado 609411" d="M0,0H25" transform="translate(929.836 9408.5)" fill="none" stroke="#60cb28" stroke-width="2"/>
    <path id="Trazado_609412" data-name="Trazado 609412" d="M0,0H25" transform="translate(929.836 9544.488)" fill="none" stroke="#60cb28" stroke-width="2"/>
    <path id="Trazado_609413" data-name="Trazado 609413" d="M0,0V18" transform="translate(503.836 9202.5)" fill="none" stroke="#60cb28" stroke-width="2"/>
    <path id="Trazado_609414" data-name="Trazado 609414" d="M0,0V220.012" transform="translate(929.836 9324.488)" fill="none" stroke="#60cb28" stroke-width="2"/>
    <path id="Trazado_609415" data-name="Trazado 609415" d="M508,0H0" transform="translate(503.836 9203.5)" fill="none" stroke="#60cb28" stroke-width="2"/>
    <path id="Trazado_609416" data-name="Trazado 609416" d="M22.089,13.663h-5.66v3.568h6.686V20H12.829V5.07H23.135V7.849H16.428V11h5.66Zm5.506-4.758.113,1.3A3.762,3.762,0,0,1,30.876,8.7a3.165,3.165,0,0,1,2.589,1.036,4.93,4.93,0,0,1,.887,3.117V20H30.886V13a1.872,1.872,0,0,0-.338-1.236,1.565,1.565,0,0,0-1.23-.395,1.648,1.648,0,0,0-1.507.8V20H24.355V8.905ZM40.289,6.147V8.905h1.825v2.4H40.289V16.38a1.3,1.3,0,0,0,.226.872,1.21,1.21,0,0,0,.892.246,5.069,5.069,0,0,0,.861-.062v2.471a6.377,6.377,0,0,1-1.948.3,3.62,3.62,0,0,1-2.635-.841,3.446,3.446,0,0,1-.851-2.553V11.3H35.419v-2.4h1.415V6.147Zm9.9,5.886-1.138-.082a2.044,2.044,0,0,0-2.092,1.025V20H43.5V8.905h3.24l.113,1.425a2.676,2.676,0,0,1,2.43-1.63,3.37,3.37,0,0,1,.964.123ZM56.6,20.205a5.7,5.7,0,0,1-4.132-1.523,5.258,5.258,0,0,1-1.579-3.963v-.287a6.814,6.814,0,0,1,.631-3,4.614,4.614,0,0,1,1.841-2.015A5.556,5.556,0,0,1,56.234,8.7a4.8,4.8,0,0,1,3.691,1.451A5.7,5.7,0,0,1,61.279,14.2V15.54h-6.87a2.491,2.491,0,0,0,.81,1.466,2.41,2.41,0,0,0,1.62.533A3.106,3.106,0,0,0,59.4,16.391l1.579,1.866a4.414,4.414,0,0,1-1.83,1.42A6.185,6.185,0,0,1,56.6,20.205Zm-.39-8.839q-1.518,0-1.8,2.01H57.9v-.267a1.712,1.712,0,0,0-.42-1.287A1.673,1.673,0,0,0,56.214,11.366ZM66.96,15.888l1.753-6.983h3.64L68.734,20H65.206L61.587,8.905h3.65ZM77.029,20H73.563V8.905h3.466ZM73.358,6.044a1.542,1.542,0,0,1,.533-1.21,2.267,2.267,0,0,1,2.769,0,1.542,1.542,0,0,1,.533,1.21,1.542,1.542,0,0,1-.533,1.21,2.267,2.267,0,0,1-2.769,0A1.542,1.542,0,0,1,73.358,6.044ZM84.966,16.883a.8.8,0,0,0-.461-.708,7.019,7.019,0,0,0-1.753-.554,8,8,0,0,1-2.133-.754,3.573,3.573,0,0,1-1.282-1.133,2.706,2.706,0,0,1-.441-1.528A3.066,3.066,0,0,1,80.156,9.69a5.2,5.2,0,0,1,3.3-.99,5.756,5.756,0,0,1,3.527.995,3.11,3.11,0,0,1,1.333,2.615H84.853q0-1.333-1.4-1.333a1.393,1.393,0,0,0-.913.3.937.937,0,0,0-.369.754.86.86,0,0,0,.451.749,4.263,4.263,0,0,0,1.441.472,12.45,12.45,0,0,1,1.738.441q2.5.861,2.5,3.086a2.906,2.906,0,0,1-1.348,2.471,5.913,5.913,0,0,1-3.491.954,6.034,6.034,0,0,1-2.543-.513A4.252,4.252,0,0,1,79.172,18.3a3.158,3.158,0,0,1-.625-1.856h3.23a1.335,1.335,0,0,0,.513,1.123,2.109,2.109,0,0,0,1.261.354,1.659,1.659,0,0,0,1.061-.287A.918.918,0,0,0,84.966,16.883ZM93.938,6.147V8.905h1.825v2.4H93.938V16.38a1.3,1.3,0,0,0,.226.872,1.21,1.21,0,0,0,.892.246,5.069,5.069,0,0,0,.861-.062v2.471a6.377,6.377,0,0,1-1.948.3,3.62,3.62,0,0,1-2.635-.841,3.446,3.446,0,0,1-.851-2.553V11.3H89.067v-2.4h1.415V6.147ZM103.371,20a3.9,3.9,0,0,1-.328-.995,3.213,3.213,0,0,1-2.666,1.2,3.936,3.936,0,0,1-2.666-.948,3.019,3.019,0,0,1-1.1-2.384,3.1,3.1,0,0,1,1.333-2.728,6.791,6.791,0,0,1,3.876-.923h1.066v-.587q0-1.535-1.323-1.535a1.081,1.081,0,0,0-1.23,1.216H96.881A3.1,3.1,0,0,1,98.25,9.7a5.753,5.753,0,0,1,3.491-1,5.044,5.044,0,0,1,3.353,1.036,3.6,3.6,0,0,1,1.261,2.84v4.912a5.03,5.03,0,0,0,.472,2.338V20Zm-2.164-2.256a1.928,1.928,0,0,0,1.072-.277,1.735,1.735,0,0,0,.61-.625V15.068h-1q-1.8,0-1.8,1.62a.989.989,0,0,0,.318.764A1.15,1.15,0,0,0,101.208,17.744Z" transform="translate(698.336 9140.512)" fill="#fff"/>
    <path id="Trazado_609417" data-name="Trazado 609417" d="M15.271,13.663H9.611v3.568H16.3V20H6.012V5.07H16.317V7.849H9.611V11h5.66Zm8.142,3.22a.8.8,0,0,0-.461-.708,7.019,7.019,0,0,0-1.753-.554,8,8,0,0,1-2.133-.754,3.573,3.573,0,0,1-1.282-1.133,2.706,2.706,0,0,1-.441-1.528A3.066,3.066,0,0,1,18.6,9.69a5.2,5.2,0,0,1,3.3-.99,5.756,5.756,0,0,1,3.527.995,3.11,3.11,0,0,1,1.333,2.615H23.3q0-1.333-1.4-1.333a1.393,1.393,0,0,0-.913.3.937.937,0,0,0-.369.754.86.86,0,0,0,.451.749,4.263,4.263,0,0,0,1.441.472,12.45,12.45,0,0,1,1.738.441q2.5.861,2.5,3.086A2.906,2.906,0,0,1,25.4,19.251a5.913,5.913,0,0,1-3.491.954,6.034,6.034,0,0,1-2.543-.513A4.252,4.252,0,0,1,17.619,18.3a3.158,3.158,0,0,1-.625-1.856h3.23a1.335,1.335,0,0,0,.513,1.123A2.109,2.109,0,0,0,22,17.918a1.659,1.659,0,0,0,1.061-.287A.918.918,0,0,0,23.413,16.883ZM32.385,6.147V8.905H34.21v2.4H32.385V16.38a1.3,1.3,0,0,0,.226.872,1.21,1.21,0,0,0,.892.246,5.069,5.069,0,0,0,.861-.062v2.471a6.377,6.377,0,0,1-1.948.3,3.62,3.62,0,0,1-2.635-.841,3.446,3.446,0,0,1-.851-2.553V11.3H27.514v-2.4h1.415V6.147Zm9.9,5.886-1.138-.082a2.044,2.044,0,0,0-2.092,1.025V20H35.594V8.905h3.24l.113,1.425a2.676,2.676,0,0,1,2.43-1.63,3.37,3.37,0,0,1,.964.123ZM50.135,18.8a3.563,3.563,0,0,1-2.963,1.4,3.494,3.494,0,0,1-2.763-1.061,4.463,4.463,0,0,1-.938-3.051V8.905h3.456v7.208a1.242,1.242,0,0,0,1.384,1.425A1.806,1.806,0,0,0,50,16.688V8.905h3.476V20h-3.24Zm9.926-1.261a1.537,1.537,0,0,0,1.128-.395,1.448,1.448,0,0,0,.39-1.1h3.24a3.836,3.836,0,0,1-1.307,2.994,4.863,4.863,0,0,1-3.368,1.169,4.924,4.924,0,0,1-3.814-1.518,5.979,5.979,0,0,1-1.395-4.2V14.34a6.758,6.758,0,0,1,.62-2.969,4.517,4.517,0,0,1,1.789-1.979A5.335,5.335,0,0,1,60.112,8.7a4.8,4.8,0,0,1,3.435,1.2,4.255,4.255,0,0,1,1.271,3.25h-3.24a1.9,1.9,0,0,0-.42-1.323,1.451,1.451,0,0,0-1.128-.461q-1.343,0-1.569,1.712a12.083,12.083,0,0,0-.072,1.5,4.746,4.746,0,0,0,.4,2.317A1.384,1.384,0,0,0,60.06,17.539ZM70.3,6.147V8.905h1.825v2.4H70.3V16.38a1.3,1.3,0,0,0,.226.872,1.21,1.21,0,0,0,.892.246,5.069,5.069,0,0,0,.861-.062v2.471a6.377,6.377,0,0,1-1.948.3,3.62,3.62,0,0,1-2.635-.841,3.446,3.446,0,0,1-.851-2.553V11.3H65.433v-2.4h1.415V6.147ZM80.1,18.8a3.563,3.563,0,0,1-2.963,1.4,3.494,3.494,0,0,1-2.763-1.061,4.463,4.463,0,0,1-.938-3.051V8.905h3.456v7.208a1.242,1.242,0,0,0,1.384,1.425,1.806,1.806,0,0,0,1.692-.851V8.905h3.476V20H80.2Zm11.946-6.768L90.9,11.951a2.044,2.044,0,0,0-2.092,1.025V20H85.357V8.905H88.6l.113,1.425A2.676,2.676,0,0,1,91.14,8.7a3.37,3.37,0,0,1,.964.123ZM99.23,20a3.9,3.9,0,0,1-.328-.995,3.213,3.213,0,0,1-2.666,1.2,3.936,3.936,0,0,1-2.666-.948,3.019,3.019,0,0,1-1.1-2.384,3.1,3.1,0,0,1,1.333-2.728,6.791,6.791,0,0,1,3.876-.923h1.066v-.587q0-1.535-1.323-1.535a1.081,1.081,0,0,0-1.23,1.216H92.74A3.1,3.1,0,0,1,94.108,9.7a5.753,5.753,0,0,1,3.491-1,5.044,5.044,0,0,1,3.353,1.036,3.6,3.6,0,0,1,1.261,2.84v4.912a5.03,5.03,0,0,0,.472,2.338V20Zm-2.164-2.256a1.928,1.928,0,0,0,1.072-.277,1.735,1.735,0,0,0,.61-.625V15.068h-1q-1.8,0-1.8,1.62a.989.989,0,0,0,.318.764A1.15,1.15,0,0,0,97.067,17.744Zm6.624-3.374a6.777,6.777,0,0,1,1.138-4.153A3.746,3.746,0,0,1,108.008,8.7a3.186,3.186,0,0,1,2.5,1.169V4.25h3.466V20h-3.107l-.174-1.189a3.272,3.272,0,0,1-2.707,1.395,3.74,3.74,0,0,1-3.138-1.518A6.992,6.992,0,0,1,103.691,14.371Zm3.456.215q0,2.953,1.723,2.953a1.7,1.7,0,0,0,1.641-.964V12.351a1.655,1.655,0,0,0-1.62-.984q-1.6,0-1.733,2.584ZM122.189,20a3.9,3.9,0,0,1-.328-.995,3.213,3.213,0,0,1-2.666,1.2,3.936,3.936,0,0,1-2.666-.948,3.019,3.019,0,0,1-1.1-2.384,3.1,3.1,0,0,1,1.333-2.728,6.791,6.791,0,0,1,3.876-.923h1.066v-.587q0-1.535-1.323-1.535a1.081,1.081,0,0,0-1.23,1.216H115.7A3.1,3.1,0,0,1,117.067,9.7a5.753,5.753,0,0,1,3.491-1,5.044,5.044,0,0,1,3.353,1.036,3.6,3.6,0,0,1,1.261,2.84v4.912a5.03,5.03,0,0,0,.472,2.338V20Zm-2.164-2.256a1.928,1.928,0,0,0,1.072-.277,1.735,1.735,0,0,0,.61-.625V15.068h-1q-1.8,0-1.8,1.62a.989.989,0,0,0,.318.764A1.15,1.15,0,0,0,120.025,17.744Z" transform="translate(440.836 9261.988)" fill="#12263f"/>
    <path id="Trazado_609418" data-name="Trazado 609418" d="M10.152,16.032a1.479,1.479,0,0,0-.559-1.23,6.946,6.946,0,0,0-1.964-.913,18.839,18.839,0,0,1-2.3-.913q-2.9-1.425-2.9-3.917A3.512,3.512,0,0,1,3.154,6.87,4.676,4.676,0,0,1,5.2,5.393a7.961,7.961,0,0,1,2.974-.528,6.963,6.963,0,0,1,2.886.574,4.57,4.57,0,0,1,1.984,1.635A4.271,4.271,0,0,1,13.751,9.5H10.162A1.8,1.8,0,0,0,9.6,8.085a2.178,2.178,0,0,0-1.512-.5,2.456,2.456,0,0,0-1.523.426,1.253,1.253,0,0,0,.056,2.123,7.758,7.758,0,0,0,2.164.964,13.254,13.254,0,0,1,2.543,1.072,4.273,4.273,0,0,1,2.42,3.845,3.645,3.645,0,0,1-1.477,3.076,6.568,6.568,0,0,1-4.05,1.118,8.036,8.036,0,0,1-3.286-.651A4.955,4.955,0,0,1,2.723,17.77a4.649,4.649,0,0,1-.743-2.61H5.589a2.29,2.29,0,0,0,.62,1.769,2.932,2.932,0,0,0,2.015.569,2.316,2.316,0,0,0,1.41-.385A1.269,1.269,0,0,0,10.152,16.032Zm10.654,4.173a5.7,5.7,0,0,1-4.132-1.523,5.258,5.258,0,0,1-1.579-3.963v-.287a6.814,6.814,0,0,1,.631-3,4.614,4.614,0,0,1,1.841-2.015A5.556,5.556,0,0,1,20.437,8.7a4.8,4.8,0,0,1,3.691,1.451A5.7,5.7,0,0,1,25.481,14.2V15.54h-6.87a2.491,2.491,0,0,0,.81,1.466,2.41,2.41,0,0,0,1.62.533A3.106,3.106,0,0,0,23.6,16.391l1.579,1.866a4.414,4.414,0,0,1-1.83,1.42A6.185,6.185,0,0,1,20.806,20.205Zm-.39-8.839q-1.518,0-1.8,2.01H22.1v-.267a1.712,1.712,0,0,0-.42-1.287A1.673,1.673,0,0,0,20.416,11.366Zm9.721-2.461.113,1.3A3.815,3.815,0,0,1,33.418,8.7a2.808,2.808,0,0,1,2.84,1.671A3.692,3.692,0,0,1,39.519,8.7q3.374,0,3.466,4.081V20H39.519V13a2.115,2.115,0,0,0-.287-1.241,1.222,1.222,0,0,0-1.046-.39,1.637,1.637,0,0,0-1.528.913l.01.144V20H33.2V13.017a2.223,2.223,0,0,0-.277-1.261,1.219,1.219,0,0,0-1.056-.39,1.657,1.657,0,0,0-1.518.913V20H26.9V8.905ZM48.6,20H45.138V8.905H48.6ZM44.933,6.044a1.542,1.542,0,0,1,.533-1.21,2.267,2.267,0,0,1,2.769,0,1.542,1.542,0,0,1,.533,1.21,1.542,1.542,0,0,1-.533,1.21,2.267,2.267,0,0,1-2.769,0A1.542,1.542,0,0,1,44.933,6.044ZM56.1,20.205a5.7,5.7,0,0,1-4.132-1.523,5.258,5.258,0,0,1-1.579-3.963v-.287a6.814,6.814,0,0,1,.631-3,4.614,4.614,0,0,1,1.841-2.015A5.556,5.556,0,0,1,55.73,8.7a4.8,4.8,0,0,1,3.691,1.451A5.7,5.7,0,0,1,60.775,14.2V15.54h-6.87a2.491,2.491,0,0,0,.81,1.466,2.41,2.41,0,0,0,1.62.533A3.106,3.106,0,0,0,58.9,16.391l1.579,1.866a4.414,4.414,0,0,1-1.83,1.42A6.185,6.185,0,0,1,56.1,20.205Zm-.39-8.839q-1.518,0-1.8,2.01h3.486v-.267a1.712,1.712,0,0,0-.42-1.287A1.673,1.673,0,0,0,55.71,11.366Zm12.264,5.517a.8.8,0,0,0-.461-.708,7.019,7.019,0,0,0-1.753-.554,8,8,0,0,1-2.133-.754,3.573,3.573,0,0,1-1.282-1.133,2.706,2.706,0,0,1-.441-1.528A3.066,3.066,0,0,1,63.165,9.69a5.2,5.2,0,0,1,3.3-.99,5.756,5.756,0,0,1,3.527.995,3.11,3.11,0,0,1,1.333,2.615H67.861q0-1.333-1.4-1.333a1.393,1.393,0,0,0-.913.3.937.937,0,0,0-.369.754.86.86,0,0,0,.451.749,4.263,4.263,0,0,0,1.441.472,12.45,12.45,0,0,1,1.738.441q2.5.861,2.5,3.086a2.906,2.906,0,0,1-1.348,2.471,5.913,5.913,0,0,1-3.491.954,6.034,6.034,0,0,1-2.543-.513A4.252,4.252,0,0,1,62.18,18.3a3.158,3.158,0,0,1-.625-1.856h3.23a1.335,1.335,0,0,0,.513,1.123,2.109,2.109,0,0,0,1.261.354,1.659,1.659,0,0,0,1.061-.287A.918.918,0,0,0,67.974,16.883ZM76.946,6.147V8.905h1.825v2.4H76.946V16.38a1.3,1.3,0,0,0,.226.872,1.21,1.21,0,0,0,.892.246,5.069,5.069,0,0,0,.861-.062v2.471a6.377,6.377,0,0,1-1.948.3,3.62,3.62,0,0,1-2.635-.841,3.446,3.446,0,0,1-.851-2.553V11.3H72.075v-2.4H73.49V6.147Zm9.9,5.886L85.7,11.951a2.044,2.044,0,0,0-2.092,1.025V20H80.155V8.905H83.4l.113,1.425a2.676,2.676,0,0,1,2.43-1.63,3.37,3.37,0,0,1,.964.123ZM94.7,18.8a3.563,3.563,0,0,1-2.963,1.4,3.494,3.494,0,0,1-2.763-1.061,4.463,4.463,0,0,1-.938-3.051V8.905h3.456v7.208a1.242,1.242,0,0,0,1.384,1.425,1.806,1.806,0,0,0,1.692-.851V8.905h3.476V20H94.8Zm9.926-1.261a1.537,1.537,0,0,0,1.128-.395,1.448,1.448,0,0,0,.39-1.1h3.24a3.836,3.836,0,0,1-1.307,2.994,4.863,4.863,0,0,1-3.368,1.169,4.924,4.924,0,0,1-3.814-1.518,5.979,5.979,0,0,1-1.395-4.2V14.34a6.758,6.758,0,0,1,.62-2.969A4.517,4.517,0,0,1,101.9,9.392a5.335,5.335,0,0,1,2.769-.692,4.8,4.8,0,0,1,3.435,1.2,4.255,4.255,0,0,1,1.271,3.25h-3.24a1.9,1.9,0,0,0-.42-1.323,1.451,1.451,0,0,0-1.128-.461q-1.343,0-1.569,1.712a12.083,12.083,0,0,0-.072,1.5,4.746,4.746,0,0,0,.4,2.317A1.384,1.384,0,0,0,104.621,17.539ZM114.865,6.147V8.905h1.825v2.4h-1.825V16.38a1.3,1.3,0,0,0,.226.872,1.21,1.21,0,0,0,.892.246,5.069,5.069,0,0,0,.861-.062v2.471a6.377,6.377,0,0,1-1.948.3,3.62,3.62,0,0,1-2.635-.841,3.446,3.446,0,0,1-.851-2.553V11.3h-1.415v-2.4h1.415V6.147ZM124.657,18.8a3.563,3.563,0,0,1-2.963,1.4,3.494,3.494,0,0,1-2.763-1.061,4.463,4.463,0,0,1-.938-3.051V8.905h3.456v7.208a1.242,1.242,0,0,0,1.384,1.425,1.806,1.806,0,0,0,1.692-.851V8.905H128V20h-3.24ZM136.6,12.033l-1.138-.082a2.044,2.044,0,0,0-2.092,1.025V20h-3.456V8.905h3.24l.113,1.425A2.676,2.676,0,0,1,135.7,8.7a3.37,3.37,0,0,1,.964.123ZM143.791,20a3.9,3.9,0,0,1-.328-.995,3.213,3.213,0,0,1-2.666,1.2,3.936,3.936,0,0,1-2.666-.948,3.019,3.019,0,0,1-1.1-2.384,3.1,3.1,0,0,1,1.333-2.728,6.791,6.791,0,0,1,3.876-.923h1.066v-.587q0-1.535-1.323-1.535a1.081,1.081,0,0,0-1.23,1.216H137.3A3.1,3.1,0,0,1,138.669,9.7a5.753,5.753,0,0,1,3.491-1,5.044,5.044,0,0,1,3.353,1.036,3.6,3.6,0,0,1,1.261,2.84v4.912a5.03,5.03,0,0,0,.472,2.338V20Zm-2.164-2.256a1.928,1.928,0,0,0,1.072-.277,1.735,1.735,0,0,0,.61-.625V15.068h-1q-1.8,0-1.8,1.62a.989.989,0,0,0,.318.764A1.15,1.15,0,0,0,141.627,17.744Zm6.624-3.374a6.777,6.777,0,0,1,1.138-4.153A3.746,3.746,0,0,1,152.568,8.7a3.186,3.186,0,0,1,2.5,1.169V4.25h3.466V20h-3.107l-.174-1.189a3.272,3.272,0,0,1-2.707,1.395,3.74,3.74,0,0,1-3.138-1.518A6.992,6.992,0,0,1,148.251,14.371Zm3.456.215q0,2.953,1.723,2.953a1.7,1.7,0,0,0,1.641-.964V12.351a1.655,1.655,0,0,0-1.62-.984q-1.6,0-1.733,2.584ZM166.75,20a3.9,3.9,0,0,1-.328-.995,3.213,3.213,0,0,1-2.666,1.2,3.936,3.936,0,0,1-2.666-.948,3.019,3.019,0,0,1-1.1-2.384,3.1,3.1,0,0,1,1.333-2.728,6.791,6.791,0,0,1,3.876-.923h1.066v-.587q0-1.535-1.323-1.535a1.081,1.081,0,0,0-1.23,1.216h-3.456A3.1,3.1,0,0,1,161.628,9.7a5.753,5.753,0,0,1,3.491-1,5.044,5.044,0,0,1,3.353,1.036,3.6,3.6,0,0,1,1.261,2.84v4.912a5.03,5.03,0,0,0,.472,2.338V20Zm-2.164-2.256a1.928,1.928,0,0,0,1.072-.277,1.735,1.735,0,0,0,.61-.625V15.068h-1q-1.8,0-1.8,1.62a.989.989,0,0,0,.318.764A1.15,1.15,0,0,0,164.586,17.744Z" transform="translate(670.836 9261.988)" fill="#12263f"/>
    <path id="Trazado_609419" data-name="Trazado 609419" d="M23.256,20H19.678l-5.291-9.29V20h-3.6V5.07h3.6l5.281,9.29V5.07h3.589Zm1.682-5.65a6.548,6.548,0,0,1,.646-2.958A4.62,4.62,0,0,1,27.44,9.4a5.59,5.59,0,0,1,2.84-.7,5.1,5.1,0,0,1,3.927,1.543,5.922,5.922,0,0,1,1.436,4.2v.123A5.746,5.746,0,0,1,34.2,18.682a5.115,5.115,0,0,1-3.9,1.523,5.173,5.173,0,0,1-3.8-1.42,5.555,5.555,0,0,1-1.548-3.85Zm3.456.215a4.128,4.128,0,0,0,.482,2.256,1.606,1.606,0,0,0,1.425.718q1.846,0,1.887-2.84V14.35q0-2.984-1.907-2.984-1.733,0-1.876,2.574Zm19.37,5.64a5.7,5.7,0,0,1-4.132-1.523,5.258,5.258,0,0,1-1.579-3.963v-.287a6.814,6.814,0,0,1,.631-3,4.614,4.614,0,0,1,1.841-2.015A5.556,5.556,0,0,1,47.394,8.7a4.8,4.8,0,0,1,3.691,1.451A5.7,5.7,0,0,1,52.439,14.2V15.54h-6.87a2.491,2.491,0,0,0,.81,1.466,2.41,2.41,0,0,0,1.62.533,3.106,3.106,0,0,0,2.563-1.148l1.579,1.866a4.414,4.414,0,0,1-1.83,1.42A6.185,6.185,0,0,1,47.763,20.205Zm-.39-8.839q-1.518,0-1.8,2.01h3.486v-.267a1.712,1.712,0,0,0-.42-1.287A1.673,1.673,0,0,0,47.374,11.366Zm12.264,5.517a.8.8,0,0,0-.461-.708,7.019,7.019,0,0,0-1.753-.554,8,8,0,0,1-2.133-.754,3.573,3.573,0,0,1-1.282-1.133,2.706,2.706,0,0,1-.441-1.528A3.066,3.066,0,0,1,54.828,9.69a5.2,5.2,0,0,1,3.3-.99,5.756,5.756,0,0,1,3.527.995A3.11,3.11,0,0,1,62.99,12.31H59.524q0-1.333-1.4-1.333a1.393,1.393,0,0,0-.913.3.937.937,0,0,0-.369.754.86.86,0,0,0,.451.749,4.263,4.263,0,0,0,1.441.472,12.45,12.45,0,0,1,1.738.441q2.5.861,2.5,3.086a2.906,2.906,0,0,1-1.348,2.471,5.913,5.913,0,0,1-3.491.954,6.034,6.034,0,0,1-2.543-.513A4.252,4.252,0,0,1,53.844,18.3a3.158,3.158,0,0,1-.625-1.856h3.23a1.335,1.335,0,0,0,.513,1.123,2.109,2.109,0,0,0,1.261.354,1.659,1.659,0,0,0,1.061-.287A.918.918,0,0,0,59.637,16.883ZM68.609,6.147V8.905h1.825v2.4H68.609V16.38a1.3,1.3,0,0,0,.226.872,1.21,1.21,0,0,0,.892.246,5.069,5.069,0,0,0,.861-.062v2.471a6.377,6.377,0,0,1-1.948.3A3.62,3.62,0,0,1,66,19.364a3.446,3.446,0,0,1-.851-2.553V11.3H63.739v-2.4h1.415V6.147Zm9.9,5.886-1.138-.082a2.044,2.044,0,0,0-2.092,1.025V20H71.819V8.905h3.24l.113,1.425A2.676,2.676,0,0,1,77.6,8.7a3.37,3.37,0,0,1,.964.123ZM86.359,18.8a3.563,3.563,0,0,1-2.963,1.4,3.494,3.494,0,0,1-2.763-1.061,4.463,4.463,0,0,1-.938-3.051V8.905h3.456v7.208a1.242,1.242,0,0,0,1.384,1.425,1.806,1.806,0,0,0,1.692-.851V8.905H89.7V20h-3.24Zm9.926-1.261a1.537,1.537,0,0,0,1.128-.395,1.448,1.448,0,0,0,.39-1.1h3.24a3.836,3.836,0,0,1-1.307,2.994,4.863,4.863,0,0,1-3.368,1.169,4.924,4.924,0,0,1-3.814-1.518,5.979,5.979,0,0,1-1.395-4.2V14.34a6.758,6.758,0,0,1,.62-2.969,4.517,4.517,0,0,1,1.789-1.979A5.335,5.335,0,0,1,96.336,8.7a4.8,4.8,0,0,1,3.435,1.2,4.255,4.255,0,0,1,1.271,3.25H97.8a1.9,1.9,0,0,0-.42-1.323,1.451,1.451,0,0,0-1.128-.461q-1.343,0-1.569,1.712a12.083,12.083,0,0,0-.072,1.5,4.746,4.746,0,0,0,.4,2.317A1.384,1.384,0,0,0,96.285,17.539ZM106.528,6.147V8.905h1.825v2.4h-1.825V16.38a1.3,1.3,0,0,0,.226.872,1.21,1.21,0,0,0,.892.246,5.069,5.069,0,0,0,.861-.062v2.471a6.377,6.377,0,0,1-1.948.3,3.62,3.62,0,0,1-2.635-.841,3.446,3.446,0,0,1-.851-2.553V11.3h-1.415v-2.4h1.415V6.147ZM116.321,18.8a3.563,3.563,0,0,1-2.963,1.4,3.494,3.494,0,0,1-2.763-1.061,4.463,4.463,0,0,1-.938-3.051V8.905h3.456v7.208a1.242,1.242,0,0,0,1.384,1.425,1.806,1.806,0,0,0,1.692-.851V8.905h3.476V20h-3.24Zm11.946-6.768-1.138-.082a2.044,2.044,0,0,0-2.092,1.025V20h-3.456V8.905h3.24l.113,1.425a2.676,2.676,0,0,1,2.43-1.63,3.37,3.37,0,0,1,.964.123ZM135.455,20a3.9,3.9,0,0,1-.328-.995,3.213,3.213,0,0,1-2.666,1.2,3.936,3.936,0,0,1-2.666-.948,3.019,3.019,0,0,1-1.1-2.384,3.1,3.1,0,0,1,1.333-2.728,6.791,6.791,0,0,1,3.876-.923h1.066v-.587q0-1.535-1.323-1.535a1.081,1.081,0,0,0-1.23,1.216h-3.456A3.1,3.1,0,0,1,130.333,9.7a5.753,5.753,0,0,1,3.491-1,5.044,5.044,0,0,1,3.353,1.036,3.6,3.6,0,0,1,1.261,2.84v4.912a5.03,5.03,0,0,0,.472,2.338V20Zm-2.164-2.256a1.928,1.928,0,0,0,1.072-.277,1.735,1.735,0,0,0,.61-.625V15.068h-1q-1.8,0-1.8,1.62a.989.989,0,0,0,.318.764A1.15,1.15,0,0,0,133.291,17.744Zm6.624-3.374a6.777,6.777,0,0,1,1.138-4.153A3.746,3.746,0,0,1,144.232,8.7a3.186,3.186,0,0,1,2.5,1.169V4.25H150.2V20h-3.107l-.174-1.189a3.272,3.272,0,0,1-2.707,1.395,3.74,3.74,0,0,1-3.138-1.518A6.992,6.992,0,0,1,139.915,14.371Zm3.456.215q0,2.953,1.723,2.953a1.7,1.7,0,0,0,1.641-.964V12.351a1.655,1.655,0,0,0-1.62-.984q-1.6,0-1.733,2.584ZM158.413,20a3.9,3.9,0,0,1-.328-.995,3.213,3.213,0,0,1-2.666,1.2,3.936,3.936,0,0,1-2.666-.948,3.019,3.019,0,0,1-1.1-2.384,3.1,3.1,0,0,1,1.333-2.728,6.791,6.791,0,0,1,3.876-.923h1.066v-.587q0-1.535-1.323-1.535a1.081,1.081,0,0,0-1.23,1.216h-3.456A3.1,3.1,0,0,1,153.291,9.7a5.753,5.753,0,0,1,3.491-1,5.044,5.044,0,0,1,3.353,1.036,3.6,3.6,0,0,1,1.261,2.84v4.912a5.03,5.03,0,0,0,.472,2.338V20Zm-2.164-2.256a1.928,1.928,0,0,0,1.072-.277,1.735,1.735,0,0,0,.61-.625V15.068h-1q-1.8,0-1.8,1.62a.989.989,0,0,0,.318.764A1.15,1.15,0,0,0,156.25,17.744Z" transform="translate(921.664 9261.988)" fill="#12263f"/>
    <path id="Trazado_609420" data-name="Trazado 609420" d="M45.743,14.053h-5.8V20h-3.6V5.07h9.987V7.849H39.939v3.435h5.8Zm1.271.3a6.548,6.548,0,0,1,.646-2.958A4.62,4.62,0,0,1,49.517,9.4a5.59,5.59,0,0,1,2.84-.7,5.1,5.1,0,0,1,3.927,1.543,5.922,5.922,0,0,1,1.436,4.2v.123a5.746,5.746,0,0,1-1.441,4.117,5.115,5.115,0,0,1-3.9,1.523,5.173,5.173,0,0,1-3.8-1.42,5.555,5.555,0,0,1-1.548-3.85Zm3.456.215a4.128,4.128,0,0,0,.482,2.256,1.606,1.606,0,0,0,1.425.718q1.846,0,1.887-2.84V14.35q0-2.984-1.907-2.984-1.733,0-1.876,2.574Zm13.463,2.974a1.537,1.537,0,0,0,1.128-.395,1.448,1.448,0,0,0,.39-1.1h3.24a3.836,3.836,0,0,1-1.307,2.994,4.863,4.863,0,0,1-3.368,1.169A4.924,4.924,0,0,1,60.2,18.688a5.979,5.979,0,0,1-1.395-4.2V14.34a6.758,6.758,0,0,1,.62-2.969,4.517,4.517,0,0,1,1.789-1.979A5.335,5.335,0,0,1,63.985,8.7,4.8,4.8,0,0,1,67.42,9.9a4.255,4.255,0,0,1,1.271,3.25h-3.24a1.9,1.9,0,0,0-.42-1.323,1.451,1.451,0,0,0-1.128-.461q-1.343,0-1.569,1.712a12.083,12.083,0,0,0-.072,1.5,4.746,4.746,0,0,0,.4,2.317A1.384,1.384,0,0,0,63.934,17.539ZM76.4,20a3.9,3.9,0,0,1-.328-.995,3.213,3.213,0,0,1-2.666,1.2,3.936,3.936,0,0,1-2.666-.948,3.019,3.019,0,0,1-1.1-2.384,3.1,3.1,0,0,1,1.333-2.728,6.791,6.791,0,0,1,3.876-.923H75.92v-.587q0-1.535-1.323-1.535a1.081,1.081,0,0,0-1.23,1.216H69.912A3.1,3.1,0,0,1,71.281,9.7a5.753,5.753,0,0,1,3.491-1,5.044,5.044,0,0,1,3.353,1.036,3.6,3.6,0,0,1,1.261,2.84v4.912a5.03,5.03,0,0,0,.472,2.338V20Zm-2.164-2.256a1.928,1.928,0,0,0,1.072-.277,1.735,1.735,0,0,0,.61-.625V15.068h-1q-1.8,0-1.8,1.62a.989.989,0,0,0,.318.764A1.15,1.15,0,0,0,74.239,17.744ZM84.944,20H81.478V4.25h3.466Zm5.773,0H87.251V8.905h3.466ZM87.046,6.044a1.542,1.542,0,0,1,.533-1.21,2.267,2.267,0,0,1,2.769,0,1.542,1.542,0,0,1,.533,1.21,1.542,1.542,0,0,1-.533,1.21,2.267,2.267,0,0,1-2.769,0A1.542,1.542,0,0,1,87.046,6.044Zm9.875,11.29h5.055V20H92.552V18.072l4.922-6.5H92.768V8.905h9.1v1.866ZM109.9,20a3.9,3.9,0,0,1-.328-.995,3.213,3.213,0,0,1-2.666,1.2,3.936,3.936,0,0,1-2.666-.948,3.019,3.019,0,0,1-1.1-2.384,3.1,3.1,0,0,1,1.333-2.728,6.791,6.791,0,0,1,3.876-.923h1.066v-.587q0-1.535-1.323-1.535a1.081,1.081,0,0,0-1.23,1.216h-3.456A3.1,3.1,0,0,1,104.78,9.7a5.753,5.753,0,0,1,3.491-1,5.044,5.044,0,0,1,3.353,1.036,3.6,3.6,0,0,1,1.261,2.84v4.912a5.03,5.03,0,0,0,.472,2.338V20Zm-2.164-2.256a1.928,1.928,0,0,0,1.072-.277,1.735,1.735,0,0,0,.61-.625V15.068h-1q-1.8,0-1.8,1.62a.989.989,0,0,0,.318.764A1.15,1.15,0,0,0,107.738,17.744Zm6.624-3.374a6.777,6.777,0,0,1,1.138-4.153A3.746,3.746,0,0,1,118.679,8.7a3.186,3.186,0,0,1,2.5,1.169V4.25h3.466V20H121.54l-.174-1.189a3.272,3.272,0,0,1-2.707,1.395,3.74,3.74,0,0,1-3.138-1.518A6.992,6.992,0,0,1,114.362,14.371Zm3.456.215q0,2.953,1.723,2.953a1.7,1.7,0,0,0,1.641-.964V12.351a1.655,1.655,0,0,0-1.62-.984q-1.6,0-1.733,2.584ZM132.86,20a3.9,3.9,0,0,1-.328-.995,3.213,3.213,0,0,1-2.666,1.2,3.936,3.936,0,0,1-2.666-.948,3.019,3.019,0,0,1-1.1-2.384,3.1,3.1,0,0,1,1.333-2.728,6.791,6.791,0,0,1,3.876-.923h1.066v-.587q0-1.535-1.323-1.535a1.081,1.081,0,0,0-1.23,1.216H126.37A3.1,3.1,0,0,1,127.739,9.7a5.753,5.753,0,0,1,3.491-1,5.044,5.044,0,0,1,3.353,1.036,3.6,3.6,0,0,1,1.261,2.84v4.912a5.03,5.03,0,0,0,.472,2.338V20ZM130.7,17.744a1.928,1.928,0,0,0,1.072-.277,1.735,1.735,0,0,0,.61-.625V15.068h-1q-1.8,0-1.8,1.62a.989.989,0,0,0,.318.764A1.15,1.15,0,0,0,130.7,17.744Z" transform="translate(976.664 9396.988)" fill="#12263f"/>
    <path id="Trazado_609421" data-name="Trazado 609421" d="M47.65,20H44.072l-5.291-9.29V20h-3.6V5.07h3.6l5.281,9.29V5.07H47.65Zm1.682-5.65a6.548,6.548,0,0,1,.646-2.958A4.62,4.62,0,0,1,51.834,9.4a5.59,5.59,0,0,1,2.84-.7A5.1,5.1,0,0,1,58.6,10.243a5.922,5.922,0,0,1,1.436,4.2v.123A5.746,5.746,0,0,1,58.6,18.682a5.115,5.115,0,0,1-3.9,1.523,5.173,5.173,0,0,1-3.8-1.42,5.555,5.555,0,0,1-1.548-3.85Zm3.456.215a4.128,4.128,0,0,0,.482,2.256,1.606,1.606,0,0,0,1.425.718q1.846,0,1.887-2.84V14.35q0-2.984-1.907-2.984-1.733,0-1.876,2.574Zm13.566-.195a6.777,6.777,0,0,1,1.138-4.153A3.746,3.746,0,0,1,70.67,8.7a3.186,3.186,0,0,1,2.5,1.169V4.25h3.466V20H73.531l-.174-1.189a3.272,3.272,0,0,1-2.707,1.395,3.74,3.74,0,0,1-3.138-1.518A6.992,6.992,0,0,1,66.354,14.371Zm3.456.215q0,2.953,1.723,2.953a1.7,1.7,0,0,0,1.641-.964V12.351a1.655,1.655,0,0,0-1.62-.984q-1.6,0-1.733,2.584ZM82.247,20H78.781V8.905h3.466ZM78.576,6.044a1.542,1.542,0,0,1,.533-1.21,2.267,2.267,0,0,1,2.769,0,1.542,1.542,0,0,1,.533,1.21,1.542,1.542,0,0,1-.533,1.21,2.267,2.267,0,0,1-2.769,0A1.542,1.542,0,0,1,78.576,6.044Zm12.51,5.988-1.138-.082a2.044,2.044,0,0,0-2.092,1.025V20H84.4V8.905h3.24l.113,1.425a2.676,2.676,0,0,1,2.43-1.63,3.37,3.37,0,0,1,.964.123ZM95.977,20H92.511V8.905h3.466ZM92.306,6.044a1.542,1.542,0,0,1,.533-1.21,2.267,2.267,0,0,1,2.769,0,1.542,1.542,0,0,1,.533,1.21,1.542,1.542,0,0,1-.533,1.21,2.267,2.267,0,0,1-2.769,0A1.542,1.542,0,0,1,92.306,6.044ZM97.7,14.371a7.491,7.491,0,0,1,.554-2.974A4.458,4.458,0,0,1,99.843,9.4a4.19,4.19,0,0,1,2.41-.7,3.331,3.331,0,0,1,2.707,1.169l.123-.964h3.138V19.58a4.678,4.678,0,0,1-.682,2.548,4.375,4.375,0,0,1-1.974,1.661,7.255,7.255,0,0,1-2.994.579,6.259,6.259,0,0,1-2.364-.461,4.266,4.266,0,0,1-1.748-1.2l1.446-2.03a3.169,3.169,0,0,0,2.543,1.138,2.058,2.058,0,0,0,2.3-2.358v-.349a3.245,3.245,0,0,1-2.512,1.1,4.01,4.01,0,0,1-3.281-1.553A6.436,6.436,0,0,1,97.7,14.494Zm3.466.215a3.947,3.947,0,0,0,.513,2.158,1.618,1.618,0,0,0,1.436.795,1.835,1.835,0,0,0,1.63-.749V12.125a1.789,1.789,0,0,0-1.61-.759,1.628,1.628,0,0,0-1.446.825A4.5,4.5,0,0,0,101.166,14.586ZM113.829,20h-3.466V8.905h3.466ZM110.158,6.044a1.542,1.542,0,0,1,.533-1.21,2.267,2.267,0,0,1,2.769,0,1.542,1.542,0,0,1,.533,1.21,1.542,1.542,0,0,1-.533,1.21,2.267,2.267,0,0,1-2.769,0A1.542,1.542,0,0,1,110.158,6.044Zm5.363,8.326a6.777,6.777,0,0,1,1.138-4.153A3.746,3.746,0,0,1,119.838,8.7a3.186,3.186,0,0,1,2.5,1.169V4.25h3.466V20H122.7l-.174-1.189a3.272,3.272,0,0,1-2.707,1.395,3.74,3.74,0,0,1-3.138-1.518A6.992,6.992,0,0,1,115.521,14.371Zm3.456.215q0,2.953,1.723,2.953a1.7,1.7,0,0,0,1.641-.964V12.351a1.655,1.655,0,0,0-1.62-.984q-1.6,0-1.733,2.584ZM134.019,20a3.9,3.9,0,0,1-.328-.995,3.213,3.213,0,0,1-2.666,1.2,3.936,3.936,0,0,1-2.666-.948,3.019,3.019,0,0,1-1.1-2.384,3.1,3.1,0,0,1,1.333-2.728,6.791,6.791,0,0,1,3.876-.923h1.066v-.587q0-1.535-1.323-1.535a1.081,1.081,0,0,0-1.23,1.216h-3.456A3.1,3.1,0,0,1,128.9,9.7a5.753,5.753,0,0,1,3.491-1,5.044,5.044,0,0,1,3.353,1.036A3.6,3.6,0,0,1,137,12.576v4.912a5.03,5.03,0,0,0,.472,2.338V20Zm-2.164-2.256a1.928,1.928,0,0,0,1.072-.277,1.735,1.735,0,0,0,.61-.625V15.068h-1q-1.8,0-1.8,1.62a.989.989,0,0,0,.318.764A1.15,1.15,0,0,0,131.855,17.744ZM6.343,39.35a6.548,6.548,0,0,1,.646-2.958A4.62,4.62,0,0,1,8.844,34.4a5.59,5.59,0,0,1,2.84-.7,5.1,5.1,0,0,1,3.927,1.543,5.922,5.922,0,0,1,1.436,4.2v.123a5.746,5.746,0,0,1-1.441,4.117,5.115,5.115,0,0,1-3.9,1.523,5.173,5.173,0,0,1-3.8-1.42,5.555,5.555,0,0,1-1.548-3.85Zm3.456.215a4.128,4.128,0,0,0,.482,2.256,1.606,1.606,0,0,0,1.425.718q1.846,0,1.887-2.84V39.35q0-2.984-1.907-2.984-1.733,0-1.876,2.574Zm19.37,5.64a5.7,5.7,0,0,1-4.132-1.523,5.258,5.258,0,0,1-1.579-3.963v-.287a6.814,6.814,0,0,1,.631-3,4.614,4.614,0,0,1,1.841-2.015A5.556,5.556,0,0,1,28.8,33.7a4.8,4.8,0,0,1,3.691,1.451A5.7,5.7,0,0,1,33.844,39.2V40.54h-6.87a2.491,2.491,0,0,0,.81,1.466,2.41,2.41,0,0,0,1.62.533,3.106,3.106,0,0,0,2.563-1.148l1.579,1.866a4.414,4.414,0,0,1-1.83,1.42A6.185,6.185,0,0,1,29.168,45.205Zm-.39-8.839q-1.518,0-1.8,2.01H30.46v-.267a1.712,1.712,0,0,0-.42-1.287A1.673,1.673,0,0,0,28.778,36.366Zm9.628-2.461.113,1.3A3.762,3.762,0,0,1,41.688,33.7a3.165,3.165,0,0,1,2.589,1.036,4.93,4.93,0,0,1,.887,3.117V45H41.7V38a1.872,1.872,0,0,0-.338-1.236,1.565,1.565,0,0,0-1.23-.395,1.648,1.648,0,0,0-1.507.8V45H35.166V33.905Zm24.2,5.629a6.691,6.691,0,0,1-1.164,4.127A3.731,3.731,0,0,1,58.3,45.205a3.2,3.2,0,0,1-2.512-1.118v5.178H52.331V33.905h3.23l.1,1.025a3.2,3.2,0,0,1,2.615-1.23,3.761,3.761,0,0,1,3.189,1.512,6.773,6.773,0,0,1,1.138,4.158Zm-3.456-.215q0-2.953-1.723-2.953a1.626,1.626,0,0,0-1.641.882v4.368a1.679,1.679,0,0,0,1.661.923q1.651,0,1.7-2.851ZM70.84,37.033,69.7,36.951a2.044,2.044,0,0,0-2.092,1.025V45H64.154V33.905h3.24l.113,1.425a2.676,2.676,0,0,1,2.43-1.63,3.37,3.37,0,0,1,.964.123Zm.441,2.317a6.548,6.548,0,0,1,.646-2.958A4.62,4.62,0,0,1,73.782,34.4a5.59,5.59,0,0,1,2.84-.7,5.1,5.1,0,0,1,3.927,1.543,5.922,5.922,0,0,1,1.436,4.2v.123a5.746,5.746,0,0,1-1.441,4.117,5.115,5.115,0,0,1-3.9,1.523,5.173,5.173,0,0,1-3.8-1.42,5.555,5.555,0,0,1-1.548-3.85Zm3.456.215a4.128,4.128,0,0,0,.482,2.256,1.606,1.606,0,0,0,1.425.718q1.846,0,1.887-2.84V39.35q0-2.984-1.907-2.984-1.733,0-1.876,2.574ZM84.272,45V36.3h-1.61v-2.4h1.61v-.882a3.833,3.833,0,0,1,1.118-2.943,4.416,4.416,0,0,1,3.138-1.046,6.871,6.871,0,0,1,1.62.215l.01,2.543a3.157,3.157,0,0,0-.851-.092q-1.569,0-1.569,1.354v.851H89.9v2.4H87.738V45Zm13.453-1.2a3.563,3.563,0,0,1-2.963,1.4A3.494,3.494,0,0,1,92,44.144a4.463,4.463,0,0,1-.938-3.051V33.905h3.456v7.208A1.242,1.242,0,0,0,95.9,42.539a1.806,1.806,0,0,0,1.692-.851V33.905h3.476V45h-3.24Zm8.408-9.9.113,1.3a3.762,3.762,0,0,1,3.168-1.507A3.165,3.165,0,0,1,112,34.736a4.93,4.93,0,0,1,.887,3.117V45h-3.466V38a1.872,1.872,0,0,0-.338-1.236,1.565,1.565,0,0,0-1.23-.395,1.648,1.648,0,0,0-1.507.8V45h-3.456V33.905Zm8.234,5.465a6.777,6.777,0,0,1,1.138-4.153,3.746,3.746,0,0,1,3.179-1.518,3.186,3.186,0,0,1,2.5,1.169V29.25h3.466V45h-3.107l-.174-1.189a3.272,3.272,0,0,1-2.707,1.395,3.74,3.74,0,0,1-3.138-1.518A6.992,6.992,0,0,1,114.367,39.371Zm3.456.215q0,2.953,1.723,2.953a1.7,1.7,0,0,0,1.641-.964V37.351a1.655,1.655,0,0,0-1.62-.984q-1.6,0-1.733,2.584ZM130.261,45H126.8V33.905h3.466ZM126.59,31.044a1.542,1.542,0,0,1,.533-1.21,2.267,2.267,0,0,1,2.769,0,1.639,1.639,0,0,1,0,2.42,2.267,2.267,0,0,1-2.769,0A1.542,1.542,0,0,1,126.59,31.044Zm5.363,8.326a6.777,6.777,0,0,1,1.138-4.153A3.746,3.746,0,0,1,136.27,33.7a3.186,3.186,0,0,1,2.5,1.169V29.25h3.466V45h-3.107l-.174-1.189a3.272,3.272,0,0,1-2.707,1.395,3.74,3.74,0,0,1-3.138-1.518A6.992,6.992,0,0,1,131.953,39.371Zm3.456.215q0,2.953,1.723,2.953a1.7,1.7,0,0,0,1.641-.964V37.351a1.655,1.655,0,0,0-1.62-.984q-1.6,0-1.733,2.584ZM150.451,45a3.9,3.9,0,0,1-.328-.995,3.213,3.213,0,0,1-2.666,1.2,3.936,3.936,0,0,1-2.666-.948,3.019,3.019,0,0,1-1.1-2.384,3.1,3.1,0,0,1,1.333-2.728,6.791,6.791,0,0,1,3.876-.923h1.066v-.587q0-1.535-1.323-1.535a1.081,1.081,0,0,0-1.23,1.216H143.96a3.1,3.1,0,0,1,1.369-2.612,5.753,5.753,0,0,1,3.491-1,5.044,5.044,0,0,1,3.353,1.036,3.6,3.6,0,0,1,1.261,2.84v4.912a5.03,5.03,0,0,0,.472,2.338V45Zm-2.164-2.256a1.928,1.928,0,0,0,1.072-.277,1.735,1.735,0,0,0,.61-.625V40.068h-1q-1.8,0-1.8,1.62a.989.989,0,0,0,.318.764A1.15,1.15,0,0,0,148.287,42.744Zm6.624-3.374a6.777,6.777,0,0,1,1.138-4.153,3.746,3.746,0,0,1,3.179-1.518,3.186,3.186,0,0,1,2.5,1.169V29.25H165.2V45h-3.107l-.174-1.189a3.272,3.272,0,0,1-2.707,1.395,3.74,3.74,0,0,1-3.138-1.518A6.992,6.992,0,0,1,154.911,39.371Zm3.456.215q0,2.953,1.723,2.953a1.7,1.7,0,0,0,1.641-.964V37.351a1.655,1.655,0,0,0-1.62-.984q-1.6,0-1.733,2.584Z" transform="translate(976.664 9519.488)" fill="#12263f"/>
    <g id="Grupo_1014953" data-name="Grupo 1014953" transform="translate(970 10938.521) rotate(180)">
      <circle id="Elipse_4717" data-name="Elipse 4717" cx="2.5" cy="2.5" r="2.5" transform="translate(285 1811.532)" fill="#60cb28"/>
      <circle id="Elipse_4719" data-name="Elipse 4719" cx="2.5" cy="2.5" r="2.5" transform="translate(285 1823.532)" fill="#60cb28"/>
      <circle id="Elipse_4716" data-name="Elipse 4716" cx="2.5" cy="2.5" r="2.5" transform="translate(297 1811.532)" fill="#60cb28"/>
      <circle id="Elipse_4721" data-name="Elipse 4721" cx="2.5" cy="2.5" r="2.5" transform="translate(308 1811.532)" fill="#60cb28"/>
      <circle id="Elipse_4718" data-name="Elipse 4718" cx="2.5" cy="2.5" r="2.5" transform="translate(297 1823.532)" fill="#60cb28"/>
      <circle id="Elipse_4722" data-name="Elipse 4722" cx="2.5" cy="2.5" r="2.5" transform="translate(308 1823.532)" fill="#60cb28"/>
    </g>
    <path id="Trazado_609422" data-name="Trazado 609422" d="M4.5,0h19a4.5,4.5,0,0,1,0,9H4.5a4.5,4.5,0,0,1,0-9Z" transform="translate(427.336 9221)" fill="#7e10b8"/>
    <path id="Trazado_609423" data-name="Trazado 609423" d="M4.5,0h19a4.5,4.5,0,0,1,0,9H4.5a4.5,4.5,0,0,1,0-9Z" transform="translate(665.336 9221)" fill="#7e10b8"/>
    <path id="Trazado_609424" data-name="Trazado 609424" d="M4.5,0h19a4.5,4.5,0,0,1,0,9H4.5a4.5,4.5,0,0,1,0-9Z" transform="translate(915.336 9221)" fill="#7e10b8"/>
  </g>
</svg>
