<svg id="Group_43" data-name="Group 43" xmlns="http://www.w3.org/2000/svg" width="527.659" height="351.073" viewBox="0 0 527.659 351.073">
  <path id="Trazado_605298" data-name="Trazado 605298" d="M799.018,364.282a64.3,64.3,0,0,0,7.027-16.541l12.437-2.378.127-13.753.126-13.753-12.388-2.612a64.136,64.136,0,0,0-6.716-16.667l7.106-10.468-9.63-9.815-9.63-9.815-10.595,6.9a64.3,64.3,0,0,0-16.541-7.028l-2.378-12.437-13.753-.126-13.753-.127-2.612,12.389a64.122,64.122,0,0,0-16.667,6.716l-10.468-7.106-9.815,9.63-9.815,9.63,6.9,10.595a64.311,64.311,0,0,0-7.028,16.541l-12.437,2.378-.127,13.753-.126,13.753,12.388,2.612a64.151,64.151,0,0,0,6.716,16.668l-7.106,10.468,9.63,9.815,9.63,9.815,10.595-6.91a64.321,64.321,0,0,0,16.541,7.028l2.379,12.437,13.753.127,13.753.126,2.612-12.388a64.14,64.14,0,0,0,16.667-6.716l10.468,7.106,9.815-9.63,9.815-9.63-6.9-10.595Zm-79.593-9.757a33.718,33.718,0,1,1,47.682.448A33.715,33.715,0,0,1,719.424,354.525Z" transform="translate(-291.077 -111.359)" fill="#d2aee6"/>
  <path id="Trazado_605299" data-name="Trazado 605299" d="M243.66,191.672a48.22,48.22,0,0,0,3.957-12.827l9.055-2.719-.955-10.224-.956-10.225-9.4-.995a48.133,48.133,0,0,0-6.257-11.872l4.474-8.314-7.9-6.56-7.9-6.56-7.349,5.936a48.22,48.22,0,0,0-12.827-3.957l-2.719-9.055-10.224.956-10.225.955-.995,9.406a48.135,48.135,0,0,0-11.872,6.258l-8.314-4.474-6.56,7.9-6.56,7.9,5.936,7.349a48.21,48.21,0,0,0-3.957,12.827l-9.055,2.719.956,10.225.955,10.225,9.4.994a48.113,48.113,0,0,0,6.257,11.872l-4.474,8.315,7.9,6.559,7.9,6.56,7.349-5.936a48.261,48.261,0,0,0,12.827,3.957l2.719,9.055,10.225-.955,10.225-.955.994-9.406a48.133,48.133,0,0,0,11.872-6.257l8.314,4.474,6.56-7.9,6.56-7.9ZM183.8,190.5a27,27,0,1,0,.01-.01Z" transform="translate(-62.31 -49.786)" fill="#d2aee6"/>
  <path id="Trazado_605300" data-name="Trazado 605300" d="M627.613,423.527h-.858V362.248a24.755,24.755,0,0,0-24.728-24.728H538.984A25.613,25.613,0,0,1,513.4,311.935V197.408a24.755,24.755,0,0,0-24.728-24.728H327.915v-.858H488.671a25.614,25.614,0,0,1,25.586,25.585V311.945a24.755,24.755,0,0,0,24.728,24.728h63.043a25.614,25.614,0,0,1,25.586,25.586v61.269Z" transform="translate(-142.831 -74.841)" fill="#64a4ff"/>
  <path id="Trazado_605301" data-name="Trazado 605301" d="M374.515,103.052s9.727,38.744-13.626,49.329-18.88-8.8-18.88-8.8-9.581-2.661,16.491-17.447c12.291-6.969,16.024-23.09,16.024-23.09Z" transform="translate(-148.221 -44.882)" fill="#60cb28"/>
  <path id="Trazado_605302" data-name="Trazado 605302" d="M439.908,109.045s4.786,33.773-39.416,48.364-50.508,33.11-50.508,33.11-1.326-74.846,89.925-81.484Z" transform="translate(-152.443 -47.493)" fill="#4ca220"/>
  <path id="Trazado_605303" data-name="Trazado 605303" d="M347.243,205.021c-13.11-5,18.051-31.834,42-31.1s40.177,9.591,56.211,5.838C445.453,179.757,411.8,229.662,347.243,205.021Z" transform="translate(-149.897 -75.748)" fill="#397a18"/>
  <path id="Trazado_605304" data-name="Trazado 605304" d="M332.1,230.839q1.126-15.279,1.579-28.588c-2.456-1.306-5.409-2.827-7.778-3.948-7.319-3.48-17.505-8.178-24.055-11.18-3.83-1.764-7.583-3.041-7.583-3.041s-26.141-2.5-28.266-2.368a66.43,66.43,0,0,0-8.227,2.807c-9.269,3.519-27.145,10.682-29.991,12.719-4.172,2.993-19.1,76.192-19.5,81.163-.39,4.825,20.313,11.433,39.475,16.5-.01,7.418-.165,17.818-.331,27.311-.029,1.618-.058,3.217-.087,4.756h83.862c-.117-1.628-.214-3.236-.292-4.756,0-.2-.019-.4-.029-.6-.321-6.423-1.569-17.944-1.247-29.153,0,0-.2-11.823.975-16.911.126-22.466,1.491-44.709,1.491-44.709ZM225.749,273.872c.137-9.533,12.827-27.252,12.827-27.252a4.453,4.453,0,0,1,.595-.225s.653-.087.653-.078,1.969-1.871,1.988-1.871c.468,1.7,4.668,25.634,5.7,39.572C235.593,281.679,225.681,278.423,225.749,273.872Z" transform="translate(-90.716 -79.148)" fill="#dbd8e3"/>
  <path id="Trazado_605305" data-name="Trazado 605305" d="M403.3,325.264c-.555-3.967-1.072-7.934-1.54-11.823v-.059c-.156-1.3-.3-2.573-.449-3.84a1.812,1.812,0,0,0-.019-.2c-.614-5.351-1.121-10.478-1.491-15.186a48.066,48.066,0,0,1,.468-10.556c1.462-24.026,2.183-49.368,2.183-49.368.77-10.371,1.208-20.059,1.5-29.095,0,0-32.828-15.517-35.8-16.4,0,0,6.228,14.62,10.9,47.3,1.793,12.554,5.117,33.676,7.534,55.246,1.306,11.638,3.753,23.5,5.614,33.988.283,1.618.555,3.206.809,4.756h10.985q-.351-2.369-.672-4.756Z" transform="translate(-160.356 -82.205)" fill="#323657"/>
  <path id="Trazado_605306" data-name="Trazado 605306" d="M274.966,284.658c1.3-12.154,2.456-24.279,1.9-30.917-4.532-53.413-17.34-67.556-19.2-69.622-1.433.546-6.9,2.6-8.5,3.236-8.763,3.45-26.619,9.786-29.026,11.511-4.172,2.993-20.625,79.73-21.122,84.691-.331,3.353,21.141,10.361,43.052,16.618-.2,6,.361,14.474-1.628,23.324a20.266,20.266,0,0,0-.945,4.64l30.537-.117c.185-1.579.38-3.158.575-4.756.585-4.776,1.189-9.659,1.793-14.854,9.162,2.368,15.381,3.9,15.381,3.9s8.606-14.542,11.1-20.429c.429-1-10.643-3.665-23.909-7.2Zm-39.495-18.383c-.292-10.936-.234-18.568-.234-18.568,1.082,3.743,2.583,14.455,3.9,25.1-4.435-2.232-3.606-4.318-3.655-6.53Z" transform="translate(-86.685 -80.197)" fill="#323657"/>
  <path id="Trazado_605307" data-name="Trazado 605307" d="M308.142,163.88s3.324-6.287,2.407-24.124c-.253-4.942,25.956,11.716,25.956,11.716s-.088,1.706-.146,4.006c-.029.955-.049,2.008-.049,3.08v.9c0,.488,0,.975.019,1.452.01.595.039,1.189.068,1.755.029.643.078,1.247.137,1.8a15.93,15.93,0,0,0,.975,3.5c1.2,2.768-19.543,2.934-29.358-4.084Z" transform="translate(-134.218 -60.475)" fill="#eea987"/>
  <path id="Trazado_605308" data-name="Trazado 605308" d="M344.733,203.3l4.834,6.491s-2.826,3.791-7.856.994Z" transform="translate(-148.84 -88.554)" fill="#e8734d"/>
  <path id="Trazado_605309" data-name="Trazado 605309" d="M350.243,215.119s17.7,43.228,13.919,98.132l-5.585,10.127-6.3-8.626s-1.014-72.926-6.043-99.808l4,.176Z" transform="translate(-150.811 -93.623)" fill="#e8734d"/>
  <path id="Trazado_605310" data-name="Trazado 605310" d="M343.78,191.154l-5.175,6.052s-8.3-1.608-10.741-5.946,15.907-.107,15.907-.107Z" transform="translate(-142.711 -82.456)" fill="#eea987"/>
  <path id="Trazado_605311" data-name="Trazado 605311" d="M353.438,183.186s-.6,4.61-6.355,11.346l6.287,8.44,3.4-17.515Z" transform="translate(-151.18 -79.791)" fill="#c4c1cc"/>
  <path id="Trazado_605312" data-name="Trazado 605312" d="M308.893,173.36s12,13.578,20.4,16.892l-3.9,9.659L306.242,178.78l2.661-5.42Z" transform="translate(-133.391 -75.511)" fill="#c4c1cc"/>
  <path id="Trazado_605313" data-name="Trazado 605313" d="M472.568,313.947s-15.937-15.449-26.385-18.022c-4.834-1.189-11.189-7.856-17.242-15.693-1.988-2.583-3.948-5.293-5.809-7.973v-.01c-7.418-10.712-13.227-20.975-13.227-20.975s-21.93-25.693-4.327-37.146c0,0,7.544-.165,11.677,2.086,4.25,2.31,13.324,21.238,14.864,24.592s18.2,34.484,19.318,35.186,2.973,3.256,9.64,6.852c8.158,4.4,20.985,17.252,20.985,17.252l-9.483,13.85Z" transform="translate(-173.679 -93.268)" fill="#323657"/>
  <path id="Trazado_605314" data-name="Trazado 605314" d="M377.6,401.923a10.049,10.049,0,0,1-3.178-.6s-1.667-1.072-2.895-1.754a8.84,8.84,0,0,0-.974-.487,18.558,18.558,0,0,1-5.351-2.554c-2.1-1.6-8.928-7.983-8.928-7.983l4.416-6.784,2.037-6.716s15.926,1.579,18.051,2.846a6.805,6.805,0,0,1,.585.39c1.7,1.248,2.437,2.885,3.245,3.635.292.283,3.07,3.246,2.914,4.454a3.992,3.992,0,0,1-2.076,3.256s-.565,3.256-2.242,4.708a5.872,5.872,0,0,1-3.031,4.23s-.77,3.012-2.583,3.372Z" transform="translate(-155.182 -163.358)" fill="#efaa88"/>
  <path id="Trazado_605315" data-name="Trazado 605315" d="M329.7,58.514s28.782-6.94,22.72,29.5-12.963,39.4-30.5,32.136-16.316-30.576-17.359-41.98S320.493,59.05,329.7,58.514Z" transform="translate(-132.641 -25.257)" fill="#eea886"/>
  <path id="Trazado_605316" data-name="Trazado 605316" d="M316.752,101.515c-.429-3.2-6.784-4.279-7.222.536s3.07,13.2,5.468,12.34,2.349-8.451,1.754-12.866Z" transform="translate(-134.806 -43.024)" fill="#eea886"/>
  <path id="Trazado_605317" data-name="Trazado 605317" d="M304.473,90.267s.575-11.462,4.756-11.881,4.893,4.181,4.893,4.181l4.23.731s-1.482-10.02,2.67-11.833,27.135,5.127,30.45,2.135,1.432-23.334-4.669-26.024-22.934-8.694-35.079-.214c0,0-9.581-.945-10.887,6.784s.965,30.41,3.645,36.112Z" transform="translate(-130.871 -18.725)" fill="#16202e"/>
  <path id="Trazado_605318" data-name="Trazado 605318" d="M338.2,367.51,326.32,387.939s-31.483-8.11-38.831-10.186l16.794-19.981S329.04,363.425,338.2,367.51Z" transform="translate(-125.222 -155.836)" fill="#323657"/>
  <path id="Trazado_605319" data-name="Trazado 605319" d="M341.671,170.639a27.515,27.515,0,0,1-21.423-13.46,31.91,31.91,0,0,0,21.336,9.357v.9c0,.487,0,.975.019,1.452C341.613,169.48,341.642,170.074,341.671,170.639Z" transform="translate(-139.491 -68.463)" fill="#a77860"/>
  <path id="Trazado_605320" data-name="Trazado 605320" d="M729.366,500.452a4.7,4.7,0,0,0-8.207,1.316,4.426,4.426,0,0,0-.244,1.443,5.049,5.049,0,0,0,.283,1.676,4.64,4.64,0,0,0,1.53,2.1,4.707,4.707,0,0,0,2.446.965c.117.01.244.02.371.02h.312a4.7,4.7,0,0,0,3.489-7.515Zm-2.553,6.13a3.448,3.448,0,0,1-1.014.2h-.234a3.558,3.558,0,0,1-2.115-.731,3.62,3.62,0,0,1-.351-.312,3.536,3.536,0,0,1-1.014-2.515,3.635,3.635,0,0,1,.088-.741,3.487,3.487,0,0,1,.1-.341,3.525,3.525,0,1,1,4.542,4.445Z" transform="translate(-314.011 -217.168)" fill="#4da8f2"/>
  <path id="Trazado_605321" data-name="Trazado 605321" d="M416.91,332.184c17.9,18.421,41.532,41.61,41.532,41.61l9.24-17.545s-20.995-24.611-35.235-41.044c-4.366,2.144-12.369,7.242-15.546,16.969Z" transform="translate(-181.59 -137.295)" fill="#eea886"/>
  <path id="Trazado_605322" data-name="Trazado 605322" d="M395.639,389.167a52.918,52.918,0,0,1,6.072,3.362c1.258,1.033,6.355,4.854,7.593,5.751s-1.862,3.45-10.975-.5S395.639,389.167,395.639,389.167Z" transform="translate(-171.372 -169.511)" fill="#eea886"/>
  <path id="Trazado_605323" data-name="Trazado 605323" d="M391.6,295.76l-8.392,78.063h110.5l8.4-78.063Z" transform="translate(-166.915 -128.825)" fill="#fee132"/>
  <path id="Trazado_605324" data-name="Trazado 605324" d="M504.23,366.771H392.862l8.49-78.92H512.72ZM393.817,365.9H503.46l8.3-77.2H402.121Z" transform="translate(-171.12 -125.38)" fill="#ffc955"/>
  <path id="Trazado_605325" data-name="Trazado 605325" d="M367.615,428.642h18.461v-7.028H367.615Z" transform="translate(-160.123 -183.644)" fill="#fee132"/>
  <g id="Grupo_1014675" data-name="Grupo 1014675" transform="translate(29.943 244.832)">
    <path id="Trazado_605326" data-name="Trazado 605326" d="M57.67,433.771H53.05v4.757h4.62Z" transform="translate(-53.05 -433.771)" fill="#96cbff"/>
    <path id="Trazado_605327" data-name="Trazado 605327" d="M65.855,433.771h-4.62v4.757h4.62Z" transform="translate(-56.615 -433.771)" fill="#95caff"/>
    <path id="Trazado_605328" data-name="Trazado 605328" d="M74.04,433.771H69.42v4.757h4.62Z" transform="translate(-60.18 -433.771)" fill="#94c9ff"/>
    <path id="Trazado_605329" data-name="Trazado 605329" d="M82.226,433.771h-4.62v4.757h4.62Z" transform="translate(-63.746 -433.771)" fill="#93c9ff"/>
    <path id="Trazado_605330" data-name="Trazado 605330" d="M90.411,433.771h-4.62v4.757h4.62Z" transform="translate(-67.311 -433.771)" fill="#92c8ff"/>
    <path id="Trazado_605331" data-name="Trazado 605331" d="M98.6,433.771h-4.62v4.757H98.6Z" transform="translate(-70.876 -433.771)" fill="#91c7ff"/>
    <path id="Trazado_605332" data-name="Trazado 605332" d="M106.782,433.771h-4.62v4.757h4.62Z" transform="translate(-74.442 -433.771)" fill="#90c6ff"/>
    <path id="Trazado_605333" data-name="Trazado 605333" d="M114.968,433.771h-4.62v4.757h4.62Z" transform="translate(-78.007 -433.771)" fill="#8fc6ff"/>
    <path id="Trazado_605334" data-name="Trazado 605334" d="M123.152,433.771h-4.62v4.757h4.62Z" transform="translate(-81.572 -433.771)" fill="#8ec5ff"/>
    <path id="Trazado_605335" data-name="Trazado 605335" d="M131.338,433.771h-4.62v4.757h4.62Z" transform="translate(-85.138 -433.771)" fill="#8dc4ff"/>
    <path id="Trazado_605336" data-name="Trazado 605336" d="M139.523,433.771H134.9v4.757h4.62Z" transform="translate(-88.703 -433.771)" fill="#8cc3ff"/>
    <path id="Trazado_605337" data-name="Trazado 605337" d="M147.709,433.771h-4.62v4.757h4.62Z" transform="translate(-92.268 -433.771)" fill="#8bc2ff"/>
    <path id="Trazado_605338" data-name="Trazado 605338" d="M155.893,433.771h-4.62v4.757h4.62Z" transform="translate(-95.833 -433.771)" fill="#8ac2ff"/>
    <path id="Trazado_605339" data-name="Trazado 605339" d="M164.079,433.771h-4.62v4.757h4.62Z" transform="translate(-99.399 -433.771)" fill="#89c1ff"/>
    <path id="Trazado_605340" data-name="Trazado 605340" d="M172.265,433.771h-4.62v4.757h4.62Z" transform="translate(-102.964 -433.771)" fill="#88c0ff"/>
    <path id="Trazado_605341" data-name="Trazado 605341" d="M180.45,433.771h-4.62v4.757h4.62Z" transform="translate(-106.53 -433.771)" fill="#87bfff"/>
    <path id="Trazado_605342" data-name="Trazado 605342" d="M188.635,433.771h-4.62v4.757h4.62Z" transform="translate(-110.095 -433.771)" fill="#86bfff"/>
    <path id="Trazado_605343" data-name="Trazado 605343" d="M196.821,433.771H192.2v4.757h4.62Z" transform="translate(-113.66 -433.771)" fill="#85beff"/>
    <path id="Trazado_605344" data-name="Trazado 605344" d="M205.006,433.771h-4.62v4.757h4.62Z" transform="translate(-117.225 -433.771)" fill="#84bdff"/>
    <path id="Trazado_605345" data-name="Trazado 605345" d="M213.191,433.771h-4.62v4.757h4.62Z" transform="translate(-120.791 -433.771)" fill="#83bcff"/>
    <path id="Trazado_605346" data-name="Trazado 605346" d="M221.394,433.771h-4.62v4.757h4.62Z" transform="translate(-124.364 -433.771)" fill="#82bbff"/>
    <path id="Trazado_605347" data-name="Trazado 605347" d="M229.579,433.771h-4.62v4.757h4.62Z" transform="translate(-127.929 -433.771)" fill="#81bbff"/>
    <path id="Trazado_605348" data-name="Trazado 605348" d="M237.765,433.771h-4.62v4.757h4.62Z" transform="translate(-131.494 -433.771)" fill="#80baff"/>
    <path id="Trazado_605349" data-name="Trazado 605349" d="M245.95,433.771h-4.62v4.757h4.62Z" transform="translate(-135.06 -433.771)" fill="#7fb9ff"/>
    <path id="Trazado_605350" data-name="Trazado 605350" d="M254.135,433.771h-4.62v4.757h4.62Z" transform="translate(-138.625 -433.771)" fill="#7eb8ff"/>
    <path id="Trazado_605351" data-name="Trazado 605351" d="M262.32,433.771H257.7v4.757h4.62Z" transform="translate(-142.19 -433.771)" fill="#7db7ff"/>
    <path id="Trazado_605352" data-name="Trazado 605352" d="M270.506,433.771h-4.62v4.757h4.62Z" transform="translate(-145.755 -433.771)" fill="#7cb7ff"/>
    <path id="Trazado_605353" data-name="Trazado 605353" d="M278.692,433.771h-4.62v4.757h4.62Z" transform="translate(-149.321 -433.771)" fill="#7bb6ff"/>
    <path id="Trazado_605354" data-name="Trazado 605354" d="M286.877,433.771h-4.62v4.757h4.62Z" transform="translate(-152.886 -433.771)" fill="#7ab5ff"/>
    <path id="Trazado_605355" data-name="Trazado 605355" d="M295.062,433.771h-4.62v4.757h4.62Z" transform="translate(-156.451 -433.771)" fill="#79b4ff"/>
    <path id="Trazado_605356" data-name="Trazado 605356" d="M303.247,433.771h-4.62v4.757h4.62Z" transform="translate(-160.017 -433.771)" fill="#78b4ff"/>
    <path id="Trazado_605357" data-name="Trazado 605357" d="M311.433,433.771h-4.62v4.757h4.62Z" transform="translate(-163.582 -433.771)" fill="#77b3ff"/>
    <path id="Trazado_605358" data-name="Trazado 605358" d="M319.618,433.771H315v4.757h4.62Z" transform="translate(-167.147 -433.771)" fill="#76b2ff"/>
    <path id="Trazado_605359" data-name="Trazado 605359" d="M327.8,433.771h-4.62v4.757h4.62Z" transform="translate(-170.713 -433.771)" fill="#74b1ff"/>
    <path id="Trazado_605360" data-name="Trazado 605360" d="M335.989,433.771h-4.62v4.757h4.62Z" transform="translate(-174.278 -433.771)" fill="#73b0ff"/>
    <path id="Trazado_605361" data-name="Trazado 605361" d="M344.174,433.771h-4.62v4.757h4.62Z" transform="translate(-177.843 -433.771)" fill="#72b0ff"/>
    <path id="Trazado_605362" data-name="Trazado 605362" d="M352.359,433.771h-4.62v4.757h4.62Z" transform="translate(-181.408 -433.771)" fill="#71afff"/>
    <path id="Trazado_605363" data-name="Trazado 605363" d="M360.545,433.771h-4.62v4.757h4.62Z" transform="translate(-184.974 -433.771)" fill="#70aeff"/>
    <path id="Trazado_605364" data-name="Trazado 605364" d="M368.73,433.771h-4.62v4.757h4.62Z" transform="translate(-188.539 -433.771)" fill="#6fadff"/>
    <path id="Trazado_605365" data-name="Trazado 605365" d="M376.915,433.771H372.3v4.757h4.62Z" transform="translate(-192.104 -433.771)" fill="#6eadff"/>
    <path id="Trazado_605366" data-name="Trazado 605366" d="M385.1,433.771h-4.62v4.757h4.62Z" transform="translate(-195.67 -433.771)" fill="#6dacff"/>
    <path id="Trazado_605367" data-name="Trazado 605367" d="M393.287,433.771h-4.62v4.757h4.62Z" transform="translate(-199.236 -433.771)" fill="#6cabff"/>
    <path id="Trazado_605368" data-name="Trazado 605368" d="M401.471,433.771h-4.62v4.757h4.62Z" transform="translate(-202.8 -433.771)" fill="#6baaff"/>
    <path id="Trazado_605369" data-name="Trazado 605369" d="M409.657,433.771h-4.62v4.757h4.62Z" transform="translate(-206.366 -433.771)" fill="#6aa9ff"/>
    <path id="Trazado_605370" data-name="Trazado 605370" d="M417.842,433.771h-4.62v4.757h4.62Z" transform="translate(-209.931 -433.771)" fill="#69a9ff"/>
    <path id="Trazado_605371" data-name="Trazado 605371" d="M426.028,433.771h-4.62v4.757h4.62Z" transform="translate(-213.497 -433.771)" fill="#68a8ff"/>
    <path id="Trazado_605372" data-name="Trazado 605372" d="M434.212,433.771h-4.62v4.757h4.62Z" transform="translate(-217.061 -433.771)" fill="#67a7ff"/>
    <path id="Trazado_605373" data-name="Trazado 605373" d="M442.4,433.771h-4.62v4.757h4.62Z" transform="translate(-220.627 -433.771)" fill="#66a6ff"/>
    <path id="Trazado_605374" data-name="Trazado 605374" d="M450.583,433.771h-4.62v4.757h4.62Z" transform="translate(-224.192 -433.771)" fill="#65a6ff"/>
    <path id="Trazado_605375" data-name="Trazado 605375" d="M458.769,433.771h-4.62v4.757h4.62Z" transform="translate(-227.758 -433.771)" fill="#64a5ff"/>
    <path id="Trazado_605376" data-name="Trazado 605376" d="M466.954,433.771h-4.62v4.757h4.62Z" transform="translate(-231.323 -433.771)" fill="#63a4ff"/>
    <path id="Trazado_605377" data-name="Trazado 605377" d="M475.157,433.771h-4.62v4.757h4.62Z" transform="translate(-234.896 -433.771)" fill="#62a3ff"/>
    <path id="Trazado_605378" data-name="Trazado 605378" d="M483.342,433.771h-4.62v4.757h4.62Z" transform="translate(-238.461 -433.771)" fill="#61a2ff"/>
    <path id="Trazado_605379" data-name="Trazado 605379" d="M491.528,433.771h-4.62v4.757h4.62Z" transform="translate(-242.027 -433.771)" fill="#60a2ff"/>
    <path id="Trazado_605380" data-name="Trazado 605380" d="M499.713,433.771h-4.62v4.757h4.62Z" transform="translate(-245.592 -433.771)" fill="#5fa1ff"/>
    <path id="Trazado_605381" data-name="Trazado 605381" d="M507.9,433.771h-4.62v4.757h4.62Z" transform="translate(-249.157 -433.771)" fill="#5ea0ff"/>
    <path id="Trazado_605382" data-name="Trazado 605382" d="M516.083,433.771h-4.62v4.757h4.62Z" transform="translate(-252.722 -433.771)" fill="#5d9fff"/>
    <path id="Trazado_605383" data-name="Trazado 605383" d="M524.269,433.771h-4.62v4.757h4.62Z" transform="translate(-256.288 -433.771)" fill="#5c9eff"/>
    <path id="Trazado_605384" data-name="Trazado 605384" d="M532.454,433.771h-4.62v4.757h4.62Z" transform="translate(-259.853 -433.771)" fill="#5b9eff"/>
    <path id="Trazado_605385" data-name="Trazado 605385" d="M540.64,433.771h-4.62v4.757h4.62Z" transform="translate(-263.418 -433.771)" fill="#5a9dff"/>
    <path id="Trazado_605386" data-name="Trazado 605386" d="M548.825,433.771h-4.62v4.757h4.62Z" transform="translate(-266.984 -433.771)" fill="#599cff"/>
    <path id="Trazado_605387" data-name="Trazado 605387" d="M557.011,433.771h-4.62v4.757h4.62Z" transform="translate(-270.549 -433.771)" fill="#589bff"/>
    <path id="Trazado_605388" data-name="Trazado 605388" d="M565.2,433.771h-4.62v4.757h4.62Z" transform="translate(-274.114 -433.771)" fill="#579bff"/>
    <path id="Trazado_605389" data-name="Trazado 605389" d="M573.381,433.771h-4.62v4.757h4.62Z" transform="translate(-277.68 -433.771)" fill="#569aff"/>
    <path id="Trazado_605390" data-name="Trazado 605390" d="M581.566,433.771h-4.62v4.757h4.62Z" transform="translate(-281.245 -433.771)" fill="#59f"/>
  </g>
  <path id="Trazado_605391" data-name="Trazado 605391" d="M709.482,613.573h-260.2v4.756h260.2Z" transform="translate(-195.694 -267.256)" fill="#ffc955"/>
  <path id="Trazado_605392" data-name="Trazado 605392" d="M477.508,357.509c-.887,4.347,1.14,8.431,4.532,9.123s6.852-2.271,7.748-6.618-1.14-8.431-4.532-9.123S478.405,353.162,477.508,357.509Z" transform="translate(-207.899 -152.795)" fill="#cfa345"/>
  <path id="Trazado_605393" data-name="Trazado 605393" d="M847.813,306.244s2.554,4.318,3.626,5.03c1.462.955.546,1.93-.146,1.93s-4.24.253-5.019-.633-1.169-3.538-1.891-4.24-1.472-3.45.351-4.123C846.351,303.612,847.813,306.244,847.813,306.244Z" transform="translate(-367.447 -132.466)" fill="#6069a8"/>
  <path id="Trazado_605394" data-name="Trazado 605394" d="M847.477,304.386s2.924,5.058,3.421,5.809-.945.751-1.842.39-3.159-3.987-3.49-4.649a2.434,2.434,0,0,1-.068-1.7l1.979.137Z" transform="translate(-368.222 -132.519)" fill="#202338"/>
  <path id="Trazado_605395" data-name="Trazado 605395" d="M843.868,309.333l.672,5.185.361.02-.117-3.733Z" transform="translate(-367.566 -134.737)" fill="#6069a8"/>
  <path id="Trazado_605396" data-name="Trazado 605396" d="M803.009,306.256s2.554,4.318,3.626,5.029c1.462.956.546,1.93-.146,1.93s-4.24.253-5.019-.634-1.17-3.538-1.891-4.24-1.5-3.528.351-4.123C801.557,303.692,803.009,306.256,803.009,306.256Z" transform="translate(-347.926 -132.478)" fill="#6069a8"/>
  <path id="Trazado_605397" data-name="Trazado 605397" d="M802.855,304.412s2.768,5.049,3.265,5.8-.945.75-1.842.389-3.158-3.987-3.49-4.649a2.432,2.432,0,0,1-.068-1.7l2.134.146Z" transform="translate(-348.718 -132.526)" fill="#202338"/>
  <path id="Trazado_605398" data-name="Trazado 605398" d="M799.073,309.333l.682,5.185.351.02L800,310.805Z" transform="translate(-348.054 -134.737)" fill="#6069a8"/>
  <path id="Trazado_605399" data-name="Trazado 605399" d="M786.242,235.42l23.071,10.507a4.443,4.443,0,0,1,2.866,3.694c.9,8.928,7.573,23.081,7.573,23.081,2.144,1.043,1.979.137,1.979.137-1.345-4.328-2.993-22.184-3.577-29.368-.126-1.521-.2-2.563-.214-2.894-.01-.225-.263-.527-.692-.868-3.168-2.564-16.189-7.886-16.189-7.886-9.776-.243-14.815,3.587-14.815,3.587Z" transform="translate(-342.466 -100.971)" fill="#202338"/>
  <path id="Trazado_605400" data-name="Trazado 605400" d="M778.475,238.708c.712,6.238,9.611,5.517,9.611,5.517h10.79a67.147,67.147,0,0,0-3.928,11.618c-1.16,5.644-3.9,15.634-3.9,15.634s.175.341,2.135.146c0,0,8.47-16.872,11.706-21.121a28.715,28.715,0,0,0,3.041-8.821c.117-.994.049-1.764-.322-2.076a27.044,27.044,0,0,0-2.378-1.628c-3.382-2.135-9.25-5.409-12.515-6.151-4.377-.984-11.307-2.826-11.307-2.826a11.893,11.893,0,0,0-2.924,9.7Z" transform="translate(-339.046 -99.746)" fill="#202338"/>
  <path id="Trazado_605401" data-name="Trazado 605401" d="M790.737,152.071a10.028,10.028,0,0,1-.829-6.326c.79-3.265,3.821-6.521,8.246-5.02s8.022,4.942,5.361,8.919,2.407,5.78,1.111,7.681-.8,3.879-.253,4.318,2.31,2.017,2.115,3.869-8.606-5.419-8.606-5.419-4.581-9.2-7.154-8.012Z" transform="translate(-343.968 -61.132)" fill="#464240"/>
  <path id="Trazado_605402" data-name="Trazado 605402" d="M801.685,229.364s-.672,3.245-17.9-.848C783.79,228.517,789.57,226.6,801.685,229.364Z" transform="translate(-341.398 -99.253)" fill="#eb4747"/>
  <path id="Trazado_605403" data-name="Trazado 605403" d="M780.745,206.665c-.264.507-.536,1.023-.8,1.53q9.444.278,18.889.546c-.994-3.333-.672-7.856-.5-11.277.214-4.191,2.524-7.1,2.28-11.335,1.248.2,1.462.244,2.71.429-1.911-5.439-2.564-8.129-8.49-10.225a11.008,11.008,0,0,0-5.283-.643c-6.862.566-8.938.643-12.31,6.872,5.273.838,4.406,2.739,6.014,7.983.779,2.563,1.6,5.419,1.179,8.119-.409,2.661-3.684,5.575-3.684,8Z" transform="translate(-338.547 -76.495)" fill="#304c8e"/>
  <path id="Trazado_605404" data-name="Trazado 605404" d="M801.107,173.478c-2.807-.527-2.213-2.1-2.213-2.1s.127-.887.185-2c.01-.283.02-.585.02-.887a10.821,10.821,0,0,0-.078-1.384c-.234-1.881,5.1-.76,5.1-.76s-.312,3.821.429,4.961S803.914,174.013,801.107,173.478Z" transform="translate(-347.954 -72.314)" fill="#eea886"/>
  <path id="Trazado_605405" data-name="Trazado 605405" d="M793.356,175.107s5.664,6.541,7.759,8.061c0,0,2.408-2.174.926-7.915C802.041,175.253,799.3,173.879,793.356,175.107Z" transform="translate(-345.564 -76.05)" fill="#eea886"/>
  <path id="Trazado_605406" data-name="Trazado 605406" d="M792.619,146.78s-2.943,5.673-.019,11.044,8.655-2.34,9.026-3.246,2.339-6.024-1.579-7.573S793.448,145.241,792.619,146.78Z" transform="translate(-344.671 -63.474)" fill="#eea886"/>
  <path id="Trazado_605407" data-name="Trazado 605407" d="M793.507,147.882s-2.027,2.661-2.261,4.63a10.537,10.537,0,0,1,1.471-7.291c2.281-3.568,8.08-.166,8.86,1.257s3.051,2.68-.77,8.821c0,0-6.881-4.776-7.291-7.408Z" transform="translate(-344.585 -62.568)" fill="#464240"/>
  <path id="Trazado_605408" data-name="Trazado 605408" d="M801.768,168.162a5.434,5.434,0,0,1-2.5,2.154c.01-.282.019-.585.019-.887A4.759,4.759,0,0,0,801.768,168.162Z" transform="translate(-348.137 -73.247)" fill="#a77860"/>
  <path id="Trazado_605409" data-name="Trazado 605409" d="M746.483,221.435s-1.4.624-2.066.341a6.169,6.169,0,0,0-2.017-.341c-.429,0-1.784-.487-1.764.049s2.2.9,2.641,1.062-1.335,1.14-1.5,1.579,1.842,3.285,2.973,2.476,1.745-2.437,1.978-2.534a8.619,8.619,0,0,0,.848-.555l-1.1-2.066Z" transform="translate(-322.6 -96.363)" fill="#eea886"/>
  <path id="Trazado_605410" data-name="Trazado 605410" d="M740.474,225.908s-3.284,2.719-3.333,3.09.117.536.439.3,3.256-2.534,3.256-2.534-3.285,3.879-3.4,4.172c-.068.165.253.516.439.409s3.685-3.772,3.685-3.772-3.06,3.635-3.08,3.9a.36.36,0,0,0,.6.243c.243-.253,3.294-3.46,3.294-3.46s-2.047,2.788-1.92,3.031c.078.147.331.468.838-.273s1.891-2.34,1.891-2.34l-2.7-2.768Z" transform="translate(-321.075 -98.399)" fill="#eea886"/>
  <path id="Trazado_605411" data-name="Trazado 605411" d="M797.738,244.232h-9.659s-8.9.712-9.611-5.517a11.929,11.929,0,0,1,2.924-9.7s4.7,1.247,8.811,2.242a31.48,31.48,0,0,1,7.427-.643s17.4,5.751,16.882,8.782c0,0-7.281-3.889-16.765,4.844Z" transform="translate(-339.04 -99.754)" fill="#ffc955"/>
  <path id="Trazado_605412" data-name="Trazado 605412" d="M801.542,236.646l18.422-.273-9.3,4.717Z" transform="translate(-349.13 -102.958)" fill="#5e5853"/>
  <path id="Trazado_605413" data-name="Trazado 605413" d="M804.383,231.332a15.723,15.723,0,0,1-9.22.156l-.234-1.9,10.458.585-.994,1.16Z" transform="translate(-346.249 -100.002)" fill="#5f8cc9"/>
  <path id="Trazado_605414" data-name="Trazado 605414" d="M810.665,241.3l-9.123-3.528v-.917l9.845,3.548Z" transform="translate(-349.13 -103.168)" fill="#91887f"/>
  <path id="Trazado_605415" data-name="Trazado 605415" d="M810.341,208.771a.915.915,0,0,0,1.267.906l1.072-.458a.754.754,0,0,0,.448-.819c-.448-2.788-1.4-13.636,0-15.488a6.923,6.923,0,0,0,1.023-1.813c.926,2.379,2.066,5.439,2.525,7.086l8.7,11.58,2.914.741a98.988,98.988,0,0,0-6.569-13.422c-.566-1.53-2.2-6.16-3.645-10.283-.917-2.6-1.755-5-2.2-6.3a2.923,2.923,0,0,0-1.277-1.56c-1.345-.809-3.6-2.076-5.634-3.06h-.029a1.971,1.971,0,0,0-.2-.107c3.87,5.858,2.359,22.408,1.6,32.983v.01Z" transform="translate(-352.266 -76.564)" fill="#eddad3"/>
  <path id="Trazado_605416" data-name="Trazado 605416" d="M769.574,175.822c-1.238.195-4.318,3.177-5.946,6.189-1.861,3.441-3.762,7.359-5.185,8.645-2.612,2.369-9.932,10.742-10.283,10.546a22.052,22.052,0,0,0,2.281,2.622c.136.059,12.027-10.253,13.178-11.822,1.082-1.492,3.977-7.739,4.845-7.6a46.534,46.534,0,0,1,2.115,5.77c.019.059.029.107.049.166a18.506,18.506,0,0,1,.253,7.7,26.274,26.274,0,0,1-2.846,7.359,1.155,1.155,0,0,0,.039.9.651.651,0,0,0,.322.371l3.489,1.3.818.3a1.793,1.793,0,0,0,2.4-1.452c.78-5.975,1.755-12.076,2.544-14.377a21.761,21.761,0,0,0-1.345-17.671,64.605,64.605,0,0,0-6.726,1.053Z" transform="translate(-325.875 -76.12)" fill="#eddad3"/>
  <path id="Trazado_605417" data-name="Trazado 605417" d="M817.706,233.193l5.478-14.952,17.661.283-5.224,13.782Z" transform="translate(-356.17 -95.06)" fill="#6e6760"/>
  <path id="Trazado_605418" data-name="Trazado 605418" d="M837.182,228.895c-.536,1.082-.38,2.251.361,2.622s1.774-.2,2.31-1.277.38-2.252-.361-2.622S837.717,227.822,837.182,228.895Z" transform="translate(-364.515 -99.095)" fill="#807066"/>
  <path id="Trazado_605419" data-name="Trazado 605419" d="M803.589,157.494a3.175,3.175,0,0,1,.088,3.275c-1.043,1.521.264,3.012.488,4.62s-4.366,5.877.741,8.031,6.726-1.4,5.429-3.363a11.063,11.063,0,0,1-2.34-6.335c-.107-2.788-1.023-7.135-4.405-6.238Z" transform="translate(-349.54 -68.544)" fill="#464240"/>
  <path id="Trazado_605420" data-name="Trazado 605420" d="M760.235,144.642h10.644v9.347l-1.618-1.628h-9.026Z" transform="translate(-331.138 -63.002)" fill="#ffcb55"/>
  <path id="Trazado_605421" data-name="Trazado 605421" d="M642.721,354.508s-23.207,22.087-11.92,39.29,16.58,2.135,16.58,2.135,7.632,2.31-3.694-18.9c-5.341-9.99-.955-22.525-.955-22.525Z" transform="translate(-273.411 -154.414)" fill="#bbd070"/>
  <path id="Trazado_605422" data-name="Trazado 605422" d="M573.361,312.072s-17.73,20.839,5.974,49.69,20.03,44.1,20.03,44.1,33-50.167-26-93.8Z" transform="translate(-246.966 -135.926)" fill="#4ca220"/>
  <path id="Trazado_605423" data-name="Trazado 605423" d="M591.353,416.711c11.033,2.232,2.105-29.845-14.435-39.621s-31.346-10.731-40.606-20.147c0,0,.721,48.793,55.051,59.778Z" transform="translate(-233.603 -155.475)" fill="#397a18"/>
  <path id="Trazado_605424" data-name="Trazado 605424" d="M506.092,485.725s.507-1.258.585-1.443a3.177,3.177,0,0,1,1.16-.8,3.965,3.965,0,0,1,1.628-.4.628.628,0,0,1,.361.331,1.1,1.1,0,0,1,.088.555.7.7,0,0,1,.243.614.6.6,0,0,1,.137.643s.273.253.137.527a4.524,4.524,0,0,0-.634.478,9.43,9.43,0,0,1-2.3,1.13s-1.169.019-1.394-1.637Z" transform="translate(-220.44 -210.414)" fill="#eea886"/>
  <path id="Trazado_605425" data-name="Trazado 605425" d="M509.207,486.562a3.471,3.471,0,0,1-.078.867c-.087.195,1.374.624,1.374.624S510.036,486.572,509.207,486.562Z" transform="translate(-221.761 -211.933)" fill="#cf8c6c"/>
  <path id="Trazado_605426" data-name="Trazado 605426" d="M460.71,602.516l.643-2,2.719.439-.409,1.8Z" transform="translate(-200.673 -261.569)" fill="#3b3f66"/>
  <path id="Trazado_605427" data-name="Trazado 605427" d="M500.118,602.846l.156,1.1,2.973-.5-.166-1.637Z" transform="translate(-217.838 -262.133)" fill="#555c94"/>
  <path id="Trazado_605428" data-name="Trazado 605428" d="M476.55,542.2s-.439,2.388-.945,5.029c-.087.458-.175.926-.273,1.394-.5,2.553-.995,5-1.18,5.507-.419,1.15-9.513,17.818-9.513,17.818s-3.723-.283-3.86-.76c0,0,7.622-18.1,7.583-18.753s.936-19.211.936-19.211,7.056,7.9,7.261,8.977Z" transform="translate(-200.703 -232.257)" fill="#354c70"/>
  <path id="Trazado_605429" data-name="Trazado 605429" d="M487.236,529.874s3.558,18.227,3.86,19.62,1.657,20.069,1.657,20.069-.8,1.647-3.753,1.033c0,0-4.025-20.059-4.366-20.731-1.316-2.612-7.788-15.245-8.412-17.047a10.865,10.865,0,0,1-.439-3.909s4.8-2.7,11.462.975Z" transform="translate(-207.227 -229.962)" fill="#354c70"/>
  <path id="Trazado_605430" data-name="Trazado 605430" d="M492.04,488.3s1.56,3.889,1.95,3.782,4.873-5.38,4.873-5.38,2.057,2.563,1.774,2.855c-.38.41-5.683,9.221-6.414,9.055s-3.987-5.546-3.987-5.546-.185-4.064,1.784-4.766Z" transform="translate(-213.532 -211.993)" fill="#deb135"/>
  <path id="Trazado_605431" data-name="Trazado 605431" d="M478.341,476.366a65.367,65.367,0,0,1,5.166,4.318c1.121,1.228,4.2,6.316,3.976,7.846A112.5,112.5,0,0,0,486.2,503.4c-.02,3.49,1.092,4.377.4,4.425-.8.059-10.985,3.753-12.486,4.2,0,0,.984-12.281,1.491-13.7s-1.6-16.268,2.739-21.97Z" transform="translate(-206.51 -207.488)" fill="#f2c344"/>
  <path id="Trazado_605432" data-name="Trazado 605432" d="M520.021,465.977l.906,4.571.906,4.581a24.917,24.917,0,0,0-11.092-.458l-.4-2.018-.4-2.027A24.971,24.971,0,0,0,520.021,465.977Z" transform="translate(-222.117 -202.967)" fill="#d9d0c4"/>
  <path id="Trazado_605433" data-name="Trazado 605433" d="M500.113,604.58s2.242-.439,2.32-.5.555-.955.906-.8.351,1.228.692,1.413,3.012,1.989,3.343,2.32,2.359.137,2.593.712.253,1.92-2.769,1.608-6.472.176-7.125-.185-.156-3.694.049-4.562Z" transform="translate(-217.677 -262.766)" fill="#84bdff"/>
  <path id="Trazado_605434" data-name="Trazado 605434" d="M459.92,603.351s2.281-.068,2.369-.126.7-.848,1.023-.643.146,1.277.458,1.511,2.661,2.446,2.934,2.827,2.3.507,2.437,1.111-.058,1.94-2.992,1.141-6.423-.868-7.008-1.326S459.579,604.17,459.92,603.351Z" transform="translate(-199.912 -262.453)" fill="#84bdff"/>
  <path id="Trazado_605435" data-name="Trazado 605435" d="M490.287,532.859s.273,1.111.711,1.355-2.047,2.612-2.047,2.612a21.027,21.027,0,0,1-.975-2.417,15.068,15.068,0,0,1,2.31-1.54Z" transform="translate(-212.549 -232.099)" fill="#eea987"/>
  <path id="Trazado_605436" data-name="Trazado 605436" d="M476,483.752s-2.9,13.821-3.138,15.234c-.224,1.335,8.519,14.123,8.519,14.123l2.9-1.725s-7.057-12.827-7.047-13.411,3.383-11.725,3.383-11.725a2.626,2.626,0,1,0-4.62-2.5Z" transform="translate(-205.965 -210.078)" fill="#ffd255"/>
  <path id="Trazado_605437" data-name="Trazado 605437" d="M491.773,534.534a47.184,47.184,0,0,1,.887,6.14c-.058,1.443-5.419-2.261-5.156-3.694l4.26-2.437Z" transform="translate(-212.339 -232.828)" fill="#3c5780"/>
  <path id="Trazado_605438" data-name="Trazado 605438" d="M481.6,472.775s7.369,8.051,6.92,7.164c-1.618-3.187-2.748-3.723-2.729-4.318.02-.458.2-1.784.224-2.222.059-.848.117-1.53.117-1.53s-3.665-5.146-3.5-3.392a10.741,10.741,0,0,1-1.043,4.3Z" transform="translate(-209.767 -203.897)" fill="#eea886"/>
  <path id="Trazado_605439" data-name="Trazado 605439" d="M488.364,458.452a18.224,18.224,0,0,1,1.023,2.934,11.13,11.13,0,0,0-.039,1.628,23.261,23.261,0,0,1,.575,2.446c-.078.468-1.062.224-1.2.994s-.848,2.213-1.208,2.242c-.916.078-4.406-1.355-4.63-2.086s-1.491-4.806-1.881-5.585,6.16-5.03,6.755-3.8l.594,1.228Z" transform="translate(-209.505 -199.058)" fill="#eea886"/>
  <path id="Trazado_605440" data-name="Trazado 605440" d="M478.227,459.734c-.458-2.017,1.861-2.271,1.861-2.271s1.511-1.764,5.127-1.55,3.061,4.932,3.061,4.932a13.558,13.558,0,0,0-3.587-.1,17.1,17.1,0,0,0-.02,2.515l-1.364-.117s.156-1.784-.507-1.871-.878,3.782-2.1,4.64a1.254,1.254,0,0,0-.166-.536,14.878,14.878,0,0,1-.945-1.979,22.525,22.525,0,0,1-1.374-3.655Z" transform="translate(-208.276 -198.575)" fill="#16202e"/>
  <path id="Trazado_605441" data-name="Trazado 605441" d="M486.4,465.585a1.034,1.034,0,0,0-1.706-.478c-.877.643.029,2.953.878,2.933S486.763,466.774,486.4,465.585Z" transform="translate(-210.965 -202.458)" fill="#eea886"/>
  <path id="Trazado_605442" data-name="Trazado 605442" d="M483.994,472.885a2.707,2.707,0,0,0,.37.9,7.819,7.819,0,0,0,2.71,1.413l-.146,1.433s-3.1-1.2-2.943-3.743Z" transform="translate(-210.808 -205.976)" fill="#c48a6f"/>
  <g id="Grupo_1014676" data-name="Grupo 1014676" transform="translate(286.286 271.461)">
    <path id="Trazado_605443" data-name="Trazado 605443" d="M507.273,480.95h-.058v5.478h.058Z" transform="translate(-507.215 -480.95)" fill="#96cbff"/>
    <path id="Trazado_605444" data-name="Trazado 605444" d="M507.377,480.95h-.059v5.478h.059Z" transform="translate(-507.26 -480.95)" fill="#95caff"/>
    <path id="Trazado_605445" data-name="Trazado 605445" d="M507.481,480.95h-.059v5.478h.059Z" transform="translate(-507.305 -480.95)" fill="#94c9ff"/>
    <path id="Trazado_605446" data-name="Trazado 605446" d="M507.584,480.95h-.058v5.478h.058Z" transform="translate(-507.35 -480.95)" fill="#93c9ff"/>
    <path id="Trazado_605447" data-name="Trazado 605447" d="M507.688,480.95h-.059v5.478h.059Z" transform="translate(-507.395 -480.95)" fill="#92c8ff"/>
    <path id="Trazado_605448" data-name="Trazado 605448" d="M507.774,480.95h-.059v5.478h.059Z" transform="translate(-507.433 -480.95)" fill="#91c7ff"/>
    <path id="Trazado_605449" data-name="Trazado 605449" d="M507.878,480.95h-.059v5.478h.059Z" transform="translate(-507.478 -480.95)" fill="#90c6ff"/>
    <path id="Trazado_605450" data-name="Trazado 605450" d="M507.981,480.95h-.058v5.478h.058Z" transform="translate(-507.523 -480.95)" fill="#8fc6ff"/>
    <path id="Trazado_605451" data-name="Trazado 605451" d="M508.085,480.95h-.058v5.478h.058Z" transform="translate(-507.569 -480.95)" fill="#8ec5ff"/>
    <path id="Trazado_605452" data-name="Trazado 605452" d="M508.188,480.95h-.059v5.478h.059Z" transform="translate(-507.613 -480.95)" fill="#8dc4ff"/>
    <path id="Trazado_605453" data-name="Trazado 605453" d="M508.275,480.95h-.059v5.478h.059Z" transform="translate(-507.651 -480.95)" fill="#8cc3ff"/>
    <path id="Trazado_605454" data-name="Trazado 605454" d="M508.378,480.95h-.058v5.478h.058Z" transform="translate(-507.696 -480.95)" fill="#8bc2ff"/>
    <path id="Trazado_605455" data-name="Trazado 605455" d="M508.482,480.95h-.058v5.478h.058Z" transform="translate(-507.742 -480.95)" fill="#8ac2ff"/>
    <path id="Trazado_605456" data-name="Trazado 605456" d="M508.586,480.95h-.059v5.478h.059Z" transform="translate(-507.786 -480.95)" fill="#89c1ff"/>
    <path id="Trazado_605457" data-name="Trazado 605457" d="M508.689,480.95h-.059v5.478h.059Z" transform="translate(-507.831 -480.95)" fill="#88c0ff"/>
    <path id="Trazado_605458" data-name="Trazado 605458" d="M508.776,480.95h-.059v5.478h.059Z" transform="translate(-507.869 -480.95)" fill="#87bfff"/>
    <path id="Trazado_605459" data-name="Trazado 605459" d="M508.879,480.95h-.058v5.478h.058Z" transform="translate(-507.915 -480.95)" fill="#86bfff"/>
    <path id="Trazado_605460" data-name="Trazado 605460" d="M508.983,480.95h-.058v5.478h.058Z" transform="translate(-507.96 -480.95)" fill="#85beff"/>
    <path id="Trazado_605461" data-name="Trazado 605461" d="M509.086,480.95h-.059v5.478h.059Z" transform="translate(-508.004 -480.95)" fill="#84bdff"/>
    <path id="Trazado_605462" data-name="Trazado 605462" d="M509.19,480.95h-.059v5.478h.059Z" transform="translate(-508.05 -480.95)" fill="#83bcff"/>
    <path id="Trazado_605463" data-name="Trazado 605463" d="M509.293,480.95h-.058v5.478h.058Z" transform="translate(-508.095 -480.95)" fill="#82bbff"/>
    <path id="Trazado_605464" data-name="Trazado 605464" d="M509.38,480.95h-.058v5.478h.058Z" transform="translate(-508.133 -480.95)" fill="#81bbff"/>
    <path id="Trazado_605465" data-name="Trazado 605465" d="M509.483,480.95h-.058v5.478h.058Z" transform="translate(-508.178 -480.95)" fill="#80baff"/>
    <path id="Trazado_605466" data-name="Trazado 605466" d="M509.587,480.95h-.059v5.478h.059Z" transform="translate(-508.222 -480.95)" fill="#7fb9ff"/>
    <path id="Trazado_605467" data-name="Trazado 605467" d="M509.69,480.95h-.058v5.478h.058Z" transform="translate(-508.268 -480.95)" fill="#7eb8ff"/>
    <path id="Trazado_605468" data-name="Trazado 605468" d="M509.794,480.95h-.058v5.478h.058Z" transform="translate(-508.313 -480.95)" fill="#7db7ff"/>
    <path id="Trazado_605469" data-name="Trazado 605469" d="M509.881,480.95h-.058v5.478h.058Z" transform="translate(-508.351 -480.95)" fill="#7cb7ff"/>
    <path id="Trazado_605470" data-name="Trazado 605470" d="M509.984,480.95h-.059v5.478h.059Z" transform="translate(-508.395 -480.95)" fill="#7bb6ff"/>
    <path id="Trazado_605471" data-name="Trazado 605471" d="M510.088,480.95h-.059v5.478h.059Z" transform="translate(-508.441 -480.95)" fill="#7ab5ff"/>
    <path id="Trazado_605472" data-name="Trazado 605472" d="M510.191,480.95h-.058v5.478h.058Z" transform="translate(-508.486 -480.95)" fill="#79b4ff"/>
    <path id="Trazado_605473" data-name="Trazado 605473" d="M510.3,480.95h-.058v5.478h.058Z" transform="translate(-508.531 -480.95)" fill="#78b4ff"/>
    <path id="Trazado_605474" data-name="Trazado 605474" d="M510.381,480.95h-.058v5.478h.058Z" transform="translate(-508.569 -480.95)" fill="#77b3ff"/>
    <path id="Trazado_605475" data-name="Trazado 605475" d="M510.485,480.95h-.059v5.478h.059Z" transform="translate(-508.614 -480.95)" fill="#76b2ff"/>
    <path id="Trazado_605476" data-name="Trazado 605476" d="M510.589,480.95h-.059v5.478h.059Z" transform="translate(-508.659 -480.95)" fill="#74b1ff"/>
    <path id="Trazado_605477" data-name="Trazado 605477" d="M510.692,480.95h-.058v5.478h.058Z" transform="translate(-508.704 -480.95)" fill="#73b0ff"/>
    <path id="Trazado_605478" data-name="Trazado 605478" d="M510.8,480.95h-.059v5.478h.059Z" transform="translate(-508.749 -480.95)" fill="#72b0ff"/>
    <path id="Trazado_605479" data-name="Trazado 605479" d="M510.882,480.95h-.058v5.478h.058Z" transform="translate(-508.787 -480.95)" fill="#71afff"/>
    <path id="Trazado_605480" data-name="Trazado 605480" d="M510.986,480.95h-.059v5.478h.059Z" transform="translate(-508.832 -480.95)" fill="#70aeff"/>
    <path id="Trazado_605481" data-name="Trazado 605481" d="M511.089,480.95h-.058v5.478h.058Z" transform="translate(-508.877 -480.95)" fill="#6fadff"/>
    <path id="Trazado_605482" data-name="Trazado 605482" d="M511.193,480.95h-.058v5.478h.058Z" transform="translate(-508.922 -480.95)" fill="#6eadff"/>
    <path id="Trazado_605483" data-name="Trazado 605483" d="M511.3,480.95h-.059v5.478h.059Z" transform="translate(-508.967 -480.95)" fill="#6dacff"/>
    <path id="Trazado_605484" data-name="Trazado 605484" d="M511.383,480.95h-.059v5.478h.059Z" transform="translate(-509.005 -480.95)" fill="#6cabff"/>
    <path id="Trazado_605485" data-name="Trazado 605485" d="M511.487,480.95h-.059v5.478h.059Z" transform="translate(-509.05 -480.95)" fill="#6baaff"/>
    <path id="Trazado_605486" data-name="Trazado 605486" d="M511.59,480.95h-.058v5.478h.058Z" transform="translate(-509.095 -480.95)" fill="#6aa9ff"/>
    <path id="Trazado_605487" data-name="Trazado 605487" d="M511.694,480.95h-.058v5.478h.058Z" transform="translate(-509.141 -480.95)" fill="#69a9ff"/>
    <path id="Trazado_605488" data-name="Trazado 605488" d="M511.8,480.95h-.059v5.478h.059Z" transform="translate(-509.186 -480.95)" fill="#68a8ff"/>
    <path id="Trazado_605489" data-name="Trazado 605489" d="M511.884,480.95h-.059v5.478h.059Z" transform="translate(-509.223 -480.95)" fill="#67a7ff"/>
    <path id="Trazado_605490" data-name="Trazado 605490" d="M511.987,480.95h-.058v5.478h.058Z" transform="translate(-509.268 -480.95)" fill="#66a6ff"/>
    <path id="Trazado_605491" data-name="Trazado 605491" d="M512.091,480.95h-.058v5.478h.058Z" transform="translate(-509.314 -480.95)" fill="#65a6ff"/>
    <path id="Trazado_605492" data-name="Trazado 605492" d="M512.195,480.95h-.059v5.478h.059Z" transform="translate(-509.358 -480.95)" fill="#64a5ff"/>
    <path id="Trazado_605493" data-name="Trazado 605493" d="M512.3,480.95h-.059v5.478h.059Z" transform="translate(-509.404 -480.95)" fill="#63a4ff"/>
    <path id="Trazado_605494" data-name="Trazado 605494" d="M512.4,480.95h-.058v5.478h.058Z" transform="translate(-509.449 -480.95)" fill="#62a3ff"/>
    <path id="Trazado_605495" data-name="Trazado 605495" d="M512.488,480.95h-.058v5.478h.058Z" transform="translate(-509.487 -480.95)" fill="#61a2ff"/>
    <path id="Trazado_605496" data-name="Trazado 605496" d="M512.592,480.95h-.058v5.478h.058Z" transform="translate(-509.532 -480.95)" fill="#60a2ff"/>
    <path id="Trazado_605497" data-name="Trazado 605497" d="M512.7,480.95h-.059v5.478h.059Z" transform="translate(-509.577 -480.95)" fill="#5fa1ff"/>
    <path id="Trazado_605498" data-name="Trazado 605498" d="M512.8,480.95h-.058v5.478h.058Z" transform="translate(-509.622 -480.95)" fill="#5ea0ff"/>
    <path id="Trazado_605499" data-name="Trazado 605499" d="M512.9,480.95h-.058v5.478h.058Z" transform="translate(-509.667 -480.95)" fill="#5d9fff"/>
    <path id="Trazado_605500" data-name="Trazado 605500" d="M512.989,480.95h-.058v5.478h.058Z" transform="translate(-509.705 -480.95)" fill="#5c9eff"/>
    <path id="Trazado_605501" data-name="Trazado 605501" d="M513.093,480.95h-.059v5.478h.059Z" transform="translate(-509.75 -480.95)" fill="#5b9eff"/>
    <path id="Trazado_605502" data-name="Trazado 605502" d="M513.2,480.95h-.059v5.478h.059Z" transform="translate(-509.795 -480.95)" fill="#5a9dff"/>
    <path id="Trazado_605503" data-name="Trazado 605503" d="M513.3,480.95h-.058v5.478h.058Z" transform="translate(-509.84 -480.95)" fill="#599cff"/>
    <path id="Trazado_605504" data-name="Trazado 605504" d="M513.4,480.95h-.058v5.478h.058Z" transform="translate(-509.885 -480.95)" fill="#589bff"/>
    <path id="Trazado_605505" data-name="Trazado 605505" d="M513.49,480.95h-.058v5.478h.058Z" transform="translate(-509.923 -480.95)" fill="#579bff"/>
    <path id="Trazado_605506" data-name="Trazado 605506" d="M513.594,480.95h-.059v5.478h.059Z" transform="translate(-509.968 -480.95)" fill="#569aff"/>
    <path id="Trazado_605507" data-name="Trazado 605507" d="M513.7,480.95h-.059v5.478h.059Z" transform="translate(-510.013 -480.95)" fill="#59f"/>
  </g>
  <path id="Trazado_605508" data-name="Trazado 605508" d="M510.6,483.144s-1.471.809-1.374,1.062a.415.415,0,0,0,.292.283l-.458.6s-.078.575.575.488c0,0-.127.526.487.37,0,0,.078.39.37.361a5.385,5.385,0,0,0,1.228-.585s.146-.2-.137-.527a.576.576,0,0,0-.136-.643.64.64,0,0,0-.244-.614s.137-.721-.449-.887a1.073,1.073,0,0,0-.156.078Z" transform="translate(-221.732 -210.406)" fill="#db9c7c"/>
  <g id="Grupo_1014677" data-name="Grupo 1014677" transform="translate(283.742 267.309)">
    <path id="Trazado_605509" data-name="Trazado 605509" d="M502.8,473.593h-.087v5.235h.087Z" transform="translate(-502.708 -473.593)" fill="#96cbff"/>
    <path id="Trazado_605510" data-name="Trazado 605510" d="M502.951,473.593h-.087v5.235h.087Z" transform="translate(-502.776 -473.593)" fill="#95caff"/>
    <path id="Trazado_605511" data-name="Trazado 605511" d="M503.133,473.593h-.1v5.235h.1Z" transform="translate(-502.851 -473.593)" fill="#94c9ff"/>
    <path id="Trazado_605512" data-name="Trazado 605512" d="M503.279,473.593h-.087v5.235h.087Z" transform="translate(-502.918 -473.593)" fill="#93c9ff"/>
    <path id="Trazado_605513" data-name="Trazado 605513" d="M503.452,473.593h-.087v5.235h.087Z" transform="translate(-502.994 -473.593)" fill="#92c8ff"/>
    <path id="Trazado_605514" data-name="Trazado 605514" d="M503.607,473.593h-.087v5.235h.087Z" transform="translate(-503.062 -473.593)" fill="#91c7ff"/>
    <path id="Trazado_605515" data-name="Trazado 605515" d="M503.779,473.593h-.087v5.235h.087Z" transform="translate(-503.137 -473.593)" fill="#90c6ff"/>
    <path id="Trazado_605516" data-name="Trazado 605516" d="M503.935,473.593h-.087v5.235h.087Z" transform="translate(-503.205 -473.593)" fill="#8fc6ff"/>
    <path id="Trazado_605517" data-name="Trazado 605517" d="M504.107,473.593h-.087v5.235h.087Z" transform="translate(-503.279 -473.593)" fill="#8ec5ff"/>
    <path id="Trazado_605518" data-name="Trazado 605518" d="M504.263,473.593h-.087v5.235h.087Z" transform="translate(-503.347 -473.593)" fill="#8dc4ff"/>
    <path id="Trazado_605519" data-name="Trazado 605519" d="M504.446,473.593h-.1v5.235h.1Z" transform="translate(-503.423 -473.593)" fill="#8cc3ff"/>
    <path id="Trazado_605520" data-name="Trazado 605520" d="M504.591,473.593H504.5v5.235h.087Z" transform="translate(-503.49 -473.593)" fill="#8bc2ff"/>
    <path id="Trazado_605521" data-name="Trazado 605521" d="M504.764,473.593h-.087v5.235h.087Z" transform="translate(-503.566 -473.593)" fill="#8ac2ff"/>
    <path id="Trazado_605522" data-name="Trazado 605522" d="M504.919,473.593h-.087v5.235h.087Z" transform="translate(-503.633 -473.593)" fill="#89c1ff"/>
    <path id="Trazado_605523" data-name="Trazado 605523" d="M505.092,473.593H505v5.235h.088Z" transform="translate(-503.708 -473.593)" fill="#88c0ff"/>
    <path id="Trazado_605524" data-name="Trazado 605524" d="M505.247,473.593h-.087v5.235h.087Z" transform="translate(-503.776 -473.593)" fill="#87bfff"/>
    <path id="Trazado_605525" data-name="Trazado 605525" d="M505.421,473.593h-.088v5.235h.088Z" transform="translate(-503.851 -473.593)" fill="#86bfff"/>
    <path id="Trazado_605526" data-name="Trazado 605526" d="M505.576,473.593h-.087v5.235h.087Z" transform="translate(-503.919 -473.593)" fill="#85beff"/>
    <path id="Trazado_605527" data-name="Trazado 605527" d="M505.758,473.593h-.1v5.235h.1Z" transform="translate(-503.994 -473.593)" fill="#84bdff"/>
    <path id="Trazado_605528" data-name="Trazado 605528" d="M505.9,473.593h-.087v5.235h.087Z" transform="translate(-504.062 -473.593)" fill="#83bcff"/>
    <path id="Trazado_605529" data-name="Trazado 605529" d="M506.077,473.593h-.088v5.235h.088Z" transform="translate(-504.137 -473.593)" fill="#82bbff"/>
    <path id="Trazado_605530" data-name="Trazado 605530" d="M506.232,473.593h-.087v5.235h.087Z" transform="translate(-504.205 -473.593)" fill="#81bbff"/>
    <path id="Trazado_605531" data-name="Trazado 605531" d="M506.4,473.593h-.088v5.235h.088Z" transform="translate(-504.28 -473.593)" fill="#80baff"/>
    <path id="Trazado_605532" data-name="Trazado 605532" d="M506.56,473.593h-.087v5.235h.087Z" transform="translate(-504.348 -473.593)" fill="#7fb9ff"/>
    <path id="Trazado_605533" data-name="Trazado 605533" d="M506.732,473.593h-.087v5.235h.087Z" transform="translate(-504.423 -473.593)" fill="#7eb8ff"/>
    <path id="Trazado_605534" data-name="Trazado 605534" d="M506.888,473.593H506.8v5.235h.087Z" transform="translate(-504.491 -473.593)" fill="#7db7ff"/>
    <path id="Trazado_605535" data-name="Trazado 605535" d="M507.061,473.593h-.087v5.235h.087Z" transform="translate(-504.566 -473.593)" fill="#7cb7ff"/>
    <path id="Trazado_605536" data-name="Trazado 605536" d="M507.216,473.593h-.088v5.235h.088Z" transform="translate(-504.633 -473.593)" fill="#7bb6ff"/>
    <path id="Trazado_605537" data-name="Trazado 605537" d="M507.389,473.593H507.3v5.235h.088Z" transform="translate(-504.709 -473.593)" fill="#7ab5ff"/>
    <path id="Trazado_605538" data-name="Trazado 605538" d="M507.554,473.593h-.1v5.235h.1Z" transform="translate(-504.777 -473.593)" fill="#79b4ff"/>
    <path id="Trazado_605539" data-name="Trazado 605539" d="M507.717,473.593h-.088v5.235h.088Z" transform="translate(-504.852 -473.593)" fill="#78b4ff"/>
    <path id="Trazado_605540" data-name="Trazado 605540" d="M507.872,473.593h-.087v5.235h.087Z" transform="translate(-504.919 -473.593)" fill="#77b3ff"/>
    <path id="Trazado_605541" data-name="Trazado 605541" d="M508.027,473.593h-.087v5.235h.087Z" transform="translate(-504.987 -473.593)" fill="#76b2ff"/>
    <path id="Trazado_605542" data-name="Trazado 605542" d="M508.2,473.593h-.087v5.235h.087Z" transform="translate(-505.062 -473.593)" fill="#74b1ff"/>
    <path id="Trazado_605543" data-name="Trazado 605543" d="M508.357,473.593h-.087v5.235h.087Z" transform="translate(-505.13 -473.593)" fill="#73b0ff"/>
    <path id="Trazado_605544" data-name="Trazado 605544" d="M508.528,473.593h-.088v5.235h.088Z" transform="translate(-505.205 -473.593)" fill="#72b0ff"/>
    <path id="Trazado_605545" data-name="Trazado 605545" d="M508.685,473.593H508.6v5.235h.088Z" transform="translate(-505.273 -473.593)" fill="#71afff"/>
    <path id="Trazado_605546" data-name="Trazado 605546" d="M508.866,473.593h-.1v5.235h.1Z" transform="translate(-505.348 -473.593)" fill="#70aeff"/>
    <path id="Trazado_605547" data-name="Trazado 605547" d="M509.012,473.593h-.087v5.235h.087Z" transform="translate(-505.416 -473.593)" fill="#6fadff"/>
    <path id="Trazado_605548" data-name="Trazado 605548" d="M509.185,473.593H509.1v5.235h.087Z" transform="translate(-505.491 -473.593)" fill="#6eadff"/>
    <path id="Trazado_605549" data-name="Trazado 605549" d="M509.34,473.593h-.088v5.235h.088Z" transform="translate(-505.558 -473.593)" fill="#6dacff"/>
    <path id="Trazado_605550" data-name="Trazado 605550" d="M509.513,473.593h-.088v5.235h.088Z" transform="translate(-505.634 -473.593)" fill="#6cabff"/>
    <path id="Trazado_605551" data-name="Trazado 605551" d="M509.668,473.593h-.087v5.235h.087Z" transform="translate(-505.702 -473.593)" fill="#6baaff"/>
    <path id="Trazado_605552" data-name="Trazado 605552" d="M509.841,473.593h-.088v5.235h.088Z" transform="translate(-505.777 -473.593)" fill="#6aa9ff"/>
    <path id="Trazado_605553" data-name="Trazado 605553" d="M510,473.593h-.087v5.235H510Z" transform="translate(-505.845 -473.593)" fill="#69a9ff"/>
    <path id="Trazado_605554" data-name="Trazado 605554" d="M510.169,473.593h-.087v5.235h.087Z" transform="translate(-505.92 -473.593)" fill="#68a8ff"/>
    <path id="Trazado_605555" data-name="Trazado 605555" d="M510.335,473.593h-.1v5.235h.1Z" transform="translate(-505.987 -473.593)" fill="#67a7ff"/>
    <path id="Trazado_605556" data-name="Trazado 605556" d="M510.5,473.593h-.087v5.235h.087Z" transform="translate(-506.063 -473.593)" fill="#66a6ff"/>
    <path id="Trazado_605557" data-name="Trazado 605557" d="M510.652,473.593h-.088v5.235h.088Z" transform="translate(-506.13 -473.593)" fill="#65a6ff"/>
    <path id="Trazado_605558" data-name="Trazado 605558" d="M510.825,473.593h-.088v5.235h.088Z" transform="translate(-506.205 -473.593)" fill="#64a5ff"/>
    <path id="Trazado_605559" data-name="Trazado 605559" d="M510.982,473.593h-.087v5.235h.087Z" transform="translate(-506.274 -473.593)" fill="#63a4ff"/>
    <path id="Trazado_605560" data-name="Trazado 605560" d="M511.153,473.593h-.088v5.235h.088Z" transform="translate(-506.348 -473.593)" fill="#62a3ff"/>
    <path id="Trazado_605561" data-name="Trazado 605561" d="M511.31,473.593h-.088v5.235h.088Z" transform="translate(-506.416 -473.593)" fill="#61a2ff"/>
    <path id="Trazado_605562" data-name="Trazado 605562" d="M511.482,473.593h-.087v5.235h.087Z" transform="translate(-506.491 -473.593)" fill="#60a2ff"/>
    <path id="Trazado_605563" data-name="Trazado 605563" d="M511.647,473.593h-.1v5.235h.1Z" transform="translate(-506.559 -473.593)" fill="#5fa1ff"/>
    <path id="Trazado_605564" data-name="Trazado 605564" d="M511.81,473.593h-.088v5.235h.088Z" transform="translate(-506.634 -473.593)" fill="#5ea0ff"/>
    <path id="Trazado_605565" data-name="Trazado 605565" d="M511.965,473.593h-.088v5.235h.088Z" transform="translate(-506.702 -473.593)" fill="#5d9fff"/>
    <path id="Trazado_605566" data-name="Trazado 605566" d="M512.138,473.593h-.088v5.235h.088Z" transform="translate(-506.777 -473.593)" fill="#5c9eff"/>
    <path id="Trazado_605567" data-name="Trazado 605567" d="M512.294,473.593h-.088v5.235h.088Z" transform="translate(-506.845 -473.593)" fill="#5b9eff"/>
    <path id="Trazado_605568" data-name="Trazado 605568" d="M512.466,473.593h-.088v5.235h.088Z" transform="translate(-506.92 -473.593)" fill="#5a9dff"/>
    <path id="Trazado_605569" data-name="Trazado 605569" d="M512.622,473.593h-.088v5.235h.088Z" transform="translate(-506.988 -473.593)" fill="#599cff"/>
    <path id="Trazado_605570" data-name="Trazado 605570" d="M512.776,473.593h-.088v5.235h.088Z" transform="translate(-507.055 -473.593)" fill="#589bff"/>
    <path id="Trazado_605571" data-name="Trazado 605571" d="M512.949,473.593h-.088v5.235h.088Z" transform="translate(-507.13 -473.593)" fill="#579bff"/>
    <path id="Trazado_605572" data-name="Trazado 605572" d="M513.115,473.593h-.1v5.235h.1Z" transform="translate(-507.199 -473.593)" fill="#569aff"/>
    <path id="Trazado_605573" data-name="Trazado 605573" d="M513.277,473.593h-.088v5.235h.088Z" transform="translate(-507.273 -473.593)" fill="#59f"/>
  </g>
  <path id="Trazado_605574" data-name="Trazado 605574" d="M507.139,485.162a5.893,5.893,0,0,1,1.793.225c.147.058.273.146.273.3s-.224.351-.721.39a4.238,4.238,0,0,0-1.13.322S506.827,486.293,507.139,485.162Z" transform="translate(-220.853 -211.323)" fill="#eea886"/>
  <path id="Trazado_605575" data-name="Trazado 605575" d="M484.555,553.08c-.087.458-.176.926-.273,1.394l-2.954-7.817C481.719,547.446,484.555,553.08,484.555,553.08Z" transform="translate(-209.654 -238.109)" fill="#293b57"/>
  <path id="Trazado_605576" data-name="Trazado 605576" d="M111.636,240.432h46.619a6.244,6.244,0,0,1,6.238,6.238v73.637a6.244,6.244,0,0,1-6.238,6.238h-46.61a6.244,6.244,0,0,1-6.238-6.238V246.67a6.244,6.244,0,0,1,6.238-6.238Z" transform="translate(-45.913 -104.726)" fill="#fee132"/>
  <path id="Trazado_605577" data-name="Trazado 605577" d="M196.591,338.949H193.53v23.3h3.061Z" transform="translate(-84.296 -147.637)" fill="#e3f2ff"/>
  <path id="Trazado_605578" data-name="Trazado 605578" d="M185.867,343.577h-3.06V364.26h3.06Z" transform="translate(-79.626 -149.653)" fill="#e3f2ff"/>
  <path id="Trazado_605579" data-name="Trazado 605579" d="M174.227,349.587h-3.06v17.291h3.06Z" transform="translate(-74.556 -152.271)" fill="#e3f2ff"/>
  <path id="Trazado_605580" data-name="Trazado 605580" d="M162.278,357.185h-3.061V370.2h3.061Z" transform="translate(-69.351 -155.58)" fill="#e3f2ff"/>
  <path id="Trazado_605581" data-name="Trazado 605581" d="M126.345,309.377l-.663-.234,5.77-16.2,12.515-3.3,4.5-17.778,9.659-4.26,2.164-13.821.692.107-2.223,14.2-9.7,4.279-4.513,17.847-12.564,3.323Z" transform="translate(-54.744 -110.54)" fill="#e3f2ff"/>
  <path id="Trazado_605582" data-name="Trazado 605582" d="M158.6,315.177a1.877,1.877,0,1,1-2.642-.264A1.883,1.883,0,0,1,158.6,315.177Z" transform="translate(-67.633 -136.984)" fill="#ffc955"/>
  <path id="Trazado_605583" data-name="Trazado 605583" d="M158.29,317.818a2.23,2.23,0,1,1,.312-3.139A2.237,2.237,0,0,1,158.29,317.818Zm-2.378-2.9a1.524,1.524,0,1,0,2.144.214A1.519,1.519,0,0,0,155.912,314.914Z" transform="translate(-67.361 -136.711)" fill="#e3f2ff"/>
  <path id="Trazado_605584" data-name="Trazado 605584" d="M166.684,283.816a1.877,1.877,0,1,1-2.642-.263A1.883,1.883,0,0,1,166.684,283.816Z" transform="translate(-71.154 -123.324)" fill="#ffc955"/>
  <path id="Trazado_605585" data-name="Trazado 605585" d="M166.372,286.459a2.23,2.23,0,1,1,.312-3.138A2.237,2.237,0,0,1,166.372,286.459Zm-2.379-2.9a1.524,1.524,0,1,0,2.144.215A1.521,1.521,0,0,0,163.994,283.554Z" transform="translate(-70.881 -123.052)" fill="#e3f2ff"/>
  <path id="Trazado_605586" data-name="Trazado 605586" d="M183.538,276.045a1.877,1.877,0,1,1-2.642-.263A1.883,1.883,0,0,1,183.538,276.045Z" transform="translate(-78.495 -119.939)" fill="#ffc955"/>
  <path id="Trazado_605587" data-name="Trazado 605587" d="M183.226,278.688a2.23,2.23,0,1,1,.312-3.138A2.237,2.237,0,0,1,183.226,278.688Zm-2.378-2.9a1.524,1.524,0,1,0,2.144.214A1.521,1.521,0,0,0,180.848,275.783Z" transform="translate(-78.222 -119.667)" fill="#e3f2ff"/>
  <path id="Trazado_605588" data-name="Trazado 605588" d="M136.515,321.341a1.877,1.877,0,1,1-2.642-.263A1.883,1.883,0,0,1,136.515,321.341Z" transform="translate(-58.013 -139.669)" fill="#ffc955"/>
  <path id="Trazado_605589" data-name="Trazado 605589" d="M136.2,323.983a2.23,2.23,0,1,1,.312-3.139A2.237,2.237,0,0,1,136.2,323.983Zm-2.378-2.9a1.524,1.524,0,1,0,2.144.215A1.519,1.519,0,0,0,133.825,321.079Z" transform="translate(-57.741 -139.397)" fill="#e3f2ff"/>
  <path id="Trazado_605590" data-name="Trazado 605590" d="M117.857,283.724h16.112a1.347,1.347,0,0,1,1.345,1.345v1.2a1.348,1.348,0,0,1-1.345,1.345H117.857a1.348,1.348,0,0,1-1.345-1.345v-1.2A1.348,1.348,0,0,1,117.857,283.724Z" transform="translate(-50.749 -123.582)" fill="#ebebeb"/>
  <path id="Trazado_605591" data-name="Trazado 605591" d="M117.857,271.653h16.112A1.348,1.348,0,0,1,135.314,273v1.2a1.348,1.348,0,0,1-1.345,1.346H117.857a1.348,1.348,0,0,1-1.345-1.346V273A1.348,1.348,0,0,1,117.857,271.653Z" transform="translate(-50.749 -118.325)" fill="#ebebeb"/>
  <path id="Trazado_605592" data-name="Trazado 605592" d="M90.388,296.184s-.546,5.38.448,6.725c0,0-2.632-.575-3.236-1.482s2.788-5.254,2.788-5.254Z" transform="translate(-38.125 -129.005)" fill="#16202e"/>
  <path id="Trazado_605593" data-name="Trazado 605593" d="M121.433,326s.956-.643,1.1-.732a2.691,2.691,0,0,1,1.2-.01,3.23,3.23,0,0,1,1.335.5.534.534,0,0,1,.1.4,1.011,1.011,0,0,1-.2.439.6.6,0,0,1-.117.546.5.5,0,0,1-.214.516.427.427,0,0,1-.156.439,3.586,3.586,0,0,0-.673.029,7.707,7.707,0,0,1-2.163-.3s-1.072-.234-.2-1.823Z" transform="translate(-52.747 -141.651)" fill="#eea886"/>
  <path id="Trazado_605594" data-name="Trazado 605594" d="M124.224,327.4a2.864,2.864,0,0,1-.439.6c-.156.1.731,1.053.731,1.053S124.819,327.767,124.224,327.4Z" transform="translate(-53.91 -142.605)" fill="#cf8c6c"/>
  <path id="Trazado_605595" data-name="Trazado 605595" d="M120.121,326.586a4.1,4.1,0,0,0,.975-.234c.37-.176-.068,1.872-.068,1.872a3.717,3.717,0,0,0-1.482-.634c-.585-.019.585-.994.585-.994Z" transform="translate(-52 -142.145)" fill="#eea886"/>
  <path id="Trazado_605596" data-name="Trazado 605596" d="M74.728,423.027a33.363,33.363,0,0,0,2.534,3.324s1.306.682,1.345,1.219c.078,1.023.127,1.627-1.589,1.676s-2.8,0-3.119-1.053a7.766,7.766,0,0,0-.858-1.862l-.127,2.719h-.39s-.175-2.719-.195-3.109-.283-1.881.536-2.544a2.258,2.258,0,0,1,1.862-.38Z" transform="translate(-31.481 -184.229)" fill="#162d40"/>
  <path id="Trazado_605597" data-name="Trazado 605597" d="M77.827,425.958a4.315,4.315,0,0,1-2.037-.02c-1.111-.283-2.174-2.934-2.5-3.148l-.283-1.072h2.164a3.855,3.855,0,0,0,.37,1.471,25.528,25.528,0,0,0,2.291,2.769Z" transform="translate(-31.802 -183.689)" fill="#162d40"/>
  <path id="Trazado_605598" data-name="Trazado 605598" d="M95.97,420.829a7.132,7.132,0,0,0,.809,1.355c.39.507,1.6,2.592,2.135,2.739s2.183.439,2.329,1.355.214,1.579-1.4,1.647-2.69.166-3.47-.975a8.557,8.557,0,0,0-2.018-1.969v2.973h-.634a27.625,27.625,0,0,0-.458-3.314,3.754,3.754,0,0,1,.9-3.831c1.5-1.238,1.8,0,1.8,0Z" transform="translate(-40.539 -183.053)" fill="#162d40"/>
  <path id="Trazado_605599" data-name="Trazado 605599" d="M99.488,425.1s-1.452.361-2.018,0-2.456-3.567-3.08-3.762c0,0,.6-1.238,2.144-.341C96.535,421,99.069,424.567,99.488,425.1Z" transform="translate(-41.114 -183.234)" fill="#162d40"/>
  <path id="Trazado_605600" data-name="Trazado 605600" d="M72.5,341.66a15.208,15.208,0,0,0-2.612,5.838c-.556,3.168.331,13.792.3,15.361s-1.384,6.433-1.092,9.386S70.908,387.5,70.908,387.5l3.558-.068s-.712-13.275-.526-14.513.76-6.5.838-7.008,4.055-13.987,4.055-16.267-1.384-11.7-6.335-7.973Z" transform="translate(-30.078 -148.447)" fill="#1d3b54"/>
  <path id="Trazado_605601" data-name="Trazado 605601" d="M87.976,343.649s3.372,12.866,3.772,14.659,1.2,4.114,1.169,4.445-.428,5.819-.428,5.819l-.955,18.7H87.976s-1.14-11.9-1.326-14.3,1.306-6.111.945-7.134-5.858-12.778-5.858-12.778S77.576,339.916,87.976,343.649Z" transform="translate(-35.244 -149.394)" fill="#1d3b54"/>
  <path id="Trazado_605602" data-name="Trazado 605602" d="M90.658,310.042a4.091,4.091,0,0,1,2.368,1.218,15.473,15.473,0,0,1,2.242,3.411c.263.585,4.006,5.975,4.2,6.1s1.832-.312,3.138-.419a28.478,28.478,0,0,0,5.332-1.267l.478,2.417s-7.865,2.534-9.678,2.1c-2.223-.546-7.33-7.106-7.33-7.106S87.6,312.03,90.658,310.042Z" transform="translate(-38.97 -135.046)" fill="#eddad3"/>
  <path id="Trazado_605603" data-name="Trazado 605603" d="M80.186,308.3a17.746,17.746,0,0,0,2.349.945c.6.117,2.963,3.177,3.372,4.3s0,2.788-.848,4.756-.049,2.622-.439,4.591a54.021,54.021,0,0,0-.312,8.412c.068,1.092-11.228,3.148-13.49,1.16,0,0,1.53-5.039,3.333-6.93.39-.41.351-3.139.078-3.811s-3.275-5.751-3.275-5.751-.224-5.146,1.092-6.16c1.14-.887,4.25-1.2,4.805-1.394a9.383,9.383,0,0,1,3.324-.107Z" transform="translate(-30.847 -134.251)" fill="#eddad3"/>
  <path id="Trazado_605604" data-name="Trazado 605604" d="M88.357,311.766l1.062-1.247-.926-3.275a21.28,21.28,0,0,0-.136,4.513Z" transform="translate(-38.463 -133.827)" fill="#d1c0ba"/>
  <path id="Trazado_605605" data-name="Trazado 605605" d="M70.983,309.984a3.033,3.033,0,0,0-3.46,1.794c-1.257,2.427-.945,3.733-1.238,4.825s-1.452,8.392-1.53,8.714-1.189,4.026-1.043,5.166,1.189,9.776,1.14,10.069,2.018-.283,2.018-.283-.088-8.821-.01-9.552.146-4.552.692-5.536,1.891-6.989,2.183-7.6,3.109-6.823,1.257-7.6Z" transform="translate(-27.745 -134.988)" fill="#eea886"/>
  <path id="Trazado_605606" data-name="Trazado 605606" d="M85.678,302.946a40.445,40.445,0,0,0-.273,4.25s-1.813,1.823-3.879-2.125a5.425,5.425,0,0,0,.214-3.84C81.087,299.018,85.678,302.946,85.678,302.946Z" transform="translate(-35.51 -130.913)" fill="#eea886"/>
  <path id="Trazado_605607" data-name="Trazado 605607" d="M86.894,312.268v1.657L84.944,312.2Z" transform="translate(-36.999 -135.986)" fill="#eea886"/>
  <path id="Trazado_605608" data-name="Trazado 605608" d="M84.63,312.18l-.867-1.072-2.924-2.915-1.092.488Z" transform="translate(-34.736 -134.24)" fill="#d1c0ba"/>
  <path id="Trazado_605609" data-name="Trazado 605609" d="M89.566,310.536l1.335.361-2.261-3.635Z" transform="translate(-38.609 -133.835)" fill="#fae6de"/>
  <path id="Trazado_605610" data-name="Trazado 605610" d="M83.726,310.95,82.5,312.909l-2.836-4.454,1.218-.624Z" transform="translate(-34.698 -134.083)" fill="#fae6de"/>
  <path id="Trazado_605611" data-name="Trazado 605611" d="M97.172,323.734a14.779,14.779,0,0,0-.029-4.679s-.253,1.423-.887,3.646l.906,1.023Z" transform="translate(-41.926 -138.972)" fill="#d1c0ba"/>
  <path id="Trazado_605612" data-name="Trazado 605612" d="M73.841,323.421s1.209-4,1.277-4.211a33.25,33.25,0,0,1-.546,5.488S74.124,323.918,73.841,323.421Z" transform="translate(-32.163 -139.039)" fill="#d1c0ba"/>
  <path id="Trazado_605613" data-name="Trazado 605613" d="M138.887,291.184,119.88,315.132l.663.516Z" transform="translate(-52.216 -126.832)" fill="#54281a"/>
  <path id="Trazado_605614" data-name="Trazado 605614" d="M126.254,326.105s-1.423-.137-1.472.1a.375.375,0,0,0,.068.341l-.614.214a.373.373,0,0,0,.166.614s-.341.312.165.5c0,0-.136.3.088.428a4.752,4.752,0,0,0,1.14.176s.2-.078.156-.439a.5.5,0,0,0,.214-.516.534.534,0,0,0,.117-.546s.439-.448.107-.838a.854.854,0,0,0-.146-.02Z" transform="translate(-54.069 -142.025)" fill="#db9c7c"/>
  <path id="Trazado_605615" data-name="Trazado 605615" d="M123.339,325.307a4.927,4.927,0,0,1,1.16,1.014.285.285,0,0,1,.049.341c-.078.107-.332.146-.7-.068a3.407,3.407,0,0,0-.945-.312S122.579,325.95,123.339,325.307Z" transform="translate(-53.503 -141.695)" fill="#eea886"/>
  <path id="Trazado_605616" data-name="Trazado 605616" d="M83.388,285.467s3.216-.087,3.811,3.724-.78,7.154-1.316,7.69-3.753.126-4.513-1.852-1.871-3.422-1.706-5.118-.244-4.513,3.714-4.444Z" transform="translate(-34.693 -124.341)" fill="#eea886"/>
  <path id="Trazado_605617" data-name="Trazado 605617" d="M85.748,290.178s.858-4.746-3.411-5.6-5.77,2.066-6.17,3.811.078,6.638.078,6.638a22.1,22.1,0,0,0,4.542,3.138s-1.423-5.214-.887-8.947a18.245,18.245,0,0,0,5.77-.02S85.739,289.974,85.748,290.178Z" transform="translate(-33.105 -123.887)" fill="#16202e"/>
  <path id="Trazado_605618" data-name="Trazado 605618" d="M86.73,305.285a5.3,5.3,0,0,1-2.632-.994,6.268,6.268,0,0,0,2.554,1.833S86.74,305.451,86.73,305.285Z" transform="translate(-36.631 -132.541)" fill="#a77860"/>
  <path id="Trazado_605619" data-name="Trazado 605619" d="M67.889,349.507,55.47,351.534l1.5,9.187,12.419-2.027Z" transform="translate(-24.161 -152.236)" fill="#366e9c"/>
  <path id="Trazado_605620" data-name="Trazado 605620" d="M64.665,365.547a1.8,1.8,0,0,1-.214-.5,5.646,5.646,0,0,0-.029-.566.73.73,0,0,0-.02-.176,3.236,3.236,0,0,1-.146-.974,21.5,21.5,0,0,1,.624-2.3l1.1.039,1.033-.107a21.824,21.824,0,0,1,1.277,2.8v.117a3.6,3.6,0,0,1-.2.789c-.01.068-.166.731-.341.819a.655.655,0,0,1-.643.01,1.592,1.592,0,0,1-.858.127.97.97,0,0,1-.867-.029s-.487.176-.712-.039Z" transform="translate(-27.987 -157.227)" fill="#eea886"/>
  <path id="Trazado_605621" data-name="Trazado 605621" d="M70.991,309.984a3.033,3.033,0,0,0-3.46,1.794,11.083,11.083,0,0,0-1.423,4.649c-.156,1.121-1.7,7.768-1.774,8.08s-.575,4.464-.614,5.985c-.029,1.15.244,8.684.195,8.977s3.489-.507,3.489-.507-.39-6.95-.322-7.681a38.748,38.748,0,0,1,.585-5.419c.419-1.247,2.066-7.564,2.359-8.188s2.827-6.9.975-7.68Z" transform="translate(-27.754 -134.988)" fill="#eddad3"/>
  <path id="Trazado_605622" data-name="Trazado 605622" d="M275.81,424.128l.225-2.135a16.516,16.516,0,0,0-3.363.234s.253,1.793.283,2.056,2.846-.156,2.846-.156Z" transform="translate(-118.768 -183.809)" fill="#5c544d"/>
  <path id="Trazado_605623" data-name="Trazado 605623" d="M267.127,430.09c3.577-.029,5.3.214,5.692-.37s-.556-4.289-.556-4.289a7.378,7.378,0,0,1-2.894.117,7.451,7.451,0,0,1-1.755,1.55c-.857.468-2.213.653-2.729,1.14-.37.351-1.335,1.861,2.242,1.833Z" transform="translate(-115.202 -185.306)" fill="#3c4145"/>
  <path id="Trazado_605624" data-name="Trazado 605624" d="M240.1,424.128l.225-2.135a16.516,16.516,0,0,0-3.363.234s.253,1.793.292,2.056S240.1,424.128,240.1,424.128Z" transform="translate(-103.213 -183.809)" fill="#5c544d"/>
  <path id="Trazado_605625" data-name="Trazado 605625" d="M230.159,430.09c3.577-.1,5.3.214,5.692-.37s-.555-4.289-.555-4.289a6.737,6.737,0,0,1-2.895.117,7.678,7.678,0,0,1-1.755,1.55c-.857.468-4.035.857-4.542,1.345-.37.35-.975,1.764,4.055,1.637Z" transform="translate(-98.381 -185.306)" fill="#3c4145"/>
  <path id="Trazado_605626" data-name="Trazado 605626" d="M264.9,340.469a26.273,26.273,0,0,1,1.3,8.275c-.195,3.831.77,8.022,1.169,12.028.439,4.464,2.251,15.02,2.32,17.408s-.283,10.01-.283,10.01l-3.626.088s-3.041-18.47-3.83-20.352-4.7-15.322-4.834-16.823,7.778-10.634,7.778-10.634Z" transform="translate(-111.99 -148.299)" fill="#dbd8e3"/>
  <path id="Trazado_605627" data-name="Trazado 605627" d="M240.51,340.868s-1.988,10.5-2.251,12.846-.439,11.346-.565,12.817-.877,19.182-1.579,21.356h4.63s3.558-12.876,3.558-18.968,2.749-13.246,4.523-17.262,5.838-4.113,6.93-11.57c0,0-13.763-1.579-15.245.79Z" transform="translate(-102.845 -147.909)" fill="#dbd8e3"/>
  <path id="Trazado_605628" data-name="Trazado 605628" d="M255.577,278.026s-3.655-1.365-5.341,1.413-1.521,8.343.322,9.035,4.61.331,5.546-1.413a13.962,13.962,0,0,0,1.754-5.936A3.66,3.66,0,0,0,255.577,278.026Z" transform="translate(-108.487 -120.955)" fill="#eea886"/>
  <path id="Trazado_605629" data-name="Trazado 605629" d="M252.714,293.892a3.092,3.092,0,0,1-.1,1.433c-.244.467,4.591.487,4.591.487a31.46,31.46,0,0,1,1.14-4.737C259.088,288.911,252.714,293.892,252.714,293.892Z" transform="translate(-110.029 -126.547)" fill="#eea886"/>
  <path id="Trazado_605630" data-name="Trazado 605630" d="M257.129,285.185s-.331.546-1.7.341-3.031-2.027-3.6-2.222-.575-.536-.575-.536l-.361.517-.6.039s.556-1.618-.282-2.281.868-5.254,5.234-3.724c0,0,3.129.614,3.324,2.525a8.659,8.659,0,0,1-1.452,5.351Z" transform="translate(-108.811 -120.658)" fill="#fccca2"/>
  <path id="Trazado_605631" data-name="Trazado 605631" d="M252.1,297.9s.02-.9.419-.985a29.259,29.259,0,0,1,5.01-.282v1.053s-.965.594-5.439.224Z" transform="translate(-109.803 -129.182)" fill="#e2d2ca"/>
  <path id="Trazado_605632" data-name="Trazado 605632" d="M252.452,285.431c.078-.322.887-1.238,1.2-.253s-.468,2.3-.906,2.183S252.257,286.241,252.452,285.431Z" transform="translate(-109.914 -124.023)" fill="#eea886"/>
  <path id="Trazado_605633" data-name="Trazado 605633" d="M240.368,298.748s-2.252.809-4.854,1.91a5.485,5.485,0,0,0-3.324,4.425c-.176,1.755-2.037,11.072-2.388,11.862s-4.493,13.451-4.639,13.714,3.382,1.725,3.616,1.609,4.016-11.55,4.4-12.4c0,0,2.174-6.862,2.232-7.875,0,0,.059,2.914.176,3.733s-1.94,16.7-1.872,17.135,9.328.994,13.032.585a45.818,45.818,0,0,0,6.706-1.258s-2.914-12.534-2.827-13.918c.2-3.032,1.209-8.733,1.209-8.733l3.021,5.7-3.87,9.962.887,3.021s7.193-10.868,7.427-11.862a5.352,5.352,0,0,0-.731-3.08c-.38-.818-2.875-7.037-3.46-7.914s-1.569-4.386-3.957-5.361a36.9,36.9,0,0,0-5.341-1.482Z" transform="translate(-98.073 -130.028)" fill="#304c8e"/>
  <path id="Trazado_605634" data-name="Trazado 605634" d="M233.31,341.35,216.363,337l-3.031,11.821,16.948,4.346Z" transform="translate(-92.922 -146.79)" fill="#f25f54"/>
  <path id="Trazado_605635" data-name="Trazado 605635" d="M222.023,360.069s-.487.78-.663,1,.439.361.692.137-.039-1.141-.039-1.141Z" transform="translate(-96.405 -156.836)" fill="#c98462"/>
  <path id="Trazado_605636" data-name="Trazado 605636" d="M226.062,360.536a2.165,2.165,0,0,0,.351-.488s.087-.361.165-.6c.029-.078.049-.147.068-.2a3.57,3.57,0,0,0,.39-1.033c.078-.488.283-2.651.283-2.651L226,355.233l-1.053-.224a20.877,20.877,0,0,0-2.4,2.719c-.01.039-.02.088-.029.127a4.916,4.916,0,0,0,.029.906c0,.078,0,.829.185.975a.723.723,0,0,0,.692.165,1.8,1.8,0,0,0,.906.341,1.085,1.085,0,0,0,.945.175S225.77,360.721,226.062,360.536Z" transform="translate(-96.916 -154.632)" fill="#de9d7d"/>
  <path id="Trazado_605637" data-name="Trazado 605637" d="M232.357,339.451s-3.012,9.113-3.558,10.069a10.037,10.037,0,0,1-3.616-1.609l3.3-9.825,3.879,1.374Z" transform="translate(-98.084 -147.261)" fill="#63a4ff"/>
  <path id="Trazado_605638" data-name="Trazado 605638" d="M664.451,329.9s11.16-32.74-10.136-42.9-39.4,4.523-42.808,12.466-2.515,22.379.4,32.447,2.485,25.391-3.84,30.518-14.182,13.635-13.792,30.966c.243,10.751,42.3-27.5,42.3-27.5l27.886-36Z" transform="translate(-258.843 -123.505)" fill="#252e3b"/>
  <path id="Trazado_605639" data-name="Trazado 605639" d="M629.429,433.972s-17.515,3.879-24.465,7.944-22.389,22.749-22.389,30.78,67.507,15.537,67.507,15.537l12.8,46.707s34.124-8.324,38.178-15.234-12.954-56.4-15.868-66.415c-2.973-10.215-15.205-17.34-29.416-19.338a97.8,97.8,0,0,0-26.346,0Z" transform="translate(-253.754 -188.633)" fill="#fee132"/>
  <path id="Trazado_605640" data-name="Trazado 605640" d="M686.211,433.435s-.389,21.287-17.271,21.921-13.363-20.42-13.363-20.42,12.349-5,30.644-1.5Z" transform="translate(-285.419 -188.251)" fill="#eea886"/>
  <path id="Trazado_605641" data-name="Trazado 605641" d="M709.812,320.592s5.974,34.231-11.034,58.959C681.166,405.166,709.812,320.592,709.812,320.592Z" transform="translate(-301.875 -139.641)" fill="#252e3b"/>
  <path id="Trazado_605642" data-name="Trazado 605642" d="M684.387,402.333s-1.169,10.186.79,16.511-25.81,6.511-25.79,1.3c.02-5.916,2.836-10.858.185-20.995s24.826,3.178,24.826,3.178Z" transform="translate(-287.211 -172.199)" fill="#eea886"/>
  <path id="Trazado_605643" data-name="Trazado 605643" d="M665.516,410.027s8.772,9.133,19.981.955c0,0-.926,5.838-8.987,6.589S665.516,410.027,665.516,410.027Z" transform="translate(-289.881 -178.597)" fill="#a77860"/>
  <path id="Trazado_605644" data-name="Trazado 605644" d="M665.949,299.216s22.155,6.56,19,37.311-17.632,29.172-19,29.4-18.539,1.355-23.967-35.956S665.949,299.216,665.949,299.216Z" transform="translate(-279.338 -130.137)" fill="#eea886"/>
  <path id="Trazado_605645" data-name="Trazado 605645" d="M658.991,311.473s12.038,19.153,24.719,23.6c0,0,6.92-32.136-21.658-38.871s-24.1,32.457-21.97,42.916A84.98,84.98,0,0,1,659,311.473Z" transform="translate(-278.102 -128.68)" fill="#252e3b"/>
  <path id="Trazado_605646" data-name="Trazado 605646" d="M646.2,307.515s6.336-12.271,17.038-12.827,17.067,8.733,17.067,8.733a18.2,18.2,0,0,0-17.057-10.458c-12.876,0-17.057,14.542-17.057,14.542Z" transform="translate(-281.464 -127.607)" fill="#88c0ff"/>
  <path id="Trazado_605647" data-name="Trazado 605647" d="M647.088,489.791l7.515,69.866H555.691l-7.515-69.866Z" transform="translate(-238.771 -213.34)" fill="#7e19b8"/>
  <path id="Trazado_605648" data-name="Trazado 605648" d="M649.652,554.747H549.873l-7.6-70.724H642.05Zm-99-.858h98.034l-7.418-69H543.226Z" transform="translate(-236.198 -210.827)" fill="#5fa0ff"/>
  <path id="Trazado_605649" data-name="Trazado 605649" d="M643.687,544.494c.887,4.347-1.141,8.431-4.532,9.123s-6.852-2.271-7.749-6.618,1.141-8.431,4.532-9.123S642.79,540.147,643.687,544.494Z" transform="translate(-274.932 -234.24)" fill="#fee132"/>
  <path id="Trazado_605650" data-name="Trazado 605650" d="M720.155,608.15h18.461v-7.028H720.155Z" transform="translate(-313.68 -261.832)" fill="#5fa0ff"/>
  <path id="Trazado_605651" data-name="Trazado 605651" d="M606.753,218.434a15.215,15.215,0,1,1,15.215-15.215A15.229,15.229,0,0,1,606.753,218.434Zm0-29.572a14.357,14.357,0,1,0,14.357,14.357A14.376,14.376,0,0,0,606.753,188.862Z" transform="translate(-257.658 -81.889)" fill="#64a4ff"/>
  <path id="Trazado_605652" data-name="Trazado 605652" d="M80.753,451.656v-1.3c2.573-.02,5.166-.1,7.72-.214l.058,1.3C85.968,451.558,83.346,451.636,80.753,451.656Zm-7.788-.078c-2.553-.068-5.175-.195-7.778-.361l.078-1.286c2.592.165,5.185.283,7.729.351l-.039,1.3Zm23.324-.653-.117-1.286c2.553-.224,5.136-.5,7.69-.829l.165,1.286C101.465,450.418,98.863,450.7,96.29,450.925ZM57.429,450.6c-2.651-.263-5.254-.6-7.729-1l.2-1.277c2.447.4,5.02.731,7.651.994Zm54.3-1.647-.214-1.277c2.5-.419,5.049-.9,7.6-1.423l.264,1.267C116.817,448.049,114.243,448.536,111.729,448.956Zm-69.681-.9c-2.6-.633-5.127-1.364-7.505-2.183l.419-1.218c2.33.8,4.815,1.52,7.388,2.144Zm84.925-2.232-.3-1.258c2.378-.565,4.824-1.189,7.5-1.9l.332,1.247C131.817,444.628,129.351,445.262,126.973,445.827ZM27.3,442.932a56.147,56.147,0,0,1-6.833-3.85L21.18,438a54.1,54.1,0,0,0,6.677,3.752l-.556,1.17Zm114.692-1.072-.351-1.247q1.623-.453,3.217-.906c1.433-.409,2.856-.809,4.25-1.2l.351,1.247c-1.394.39-2.817.79-4.25,1.2Q143.615,441.407,141.993,441.86Zm67.439-1.081a76.876,76.876,0,0,0-7.106-2.954l.439-1.218c2.368.848,4.8,1.861,7.222,3Zm-52.487-3.041-.322-1.258c2.788-.712,5.263-1.286,7.583-1.774l.263,1.267c-2.3.478-4.756,1.053-7.524,1.754Zm38.023-2.086a61.038,61.038,0,0,0-7.573-1.257l.127-1.287a63.88,63.88,0,0,1,7.729,1.277l-.292,1.258Zm-22.9-.955-.166-1.287a73.378,73.378,0,0,1,7.8-.6l.029,1.3A73.577,73.577,0,0,0,172.072,434.7Zm-157.763-.448A43.1,43.1,0,0,1,9.055,428.4l1.033-.77a42.366,42.366,0,0,0,5.1,5.673ZM4.961,421.694a45.648,45.648,0,0,1-2.827-7.33L3.372,414a44.039,44.039,0,0,0,2.749,7.125ZM.526,406.674A61.711,61.711,0,0,1,0,398.847H1.277a59.088,59.088,0,0,0,.517,7.651l-1.287.176Zm1.15-15.508L.39,391.04c.263-2.534.653-5.137,1.16-7.739l1.267.253c-.507,2.564-.887,5.127-1.15,7.612ZM4.64,376.059,3.392,375.7a70.6,70.6,0,0,1,2.544-7.427l1.189.507A69.95,69.95,0,0,0,4.64,376.059Z" transform="translate(0 -160.409)" fill="#c2bebc"/>
  <path id="Trazado_605653" data-name="Trazado 605653" d="M507,58.647s-2.183-1.94-6.053-4.815l.77-1.043c3.918,2.914,6.121,4.864,6.14,4.883l-.858.965Zm-12.378-9.27c-2.125-1.423-4.328-2.817-6.54-4.142l.663-1.111c2.232,1.335,4.445,2.749,6.589,4.172l-.721,1.072ZM481.368,41.4C479.1,40.177,476.777,39,474.477,37.9l.555-1.17c2.32,1.111,4.659,2.3,6.95,3.538ZM467.42,34.728c-2.388-1-4.815-1.94-7.2-2.8l.439-1.218c2.417.858,4.864,1.813,7.271,2.817l-.5,1.189Zm-98.3-1.579-.029-1.3a55.3,55.3,0,0,0,7.632-.712l.2,1.277A56.334,56.334,0,0,1,369.122,33.149Zm-7.827-.4a57.9,57.9,0,0,1-7.69-1.511l.331-1.248a56.853,56.853,0,0,0,7.515,1.482l-.156,1.287Zm23.276-2.086-.361-1.238c.829-.244,1.676-.507,2.515-.79,1.618-.546,3.265-1.053,4.9-1.511l.351,1.248c-1.618.458-3.246.955-4.844,1.491-.857.283-1.715.556-2.563.809Zm68.3-1.111c-2.485-.731-5-1.394-7.466-1.969l.292-1.257c2.5.575,5.039,1.248,7.544,1.988l-.361,1.238Zm-106.69-.76c-2.28-.887-4.61-1.92-7.145-3.138l.566-1.16c2.5,1.209,4.806,2.222,7.047,3.1l-.468,1.209Zm53.286-2.232-.253-1.267c2.534-.507,5.127-.926,7.71-1.248l.156,1.287C404.533,25.644,401.969,26.053,399.464,26.56Zm38.354-.478c-2.553-.419-5.127-.76-7.651-1l.127-1.287c2.553.244,5.156.595,7.739,1.014ZM210.482,24.855l-.7-1.082c2.213-1.433,4.435-2.827,6.6-4.133l.672,1.111c-2.144,1.3-4.357,2.68-6.56,4.1Zm204.276-.166-.059-1.3c2.573-.117,5.195-.146,7.807-.078l-.029,1.3c-2.583-.068-5.166-.039-7.71.078Zm-82.644-2.612c-2.193-1.189-4.367-2.417-6.784-3.782l.633-1.131c2.408,1.355,4.581,2.583,6.765,3.772Zm-108.376-5.2-.624-1.131c2.32-1.277,4.64-2.5,6.891-3.616l.575,1.16c-2.242,1.111-4.542,2.32-6.842,3.6Zm94.827-2.369c-2.534-1.384-4.776-2.563-6.842-3.606l.575-1.16c2.086,1.043,4.347,2.232,6.891,3.626l-.624,1.131ZM237.588,10.02l-.516-1.189c2.437-1.062,4.873-2.037,7.242-2.895l.448,1.218c-2.339.858-4.756,1.823-7.164,2.875Zm67.127-2.359c-2.476-1.053-4.835-1.93-7.213-2.71l.4-1.228c2.407.789,4.8,1.686,7.31,2.749L304.7,7.661ZM252.082,4.747,251.721,3.5c2.553-.731,5.1-1.365,7.583-1.862l.253,1.267c-2.447.5-4.961,1.111-7.485,1.842Zm38.013-1.823a72.716,72.716,0,0,0-7.583-1.238L282.648.4a70.314,70.314,0,0,1,7.72,1.257Zm-22.925-1.2L267.033.439A75.751,75.751,0,0,1,274.84,0V1.3A73.125,73.125,0,0,0,267.17,1.725Z" transform="translate(-91.374)" fill="#c2bebc"/>
  <path id="Trazado_605654" data-name="Trazado 605654" d="M425.706,512.309l-32.516-9.454,9.747-2.943Z" transform="translate(-171.263 -217.748)" fill="#d6d6d6"/>
  <path id="Trazado_605655" data-name="Trazado 605655" d="M435.65,512.452l-12.145-12.213-7.485,1.521Z" transform="translate(-181.207 -217.89)" fill="#e8e8e8"/>
  <path id="Trazado_605656" data-name="Trazado 605656" d="M406.453,508.977l.263,3.763,24.767,3.519Z" transform="translate(-177.04 -221.697)" fill="#c2c2c2"/>
  <path id="Trazado_605657" data-name="Trazado 605657" d="M160.857,69.243l28.666-16.024-9.854-.653Z" transform="translate(-70.065 -22.896)" fill="#d6d6d6"/>
  <path id="Trazado_605658" data-name="Trazado 605658" d="M160.857,71.018l8.821-14.182,7.4-.195Z" transform="translate(-70.065 -24.671)" fill="#e8e8e8"/>
  <path id="Trazado_605659" data-name="Trazado 605659" d="M182.934,60.25l.566,3.616L160.857,72.59Z" transform="translate(-70.065 -26.243)" fill="#c2c2c2"/>
</svg>
