<svg xmlns="http://www.w3.org/2000/svg" width="586" height="566" viewBox="0 0 586 566">
  <g id="Grupo_1014978" data-name="Grupo 1014978" transform="translate(-500.336 -1648)">
    <path id="Trazado_609266" data-name="Trazado 609266" d="M14,0H53A14,14,0,0,1,67,14V335a14,14,0,0,1-14,14H14A14,14,0,0,1,0,335V14A14,14,0,0,1,14,0Z" transform="translate(500.336 1737)" fill="#304c8e"/>
    <path id="Trazado_609267" data-name="Trazado 609267" d="M14,0H53A14,14,0,0,1,67,14V204a14,14,0,0,1-14,14H14A14,14,0,0,1,0,204V14A14,14,0,0,1,14,0Z" transform="translate(828.336 1687) rotate(90)" fill="#60cb28"/>
    <path id="Trazado_609268" data-name="Trazado 609268" d="M14,0H53A14,14,0,0,1,67,14V204a14,14,0,0,1-14,14H14A14,14,0,0,1,0,204V14A14,14,0,0,1,14,0Z" transform="translate(1086.336 1648) rotate(90)" fill="#60cb28" opacity="0.45"/>
    <path id="Trazado_609269" data-name="Trazado 609269" d="M14,0H53A14,14,0,0,1,67,14V204a14,14,0,0,1-14,14H14A14,14,0,0,1,0,204V14A14,14,0,0,1,14,0Z" transform="translate(1086.336 1816) rotate(90)" fill="#60cb28" opacity="0.45"/>
    <path id="Trazado_609270" data-name="Trazado 609270" d="M14,0H53A14,14,0,0,1,67,14V204a14,14,0,0,1-14,14H14A14,14,0,0,1,0,204V14A14,14,0,0,1,14,0Z" transform="translate(1086.336 1979) rotate(90)" fill="#60cb28" opacity="0.45"/>
    <path id="Trazado_609271" data-name="Trazado 609271" d="M14,0H53A14,14,0,0,1,67,14V204a14,14,0,0,1-14,14H14A14,14,0,0,1,0,204V14A14,14,0,0,1,14,0Z" transform="translate(1086.336 1732) rotate(90)" fill="#60cb28" opacity="0.45"/>
    <path id="Trazado_609272" data-name="Trazado 609272" d="M14,0H53A14,14,0,0,1,67,14V204a14,14,0,0,1-14,14H14A14,14,0,0,1,0,204V14A14,14,0,0,1,14,0Z" transform="translate(1086.336 1900) rotate(90)" fill="#60cb28" opacity="0.45"/>
    <path id="Trazado_609273" data-name="Trazado 609273" d="M14,0H53A14,14,0,0,1,67,14V204a14,14,0,0,1-14,14H14A14,14,0,0,1,0,204V14A14,14,0,0,1,14,0Z" transform="translate(1086.336 2063) rotate(90)" fill="#60cb28" opacity="0.45"/>
    <path id="Trazado_609274" data-name="Trazado 609274" d="M14,0H53A14,14,0,0,1,67,14V204a14,14,0,0,1-14,14H14A14,14,0,0,1,0,204V14A14,14,0,0,1,14,0Z" transform="translate(1086.336 2147) rotate(90)" fill="#60cb28" opacity="0.45"/>
    <path id="Trazado_609275" data-name="Trazado 609275" d="M14,0H53A14,14,0,0,1,67,14V204a14,14,0,0,1-14,14H14A14,14,0,0,1,0,204V14A14,14,0,0,1,14,0Z" transform="translate(828.336 1858) rotate(90)" fill="#60cb28"/>
    <path id="Trazado_609276" data-name="Trazado 609276" d="M14,0H53A14,14,0,0,1,67,14V204a14,14,0,0,1-14,14H14A14,14,0,0,1,0,204V14A14,14,0,0,1,14,0Z" transform="translate(828.336 2063) rotate(90)" fill="#60cb28"/>
    <path id="Trazado_609277" data-name="Trazado 609277" d="M0,0H19" transform="translate(567.836 1909.5)" fill="none" stroke="#60cb28" stroke-width="2"/>
    <path id="Trazado_609278" data-name="Trazado 609278" d="M0,0H19" transform="translate(586.836 2095.5)" fill="none" stroke="#60cb28" stroke-width="2"/>
    <path id="Trazado_609279" data-name="Trazado 609279" d="M0,0H19" transform="translate(586.836 1889.5)" fill="none" stroke="#60cb28" stroke-width="2"/>
    <path id="Trazado_609280" data-name="Trazado 609280" d="M0,0H19" transform="translate(586.836 1723.5)" fill="none" stroke="#60cb28" stroke-width="2"/>
    <path id="Trazado_609281" data-name="Trazado 609281" d="M0,0H19" transform="translate(828.336 1723.5)" fill="none" stroke="#60cb28" stroke-width="2"/>
    <path id="Trazado_609282" data-name="Trazado 609282" d="M0,0H19" transform="translate(828.336 1889.5)" fill="none" stroke="#60cb28" stroke-width="2"/>
    <path id="Trazado_609283" data-name="Trazado 609283" d="M0,0H40.5" transform="translate(828.336 2095.5)" fill="none" stroke="#60cb28" stroke-width="2"/>
    <path id="Trazado_609284" data-name="Trazado 609284" d="M0,0H21" transform="translate(847.836 2177.5)" fill="none" stroke="#60cb28" stroke-width="2"/>
    <path id="Trazado_609285" data-name="Trazado 609285" d="M0,0H21" transform="translate(847.836 2012.5)" fill="none" stroke="#60cb28" stroke-width="2"/>
    <path id="Trazado_609286" data-name="Trazado 609286" d="M0,0V166" transform="translate(847.336 2011.5)" fill="none" stroke="#60cb28" stroke-width="2"/>
    <path id="Trazado_609287" data-name="Trazado 609287" d="M0,0H19" transform="translate(847.336 1765.5)" fill="none" stroke="#60cb28" stroke-width="2"/>
    <path id="Trazado_609288" data-name="Trazado 609288" d="M0,0H19" transform="translate(847.336 1931.5)" fill="none" stroke="#60cb28" stroke-width="2"/>
    <path id="Trazado_609289" data-name="Trazado 609289" d="M0,0H19" transform="translate(847.336 1684.5)" fill="none" stroke="#60cb28" stroke-width="2"/>
    <path id="Trazado_609290" data-name="Trazado 609290" d="M0,0H19" transform="translate(847.336 1850.5)" fill="none" stroke="#60cb28" stroke-width="2"/>
    <path id="Trazado_609291" data-name="Trazado 609291" d="M0,0V82" transform="translate(847.336 1684.5)" fill="none" stroke="#60cb28" stroke-width="2"/>
    <path id="Trazado_609292" data-name="Trazado 609292" d="M0,0V82" transform="translate(847.336 1850.5)" fill="none" stroke="#60cb28" stroke-width="2"/>
    <path id="Trazado_609293" data-name="Trazado 609293" d="M0,0V373" transform="translate(587.336 1723.5)" fill="none" stroke="#60cb28" stroke-width="2"/>
    <path id="Trazado_609294" data-name="Trazado 609294" d="M50.693,8.785H45.467V23H41.951V8.785H36.795V5.938h13.9ZM56.049,23h-3.4V10.32h3.4Zm-3.6-15.961a1.668,1.668,0,0,1,.51-1.254,2.2,2.2,0,0,1,2.771,0,1.658,1.658,0,0,1,.516,1.254A1.663,1.663,0,0,1,55.727,8.3a2.172,2.172,0,0,1-2.754,0A1.663,1.663,0,0,1,52.451,7.039Zm17.8,9.738a7.6,7.6,0,0,1-1.33,4.693,4.264,4.264,0,0,1-3.592,1.764A3.95,3.95,0,0,1,62.225,21.9v5.977H58.838V10.32h3.141l.117,1.242a3.98,3.98,0,0,1,3.211-1.477,4.294,4.294,0,0,1,3.645,1.734,7.811,7.811,0,0,1,1.3,4.781Zm-3.387-.246a4.99,4.99,0,0,0-.627-2.73,2.042,2.042,0,0,0-1.822-.961,2.218,2.218,0,0,0-2.191,1.219V19.25A2.255,2.255,0,0,0,64.439,20.5Q66.865,20.5,66.865,16.531Zm4.957.012a7.52,7.52,0,0,1,.727-3.363,5.319,5.319,0,0,1,2.092-2.285,6.1,6.1,0,0,1,3.17-.809A5.774,5.774,0,0,1,82,11.656a6.3,6.3,0,0,1,1.811,4.266l.023.867a6.627,6.627,0,0,1-1.629,4.682,6.313,6.313,0,0,1-8.748.006A6.744,6.744,0,0,1,71.822,16.7Zm3.387.24a4.74,4.74,0,0,0,.68,2.764,2.442,2.442,0,0,0,3.867.012,5.186,5.186,0,0,0,.691-3.022,4.692,4.692,0,0,0-.691-2.746,2.248,2.248,0,0,0-1.945-.974,2.211,2.211,0,0,0-1.922.968A5.274,5.274,0,0,0,75.209,16.783ZM92.787,19.5a1.091,1.091,0,0,0-.615-.979,6.989,6.989,0,0,0-1.975-.639q-4.523-.949-4.523-3.844a3.484,3.484,0,0,1,1.4-2.818,5.649,5.649,0,0,1,3.662-1.131A6.08,6.08,0,0,1,94.6,11.223a3.582,3.582,0,0,1,1.447,2.953H92.658a1.639,1.639,0,0,0-.469-1.2,1.984,1.984,0,0,0-1.465-.475,2.027,2.027,0,0,0-1.324.387,1.221,1.221,0,0,0-.469.984,1.044,1.044,0,0,0,.533.908,5.485,5.485,0,0,0,1.8.6,14.693,14.693,0,0,1,2.133.568q2.684.984,2.684,3.41a3.307,3.307,0,0,1-1.488,2.807,6.42,6.42,0,0,1-3.844,1.072,6.706,6.706,0,0,1-2.83-.568,4.748,4.748,0,0,1-1.939-1.559,3.621,3.621,0,0,1-.7-2.139h3.211a1.768,1.768,0,0,0,.668,1.383,2.649,2.649,0,0,0,1.664.48,2.452,2.452,0,0,0,1.471-.369A1.149,1.149,0,0,0,92.787,19.5Zm10.922-2.93a7.641,7.641,0,0,1,1.33-4.723,4.316,4.316,0,0,1,3.639-1.758,3.884,3.884,0,0,1,3.059,1.383V5h3.4V23h-3.059l-.164-1.348a3.985,3.985,0,0,1-3.258,1.582,4.3,4.3,0,0,1-3.592-1.764A7.887,7.887,0,0,1,103.709,16.566Zm3.387.252a5.005,5.005,0,0,0,.621,2.735,2.023,2.023,0,0,0,1.8.951,2.266,2.266,0,0,0,2.215-1.326V14.166a2.234,2.234,0,0,0-2.191-1.326Q107.1,12.84,107.1,16.819Zm16.5,6.416a6.225,6.225,0,0,1-4.541-1.711,6.082,6.082,0,0,1-1.752-4.559v-.328a7.66,7.66,0,0,1,.738-3.416,5.418,5.418,0,0,1,2.092-2.32,5.871,5.871,0,0,1,3.088-.814,5.262,5.262,0,0,1,4.1,1.641,6.667,6.667,0,0,1,1.494,4.652v1.383h-8.074a3.146,3.146,0,0,0,.99,1.992,2.993,2.993,0,0,0,2.092.75,3.656,3.656,0,0,0,3.059-1.418l1.664,1.863a5.084,5.084,0,0,1-2.062,1.682A6.767,6.767,0,0,1,123.6,23.234Zm-.387-10.418a2.116,2.116,0,0,0-1.635.683,3.535,3.535,0,0,0-.8,1.954h4.711v-.271a2.521,2.521,0,0,0-.609-1.748A2.183,2.183,0,0,0,123.209,12.816ZM140.283,23h-3.4V10.32h3.4Zm-3.6-15.961a1.668,1.668,0,0,1,.51-1.254,2.2,2.2,0,0,1,2.771,0,1.658,1.658,0,0,1,.516,1.254,1.663,1.663,0,0,1-.521,1.266,2.172,2.172,0,0,1-2.754,0A1.663,1.663,0,0,1,136.686,7.039Zm9.5,3.281.105,1.465a4.427,4.427,0,0,1,3.645-1.7,3.679,3.679,0,0,1,3,1.184,5.522,5.522,0,0,1,1.008,3.539V23h-3.387V14.891a2.2,2.2,0,0,0-.469-1.564,2.1,2.1,0,0,0-1.559-.486,2.33,2.33,0,0,0-2.145,1.219V23H143V10.32ZM157.439,23V12.8h-1.887V10.32h1.887V9.242a4.377,4.377,0,0,1,1.225-3.311,4.743,4.743,0,0,1,3.428-1.178,7.917,7.917,0,0,1,1.723.234l-.035,2.625a4.318,4.318,0,0,0-1.031-.105q-1.91,0-1.91,1.793v1.02h2.52V12.8h-2.52V23Zm7.148-6.457a7.52,7.52,0,0,1,.727-3.363,5.319,5.319,0,0,1,2.092-2.285,6.1,6.1,0,0,1,3.17-.809,5.774,5.774,0,0,1,4.189,1.57,6.3,6.3,0,0,1,1.811,4.266l.023.867a6.627,6.627,0,0,1-1.629,4.682,6.313,6.313,0,0,1-8.748.006,6.744,6.744,0,0,1-1.635-4.781Zm3.387.24a4.74,4.74,0,0,0,.68,2.764,2.442,2.442,0,0,0,3.867.012,5.186,5.186,0,0,0,.691-3.022,4.692,4.692,0,0,0-.691-2.746,2.248,2.248,0,0,0-1.945-.974,2.211,2.211,0,0,0-1.922.968A5.274,5.274,0,0,0,167.975,16.783ZM185.811,13.5a9.2,9.2,0,0,0-1.219-.094,2.481,2.481,0,0,0-2.52,1.3V23h-3.387V10.32h3.2l.094,1.512a3.138,3.138,0,0,1,2.824-1.746,3.549,3.549,0,0,1,1.055.152Zm4.8-3.176.105,1.418a4.456,4.456,0,0,1,3.645-1.652,3.382,3.382,0,0,1,3.363,1.934,4.354,4.354,0,0,1,3.809-1.934,3.782,3.782,0,0,1,3.07,1.2,5.521,5.521,0,0,1,1.008,3.615V23h-3.4V14.914a2.414,2.414,0,0,0-.422-1.576,1.87,1.87,0,0,0-1.488-.5,2.114,2.114,0,0,0-2.109,1.453L198.209,23h-3.387V14.926a2.385,2.385,0,0,0-.434-1.594,1.888,1.888,0,0,0-1.477-.492,2.195,2.195,0,0,0-2.086,1.2V23h-3.387V10.32ZM215.564,23a3.761,3.761,0,0,1-.34-1.137,4.1,4.1,0,0,1-3.2,1.371,4.5,4.5,0,0,1-3.088-1.078,3.467,3.467,0,0,1-1.225-2.719,3.583,3.583,0,0,1,1.494-3.094,7.373,7.373,0,0,1,4.318-1.09h1.559v-.727a2.089,2.089,0,0,0-.451-1.406,1.775,1.775,0,0,0-1.424-.527,2.018,2.018,0,0,0-1.342.41,1.393,1.393,0,0,0-.486,1.125h-3.387a3.4,3.4,0,0,1,.68-2.039,4.493,4.493,0,0,1,1.922-1.471,7,7,0,0,1,2.789-.533,5.534,5.534,0,0,1,3.721,1.178,4.12,4.12,0,0,1,1.377,3.311v5.5a6.062,6.062,0,0,0,.5,2.73V23Zm-2.8-2.355a2.917,2.917,0,0,0,1.383-.334,2.194,2.194,0,0,0,.938-.9v-2.18h-1.266q-2.543,0-2.707,1.758l-.012.2a1.356,1.356,0,0,0,.445,1.043A1.73,1.73,0,0,0,212.764,20.645Zm13.594-.141a2.221,2.221,0,0,0,1.523-.516,1.807,1.807,0,0,0,.609-1.371h3.176a4.344,4.344,0,0,1-.7,2.361,4.64,4.64,0,0,1-1.893,1.664,5.923,5.923,0,0,1-2.654.592,5.5,5.5,0,0,1-4.289-1.729,6.84,6.84,0,0,1-1.57-4.775v-.223a6.762,6.762,0,0,1,1.559-4.676,5.441,5.441,0,0,1,4.277-1.746,5.333,5.333,0,0,1,3.814,1.354,4.792,4.792,0,0,1,1.459,3.6H228.49a2.327,2.327,0,0,0-.609-1.608,2.265,2.265,0,0,0-3.334.244,5,5,0,0,0-.6,2.8v.352a5.063,5.063,0,0,0,.6,2.817A2.065,2.065,0,0,0,226.357,20.5ZM237.174,23h-3.4V10.32h3.4Zm-3.6-15.961a1.668,1.668,0,0,1,.51-1.254,2.2,2.2,0,0,1,2.771,0,1.658,1.658,0,0,1,.516,1.254,1.663,1.663,0,0,1-.521,1.266,2.172,2.172,0,0,1-2.754,0A1.663,1.663,0,0,1,233.576,7.039Zm5.859,9.5a7.52,7.52,0,0,1,.727-3.363,5.319,5.319,0,0,1,2.092-2.285,6.1,6.1,0,0,1,3.17-.809,5.774,5.774,0,0,1,4.189,1.57,6.3,6.3,0,0,1,1.811,4.266l.023.867a6.627,6.627,0,0,1-1.629,4.682,6.313,6.313,0,0,1-8.748.006,6.744,6.744,0,0,1-1.635-4.781Zm3.387.24a4.74,4.74,0,0,0,.68,2.764,2.442,2.442,0,0,0,3.867.012,5.186,5.186,0,0,0,.691-3.022,4.692,4.692,0,0,0-.691-2.746,2.248,2.248,0,0,0-1.945-.974,2.211,2.211,0,0,0-1.922.968A5.274,5.274,0,0,0,242.822,16.783ZM246.092,5h3.691l-3.246,3.633h-2.754Zm10.559,5.32.105,1.465a4.427,4.427,0,0,1,3.645-1.7,3.679,3.679,0,0,1,3,1.184,5.522,5.522,0,0,1,1.008,3.539V23h-3.387V14.891a2.2,2.2,0,0,0-.469-1.564,2.1,2.1,0,0,0-1.559-.486,2.33,2.33,0,0,0-2.145,1.219V23h-3.387V10.32Z" transform="translate(519.836 2063) rotate(-90)" fill="#fff"/>
    <path id="Trazado_609295" data-name="Trazado 609295" d="M16.021,16.083a1.579,1.579,0,0,0-.615-1.338,8.07,8.07,0,0,0-2.215-.984,15.7,15.7,0,0,1-2.533-1.02,4.138,4.138,0,0,1-2.543-3.7A3.605,3.605,0,0,1,8.8,6.88,4.448,4.448,0,0,1,10.756,5.4a7.372,7.372,0,0,1,2.866-.533,6.71,6.71,0,0,1,2.851.579A4.539,4.539,0,0,1,18.416,7.08a4.28,4.28,0,0,1,.692,2.4H16.031a2.013,2.013,0,0,0-.646-1.594,2.655,2.655,0,0,0-1.815-.569,2.837,2.837,0,0,0-1.753.477,1.5,1.5,0,0,0-.625,1.256,1.44,1.44,0,0,0,.733,1.22,8.283,8.283,0,0,0,2.158.923,9.326,9.326,0,0,1,3.825,1.958,3.9,3.9,0,0,1,1.2,2.912,3.593,3.593,0,0,1-1.466,3.04,6.419,6.419,0,0,1-3.948,1.1,7.623,7.623,0,0,1-3.138-.631A4.965,4.965,0,0,1,8.4,17.847,4.425,4.425,0,0,1,7.654,15.3H10.74q0,2.471,2.953,2.471a2.873,2.873,0,0,0,1.712-.446A1.451,1.451,0,0,0,16.021,16.083ZM26.1,20.205a5.447,5.447,0,0,1-3.973-1.5,5.321,5.321,0,0,1-1.533-3.989v-.287a6.7,6.7,0,0,1,.646-2.989,4.741,4.741,0,0,1,1.83-2.03,5.137,5.137,0,0,1,2.7-.713,4.6,4.6,0,0,1,3.584,1.436,5.833,5.833,0,0,1,1.307,4.071v1.21H23.6a2.753,2.753,0,0,0,.866,1.743,2.619,2.619,0,0,0,1.83.656,3.2,3.2,0,0,0,2.676-1.241l1.456,1.63a4.449,4.449,0,0,1-1.8,1.471A5.921,5.921,0,0,1,26.1,20.205Zm-.338-9.116a1.852,1.852,0,0,0-1.43.6,3.093,3.093,0,0,0-.7,1.71h4.122V13.16a2.206,2.206,0,0,0-.533-1.529A1.91,1.91,0,0,0,25.762,11.089Zm6.152,3.281a6.5,6.5,0,0,1,1.215-4.112A3.937,3.937,0,0,1,36.406,8.7a3.453,3.453,0,0,1,2.84,1.251l.123-1.046h2.687V19.631a4.742,4.742,0,0,1-.661,2.533A4.248,4.248,0,0,1,39.533,23.8a6.543,6.543,0,0,1-2.81.564,6.084,6.084,0,0,1-2.379-.487,4.222,4.222,0,0,1-1.753-1.256l1.313-1.8a3.471,3.471,0,0,0,2.687,1.241,2.541,2.541,0,0,0,1.835-.631,2.365,2.365,0,0,0,.656-1.789v-.595a3.428,3.428,0,0,1-2.7,1.159,3.927,3.927,0,0,1-3.235-1.564,6.5,6.5,0,0,1-1.236-4.148Zm2.963.221a4.049,4.049,0,0,0,.6,2.367,1.925,1.925,0,0,0,1.661.857A2.058,2.058,0,0,0,39.082,16.8V12.127a2.053,2.053,0,0,0-1.917-1.017,1.937,1.937,0,0,0-1.677.873A4.563,4.563,0,0,0,34.878,14.591Zm16.1,4.281a3.716,3.716,0,0,1-3.035,1.333,3.5,3.5,0,0,1-2.722-1.025,4.377,4.377,0,0,1-.959-3V8.905h2.963v7.176q0,1.735,1.579,1.735a2.14,2.14,0,0,0,2.071-1.047V8.905h2.974V20H51.059ZM49.654,4.25h3.23l-2.84,3.179h-2.41Zm9.157,4.655.092,1.282A3.874,3.874,0,0,1,62.092,8.7a3.219,3.219,0,0,1,2.625,1.036,4.832,4.832,0,0,1,.882,3.1V20H62.635V12.9a1.923,1.923,0,0,0-.41-1.369,1.836,1.836,0,0,0-1.364-.426,2.039,2.039,0,0,0-1.876,1.066V20H56.022V8.905Zm20.272,8.029a.955.955,0,0,0-.538-.856,6.115,6.115,0,0,0-1.728-.559q-3.958-.831-3.958-3.363A3.049,3.049,0,0,1,74.084,9.69a4.943,4.943,0,0,1,3.2-.99,5.32,5.32,0,0,1,3.379.995,3.135,3.135,0,0,1,1.266,2.584H78.97a1.434,1.434,0,0,0-.41-1.051,1.736,1.736,0,0,0-1.282-.415,1.774,1.774,0,0,0-1.159.338,1.068,1.068,0,0,0-.41.861.913.913,0,0,0,.467.795,4.8,4.8,0,0,0,1.574.523,12.856,12.856,0,0,1,1.866.5,3.066,3.066,0,0,1,2.348,2.984,2.894,2.894,0,0,1-1.3,2.456,5.618,5.618,0,0,1-3.363.938,5.867,5.867,0,0,1-2.476-.5,4.155,4.155,0,0,1-1.7-1.364,3.169,3.169,0,0,1-.615-1.871h2.81a1.547,1.547,0,0,0,.584,1.21,2.318,2.318,0,0,0,1.456.42,2.146,2.146,0,0,0,1.287-.323A1,1,0,0,0,79.083,16.934Zm11.433,1.938a3.716,3.716,0,0,1-3.035,1.333,3.5,3.5,0,0,1-2.722-1.025,4.377,4.377,0,0,1-.959-3V8.905h2.963v7.176q0,1.735,1.579,1.735a2.14,2.14,0,0,0,2.071-1.047V8.905h2.974V20H90.6Zm13.063-9.967.092,1.282A3.874,3.874,0,0,1,106.861,8.7a3.219,3.219,0,0,1,2.625,1.036,4.832,4.832,0,0,1,.882,3.1V20H107.4V12.9a1.923,1.923,0,0,0-.41-1.369,1.836,1.836,0,0,0-1.364-.426,2.039,2.039,0,0,0-1.876,1.066V20H100.79V8.905ZM119.042,20a3.291,3.291,0,0,1-.3-.995,3.586,3.586,0,0,1-2.8,1.2,3.939,3.939,0,0,1-2.7-.943,3.034,3.034,0,0,1-1.072-2.379,3.135,3.135,0,0,1,1.307-2.707,6.451,6.451,0,0,1,3.779-.954h1.364v-.636a1.828,1.828,0,0,0-.395-1.23,1.553,1.553,0,0,0-1.246-.461,1.766,1.766,0,0,0-1.174.359,1.219,1.219,0,0,0-.426.984h-2.963a2.977,2.977,0,0,1,.595-1.784,3.931,3.931,0,0,1,1.682-1.287,6.129,6.129,0,0,1,2.44-.467,4.842,4.842,0,0,1,3.256,1.031,3.605,3.605,0,0,1,1.2,2.9v4.809a5.3,5.3,0,0,0,.441,2.389V20Zm-2.451-2.061a2.552,2.552,0,0,0,1.21-.292,1.919,1.919,0,0,0,.82-.784V14.955h-1.107q-2.225,0-2.369,1.538l-.01.174a1.186,1.186,0,0,0,.39.913A1.514,1.514,0,0,0,116.592,17.939ZM127.42,6.178V8.905h1.9v2.174h-1.9v5.537a1.322,1.322,0,0,0,.236.882,1.184,1.184,0,0,0,.9.267,4.726,4.726,0,0,0,.872-.072v2.246a6.1,6.1,0,0,1-1.794.267q-3.117,0-3.179-3.148V11.079h-1.62V8.905h1.62V6.178Zm10.192,12.694a3.716,3.716,0,0,1-3.035,1.333,3.5,3.5,0,0,1-2.722-1.025,4.377,4.377,0,0,1-.959-3V8.905h2.963v7.176q0,1.735,1.579,1.735a2.14,2.14,0,0,0,2.071-1.047V8.905h2.974V20h-2.789Zm11.341-7.188a8.051,8.051,0,0,0-1.066-.082,2.171,2.171,0,0,0-2.2,1.138V20h-2.963V8.905h2.8l.082,1.323A2.746,2.746,0,0,1,148.071,8.7a3.105,3.105,0,0,1,.923.133ZM156.5,20a3.291,3.291,0,0,1-.3-.995,3.586,3.586,0,0,1-2.8,1.2,3.939,3.939,0,0,1-2.7-.943,3.034,3.034,0,0,1-1.072-2.379,3.135,3.135,0,0,1,1.307-2.707,6.451,6.451,0,0,1,3.779-.954h1.364v-.636a1.828,1.828,0,0,0-.395-1.23,1.553,1.553,0,0,0-1.246-.461,1.766,1.766,0,0,0-1.174.359,1.219,1.219,0,0,0-.426.984h-2.963a2.977,2.977,0,0,1,.595-1.784,3.931,3.931,0,0,1,1.682-1.287,6.129,6.129,0,0,1,2.44-.467,4.842,4.842,0,0,1,3.256,1.031,3.605,3.605,0,0,1,1.2,2.9v4.809a5.3,5.3,0,0,0,.441,2.389V20Zm-2.451-2.061a2.552,2.552,0,0,0,1.21-.292,1.919,1.919,0,0,0,.82-.784V14.955h-1.107q-2.225,0-2.369,1.538l-.01.174a1.186,1.186,0,0,0,.39.913A1.514,1.514,0,0,0,154.049,17.939ZM164.457,20h-2.974V4.25h2.974Zm7.547.205a5.447,5.447,0,0,1-3.973-1.5,5.321,5.321,0,0,1-1.533-3.989v-.287a6.7,6.7,0,0,1,.646-2.989,4.741,4.741,0,0,1,1.83-2.03,5.137,5.137,0,0,1,2.7-.713,4.6,4.6,0,0,1,3.584,1.436,5.833,5.833,0,0,1,1.307,4.071v1.21H169.5a2.753,2.753,0,0,0,.866,1.743,2.619,2.619,0,0,0,1.83.656,3.2,3.2,0,0,0,2.676-1.241l1.456,1.63a4.449,4.449,0,0,1-1.8,1.471A5.921,5.921,0,0,1,172,20.205Zm-.338-9.116a1.852,1.852,0,0,0-1.43.6,3.093,3.093,0,0,0-.7,1.71h4.122V13.16a2.206,2.206,0,0,0-.533-1.529A1.91,1.91,0,0,0,171.665,11.089Zm9.987,6.521h5.424V20h-9.208V18.2l5.219-6.9h-5.065V8.905h8.89v1.746ZM195.362,20a3.291,3.291,0,0,1-.3-.995,3.586,3.586,0,0,1-2.8,1.2,3.939,3.939,0,0,1-2.7-.943,3.034,3.034,0,0,1-1.072-2.379,3.135,3.135,0,0,1,1.307-2.707,6.451,6.451,0,0,1,3.779-.954h1.364v-.636a1.828,1.828,0,0,0-.395-1.23,1.553,1.553,0,0,0-1.246-.461,1.766,1.766,0,0,0-1.174.359,1.219,1.219,0,0,0-.426.984h-2.963a2.977,2.977,0,0,1,.595-1.784,3.931,3.931,0,0,1,1.682-1.287,6.129,6.129,0,0,1,2.44-.467,4.842,4.842,0,0,1,3.256,1.031,3.605,3.605,0,0,1,1.2,2.9v4.809a5.3,5.3,0,0,0,.441,2.389V20Zm-2.451-2.061a2.552,2.552,0,0,0,1.21-.292,1.919,1.919,0,0,0,.82-.784V14.955h-1.107q-2.225,0-2.369,1.538l-.01.174a1.186,1.186,0,0,0,.39.913A1.514,1.514,0,0,0,192.911,17.939Z" transform="translate(618.336 1708)" fill="#12263f"/>
    <path id="Trazado_609296" data-name="Trazado 609296" d="M11.631,16.083a1.579,1.579,0,0,0-.615-1.338A8.07,8.07,0,0,0,8.8,13.76a15.7,15.7,0,0,1-2.533-1.02,4.138,4.138,0,0,1-2.543-3.7A3.605,3.605,0,0,1,4.407,6.88,4.448,4.448,0,0,1,6.365,5.4a7.372,7.372,0,0,1,2.866-.533,6.71,6.71,0,0,1,2.851.579A4.539,4.539,0,0,1,14.025,7.08a4.28,4.28,0,0,1,.692,2.4H11.641a2.013,2.013,0,0,0-.646-1.594A2.655,2.655,0,0,0,9.18,7.316a2.837,2.837,0,0,0-1.753.477A1.5,1.5,0,0,0,6.8,9.049a1.44,1.44,0,0,0,.733,1.22,8.283,8.283,0,0,0,2.158.923,9.326,9.326,0,0,1,3.825,1.958,3.9,3.9,0,0,1,1.2,2.912,3.593,3.593,0,0,1-1.466,3.04,6.419,6.419,0,0,1-3.948,1.1,7.623,7.623,0,0,1-3.138-.631,4.965,4.965,0,0,1-2.158-1.728A4.425,4.425,0,0,1,3.263,15.3H6.35q0,2.471,2.953,2.471a2.873,2.873,0,0,0,1.712-.446A1.451,1.451,0,0,0,11.631,16.083Zm10.08,4.122a5.447,5.447,0,0,1-3.973-1.5A5.321,5.321,0,0,1,16.2,14.719v-.287a6.7,6.7,0,0,1,.646-2.989,4.741,4.741,0,0,1,1.83-2.03,5.137,5.137,0,0,1,2.7-.713,4.6,4.6,0,0,1,3.584,1.436,5.833,5.833,0,0,1,1.307,4.071v1.21H19.208a2.753,2.753,0,0,0,.866,1.743,2.619,2.619,0,0,0,1.83.656,3.2,3.2,0,0,0,2.676-1.241l1.456,1.63a4.449,4.449,0,0,1-1.8,1.471A5.921,5.921,0,0,1,21.71,20.205Zm-.338-9.116a1.852,1.852,0,0,0-1.43.6,3.093,3.093,0,0,0-.7,1.71h4.122V13.16a2.206,2.206,0,0,0-.533-1.529A1.91,1.91,0,0,0,21.372,11.089Zm6.152,3.281a6.5,6.5,0,0,1,1.215-4.112A3.937,3.937,0,0,1,32.015,8.7a3.453,3.453,0,0,1,2.84,1.251l.123-1.046h2.687V19.631A4.742,4.742,0,0,1,37,22.164,4.248,4.248,0,0,1,35.143,23.8a6.543,6.543,0,0,1-2.81.564,6.084,6.084,0,0,1-2.379-.487A4.222,4.222,0,0,1,28.2,22.625l1.313-1.8A3.471,3.471,0,0,0,32.2,22.061a2.541,2.541,0,0,0,1.835-.631,2.365,2.365,0,0,0,.656-1.789v-.595a3.428,3.428,0,0,1-2.7,1.159,3.927,3.927,0,0,1-3.235-1.564,6.5,6.5,0,0,1-1.236-4.148Zm2.963.221a4.049,4.049,0,0,0,.6,2.367,1.925,1.925,0,0,0,1.661.857A2.058,2.058,0,0,0,34.692,16.8V12.127a2.053,2.053,0,0,0-1.917-1.017,1.937,1.937,0,0,0-1.677.873A4.563,4.563,0,0,0,30.488,14.591Zm16.1,4.281a3.716,3.716,0,0,1-3.035,1.333,3.5,3.5,0,0,1-2.722-1.025,4.377,4.377,0,0,1-.959-3V8.905h2.963v7.176q0,1.735,1.579,1.735a2.14,2.14,0,0,0,2.071-1.047V8.905h2.974V20H46.668ZM45.263,4.25h3.23l-2.84,3.179h-2.41ZM54.42,8.905l.092,1.282A3.874,3.874,0,0,1,57.7,8.7a3.219,3.219,0,0,1,2.625,1.036,4.832,4.832,0,0,1,.882,3.1V20H58.245V12.9a1.923,1.923,0,0,0-.41-1.369,1.836,1.836,0,0,0-1.364-.426,2.039,2.039,0,0,0-1.876,1.066V20H51.631V8.905Zm20.272,8.029a.955.955,0,0,0-.538-.856,6.115,6.115,0,0,0-1.728-.559q-3.958-.831-3.958-3.363A3.049,3.049,0,0,1,69.693,9.69a4.943,4.943,0,0,1,3.2-.99,5.32,5.32,0,0,1,3.379.995,3.135,3.135,0,0,1,1.266,2.584H74.579a1.434,1.434,0,0,0-.41-1.051,1.736,1.736,0,0,0-1.282-.415,1.774,1.774,0,0,0-1.159.338,1.068,1.068,0,0,0-.41.861.913.913,0,0,0,.467.795,4.8,4.8,0,0,0,1.574.523,12.856,12.856,0,0,1,1.866.5,3.066,3.066,0,0,1,2.348,2.984,2.894,2.894,0,0,1-1.3,2.456,5.618,5.618,0,0,1-3.363.938,5.867,5.867,0,0,1-2.476-.5,4.155,4.155,0,0,1-1.7-1.364,3.169,3.169,0,0,1-.615-1.871h2.81a1.547,1.547,0,0,0,.584,1.21,2.318,2.318,0,0,0,1.456.42,2.146,2.146,0,0,0,1.287-.323A1,1,0,0,0,74.692,16.934Zm11.433,1.938a3.716,3.716,0,0,1-3.035,1.333,3.5,3.5,0,0,1-2.722-1.025,4.377,4.377,0,0,1-.959-3V8.905h2.963v7.176q0,1.735,1.579,1.735a2.14,2.14,0,0,0,2.071-1.047V8.905H89V20H86.207ZM96,14.371a6.686,6.686,0,0,1,1.164-4.132A3.776,3.776,0,0,1,100.347,8.7a3.4,3.4,0,0,1,2.676,1.21V4.25H106V20h-2.676l-.144-1.179a3.487,3.487,0,0,1-2.851,1.384,3.766,3.766,0,0,1-3.143-1.543A6.9,6.9,0,0,1,96,14.371Zm2.963.221a4.38,4.38,0,0,0,.543,2.393,1.77,1.77,0,0,0,1.579.832,1.983,1.983,0,0,0,1.938-1.16V12.27a1.954,1.954,0,0,0-1.917-1.16Q98.963,11.11,98.963,14.591ZM113.4,20.205a5.447,5.447,0,0,1-3.973-1.5,5.321,5.321,0,0,1-1.533-3.989v-.287a6.7,6.7,0,0,1,.646-2.989,4.741,4.741,0,0,1,1.83-2.03,5.137,5.137,0,0,1,2.7-.713,4.6,4.6,0,0,1,3.584,1.436,5.833,5.833,0,0,1,1.307,4.071v1.21H110.9a2.753,2.753,0,0,0,.866,1.743,2.619,2.619,0,0,0,1.83.656,3.2,3.2,0,0,0,2.676-1.241l1.456,1.63a4.449,4.449,0,0,1-1.8,1.471A5.921,5.921,0,0,1,113.4,20.205Zm-.338-9.116a1.852,1.852,0,0,0-1.43.6,3.093,3.093,0,0,0-.7,1.71h4.122V13.16a2.206,2.206,0,0,0-.533-1.529A1.91,1.91,0,0,0,113.062,11.089Zm12.592,5.845a.955.955,0,0,0-.538-.856,6.115,6.115,0,0,0-1.728-.559q-3.958-.831-3.958-3.363a3.049,3.049,0,0,1,1.225-2.466,4.943,4.943,0,0,1,3.2-.99,5.32,5.32,0,0,1,3.379.995,3.135,3.135,0,0,1,1.266,2.584h-2.963a1.434,1.434,0,0,0-.41-1.051,1.736,1.736,0,0,0-1.282-.415,1.774,1.774,0,0,0-1.159.338,1.068,1.068,0,0,0-.41.861.913.913,0,0,0,.467.795,4.8,4.8,0,0,0,1.574.523,12.856,12.856,0,0,1,1.866.5,3.066,3.066,0,0,1,2.348,2.984,2.894,2.894,0,0,1-1.3,2.456,5.618,5.618,0,0,1-3.363.938,5.867,5.867,0,0,1-2.476-.5,4.155,4.155,0,0,1-1.7-1.364,3.169,3.169,0,0,1-.615-1.871h2.81a1.547,1.547,0,0,0,.584,1.21,2.318,2.318,0,0,0,1.456.42,2.146,2.146,0,0,0,1.287-.323A1,1,0,0,0,125.654,16.934ZM133.99,6.178V8.905h1.9v2.174h-1.9v5.537a1.322,1.322,0,0,0,.236.882,1.184,1.184,0,0,0,.9.267,4.726,4.726,0,0,0,.872-.072v2.246a6.1,6.1,0,0,1-1.794.267q-3.117,0-3.179-3.148V11.079h-1.62V8.905h1.62V6.178ZM140.666,20h-2.974V8.905h2.974ZM137.518,6.034a1.459,1.459,0,0,1,.446-1.1,1.922,1.922,0,0,1,2.425,0,1.451,1.451,0,0,1,.451,1.1,1.455,1.455,0,0,1-.456,1.107,1.9,1.9,0,0,1-2.41,0A1.455,1.455,0,0,1,137.518,6.034Zm8.316,2.871.092,1.282A3.874,3.874,0,0,1,149.115,8.7a3.219,3.219,0,0,1,2.625,1.036,4.832,4.832,0,0,1,.882,3.1V20h-2.963V12.9a1.923,1.923,0,0,0-.41-1.369,1.836,1.836,0,0,0-1.364-.426,2.039,2.039,0,0,0-1.876,1.066V20h-2.963V8.905ZM161.3,20a3.291,3.291,0,0,1-.3-.995,3.586,3.586,0,0,1-2.8,1.2,3.939,3.939,0,0,1-2.7-.943,3.034,3.034,0,0,1-1.072-2.379,3.135,3.135,0,0,1,1.307-2.707,6.451,6.451,0,0,1,3.779-.954h1.364v-.636a1.828,1.828,0,0,0-.395-1.23,1.553,1.553,0,0,0-1.246-.461,1.766,1.766,0,0,0-1.174.359,1.219,1.219,0,0,0-.426.984h-2.963a2.977,2.977,0,0,1,.595-1.784,3.931,3.931,0,0,1,1.682-1.287,6.129,6.129,0,0,1,2.44-.467,4.842,4.842,0,0,1,3.256,1.031,3.605,3.605,0,0,1,1.2,2.9v4.809a5.3,5.3,0,0,0,.441,2.389V20Zm-2.451-2.061a2.552,2.552,0,0,0,1.21-.292,1.919,1.919,0,0,0,.82-.784V14.955h-1.107q-2.225,0-2.369,1.538l-.01.174a1.186,1.186,0,0,0,.39.913A1.514,1.514,0,0,0,158.846,17.939ZM169.674,6.178V8.905h1.9v2.174h-1.9v5.537a1.322,1.322,0,0,0,.236.882,1.184,1.184,0,0,0,.9.267,4.726,4.726,0,0,0,.872-.072v2.246a6.1,6.1,0,0,1-1.794.267q-3.117,0-3.179-3.148V11.079h-1.62V8.905h1.62V6.178ZM179.651,20a3.291,3.291,0,0,1-.3-.995,3.586,3.586,0,0,1-2.8,1.2,3.939,3.939,0,0,1-2.7-.943,3.034,3.034,0,0,1-1.072-2.379,3.135,3.135,0,0,1,1.307-2.707,6.451,6.451,0,0,1,3.779-.954h1.364v-.636a1.828,1.828,0,0,0-.395-1.23,1.553,1.553,0,0,0-1.246-.461,1.766,1.766,0,0,0-1.174.359,1.219,1.219,0,0,0-.426.984h-2.963a2.977,2.977,0,0,1,.595-1.784A3.931,3.931,0,0,1,175.3,9.167a6.129,6.129,0,0,1,2.44-.467A4.842,4.842,0,0,1,181,9.731a3.605,3.605,0,0,1,1.2,2.9v4.809a5.3,5.3,0,0,0,.441,2.389V20ZM177.2,17.939a2.552,2.552,0,0,0,1.21-.292,1.919,1.919,0,0,0,.82-.784V14.955h-1.107q-2.225,0-2.369,1.538l-.01.174a1.186,1.186,0,0,0,.39.913A1.514,1.514,0,0,0,177.2,17.939Zm13.515-6.255a8.051,8.051,0,0,0-1.066-.082,2.171,2.171,0,0,0-2.2,1.138V20h-2.963V8.905h2.8l.082,1.323A2.746,2.746,0,0,1,189.833,8.7a3.105,3.105,0,0,1,.923.133ZM195.268,20h-2.974V8.905h2.974ZM192.12,6.034a1.459,1.459,0,0,1,.446-1.1,1.922,1.922,0,0,1,2.425,0,1.451,1.451,0,0,1,.451,1.1,1.455,1.455,0,0,1-.456,1.107,1.9,1.9,0,0,1-2.41,0A1.455,1.455,0,0,1,192.12,6.034Zm5.127,8.316a6.58,6.58,0,0,1,.636-2.943,4.654,4.654,0,0,1,1.83-2,5.34,5.34,0,0,1,2.774-.708,5.052,5.052,0,0,1,3.666,1.374,5.514,5.514,0,0,1,1.584,3.732l.021.759a5.8,5.8,0,0,1-1.425,4.1,5.524,5.524,0,0,1-7.655.005,5.9,5.9,0,0,1-1.43-4.184Zm2.963.21a4.147,4.147,0,0,0,.595,2.418,2.137,2.137,0,0,0,3.384.01,4.538,4.538,0,0,0,.6-2.644,4.106,4.106,0,0,0-.6-2.4,1.967,1.967,0,0,0-1.7-.852,1.934,1.934,0,0,0-1.682.847A4.614,4.614,0,0,0,200.21,14.56Z" transform="translate(614.336 1878)" fill="#12263f"/>
    <path id="Trazado_609297" data-name="Trazado 609297" d="M10.67,16.083a1.579,1.579,0,0,0-.615-1.338A8.07,8.07,0,0,0,7.84,13.76a15.7,15.7,0,0,1-2.533-1.02,4.138,4.138,0,0,1-2.543-3.7A3.605,3.605,0,0,1,3.446,6.88,4.448,4.448,0,0,1,5.4,5.4a7.372,7.372,0,0,1,2.866-.533,6.71,6.71,0,0,1,2.851.579A4.539,4.539,0,0,1,13.064,7.08a4.28,4.28,0,0,1,.692,2.4H10.68a2.013,2.013,0,0,0-.646-1.594,2.655,2.655,0,0,0-1.815-.569,2.837,2.837,0,0,0-1.753.477,1.5,1.5,0,0,0-.625,1.256,1.44,1.44,0,0,0,.733,1.22,8.283,8.283,0,0,0,2.158.923,9.326,9.326,0,0,1,3.825,1.958,3.9,3.9,0,0,1,1.2,2.912A3.593,3.593,0,0,1,12.29,19.1a6.419,6.419,0,0,1-3.948,1.1A7.623,7.623,0,0,1,5.2,19.574a4.965,4.965,0,0,1-2.158-1.728A4.425,4.425,0,0,1,2.3,15.3H5.389q0,2.471,2.953,2.471a2.873,2.873,0,0,0,1.712-.446A1.451,1.451,0,0,0,10.67,16.083Zm10.08,4.122a5.447,5.447,0,0,1-3.973-1.5,5.321,5.321,0,0,1-1.533-3.989v-.287a6.7,6.7,0,0,1,.646-2.989,4.741,4.741,0,0,1,1.83-2.03,5.137,5.137,0,0,1,2.7-.713,4.6,4.6,0,0,1,3.584,1.436,5.833,5.833,0,0,1,1.307,4.071v1.21H18.248a2.753,2.753,0,0,0,.866,1.743,2.619,2.619,0,0,0,1.83.656,3.2,3.2,0,0,0,2.676-1.241l1.456,1.63a4.449,4.449,0,0,1-1.8,1.471A5.921,5.921,0,0,1,20.75,20.205Zm-.338-9.116a1.852,1.852,0,0,0-1.43.6,3.093,3.093,0,0,0-.7,1.71H22.4V13.16a2.206,2.206,0,0,0-.533-1.529A1.91,1.91,0,0,0,20.411,11.089Zm6.152,3.281a6.5,6.5,0,0,1,1.215-4.112A3.937,3.937,0,0,1,31.055,8.7,3.453,3.453,0,0,1,33.9,9.951l.123-1.046H36.7V19.631a4.742,4.742,0,0,1-.661,2.533A4.248,4.248,0,0,1,34.182,23.8a6.543,6.543,0,0,1-2.81.564,6.084,6.084,0,0,1-2.379-.487,4.222,4.222,0,0,1-1.753-1.256l1.313-1.8a3.471,3.471,0,0,0,2.687,1.241,2.541,2.541,0,0,0,1.835-.631,2.365,2.365,0,0,0,.656-1.789v-.595a3.428,3.428,0,0,1-2.7,1.159A3.927,3.927,0,0,1,27.8,18.641a6.5,6.5,0,0,1-1.236-4.148Zm2.963.221a4.049,4.049,0,0,0,.6,2.367,1.925,1.925,0,0,0,1.661.857A2.058,2.058,0,0,0,33.731,16.8V12.127a2.053,2.053,0,0,0-1.917-1.017,1.937,1.937,0,0,0-1.677.873A4.563,4.563,0,0,0,29.527,14.591Zm16.1,4.281a3.716,3.716,0,0,1-3.035,1.333,3.5,3.5,0,0,1-2.722-1.025,4.377,4.377,0,0,1-.959-3V8.905h2.963v7.176q0,1.735,1.579,1.735a2.14,2.14,0,0,0,2.071-1.047V8.905H48.5V20H45.708ZM44.3,4.25h3.23l-2.84,3.179h-2.41ZM53.46,8.905l.092,1.282A3.874,3.874,0,0,1,56.741,8.7a3.219,3.219,0,0,1,2.625,1.036,4.832,4.832,0,0,1,.882,3.1V20H57.284V12.9a1.923,1.923,0,0,0-.41-1.369,1.836,1.836,0,0,0-1.364-.426,2.039,2.039,0,0,0-1.876,1.066V20H50.671V8.905Zm20.272,8.029a.955.955,0,0,0-.538-.856,6.115,6.115,0,0,0-1.728-.559q-3.958-.831-3.958-3.363A3.049,3.049,0,0,1,68.733,9.69a4.943,4.943,0,0,1,3.2-.99,5.32,5.32,0,0,1,3.379.995,3.135,3.135,0,0,1,1.266,2.584H73.619a1.434,1.434,0,0,0-.41-1.051,1.736,1.736,0,0,0-1.282-.415,1.774,1.774,0,0,0-1.159.338,1.068,1.068,0,0,0-.41.861.913.913,0,0,0,.467.795,4.8,4.8,0,0,0,1.574.523,12.856,12.856,0,0,1,1.866.5,3.066,3.066,0,0,1,2.348,2.984,2.894,2.894,0,0,1-1.3,2.456,5.618,5.618,0,0,1-3.363.938,5.867,5.867,0,0,1-2.476-.5,4.155,4.155,0,0,1-1.7-1.364,3.169,3.169,0,0,1-.615-1.871h2.81a1.547,1.547,0,0,0,.584,1.21,2.318,2.318,0,0,0,1.456.42A2.146,2.146,0,0,0,73.3,17.78,1,1,0,0,0,73.732,16.934Zm11.433,1.938a3.716,3.716,0,0,1-3.035,1.333,3.5,3.5,0,0,1-2.722-1.025,4.377,4.377,0,0,1-.959-3V8.905h2.963v7.176q0,1.735,1.579,1.735a2.14,2.14,0,0,0,2.071-1.047V8.905h2.974V20H85.247Zm16.57-7.188a8.051,8.051,0,0,0-1.066-.082,2.171,2.171,0,0,0-2.2,1.138V20H95.5V8.905h2.8l.082,1.323A2.746,2.746,0,0,1,100.853,8.7a3.105,3.105,0,0,1,.923.133Zm6.337,8.521a5.447,5.447,0,0,1-3.973-1.5,5.321,5.321,0,0,1-1.533-3.989v-.287a6.7,6.7,0,0,1,.646-2.989,4.741,4.741,0,0,1,1.83-2.03,5.137,5.137,0,0,1,2.7-.713,4.6,4.6,0,0,1,3.584,1.436,5.833,5.833,0,0,1,1.307,4.071v1.21H105.57a2.753,2.753,0,0,0,.866,1.743,2.619,2.619,0,0,0,1.83.656,3.2,3.2,0,0,0,2.676-1.241l1.456,1.63a4.449,4.449,0,0,1-1.8,1.471A5.921,5.921,0,0,1,108.072,20.205Zm-.338-9.116a1.852,1.852,0,0,0-1.43.6,3.093,3.093,0,0,0-.7,1.71h4.122V13.16a2.206,2.206,0,0,0-.533-1.529A1.91,1.91,0,0,0,107.734,11.089Zm12.592,5.845a.955.955,0,0,0-.538-.856,6.115,6.115,0,0,0-1.728-.559q-3.958-.831-3.958-3.363a3.049,3.049,0,0,1,1.225-2.466,4.943,4.943,0,0,1,3.2-.99,5.32,5.32,0,0,1,3.379.995,3.135,3.135,0,0,1,1.266,2.584h-2.963a1.434,1.434,0,0,0-.41-1.051,1.736,1.736,0,0,0-1.282-.415,1.774,1.774,0,0,0-1.159.338,1.068,1.068,0,0,0-.41.861.913.913,0,0,0,.467.795,4.8,4.8,0,0,0,1.574.523,12.856,12.856,0,0,1,1.866.5,3.066,3.066,0,0,1,2.348,2.984,2.894,2.894,0,0,1-1.3,2.456,5.618,5.618,0,0,1-3.363.938,5.867,5.867,0,0,1-2.476-.5,4.155,4.155,0,0,1-1.7-1.364,3.169,3.169,0,0,1-.615-1.871h2.81a1.547,1.547,0,0,0,.584,1.21,2.318,2.318,0,0,0,1.456.42,2.146,2.146,0,0,0,1.287-.323A1,1,0,0,0,120.325,16.934Zm8.336-10.756V8.905h1.9v2.174h-1.9v5.537a1.322,1.322,0,0,0,.236.882,1.184,1.184,0,0,0,.9.267,4.726,4.726,0,0,0,.872-.072v2.246a6.1,6.1,0,0,1-1.794.267q-3.117,0-3.179-3.148V11.079h-1.62V8.905h1.62V6.178Zm9.782,5.506a8.051,8.051,0,0,0-1.066-.082,2.171,2.171,0,0,0-2.2,1.138V20H132.21V8.905h2.8l.082,1.323A2.746,2.746,0,0,1,137.562,8.7a3.105,3.105,0,0,1,.923.133ZM143,20h-2.974V8.905H143ZM139.849,6.034a1.459,1.459,0,0,1,.446-1.1,1.922,1.922,0,0,1,2.425,0,1.451,1.451,0,0,1,.451,1.1,1.455,1.455,0,0,1-.456,1.107,1.9,1.9,0,0,1-2.41,0A1.455,1.455,0,0,1,139.849,6.034Zm10.2,11.782a1.944,1.944,0,0,0,1.333-.451,1.581,1.581,0,0,0,.533-1.2H154.7a3.8,3.8,0,0,1-.615,2.066,4.06,4.06,0,0,1-1.656,1.456,5.183,5.183,0,0,1-2.323.518,4.817,4.817,0,0,1-3.753-1.512,5.985,5.985,0,0,1-1.374-4.178v-.195a5.917,5.917,0,0,1,1.364-4.091A4.761,4.761,0,0,1,150.082,8.7a4.667,4.667,0,0,1,3.338,1.184,4.193,4.193,0,0,1,1.277,3.153h-2.779a2.036,2.036,0,0,0-.533-1.407,1.982,1.982,0,0,0-2.917.214,4.374,4.374,0,0,0-.528,2.449V14.6a4.43,4.43,0,0,0,.523,2.465A1.807,1.807,0,0,0,150.052,17.816Zm10.951,0a1.944,1.944,0,0,0,1.333-.451,1.581,1.581,0,0,0,.533-1.2h2.779a3.8,3.8,0,0,1-.615,2.066,4.06,4.06,0,0,1-1.656,1.456,5.183,5.183,0,0,1-2.323.518,4.817,4.817,0,0,1-3.753-1.512,5.985,5.985,0,0,1-1.374-4.178v-.195a5.917,5.917,0,0,1,1.364-4.091A4.761,4.761,0,0,1,161.033,8.7a4.667,4.667,0,0,1,3.338,1.184,4.193,4.193,0,0,1,1.277,3.153h-2.779a2.036,2.036,0,0,0-.533-1.407,1.982,1.982,0,0,0-2.917.214,4.374,4.374,0,0,0-.528,2.449V14.6a4.43,4.43,0,0,0,.523,2.465A1.807,1.807,0,0,0,161,17.816ZM170.467,20h-2.974V8.905h2.974ZM167.319,6.034a1.459,1.459,0,0,1,.446-1.1,1.922,1.922,0,0,1,2.425,0,1.451,1.451,0,0,1,.451,1.1,1.455,1.455,0,0,1-.456,1.107,1.9,1.9,0,0,1-2.41,0A1.455,1.455,0,0,1,167.319,6.034Zm5.127,8.316a6.58,6.58,0,0,1,.636-2.943,4.654,4.654,0,0,1,1.83-2,5.34,5.34,0,0,1,2.774-.708,5.052,5.052,0,0,1,3.666,1.374,5.514,5.514,0,0,1,1.584,3.732l.021.759a5.8,5.8,0,0,1-1.425,4.1,5.524,5.524,0,0,1-7.655.005,5.9,5.9,0,0,1-1.43-4.184Zm2.963.21A4.147,4.147,0,0,0,176,16.979a2.137,2.137,0,0,0,3.384.01,4.538,4.538,0,0,0,.6-2.644,4.106,4.106,0,0,0-.6-2.4,1.967,1.967,0,0,0-1.7-.852,1.934,1.934,0,0,0-1.682.847A4.614,4.614,0,0,0,175.409,14.56ZM178.27,4.25h3.23l-2.84,3.179h-2.41Zm9.239,4.655.092,1.282A3.874,3.874,0,0,1,190.79,8.7a3.219,3.219,0,0,1,2.625,1.036,4.832,4.832,0,0,1,.882,3.1V20h-2.963V12.9a1.923,1.923,0,0,0-.41-1.369,1.836,1.836,0,0,0-1.364-.426,2.039,2.039,0,0,0-1.876,1.066V20H184.72V8.905Z" transform="translate(621.336 2083)" fill="#12263f"/>
    <path id="Trazado_609298" data-name="Trazado 609298" d="M13.242,15.027a5.283,5.283,0,0,1-1.779,3.794,6.248,6.248,0,0,1-4.23,1.384,5.618,5.618,0,0,1-4.517-1.933,7.925,7.925,0,0,1-1.646-5.306v-.913A8.95,8.95,0,0,1,1.83,8.259,5.686,5.686,0,0,1,4,5.742a6.075,6.075,0,0,1,3.276-.877A6.087,6.087,0,0,1,11.438,6.25a5.677,5.677,0,0,1,1.825,3.886H10.187a3.118,3.118,0,0,0-.8-2.1,2.981,2.981,0,0,0-2.107-.651,2.614,2.614,0,0,0-2.3,1.1,6.178,6.178,0,0,0-.784,3.42v1.128a6.612,6.612,0,0,0,.733,3.538,2.565,2.565,0,0,0,2.312,1.118,3.037,3.037,0,0,0,2.128-.651,2.941,2.941,0,0,0,.8-2.015Zm8.47,3.845a3.716,3.716,0,0,1-3.035,1.333,3.5,3.5,0,0,1-2.722-1.025,4.377,4.377,0,0,1-.959-3V8.905h2.963v7.176q0,1.735,1.579,1.735a2.14,2.14,0,0,0,2.071-1.047V8.905h2.974V20H21.794ZM33.248,20a3.291,3.291,0,0,1-.3-.995,3.586,3.586,0,0,1-2.8,1.2,3.939,3.939,0,0,1-2.7-.943,3.034,3.034,0,0,1-1.072-2.379,3.135,3.135,0,0,1,1.307-2.707,6.451,6.451,0,0,1,3.779-.954h1.364v-.636a1.828,1.828,0,0,0-.395-1.23,1.553,1.553,0,0,0-1.246-.461,1.766,1.766,0,0,0-1.174.359,1.219,1.219,0,0,0-.426.984H26.624a2.977,2.977,0,0,1,.595-1.784A3.931,3.931,0,0,1,28.9,9.167a6.129,6.129,0,0,1,2.44-.467A4.842,4.842,0,0,1,34.6,9.731a3.605,3.605,0,0,1,1.2,2.9v4.809a5.3,5.3,0,0,0,.441,2.389V20ZM30.8,17.939a2.552,2.552,0,0,0,1.21-.292,1.919,1.919,0,0,0,.82-.784V14.955H31.72q-2.225,0-2.369,1.538l-.01.174a1.186,1.186,0,0,0,.39.913A1.514,1.514,0,0,0,30.8,17.939ZM41.2,20H38.231V4.25H41.2Zm5.568,0H43.8V8.905h2.974ZM43.625,6.034a1.459,1.459,0,0,1,.446-1.1,1.922,1.922,0,0,1,2.425,0,1.451,1.451,0,0,1,.451,1.1,1.455,1.455,0,0,1-.456,1.107,1.9,1.9,0,0,1-2.41,0A1.455,1.455,0,0,1,43.625,6.034Zm9.136.144V8.905h1.9v2.174h-1.9v5.537A1.322,1.322,0,0,0,53,17.5a1.184,1.184,0,0,0,.9.267,4.726,4.726,0,0,0,.872-.072v2.246a6.1,6.1,0,0,1-1.794.267q-3.117,0-3.179-3.148V11.079h-1.62V8.905H49.8V6.178ZM62.738,20a3.291,3.291,0,0,1-.3-.995,3.586,3.586,0,0,1-2.8,1.2,3.939,3.939,0,0,1-2.7-.943,3.034,3.034,0,0,1-1.072-2.379,3.135,3.135,0,0,1,1.307-2.707,6.451,6.451,0,0,1,3.779-.954h1.364v-.636a1.828,1.828,0,0,0-.395-1.23,1.553,1.553,0,0,0-1.246-.461,1.766,1.766,0,0,0-1.174.359,1.219,1.219,0,0,0-.426.984H56.114a2.977,2.977,0,0,1,.595-1.784A3.931,3.931,0,0,1,58.39,9.167a6.129,6.129,0,0,1,2.44-.467,4.842,4.842,0,0,1,3.256,1.031,3.605,3.605,0,0,1,1.2,2.9v4.809a5.3,5.3,0,0,0,.441,2.389V20Zm-2.451-2.061a2.552,2.552,0,0,0,1.21-.292,1.919,1.919,0,0,0,.82-.784V14.955H61.21q-2.225,0-2.369,1.538l-.01.174a1.186,1.186,0,0,0,.39.913A1.514,1.514,0,0,0,60.287,17.939ZM71.115,6.178V8.905h1.9v2.174h-1.9v5.537a1.322,1.322,0,0,0,.236.882,1.184,1.184,0,0,0,.9.267,4.726,4.726,0,0,0,.872-.072v2.246a6.1,6.1,0,0,1-1.794.267q-3.117,0-3.179-3.148V11.079h-1.62V8.905h1.62V6.178ZM77.791,20H74.817V8.905h2.974ZM74.643,6.034a1.459,1.459,0,0,1,.446-1.1,1.922,1.922,0,0,1,2.425,0,1.451,1.451,0,0,1,.451,1.1,1.455,1.455,0,0,1-.456,1.107,1.9,1.9,0,0,1-2.41,0A1.455,1.455,0,0,1,74.643,6.034ZM84.384,16.38l2.061-7.475h3.1L85.8,20h-2.83L79.226,8.905h3.1ZM97.119,20a3.291,3.291,0,0,1-.3-.995,3.586,3.586,0,0,1-2.8,1.2,3.939,3.939,0,0,1-2.7-.943,3.034,3.034,0,0,1-1.072-2.379,3.135,3.135,0,0,1,1.307-2.707,6.451,6.451,0,0,1,3.779-.954H96.7v-.636a1.828,1.828,0,0,0-.395-1.23,1.553,1.553,0,0,0-1.246-.461,1.766,1.766,0,0,0-1.174.359,1.219,1.219,0,0,0-.426.984H90.5a2.977,2.977,0,0,1,.595-1.784,3.931,3.931,0,0,1,1.682-1.287,6.129,6.129,0,0,1,2.44-.467,4.842,4.842,0,0,1,3.256,1.031,3.605,3.605,0,0,1,1.2,2.9v4.809a5.3,5.3,0,0,0,.441,2.389V20Zm-2.451-2.061a2.552,2.552,0,0,0,1.21-.292,1.919,1.919,0,0,0,.82-.784V14.955H95.592q-2.225,0-2.369,1.538l-.01.174a1.186,1.186,0,0,0,.39.913A1.514,1.514,0,0,0,94.669,17.939Z" transform="translate(927.336 1669)" fill="#12263f"/>
    <path id="Trazado_609299" data-name="Trazado 609299" d="M21.6,20H18.523V5.07H21.6ZM26.983,8.905l.092,1.282A3.874,3.874,0,0,1,30.264,8.7a3.219,3.219,0,0,1,2.625,1.036,4.832,4.832,0,0,1,.882,3.1V20H30.807V12.9a1.923,1.923,0,0,0-.41-1.369,1.836,1.836,0,0,0-1.364-.426,2.039,2.039,0,0,0-1.876,1.066V20H24.194V8.905ZM39.564,6.178V8.905h1.9v2.174h-1.9v5.537a1.322,1.322,0,0,0,.236.882,1.184,1.184,0,0,0,.9.267,4.726,4.726,0,0,0,.872-.072v2.246a6.1,6.1,0,0,1-1.794.267q-3.117,0-3.179-3.148V11.079h-1.62V8.905H36.6V6.178Zm8.654,14.027a5.447,5.447,0,0,1-3.973-1.5,5.321,5.321,0,0,1-1.533-3.989v-.287a6.7,6.7,0,0,1,.646-2.989,4.741,4.741,0,0,1,1.83-2.03,5.137,5.137,0,0,1,2.7-.713,4.6,4.6,0,0,1,3.584,1.436,5.833,5.833,0,0,1,1.307,4.071v1.21H45.717a2.753,2.753,0,0,0,.866,1.743,2.619,2.619,0,0,0,1.83.656,3.2,3.2,0,0,0,2.676-1.241l1.456,1.63a4.449,4.449,0,0,1-1.8,1.471A5.921,5.921,0,0,1,48.219,20.205Zm-.338-9.116a1.852,1.852,0,0,0-1.43.6,3.093,3.093,0,0,0-.7,1.71h4.122V13.16a2.206,2.206,0,0,0-.533-1.529A1.91,1.91,0,0,0,47.88,11.089Zm12.817.595a8.051,8.051,0,0,0-1.066-.082,2.171,2.171,0,0,0-2.2,1.138V20H54.463V8.905h2.8l.082,1.323A2.746,2.746,0,0,1,59.816,8.7a3.105,3.105,0,0,1,.923.133ZM64.85,8.905l.092,1.282A3.874,3.874,0,0,1,68.132,8.7a3.219,3.219,0,0,1,2.625,1.036,4.832,4.832,0,0,1,.882,3.1V20H68.675V12.9a1.923,1.923,0,0,0-.41-1.369A1.836,1.836,0,0,0,66.9,11.11a2.039,2.039,0,0,0-1.876,1.066V20H62.061V8.905ZM80.313,20a3.291,3.291,0,0,1-.3-.995,3.586,3.586,0,0,1-2.8,1.2,3.939,3.939,0,0,1-2.7-.943,3.034,3.034,0,0,1-1.072-2.379,3.135,3.135,0,0,1,1.307-2.707,6.451,6.451,0,0,1,3.779-.954h1.364v-.636a1.828,1.828,0,0,0-.395-1.23,1.553,1.553,0,0,0-1.246-.461,1.766,1.766,0,0,0-1.174.359,1.219,1.219,0,0,0-.426.984H73.689a2.977,2.977,0,0,1,.595-1.784,3.931,3.931,0,0,1,1.682-1.287,6.129,6.129,0,0,1,2.44-.467,4.842,4.842,0,0,1,3.256,1.031,3.605,3.605,0,0,1,1.2,2.9v4.809a5.3,5.3,0,0,0,.441,2.389V20Zm-2.451-2.061a2.552,2.552,0,0,0,1.21-.292,1.919,1.919,0,0,0,.82-.784V14.955H78.785q-2.225,0-2.369,1.538l-.01.174a1.186,1.186,0,0,0,.39.913A1.514,1.514,0,0,0,77.863,17.939Z" transform="translate(927.336 1838)" fill="#12263f"/>
    <path id="Trazado_609300" data-name="Trazado 609300" d="M25,13.53H19.1v4h6.932V20H16.021V5.07h9.987V7.562H19.1V11.12H25Zm6.86-1.312L33.73,8.905H36.9L33.74,14.34,37.031,20H33.853l-1.979-3.486L29.905,20H26.716l3.292-5.66L26.86,8.905h3.179Zm10.008-6.04V8.905h1.9v2.174h-1.9v5.537a1.322,1.322,0,0,0,.236.882,1.184,1.184,0,0,0,.9.267,4.726,4.726,0,0,0,.872-.072v2.246a6.1,6.1,0,0,1-1.794.267q-3.117,0-3.179-3.148V11.079h-1.62V8.905h1.62V6.178Zm8.654,14.027a5.447,5.447,0,0,1-3.973-1.5,5.321,5.321,0,0,1-1.533-3.989v-.287a6.7,6.7,0,0,1,.646-2.989,4.741,4.741,0,0,1,1.83-2.03A5.137,5.137,0,0,1,50.2,8.7a4.6,4.6,0,0,1,3.584,1.436,5.833,5.833,0,0,1,1.307,4.071v1.21H48.024a2.753,2.753,0,0,0,.866,1.743,2.619,2.619,0,0,0,1.83.656A3.2,3.2,0,0,0,53.4,16.575l1.456,1.63a4.449,4.449,0,0,1-1.8,1.471A5.921,5.921,0,0,1,50.526,20.205Zm-.338-9.116a1.852,1.852,0,0,0-1.43.6,3.093,3.093,0,0,0-.7,1.71h4.122V13.16a2.206,2.206,0,0,0-.533-1.529A1.91,1.91,0,0,0,50.187,11.089ZM63,11.684a8.051,8.051,0,0,0-1.066-.082,2.171,2.171,0,0,0-2.2,1.138V20H56.77V8.905h2.8l.082,1.323A2.746,2.746,0,0,1,62.123,8.7a3.105,3.105,0,0,1,.923.133Zm4.153-2.779.092,1.282A3.874,3.874,0,0,1,70.439,8.7a3.219,3.219,0,0,1,2.625,1.036,4.832,4.832,0,0,1,.882,3.1V20H70.982V12.9a1.923,1.923,0,0,0-.41-1.369,1.836,1.836,0,0,0-1.364-.426,2.039,2.039,0,0,0-1.876,1.066V20H64.368V8.905ZM82.62,20a3.291,3.291,0,0,1-.3-.995,3.586,3.586,0,0,1-2.8,1.2,3.939,3.939,0,0,1-2.7-.943,3.034,3.034,0,0,1-1.072-2.379,3.135,3.135,0,0,1,1.307-2.707,6.451,6.451,0,0,1,3.779-.954H82.2v-.636a1.828,1.828,0,0,0-.395-1.23,1.553,1.553,0,0,0-1.246-.461,1.766,1.766,0,0,0-1.174.359,1.219,1.219,0,0,0-.426.984H76a2.977,2.977,0,0,1,.595-1.784,3.931,3.931,0,0,1,1.682-1.287,6.129,6.129,0,0,1,2.44-.467,4.842,4.842,0,0,1,3.256,1.031,3.605,3.605,0,0,1,1.2,2.9v4.809a5.3,5.3,0,0,0,.441,2.389V20ZM80.17,17.939a2.552,2.552,0,0,0,1.21-.292,1.919,1.919,0,0,0,.82-.784V14.955H81.093q-2.225,0-2.369,1.538l-.01.174a1.186,1.186,0,0,0,.39.913A1.514,1.514,0,0,0,80.17,17.939Z" transform="translate(927.336 1920)" fill="#12263f"/>
    <path id="Trazado_609301" data-name="Trazado 609301" d="M6.02,14.74V20H2.944V5.07H8.768a6.738,6.738,0,0,1,2.958.615A4.534,4.534,0,0,1,13.69,7.434a4.875,4.875,0,0,1,.687,2.579,4.287,4.287,0,0,1-1.5,3.461A6.257,6.257,0,0,1,8.717,14.74Zm0-2.492H8.768a2.7,2.7,0,0,0,1.861-.574,2.088,2.088,0,0,0,.641-1.641,2.463,2.463,0,0,0-.646-1.774,2.413,2.413,0,0,0-1.784-.7H6.02Zm16.509-.564a8.051,8.051,0,0,0-1.066-.082,2.171,2.171,0,0,0-2.2,1.138V20H16.295V8.905h2.8l.082,1.323A2.746,2.746,0,0,1,21.647,8.7a3.105,3.105,0,0,1,.923.133ZM27.082,20H24.108V8.905h2.974ZM23.934,6.034a1.459,1.459,0,0,1,.446-1.1,1.922,1.922,0,0,1,2.425,0,1.451,1.451,0,0,1,.451,1.1A1.455,1.455,0,0,1,26.8,7.142a1.9,1.9,0,0,1-2.41,0A1.455,1.455,0,0,1,23.934,6.034ZM33.675,16.38l2.061-7.475h3.1L35.09,20H32.26L28.517,8.905h3.1ZM43.262,20H40.289V8.905h2.974ZM40.115,6.034a1.459,1.459,0,0,1,.446-1.1,1.922,1.922,0,0,1,2.425,0,1.451,1.451,0,0,1,.451,1.1,1.455,1.455,0,0,1-.456,1.107,1.9,1.9,0,0,1-2.41,0A1.455,1.455,0,0,1,40.115,6.034ZM48.83,20H45.857V4.25H48.83Zm7.547.205a5.447,5.447,0,0,1-3.973-1.5,5.321,5.321,0,0,1-1.533-3.989v-.287a6.7,6.7,0,0,1,.646-2.989,4.741,4.741,0,0,1,1.83-2.03,5.137,5.137,0,0,1,2.7-.713,4.6,4.6,0,0,1,3.584,1.436,5.833,5.833,0,0,1,1.307,4.071v1.21H53.875a2.753,2.753,0,0,0,.866,1.743,2.619,2.619,0,0,0,1.83.656,3.2,3.2,0,0,0,2.676-1.241l1.456,1.63a4.449,4.449,0,0,1-1.8,1.471A5.921,5.921,0,0,1,56.377,20.205Zm-.338-9.116a1.852,1.852,0,0,0-1.43.6,3.093,3.093,0,0,0-.7,1.71h4.122V13.16a2.206,2.206,0,0,0-.533-1.529A1.91,1.91,0,0,0,56.039,11.089Zm6.152,3.281a6.5,6.5,0,0,1,1.215-4.112A3.937,3.937,0,0,1,66.682,8.7a3.453,3.453,0,0,1,2.84,1.251l.123-1.046h2.687V19.631a4.742,4.742,0,0,1-.661,2.533A4.248,4.248,0,0,1,69.81,23.8a6.543,6.543,0,0,1-2.81.564,6.084,6.084,0,0,1-2.379-.487,4.222,4.222,0,0,1-1.753-1.256l1.313-1.8a3.471,3.471,0,0,0,2.687,1.241A2.541,2.541,0,0,0,68.7,21.43a2.365,2.365,0,0,0,.656-1.789v-.595a3.428,3.428,0,0,1-2.7,1.159,3.927,3.927,0,0,1-3.235-1.564,6.5,6.5,0,0,1-1.236-4.148Zm2.963.221a4.049,4.049,0,0,0,.6,2.367,1.925,1.925,0,0,0,1.661.857A2.058,2.058,0,0,0,69.359,16.8V12.127a2.053,2.053,0,0,0-1.917-1.017,1.937,1.937,0,0,0-1.677.873A4.563,4.563,0,0,0,65.155,14.591ZM77.736,20H74.762V8.905h2.974ZM74.588,6.034a1.459,1.459,0,0,1,.446-1.1,1.922,1.922,0,0,1,2.425,0,1.451,1.451,0,0,1,.451,1.1,1.455,1.455,0,0,1-.456,1.107,1.9,1.9,0,0,1-2.41,0A1.455,1.455,0,0,1,74.588,6.034ZM86.606,20a3.291,3.291,0,0,1-.3-.995,3.586,3.586,0,0,1-2.8,1.2,3.939,3.939,0,0,1-2.7-.943,3.034,3.034,0,0,1-1.072-2.379,3.135,3.135,0,0,1,1.307-2.707,6.451,6.451,0,0,1,3.779-.954h1.364v-.636a1.828,1.828,0,0,0-.395-1.23,1.553,1.553,0,0,0-1.246-.461,1.766,1.766,0,0,0-1.174.359,1.219,1.219,0,0,0-.426.984H79.982a2.977,2.977,0,0,1,.595-1.784,3.931,3.931,0,0,1,1.682-1.287A6.129,6.129,0,0,1,84.7,8.7a4.842,4.842,0,0,1,3.256,1.031,3.605,3.605,0,0,1,1.2,2.9v4.809a5.3,5.3,0,0,0,.441,2.389V20Zm-2.451-2.061a2.552,2.552,0,0,0,1.21-.292,1.919,1.919,0,0,0,.82-.784V14.955H85.078q-2.225,0-2.369,1.538l-.01.174a1.186,1.186,0,0,0,.39.913A1.514,1.514,0,0,0,84.155,17.939Zm6.819-3.568a6.686,6.686,0,0,1,1.164-4.132A3.776,3.776,0,0,1,95.322,8.7,3.4,3.4,0,0,1,98,9.91V4.25h2.974V20H98.3l-.144-1.179A3.487,3.487,0,0,1,95.3,20.205a3.766,3.766,0,0,1-3.143-1.543A6.9,6.9,0,0,1,90.974,14.371Zm2.963.221a4.38,4.38,0,0,0,.543,2.393,1.77,1.77,0,0,0,1.579.832A1.983,1.983,0,0,0,98,16.655V12.27a1.954,1.954,0,0,0-1.917-1.16Q93.937,11.11,93.937,14.591ZM109.7,20a3.291,3.291,0,0,1-.3-.995,3.586,3.586,0,0,1-2.8,1.2,3.939,3.939,0,0,1-2.7-.943,3.034,3.034,0,0,1-1.072-2.379,3.135,3.135,0,0,1,1.307-2.707,6.451,6.451,0,0,1,3.779-.954h1.364v-.636a1.828,1.828,0,0,0-.395-1.23,1.553,1.553,0,0,0-1.246-.461,1.766,1.766,0,0,0-1.174.359,1.219,1.219,0,0,0-.426.984h-2.963a2.977,2.977,0,0,1,.595-1.784,3.931,3.931,0,0,1,1.682-1.287,6.129,6.129,0,0,1,2.44-.467,4.842,4.842,0,0,1,3.256,1.031,3.605,3.605,0,0,1,1.2,2.9v4.809a5.3,5.3,0,0,0,.441,2.389V20Zm-2.451-2.061a2.552,2.552,0,0,0,1.21-.292,1.919,1.919,0,0,0,.82-.784V14.955H108.17q-2.225,0-2.369,1.538l-.01.174a1.186,1.186,0,0,0,.39.913A1.514,1.514,0,0,0,107.247,17.939Z" transform="translate(920.336 1999)" fill="#12263f"/>
    <path id="Trazado_609302" data-name="Trazado 609302" d="M26.118,14.74V20H23.042V5.07h5.824a6.738,6.738,0,0,1,2.958.615,4.534,4.534,0,0,1,1.964,1.748,4.875,4.875,0,0,1,.687,2.579,4.287,4.287,0,0,1-1.5,3.461,6.257,6.257,0,0,1-4.158,1.266Zm0-2.492h2.748a2.7,2.7,0,0,0,1.861-.574,2.088,2.088,0,0,0,.641-1.641,2.463,2.463,0,0,0-.646-1.774,2.413,2.413,0,0,0-1.784-.7h-2.82Zm16.509-.564A8.051,8.051,0,0,0,41.56,11.6a2.171,2.171,0,0,0-2.2,1.138V20H36.392V8.905h2.8l.082,1.323A2.746,2.746,0,0,1,41.745,8.7a3.105,3.105,0,0,1,.923.133ZM47.179,20H44.206V8.905h2.974ZM44.031,6.034a1.459,1.459,0,0,1,.446-1.1,1.922,1.922,0,0,1,2.425,0,1.451,1.451,0,0,1,.451,1.1A1.455,1.455,0,0,1,46.9,7.142a1.9,1.9,0,0,1-2.41,0A1.455,1.455,0,0,1,44.031,6.034ZM53.773,16.38l2.061-7.475h3.1L55.188,20h-2.83L48.615,8.905h3.1ZM66.508,20a3.291,3.291,0,0,1-.3-.995,3.586,3.586,0,0,1-2.8,1.2,3.939,3.939,0,0,1-2.7-.943,3.034,3.034,0,0,1-1.072-2.379,3.135,3.135,0,0,1,1.307-2.707,6.451,6.451,0,0,1,3.779-.954h1.364v-.636a1.828,1.828,0,0,0-.395-1.23,1.553,1.553,0,0,0-1.246-.461,1.766,1.766,0,0,0-1.174.359,1.219,1.219,0,0,0-.426.984H59.884a2.977,2.977,0,0,1,.595-1.784A3.931,3.931,0,0,1,62.16,9.167,6.129,6.129,0,0,1,64.6,8.7a4.842,4.842,0,0,1,3.256,1.031,3.605,3.605,0,0,1,1.2,2.9v4.809a5.3,5.3,0,0,0,.441,2.389V20Zm-2.451-2.061a2.552,2.552,0,0,0,1.21-.292,1.919,1.919,0,0,0,.82-.784V14.955H64.98q-2.225,0-2.369,1.538l-.01.174a1.186,1.186,0,0,0,.39.913A1.514,1.514,0,0,0,64.057,17.939Zm6.819-3.568a6.686,6.686,0,0,1,1.164-4.132A3.776,3.776,0,0,1,75.224,8.7,3.4,3.4,0,0,1,77.9,9.91V4.25h2.974V20H78.2l-.144-1.179A3.487,3.487,0,0,1,75.2,20.205a3.766,3.766,0,0,1-3.143-1.543A6.9,6.9,0,0,1,70.876,14.371Zm2.963.221a4.38,4.38,0,0,0,.543,2.393,1.77,1.77,0,0,0,1.579.832,1.983,1.983,0,0,0,1.938-1.16V12.27a1.954,1.954,0,0,0-1.917-1.16Q73.84,11.11,73.84,14.591ZM89.6,20a3.291,3.291,0,0,1-.3-.995,3.586,3.586,0,0,1-2.8,1.2,3.939,3.939,0,0,1-2.7-.943,3.034,3.034,0,0,1-1.072-2.379,3.135,3.135,0,0,1,1.307-2.707,6.451,6.451,0,0,1,3.779-.954h1.364v-.636a1.828,1.828,0,0,0-.395-1.23,1.553,1.553,0,0,0-1.246-.461,1.766,1.766,0,0,0-1.174.359,1.219,1.219,0,0,0-.426.984H82.976a2.977,2.977,0,0,1,.595-1.784,3.931,3.931,0,0,1,1.682-1.287,6.129,6.129,0,0,1,2.44-.467,4.842,4.842,0,0,1,3.256,1.031,3.605,3.605,0,0,1,1.2,2.9v4.809a5.3,5.3,0,0,0,.441,2.389V20Zm-2.451-2.061a2.552,2.552,0,0,0,1.21-.292,1.919,1.919,0,0,0,.82-.784V14.955H88.072q-2.225,0-2.369,1.538l-.01.174a1.186,1.186,0,0,0,.39.913A1.514,1.514,0,0,0,87.149,17.939Z" transform="translate(920.336 2083)" fill="#12263f"/>
    <path id="Trazado_609303" data-name="Trazado 609303" d="M26.677,14.74V20H23.6V5.07h5.824a6.738,6.738,0,0,1,2.958.615,4.534,4.534,0,0,1,1.964,1.748,4.875,4.875,0,0,1,.687,2.579,4.287,4.287,0,0,1-1.5,3.461,6.257,6.257,0,0,1-4.158,1.266Zm0-2.492h2.748a2.7,2.7,0,0,0,1.861-.574,2.088,2.088,0,0,0,.641-1.641,2.463,2.463,0,0,0-.646-1.774,2.413,2.413,0,0,0-1.784-.7h-2.82ZM43.6,18.872a3.716,3.716,0,0,1-3.035,1.333,3.5,3.5,0,0,1-2.722-1.025,4.377,4.377,0,0,1-.959-3V8.905h2.963v7.176q0,1.735,1.579,1.735a2.14,2.14,0,0,0,2.071-1.047V8.905h2.974V20H43.678ZM42.273,4.25H45.5l-2.84,3.179h-2.41ZM58.7,14.555a6.718,6.718,0,0,1-1.138,4.158,3.77,3.77,0,0,1-3.179,1.492A3.464,3.464,0,0,1,51.5,18.821L51.368,20H48.7V4.25h2.963V9.9a3.375,3.375,0,0,1,2.7-1.2,3.8,3.8,0,0,1,3.184,1.492,6.728,6.728,0,0,1,1.154,4.2Zm-2.963-.215a4.414,4.414,0,0,0-.533-2.456,1.8,1.8,0,0,0-1.589-.774,1.955,1.955,0,0,0-1.948,1.159v4.378a1.981,1.981,0,0,0,1.969,1.169A1.83,1.83,0,0,0,55.521,16.4,7.3,7.3,0,0,0,55.736,14.34ZM63.652,20H60.679V4.25h2.974Zm5.568,0H66.247V8.905H69.22ZM66.072,6.034a1.459,1.459,0,0,1,.446-1.1,1.922,1.922,0,0,1,2.425,0,1.451,1.451,0,0,1,.451,1.1,1.455,1.455,0,0,1-.456,1.107,1.9,1.9,0,0,1-2.41,0A1.455,1.455,0,0,1,66.072,6.034Zm10.2,11.782a1.944,1.944,0,0,0,1.333-.451,1.581,1.581,0,0,0,.533-1.2H80.92a3.8,3.8,0,0,1-.615,2.066,4.06,4.06,0,0,1-1.656,1.456,5.183,5.183,0,0,1-2.323.518,4.817,4.817,0,0,1-3.753-1.512A5.985,5.985,0,0,1,71.2,14.514v-.195a5.917,5.917,0,0,1,1.364-4.091A4.761,4.761,0,0,1,76.306,8.7a4.667,4.667,0,0,1,3.338,1.184,4.193,4.193,0,0,1,1.277,3.153H78.141a2.036,2.036,0,0,0-.533-1.407,1.982,1.982,0,0,0-2.917.214,4.374,4.374,0,0,0-.528,2.449V14.6a4.43,4.43,0,0,0,.523,2.465A1.807,1.807,0,0,0,76.275,17.816ZM89.041,20a3.291,3.291,0,0,1-.3-.995,3.586,3.586,0,0,1-2.8,1.2,3.939,3.939,0,0,1-2.7-.943,3.034,3.034,0,0,1-1.072-2.379,3.135,3.135,0,0,1,1.307-2.707,6.451,6.451,0,0,1,3.779-.954h1.364v-.636a1.828,1.828,0,0,0-.395-1.23,1.553,1.553,0,0,0-1.246-.461,1.766,1.766,0,0,0-1.174.359,1.219,1.219,0,0,0-.426.984H82.417a2.977,2.977,0,0,1,.595-1.784,3.931,3.931,0,0,1,1.682-1.287,6.129,6.129,0,0,1,2.44-.467,4.842,4.842,0,0,1,3.256,1.031,3.605,3.605,0,0,1,1.2,2.9v4.809a5.3,5.3,0,0,0,.441,2.389V20ZM86.59,17.939a2.552,2.552,0,0,0,1.21-.292,1.919,1.919,0,0,0,.82-.784V14.955H87.513q-2.225,0-2.369,1.538l-.01.174a1.186,1.186,0,0,0,.39.913A1.514,1.514,0,0,0,86.59,17.939Z" transform="translate(920.336 2168)" fill="#12263f"/>
    <path id="Trazado_609304" data-name="Trazado 609304" d="M13.6,15.027a5.283,5.283,0,0,1-1.779,3.794,6.248,6.248,0,0,1-4.23,1.384,5.618,5.618,0,0,1-4.517-1.933,7.925,7.925,0,0,1-1.646-5.306v-.913a8.95,8.95,0,0,1,.759-3.794A5.686,5.686,0,0,1,4.354,5.742,6.075,6.075,0,0,1,7.63,4.865,6.087,6.087,0,0,1,11.793,6.25a5.677,5.677,0,0,1,1.825,3.886H10.542a3.118,3.118,0,0,0-.8-2.1A2.981,2.981,0,0,0,7.63,7.388a2.614,2.614,0,0,0-2.3,1.1,6.178,6.178,0,0,0-.784,3.42v1.128a6.612,6.612,0,0,0,.733,3.538,2.565,2.565,0,0,0,2.312,1.118,3.037,3.037,0,0,0,2.128-.651,2.941,2.941,0,0,0,.8-2.015Zm8.47,3.845a3.716,3.716,0,0,1-3.035,1.333A3.5,3.5,0,0,1,16.31,19.18a4.377,4.377,0,0,1-.959-3V8.905h2.963v7.176q0,1.735,1.579,1.735a2.14,2.14,0,0,0,2.071-1.047V8.905h2.974V20H22.15ZM33.6,20a3.291,3.291,0,0,1-.3-.995,3.586,3.586,0,0,1-2.8,1.2,3.939,3.939,0,0,1-2.7-.943,3.034,3.034,0,0,1-1.072-2.379,3.135,3.135,0,0,1,1.307-2.707,6.451,6.451,0,0,1,3.779-.954h1.364v-.636a1.828,1.828,0,0,0-.395-1.23,1.553,1.553,0,0,0-1.246-.461,1.766,1.766,0,0,0-1.174.359,1.219,1.219,0,0,0-.426.984H26.979a2.977,2.977,0,0,1,.595-1.784,3.931,3.931,0,0,1,1.682-1.287A6.129,6.129,0,0,1,31.7,8.7a4.842,4.842,0,0,1,3.256,1.031,3.605,3.605,0,0,1,1.2,2.9v4.809a5.3,5.3,0,0,0,.441,2.389V20Zm-2.451-2.061a2.552,2.552,0,0,0,1.21-.292,1.919,1.919,0,0,0,.82-.784V14.955H32.075q-2.225,0-2.369,1.538l-.01.174a1.186,1.186,0,0,0,.39.913A1.514,1.514,0,0,0,31.153,17.939ZM41.16,8.905l.092,1.282A3.874,3.874,0,0,1,44.442,8.7a3.219,3.219,0,0,1,2.625,1.036,4.832,4.832,0,0,1,.882,3.1V20H44.985V12.9a1.923,1.923,0,0,0-.41-1.369,1.836,1.836,0,0,0-1.364-.426,2.039,2.039,0,0,0-1.876,1.066V20H38.371V8.905ZM53.742,6.178V8.905h1.9v2.174h-1.9v5.537a1.322,1.322,0,0,0,.236.882,1.184,1.184,0,0,0,.9.267,4.726,4.726,0,0,0,.872-.072v2.246a6.1,6.1,0,0,1-1.794.267q-3.117,0-3.179-3.148V11.079h-1.62V8.905h1.62V6.178ZM60.417,20H57.444V8.905h2.974ZM57.269,6.034a1.459,1.459,0,0,1,.446-1.1,1.922,1.922,0,0,1,2.425,0,1.451,1.451,0,0,1,.451,1.1,1.455,1.455,0,0,1-.456,1.107,1.9,1.9,0,0,1-2.41,0A1.455,1.455,0,0,1,57.269,6.034Zm9.136.144V8.905h1.9v2.174h-1.9v5.537a1.322,1.322,0,0,0,.236.882,1.184,1.184,0,0,0,.9.267,4.726,4.726,0,0,0,.872-.072v2.246a6.1,6.1,0,0,1-1.794.267q-3.117,0-3.179-3.148V11.079h-1.62V8.905h1.62V6.178ZM76.383,20a3.291,3.291,0,0,1-.3-.995,3.586,3.586,0,0,1-2.8,1.2,3.939,3.939,0,0,1-2.7-.943,3.034,3.034,0,0,1-1.072-2.379,3.135,3.135,0,0,1,1.307-2.707,6.451,6.451,0,0,1,3.779-.954h1.364v-.636a1.828,1.828,0,0,0-.395-1.23,1.553,1.553,0,0,0-1.246-.461,1.766,1.766,0,0,0-1.174.359,1.219,1.219,0,0,0-.426.984H69.759a2.977,2.977,0,0,1,.595-1.784,3.931,3.931,0,0,1,1.682-1.287,6.129,6.129,0,0,1,2.44-.467,4.842,4.842,0,0,1,3.256,1.031,3.605,3.605,0,0,1,1.2,2.9v4.809a5.3,5.3,0,0,0,.441,2.389V20Zm-2.451-2.061a2.552,2.552,0,0,0,1.21-.292,1.919,1.919,0,0,0,.82-.784V14.955H74.855q-2.225,0-2.369,1.538l-.01.174a1.186,1.186,0,0,0,.39.913A1.514,1.514,0,0,0,73.932,17.939ZM84.76,6.178V8.905h1.9v2.174h-1.9v5.537A1.322,1.322,0,0,0,85,17.5a1.184,1.184,0,0,0,.9.267,4.726,4.726,0,0,0,.872-.072v2.246a6.1,6.1,0,0,1-1.794.267q-3.117,0-3.179-3.148V11.079h-1.62V8.905H81.8V6.178ZM91.435,20H88.462V8.905h2.974ZM88.287,6.034a1.459,1.459,0,0,1,.446-1.1,1.922,1.922,0,0,1,2.425,0,1.451,1.451,0,0,1,.451,1.1,1.455,1.455,0,0,1-.456,1.107,1.9,1.9,0,0,1-2.41,0A1.455,1.455,0,0,1,88.287,6.034ZM98.029,16.38l2.061-7.475h3.1L99.444,20h-2.83L92.871,8.905h3.1ZM110.764,20a3.291,3.291,0,0,1-.3-.995,3.586,3.586,0,0,1-2.8,1.2,3.939,3.939,0,0,1-2.7-.943,3.034,3.034,0,0,1-1.072-2.379,3.135,3.135,0,0,1,1.307-2.707,6.451,6.451,0,0,1,3.779-.954h1.364v-.636a1.828,1.828,0,0,0-.395-1.23,1.553,1.553,0,0,0-1.246-.461,1.766,1.766,0,0,0-1.174.359,1.219,1.219,0,0,0-.426.984H104.14a2.977,2.977,0,0,1,.595-1.784,3.931,3.931,0,0,1,1.682-1.287,6.129,6.129,0,0,1,2.44-.467,4.842,4.842,0,0,1,3.256,1.031,3.605,3.605,0,0,1,1.2,2.9v4.809a5.3,5.3,0,0,0,.441,2.389V20Zm-2.451-2.061a2.552,2.552,0,0,0,1.21-.292,1.919,1.919,0,0,0,.82-.784V14.955h-1.107q-2.225,0-2.369,1.538l-.01.174a1.186,1.186,0,0,0,.39.913A1.514,1.514,0,0,0,108.313,17.939Z" transform="translate(920.336 1753)" fill="#12263f"/>
    <g id="Grupo_1014948" data-name="Grupo 1014948" transform="translate(1095 3884.533) rotate(180)">
      <circle id="Elipse_4717" data-name="Elipse 4717" cx="2.5" cy="2.5" r="2.5" transform="translate(285 1811.532)" fill="#304c8e"/>
      <circle id="Elipse_4719" data-name="Elipse 4719" cx="2.5" cy="2.5" r="2.5" transform="translate(285 1823.532)" fill="#304c8e"/>
      <circle id="Elipse_4716" data-name="Elipse 4716" cx="2.5" cy="2.5" r="2.5" transform="translate(297 1811.532)" fill="#304c8e"/>
      <circle id="Elipse_4721" data-name="Elipse 4721" cx="2.5" cy="2.5" r="2.5" transform="translate(308 1811.532)" fill="#304c8e"/>
      <circle id="Elipse_4718" data-name="Elipse 4718" cx="2.5" cy="2.5" r="2.5" transform="translate(297 1823.532)" fill="#304c8e"/>
      <circle id="Elipse_4722" data-name="Elipse 4722" cx="2.5" cy="2.5" r="2.5" transform="translate(308 1823.532)" fill="#304c8e"/>
    </g>
    <g id="Grupo_1014949" data-name="Grupo 1014949" transform="translate(1095 3678.033) rotate(180)">
      <circle id="Elipse_4717-2" data-name="Elipse 4717" cx="2.5" cy="2.5" r="2.5" transform="translate(285 1811.532)" fill="#304c8e"/>
      <circle id="Elipse_4719-2" data-name="Elipse 4719" cx="2.5" cy="2.5" r="2.5" transform="translate(285 1823.532)" fill="#304c8e"/>
      <circle id="Elipse_4716-2" data-name="Elipse 4716" cx="2.5" cy="2.5" r="2.5" transform="translate(297 1811.532)" fill="#304c8e"/>
      <circle id="Elipse_4721-2" data-name="Elipse 4721" cx="2.5" cy="2.5" r="2.5" transform="translate(308 1811.532)" fill="#304c8e"/>
      <circle id="Elipse_4718-2" data-name="Elipse 4718" cx="2.5" cy="2.5" r="2.5" transform="translate(297 1823.532)" fill="#304c8e"/>
      <circle id="Elipse_4722-2" data-name="Elipse 4722" cx="2.5" cy="2.5" r="2.5" transform="translate(308 1823.532)" fill="#304c8e"/>
    </g>
    <g id="Grupo_1014950" data-name="Grupo 1014950" transform="translate(1095 3507.033) rotate(180)">
      <circle id="Elipse_4717-3" data-name="Elipse 4717" cx="2.5" cy="2.5" r="2.5" transform="translate(285 1811.532)" fill="#304c8e"/>
      <circle id="Elipse_4719-3" data-name="Elipse 4719" cx="2.5" cy="2.5" r="2.5" transform="translate(285 1823.532)" fill="#304c8e"/>
      <circle id="Elipse_4716-3" data-name="Elipse 4716" cx="2.5" cy="2.5" r="2.5" transform="translate(297 1811.532)" fill="#304c8e"/>
      <circle id="Elipse_4721-3" data-name="Elipse 4721" cx="2.5" cy="2.5" r="2.5" transform="translate(308 1811.532)" fill="#304c8e"/>
      <circle id="Elipse_4718-3" data-name="Elipse 4718" cx="2.5" cy="2.5" r="2.5" transform="translate(297 1823.532)" fill="#304c8e"/>
      <circle id="Elipse_4722-3" data-name="Elipse 4722" cx="2.5" cy="2.5" r="2.5" transform="translate(308 1823.532)" fill="#304c8e"/>
    </g>
  </g>
</svg>
