<svg id="Group_40" data-name="Group 40" xmlns="http://www.w3.org/2000/svg" width="408.055" height="404.286" viewBox="0 0 408.055 404.286">
  <path id="Trazado_604850" data-name="Trazado 604850" d="M366.931,347.2c-73.7,77.772-186.9,54.763-203.634,51.066-21.081-4.657-71.236-15.739-108.663-59.493-57.3-66.99-51.514-171.684-7.261-242.267,12.877-20.537,56.21-81.572,137.586-94.842,4.756-.775,89.731-13.235,158.1,44.133A187.2,187.2,0,0,1,380.2,87.935c40.456,63.273,59.6,182.364-13.27,259.265Z" transform="translate(-8.425 0)" fill="#fafafa"/>
  <path id="Trazado_604851" data-name="Trazado 604851" d="M456.243,49.806a6.84,6.84,0,0,1,9-5.075C491.233,54,580.878,84.614,658.183,94.806a6.327,6.327,0,0,1,5.437,7.242L618.645,390.585a7.275,7.275,0,0,1-8.268,6.08c-32.4-4.849-165.7-25.3-211.666-40.129a5.766,5.766,0,0,1-3.871-6.648Z" transform="translate(-257.427 -28.911)" fill="#91b3fa"/>
  <path id="Trazado_604852" data-name="Trazado 604852" d="M465.314,72.658a6.581,6.581,0,0,1,8.658-4.884c25.014,8.919,111.284,38.38,185.676,48.19a6.087,6.087,0,0,1,5.231,6.968L621.6,400.6a7.005,7.005,0,0,1-7.958,5.85c-31.175-4.668-159.464-24.348-203.695-38.618a5.55,5.55,0,0,1-3.726-6.4Z" transform="translate(-264.854 -43.949)" fill="#fff" opacity="0.6"/>
  <path id="Trazado_604853" data-name="Trazado 604853" d="M618.787,148.153a4.068,4.068,0,0,0-4.992,3.295l-9.672,59.446A3.825,3.825,0,0,0,607,215.23c10.838,2.606,44.638,10.594,64.032,13.637a4.272,4.272,0,0,0,4.81-3.206c2.692-10.962,10.266-42.929,10.581-56.892a4.821,4.821,0,0,0-3.669-4.781l-63.969-15.836Z" transform="translate(-393.96 -96.543)" fill="#fff" opacity="0.78"/>
  <g id="Grupo_1014617" data-name="Grupo 1014617" transform="translate(308.306 73.783)" opacity="0.6">
    <path id="Trazado_604854" data-name="Trazado 604854" d="M958.055,232.351a2.131,2.131,0,0,0,2.654-1.5,2.336,2.336,0,0,0-1.927-2.512l-70.4-16.154a1.525,1.525,0,0,0-1.981,1.8l.136,1.032a3.558,3.558,0,0,0,2.6,2.81Z" transform="translate(-886.377 -212.125)" fill="#fff"/>
  </g>
  <g id="Grupo_1014618" data-name="Grupo 1014618" transform="translate(305.994 84.757)" opacity="0.6">
    <path id="Trazado_604855" data-name="Trazado 604855" d="M881.732,243.735a1.525,1.525,0,0,0-1.981,1.8l.136,1.031a3.558,3.558,0,0,0,2.6,2.81L951.408,263.9a2.13,2.13,0,0,0,2.654-1.5,2.333,2.333,0,0,0-1.927-2.512Z" transform="translate(-879.731 -243.676)" fill="#fff"/>
  </g>
  <g id="Grupo_1014619" data-name="Grupo 1014619" transform="translate(303.648 95.892)" opacity="0.6">
    <path id="Trazado_604856" data-name="Trazado 604856" d="M874.986,275.748a1.525,1.525,0,0,0-1.981,1.8l.136,1.032a3.559,3.559,0,0,0,2.6,2.81l68.92,14.525a2.131,2.131,0,0,0,2.654-1.5,2.339,2.339,0,0,0-1.93-2.512Z" transform="translate(-872.984 -275.69)" fill="#fff"/>
  </g>
  <g id="Grupo_1014620" data-name="Grupo 1014620" transform="translate(204.699 130.981)" opacity="0.6">
    <path id="Trazado_604857" data-name="Trazado 604857" d="M754.679,416.849a2.044,2.044,0,0,0,2.584-1.519,2.418,2.418,0,0,0-2.007-2.5l-165.281-36.2c-1.261-.276-1.818.442-1.241,1.6l.995,1.984a5.526,5.526,0,0,0,3.348,2.581Z" transform="translate(-588.507 -376.57)" fill="#fff"/>
  </g>
  <g id="Grupo_1014621" data-name="Grupo 1014621" transform="translate(202.386 141.957)" opacity="0.6">
    <path id="Trazado_604858" data-name="Trazado 604858" d="M583.326,408.184c-1.261-.277-1.818.442-1.241,1.6l1,1.984a5.525,5.525,0,0,0,3.347,2.581l161.6,34.06a2.045,2.045,0,0,0,2.584-1.519,2.417,2.417,0,0,0-2.007-2.5Z" transform="translate(-581.857 -408.125)" fill="#fff"/>
  </g>
  <path id="Trazado_604859" data-name="Trazado 604859" d="M563.949,460.48c4.045.534,11.529,1.963,15.645,2.771a3.8,3.8,0,0,1,3.072,3.618,61.975,61.975,0,0,1-1.419,15.391,3.376,3.376,0,0,1-4.013,2.531l-15.107-3.355a3.716,3.716,0,0,1-2.887-4.052l1.671-14.525a2.707,2.707,0,0,1,3.04-2.379Z" transform="translate(-364.705 -300.297)" fill="#fff" opacity="0.6"/>
  <g id="Grupo_1014622" data-name="Grupo 1014622" transform="translate(223.451 171.863)" opacity="0.6">
    <path id="Trazado_604860" data-name="Trazado 604860" d="M644.982,494.176a1.867,1.867,0,0,0-2.411,1.763l-.148,2.519a2.817,2.817,0,0,0,2.158,2.826l36.775,7.751a2.317,2.317,0,0,0,2.751-1.817l.123-.623a2.513,2.513,0,0,0-1.818-2.881l-37.431-9.538Z" transform="translate(-642.419 -494.105)" fill="#fff"/>
  </g>
  <path id="Trazado_604861" data-name="Trazado 604861" d="M801.119,510.463c4.046.534,11.529,1.964,15.645,2.771a3.8,3.8,0,0,1,3.072,3.618,61.954,61.954,0,0,1-1.419,15.391,3.375,3.375,0,0,1-4.013,2.531L799.3,531.42a3.718,3.718,0,0,1-2.886-4.053l1.671-14.525a2.708,2.708,0,0,1,3.04-2.379Z" transform="translate(-519.381 -332.895)" fill="#fff" opacity="0.6"/>
  <g id="Grupo_1014623" data-name="Grupo 1014623" transform="translate(305.945 189.249)" opacity="0.6">
    <path id="Trazado_604862" data-name="Trazado 604862" d="M882.151,544.159a1.867,1.867,0,0,0-2.411,1.763l-.148,2.519a2.818,2.818,0,0,0,2.158,2.826l36.775,7.751a2.317,2.317,0,0,0,2.751-1.817l.123-.623a2.514,2.514,0,0,0-1.818-2.881L882.15,544.16Z" transform="translate(-879.588 -544.088)" fill="#fff"/>
  </g>
  <path id="Trazado_604863" data-name="Trazado 604863" d="M567.831,595.65l-.038-.009-13.944-3.078a3.839,3.839,0,0,1-3.16-4l1.242-11.982a2.6,2.6,0,0,1,1-1.789,3.136,3.136,0,0,1,2.36-.6c1.194.168,2.882.376,4.669.6,3.761.464,8.443,1.041,11.039,1.555a3.99,3.99,0,0,1,3.336,3.561c.161,2.844-.977,7.925-2.259,13.322A3.53,3.53,0,0,1,567.831,595.65Zm-12.686-20.378a2.028,2.028,0,0,0-1.532.382,1.515,1.515,0,0,0-.591,1.039l-1.242,11.982a2.747,2.747,0,0,0,2.306,2.819l13.944,3.078.028.006a2.432,2.432,0,0,0,2.956-1.609c1.263-5.315,2.383-10.31,2.231-13.008a2.946,2.946,0,0,0-2.454-2.547c-2.556-.505-7.216-1.08-10.96-1.542-1.791-.221-3.483-.43-4.686-.6Z" transform="translate(-359.133 -374.446)" fill="#fff"/>
  <path id="Trazado_604864" data-name="Trazado 604864" d="M561.122,581.712c2.977.418,9.494,1.115,12.528,1.715a2.763,2.763,0,0,1,2.313,2.44c.129,2.282-.856,6.57-1.794,10.521A2.377,2.377,0,0,1,571.264,598l-11.144-2.461a2.637,2.637,0,0,1-2.184-2.726l.993-9.576a1.854,1.854,0,0,1,2.193-1.525Z" transform="translate(-363.863 -379.362)" fill="#fff" opacity="0.6"/>
  <g id="Grupo_1014624" data-name="Grupo 1014624" transform="translate(222.606 212.28)" opacity="0.6">
    <path id="Trazado_604865" data-name="Trazado 604865" d="M640,614.028a3.546,3.546,0,0,0,2.84,3.3L772.349,643.47a2.681,2.681,0,0,0,1.1-5.249L644.284,610.384A3.546,3.546,0,0,0,640,614.028Z" transform="translate(-639.991 -610.302)" fill="#fff"/>
  </g>
  <path id="Trazado_604866" data-name="Trazado 604866" d="M549.686,681.748l-.038-.009L535.7,678.661a3.839,3.839,0,0,1-3.16-4l1.242-11.983a2.605,2.605,0,0,1,1.005-1.789,3.135,3.135,0,0,1,2.36-.6c1.194.168,2.882.376,4.669.6,3.762.464,8.443,1.042,11.039,1.555l.057.012a3.984,3.984,0,0,1,3.28,3.549c.161,2.844-.977,7.926-2.259,13.323a3.53,3.53,0,0,1-4.249,2.43ZM537,661.369a2.031,2.031,0,0,0-1.532.382,1.514,1.514,0,0,0-.591,1.039l-1.242,11.983a2.747,2.747,0,0,0,2.306,2.819l13.944,3.078.028.006a2.432,2.432,0,0,0,2.955-1.609c1.263-5.317,2.383-10.31,2.231-13.008a2.93,2.93,0,0,0-2.453-2.547c-2.556-.5-7.216-1.08-10.96-1.542-1.791-.221-3.484-.43-4.686-.6Z" transform="translate(-347.299 -430.597)" fill="#fff"/>
  <path id="Trazado_604867" data-name="Trazado 604867" d="M542.98,667.811c2.977.418,9.494,1.115,12.528,1.715a2.763,2.763,0,0,1,2.313,2.44c.129,2.282-.856,6.57-1.794,10.521a2.377,2.377,0,0,1-2.905,1.609l-11.144-2.461a2.637,2.637,0,0,1-2.184-2.726l.993-9.576a1.854,1.854,0,0,1,2.193-1.524Z" transform="translate(-352.031 -435.513)" fill="#fff" opacity="0.6"/>
  <g id="Grupo_1014625" data-name="Grupo 1014625" transform="translate(216.294 242.227)" opacity="0.6">
    <path id="Trazado_604868" data-name="Trazado 604868" d="M621.849,700.125a3.547,3.547,0,0,0,2.84,3.3L754.2,729.568a2.681,2.681,0,0,0,1.1-5.249l-129.16-27.838A3.546,3.546,0,0,0,621.849,700.125Z" transform="translate(-621.845 -696.4)" fill="#fff"/>
  </g>
  <path id="Trazado_604869" data-name="Trazado 604869" d="M531.541,767.844l-.038-.009-13.944-3.078a3.837,3.837,0,0,1-3.16-4l1.242-11.982a2.606,2.606,0,0,1,1.005-1.789,3.136,3.136,0,0,1,2.36-.6c1.194.168,2.882.376,4.668.6,3.761.464,8.443,1.042,11.039,1.555l.057.012a3.984,3.984,0,0,1,3.28,3.549c.161,2.844-.977,7.925-2.259,13.322a3.53,3.53,0,0,1-4.249,2.43Zm-12.686-20.379a2.029,2.029,0,0,0-1.532.382,1.513,1.513,0,0,0-.591,1.039l-1.242,11.982a2.745,2.745,0,0,0,2.306,2.818l13.944,3.08.028.006a2.433,2.433,0,0,0,2.955-1.609c1.263-5.315,2.383-10.31,2.231-13.008a2.927,2.927,0,0,0-2.454-2.547c-2.556-.5-7.216-1.08-10.96-1.542-1.791-.221-3.483-.43-4.686-.6Z" transform="translate(-335.465 -486.748)" fill="#fff"/>
  <path id="Trazado_604870" data-name="Trazado 604870" d="M524.834,753.909c2.977.418,9.494,1.115,12.528,1.714a2.763,2.763,0,0,1,2.313,2.44c.129,2.282-.856,6.571-1.794,10.521a2.377,2.377,0,0,1-2.905,1.609l-11.144-2.461a2.637,2.637,0,0,1-2.184-2.725l.993-9.576a1.855,1.855,0,0,1,2.193-1.525Z" transform="translate(-340.197 -491.664)" fill="#fff" opacity="0.6"/>
  <g id="Grupo_1014626" data-name="Grupo 1014626" transform="translate(209.983 272.174)" opacity="0.6">
    <path id="Trazado_604871" data-name="Trazado 604871" d="M603.7,786.223a3.546,3.546,0,0,0,2.84,3.3l129.513,26.144a2.681,2.681,0,0,0,1.1-5.249L607.992,782.579A3.545,3.545,0,0,0,603.7,786.223Z" transform="translate(-603.7 -782.498)" fill="#fff"/>
  </g>
  <path id="Trazado_604872" data-name="Trazado 604872" d="M513.394,853.941l-.038-.009-13.944-3.078a3.837,3.837,0,0,1-3.16-4l1.242-11.982a2.606,2.606,0,0,1,1.005-1.789,3.138,3.138,0,0,1,2.36-.6c1.194.168,2.882.376,4.669.6,3.761.464,8.443,1.042,11.039,1.555l.057.012a3.985,3.985,0,0,1,3.28,3.55c.161,2.844-.977,7.925-2.259,13.322a3.53,3.53,0,0,1-4.249,2.43Zm-12.686-20.379a2.03,2.03,0,0,0-1.532.382,1.514,1.514,0,0,0-.591,1.039l-1.242,11.982a2.745,2.745,0,0,0,2.306,2.818l13.944,3.08.028.006a2.432,2.432,0,0,0,2.956-1.609c1.262-5.315,2.383-10.31,2.231-13.008a2.921,2.921,0,0,0-2.454-2.547c-2.556-.5-7.216-1.08-10.96-1.542-1.791-.221-3.483-.43-4.686-.6Z" transform="translate(-323.63 -542.898)" fill="#fff"/>
  <path id="Trazado_604873" data-name="Trazado 604873" d="M506.689,840.006c2.977.418,9.494,1.115,12.528,1.715a2.763,2.763,0,0,1,2.313,2.44c.129,2.282-.856,6.57-1.794,10.521a2.377,2.377,0,0,1-2.906,1.609l-11.144-2.461A2.637,2.637,0,0,1,503.5,851.1l.993-9.576A1.855,1.855,0,0,1,506.689,840Z" transform="translate(-328.363 -547.814)" fill="#fff" opacity="0.6"/>
  <g id="Grupo_1014627" data-name="Grupo 1014627" transform="translate(203.671 302.121)" opacity="0.6">
    <path id="Trazado_604874" data-name="Trazado 604874" d="M585.558,872.321a3.546,3.546,0,0,0,2.84,3.3l129.513,26.145a2.681,2.681,0,0,0,1.1-5.249L589.846,868.677A3.545,3.545,0,0,0,585.558,872.321Z" transform="translate(-585.554 -868.595)" fill="#fff"/>
  </g>
  <path id="Trazado_604875" data-name="Trazado 604875" d="M11.151,98.685a6.84,6.84,0,0,1,6.244-8.23c27.536-1.808,121.97-9.286,196.971-30.61a6.325,6.325,0,0,1,7.863,4.49l73.231,282.69a7.279,7.279,0,0,1-5.178,8.862c-31.659,8.405-162.136,42.539-210.208,47.168a5.764,5.764,0,0,1-6.192-4.567Z" transform="translate(-7.176 -38.871)" fill="#91b3fa"/>
  <path id="Trazado_604876" data-name="Trazado 604876" d="M24.419,120.193a6.582,6.582,0,0,1,6.009-7.919c26.5-1.741,117.377-8.936,189.554-29.457a6.085,6.085,0,0,1,7.566,4.32L298.02,359.181a7,7,0,0,1-4.983,8.528C262.57,375.8,137.006,408.648,90.745,413.1a5.555,5.555,0,0,1-5.959-4.4Z" transform="translate(-15.833 -53.857)" fill="#fff" opacity="0.6"/>
  <path id="Trazado_604877" data-name="Trazado 604877" d="M105.469,207.876l14.714,58.4a3.826,3.826,0,0,0,4.364,2.837c10.982-1.909,45.176-7.991,64.185-12.894a4.271,4.271,0,0,0,3.143-4.852c-1.88-11.132-7.614-43.477-12.866-56.419a4.821,4.821,0,0,0-5.265-2.932l-65,10.852A4.069,4.069,0,0,0,105.469,207.876Z" transform="translate(-68.703 -125.186)" fill="#fff" opacity="0.78"/>
  <path id="Trazado_604878" data-name="Trazado 604878" d="M213.44,253.286a12.933,12.933,0,1,0-13.783,12.024A12.933,12.933,0,0,0,213.44,253.286Z" transform="translate(-122.349 -156.177)" fill="#91b3fa"/>
  <path id="Trazado_604879" data-name="Trazado 604879" d="M183.66,352.712l40.38-8.2a3.191,3.191,0,0,0,1.647-5.353c-4.519-4.67-13.3-11.1-25.653-8.216-11.909,2.775-17.561,11.34-20.094,17.172a3.335,3.335,0,0,0,3.72,4.6Z" transform="translate(-117.168 -215.363)" fill="#91b3fa"/>
  <g id="Grupo_1014628" data-name="Grupo 1014628" transform="translate(125.927 51.006)" opacity="0.6">
    <path id="Trazado_604880" data-name="Trazado 604880" d="M435.393,150.66a2.134,2.134,0,0,0,1.841-2.433,2.337,2.337,0,0,0-2.767-1.541L363.437,159.8a1.524,1.524,0,0,0-1.1,2.439l.534.893a3.557,3.557,0,0,0,3.5,1.546L435.4,150.659Z" transform="translate(-362.04 -146.641)" fill="#fff"/>
  </g>
  <g id="Grupo_1014629" data-name="Grupo 1014629" transform="translate(128.158 61.998)" opacity="0.6">
    <path id="Trazado_604881" data-name="Trazado 604881" d="M369.851,191.4a1.524,1.524,0,0,0-1.1,2.439l.534.893a3.557,3.557,0,0,0,3.5,1.546l69.023-14.019a2.133,2.133,0,0,0,1.84-2.433,2.337,2.337,0,0,0-2.766-1.541L369.852,191.4Z" transform="translate(-368.454 -178.242)" fill="#fff"/>
  </g>
  <g id="Grupo_1014630" data-name="Grupo 1014630" transform="translate(130.423 73.149)" opacity="0.6">
    <path id="Trazado_604882" data-name="Trazado 604882" d="M376.362,223.463a1.524,1.524,0,0,0-1.1,2.439l.534.893a3.557,3.557,0,0,0,3.5,1.546l69.023-14.019a2.134,2.134,0,0,0,1.841-2.433,2.337,2.337,0,0,0-2.767-1.541l-71.031,13.113Z" transform="translate(-374.965 -210.302)" fill="#fff"/>
  </g>
  <g id="Grupo_1014631" data-name="Grupo 1014631" transform="translate(53.315 125.578)" opacity="0.6">
    <path id="Trazado_604883" data-name="Trazado 604883" d="M321.539,365.006a2.042,2.042,0,0,0,1.767-2.418,2.413,2.413,0,0,0-2.835-1.5L154.4,393.455c-1.267.247-1.494,1.128-.5,1.956l1.7,1.426a5.519,5.519,0,0,0,4.1,1.04L321.539,365Z" transform="translate(-153.279 -361.034)" fill="#fff"/>
  </g>
  <g id="Grupo_1014632" data-name="Grupo 1014632" transform="translate(55.547 136.568)" opacity="0.6">
    <path id="Trazado_604884" data-name="Trazado 604884" d="M160.818,425.054c-1.267.247-1.494,1.128-.5,1.956l1.7,1.426a5.521,5.521,0,0,0,4.1,1.04L327.958,396.6a2.042,2.042,0,0,0,1.767-2.418,2.413,2.413,0,0,0-2.836-1.5l-166.072,32.37Z" transform="translate(-159.698 -392.631)" fill="#fff"/>
  </g>
  <path id="Trazado_604885" data-name="Trazado 604885" d="M167.8,532.006c3.924-1.115,11.362-2.774,15.458-3.665a3.8,3.8,0,0,1,4.256,2.1,61.915,61.915,0,0,1,4.806,14.692,3.376,3.376,0,0,1-2.679,3.917l-15.2,2.917a3.715,3.715,0,0,1-4.257-2.573l-4.231-14a2.707,2.707,0,0,1,1.846-3.39Z" transform="translate(-108.158 -344.513)" fill="#fff" opacity="0.6"/>
  <g id="Grupo_1014633" data-name="Grupo 1014633" transform="translate(87.234 181.525)" opacity="0.6">
    <path id="Trazado_604886" data-name="Trazado 604886" d="M252.443,528.014a1.867,1.867,0,0,0-1.513,2.575l.863,2.37a2.82,2.82,0,0,0,3.1,1.738l36.831-7.481a2.319,2.319,0,0,0,1.8-2.761l-.135-.62a2.512,2.512,0,0,0-2.812-1.922Z" transform="translate(-250.796 -521.884)" fill="#fff"/>
  </g>
  <path id="Trazado_604887" data-name="Trazado 604887" d="M405.331,483.765c3.924-1.115,11.362-2.773,15.459-3.665a3.8,3.8,0,0,1,4.256,2.1,61.93,61.93,0,0,1,4.806,14.692,3.376,3.376,0,0,1-2.679,3.917l-15.2,2.918a3.716,3.716,0,0,1-4.257-2.574l-4.231-14a2.707,2.707,0,0,1,1.847-3.39Z" transform="translate(-263.066 -313.051)" fill="#fff" opacity="0.6"/>
  <g id="Grupo_1014634" data-name="Grupo 1014634" transform="translate(169.851 164.746)" opacity="0.6">
    <path id="Trazado_604888" data-name="Trazado 604888" d="M489.969,479.772a1.867,1.867,0,0,0-1.513,2.575l.865,2.37a2.82,2.82,0,0,0,3.1,1.738l36.831-7.481a2.32,2.32,0,0,0,1.8-2.761l-.135-.62a2.512,2.512,0,0,0-2.812-1.922l-38.142,6.1Z" transform="translate(-488.322 -473.642)" fill="#fff"/>
  </g>
  <path id="Trazado_604889" data-name="Trazado 604889" d="M224.277,653.5l-.038.007-14.021,2.708a3.838,3.838,0,0,1-4.488-2.42L202.115,642.3a2.608,2.608,0,0,1,.212-2.041,3.138,3.138,0,0,1,1.927-1.492c1.163-.32,2.794-.8,4.521-1.305,3.637-1.066,8.164-2.395,10.749-2.954A3.993,3.993,0,0,1,224,636.454c1.276,2.547,2.249,7.662,3.214,13.125a3.529,3.529,0,0,1-2.936,3.917Zm-19.732-13.671a2.033,2.033,0,0,0-1.255.959,1.517,1.517,0,0,0-.13,1.188l3.615,11.491a2.746,2.746,0,0,0,3.235,1.672l14.02-2.708.028-.006a2.432,2.432,0,0,0,2.075-2.651c-.951-5.381-1.905-10.409-3.115-12.825a2.946,2.946,0,0,0-3.263-1.363c-2.547.55-7.052,1.873-10.672,2.933-1.732.508-3.368.988-4.54,1.311Z" transform="translate(-131.737 -413.745)" fill="#fff"/>
  <path id="Trazado_604890" data-name="Trazado 604890" d="M211.58,646.081c2.9-.8,9.157-2.745,12.18-3.4a2.765,2.765,0,0,1,3.091,1.323c1.024,2.044,1.822,6.37,2.528,10.369A2.373,2.373,0,0,1,227.352,657l-11.2,2.164a2.636,2.636,0,0,1-3.086-1.634l-2.89-9.184a1.854,1.854,0,0,1,1.409-2.269Z" transform="translate(-137.02 -419.095)" fill="#fff" opacity="0.6"/>
  <g id="Grupo_1014635" data-name="Grupo 1014635" transform="translate(102.879 198.651)" opacity="0.6">
    <path id="Trazado_604891" data-name="Trazado 604891" d="M296.145,601.927a3.547,3.547,0,0,0,3.915,1.9l129.253-27.4a2.682,2.682,0,0,0-1.078-5.254l-129.6,25.709a3.545,3.545,0,0,0-2.49,5.046Z" transform="translate(-295.775 -571.121)" fill="#fff"/>
  </g>
  <path id="Trazado_604892" data-name="Trazado 604892" d="M241.792,739.715l-.038.007-14.02,2.708a3.839,3.839,0,0,1-4.489-2.42l-3.615-11.492a2.608,2.608,0,0,1,.212-2.041,3.136,3.136,0,0,1,1.927-1.492c1.163-.321,2.794-.8,4.521-1.305,3.637-1.067,8.164-2.4,10.749-2.954l.056-.012a3.982,3.982,0,0,1,4.418,1.958c1.276,2.547,2.249,7.662,3.214,13.125a3.529,3.529,0,0,1-2.936,3.916ZM222.06,726.045A2.031,2.031,0,0,0,220.8,727a1.517,1.517,0,0,0-.13,1.188l3.615,11.491a2.746,2.746,0,0,0,3.235,1.672l14.021-2.708.027-.006a2.432,2.432,0,0,0,2.075-2.651c-.951-5.381-1.905-10.41-3.115-12.825a2.931,2.931,0,0,0-3.263-1.363c-2.546.55-7.052,1.872-10.671,2.933-1.733.508-3.368.988-4.54,1.311Z" transform="translate(-143.16 -469.971)" fill="#fff"/>
  <path id="Trazado_604893" data-name="Trazado 604893" d="M229.095,732.309c2.9-.8,9.157-2.744,12.18-3.4a2.765,2.765,0,0,1,3.091,1.322c1.024,2.044,1.822,6.37,2.528,10.369a2.373,2.373,0,0,1-2.027,2.629l-11.2,2.164a2.635,2.635,0,0,1-3.086-1.634l-2.889-9.184a1.854,1.854,0,0,1,1.409-2.269Z" transform="translate(-148.443 -475.33)" fill="#fff" opacity="0.6"/>
  <g id="Grupo_1014636" data-name="Grupo 1014636" transform="translate(108.971 228.644)" opacity="0.6">
    <path id="Trazado_604894" data-name="Trazado 604894" d="M313.66,688.155a3.547,3.547,0,0,0,3.915,1.9l129.253-27.4a2.682,2.682,0,0,0-1.078-5.254l-129.6,25.709a3.545,3.545,0,0,0-2.49,5.046Z" transform="translate(-313.29 -657.349)" fill="#fff"/>
  </g>
  <path id="Trazado_604895" data-name="Trazado 604895" d="M259.307,825.942l-.038.007-14.02,2.708a3.836,3.836,0,0,1-4.489-2.42l-3.615-11.491a2.6,2.6,0,0,1,.214-2.042,3.129,3.129,0,0,1,1.927-1.491c1.163-.321,2.794-.8,4.521-1.3,3.637-1.067,8.164-2.4,10.749-2.954l.056-.012a3.982,3.982,0,0,1,4.418,1.958c1.276,2.547,2.249,7.662,3.214,13.125A3.529,3.529,0,0,1,259.307,825.942Zm-19.732-13.671a2.034,2.034,0,0,0-1.255.958,1.517,1.517,0,0,0-.13,1.188l3.615,11.491a2.746,2.746,0,0,0,3.235,1.672l14.022-2.708.028-.006a2.433,2.433,0,0,0,2.075-2.651c-.951-5.381-1.9-10.409-3.115-12.825a2.926,2.926,0,0,0-3.263-1.364c-2.546.55-7.052,1.873-10.672,2.934C242.382,811.468,240.747,811.948,239.575,812.271Z" transform="translate(-154.583 -526.207)" fill="#fff"/>
  <path id="Trazado_604896" data-name="Trazado 604896" d="M246.61,818.537c2.9-.8,9.157-2.744,12.18-3.4a2.765,2.765,0,0,1,3.092,1.323c1.024,2.044,1.822,6.37,2.528,10.369a2.373,2.373,0,0,1-2.028,2.629l-11.2,2.164a2.636,2.636,0,0,1-3.086-1.634l-2.889-9.184a1.854,1.854,0,0,1,1.409-2.269Z" transform="translate(-159.866 -531.566)" fill="#fff" opacity="0.6"/>
  <g id="Grupo_1014637" data-name="Grupo 1014637" transform="translate(115.063 258.636)" opacity="0.6">
    <path id="Trazado_604897" data-name="Trazado 604897" d="M331.175,774.383a3.546,3.546,0,0,0,3.915,1.9l129.253-27.4a2.682,2.682,0,0,0-1.078-5.254l-129.6,25.709a3.546,3.546,0,0,0-2.49,5.046Z" transform="translate(-330.805 -743.577)" fill="#fff"/>
  </g>
  <path id="Trazado_604898" data-name="Trazado 604898" d="M276.821,912.168l-.038.007-14.02,2.708a3.836,3.836,0,0,1-4.489-2.42l-3.615-11.492a2.606,2.606,0,0,1,.214-2.042,3.13,3.13,0,0,1,1.927-1.491c1.163-.321,2.794-.8,4.521-1.3,3.637-1.067,8.164-2.4,10.749-2.954l.055-.011a3.981,3.981,0,0,1,4.418,1.958c1.276,2.547,2.249,7.662,3.214,13.125a3.529,3.529,0,0,1-2.936,3.917ZM257.089,898.5a2.032,2.032,0,0,0-1.255.958,1.516,1.516,0,0,0-.13,1.188l3.615,11.491a2.746,2.746,0,0,0,3.235,1.672l14.022-2.708.028-.005a2.432,2.432,0,0,0,2.074-2.651c-.951-5.381-1.9-10.41-3.115-12.825a2.919,2.919,0,0,0-3.263-1.364c-2.546.55-7.052,1.873-10.671,2.933-1.732.508-3.368.988-4.538,1.311Z" transform="translate(-166.005 -582.44)" fill="#fff"/>
  <path id="Trazado_604899" data-name="Trazado 604899" d="M264.124,904.766c2.9-.8,9.157-2.745,12.18-3.4a2.764,2.764,0,0,1,3.091,1.323c1.024,2.044,1.822,6.37,2.528,10.368a2.374,2.374,0,0,1-2.028,2.629l-11.2,2.164a2.636,2.636,0,0,1-3.085-1.634l-2.89-9.183a1.854,1.854,0,0,1,1.409-2.269Z" transform="translate(-171.288 -587.802)" fill="#fff" opacity="0.6"/>
  <g id="Grupo_1014638" data-name="Grupo 1014638" transform="translate(121.154 288.629)" opacity="0.6">
    <path id="Trazado_604900" data-name="Trazado 604900" d="M348.685,860.612a3.547,3.547,0,0,0,3.915,1.9l129.253-27.4a2.682,2.682,0,0,0-1.078-5.254l-129.6,25.709a3.545,3.545,0,0,0-2.49,5.046Z" transform="translate(-348.315 -829.806)" fill="#fff"/>
  </g>
  <path id="Trazado_604901" data-name="Trazado 604901" d="M103.87,639.774a374.184,374.184,0,0,0,7.918,46.618h2.273a254.383,254.383,0,0,1-7.723-73.1c1.28-29.477,8.5-65.268-4.963-82.364-11.2-14.23-58.747-16.357-74.38-16.67a2.307,2.307,0,0,0-1.857,3.741c5.994,7.542,18.544,25.006,19.637,40.259,1.441,20.1,17.065,35.88,32.588,42.447s23.884,11.577,26.5,39.073Z" transform="translate(-16.065 -335.382)" fill="#91b3fa"/>
  <path id="Trazado_604902" data-name="Trazado 604902" d="M86.819,549.959a74.949,74.949,0,0,1,26.67,12.837A58.654,58.654,0,0,1,124.2,573.23a50.718,50.718,0,0,1,7.467,13.017l.666,1.763c.218.59.381,1.2.572,1.8s.377,1.206.535,1.8l.475,1.786q.959,3.57,1.869,7.154,1.819,7.168,3.41,14.391c2.129,9.628,3.959,19.321,5.194,29.122a.429.429,0,0,1-.847.132l0-.013c-.878-4.824-1.849-9.649-2.911-14.445q-1.561-7.2-3.289-14.369l-1.749-7.159-1.829-7.139q-.913-3.571-1.885-7.125l-.478-1.779c-.16-.594-.35-1.156-.522-1.735s-.334-1.159-.54-1.723l-.629-1.694a50.369,50.369,0,0,0-7.078-12.557,55.7,55.7,0,0,0-4.789-5.443l-.638-.647-.663-.622c-.443-.412-.877-.837-1.33-1.241-.916-.794-1.823-1.6-2.783-2.348a75.1,75.1,0,0,0-12.253-7.919,78.041,78.041,0,0,0-13.522-5.6l-.022-.007a.345.345,0,0,1,.184-.664Z" transform="translate(-56.341 -358.662)" fill="#fff" opacity="0.5"/>
  <path id="Trazado_604903" data-name="Trazado 604903" d="M88.252,834.376c8.132,11.937,7.087,18.617,7.337,24.275.044,1.006.1,2.425.217,4.1h2.221a48.5,48.5,0,0,1-.89-6.9c-.79-15.625-4.316-42.294-17.791-58.245S51.117,780.2,32.525,794.7C17.031,806.784,7.366,812.884,1.7,814.017a2.142,2.142,0,0,0-1.437,3.124c3.636,6.695,13.914,22.073,31.17,20.99,22.013-1.381,48.692-15.691,56.822-3.753Z" transform="translate(0 -511.742)" fill="#91b3fa"/>
  <path id="Trazado_604904" data-name="Trazado 604904" d="M111.4,846.939a44.255,44.255,0,0,1,3.839-3.211c1.331-1.005,2.7-1.962,4.13-2.835a41.389,41.389,0,0,1,9.116-4.29,28.55,28.55,0,0,1,4.987-1.121,21.307,21.307,0,0,1,5.172-.021c.43.07.865.111,1.29.206s.86.182,1.27.3l2.426.752,2.375.923,2.3,1.106a29,29,0,0,1,8.016,6.268,36.035,36.035,0,0,1,5.552,8.443l.553,1.131c.19.374.328.771.493,1.156.313.777.65,1.543.942,2.326l.816,2.369c.29.784.474,1.6.708,2.4a87.091,87.091,0,0,1,2.107,9.735.335.335,0,0,1-.655.136l0-.01c-.775-3.2-1.521-6.41-2.586-9.513-.485-1.567-1.1-3.084-1.668-4.615-.307-.756-.657-1.492-.983-2.238-.173-.369-.318-.751-.512-1.108l-.568-1.078a36.662,36.662,0,0,0-5.5-7.934,28.19,28.19,0,0,0-7.595-5.8l-2.171-1.029-2.249-.86-2.31-.7c-.383-.109-.759-.182-1.14-.274s-.769-.126-1.154-.193a19.38,19.38,0,0,0-4.712-.012A26.972,26.972,0,0,0,129,838.3a45.086,45.086,0,0,0-8.929,3.8c-1.425.793-2.837,1.621-4.208,2.518s-2.717,1.847-4,2.843l-.009.006a.348.348,0,0,1-.454-.527Z" transform="translate(-72.58 -544.769)" fill="#fff" opacity="0.5"/>
  <path id="Trazado_604905" data-name="Trazado 604905" d="M255.044,213.737a22.148,22.148,0,0,1,22.148-22.148H465.539a19.514,19.514,0,0,1,19.488,18.521l13.9,273.067a14.391,14.391,0,0,1-14.11,15.12L268.95,502.22a13.659,13.659,0,0,1-13.906-13.656Z" transform="translate(-166.333 -124.949)" fill="#1c2d55"/>
  <path id="Trazado_604906" data-name="Trazado 604906" d="M299.408,191.526a6.434,6.434,0,0,1,7.3-6.417C332.424,188.6,420.87,199.385,494,193.772a5.949,5.949,0,0,1,6.407,5.611L514.98,473.667a6.844,6.844,0,0,1-6.432,7.2c-30.756,1.819-157.417,8.856-202.594,4.125a5.424,5.424,0,0,1-4.853-5.367Z" transform="translate(-195.266 -120.685)" fill="#91b3fa"/>
  <path id="Trazado_604907" data-name="Trazado 604907" d="M308.115,211.744a6.192,6.192,0,0,1,7.023-6.175c24.752,3.356,109.867,13.738,180.24,8.336a5.726,5.726,0,0,1,6.165,5.4l14.029,263.956a6.59,6.59,0,0,1-6.19,6.929c-29.6,1.753-151.488,8.522-194.965,3.969a5.217,5.217,0,0,1-4.67-5.165l-1.631-277.248Z" transform="translate(-200.944 -134.029)" fill="#fff" opacity="0.6"/>
  <path id="Trazado_604908" data-name="Trazado 604908" d="M373.985,274.432l2.629,56.589a3.6,3.6,0,0,0,3.491,3.432c10.48.3,43.138,1.092,61.578.13a4.017,4.017,0,0,0,3.805-3.884c.351-10.613,1.121-41.5-1.3-54.414a4.533,4.533,0,0,0-4.3-3.688l-61.947-2.167a3.825,3.825,0,0,0-3.954,4Z" transform="translate(-243.9 -176.366)" fill="#fff" opacity="0.78"/>
  <path id="Trazado_604909" data-name="Trazado 604909" d="M465.483,320.066a12.165,12.165,0,1,0-14.635,9.045A12.165,12.165,0,0,0,465.483,320.066Z" transform="translate(-287.918 -198.98)" fill="#7e19b8"/>
  <path id="Trazado_604910" data-name="Trazado 604910" d="M417.461,410.888h38.756a3,3,0,0,0,2.521-4.626c-3.292-5.151-10.18-12.718-22.108-12.377-11.5.329-18.31,7.165-21.736,12.067A3.136,3.136,0,0,0,417.461,410.888Z" transform="translate(-270.209 -256.874)" fill="#7e19b8"/>
  <g id="Grupo_1014639" data-name="Grupo 1014639" transform="translate(215.436 97.946)" opacity="0.6">
    <path id="Trazado_604911" data-name="Trazado 604911" d="M689.008,286.64a2.006,2.006,0,0,0,2.152-1.9A2.2,2.2,0,0,0,688.9,282.8l-67.929-1.21a1.434,1.434,0,0,0-1.473,2.042l.325.923a3.347,3.347,0,0,0,2.94,2.082h66.248Z" transform="translate(-619.377 -281.593)" fill="#fff"/>
  </g>
  <g id="Grupo_1014640" data-name="Grupo 1014640" transform="translate(215.435 108.495)" opacity="0.6">
    <path id="Trazado_604912" data-name="Trazado 604912" d="M620.965,311.921a1.434,1.434,0,0,0-1.473,2.042l.325.923a3.346,3.346,0,0,0,2.939,2.082H689a2.006,2.006,0,0,0,2.152-1.9,2.2,2.2,0,0,0-2.262-1.937l-67.929-1.21Z" transform="translate(-619.373 -311.921)" fill="#fff"/>
  </g>
  <g id="Grupo_1014641" data-name="Grupo 1014641" transform="translate(215.435 119.198)" opacity="0.6">
    <path id="Trazado_604913" data-name="Trazado 604913" d="M620.965,342.693a1.434,1.434,0,0,0-1.473,2.042l.325.923a3.346,3.346,0,0,0,2.939,2.082H689a2.006,2.006,0,0,0,2.152-1.9,2.2,2.2,0,0,0-2.262-1.937l-67.929-1.21Z" transform="translate(-619.373 -342.693)" fill="#fff"/>
  </g>
  <g id="Grupo_1014642" data-name="Grupo 1014642" transform="translate(131.05 170.793)" opacity="0.6">
    <path id="Trazado_604914" data-name="Trazado 604914" d="M537.381,496.1a1.919,1.919,0,0,0,2.082-1.9,2.269,2.269,0,0,0-2.332-1.915l-159.14-1.254c-1.214-.01-1.589.759-.832,1.709l1.3,1.633a5.2,5.2,0,0,0,3.582,1.726Z" transform="translate(-376.767 -491.028)" fill="#fff"/>
  </g>
  <g id="Grupo_1014643" data-name="Grupo 1014643" transform="translate(131.05 181.341)" opacity="0.6">
    <path id="Trazado_604915" data-name="Trazado 604915" d="M377.991,521.355c-1.214-.01-1.589.759-.832,1.709l1.3,1.633a5.2,5.2,0,0,0,3.582,1.726h155.34a1.919,1.919,0,0,0,2.082-1.9,2.269,2.269,0,0,0-2.332-1.915Z" transform="translate(-376.767 -521.355)" fill="#fff"/>
  </g>
  <path id="Trazado_604916" data-name="Trazado 604916" d="M373.818,571.086c3.826-.293,10.992-.429,14.936-.484a3.575,3.575,0,0,1,3.529,2.733,58.323,58.323,0,0,1,1.68,14.442,3.175,3.175,0,0,1-3.2,3.107l-14.555-.156a3.5,3.5,0,0,1-3.443-3.17l-1.28-13.693a2.548,2.548,0,0,1,2.336-2.78Z" transform="translate(-242.263 -372.13)" fill="#7e19b8"/>
  <g id="Grupo_1014644" data-name="Grupo 1014644" transform="translate(156.571 204.577)" opacity="0.6">
    <path id="Trazado_604917" data-name="Trazado 604917" d="M452.042,588.158a1.756,1.756,0,0,0-1.877,2.091l.353,2.347a2.652,2.652,0,0,0,2.534,2.183H488.4a2.181,2.181,0,0,0,2.18-2.206l-.007-.6a2.361,2.361,0,0,0-2.233-2.3l-36.3-1.517Z" transform="translate(-450.141 -588.156)" fill="#fff"/>
  </g>
  <path id="Trazado_604918" data-name="Trazado 604918" d="M601.792,571.086c3.826-.293,10.992-.429,14.936-.484a3.575,3.575,0,0,1,3.529,2.733,58.286,58.286,0,0,1,1.68,14.442,3.174,3.174,0,0,1-3.2,3.107l-14.556-.156a3.5,3.5,0,0,1-3.443-3.17l-1.28-13.693a2.548,2.548,0,0,1,2.336-2.78Z" transform="translate(-390.942 -372.13)" fill="#7e19b8"/>
  <g id="Grupo_1014645" data-name="Grupo 1014645" transform="translate(235.867 204.577)" opacity="0.6">
    <path id="Trazado_604919" data-name="Trazado 604919" d="M680.016,588.158a1.756,1.756,0,0,0-1.877,2.091l.353,2.347a2.652,2.652,0,0,0,2.534,2.183h35.35a2.181,2.181,0,0,0,2.18-2.206l-.007-.6a2.361,2.361,0,0,0-2.233-2.3l-36.3-1.517Z" transform="translate(-678.115 -588.156)" fill="#fff"/>
  </g>
  <path id="Trazado_604920" data-name="Trazado 604920" d="M402.864,693.7h-.037l-13.431-.129a3.611,3.611,0,0,1-3.686-3.071l-1.181-11.27a2.453,2.453,0,0,1,.578-1.842,2.949,2.949,0,0,1,2.056-1.014c1.131-.078,2.726-.214,4.413-.357,3.552-.3,7.974-.679,10.461-.709a3.754,3.754,0,0,1,3.761,2.63c.7,2.587.638,7.484.5,12.7A3.319,3.319,0,0,1,402.864,693.7Zm-15.63-16.3a1.915,1.915,0,0,0-1.336.648,1.429,1.429,0,0,0-.342,1.069l1.181,11.27a2.585,2.585,0,0,0,2.669,2.148l13.431.129h.026a2.288,2.288,0,0,0,2.408-2.056c.132-5.138.193-9.952-.47-12.405a2.773,2.773,0,0,0-2.752-1.868c-2.45.031-6.852.405-10.386.707C389.972,677.193,388.374,677.329,387.234,677.408Z" transform="translate(-250.772 -440.42)" fill="#fff"/>
  <path id="Trazado_604921" data-name="Trazado 604921" d="M393.239,683.086c2.822-.193,8.954-.815,11.862-.852a2.6,2.6,0,0,1,2.6,1.8c.562,2.076.487,6.212.389,10.031a2.234,2.234,0,0,1-2.361,2.044L395,696a2.48,2.48,0,0,1-2.538-2.085l-.944-9a1.742,1.742,0,0,1,1.724-1.828Z" transform="translate(-255.331 -444.935)" fill="#fff" opacity="0.6"/>
  <g id="Grupo_1014646" data-name="Grupo 1014646" transform="translate(163.778 241.616)" opacity="0.6">
    <path id="Trazado_604922" data-name="Trazado 604922" d="M470.97,698.828a3.335,3.335,0,0,0,3.254,2.484l124.271-1.06a2.522,2.522,0,0,0-.009-5.043l-124.276-.566a3.334,3.334,0,0,0-3.239,4.186Z" transform="translate(-470.859 -694.644)" fill="#fff"/>
  </g>
  <path id="Trazado_604923" data-name="Trazado 604923" d="M396.136,671.78a2.062,2.062,0,0,1,2.844.774l2.65,4.749a.662.662,0,0,0,1.182-.052l6.571-14.629a.734.734,0,0,1,1.4.318,28.878,28.878,0,0,1-8.4,20.1s-3.94-1.532-7.113-8.5a2.163,2.163,0,0,1,.869-2.761Z" transform="translate(-257.656 -431.861)" fill="#7e19b8"/>
  <path id="Trazado_604924" data-name="Trazado 604924" d="M402.864,776.466h-.037l-13.431-.129a3.611,3.611,0,0,1-3.686-3.071L384.53,762a2.453,2.453,0,0,1,.578-1.842,2.948,2.948,0,0,1,2.056-1.014c1.131-.078,2.726-.214,4.413-.357,3.552-.3,7.974-.679,10.461-.71h.054A3.747,3.747,0,0,1,405.8,760.7c.7,2.586.638,7.484.5,12.7A3.319,3.319,0,0,1,402.864,776.466Zm-15.63-16.3a1.914,1.914,0,0,0-1.336.648,1.429,1.429,0,0,0-.342,1.069l1.181,11.27a2.585,2.585,0,0,0,2.669,2.148l13.431.129h.026a2.288,2.288,0,0,0,2.408-2.056c.132-5.138.193-9.952-.47-12.405a2.756,2.756,0,0,0-2.752-1.868c-2.45.031-6.85.405-10.386.707C389.972,759.955,388.374,760.091,387.234,760.17Z" transform="translate(-250.772 -494.395)" fill="#fff"/>
  <path id="Trazado_604925" data-name="Trazado 604925" d="M393.239,765.848c2.822-.193,8.954-.815,11.862-.852a2.6,2.6,0,0,1,2.6,1.8c.562,2.076.487,6.212.389,10.031a2.234,2.234,0,0,1-2.361,2.044l-10.733-.1a2.48,2.48,0,0,1-2.538-2.085l-.944-9a1.742,1.742,0,0,1,1.724-1.828Z" transform="translate(-255.331 -498.91)" fill="#fff" opacity="0.6"/>
  <g id="Grupo_1014647" data-name="Grupo 1014647" transform="translate(163.778 270.403)" opacity="0.6">
    <path id="Trazado_604926" data-name="Trazado 604926" d="M470.97,781.589a3.335,3.335,0,0,0,3.254,2.484l124.271-1.059a2.522,2.522,0,0,0-.009-5.043L474.211,777.4a3.335,3.335,0,0,0-3.239,4.186Z" transform="translate(-470.859 -777.405)" fill="#fff"/>
  </g>
  <path id="Trazado_604927" data-name="Trazado 604927" d="M396.136,754.538a2.062,2.062,0,0,1,2.844.774l2.65,4.749a.662.662,0,0,0,1.182-.051l6.571-14.629a.734.734,0,0,1,1.4.317,28.879,28.879,0,0,1-8.4,20.1s-3.94-1.532-7.113-8.5a2.164,2.164,0,0,1,.869-2.761Z" transform="translate(-257.656 -485.834)" fill="#7e19b8"/>
  <path id="Trazado_604928" data-name="Trazado 604928" d="M402.864,859.224h-.037l-13.431-.129a3.61,3.61,0,0,1-3.686-3.071l-1.181-11.27a2.453,2.453,0,0,1,.578-1.842,2.949,2.949,0,0,1,2.056-1.014c1.131-.078,2.726-.214,4.413-.357,3.552-.3,7.974-.679,10.461-.71h.054a3.747,3.747,0,0,1,3.707,2.63c.7,2.587.638,7.484.5,12.7A3.319,3.319,0,0,1,402.864,859.224Zm-15.63-16.3a1.916,1.916,0,0,0-1.336.648,1.432,1.432,0,0,0-.342,1.071l1.181,11.27a2.583,2.583,0,0,0,2.669,2.146l13.431.129h.026a2.288,2.288,0,0,0,2.408-2.056c.132-5.138.193-9.952-.47-12.405a2.75,2.75,0,0,0-2.752-1.868c-2.45.031-6.85.405-10.386.707C389.972,842.713,388.374,842.849,387.234,842.928Z" transform="translate(-250.772 -548.368)" fill="#fff"/>
  <path id="Trazado_604929" data-name="Trazado 604929" d="M393.239,848.606c2.822-.193,8.954-.815,11.862-.852a2.6,2.6,0,0,1,2.6,1.8c.562,2.076.487,6.212.389,10.031a2.234,2.234,0,0,1-2.361,2.044l-10.733-.1a2.48,2.48,0,0,1-2.538-2.085l-.944-9a1.742,1.742,0,0,1,1.724-1.827Z" transform="translate(-255.331 -552.882)" fill="#fff" opacity="0.6"/>
  <g id="Grupo_1014648" data-name="Grupo 1014648" transform="translate(163.778 299.19)" opacity="0.6">
    <path id="Trazado_604930" data-name="Trazado 604930" d="M470.97,864.352a3.335,3.335,0,0,0,3.254,2.484l124.271-1.059a2.522,2.522,0,0,0-.009-5.043l-124.276-.566a3.334,3.334,0,0,0-3.239,4.186Z" transform="translate(-470.859 -860.168)" fill="#fff"/>
  </g>
  <path id="Trazado_604931" data-name="Trazado 604931" d="M396.136,837.3a2.062,2.062,0,0,1,2.844.774l2.65,4.749a.662.662,0,0,0,1.182-.051l6.571-14.629a.734.734,0,0,1,1.4.318,28.878,28.878,0,0,1-8.4,20.1s-3.94-1.532-7.113-8.5a2.163,2.163,0,0,1,.869-2.761Z" transform="translate(-257.656 -539.809)" fill="#7e19b8"/>
  <path id="Trazado_604932" data-name="Trazado 604932" d="M402.864,941.986h-.037l-13.431-.129a3.61,3.61,0,0,1-3.686-3.071l-1.181-11.27a2.453,2.453,0,0,1,.578-1.842,2.948,2.948,0,0,1,2.056-1.014c1.131-.078,2.726-.214,4.413-.357,3.552-.3,7.974-.679,10.461-.709h.054a3.747,3.747,0,0,1,3.707,2.631c.7,2.586.638,7.484.5,12.7A3.319,3.319,0,0,1,402.864,941.986Zm-15.63-16.3a1.914,1.914,0,0,0-1.336.648,1.431,1.431,0,0,0-.342,1.071l1.181,11.27a2.583,2.583,0,0,0,2.669,2.146l13.431.129h.026a2.288,2.288,0,0,0,2.408-2.056c.132-5.138.193-9.952-.47-12.4a2.747,2.747,0,0,0-2.752-1.869c-2.45.031-6.85.405-10.386.707C389.972,925.475,388.374,925.611,387.234,925.69Z" transform="translate(-250.772 -602.343)" fill="#fff"/>
  <path id="Trazado_604933" data-name="Trazado 604933" d="M393.239,931.368c2.822-.193,8.954-.815,11.862-.851a2.6,2.6,0,0,1,2.6,1.8c.562,2.076.487,6.212.389,10.031a2.234,2.234,0,0,1-2.361,2.044l-10.733-.1a2.48,2.48,0,0,1-2.538-2.085l-.944-9.005a1.742,1.742,0,0,1,1.724-1.828Z" transform="translate(-255.331 -606.858)" fill="#fff" opacity="0.6"/>
  <g id="Grupo_1014649" data-name="Grupo 1014649" transform="translate(163.778 327.977)" opacity="0.6">
    <path id="Trazado_604934" data-name="Trazado 604934" d="M470.97,947.114a3.334,3.334,0,0,0,3.254,2.484l124.271-1.059a2.522,2.522,0,0,0-.009-5.043l-124.276-.566a3.334,3.334,0,0,0-3.239,4.186Z" transform="translate(-470.859 -942.93)" fill="#fff"/>
  </g>
  <path id="Trazado_604935" data-name="Trazado 604935" d="M396.136,920.062a2.062,2.062,0,0,1,2.844.774l2.65,4.749a.662.662,0,0,0,1.182-.051l6.571-14.629a.734.734,0,0,1,1.4.318,28.879,28.879,0,0,1-8.4,20.1s-3.94-1.532-7.113-8.5a2.164,2.164,0,0,1,.869-2.761Z" transform="translate(-257.656 -593.784)" fill="#7e19b8"/>
  <path id="Trazado_604936" data-name="Trazado 604936" d="M580.266,76.814c-6.8-4.733-12.72-4.639-16.883-3.41a8.306,8.306,0,0,0-5.9,8.733l1.8,19.6,21.371,1.9s12.96-17.539-.383-26.821Zm-9.4,15.814A5.328,5.328,0,1,1,576.2,87.3,5.329,5.329,0,0,1,570.867,92.628Z" transform="translate(-363.552 -47.405)" fill="#304c8e"/>
  <path id="Trazado_604937" data-name="Trazado 604937" d="M566.367,98.872a.516.516,0,0,1-.513-.468l-.287-3.122a.516.516,0,1,1,1.027-.094l.286,3.122a.515.515,0,0,1-.467.56.448.448,0,0,1-.048,0Zm-.56-6.117a.516.516,0,0,1-.513-.468l-.218-2.37A7.931,7.931,0,0,1,570.7,81.6a15.963,15.963,0,0,1,7.81-.32.515.515,0,0,1-.208,1.009,14.966,14.966,0,0,0-7.311.3,6.9,6.9,0,0,0-4.887,7.236l.216,2.37a.515.515,0,0,1-.466.56h-.044Z" transform="translate(-368.505 -52.787)" fill="#fff"/>
  <path id="Trazado_604938" data-name="Trazado 604938" d="M478.859,162.87v-9.855a6.013,6.013,0,0,1,6.219-6.01l67.948,2.328a5.85,5.85,0,0,1,5.638,5.495l.568,9.469-80.374-1.428Z" transform="translate(-312.299 -95.87)" fill="#304c8e"/>
  <path id="Trazado_604939" data-name="Trazado 604939" d="M545.259,155.756h-2.922a.515.515,0,0,1,0-1.03h2.922a.515.515,0,1,1,0,1.03Z" transform="translate(-353.362 -100.908)" fill="#fff"/>
  <path id="Trazado_604940" data-name="Trazado 604940" d="M488.468,164.814a.515.515,0,0,1-.515-.515v-3.987a5.592,5.592,0,0,1,5.586-5.586h10.743a.515.515,0,0,1,0,1.03H493.539a4.56,4.56,0,0,0-4.555,4.554V164.3a.515.515,0,0,1-.515.515Z" transform="translate(-318.23 -100.908)" fill="#fff"/>
  <path id="Trazado_604941" data-name="Trazado 604941" d="M701.666,271.265l-16-13.043-16,13.043a274.137,274.137,0,0,0,1.2-40.809q-.322-7.1-.973-13.737a2.026,2.026,0,0,1,2.018-2.22h27.833a2.025,2.025,0,0,1,2.022,1.917q.533,10.194.663,21.082C702.558,249.334,702.263,260.608,701.666,271.265Z" transform="translate(-436.744 -139.891)" fill="#7e19b8"/>
  <path id="Trazado_604942" data-name="Trazado 604942" d="M398.759,188.345a6.4,6.4,0,0,1,6.395-6.1l118.82,0a8.781,8.781,0,0,1,8.654,7.285l.1.581a7.541,7.541,0,0,1-7.432,8.828h-121.9a4.9,4.9,0,0,1-4.9-5.139l.262-5.456Z" transform="translate(-259.885 -118.857)" fill="#304c8e"/>
  <path id="Trazado_604943" data-name="Trazado 604943" d="M965.12,1124.948c-6.224.285-12.25.108-16.272-.1,3.662-2.609,12.1-8.278,19.162-10.536l4.845-.292s1.645,2.5,2.23,8.216C974.282,1123.237,971.934,1124.636,965.12,1124.948Z" transform="translate(-618.813 -726.534)" fill="#03003d"/>
  <path id="Trazado_604944" data-name="Trazado 604944" d="M948.035,1140.287a.456.456,0,0,0,.05-.035c4.022.209,10.048.386,16.272.1,6.814-.313,9.162-1.711,9.965-2.713.024.264.052.525.077.8a2.269,2.269,0,0,1-2.083,2.449c-5.1.386-17.737,1.259-23.832.939a.852.852,0,0,1-.446-1.544Z" transform="translate(-618.05 -741.938)" fill="#03003e"/>
  <path id="Trazado_604945" data-name="Trazado 604945" d="M1123.569,1123.814c.456-2.922,1.186-7.148,1.753-8.226.887-1.694,3.917,0,3.917,0a8.024,8.024,0,0,1,3.11,2.647c.626,1.054,2.355,4.056,3.523,6.094a1.358,1.358,0,0,1,.184.727l-12.143.424a2.4,2.4,0,0,1-.341-1.666Z" transform="translate(-732.743 -727.065)" fill="#03003d"/>
  <path id="Trazado_604946" data-name="Trazado 604946" d="M1136.753,1144.22a1.383,1.383,0,0,1-1.346,1.343l-8.651.24a2.436,2.436,0,0,1-2.146-1.158Z" transform="translate(-733.44 -746.229)" fill="#03003e"/>
  <path id="Trazado_604947" data-name="Trazado 604947" d="M1120.95,1086.235c.108.351,1.677,7.955,2.362,11.294a1.9,1.9,0,0,0,1.962,1.523c.515-.024,1.113-.073,1.739-.153a2.3,2.3,0,0,0,2-2.195c.111-2.922.167-8.539-.908-10.713C1126.626,1082.99,1120.95,1086.235,1120.95,1086.235Z" transform="translate(-731.053 -707.424)" fill="#ff9591"/>
  <path id="Trazado_604948" data-name="Trazado 604948" d="M1007.925,1090.8c-.671-.021.271,3.475-.748,6.911a1.765,1.765,0,0,1-1.618,1.395c-.525.007-1.144,0-1.774-.056a1.949,1.949,0,0,1-1.8-1.756l-.828-8.915,6.765,2.417Z" transform="translate(-652.929 -709.812)" fill="#ff9591"/>
  <path id="Trazado_604949" data-name="Trazado 604949" d="M966.489,814.8c.3,1.463,10.9,63.309,11.548,95.316a1.084,1.084,0,0,0,.936,1.057,21.349,21.349,0,0,0,6.511-.042.769.769,0,0,0,.633-.7c.369-5.965,3.35-56.39-.3-80.128,0,0,30.15,63.453,34.72,80.949a.915.915,0,0,0,.939.689,22.639,22.639,0,0,0,6.108-1.085,1.6,1.6,0,0,0,1.009-1.875c-2.553-10.47-20.449-82.614-32.6-98.508L966.489,814.8Z" transform="translate(-630.318 -528.567)" fill="#1c2d55"/>
  <path id="Trazado_604950" data-name="Trazado 604950" d="M921.483,590.083c9.02-1.356,26.723-3.3,38.271.089l-1.252,35.69-41.837-4.511-3.549-5.045s1.645-25.214,8.367-26.225Z" transform="translate(-595.509 -383.664)" fill="#304c8e"/>
  <path id="Trazado_604951" data-name="Trazado 604951" d="M971.37,538.521s.835,14.2.678,18.611c0,0-11.621,1.9-14.387-.086l2.186-16.828Z" transform="translate(-624.56 -351.209)" fill="#ff9591"/>
  <path id="Trazado_604952" data-name="Trazado 604952" d="M953.113,497.648s-4.679,8.214-5.418,12.71-2.029,7.326,3.1,8.8,9.818-.657,12.69-4.906c0,0,4.486-6.54,3.954-9.473S953.113,497.648,953.113,497.648Z" transform="translate(-617.6 -324.553)" fill="#febab8"/>
  <path id="Trazado_604953" data-name="Trazado 604953" d="M965.124,492.872l-.661-.072s3.325-5.295,1.037-6.534-11.561-4.193-13.245-7.778a6.292,6.292,0,0,1,3.344-8.345.355.355,0,0,1,.43.214l.174.436a.357.357,0,0,0,.663,0,.355.355,0,0,1,.646-.029c.518,1.074,2.038,2.893,6.494,4.221,6.324,1.886,10.31,4.957,9.935,9.428a.357.357,0,0,0,.518.351c.508-.238,1.287-.292,2.212.673,1.61,1.681.469,5.467-3.757,8.228a.355.355,0,0,0-.045.571c.657.534,1.59,1.738-1.287,2.9-2.943,1.188-4.573.849-5.177.622a.359.359,0,0,1-.23-.4l.67-3.925a.358.358,0,0,0-.315-.416l-1.409-.152Z" transform="translate(-620.675 -306.605)" fill="#1c2d55"/>
  <path id="Trazado_604954" data-name="Trazado 604954" d="M989.564,530.5s2.023-5.35,4.325-3.542-1.944,6.031-3.951,6.022l-.375-2.481Z" transform="translate(-645.367 -343.426)" fill="#febab8"/>
  <path id="Trazado_604955" data-name="Trazado 604955" d="M845.5,659.652l1.109-4.361a4.172,4.172,0,0,1,4.876-3.058l104.482,21.317a4.375,4.375,0,0,1,3.405,5.191L953,708.935,845.5,659.653Z" transform="translate(-551.409 -425.313)" fill="#7e19b8"/>
  <path id="Trazado_604956" data-name="Trazado 604956" d="M817.016,716.831l7.858-56.479a2.021,2.021,0,0,1,2.439-1.694l107.312,23.83a4.227,4.227,0,0,1,3.2,5.072l-9.009,39.04Z" transform="translate(-532.836 -429.527)" fill="#fff"/>
  <path id="Trazado_604957" data-name="Trazado 604957" d="M825.16,720.373l3.01-50.412a2.122,2.122,0,0,1,2.559-1.95L939.17,690.957a2.933,2.933,0,0,1,2.289,3.331L935.685,730.7l-110.526-10.33Z" transform="translate(-538.146 -435.628)" fill="#fff"/>
  <path id="Trazado_604958" data-name="Trazado 604958" d="M802.5,742.705l6.827-54.6a4.757,4.757,0,0,1,5.6-4.084l111.194,20.988a4.155,4.155,0,0,1,3.315,4.853l-9.391,49.758a4.5,4.5,0,0,1-5.016,3.622l-107.795-14.4A5.506,5.506,0,0,1,802.5,742.7Z" transform="translate(-523.34 -446.044)" fill="#7e19b8"/>
  <path id="Trazado_604959" data-name="Trazado 604959" d="M888.443,687.145a4.269,4.269,0,0,1-4.986,3.4l-24.793-4.679a4.269,4.269,0,0,1,1.583-8.389l24.793,4.679A4.269,4.269,0,0,1,888.443,687.145Z" transform="translate(-557.729 -441.786)" fill="#7e19b8"/>
  <path id="Trazado_604960" data-name="Trazado 604960" d="M1013.65,609.273l11.67-15.562s18.751,19.919,22.348,45.2l-11.7,5.7C1032.339,636.1,1025.657,624.57,1013.65,609.273Z" transform="translate(-661.075 -387.202)" fill="#304c8e"/>
  <path id="Trazado_604961" data-name="Trazado 604961" d="M1057.693,764.13a67.418,67.418,0,0,1,5.395-8.089,5.636,5.636,0,0,0-3.5-.475c-2.3.282-4.108-.84-4.038-2.094l10.984-3.369c.494-1.031,2.668-6.882-3.238-20.731l11.7-5.7a52.7,52.7,0,0,1-4.108,29.887s-3.635,11.281-7.805,13.785c-10.891,6.534-5.917-2.32-5.388-3.208Z" transform="translate(-688.397 -471.956)" fill="#ff9591"/>
  <path id="Trazado_604962" data-name="Trazado 604962" d="M252.7,417.775l-2.3,2.919-.009.01a.491.491,0,1,1-.769-.609l.007-.009,2.391-2.884a.446.446,0,0,1,.694.56l-.009.01Z" transform="translate(-162.722 -271.983)" fill="#fff"/>
  <path id="Trazado_604963" data-name="Trazado 604963" d="M226.578,447.916l-3.906,6.233-.019.029a.675.675,0,0,1-1.144-.717l.007-.012,4.063-6.212a.6.6,0,0,1,1.017.651Z" transform="translate(-144.394 -291.498)" fill="#fff"/>
  <path id="Trazado_604964" data-name="Trazado 604964" d="M203.139,489.354,200.005,496l-.019.039a.825.825,0,1,1-1.492-.7l.006-.013,3.288-6.665a.759.759,0,0,1,1.368.658l-.018.037Z" transform="translate(-129.401 -318.412)" fill="#fff"/>
  <path id="Trazado_604965" data-name="Trazado 604965" d="M185.092,533.452l-2.275,6.976-.017.053a.975.975,0,1,1-1.854-.6.05.05,0,0,1,.006-.016l2.433-7.034a.909.909,0,0,1,1.723.578l-.016.05Z" transform="translate(-117.976 -347.096)" fill="#fff"/>
  <path id="Trazado_604966" data-name="Trazado 604966" d="M173.084,579.634l-1.356,7.2-.012.063a1.084,1.084,0,1,1-2.131-.4v-.012l1.462-7.308a1.045,1.045,0,0,1,2.051.4l-.012.062Z" transform="translate(-110.586 -377.175)" fill="#fff"/>
  <path id="Trazado_604967" data-name="Trazado 604967" d="M167.5,627.279l-.358,7.31,0,.072a1.177,1.177,0,0,1-2.351-.115v-.013l.448-7.446a1.137,1.137,0,0,1,2.271.123l0,.069Z" transform="translate(-107.469 -408.271)" fill="#fff"/>
  <path id="Trazado_604968" data-name="Trazado 604968" d="M167.492,675.466l.648,7.286.007.076a1.269,1.269,0,1,1-2.528.225v-.013l-.582-7.443a1.227,1.227,0,0,1,2.446-.2l.007.075Z" transform="translate(-107.63 -439.743)" fill="#fff"/>
  <path id="Trazado_604969" data-name="Trazado 604969" d="M173.285,723.275l1.637,7.125.017.079a1.361,1.361,0,0,1-2.653.609l0-.015-1.595-7.3a1.32,1.32,0,0,1,2.575-.578l.017.077Z" transform="translate(-111.299 -470.982)" fill="#fff"/>
  <path id="Trazado_604970" data-name="Trazado 604970" d="M185.548,769.814l2.555,6.847.029.078a1.43,1.43,0,0,1-2.679,1l0-.007-2.577-7.014a1.411,1.411,0,0,1,2.65-.973l.026.07Z" transform="translate(-119.208 -501.403)" fill="#fff"/>
  <path id="Trazado_604971" data-name="Trazado 604971" d="M203.947,814.431l3.415,6.462.038.072a1.46,1.46,0,0,1-2.582,1.365l0,0-3.466-6.619a1.447,1.447,0,0,1,2.563-1.343Z" transform="translate(-131.207 -530.6)" fill="#fff"/>
  <path id="Trazado_604972" data-name="Trazado 604972" d="M227.927,856.326l4.2,5.983.047.067a1.491,1.491,0,0,1-2.44,1.713l0,0-4.271-6.13a1.478,1.478,0,0,1,2.424-1.69l.044.062Z" transform="translate(-146.866 -558.02)" fill="#fff"/>
  <path id="Trazado_604973" data-name="Trazado 604973" d="M256.969,894.875l4.913,5.408.057.063a1.52,1.52,0,0,1-2.25,2.045l0,0-5.007-5.549a1.507,1.507,0,0,1,2.239-2.019l.053.059Z" transform="translate(-165.841 -583.251)" fill="#fff"/>
  <path id="Trazado_604974" data-name="Trazado 604974" d="M290.638,929.437l5.571,4.716.072.06a1.551,1.551,0,1,1-2,2.367l0,0-5.694-4.855a1.538,1.538,0,0,1,2-2.341Z" transform="translate(-187.85 -605.878)" fill="#fff"/>
  <path id="Trazado_604975" data-name="Trazado 604975" d="M328.608,959.143l3.088,1.925,1.544.963c.518.316,1.021.655,1.552.948a1.582,1.582,0,0,1-1.529,2.77l-.006,0-.042-.023c-.547-.3-1.065-.655-1.6-.983l-1.588-1-3.173-2a1.568,1.568,0,0,1,1.669-2.655l.081.05Z" transform="translate(-212.689 -625.335)" fill="#fff"/>
  <path id="Trazado_604976" data-name="Trazado 604976" d="M370.733,982.693q3.307,1.512,6.717,2.8a1.591,1.591,0,0,1-1.118,2.979q-3.509-1.314-6.927-2.868a1.6,1.6,0,1,1,1.328-2.908Z" transform="translate(-240.306 -640.791)" fill="#fff"/>
  <path id="Trazado_604977" data-name="Trazado 604977" d="M416,999.274l7.074,1.754.1.024a1.569,1.569,0,0,1-.751,3.047l-7.273-1.784a1.579,1.579,0,1,1,.752-3.066h0Z" transform="translate(-269.965 -651.653)" fill="#fff"/>
  <path id="Trazado_604978" data-name="Trazado 604978" d="M463.362,1009.045l7.26.772.088.01a1.546,1.546,0,0,1-.322,3.075l-7.438-.769a1.558,1.558,0,0,1,.319-3.1h.006l.089.01Z" transform="translate(-301.011 -658.06)" fill="#fff"/>
  <path id="Trazado_604979" data-name="Trazado 604979" d="M511.677,1012.278l7.311-.118h.076a1.48,1.48,0,0,1,.06,2.96l-7.464.177a1.508,1.508,0,1,1-.072-3.016h.089Z" transform="translate(-332.682 -660.103)" fill="#fff"/>
  <path id="Trazado_604980" data-name="Trazado 604980" d="M560.111,1008.367l7.262-.943.066-.007a1.416,1.416,0,0,1,.376,2.807l-7.387,1.019a1.447,1.447,0,0,1-.395-2.866h.012l.067-.01Z" transform="translate(-364.424 -657.003)" fill="#fff"/>
  <path id="Trazado_604981" data-name="Trazado 604981" d="M608.068,999.454l7.14-1.663.054-.013a1.293,1.293,0,0,1,.606,2.514l-7.226,1.795a1.348,1.348,0,0,1-.65-2.616s.009,0,.012,0Z" transform="translate(-395.85 -650.702)" fill="#fff"/>
  <path id="Trazado_604982" data-name="Trazado 604982" d="M655.083,985.91l6.957-2.344.046-.015a1.169,1.169,0,0,1,.762,2.209l-7.013,2.478a1.223,1.223,0,1,1-.815-2.307.032.032,0,0,0,.01,0l.054-.017Z" transform="translate(-426.654 -641.405)" fill="#fff"/>
  <path id="Trazado_604983" data-name="Trazado 604983" d="M700.736,968.128l6.726-2.963.036-.016a1.044,1.044,0,0,1,.856,1.9l-6.755,3.1a1.1,1.1,0,1,1-.916-2s.006,0,.009,0l.044-.019Z" transform="translate(-456.548 -629.386)" fill="#fff"/>
  <path id="Trazado_604984" data-name="Trazado 604984" d="M744.805,946.641l6.472-3.5.028-.015a.854.854,0,0,1,.83,1.494l-6.443,3.686a.944.944,0,1,1-.936-1.639l.016-.009.035-.019Z" transform="translate(-485.399 -615.016)" fill="#fff"/>
  <path id="Trazado_604985" data-name="Trazado 604985" d="M787.115,921.7l6.174-4.017.019-.012a.651.651,0,0,1,.724,1.083l-6.115,4.193a.74.74,0,1,1-.838-1.22l.012-.007.025-.016Z" transform="translate(-513.102 -598.409)" fill="#fff"/>
  <path id="Trazado_604986" data-name="Trazado 604986" d="M827.487,897.8l2.983-2.234.006,0a.446.446,0,0,1,.546.705l-2.923,2.339a.507.507,0,1,1-.634-.792l.012-.009.009-.006Z" transform="translate(-539.526 -584.004)" fill="#fff"/>
</svg>
