<svg xmlns="http://www.w3.org/2000/svg" width="400" height="294.271" viewBox="0 0 400 294.271">
  <g id="Grupo_1014988" data-name="Grupo 1014988" transform="translate(-1010.021 -797.743)">
    <g id="Image_Place_Holder" data-name="Image Place Holder" transform="translate(1010.021 821.245)" opacity="0.1">
      <rect id="Image_Place_Holder-2" data-name="Image Place Holder" width="400" height="270.769" rx="10" fill="#304c8e"/>
    </g>
    <g id="presupuesto_2_" data-name="presupuesto (2)" transform="translate(1075.485 797.743)">
      <path id="Trazado_609223" data-name="Trazado 609223" d="M250.985,43.567V195.417c0,.3,0,.606-.02.909a19.605,19.605,0,0,1-19.586,18.691H121.162a19.6,19.6,0,0,1-19.606-19.6V19.606A19.576,19.576,0,0,1,121.162,0h87.549a19.543,19.543,0,0,1,8.514,1.951c5.3,2.549,6.788,5.771,16.306,15.5,10.95,11.89,13.565,13.108,15.8,18.257A19.39,19.39,0,0,1,250.985,43.567Z" transform="translate(-51.769 0)" fill="#ffc477"/>
      <path id="Trazado_609224" data-name="Trazado 609224" d="M266.934,43.567V195.417c0,.3,0,.606-.02.909a19.68,19.68,0,0,1-4.427.5H152.27a19.6,19.6,0,0,1-19.606-19.6V1.415c0-.308,0-.612.02-.915a19.714,19.714,0,0,1,4.427-.5H224.66a19.636,19.636,0,0,1,14.325,6.226l10.5,11.228L261.5,30.026a19.735,19.735,0,0,1,5.438,13.542Z" transform="translate(-67.718)" fill="#ffdaaa"/>
      <path id="Trazado_609225" data-name="Trazado 609225" d="M377.371,199.8V310.023a27.707,27.707,0,0,1-27.706,27.706h-72a27.707,27.707,0,0,1-27.706-27.706V199.8a27.694,27.694,0,0,1,27.706-27.706h72A27.7,27.7,0,0,1,377.371,199.8Z" transform="translate(-127.856 -88.23)" fill="#4cba68"/>
      <path id="Trazado_609226" data-name="Trazado 609226" d="M389.423,199.8V310.023a27.563,27.563,0,0,1-5.366,16.387,27.582,27.582,0,0,1-10.884,2.224h-72a27.707,27.707,0,0,1-27.706-27.706V190.7a27.563,27.563,0,0,1,5.366-16.387,27.583,27.583,0,0,1,10.884-2.224h72A27.7,27.7,0,0,1,389.423,199.8Z" transform="translate(-139.909 -88.23)" fill="#7ccc92"/>
      <path id="Trazado_609227" data-name="Trazado 609227" d="M380.136,373.3V386.25A4.142,4.142,0,0,1,376,390.394H363.047a4.143,4.143,0,0,1-4.144-4.144V373.3a4.143,4.143,0,0,1,4.144-4.144H376A4.142,4.142,0,0,1,380.136,373.3Z" transform="translate(-183.709 -189.267)" fill="#2c733f"/>
      <path id="Trazado_609228" data-name="Trazado 609228" d="M378.363,214.217v13.871a8.933,8.933,0,0,1-8.934,8.934h-71.46a8.937,8.937,0,0,1-8.934-8.934V214.217a8.937,8.937,0,0,1,8.934-8.934h71.46A8.933,8.933,0,0,1,378.363,214.217Z" transform="translate(-147.888 -105.248)" fill="#415fa6"/>
      <path id="Trazado_609229" data-name="Trazado 609229" d="M394.312,214.217v13.871a8.933,8.933,0,0,1-8.934,8.934h-56.3a8.937,8.937,0,0,1-8.934-8.934V214.217a8.937,8.937,0,0,1,8.934-8.934h56.3A8.933,8.933,0,0,1,394.312,214.217Z" transform="translate(-163.837 -105.248)" fill="#304c8e"/>
      <g id="Grupo_1014942" data-name="Grupo 1014942" transform="translate(141.146 146.038)">
        <path id="Trazado_609230" data-name="Trazado 609230" d="M310.272,373.3V386.25a4.143,4.143,0,0,1-4.144,4.144H293.178a4.146,4.146,0,0,1-4.144-4.144V373.3a4.146,4.146,0,0,1,4.144-4.144h12.951A4.143,4.143,0,0,1,310.272,373.3Z" transform="translate(-289.034 -335.306)" fill="#2c733f"/>
        <path id="Trazado_609231" data-name="Trazado 609231" d="M380.136,303.83v12.946A4.142,4.142,0,0,1,376,320.919H363.047a4.143,4.143,0,0,1-4.144-4.144V303.83a4.143,4.143,0,0,1,4.144-4.144H376A4.142,4.142,0,0,1,380.136,303.83Z" transform="translate(-324.856 -299.686)" fill="#2c733f"/>
      </g>
      <path id="Trazado_609232" data-name="Trazado 609232" d="M450.846,303.83v12.946a4.143,4.143,0,0,1-4.144,4.144H433.757a4.143,4.143,0,0,1-4.144-4.144V303.83a4.143,4.143,0,0,1,4.144-4.144H446.7A4.143,4.143,0,0,1,450.846,303.83Z" transform="translate(-219.962 -153.648)" fill="#ee8700"/>
      <g id="Grupo_1014943" data-name="Grupo 1014943" transform="translate(141.146 146.038)">
        <path id="Trazado_609233" data-name="Trazado 609233" d="M310.272,303.83v12.946a4.143,4.143,0,0,1-4.144,4.144H293.178a4.146,4.146,0,0,1-4.144-4.144V303.83a4.146,4.146,0,0,1,4.144-4.144h12.951A4.143,4.143,0,0,1,310.272,303.83Z" transform="translate(-289.034 -299.686)" fill="#2c733f"/>
        <path id="Trazado_609234" data-name="Trazado 609234" d="M380.136,439.374v12.951A4.142,4.142,0,0,1,376,456.468H363.047a4.143,4.143,0,0,1-4.144-4.144V439.374a4.142,4.142,0,0,1,4.144-4.139H376A4.141,4.141,0,0,1,380.136,439.374Z" transform="translate(-324.856 -369.181)" fill="#2c733f"/>
        <path id="Trazado_609235" data-name="Trazado 609235" d="M310.272,439.374v12.951a4.143,4.143,0,0,1-4.144,4.144H293.178a4.146,4.146,0,0,1-4.144-4.144V439.374a4.145,4.145,0,0,1,4.144-4.139h12.951A4.142,4.142,0,0,1,310.272,439.374Z" transform="translate(-289.034 -369.181)" fill="#2c733f"/>
      </g>
      <path id="Trazado_609236" data-name="Trazado 609236" d="M450.846,375.316v40.207a7.066,7.066,0,0,1-7.064,7.069h-7.1a7.066,7.066,0,0,1-7.064-7.069V375.316a6.156,6.156,0,0,1,6.155-6.155h8.924A6.153,6.153,0,0,1,450.846,375.316Z" transform="translate(-219.963 -189.267)" fill="#ee8700"/>
      <g id="Grupo_1014944" data-name="Grupo 1014944" transform="translate(141.146 146.038)">
        <path id="Trazado_609237" data-name="Trazado 609237" d="M380.136,373.3v3.85A4.142,4.142,0,0,1,376,381.3H363.047a4.143,4.143,0,0,1-4.144-4.144V373.3a4.143,4.143,0,0,1,4.144-4.144H376A4.142,4.142,0,0,1,380.136,373.3Z" transform="translate(-324.856 -335.306)" fill="#317f46"/>
        <path id="Trazado_609238" data-name="Trazado 609238" d="M310.272,373.3v3.85a4.143,4.143,0,0,1-4.144,4.144H293.178a4.146,4.146,0,0,1-4.144-4.144V373.3a4.146,4.146,0,0,1,4.144-4.144h12.951A4.143,4.143,0,0,1,310.272,373.3Z" transform="translate(-289.034 -335.306)" fill="#317f46"/>
        <path id="Trazado_609239" data-name="Trazado 609239" d="M380.136,303.83v3.85A4.142,4.142,0,0,1,376,311.823H363.047a4.143,4.143,0,0,1-4.144-4.144v-3.85a4.143,4.143,0,0,1,4.144-4.144H376A4.142,4.142,0,0,1,380.136,303.83Z" transform="translate(-324.856 -299.686)" fill="#317f46"/>
      </g>
      <path id="Trazado_609240" data-name="Trazado 609240" d="M450.846,303.83v3.85a4.143,4.143,0,0,1-4.144,4.144H433.757a4.143,4.143,0,0,1-4.144-4.144v-3.85a4.143,4.143,0,0,1,4.144-4.144H446.7A4.143,4.143,0,0,1,450.846,303.83Z" transform="translate(-219.962 -153.648)" fill="#ff9811"/>
      <g id="Grupo_1014945" data-name="Grupo 1014945" transform="translate(141.146 146.038)">
        <path id="Trazado_609241" data-name="Trazado 609241" d="M310.272,303.83v3.85a4.143,4.143,0,0,1-4.144,4.144H293.178a4.146,4.146,0,0,1-4.144-4.144v-3.85a4.146,4.146,0,0,1,4.144-4.144h12.951A4.143,4.143,0,0,1,310.272,303.83Z" transform="translate(-289.034 -299.686)" fill="#317f46"/>
        <path id="Trazado_609242" data-name="Trazado 609242" d="M380.136,439.374v3.856A4.142,4.142,0,0,1,376,447.373H363.047a4.143,4.143,0,0,1-4.144-4.143v-3.856a4.142,4.142,0,0,1,4.144-4.139H376A4.141,4.141,0,0,1,380.136,439.374Z" transform="translate(-324.856 -369.181)" fill="#317f46"/>
        <path id="Trazado_609243" data-name="Trazado 609243" d="M310.272,439.374v3.856a4.143,4.143,0,0,1-4.144,4.143H293.178a4.146,4.146,0,0,1-4.144-4.143v-3.856a4.145,4.145,0,0,1,4.144-4.139h12.951A4.142,4.142,0,0,1,310.272,439.374Z" transform="translate(-289.034 -369.181)" fill="#317f46"/>
      </g>
      <path id="Trazado_609244" data-name="Trazado 609244" d="M450.846,375.316v31.111a7.066,7.066,0,0,1-7.064,7.069h-7.1a7.066,7.066,0,0,1-7.064-7.069V375.316a6.156,6.156,0,0,1,6.155-6.155h8.924A6.153,6.153,0,0,1,450.846,375.316Z" transform="translate(-219.963 -189.267)" fill="#ff9811"/>
      <path id="Trazado_609245" data-name="Trazado 609245" d="M371.024,37.762H346.456a7.537,7.537,0,0,1-7.537-7.537V4a19.584,19.584,0,0,1,5.811,4.272l10.5,11.229,12.014,12.574A19.408,19.408,0,0,1,371.024,37.762Z" transform="translate(-173.464 -2.052)" fill="#ffb655"/>
      <g id="Grupo_1014946" data-name="Grupo 1014946" transform="translate(74.74 47.748)">
        <path id="Trazado_609246" data-name="Trazado 609246" d="M175.557,190.248h0c-4.621-1.7-7.959-2.924-7.959-7.205,0-3.9,2.591-5.88,7.7-5.88a13.153,13.153,0,0,1,6.655,1.657,4.826,4.826,0,0,0,2.141.73c2.08,0,3.23-2.207,3.23-3.733,0-3.157-5.15-4.723-9.754-5.136v-2.847a3.591,3.591,0,0,0-7.183,0v3.3c-6.295,1.495-9.754,5.843-9.754,12.285,0,8.821,6.494,11.261,11.712,13.223,5.11,1.92,9.146,3.436,9.146,9.27,0,4.818-2.676,7.262-7.953,7.262a9.607,9.607,0,0,1-8.074-3.551c-.828-.893-1.543-1.664-2.669-1.664-1.824,0-3.294,2.042-3.294,3.733,0,2.986,4.448,6.911,10.885,7.931v2.751a3.591,3.591,0,1,0,7.183,0v-2.824c6.925-1.3,10.885-6.388,10.885-14.014C188.456,194.988,181.3,192.36,175.557,190.248Z" transform="translate(-156.219 -131.955)" fill="#4e901e"/>
        <path id="Trazado_609247" data-name="Trazado 609247" d="M325.573,105.565h9.52a3.79,3.79,0,1,0,0-7.58h-9.52a3.79,3.79,0,0,0,0,7.58Z" transform="translate(-239.418 -97.985)" fill="#4e901e"/>
        <path id="Trazado_609248" data-name="Trazado 609248" d="M156.552,105.565h67.206a3.79,3.79,0,0,0,0-7.58H156.552a3.79,3.79,0,1,0,0,7.58Z" transform="translate(-152.762 -97.985)" fill="#4e901e"/>
        <path id="Trazado_609249" data-name="Trazado 609249" d="M168.6,144.167a3.79,3.79,0,1,0,0-7.58H156.552a3.79,3.79,0,1,0,0,7.58Z" transform="translate(-152.762 -117.776)" fill="#4e901e"/>
        <path id="Trazado_609250" data-name="Trazado 609250" d="M277.059,136.587H212.38a3.79,3.79,0,0,0,0,7.58h64.679a3.79,3.79,0,1,0,0-7.58Z" transform="translate(-181.385 -117.776)" fill="#4e901e"/>
      </g>
      <path id="Trazado_609251" data-name="Trazado 609251" d="M141.342,477.448a9.627,9.627,0,0,1-9.6,9.6H72.924a9.6,9.6,0,0,1,0-19.2h58.818A9.629,9.629,0,0,1,141.342,477.448Z" transform="translate(-32.167 -239.863)" fill="#aa6100"/>
      <path id="Trazado_609252" data-name="Trazado 609252" d="M141.342,438.044a9.627,9.627,0,0,1-9.6,9.6H72.924a9.6,9.6,0,0,1,0-19.2h58.818A9.629,9.629,0,0,1,141.342,438.044Z" transform="translate(-32.167 -219.661)" fill="#cc7400"/>
      <path id="Trazado_609253" data-name="Trazado 609253" d="M141.342,398.64a9.627,9.627,0,0,1-9.6,9.6H72.924a9.6,9.6,0,0,1,0-19.2h58.818A9.629,9.629,0,0,1,141.342,398.64Z" transform="translate(-32.167 -199.459)" fill="#ee8700"/>
      <path id="Trazado_609254" data-name="Trazado 609254" d="M141.342,359.237a9.627,9.627,0,0,1-9.6,9.6H72.924a9.629,9.629,0,0,1-9.6-9.6,9.627,9.627,0,0,1,9.6-9.6h58.818A9.629,9.629,0,0,1,141.342,359.237Z" transform="translate(-32.167 -179.257)" fill="#ff9811"/>
      <path id="Trazado_609255" data-name="Trazado 609255" d="M131.741,329.435H72.926a9.629,9.629,0,0,1-9.6-9.6h0a9.629,9.629,0,0,1,9.6-9.6h58.816a9.629,9.629,0,0,1,9.6,9.6h0A9.63,9.63,0,0,1,131.741,329.435Z" transform="translate(-32.168 -159.055)" fill="#ffa733"/>
      <path id="Trazado_609256" data-name="Trazado 609256" d="M42.843,381.232v62.5H33.279a31.171,31.171,0,0,1-22.112-7.871C-10.086,417,2.85,382.435,30.6,381.232Z" transform="translate(0 -195.456)" fill="#cc7400"/>
      <path id="Trazado_609257" data-name="Trazado 609257" d="M88.337,413.586a31.275,31.275,0,0,1-62.5.207c0-.07-.006-.137-.006-.207a31.275,31.275,0,0,1,62.5-2.465Q88.383,412.366,88.337,413.586Z" transform="translate(-12.933 -195.428)" fill="#ffc477"/>
      <path id="Trazado_609258" data-name="Trazado 609258" d="M70.532,443.559c-.382.086-.761.162-1.142.229a23.4,23.4,0,1,1,1.142-.229Z" transform="translate(-21.206 -203.706)" fill="#cc7400"/>
      <path id="Trazado_609259" data-name="Trazado 609259" d="M79.066,443.933c-.382.086-.761.162-1.142.229a23.41,23.41,0,0,1-1.1-45.881c.379-.086.761-.162,1.139-.229a23.41,23.41,0,0,1,1.1,45.881Z" transform="translate(-29.74 -204.08)" fill="#ee8700"/>
      <path id="Trazado_609260" data-name="Trazado 609260" d="M88.359,447.684a31.275,31.275,0,0,1-62.5.207c0-.07-.006-.137-.006-.207H33.72a23.433,23.433,0,0,0,28.56,21.695,23.4,23.4,0,0,0,18.205-21.695Z" transform="translate(-12.955 -229.526)" fill="#ffa733"/>
      <g id="Grupo_1014947" data-name="Grupo 1014947" transform="translate(0.66 196.381)">
        <path id="Trazado_609261" data-name="Trazado 609261" d="M82.644,418.888l-.587-.217c-3.328-1.223-3.667-1.611-3.667-2.739,0-.95.35-1.223.678-1.4a4.889,4.889,0,0,1,2.257-.439,6.151,6.151,0,0,1,3.223.809,4.318,4.318,0,0,0,2.046.621,3.834,3.834,0,0,0,3.614-3.915c0-2.3-2.061-3.893-5.842-4.543v-.238a3.83,3.83,0,1,0-7.659,0v.727a8.594,8.594,0,0,0-5.842,8.607c0,6.446,4.683,8.205,8.1,9.491,3.261,1.226,4.389,1.762,4.389,3.981,0,1.387-.373,2.67-3.084,2.67a4.154,4.154,0,0,1-3.606-1.591,3.819,3.819,0,0,0-2.829-1.532,3.948,3.948,0,0,0-3.652,3.914c0,2.618,2.723,5.1,6.52,6.111v.287a3.83,3.83,0,0,0,7.659,0V439.1c4.108-1.321,6.52-4.858,6.52-9.7C90.883,421.96,85.524,419.962,82.644,418.888Z" transform="translate(-36.346 -402.994)" fill="#aa6100"/>
        <path id="Trazado_609262" data-name="Trazado 609262" d="M19.748,409.992a31.175,31.175,0,0,0-3.648,7.559H3.9a30.789,30.789,0,0,1,3.643-7.559Z" transform="translate(-2.359 -406.582)" fill="#aa6100"/>
        <path id="Trazado_609263" data-name="Trazado 609263" d="M13.2,445.461H.988A31.461,31.461,0,0,1,.953,437.9H13.168A31.351,31.351,0,0,0,13.2,445.461Z" transform="translate(-0.742 -420.891)" fill="#aa6100"/>
        <path id="Trazado_609264" data-name="Trazado 609264" d="M20.394,474.075H8.179a31.028,31.028,0,0,1-3.86-7.559h12.21A30.831,30.831,0,0,0,20.394,474.075Z" transform="translate(-2.576 -435.562)" fill="#aa6100"/>
      </g>
    </g>
  </g>
</svg>
